<?xml version="1.0" encoding="utf-8" standalone="no"?>
<!DOCTYPE svg PUBLIC "-//W3C//DTD SVG 1.1//EN"
  "http://www.w3.org/Graphics/SVG/1.1/DTD/svg11.dtd">
<!-- Created with matplotlib (https://matplotlib.org/) -->
<svg height="648pt" version="1.1" viewBox="0 0 1008 648" width="1008pt" xmlns="http://www.w3.org/2000/svg" xmlns:xlink="http://www.w3.org/1999/xlink">
 <metadata>
  <rdf:RDF xmlns:cc="http://creativecommons.org/ns#" xmlns:dc="http://purl.org/dc/elements/1.1/" xmlns:rdf="http://www.w3.org/1999/02/22-rdf-syntax-ns#">
   <cc:Work>
    <dc:type rdf:resource="http://purl.org/dc/dcmitype/StillImage"/>
    <dc:date>2021-08-25T17:41:53.787241</dc:date>
    <dc:format>image/svg+xml</dc:format>
    <dc:creator>
     <cc:Agent>
      <dc:title>Matplotlib v3.3.4, https://matplotlib.org/</dc:title>
     </cc:Agent>
    </dc:creator>
   </cc:Work>
  </rdf:RDF>
 </metadata>
 <defs>
  <style type="text/css">*{stroke-linecap:butt;stroke-linejoin:round;}</style>
 </defs>
 <g id="figure_1">
  <g id="patch_1">
   <path d="M 0 648 
L 1008 648 
L 1008 0 
L 0 0 
z
" style="fill:#ffffff;"/>
  </g>
  <g id="axes_1">
   <g id="patch_2">
    <path d="M 70.17125 174.84 
L 978 174.84 
L 978 46.08 
L 70.17125 46.08 
z
" style="fill:#ffffff;"/>
   </g>
   <g id="matplotlib.axis_1">
    <g id="xtick_1">
     <g id="line2d_1">
      <defs>
       <path d="M 0 0 
L 0 3.5 
" id="m031f94de38" style="stroke:#000000;stroke-width:0.8;"/>
      </defs>
      <g>
       <use style="stroke:#000000;stroke-width:0.8;" x="111.436193" xlink:href="#m031f94de38" y="174.84"/>
      </g>
     </g>
     <g id="text_1">
      <!-- 2020/02/29 -->
      <g transform="translate(82.617443 189.438437)scale(0.1 -0.1)">
       <defs>
        <path d="M 19.1875 8.296875 
L 53.609375 8.296875 
L 53.609375 0 
L 7.328125 0 
L 7.328125 8.296875 
Q 12.9375 14.109375 22.625 23.890625 
Q 32.328125 33.6875 34.8125 36.53125 
Q 39.546875 41.84375 41.421875 45.53125 
Q 43.3125 49.21875 43.3125 52.78125 
Q 43.3125 58.59375 39.234375 62.25 
Q 35.15625 65.921875 28.609375 65.921875 
Q 23.96875 65.921875 18.8125 64.3125 
Q 13.671875 62.703125 7.8125 59.421875 
L 7.8125 69.390625 
Q 13.765625 71.78125 18.9375 73 
Q 24.125 74.21875 28.421875 74.21875 
Q 39.75 74.21875 46.484375 68.546875 
Q 53.21875 62.890625 53.21875 53.421875 
Q 53.21875 48.921875 51.53125 44.890625 
Q 49.859375 40.875 45.40625 35.40625 
Q 44.1875 33.984375 37.640625 27.21875 
Q 31.109375 20.453125 19.1875 8.296875 
z
" id="DejaVuSans-50"/>
        <path d="M 31.78125 66.40625 
Q 24.171875 66.40625 20.328125 58.90625 
Q 16.5 51.421875 16.5 36.375 
Q 16.5 21.390625 20.328125 13.890625 
Q 24.171875 6.390625 31.78125 6.390625 
Q 39.453125 6.390625 43.28125 13.890625 
Q 47.125 21.390625 47.125 36.375 
Q 47.125 51.421875 43.28125 58.90625 
Q 39.453125 66.40625 31.78125 66.40625 
z
M 31.78125 74.21875 
Q 44.046875 74.21875 50.515625 64.515625 
Q 56.984375 54.828125 56.984375 36.375 
Q 56.984375 17.96875 50.515625 8.265625 
Q 44.046875 -1.421875 31.78125 -1.421875 
Q 19.53125 -1.421875 13.0625 8.265625 
Q 6.59375 17.96875 6.59375 36.375 
Q 6.59375 54.828125 13.0625 64.515625 
Q 19.53125 74.21875 31.78125 74.21875 
z
" id="DejaVuSans-48"/>
        <path d="M 25.390625 72.90625 
L 33.6875 72.90625 
L 8.296875 -9.28125 
L 0 -9.28125 
z
" id="DejaVuSans-47"/>
        <path d="M 10.984375 1.515625 
L 10.984375 10.5 
Q 14.703125 8.734375 18.5 7.8125 
Q 22.3125 6.890625 25.984375 6.890625 
Q 35.75 6.890625 40.890625 13.453125 
Q 46.046875 20.015625 46.78125 33.40625 
Q 43.953125 29.203125 39.59375 26.953125 
Q 35.25 24.703125 29.984375 24.703125 
Q 19.046875 24.703125 12.671875 31.3125 
Q 6.296875 37.9375 6.296875 49.421875 
Q 6.296875 60.640625 12.9375 67.421875 
Q 19.578125 74.21875 30.609375 74.21875 
Q 43.265625 74.21875 49.921875 64.515625 
Q 56.59375 54.828125 56.59375 36.375 
Q 56.59375 19.140625 48.40625 8.859375 
Q 40.234375 -1.421875 26.421875 -1.421875 
Q 22.703125 -1.421875 18.890625 -0.6875 
Q 15.09375 0.046875 10.984375 1.515625 
z
M 30.609375 32.421875 
Q 37.25 32.421875 41.125 36.953125 
Q 45.015625 41.5 45.015625 49.421875 
Q 45.015625 57.28125 41.125 61.84375 
Q 37.25 66.40625 30.609375 66.40625 
Q 23.96875 66.40625 20.09375 61.84375 
Q 16.21875 57.28125 16.21875 49.421875 
Q 16.21875 41.5 20.09375 36.953125 
Q 23.96875 32.421875 30.609375 32.421875 
z
" id="DejaVuSans-57"/>
       </defs>
       <use xlink:href="#DejaVuSans-50"/>
       <use x="63.623047" xlink:href="#DejaVuSans-48"/>
       <use x="127.246094" xlink:href="#DejaVuSans-50"/>
       <use x="190.869141" xlink:href="#DejaVuSans-48"/>
       <use x="254.492188" xlink:href="#DejaVuSans-47"/>
       <use x="288.183594" xlink:href="#DejaVuSans-48"/>
       <use x="351.806641" xlink:href="#DejaVuSans-50"/>
       <use x="415.429688" xlink:href="#DejaVuSans-47"/>
       <use x="449.121094" xlink:href="#DejaVuSans-50"/>
       <use x="512.744141" xlink:href="#DejaVuSans-57"/>
      </g>
     </g>
    </g>
    <g id="xtick_2">
     <g id="line2d_2">
      <g>
       <use style="stroke:#000000;stroke-width:0.8;" x="310.783745" xlink:href="#m031f94de38" y="174.84"/>
      </g>
     </g>
     <g id="text_2">
      <!-- 2020/06/08 -->
      <g transform="translate(281.964995 189.438437)scale(0.1 -0.1)">
       <defs>
        <path d="M 33.015625 40.375 
Q 26.375 40.375 22.484375 35.828125 
Q 18.609375 31.296875 18.609375 23.390625 
Q 18.609375 15.53125 22.484375 10.953125 
Q 26.375 6.390625 33.015625 6.390625 
Q 39.65625 6.390625 43.53125 10.953125 
Q 47.40625 15.53125 47.40625 23.390625 
Q 47.40625 31.296875 43.53125 35.828125 
Q 39.65625 40.375 33.015625 40.375 
z
M 52.59375 71.296875 
L 52.59375 62.3125 
Q 48.875 64.0625 45.09375 64.984375 
Q 41.3125 65.921875 37.59375 65.921875 
Q 27.828125 65.921875 22.671875 59.328125 
Q 17.53125 52.734375 16.796875 39.40625 
Q 19.671875 43.65625 24.015625 45.921875 
Q 28.375 48.1875 33.59375 48.1875 
Q 44.578125 48.1875 50.953125 41.515625 
Q 57.328125 34.859375 57.328125 23.390625 
Q 57.328125 12.15625 50.6875 5.359375 
Q 44.046875 -1.421875 33.015625 -1.421875 
Q 20.359375 -1.421875 13.671875 8.265625 
Q 6.984375 17.96875 6.984375 36.375 
Q 6.984375 53.65625 15.1875 63.9375 
Q 23.390625 74.21875 37.203125 74.21875 
Q 40.921875 74.21875 44.703125 73.484375 
Q 48.484375 72.75 52.59375 71.296875 
z
" id="DejaVuSans-54"/>
        <path d="M 31.78125 34.625 
Q 24.75 34.625 20.71875 30.859375 
Q 16.703125 27.09375 16.703125 20.515625 
Q 16.703125 13.921875 20.71875 10.15625 
Q 24.75 6.390625 31.78125 6.390625 
Q 38.8125 6.390625 42.859375 10.171875 
Q 46.921875 13.96875 46.921875 20.515625 
Q 46.921875 27.09375 42.890625 30.859375 
Q 38.875 34.625 31.78125 34.625 
z
M 21.921875 38.8125 
Q 15.578125 40.375 12.03125 44.71875 
Q 8.5 49.078125 8.5 55.328125 
Q 8.5 64.0625 14.71875 69.140625 
Q 20.953125 74.21875 31.78125 74.21875 
Q 42.671875 74.21875 48.875 69.140625 
Q 55.078125 64.0625 55.078125 55.328125 
Q 55.078125 49.078125 51.53125 44.71875 
Q 48 40.375 41.703125 38.8125 
Q 48.828125 37.15625 52.796875 32.3125 
Q 56.78125 27.484375 56.78125 20.515625 
Q 56.78125 9.90625 50.3125 4.234375 
Q 43.84375 -1.421875 31.78125 -1.421875 
Q 19.734375 -1.421875 13.25 4.234375 
Q 6.78125 9.90625 6.78125 20.515625 
Q 6.78125 27.484375 10.78125 32.3125 
Q 14.796875 37.15625 21.921875 38.8125 
z
M 18.3125 54.390625 
Q 18.3125 48.734375 21.84375 45.5625 
Q 25.390625 42.390625 31.78125 42.390625 
Q 38.140625 42.390625 41.71875 45.5625 
Q 45.3125 48.734375 45.3125 54.390625 
Q 45.3125 60.0625 41.71875 63.234375 
Q 38.140625 66.40625 31.78125 66.40625 
Q 25.390625 66.40625 21.84375 63.234375 
Q 18.3125 60.0625 18.3125 54.390625 
z
" id="DejaVuSans-56"/>
       </defs>
       <use xlink:href="#DejaVuSans-50"/>
       <use x="63.623047" xlink:href="#DejaVuSans-48"/>
       <use x="127.246094" xlink:href="#DejaVuSans-50"/>
       <use x="190.869141" xlink:href="#DejaVuSans-48"/>
       <use x="254.492188" xlink:href="#DejaVuSans-47"/>
       <use x="288.183594" xlink:href="#DejaVuSans-48"/>
       <use x="351.806641" xlink:href="#DejaVuSans-54"/>
       <use x="415.429688" xlink:href="#DejaVuSans-47"/>
       <use x="449.121094" xlink:href="#DejaVuSans-48"/>
       <use x="512.744141" xlink:href="#DejaVuSans-56"/>
      </g>
     </g>
    </g>
    <g id="xtick_3">
     <g id="line2d_3">
      <g>
       <use style="stroke:#000000;stroke-width:0.8;" x="510.131296" xlink:href="#m031f94de38" y="174.84"/>
      </g>
     </g>
     <g id="text_3">
      <!-- 2020/09/16 -->
      <g transform="translate(481.312546 189.438437)scale(0.1 -0.1)">
       <defs>
        <path d="M 12.40625 8.296875 
L 28.515625 8.296875 
L 28.515625 63.921875 
L 10.984375 60.40625 
L 10.984375 69.390625 
L 28.421875 72.90625 
L 38.28125 72.90625 
L 38.28125 8.296875 
L 54.390625 8.296875 
L 54.390625 0 
L 12.40625 0 
z
" id="DejaVuSans-49"/>
       </defs>
       <use xlink:href="#DejaVuSans-50"/>
       <use x="63.623047" xlink:href="#DejaVuSans-48"/>
       <use x="127.246094" xlink:href="#DejaVuSans-50"/>
       <use x="190.869141" xlink:href="#DejaVuSans-48"/>
       <use x="254.492188" xlink:href="#DejaVuSans-47"/>
       <use x="288.183594" xlink:href="#DejaVuSans-48"/>
       <use x="351.806641" xlink:href="#DejaVuSans-57"/>
       <use x="415.429688" xlink:href="#DejaVuSans-47"/>
       <use x="449.121094" xlink:href="#DejaVuSans-49"/>
       <use x="512.744141" xlink:href="#DejaVuSans-54"/>
      </g>
     </g>
    </g>
    <g id="xtick_4">
     <g id="line2d_4">
      <g>
       <use style="stroke:#000000;stroke-width:0.8;" x="709.478848" xlink:href="#m031f94de38" y="174.84"/>
      </g>
     </g>
     <g id="text_4">
      <!-- 2020/12/25 -->
      <g transform="translate(680.660098 189.438437)scale(0.1 -0.1)">
       <defs>
        <path d="M 10.796875 72.90625 
L 49.515625 72.90625 
L 49.515625 64.59375 
L 19.828125 64.59375 
L 19.828125 46.734375 
Q 21.96875 47.46875 24.109375 47.828125 
Q 26.265625 48.1875 28.421875 48.1875 
Q 40.625 48.1875 47.75 41.5 
Q 54.890625 34.8125 54.890625 23.390625 
Q 54.890625 11.625 47.5625 5.09375 
Q 40.234375 -1.421875 26.90625 -1.421875 
Q 22.3125 -1.421875 17.546875 -0.640625 
Q 12.796875 0.140625 7.71875 1.703125 
L 7.71875 11.625 
Q 12.109375 9.234375 16.796875 8.0625 
Q 21.484375 6.890625 26.703125 6.890625 
Q 35.15625 6.890625 40.078125 11.328125 
Q 45.015625 15.765625 45.015625 23.390625 
Q 45.015625 31 40.078125 35.4375 
Q 35.15625 39.890625 26.703125 39.890625 
Q 22.75 39.890625 18.8125 39.015625 
Q 14.890625 38.140625 10.796875 36.28125 
z
" id="DejaVuSans-53"/>
       </defs>
       <use xlink:href="#DejaVuSans-50"/>
       <use x="63.623047" xlink:href="#DejaVuSans-48"/>
       <use x="127.246094" xlink:href="#DejaVuSans-50"/>
       <use x="190.869141" xlink:href="#DejaVuSans-48"/>
       <use x="254.492188" xlink:href="#DejaVuSans-47"/>
       <use x="288.183594" xlink:href="#DejaVuSans-49"/>
       <use x="351.806641" xlink:href="#DejaVuSans-50"/>
       <use x="415.429688" xlink:href="#DejaVuSans-47"/>
       <use x="449.121094" xlink:href="#DejaVuSans-50"/>
       <use x="512.744141" xlink:href="#DejaVuSans-53"/>
      </g>
     </g>
    </g>
    <g id="xtick_5">
     <g id="line2d_5">
      <g>
       <use style="stroke:#000000;stroke-width:0.8;" x="908.8264" xlink:href="#m031f94de38" y="174.84"/>
      </g>
     </g>
     <g id="text_5">
      <!-- 2021/04/04 -->
      <g transform="translate(880.00765 189.438437)scale(0.1 -0.1)">
       <defs>
        <path d="M 37.796875 64.3125 
L 12.890625 25.390625 
L 37.796875 25.390625 
z
M 35.203125 72.90625 
L 47.609375 72.90625 
L 47.609375 25.390625 
L 58.015625 25.390625 
L 58.015625 17.1875 
L 47.609375 17.1875 
L 47.609375 0 
L 37.796875 0 
L 37.796875 17.1875 
L 4.890625 17.1875 
L 4.890625 26.703125 
z
" id="DejaVuSans-52"/>
       </defs>
       <use xlink:href="#DejaVuSans-50"/>
       <use x="63.623047" xlink:href="#DejaVuSans-48"/>
       <use x="127.246094" xlink:href="#DejaVuSans-50"/>
       <use x="190.869141" xlink:href="#DejaVuSans-49"/>
       <use x="254.492188" xlink:href="#DejaVuSans-47"/>
       <use x="288.183594" xlink:href="#DejaVuSans-48"/>
       <use x="351.806641" xlink:href="#DejaVuSans-52"/>
       <use x="415.429688" xlink:href="#DejaVuSans-47"/>
       <use x="449.121094" xlink:href="#DejaVuSans-48"/>
       <use x="512.744141" xlink:href="#DejaVuSans-52"/>
      </g>
     </g>
    </g>
    <g id="text_6">
     <!-- Time, t [days] -->
     <g transform="translate(489.420781 203.116562)scale(0.1 -0.1)">
      <defs>
       <path d="M -0.296875 72.90625 
L 61.375 72.90625 
L 61.375 64.59375 
L 35.5 64.59375 
L 35.5 0 
L 25.59375 0 
L 25.59375 64.59375 
L -0.296875 64.59375 
z
" id="DejaVuSans-84"/>
       <path d="M 9.421875 54.6875 
L 18.40625 54.6875 
L 18.40625 0 
L 9.421875 0 
z
M 9.421875 75.984375 
L 18.40625 75.984375 
L 18.40625 64.59375 
L 9.421875 64.59375 
z
" id="DejaVuSans-105"/>
       <path d="M 52 44.1875 
Q 55.375 50.25 60.0625 53.125 
Q 64.75 56 71.09375 56 
Q 79.640625 56 84.28125 50.015625 
Q 88.921875 44.046875 88.921875 33.015625 
L 88.921875 0 
L 79.890625 0 
L 79.890625 32.71875 
Q 79.890625 40.578125 77.09375 44.375 
Q 74.3125 48.1875 68.609375 48.1875 
Q 61.625 48.1875 57.5625 43.546875 
Q 53.515625 38.921875 53.515625 30.90625 
L 53.515625 0 
L 44.484375 0 
L 44.484375 32.71875 
Q 44.484375 40.625 41.703125 44.40625 
Q 38.921875 48.1875 33.109375 48.1875 
Q 26.21875 48.1875 22.15625 43.53125 
Q 18.109375 38.875 18.109375 30.90625 
L 18.109375 0 
L 9.078125 0 
L 9.078125 54.6875 
L 18.109375 54.6875 
L 18.109375 46.1875 
Q 21.1875 51.21875 25.484375 53.609375 
Q 29.78125 56 35.6875 56 
Q 41.65625 56 45.828125 52.96875 
Q 50 49.953125 52 44.1875 
z
" id="DejaVuSans-109"/>
       <path d="M 56.203125 29.59375 
L 56.203125 25.203125 
L 14.890625 25.203125 
Q 15.484375 15.921875 20.484375 11.0625 
Q 25.484375 6.203125 34.421875 6.203125 
Q 39.59375 6.203125 44.453125 7.46875 
Q 49.3125 8.734375 54.109375 11.28125 
L 54.109375 2.78125 
Q 49.265625 0.734375 44.1875 -0.34375 
Q 39.109375 -1.421875 33.890625 -1.421875 
Q 20.796875 -1.421875 13.15625 6.1875 
Q 5.515625 13.8125 5.515625 26.8125 
Q 5.515625 40.234375 12.765625 48.109375 
Q 20.015625 56 32.328125 56 
Q 43.359375 56 49.78125 48.890625 
Q 56.203125 41.796875 56.203125 29.59375 
z
M 47.21875 32.234375 
Q 47.125 39.59375 43.09375 43.984375 
Q 39.0625 48.390625 32.421875 48.390625 
Q 24.90625 48.390625 20.390625 44.140625 
Q 15.875 39.890625 15.1875 32.171875 
z
" id="DejaVuSans-101"/>
       <path d="M 11.71875 12.40625 
L 22.015625 12.40625 
L 22.015625 4 
L 14.015625 -11.625 
L 7.71875 -11.625 
L 11.71875 4 
z
" id="DejaVuSans-44"/>
       <path id="DejaVuSans-32"/>
       <path d="M 18.3125 70.21875 
L 18.3125 54.6875 
L 36.8125 54.6875 
L 36.8125 47.703125 
L 18.3125 47.703125 
L 18.3125 18.015625 
Q 18.3125 11.328125 20.140625 9.421875 
Q 21.96875 7.515625 27.59375 7.515625 
L 36.8125 7.515625 
L 36.8125 0 
L 27.59375 0 
Q 17.1875 0 13.234375 3.875 
Q 9.28125 7.765625 9.28125 18.015625 
L 9.28125 47.703125 
L 2.6875 47.703125 
L 2.6875 54.6875 
L 9.28125 54.6875 
L 9.28125 70.21875 
z
" id="DejaVuSans-116"/>
       <path d="M 8.59375 75.984375 
L 29.296875 75.984375 
L 29.296875 69 
L 17.578125 69 
L 17.578125 -6.203125 
L 29.296875 -6.203125 
L 29.296875 -13.1875 
L 8.59375 -13.1875 
z
" id="DejaVuSans-91"/>
       <path d="M 45.40625 46.390625 
L 45.40625 75.984375 
L 54.390625 75.984375 
L 54.390625 0 
L 45.40625 0 
L 45.40625 8.203125 
Q 42.578125 3.328125 38.25 0.953125 
Q 33.9375 -1.421875 27.875 -1.421875 
Q 17.96875 -1.421875 11.734375 6.484375 
Q 5.515625 14.40625 5.515625 27.296875 
Q 5.515625 40.1875 11.734375 48.09375 
Q 17.96875 56 27.875 56 
Q 33.9375 56 38.25 53.625 
Q 42.578125 51.265625 45.40625 46.390625 
z
M 14.796875 27.296875 
Q 14.796875 17.390625 18.875 11.75 
Q 22.953125 6.109375 30.078125 6.109375 
Q 37.203125 6.109375 41.296875 11.75 
Q 45.40625 17.390625 45.40625 27.296875 
Q 45.40625 37.203125 41.296875 42.84375 
Q 37.203125 48.484375 30.078125 48.484375 
Q 22.953125 48.484375 18.875 42.84375 
Q 14.796875 37.203125 14.796875 27.296875 
z
" id="DejaVuSans-100"/>
       <path d="M 34.28125 27.484375 
Q 23.390625 27.484375 19.1875 25 
Q 14.984375 22.515625 14.984375 16.5 
Q 14.984375 11.71875 18.140625 8.90625 
Q 21.296875 6.109375 26.703125 6.109375 
Q 34.1875 6.109375 38.703125 11.40625 
Q 43.21875 16.703125 43.21875 25.484375 
L 43.21875 27.484375 
z
M 52.203125 31.203125 
L 52.203125 0 
L 43.21875 0 
L 43.21875 8.296875 
Q 40.140625 3.328125 35.546875 0.953125 
Q 30.953125 -1.421875 24.3125 -1.421875 
Q 15.921875 -1.421875 10.953125 3.296875 
Q 6 8.015625 6 15.921875 
Q 6 25.140625 12.171875 29.828125 
Q 18.359375 34.515625 30.609375 34.515625 
L 43.21875 34.515625 
L 43.21875 35.40625 
Q 43.21875 41.609375 39.140625 45 
Q 35.0625 48.390625 27.6875 48.390625 
Q 23 48.390625 18.546875 47.265625 
Q 14.109375 46.140625 10.015625 43.890625 
L 10.015625 52.203125 
Q 14.9375 54.109375 19.578125 55.046875 
Q 24.21875 56 28.609375 56 
Q 40.484375 56 46.34375 49.84375 
Q 52.203125 43.703125 52.203125 31.203125 
z
" id="DejaVuSans-97"/>
       <path d="M 32.171875 -5.078125 
Q 28.375 -14.84375 24.75 -17.8125 
Q 21.140625 -20.796875 15.09375 -20.796875 
L 7.90625 -20.796875 
L 7.90625 -13.28125 
L 13.1875 -13.28125 
Q 16.890625 -13.28125 18.9375 -11.515625 
Q 21 -9.765625 23.484375 -3.21875 
L 25.09375 0.875 
L 2.984375 54.6875 
L 12.5 54.6875 
L 29.59375 11.921875 
L 46.6875 54.6875 
L 56.203125 54.6875 
z
" id="DejaVuSans-121"/>
       <path d="M 44.28125 53.078125 
L 44.28125 44.578125 
Q 40.484375 46.53125 36.375 47.5 
Q 32.28125 48.484375 27.875 48.484375 
Q 21.1875 48.484375 17.84375 46.4375 
Q 14.5 44.390625 14.5 40.28125 
Q 14.5 37.15625 16.890625 35.375 
Q 19.28125 33.59375 26.515625 31.984375 
L 29.59375 31.296875 
Q 39.15625 29.25 43.1875 25.515625 
Q 47.21875 21.78125 47.21875 15.09375 
Q 47.21875 7.46875 41.1875 3.015625 
Q 35.15625 -1.421875 24.609375 -1.421875 
Q 20.21875 -1.421875 15.453125 -0.5625 
Q 10.6875 0.296875 5.421875 2 
L 5.421875 11.28125 
Q 10.40625 8.6875 15.234375 7.390625 
Q 20.0625 6.109375 24.8125 6.109375 
Q 31.15625 6.109375 34.5625 8.28125 
Q 37.984375 10.453125 37.984375 14.40625 
Q 37.984375 18.0625 35.515625 20.015625 
Q 33.0625 21.96875 24.703125 23.78125 
L 21.578125 24.515625 
Q 13.234375 26.265625 9.515625 29.90625 
Q 5.8125 33.546875 5.8125 39.890625 
Q 5.8125 47.609375 11.28125 51.796875 
Q 16.75 56 26.8125 56 
Q 31.78125 56 36.171875 55.265625 
Q 40.578125 54.546875 44.28125 53.078125 
z
" id="DejaVuSans-115"/>
       <path d="M 30.421875 75.984375 
L 30.421875 -13.1875 
L 9.71875 -13.1875 
L 9.71875 -6.203125 
L 21.390625 -6.203125 
L 21.390625 69 
L 9.71875 69 
L 9.71875 75.984375 
z
" id="DejaVuSans-93"/>
      </defs>
      <use xlink:href="#DejaVuSans-84"/>
      <use x="57.958984" xlink:href="#DejaVuSans-105"/>
      <use x="85.742188" xlink:href="#DejaVuSans-109"/>
      <use x="183.154297" xlink:href="#DejaVuSans-101"/>
      <use x="244.677734" xlink:href="#DejaVuSans-44"/>
      <use x="276.464844" xlink:href="#DejaVuSans-32"/>
      <use x="308.251953" xlink:href="#DejaVuSans-116"/>
      <use x="347.460938" xlink:href="#DejaVuSans-32"/>
      <use x="379.248047" xlink:href="#DejaVuSans-91"/>
      <use x="418.261719" xlink:href="#DejaVuSans-100"/>
      <use x="481.738281" xlink:href="#DejaVuSans-97"/>
      <use x="543.017578" xlink:href="#DejaVuSans-121"/>
      <use x="602.197266" xlink:href="#DejaVuSans-115"/>
      <use x="654.296875" xlink:href="#DejaVuSans-93"/>
     </g>
    </g>
   </g>
   <g id="matplotlib.axis_2">
    <g id="ytick_1">
     <g id="line2d_6">
      <defs>
       <path d="M 0 0 
L -3.5 0 
" id="m3462f32d20" style="stroke:#000000;stroke-width:0.8;"/>
      </defs>
      <g>
       <use style="stroke:#000000;stroke-width:0.8;" x="70.17125" xlink:href="#m3462f32d20" y="167.479334"/>
      </g>
     </g>
     <g id="text_7">
      <!-- 0 -->
      <g transform="translate(56.80875 171.278552)scale(0.1 -0.1)">
       <use xlink:href="#DejaVuSans-48"/>
      </g>
     </g>
    </g>
    <g id="ytick_2">
     <g id="line2d_7">
      <g>
       <use style="stroke:#000000;stroke-width:0.8;" x="70.17125" xlink:href="#m3462f32d20" y="130.206235"/>
      </g>
     </g>
     <g id="text_8">
      <!-- 100 -->
      <g transform="translate(44.08375 134.005454)scale(0.1 -0.1)">
       <use xlink:href="#DejaVuSans-49"/>
       <use x="63.623047" xlink:href="#DejaVuSans-48"/>
       <use x="127.246094" xlink:href="#DejaVuSans-48"/>
      </g>
     </g>
    </g>
    <g id="ytick_3">
     <g id="line2d_8">
      <g>
       <use style="stroke:#000000;stroke-width:0.8;" x="70.17125" xlink:href="#m3462f32d20" y="92.933136"/>
      </g>
     </g>
     <g id="text_9">
      <!-- 200 -->
      <g transform="translate(44.08375 96.732355)scale(0.1 -0.1)">
       <use xlink:href="#DejaVuSans-50"/>
       <use x="63.623047" xlink:href="#DejaVuSans-48"/>
       <use x="127.246094" xlink:href="#DejaVuSans-48"/>
      </g>
     </g>
    </g>
    <g id="ytick_4">
     <g id="line2d_9">
      <g>
       <use style="stroke:#000000;stroke-width:0.8;" x="70.17125" xlink:href="#m3462f32d20" y="55.660037"/>
      </g>
     </g>
     <g id="text_10">
      <!-- 300 -->
      <g transform="translate(44.08375 59.459256)scale(0.1 -0.1)">
       <defs>
        <path d="M 40.578125 39.3125 
Q 47.65625 37.796875 51.625 33 
Q 55.609375 28.21875 55.609375 21.1875 
Q 55.609375 10.40625 48.1875 4.484375 
Q 40.765625 -1.421875 27.09375 -1.421875 
Q 22.515625 -1.421875 17.65625 -0.515625 
Q 12.796875 0.390625 7.625 2.203125 
L 7.625 11.71875 
Q 11.71875 9.328125 16.59375 8.109375 
Q 21.484375 6.890625 26.8125 6.890625 
Q 36.078125 6.890625 40.9375 10.546875 
Q 45.796875 14.203125 45.796875 21.1875 
Q 45.796875 27.640625 41.28125 31.265625 
Q 36.765625 34.90625 28.71875 34.90625 
L 20.21875 34.90625 
L 20.21875 43.015625 
L 29.109375 43.015625 
Q 36.375 43.015625 40.234375 45.921875 
Q 44.09375 48.828125 44.09375 54.296875 
Q 44.09375 59.90625 40.109375 62.90625 
Q 36.140625 65.921875 28.71875 65.921875 
Q 24.65625 65.921875 20.015625 65.03125 
Q 15.375 64.15625 9.8125 62.3125 
L 9.8125 71.09375 
Q 15.4375 72.65625 20.34375 73.4375 
Q 25.25 74.21875 29.59375 74.21875 
Q 40.828125 74.21875 47.359375 69.109375 
Q 53.90625 64.015625 53.90625 55.328125 
Q 53.90625 49.265625 50.4375 45.09375 
Q 46.96875 40.921875 40.578125 39.3125 
z
" id="DejaVuSans-51"/>
       </defs>
       <use xlink:href="#DejaVuSans-51"/>
       <use x="63.623047" xlink:href="#DejaVuSans-48"/>
       <use x="127.246094" xlink:href="#DejaVuSans-48"/>
      </g>
     </g>
    </g>
    <g id="text_11">
     <!-- daily_cases_(t+7) -->
     <g transform="translate(37.725937 154.767813)rotate(-90)scale(0.1 -0.1)">
      <defs>
       <path d="M 9.421875 75.984375 
L 18.40625 75.984375 
L 18.40625 0 
L 9.421875 0 
z
" id="DejaVuSans-108"/>
       <path d="M 50.984375 -16.609375 
L 50.984375 -23.578125 
L -0.984375 -23.578125 
L -0.984375 -16.609375 
z
" id="DejaVuSans-95"/>
       <path d="M 48.78125 52.59375 
L 48.78125 44.1875 
Q 44.96875 46.296875 41.140625 47.34375 
Q 37.3125 48.390625 33.40625 48.390625 
Q 24.65625 48.390625 19.8125 42.84375 
Q 14.984375 37.3125 14.984375 27.296875 
Q 14.984375 17.28125 19.8125 11.734375 
Q 24.65625 6.203125 33.40625 6.203125 
Q 37.3125 6.203125 41.140625 7.25 
Q 44.96875 8.296875 48.78125 10.40625 
L 48.78125 2.09375 
Q 45.015625 0.34375 40.984375 -0.53125 
Q 36.96875 -1.421875 32.421875 -1.421875 
Q 20.0625 -1.421875 12.78125 6.34375 
Q 5.515625 14.109375 5.515625 27.296875 
Q 5.515625 40.671875 12.859375 48.328125 
Q 20.21875 56 33.015625 56 
Q 37.15625 56 41.109375 55.140625 
Q 45.0625 54.296875 48.78125 52.59375 
z
" id="DejaVuSans-99"/>
       <path d="M 31 75.875 
Q 24.46875 64.65625 21.28125 53.65625 
Q 18.109375 42.671875 18.109375 31.390625 
Q 18.109375 20.125 21.3125 9.0625 
Q 24.515625 -2 31 -13.1875 
L 23.1875 -13.1875 
Q 15.875 -1.703125 12.234375 9.375 
Q 8.59375 20.453125 8.59375 31.390625 
Q 8.59375 42.28125 12.203125 53.3125 
Q 15.828125 64.359375 23.1875 75.875 
z
" id="DejaVuSans-40"/>
       <path d="M 46 62.703125 
L 46 35.5 
L 73.1875 35.5 
L 73.1875 27.203125 
L 46 27.203125 
L 46 0 
L 37.796875 0 
L 37.796875 27.203125 
L 10.59375 27.203125 
L 10.59375 35.5 
L 37.796875 35.5 
L 37.796875 62.703125 
z
" id="DejaVuSans-43"/>
       <path d="M 8.203125 72.90625 
L 55.078125 72.90625 
L 55.078125 68.703125 
L 28.609375 0 
L 18.3125 0 
L 43.21875 64.59375 
L 8.203125 64.59375 
z
" id="DejaVuSans-55"/>
       <path d="M 8.015625 75.875 
L 15.828125 75.875 
Q 23.140625 64.359375 26.78125 53.3125 
Q 30.421875 42.28125 30.421875 31.390625 
Q 30.421875 20.453125 26.78125 9.375 
Q 23.140625 -1.703125 15.828125 -13.1875 
L 8.015625 -13.1875 
Q 14.5 -2 17.703125 9.0625 
Q 20.90625 20.125 20.90625 31.390625 
Q 20.90625 42.671875 17.703125 53.65625 
Q 14.5 64.65625 8.015625 75.875 
z
" id="DejaVuSans-41"/>
      </defs>
      <use xlink:href="#DejaVuSans-100"/>
      <use x="63.476562" xlink:href="#DejaVuSans-97"/>
      <use x="124.755859" xlink:href="#DejaVuSans-105"/>
      <use x="152.539062" xlink:href="#DejaVuSans-108"/>
      <use x="180.322266" xlink:href="#DejaVuSans-121"/>
      <use x="239.501953" xlink:href="#DejaVuSans-95"/>
      <use x="289.501953" xlink:href="#DejaVuSans-99"/>
      <use x="344.482422" xlink:href="#DejaVuSans-97"/>
      <use x="405.761719" xlink:href="#DejaVuSans-115"/>
      <use x="457.861328" xlink:href="#DejaVuSans-101"/>
      <use x="519.384766" xlink:href="#DejaVuSans-115"/>
      <use x="571.484375" xlink:href="#DejaVuSans-95"/>
      <use x="621.484375" xlink:href="#DejaVuSans-40"/>
      <use x="660.498047" xlink:href="#DejaVuSans-116"/>
      <use x="699.707031" xlink:href="#DejaVuSans-43"/>
      <use x="783.496094" xlink:href="#DejaVuSans-55"/>
      <use x="847.119141" xlink:href="#DejaVuSans-41"/>
     </g>
    </g>
   </g>
   <g id="line2d_10">
    <path clip-path="url(#pbdfc3a24e6)" d="M 111.436193 167.106603 
L 113.429669 167.479334 
L 119.410095 167.479334 
L 121.403571 164.497486 
L 123.397046 163.006562 
L 125.390522 161.142907 
L 127.383997 164.124755 
L 129.377473 166.361141 
L 131.370948 161.142907 
L 135.357899 146.979129 
L 137.351375 145.488205 
L 139.34485 142.133626 
L 143.331801 139.151779 
L 145.325277 134.679007 
L 147.318752 100.387756 
L 149.312228 114.178802 
L 151.305704 130.951697 
L 153.299179 135.7972 
L 155.292655 135.051738 
L 157.28613 145.860936 
L 159.279606 146.233667 
L 161.273081 153.315556 
L 163.266557 140.269972 
L 165.260032 141.760895 
L 167.253508 152.570094 
L 169.246983 157.042866 
L 171.240459 155.551942 
L 173.233934 140.269972 
L 175.22741 145.115474 
L 177.220885 153.688287 
L 179.214361 142.133626 
L 181.207836 157.788328 
L 183.201312 149.960977 
L 185.194787 162.633831 
L 187.188263 155.179211 
L 189.181738 158.161059 
L 191.175214 145.115474 
L 193.168689 153.315556 
L 195.162165 148.097322 
L 197.15564 152.570094 
L 199.149116 155.551942 
L 201.142591 152.942825 
L 203.136067 147.724591 
L 205.129542 143.62455 
L 207.123018 153.315556 
L 209.116493 161.515638 
L 211.109969 158.906521 
L 213.103444 152.942825 
L 215.09692 148.842784 
L 217.090396 142.879088 
L 219.083871 150.333708 
L 221.077347 156.670135 
L 223.070822 165.242948 
L 225.064298 166.733872 
L 227.057773 163.006562 
L 229.051249 157.415597 
L 231.044724 161.888369 
L 233.0382 155.179211 
L 235.031675 164.870217 
L 237.025151 166.361141 
L 239.018626 167.106603 
L 241.012102 161.142907 
L 243.005577 160.397445 
L 244.999053 164.124755 
L 246.992528 160.024714 
L 248.986004 164.124755 
L 250.979479 166.361141 
L 252.972955 166.361141 
L 254.96643 164.497486 
L 256.959906 165.615679 
L 258.953381 164.124755 
L 260.946857 165.615679 
L 262.940332 164.497486 
L 264.933808 166.733872 
L 266.927283 167.479334 
L 268.920759 164.870217 
L 270.914234 166.361141 
L 272.90771 162.2611 
L 274.901185 165.98841 
L 276.894661 164.497486 
L 278.888137 166.733872 
L 280.881612 166.733872 
L 282.875088 165.98841 
L 284.868563 164.497486 
L 286.862039 165.98841 
L 288.855514 165.242948 
L 290.84899 165.615679 
L 292.842465 167.479334 
L 294.835941 166.733872 
L 296.829416 164.497486 
L 298.822892 166.733872 
L 300.816367 165.615679 
L 302.809843 165.615679 
L 304.803318 163.752024 
L 306.796794 166.733872 
L 308.790269 167.106603 
L 310.783745 164.870217 
L 312.77722 165.98841 
L 314.770696 162.2611 
L 316.764171 161.888369 
L 318.757647 163.006562 
L 320.751122 167.106603 
L 322.744598 165.242948 
L 324.738073 163.006562 
L 326.731549 164.870217 
L 328.725024 157.415597 
L 330.7185 164.497486 
L 332.711975 163.379293 
L 334.705451 165.242948 
L 336.698926 167.479334 
L 338.692402 165.242948 
L 340.685878 162.633831 
L 342.679353 164.870217 
L 344.672829 164.870217 
L 346.666304 164.497486 
L 348.65978 167.106603 
L 350.653255 167.479334 
L 352.646731 165.98841 
L 354.640206 165.615679 
L 356.633682 163.379293 
L 358.627157 165.98841 
L 360.620633 166.361141 
L 362.614108 167.479334 
L 364.607584 166.361141 
L 366.601059 166.733872 
L 368.594535 164.870217 
L 370.58801 164.124755 
L 372.581486 165.98841 
L 374.574961 164.870217 
L 376.568437 164.497486 
L 378.561912 159.651983 
L 380.555388 162.633831 
L 382.548863 166.733872 
L 386.535814 162.2611 
L 388.52929 163.006562 
L 390.522765 165.242948 
L 392.516241 165.615679 
L 394.509716 162.633831 
L 396.503192 167.106603 
L 398.496667 165.242948 
L 400.490143 153.315556 
L 402.483619 160.024714 
L 404.477094 158.53379 
L 406.47057 159.651983 
L 408.464045 152.197363 
L 410.457521 152.942825 
L 412.450996 159.651983 
L 414.444472 151.824632 
L 416.437947 155.179211 
L 418.431423 155.924673 
L 420.424898 156.297404 
L 422.418374 161.142907 
L 424.411849 142.879088 
L 426.405325 149.960977 
L 428.3988 143.62455 
L 430.392276 136.169931 
L 434.379227 151.824632 
L 436.372702 160.397445 
L 438.366178 148.470053 
L 440.359653 148.842784 
L 442.353129 142.133626 
L 444.346604 129.088042 
L 446.34008 139.52451 
L 448.333555 153.688287 
L 450.327031 147.35186 
L 452.320506 135.7972 
L 454.313982 133.188083 
L 456.307457 132.442621 
L 458.300933 119.397036 
L 460.294408 124.988001 
L 462.287884 142.506357 
L 464.28136 143.251819 
L 466.274835 124.242539 
L 468.268311 129.460773 
L 470.261786 113.43334 
L 472.255262 119.769767 
L 474.248737 123.124346 
L 476.242213 145.115474 
L 480.229164 127.597118 
L 482.222639 100.760487 
L 484.216115 110.824223 
L 486.20959 124.61527 
L 488.203066 122.006153 
L 490.196541 126.851656 
L 492.190017 135.7972 
L 494.183492 137.660855 
L 496.176968 122.751615 
L 498.170443 143.62455 
L 500.163919 126.851656 
L 502.157394 138.779048 
L 504.15087 146.606398 
L 506.144345 142.133626 
L 508.137821 140.642703 
L 510.131296 144.742743 
L 512.124772 146.233667 
L 514.118247 139.52451 
L 516.111723 146.979129 
L 518.105198 158.161059 
L 520.098674 139.52451 
L 522.092149 154.80648 
L 524.085625 150.333708 
L 526.079101 150.333708 
L 528.072576 142.879088 
L 530.066052 155.551942 
L 532.059527 144.742743 
L 534.053003 152.197363 
L 536.046478 150.333708 
L 538.039954 152.942825 
L 540.033429 155.179211 
L 542.026905 142.133626 
L 544.02038 141.388164 
L 546.013856 154.433749 
L 548.007331 150.706439 
L 550.000807 140.269972 
L 551.994282 144.742743 
L 553.987758 135.7972 
L 555.981233 129.460773 
L 557.974709 109.70603 
L 559.968184 149.588246 
L 561.96166 132.815352 
L 563.955135 108.215107 
L 565.948611 87.714902 
L 567.942086 123.497077 
L 569.935562 98.524101 
L 571.929037 102.624142 
L 573.922513 106.351452 
L 575.915988 117.16065 
L 577.909464 102.996873 
L 579.902939 92.560405 
L 581.896415 99.642294 
L 583.88989 104.860528 
L 585.883366 94.42406 
L 587.876842 113.43334 
L 589.870317 86.96944 
L 591.863793 79.142089 
L 593.857268 108.960568 
L 595.850744 51.932727 
L 597.844219 82.869399 
L 599.837695 100.387756 
L 601.83117 79.51482 
L 603.824646 83.24213 
L 605.818121 72.060201 
L 607.811597 70.569277 
L 609.805072 82.496668 
L 611.798548 89.578557 
L 613.792023 95.542253 
L 615.785499 119.024305 
L 617.778974 77.651165 
L 619.77245 63.114657 
L 621.765925 78.023896 
L 623.759401 105.233259 
L 625.752876 104.115066 
L 627.746352 111.196954 
L 629.739827 136.169931 
L 631.733303 117.533381 
L 633.726778 117.906112 
L 635.720254 122.378884 
L 637.713729 128.34258 
L 639.707205 117.16065 
L 641.70068 135.051738 
L 643.694156 134.306276 
L 645.687631 127.969849 
L 647.681107 92.187674 
L 649.674583 122.751615 
L 651.668058 108.587838 
L 653.661534 117.16065 
L 655.655009 119.397036 
L 657.648485 145.860936 
L 659.64196 138.033586 
L 661.635436 134.679007 
L 663.628911 149.960977 
L 665.622387 126.478925 
L 667.615862 138.779048 
L 669.609338 146.979129 
L 671.602813 137.288124 
L 673.596289 139.897241 
L 675.589764 135.051738 
L 677.58324 136.915393 
L 679.576715 139.52451 
L 681.570191 140.269972 
L 683.563666 155.551942 
L 685.557142 148.470053 
L 687.550617 143.62455 
L 689.544093 144.370012 
L 691.537568 137.288124 
L 693.531044 145.488205 
L 695.524519 142.506357 
L 697.517995 143.251819 
L 699.51147 140.269972 
L 701.504946 140.642703 
L 703.498421 124.61527 
L 705.491897 125.360732 
L 707.485372 151.824632 
L 709.478848 112.315147 
L 711.472324 127.597118 
L 713.465799 135.424469 
L 715.459275 120.142498 
L 717.45275 117.906112 
L 721.439701 111.942416 
L 723.433177 124.988001 
L 725.426652 111.942416 
L 727.420128 123.497077 
L 729.413603 89.578557 
L 731.407079 119.024305 
L 733.400554 98.524101 
L 735.39403 114.924264 
L 737.387505 98.524101 
L 739.380981 111.942416 
L 741.374456 120.88796 
L 743.367932 123.124346 
L 745.361407 90.324019 
L 747.354883 89.951288 
L 749.348358 93.305867 
L 751.341834 92.933136 
L 753.335309 104.487797 
L 755.328785 130.206235 
L 757.32226 103.369604 
L 759.315736 117.906112 
L 761.309211 91.814943 
L 763.302687 109.333299 
L 765.296162 95.914984 
L 767.289638 122.006153 
L 769.283113 138.033586 
L 771.276589 113.806071 
L 773.270065 113.060609 
L 775.26354 122.751615 
L 777.257016 116.042457 
L 779.250491 130.578966 
L 781.243967 142.133626 
L 783.237442 145.860936 
L 785.230918 129.833504 
L 787.224393 127.969849 
L 789.217869 127.224387 
L 791.211344 143.251819 
L 793.20482 136.542662 
L 795.198295 162.633831 
L 797.191771 132.815352 
L 799.185246 130.206235 
L 801.178722 141.388164 
L 803.172197 148.097322 
L 805.165673 139.52451 
L 807.159148 139.52451 
L 809.152624 149.588246 
L 811.146099 149.960977 
L 813.139575 143.997281 
L 815.13305 146.606398 
L 817.126526 145.860936 
L 819.120001 151.07917 
L 821.113477 146.979129 
L 823.106952 155.924673 
L 825.100428 152.942825 
L 827.093903 152.942825 
L 829.087379 149.588246 
L 831.080854 153.688287 
L 833.07433 151.451901 
L 835.067806 157.788328 
L 837.061281 152.942825 
L 839.054757 151.07917 
L 841.048232 157.415597 
L 843.041708 149.588246 
L 845.035183 151.07917 
L 847.028659 152.942825 
L 849.022134 150.706439 
L 851.01561 150.333708 
L 853.009085 157.788328 
L 855.002561 147.35186 
L 856.996036 151.824632 
L 858.989512 148.842784 
L 860.982987 154.061018 
L 862.976463 153.688287 
L 864.969938 147.35186 
L 866.963414 161.888369 
L 868.956889 148.097322 
L 870.950365 148.842784 
L 872.94384 151.451901 
L 874.937316 139.151779 
L 876.930791 151.824632 
L 878.924267 156.670135 
L 880.917742 143.251819 
L 882.911218 144.370012 
L 884.904693 142.879088 
L 886.898169 143.997281 
L 888.891644 146.979129 
L 890.88512 140.269972 
L 892.878595 147.724591 
L 894.872071 152.570094 
L 896.865546 146.233667 
L 898.859022 143.251819 
L 900.852498 144.370012 
L 902.845973 129.833504 
L 904.839449 146.606398 
L 906.832924 133.188083 
L 908.8264 134.679007 
L 910.819875 129.460773 
L 912.813351 138.033586 
L 914.806826 142.879088 
L 916.800302 117.533381 
L 918.793777 129.460773 
L 920.787253 134.679007 
L 922.780728 123.124346 
L 924.774204 126.851656 
L 926.767679 133.933545 
L 928.761155 127.597118 
L 930.75463 123.124346 
L 932.748106 108.960568 
L 934.741581 138.779048 
L 936.735057 140.642703 
L 936.735057 140.642703 
" style="fill:none;stroke:#0000ff;stroke-linecap:square;stroke-width:1.5;"/>
   </g>
   <g id="line2d_11">
    <path clip-path="url(#pbdfc3a24e6)" d="M 111.436193 164.716198 
L 113.429669 164.716198 
L 115.423144 167.515337 
L 117.41662 164.501417 
L 119.410095 164.501417 
L 121.403571 164.675383 
L 123.397046 146.024783 
L 125.390522 147.547492 
L 127.383997 164.198304 
L 129.377473 164.48632 
L 131.370948 164.416511 
L 133.364424 160.239603 
L 135.357899 146.957514 
L 137.351375 143.527425 
L 139.34485 143.206139 
L 141.338326 149.492137 
L 143.331801 153.103064 
L 145.325277 137.261789 
L 147.318752 127.489507 
L 149.312228 124.951519 
L 151.305704 127.280424 
L 153.299179 131.602687 
L 155.292655 131.116453 
L 157.28613 141.297916 
L 159.279606 141.401066 
L 161.273081 149.62024 
L 163.266557 149.433074 
L 165.260032 145.972745 
L 167.253508 138.370057 
L 169.246983 144.949773 
L 171.240459 151.027082 
L 173.233934 145.78308 
L 175.22741 151.745551 
L 177.220885 151.529759 
L 179.214361 153.382484 
L 181.207836 157.07557 
L 183.201312 157.105389 
L 185.194787 159.407598 
L 187.188263 154.316275 
L 189.181738 152.47718 
L 191.175214 152.985767 
L 193.168689 151.95908 
L 195.162165 156.089341 
L 197.15564 151.902861 
L 199.149116 157.737981 
L 201.142591 153.906267 
L 203.136067 157.270404 
L 205.129542 152.767296 
L 207.123018 154.311181 
L 209.116493 152.150515 
L 211.109969 152.503083 
L 213.103444 153.964197 
L 215.09692 152.475841 
L 217.090396 149.738933 
L 219.083871 151.533924 
L 221.077347 154.842838 
L 223.070822 154.417615 
L 225.064298 157.252972 
L 227.057773 158.812613 
L 229.051249 154.626835 
L 231.044724 154.993752 
L 233.0382 154.840389 
L 235.031675 156.338537 
L 237.025151 161.964852 
L 239.018626 165.880713 
L 241.012102 164.942965 
L 243.005577 163.469289 
L 244.999053 163.332283 
L 246.992528 162.061297 
L 248.986004 165.178422 
L 250.979479 167.40793 
L 252.972955 168.167198 
L 254.96643 163.124594 
L 256.959906 160.873428 
L 258.953381 164.417366 
L 260.946857 163.970584 
L 262.940332 162.411065 
L 264.933808 163.476725 
L 266.927283 164.711752 
L 268.920759 167.097939 
L 270.914234 161.733122 
L 272.90771 163.113994 
L 274.901185 163.289086 
L 276.894661 166.058398 
L 278.888137 163.827756 
L 280.881612 168.987273 
L 282.875088 165.750125 
L 284.868563 165.71077 
L 286.862039 161.500615 
L 288.855514 164.41686 
L 290.84899 165.761197 
L 292.842465 164.451549 
L 294.835941 165.977691 
L 296.829416 164.825935 
L 298.822892 162.474533 
L 300.816367 164.510643 
L 302.809843 164.212948 
L 304.803318 160.881346 
L 306.796794 165.334324 
L 308.790269 164.812641 
L 310.783745 165.021655 
L 312.77722 167.493735 
L 314.770696 162.889733 
L 316.764171 165.694751 
L 318.757647 165.775904 
L 320.751122 161.910299 
L 322.744598 168.60325 
L 324.738073 166.976493 
L 326.731549 162.038872 
L 328.725024 162.985557 
L 330.7185 162.164942 
L 332.711975 159.982912 
L 336.698926 165.82993 
L 340.685878 158.100934 
L 342.679353 156.865434 
L 344.672829 160.288952 
L 346.666304 160.771773 
L 348.65978 159.463962 
L 350.653255 165.406568 
L 352.646731 163.71224 
L 354.640206 159.20597 
L 356.633682 160.156491 
L 358.627157 162.374166 
L 360.620633 162.874281 
L 362.614108 163.913322 
L 364.607584 168.477689 
L 366.601059 166.740977 
L 368.594535 162.880221 
L 372.581486 162.280557 
L 374.574961 164.989406 
L 376.568437 166.609093 
L 378.561912 165.747076 
L 380.555388 165.567034 
L 382.548863 162.72906 
L 384.542339 162.647649 
L 386.535814 160.585588 
L 388.52929 164.377193 
L 392.516241 159.437973 
L 394.509716 159.73255 
L 396.503192 162.053991 
L 398.496667 158.622856 
L 400.490143 158.015435 
L 402.483619 161.547686 
L 404.477094 161.116581 
L 406.47057 163.824119 
L 408.464045 160.358649 
L 410.457521 162.887224 
L 412.450996 161.678404 
L 414.444472 151.328302 
L 416.437947 159.652073 
L 418.431423 154.469555 
L 420.424898 155.603236 
L 422.418374 151.135866 
L 424.411849 149.184693 
L 426.405325 152.046438 
L 428.3988 148.62185 
L 430.392276 149.540896 
L 432.385751 150.738986 
L 434.379227 152.233961 
L 436.372702 156.145704 
L 438.366178 142.816166 
L 440.359653 144.926924 
L 442.353129 143.986838 
L 444.346604 135.904152 
L 446.34008 137.760446 
L 448.333555 144.917863 
L 450.327031 149.758345 
L 452.320506 139.033141 
L 454.313982 137.541079 
L 456.307457 139.083321 
L 458.300933 128.7983 
L 460.294408 139.022922 
L 462.287884 147.780666 
L 464.28136 142.676523 
L 466.274835 131.782413 
L 468.268311 130.440487 
L 470.261786 128.482978 
L 472.255262 122.684337 
L 474.248737 121.98368 
L 476.242213 131.928369 
L 478.235688 130.462881 
L 480.229164 116.915866 
L 482.222639 122.614602 
L 484.216115 116.933481 
L 486.20959 118.269869 
L 488.203066 118.495891 
L 490.196541 132.135666 
L 492.190017 126.62366 
L 494.183492 125.408912 
L 496.176968 104.51079 
L 498.170443 115.056955 
L 500.163919 122.324086 
L 502.157394 115.496056 
L 504.15087 116.376918 
L 506.144345 122.397033 
L 508.137821 122.659292 
L 510.131296 123.182342 
L 512.124772 133.710556 
L 514.118247 124.338147 
L 516.111723 131.99713 
L 518.105198 143.832035 
L 520.098674 144.885153 
L 522.092149 140.293005 
L 524.085625 142.349107 
L 526.079101 141.483611 
L 528.072576 139.46817 
L 530.066052 142.016771 
L 532.059527 153.751431 
L 534.053003 139.690309 
L 536.046478 148.800781 
L 538.039954 146.138465 
L 540.033429 144.626328 
L 542.026905 141.078563 
L 544.02038 148.837465 
L 546.013856 142.951865 
L 548.007331 149.736279 
L 550.000807 145.316054 
L 553.987758 143.95477 
L 555.981233 137.318578 
L 557.974709 138.289373 
L 559.968184 144.183454 
L 561.96166 141.207419 
L 563.955135 139.890855 
L 565.948611 139.160022 
L 567.942086 130.528915 
L 569.935562 127.986961 
L 571.929037 116.852911 
L 573.922513 129.286211 
L 575.915988 120.79633 
L 577.909464 115.975372 
L 579.902939 99.545915 
L 581.896415 110.87275 
L 583.88989 95.498692 
L 585.883366 99.199719 
L 587.876842 98.197836 
L 589.870317 94.510975 
L 591.863793 92.471675 
L 593.857268 93.387406 
L 595.850744 98.427961 
L 597.844219 97.392166 
L 599.837695 98.187969 
L 601.83117 109.281285 
L 603.824646 99.529296 
L 605.818121 92.805378 
L 607.811597 103.416664 
L 609.805072 89.708979 
L 611.798548 87.712785 
L 613.792023 100.065853 
L 615.785499 104.159282 
L 617.778974 103.160366 
L 619.77245 92.003124 
L 621.765925 93.149489 
L 623.759401 99.55477 
L 625.752876 102.997739 
L 627.746352 103.552649 
L 629.739827 119.706209 
L 631.733303 104.131139 
L 633.726778 104.04958 
L 637.713729 115.950696 
L 639.707205 116.281189 
L 641.70068 123.179142 
L 643.694156 133.590231 
L 645.687631 124.724598 
L 647.681107 97.418756 
L 649.674583 129.83914 
L 651.668058 131.521829 
L 653.661534 131.879005 
L 655.655009 132.046935 
L 657.648485 141.240265 
L 659.64196 135.681318 
L 661.635436 120.626087 
L 663.628911 125.091066 
L 665.622387 120.130397 
L 667.615862 121.389838 
L 669.609338 123.696153 
L 671.602813 133.173984 
L 673.596289 130.811328 
L 675.589764 130.804785 
L 677.58324 141.864135 
L 679.576715 137.035985 
L 681.570191 141.243938 
L 683.563666 149.365615 
L 685.557142 142.740486 
L 687.550617 144.174991 
L 689.544093 134.707917 
L 691.537568 133.290423 
L 693.531044 133.302084 
L 695.524519 132.329889 
L 697.517995 139.84489 
L 699.51147 138.989503 
L 701.504946 137.109554 
L 703.498421 134.354962 
L 705.491897 132.086779 
L 707.485372 138.623315 
L 709.478848 132.80176 
L 711.472324 133.236752 
L 713.465799 134.892032 
L 715.459275 133.483746 
L 717.45275 126.6397 
L 719.446226 118.896034 
L 721.439701 134.80692 
L 723.433177 121.101298 
L 725.426652 121.312779 
L 727.420128 123.145314 
L 729.413603 116.114843 
L 731.407079 115.295546 
L 733.400554 116.876445 
L 735.39403 107.817421 
L 737.387505 108.621254 
L 739.380981 108.82125 
L 741.374456 116.319342 
L 743.367932 106.023495 
L 745.361407 110.613971 
L 747.354883 97.141534 
L 749.348358 108.277815 
L 751.341834 102.511836 
L 753.335309 113.182176 
L 755.328785 115.710479 
L 757.32226 120.568875 
L 759.315736 109.358155 
L 761.309211 104.885388 
L 763.302687 114.03743 
L 765.296162 103.236893 
L 767.289638 119.786557 
L 769.283113 123.728731 
L 771.276589 109.574484 
L 773.270065 117.803907 
L 775.26354 116.521154 
L 777.257016 119.85601 
L 779.250491 122.578354 
L 781.243967 135.305986 
L 783.237442 142.041934 
L 785.230918 131.698284 
L 787.224393 124.123213 
L 789.217869 131.50337 
L 791.211344 126.53466 
L 793.20482 134.783526 
L 795.198295 140.1958 
L 797.191771 142.261586 
L 799.185246 136.578676 
L 801.178722 143.420767 
L 803.172197 138.945096 
L 805.165673 146.122466 
L 807.159148 143.611904 
L 809.152624 153.176359 
L 811.146099 145.31428 
L 813.139575 142.273562 
L 815.13305 145.766162 
L 817.126526 146.814133 
L 819.120001 144.264674 
L 821.113477 145.74212 
L 823.106952 145.803978 
L 825.100428 149.612323 
L 827.093903 148.189153 
L 829.087379 149.566482 
L 831.080854 146.238708 
L 833.07433 150.475316 
L 835.067806 150.24817 
L 837.061281 154.121621 
L 839.054757 155.228665 
L 841.048232 150.267795 
L 843.041708 149.21534 
L 845.035183 151.252233 
L 847.028659 152.167119 
L 849.022134 152.770602 
L 851.01561 154.532947 
L 853.009085 153.055561 
L 855.002561 152.026421 
L 856.996036 147.584724 
L 858.989512 148.755675 
L 860.982987 149.419454 
L 862.976463 146.591201 
L 864.969938 146.340136 
L 866.963414 150.66414 
L 868.956889 143.710303 
L 870.950365 145.269222 
L 872.94384 142.301818 
L 874.937316 143.213516 
L 876.930791 148.320534 
L 878.924267 146.84744 
L 880.917742 154.018607 
L 882.911218 145.053397 
L 884.904693 142.903711 
L 886.898169 143.39816 
L 888.891644 139.369697 
L 890.88512 139.619675 
L 892.878595 147.468474 
L 894.872071 143.375015 
L 896.865546 136.801939 
L 898.859022 138.89273 
L 900.852498 136.933948 
L 902.845973 138.68999 
L 904.839449 140.61453 
L 906.832924 144.385453 
L 908.8264 149.185259 
L 910.819875 140.132875 
L 912.813351 138.611754 
L 914.806826 137.955454 
L 916.800302 131.283928 
L 918.793777 136.199283 
L 920.787253 135.208033 
L 922.780728 134.6683 
L 924.774204 128.838267 
L 926.767679 132.316017 
L 928.761155 129.691554 
L 930.75463 124.66667 
L 932.748106 125.168189 
L 934.741581 134.121965 
L 936.735057 130.819399 
L 936.735057 130.819399 
" style="fill:none;stroke:#ff0000;stroke-linecap:square;stroke-width:1.5;"/>
   </g>
   <g id="patch_3">
    <path d="M 70.17125 174.84 
L 70.17125 46.08 
" style="fill:none;stroke:#000000;stroke-linecap:square;stroke-linejoin:miter;stroke-width:0.8;"/>
   </g>
   <g id="patch_4">
    <path d="M 978 174.84 
L 978 46.08 
" style="fill:none;stroke:#000000;stroke-linecap:square;stroke-linejoin:miter;stroke-width:0.8;"/>
   </g>
   <g id="patch_5">
    <path d="M 70.17125 174.84 
L 978 174.84 
" style="fill:none;stroke:#000000;stroke-linecap:square;stroke-linejoin:miter;stroke-width:0.8;"/>
   </g>
   <g id="patch_6">
    <path d="M 70.17125 46.08 
L 978 46.08 
" style="fill:none;stroke:#000000;stroke-linecap:square;stroke-linejoin:miter;stroke-width:0.8;"/>
   </g>
   <g id="text_12">
    <!-- KRR fit train -->
    <g transform="translate(487.902812 40.08)scale(0.12 -0.12)">
     <defs>
      <path d="M 9.8125 72.90625 
L 19.671875 72.90625 
L 19.671875 42.09375 
L 52.390625 72.90625 
L 65.09375 72.90625 
L 28.90625 38.921875 
L 67.671875 0 
L 54.6875 0 
L 19.671875 35.109375 
L 19.671875 0 
L 9.8125 0 
z
" id="DejaVuSans-75"/>
      <path d="M 44.390625 34.1875 
Q 47.5625 33.109375 50.5625 29.59375 
Q 53.5625 26.078125 56.59375 19.921875 
L 66.609375 0 
L 56 0 
L 46.6875 18.703125 
Q 43.0625 26.03125 39.671875 28.421875 
Q 36.28125 30.8125 30.421875 30.8125 
L 19.671875 30.8125 
L 19.671875 0 
L 9.8125 0 
L 9.8125 72.90625 
L 32.078125 72.90625 
Q 44.578125 72.90625 50.734375 67.671875 
Q 56.890625 62.453125 56.890625 51.90625 
Q 56.890625 45.015625 53.6875 40.46875 
Q 50.484375 35.9375 44.390625 34.1875 
z
M 19.671875 64.796875 
L 19.671875 38.921875 
L 32.078125 38.921875 
Q 39.203125 38.921875 42.84375 42.21875 
Q 46.484375 45.515625 46.484375 51.90625 
Q 46.484375 58.296875 42.84375 61.546875 
Q 39.203125 64.796875 32.078125 64.796875 
z
" id="DejaVuSans-82"/>
      <path d="M 37.109375 75.984375 
L 37.109375 68.5 
L 28.515625 68.5 
Q 23.6875 68.5 21.796875 66.546875 
Q 19.921875 64.59375 19.921875 59.515625 
L 19.921875 54.6875 
L 34.71875 54.6875 
L 34.71875 47.703125 
L 19.921875 47.703125 
L 19.921875 0 
L 10.890625 0 
L 10.890625 47.703125 
L 2.296875 47.703125 
L 2.296875 54.6875 
L 10.890625 54.6875 
L 10.890625 58.5 
Q 10.890625 67.625 15.140625 71.796875 
Q 19.390625 75.984375 28.609375 75.984375 
z
" id="DejaVuSans-102"/>
      <path d="M 41.109375 46.296875 
Q 39.59375 47.171875 37.8125 47.578125 
Q 36.03125 48 33.890625 48 
Q 26.265625 48 22.1875 43.046875 
Q 18.109375 38.09375 18.109375 28.8125 
L 18.109375 0 
L 9.078125 0 
L 9.078125 54.6875 
L 18.109375 54.6875 
L 18.109375 46.1875 
Q 20.953125 51.171875 25.484375 53.578125 
Q 30.03125 56 36.53125 56 
Q 37.453125 56 38.578125 55.875 
Q 39.703125 55.765625 41.0625 55.515625 
z
" id="DejaVuSans-114"/>
      <path d="M 54.890625 33.015625 
L 54.890625 0 
L 45.90625 0 
L 45.90625 32.71875 
Q 45.90625 40.484375 42.875 44.328125 
Q 39.84375 48.1875 33.796875 48.1875 
Q 26.515625 48.1875 22.3125 43.546875 
Q 18.109375 38.921875 18.109375 30.90625 
L 18.109375 0 
L 9.078125 0 
L 9.078125 54.6875 
L 18.109375 54.6875 
L 18.109375 46.1875 
Q 21.34375 51.125 25.703125 53.5625 
Q 30.078125 56 35.796875 56 
Q 45.21875 56 50.046875 50.171875 
Q 54.890625 44.34375 54.890625 33.015625 
z
" id="DejaVuSans-110"/>
     </defs>
     <use xlink:href="#DejaVuSans-75"/>
     <use x="65.576172" xlink:href="#DejaVuSans-82"/>
     <use x="135.058594" xlink:href="#DejaVuSans-82"/>
     <use x="204.541016" xlink:href="#DejaVuSans-32"/>
     <use x="236.328125" xlink:href="#DejaVuSans-102"/>
     <use x="271.533203" xlink:href="#DejaVuSans-105"/>
     <use x="299.316406" xlink:href="#DejaVuSans-116"/>
     <use x="338.525391" xlink:href="#DejaVuSans-32"/>
     <use x="370.3125" xlink:href="#DejaVuSans-116"/>
     <use x="409.521484" xlink:href="#DejaVuSans-114"/>
     <use x="450.634766" xlink:href="#DejaVuSans-97"/>
     <use x="511.914062" xlink:href="#DejaVuSans-105"/>
     <use x="539.697266" xlink:href="#DejaVuSans-110"/>
    </g>
   </g>
   <g id="legend_1">
    <g id="patch_7">
     <path d="M 77.17125 83.43625 
L 151.474375 83.43625 
Q 153.474375 83.43625 153.474375 81.43625 
L 153.474375 53.08 
Q 153.474375 51.08 151.474375 51.08 
L 77.17125 51.08 
Q 75.17125 51.08 75.17125 53.08 
L 75.17125 81.43625 
Q 75.17125 83.43625 77.17125 83.43625 
z
" style="fill:#ffffff;opacity:0.8;stroke:#cccccc;stroke-linejoin:miter;"/>
    </g>
    <g id="line2d_12">
     <path d="M 79.17125 59.178438 
L 99.17125 59.178438 
" style="fill:none;stroke:#0000ff;stroke-linecap:square;stroke-width:1.5;"/>
    </g>
    <g id="line2d_13"/>
    <g id="text_13">
     <!-- Data -->
     <g transform="translate(107.17125 62.678438)scale(0.1 -0.1)">
      <defs>
       <path d="M 19.671875 64.796875 
L 19.671875 8.109375 
L 31.59375 8.109375 
Q 46.6875 8.109375 53.6875 14.9375 
Q 60.6875 21.78125 60.6875 36.53125 
Q 60.6875 51.171875 53.6875 57.984375 
Q 46.6875 64.796875 31.59375 64.796875 
z
M 9.8125 72.90625 
L 30.078125 72.90625 
Q 51.265625 72.90625 61.171875 64.09375 
Q 71.09375 55.28125 71.09375 36.53125 
Q 71.09375 17.671875 61.125 8.828125 
Q 51.171875 0 30.078125 0 
L 9.8125 0 
z
" id="DejaVuSans-68"/>
      </defs>
      <use xlink:href="#DejaVuSans-68"/>
      <use x="77.001953" xlink:href="#DejaVuSans-97"/>
      <use x="138.28125" xlink:href="#DejaVuSans-116"/>
      <use x="177.490234" xlink:href="#DejaVuSans-97"/>
     </g>
    </g>
    <g id="line2d_14">
     <path d="M 79.17125 73.856563 
L 99.17125 73.856563 
" style="fill:none;stroke:#ff0000;stroke-linecap:square;stroke-width:1.5;"/>
    </g>
    <g id="line2d_15"/>
    <g id="text_14">
     <!-- Forecast -->
     <g transform="translate(107.17125 77.356563)scale(0.1 -0.1)">
      <defs>
       <path d="M 9.8125 72.90625 
L 51.703125 72.90625 
L 51.703125 64.59375 
L 19.671875 64.59375 
L 19.671875 43.109375 
L 48.578125 43.109375 
L 48.578125 34.8125 
L 19.671875 34.8125 
L 19.671875 0 
L 9.8125 0 
z
" id="DejaVuSans-70"/>
       <path d="M 30.609375 48.390625 
Q 23.390625 48.390625 19.1875 42.75 
Q 14.984375 37.109375 14.984375 27.296875 
Q 14.984375 17.484375 19.15625 11.84375 
Q 23.34375 6.203125 30.609375 6.203125 
Q 37.796875 6.203125 41.984375 11.859375 
Q 46.1875 17.53125 46.1875 27.296875 
Q 46.1875 37.015625 41.984375 42.703125 
Q 37.796875 48.390625 30.609375 48.390625 
z
M 30.609375 56 
Q 42.328125 56 49.015625 48.375 
Q 55.71875 40.765625 55.71875 27.296875 
Q 55.71875 13.875 49.015625 6.21875 
Q 42.328125 -1.421875 30.609375 -1.421875 
Q 18.84375 -1.421875 12.171875 6.21875 
Q 5.515625 13.875 5.515625 27.296875 
Q 5.515625 40.765625 12.171875 48.375 
Q 18.84375 56 30.609375 56 
z
" id="DejaVuSans-111"/>
      </defs>
      <use xlink:href="#DejaVuSans-70"/>
      <use x="53.894531" xlink:href="#DejaVuSans-111"/>
      <use x="115.076172" xlink:href="#DejaVuSans-114"/>
      <use x="153.939453" xlink:href="#DejaVuSans-101"/>
      <use x="215.462891" xlink:href="#DejaVuSans-99"/>
      <use x="270.443359" xlink:href="#DejaVuSans-97"/>
      <use x="331.722656" xlink:href="#DejaVuSans-115"/>
      <use x="383.822266" xlink:href="#DejaVuSans-116"/>
     </g>
    </g>
   </g>
  </g>
  <g id="axes_2">
   <g id="patch_8">
    <path d="M 70.17125 380.84 
L 978 380.84 
L 978 252.08 
L 70.17125 252.08 
z
" style="fill:#ffffff;"/>
   </g>
   <g id="matplotlib.axis_3">
    <g id="xtick_6">
     <g id="line2d_16">
      <g>
       <use style="stroke:#000000;stroke-width:0.8;" x="111.436193" xlink:href="#m031f94de38" y="380.84"/>
      </g>
     </g>
     <g id="text_15">
      <!-- 2021/04/19 -->
      <g transform="translate(82.617443 395.438437)scale(0.1 -0.1)">
       <use xlink:href="#DejaVuSans-50"/>
       <use x="63.623047" xlink:href="#DejaVuSans-48"/>
       <use x="127.246094" xlink:href="#DejaVuSans-50"/>
       <use x="190.869141" xlink:href="#DejaVuSans-49"/>
       <use x="254.492188" xlink:href="#DejaVuSans-47"/>
       <use x="288.183594" xlink:href="#DejaVuSans-48"/>
       <use x="351.806641" xlink:href="#DejaVuSans-52"/>
       <use x="415.429688" xlink:href="#DejaVuSans-47"/>
       <use x="449.121094" xlink:href="#DejaVuSans-49"/>
       <use x="512.744141" xlink:href="#DejaVuSans-57"/>
      </g>
     </g>
    </g>
    <g id="xtick_7">
     <g id="line2d_17">
      <g>
       <use style="stroke:#000000;stroke-width:0.8;" x="273.2595" xlink:href="#m031f94de38" y="380.84"/>
      </g>
     </g>
     <g id="text_16">
      <!-- 2021/04/29 -->
      <g transform="translate(244.44075 395.438437)scale(0.1 -0.1)">
       <use xlink:href="#DejaVuSans-50"/>
       <use x="63.623047" xlink:href="#DejaVuSans-48"/>
       <use x="127.246094" xlink:href="#DejaVuSans-50"/>
       <use x="190.869141" xlink:href="#DejaVuSans-49"/>
       <use x="254.492188" xlink:href="#DejaVuSans-47"/>
       <use x="288.183594" xlink:href="#DejaVuSans-48"/>
       <use x="351.806641" xlink:href="#DejaVuSans-52"/>
       <use x="415.429688" xlink:href="#DejaVuSans-47"/>
       <use x="449.121094" xlink:href="#DejaVuSans-50"/>
       <use x="512.744141" xlink:href="#DejaVuSans-57"/>
      </g>
     </g>
    </g>
    <g id="xtick_8">
     <g id="line2d_18">
      <g>
       <use style="stroke:#000000;stroke-width:0.8;" x="435.082806" xlink:href="#m031f94de38" y="380.84"/>
      </g>
     </g>
     <g id="text_17">
      <!-- 2021/05/09 -->
      <g transform="translate(406.264056 395.438437)scale(0.1 -0.1)">
       <use xlink:href="#DejaVuSans-50"/>
       <use x="63.623047" xlink:href="#DejaVuSans-48"/>
       <use x="127.246094" xlink:href="#DejaVuSans-50"/>
       <use x="190.869141" xlink:href="#DejaVuSans-49"/>
       <use x="254.492188" xlink:href="#DejaVuSans-47"/>
       <use x="288.183594" xlink:href="#DejaVuSans-48"/>
       <use x="351.806641" xlink:href="#DejaVuSans-53"/>
       <use x="415.429688" xlink:href="#DejaVuSans-47"/>
       <use x="449.121094" xlink:href="#DejaVuSans-48"/>
       <use x="512.744141" xlink:href="#DejaVuSans-57"/>
      </g>
     </g>
    </g>
    <g id="xtick_9">
     <g id="line2d_19">
      <g>
       <use style="stroke:#000000;stroke-width:0.8;" x="596.906113" xlink:href="#m031f94de38" y="380.84"/>
      </g>
     </g>
     <g id="text_18">
      <!-- 2021/05/19 -->
      <g transform="translate(568.087363 395.438437)scale(0.1 -0.1)">
       <use xlink:href="#DejaVuSans-50"/>
       <use x="63.623047" xlink:href="#DejaVuSans-48"/>
       <use x="127.246094" xlink:href="#DejaVuSans-50"/>
       <use x="190.869141" xlink:href="#DejaVuSans-49"/>
       <use x="254.492188" xlink:href="#DejaVuSans-47"/>
       <use x="288.183594" xlink:href="#DejaVuSans-48"/>
       <use x="351.806641" xlink:href="#DejaVuSans-53"/>
       <use x="415.429688" xlink:href="#DejaVuSans-47"/>
       <use x="449.121094" xlink:href="#DejaVuSans-49"/>
       <use x="512.744141" xlink:href="#DejaVuSans-57"/>
      </g>
     </g>
    </g>
    <g id="xtick_10">
     <g id="line2d_20">
      <g>
       <use style="stroke:#000000;stroke-width:0.8;" x="758.72942" xlink:href="#m031f94de38" y="380.84"/>
      </g>
     </g>
     <g id="text_19">
      <!-- 2021/05/29 -->
      <g transform="translate(729.91067 395.438437)scale(0.1 -0.1)">
       <use xlink:href="#DejaVuSans-50"/>
       <use x="63.623047" xlink:href="#DejaVuSans-48"/>
       <use x="127.246094" xlink:href="#DejaVuSans-50"/>
       <use x="190.869141" xlink:href="#DejaVuSans-49"/>
       <use x="254.492188" xlink:href="#DejaVuSans-47"/>
       <use x="288.183594" xlink:href="#DejaVuSans-48"/>
       <use x="351.806641" xlink:href="#DejaVuSans-53"/>
       <use x="415.429688" xlink:href="#DejaVuSans-47"/>
       <use x="449.121094" xlink:href="#DejaVuSans-50"/>
       <use x="512.744141" xlink:href="#DejaVuSans-57"/>
      </g>
     </g>
    </g>
    <g id="xtick_11">
     <g id="line2d_21">
      <g>
       <use style="stroke:#000000;stroke-width:0.8;" x="920.552726" xlink:href="#m031f94de38" y="380.84"/>
      </g>
     </g>
     <g id="text_20">
      <!-- 2021/06/08 -->
      <g transform="translate(891.733976 395.438437)scale(0.1 -0.1)">
       <use xlink:href="#DejaVuSans-50"/>
       <use x="63.623047" xlink:href="#DejaVuSans-48"/>
       <use x="127.246094" xlink:href="#DejaVuSans-50"/>
       <use x="190.869141" xlink:href="#DejaVuSans-49"/>
       <use x="254.492188" xlink:href="#DejaVuSans-47"/>
       <use x="288.183594" xlink:href="#DejaVuSans-48"/>
       <use x="351.806641" xlink:href="#DejaVuSans-54"/>
       <use x="415.429688" xlink:href="#DejaVuSans-47"/>
       <use x="449.121094" xlink:href="#DejaVuSans-48"/>
       <use x="512.744141" xlink:href="#DejaVuSans-56"/>
      </g>
     </g>
    </g>
    <g id="text_21">
     <!-- Time, t [days] -->
     <g transform="translate(489.420781 409.116562)scale(0.1 -0.1)">
      <use xlink:href="#DejaVuSans-84"/>
      <use x="57.958984" xlink:href="#DejaVuSans-105"/>
      <use x="85.742188" xlink:href="#DejaVuSans-109"/>
      <use x="183.154297" xlink:href="#DejaVuSans-101"/>
      <use x="244.677734" xlink:href="#DejaVuSans-44"/>
      <use x="276.464844" xlink:href="#DejaVuSans-32"/>
      <use x="308.251953" xlink:href="#DejaVuSans-116"/>
      <use x="347.460938" xlink:href="#DejaVuSans-32"/>
      <use x="379.248047" xlink:href="#DejaVuSans-91"/>
      <use x="418.261719" xlink:href="#DejaVuSans-100"/>
      <use x="481.738281" xlink:href="#DejaVuSans-97"/>
      <use x="543.017578" xlink:href="#DejaVuSans-121"/>
      <use x="602.197266" xlink:href="#DejaVuSans-115"/>
      <use x="654.296875" xlink:href="#DejaVuSans-93"/>
     </g>
    </g>
   </g>
   <g id="matplotlib.axis_4">
    <g id="ytick_5">
     <g id="line2d_22">
      <g>
       <use style="stroke:#000000;stroke-width:0.8;" x="70.17125" xlink:href="#m3462f32d20" y="379.524271"/>
      </g>
     </g>
     <g id="text_22">
      <!-- 0 -->
      <g transform="translate(56.80875 383.323489)scale(0.1 -0.1)">
       <use xlink:href="#DejaVuSans-48"/>
      </g>
     </g>
    </g>
    <g id="ytick_6">
     <g id="line2d_23">
      <g>
       <use style="stroke:#000000;stroke-width:0.8;" x="70.17125" xlink:href="#m3462f32d20" y="356.839281"/>
      </g>
     </g>
     <g id="text_23">
      <!-- 25 -->
      <g transform="translate(50.44625 360.6385)scale(0.1 -0.1)">
       <use xlink:href="#DejaVuSans-50"/>
       <use x="63.623047" xlink:href="#DejaVuSans-53"/>
      </g>
     </g>
    </g>
    <g id="ytick_7">
     <g id="line2d_24">
      <g>
       <use style="stroke:#000000;stroke-width:0.8;" x="70.17125" xlink:href="#m3462f32d20" y="334.154292"/>
      </g>
     </g>
     <g id="text_24">
      <!-- 50 -->
      <g transform="translate(50.44625 337.953511)scale(0.1 -0.1)">
       <use xlink:href="#DejaVuSans-53"/>
       <use x="63.623047" xlink:href="#DejaVuSans-48"/>
      </g>
     </g>
    </g>
    <g id="ytick_8">
     <g id="line2d_25">
      <g>
       <use style="stroke:#000000;stroke-width:0.8;" x="70.17125" xlink:href="#m3462f32d20" y="311.469302"/>
      </g>
     </g>
     <g id="text_25">
      <!-- 75 -->
      <g transform="translate(50.44625 315.268521)scale(0.1 -0.1)">
       <use xlink:href="#DejaVuSans-55"/>
       <use x="63.623047" xlink:href="#DejaVuSans-53"/>
      </g>
     </g>
    </g>
    <g id="ytick_9">
     <g id="line2d_26">
      <g>
       <use style="stroke:#000000;stroke-width:0.8;" x="70.17125" xlink:href="#m3462f32d20" y="288.784313"/>
      </g>
     </g>
     <g id="text_26">
      <!-- 100 -->
      <g transform="translate(44.08375 292.583532)scale(0.1 -0.1)">
       <use xlink:href="#DejaVuSans-49"/>
       <use x="63.623047" xlink:href="#DejaVuSans-48"/>
       <use x="127.246094" xlink:href="#DejaVuSans-48"/>
      </g>
     </g>
    </g>
    <g id="ytick_10">
     <g id="line2d_27">
      <g>
       <use style="stroke:#000000;stroke-width:0.8;" x="70.17125" xlink:href="#m3462f32d20" y="266.099323"/>
      </g>
     </g>
     <g id="text_27">
      <!-- 125 -->
      <g transform="translate(44.08375 269.898542)scale(0.1 -0.1)">
       <use xlink:href="#DejaVuSans-49"/>
       <use x="63.623047" xlink:href="#DejaVuSans-50"/>
       <use x="127.246094" xlink:href="#DejaVuSans-53"/>
      </g>
     </g>
    </g>
    <g id="text_28">
     <!-- daily_cases_(t+7) -->
     <g transform="translate(37.725937 360.767812)rotate(-90)scale(0.1 -0.1)">
      <use xlink:href="#DejaVuSans-100"/>
      <use x="63.476562" xlink:href="#DejaVuSans-97"/>
      <use x="124.755859" xlink:href="#DejaVuSans-105"/>
      <use x="152.539062" xlink:href="#DejaVuSans-108"/>
      <use x="180.322266" xlink:href="#DejaVuSans-121"/>
      <use x="239.501953" xlink:href="#DejaVuSans-95"/>
      <use x="289.501953" xlink:href="#DejaVuSans-99"/>
      <use x="344.482422" xlink:href="#DejaVuSans-97"/>
      <use x="405.761719" xlink:href="#DejaVuSans-115"/>
      <use x="457.861328" xlink:href="#DejaVuSans-101"/>
      <use x="519.384766" xlink:href="#DejaVuSans-115"/>
      <use x="571.484375" xlink:href="#DejaVuSans-95"/>
      <use x="621.484375" xlink:href="#DejaVuSans-40"/>
      <use x="660.498047" xlink:href="#DejaVuSans-116"/>
      <use x="699.707031" xlink:href="#DejaVuSans-43"/>
      <use x="783.496094" xlink:href="#DejaVuSans-55"/>
      <use x="847.119141" xlink:href="#DejaVuSans-41"/>
     </g>
    </g>
   </g>
   <g id="line2d_28">
    <path clip-path="url(#p339b39f77b)" d="M 111.436193 260.654926 
L 127.618524 299.673108 
L 143.800855 288.784313 
L 159.983185 257.932727 
L 176.165516 279.710317 
L 192.347846 312.376702 
L 208.530177 279.710317 
L 224.712508 304.210106 
L 240.894838 316.0063 
L 257.077169 316.9137 
L 273.2595 315.098901 
L 289.44183 334.154292 
L 305.624161 332.339493 
L 321.806492 333.246892 
L 337.988822 333.246892 
L 354.171153 337.78389 
L 370.353484 336.87649 
L 386.535814 336.87649 
L 402.718145 361.376279 
L 418.900476 354.117082 
L 435.082806 355.931882 
L 451.265137 343.228288 
L 467.447468 344.135687 
L 483.629798 355.931882 
L 499.812129 352.302283 
L 515.99446 333.246892 
L 532.17679 356.839281 
L 548.359121 355.024482 
L 564.541452 340.506089 
L 580.723782 350.487484 
L 596.906113 335.061691 
L 613.088444 340.506089 
L 629.270774 362.283679 
L 645.453105 348.672685 
L 661.635436 345.950486 
L 677.817766 350.487484 
L 694.000097 332.339493 
L 710.182428 358.65408 
L 726.364758 345.043087 
L 742.547089 349.580085 
L 758.72942 354.117082 
L 774.91175 371.357674 
L 791.094081 355.024482 
L 807.276412 350.487484 
L 823.458742 363.191078 
L 839.641073 357.746681 
L 855.823404 356.839281 
L 872.005734 374.987273 
L 888.188065 348.672685 
L 904.370395 351.394884 
L 920.552726 355.931882 
L 936.735057 350.487484 
" style="fill:none;stroke:#0000ff;stroke-linecap:square;stroke-width:1.5;"/>
   </g>
   <g id="line2d_29">
    <path clip-path="url(#p339b39f77b)" d="M 111.436193 274.627088 
L 127.618524 276.958602 
L 143.800855 266.61202 
L 159.983185 260.09266 
L 176.165516 258.642973 
L 192.347846 287.966888 
L 208.530177 301.034437 
L 224.712508 264.637588 
L 240.894838 279.936458 
L 257.077169 275.219515 
L 273.2595 267.225438 
L 289.44183 273.070117 
L 305.624161 296.020363 
L 321.806492 290.650844 
L 337.988822 290.694781 
L 354.171153 283.831813 
L 370.353484 286.326838 
L 386.535814 286.912697 
L 402.718145 292.313769 
L 418.900476 341.927336 
L 435.082806 359.016804 
L 451.265137 297.798731 
L 467.447468 298.139019 
L 483.629798 296.510873 
L 499.812129 296.046604 
L 515.99446 300.854303 
L 532.17679 358.486014 
L 548.359121 357.319597 
L 564.541452 298.256548 
L 580.723782 296.421113 
L 596.906113 300.641677 
L 613.088444 297.952185 
L 629.270774 292.256556 
L 645.453105 342.204032 
L 661.635436 343.427869 
L 677.817766 294.33073 
L 694.000097 295.233598 
L 710.182428 291.913858 
L 726.364758 292.294937 
L 742.547089 296.652749 
L 758.72942 338.533818 
L 774.91175 332.469675 
L 791.094081 300.570001 
L 807.276412 294.415703 
L 823.458742 302.261165 
L 839.641073 305.96577 
L 855.823404 304.306564 
L 872.005734 336.761086 
L 888.188065 343.55961 
L 904.370395 309.200251 
L 920.552726 314.712031 
L 936.735057 315.51257 
" style="fill:none;stroke:#ff0000;stroke-linecap:square;stroke-width:1.5;"/>
   </g>
   <g id="patch_9">
    <path d="M 70.17125 380.84 
L 70.17125 252.08 
" style="fill:none;stroke:#000000;stroke-linecap:square;stroke-linejoin:miter;stroke-width:0.8;"/>
   </g>
   <g id="patch_10">
    <path d="M 978 380.84 
L 978 252.08 
" style="fill:none;stroke:#000000;stroke-linecap:square;stroke-linejoin:miter;stroke-width:0.8;"/>
   </g>
   <g id="patch_11">
    <path d="M 70.17125 380.84 
L 978 380.84 
" style="fill:none;stroke:#000000;stroke-linecap:square;stroke-linejoin:miter;stroke-width:0.8;"/>
   </g>
   <g id="patch_12">
    <path d="M 70.17125 252.08 
L 978 252.08 
" style="fill:none;stroke:#000000;stroke-linecap:square;stroke-linejoin:miter;stroke-width:0.8;"/>
   </g>
   <g id="text_29">
    <!-- KRR fit val -->
    <g transform="translate(492.972812 246.08)scale(0.12 -0.12)">
     <defs>
      <path d="M 2.984375 54.6875 
L 12.5 54.6875 
L 29.59375 8.796875 
L 46.6875 54.6875 
L 56.203125 54.6875 
L 35.6875 0 
L 23.484375 0 
z
" id="DejaVuSans-118"/>
     </defs>
     <use xlink:href="#DejaVuSans-75"/>
     <use x="65.576172" xlink:href="#DejaVuSans-82"/>
     <use x="135.058594" xlink:href="#DejaVuSans-82"/>
     <use x="204.541016" xlink:href="#DejaVuSans-32"/>
     <use x="236.328125" xlink:href="#DejaVuSans-102"/>
     <use x="271.533203" xlink:href="#DejaVuSans-105"/>
     <use x="299.316406" xlink:href="#DejaVuSans-116"/>
     <use x="338.525391" xlink:href="#DejaVuSans-32"/>
     <use x="370.3125" xlink:href="#DejaVuSans-118"/>
     <use x="429.492188" xlink:href="#DejaVuSans-97"/>
     <use x="490.771484" xlink:href="#DejaVuSans-108"/>
    </g>
   </g>
   <g id="legend_2">
    <g id="patch_13">
     <path d="M 77.17125 289.43625 
L 151.474375 289.43625 
Q 153.474375 289.43625 153.474375 287.43625 
L 153.474375 259.08 
Q 153.474375 257.08 151.474375 257.08 
L 77.17125 257.08 
Q 75.17125 257.08 75.17125 259.08 
L 75.17125 287.43625 
Q 75.17125 289.43625 77.17125 289.43625 
z
" style="fill:#ffffff;opacity:0.8;stroke:#cccccc;stroke-linejoin:miter;"/>
    </g>
    <g id="line2d_30">
     <path d="M 79.17125 265.178437 
L 99.17125 265.178437 
" style="fill:none;stroke:#0000ff;stroke-linecap:square;stroke-width:1.5;"/>
    </g>
    <g id="line2d_31"/>
    <g id="text_30">
     <!-- Data -->
     <g transform="translate(107.17125 268.678437)scale(0.1 -0.1)">
      <use xlink:href="#DejaVuSans-68"/>
      <use x="77.001953" xlink:href="#DejaVuSans-97"/>
      <use x="138.28125" xlink:href="#DejaVuSans-116"/>
      <use x="177.490234" xlink:href="#DejaVuSans-97"/>
     </g>
    </g>
    <g id="line2d_32">
     <path d="M 79.17125 279.856562 
L 99.17125 279.856562 
" style="fill:none;stroke:#ff0000;stroke-linecap:square;stroke-width:1.5;"/>
    </g>
    <g id="line2d_33"/>
    <g id="text_31">
     <!-- Forecast -->
     <g transform="translate(107.17125 283.356562)scale(0.1 -0.1)">
      <use xlink:href="#DejaVuSans-70"/>
      <use x="53.894531" xlink:href="#DejaVuSans-111"/>
      <use x="115.076172" xlink:href="#DejaVuSans-114"/>
      <use x="153.939453" xlink:href="#DejaVuSans-101"/>
      <use x="215.462891" xlink:href="#DejaVuSans-99"/>
      <use x="270.443359" xlink:href="#DejaVuSans-97"/>
      <use x="331.722656" xlink:href="#DejaVuSans-115"/>
      <use x="383.822266" xlink:href="#DejaVuSans-116"/>
     </g>
    </g>
   </g>
  </g>
  <g id="axes_3">
   <g id="patch_14">
    <path d="M 70.17125 586.84 
L 978 586.84 
L 978 458.08 
L 70.17125 458.08 
z
" style="fill:#ffffff;"/>
   </g>
   <g id="matplotlib.axis_5">
    <g id="xtick_12">
     <g id="line2d_34">
      <g>
       <use style="stroke:#000000;stroke-width:0.8;" x="111.436193" xlink:href="#m031f94de38" y="586.84"/>
      </g>
     </g>
     <g id="text_32">
      <!-- 2021/06/10 -->
      <g transform="translate(82.617443 601.438437)scale(0.1 -0.1)">
       <use xlink:href="#DejaVuSans-50"/>
       <use x="63.623047" xlink:href="#DejaVuSans-48"/>
       <use x="127.246094" xlink:href="#DejaVuSans-50"/>
       <use x="190.869141" xlink:href="#DejaVuSans-49"/>
       <use x="254.492188" xlink:href="#DejaVuSans-47"/>
       <use x="288.183594" xlink:href="#DejaVuSans-48"/>
       <use x="351.806641" xlink:href="#DejaVuSans-54"/>
       <use x="415.429688" xlink:href="#DejaVuSans-47"/>
       <use x="449.121094" xlink:href="#DejaVuSans-49"/>
       <use x="512.744141" xlink:href="#DejaVuSans-48"/>
      </g>
     </g>
    </g>
    <g id="xtick_13">
     <g id="line2d_35">
      <g>
       <use style="stroke:#000000;stroke-width:0.8;" x="273.2595" xlink:href="#m031f94de38" y="586.84"/>
      </g>
     </g>
     <g id="text_33">
      <!-- 2021/06/20 -->
      <g transform="translate(244.44075 601.438437)scale(0.1 -0.1)">
       <use xlink:href="#DejaVuSans-50"/>
       <use x="63.623047" xlink:href="#DejaVuSans-48"/>
       <use x="127.246094" xlink:href="#DejaVuSans-50"/>
       <use x="190.869141" xlink:href="#DejaVuSans-49"/>
       <use x="254.492188" xlink:href="#DejaVuSans-47"/>
       <use x="288.183594" xlink:href="#DejaVuSans-48"/>
       <use x="351.806641" xlink:href="#DejaVuSans-54"/>
       <use x="415.429688" xlink:href="#DejaVuSans-47"/>
       <use x="449.121094" xlink:href="#DejaVuSans-50"/>
       <use x="512.744141" xlink:href="#DejaVuSans-48"/>
      </g>
     </g>
    </g>
    <g id="xtick_14">
     <g id="line2d_36">
      <g>
       <use style="stroke:#000000;stroke-width:0.8;" x="435.082806" xlink:href="#m031f94de38" y="586.84"/>
      </g>
     </g>
     <g id="text_34">
      <!-- 2021/06/30 -->
      <g transform="translate(406.264056 601.438437)scale(0.1 -0.1)">
       <use xlink:href="#DejaVuSans-50"/>
       <use x="63.623047" xlink:href="#DejaVuSans-48"/>
       <use x="127.246094" xlink:href="#DejaVuSans-50"/>
       <use x="190.869141" xlink:href="#DejaVuSans-49"/>
       <use x="254.492188" xlink:href="#DejaVuSans-47"/>
       <use x="288.183594" xlink:href="#DejaVuSans-48"/>
       <use x="351.806641" xlink:href="#DejaVuSans-54"/>
       <use x="415.429688" xlink:href="#DejaVuSans-47"/>
       <use x="449.121094" xlink:href="#DejaVuSans-51"/>
       <use x="512.744141" xlink:href="#DejaVuSans-48"/>
      </g>
     </g>
    </g>
    <g id="xtick_15">
     <g id="line2d_37">
      <g>
       <use style="stroke:#000000;stroke-width:0.8;" x="596.906113" xlink:href="#m031f94de38" y="586.84"/>
      </g>
     </g>
     <g id="text_35">
      <!-- 2021/07/10 -->
      <g transform="translate(568.087363 601.438437)scale(0.1 -0.1)">
       <use xlink:href="#DejaVuSans-50"/>
       <use x="63.623047" xlink:href="#DejaVuSans-48"/>
       <use x="127.246094" xlink:href="#DejaVuSans-50"/>
       <use x="190.869141" xlink:href="#DejaVuSans-49"/>
       <use x="254.492188" xlink:href="#DejaVuSans-47"/>
       <use x="288.183594" xlink:href="#DejaVuSans-48"/>
       <use x="351.806641" xlink:href="#DejaVuSans-55"/>
       <use x="415.429688" xlink:href="#DejaVuSans-47"/>
       <use x="449.121094" xlink:href="#DejaVuSans-49"/>
       <use x="512.744141" xlink:href="#DejaVuSans-48"/>
      </g>
     </g>
    </g>
    <g id="xtick_16">
     <g id="line2d_38">
      <g>
       <use style="stroke:#000000;stroke-width:0.8;" x="758.72942" xlink:href="#m031f94de38" y="586.84"/>
      </g>
     </g>
     <g id="text_36">
      <!-- 2021/07/20 -->
      <g transform="translate(729.91067 601.438437)scale(0.1 -0.1)">
       <use xlink:href="#DejaVuSans-50"/>
       <use x="63.623047" xlink:href="#DejaVuSans-48"/>
       <use x="127.246094" xlink:href="#DejaVuSans-50"/>
       <use x="190.869141" xlink:href="#DejaVuSans-49"/>
       <use x="254.492188" xlink:href="#DejaVuSans-47"/>
       <use x="288.183594" xlink:href="#DejaVuSans-48"/>
       <use x="351.806641" xlink:href="#DejaVuSans-55"/>
       <use x="415.429688" xlink:href="#DejaVuSans-47"/>
       <use x="449.121094" xlink:href="#DejaVuSans-50"/>
       <use x="512.744141" xlink:href="#DejaVuSans-48"/>
      </g>
     </g>
    </g>
    <g id="xtick_17">
     <g id="line2d_39">
      <g>
       <use style="stroke:#000000;stroke-width:0.8;" x="920.552726" xlink:href="#m031f94de38" y="586.84"/>
      </g>
     </g>
     <g id="text_37">
      <!-- 2021/07/30 -->
      <g transform="translate(891.733976 601.438437)scale(0.1 -0.1)">
       <use xlink:href="#DejaVuSans-50"/>
       <use x="63.623047" xlink:href="#DejaVuSans-48"/>
       <use x="127.246094" xlink:href="#DejaVuSans-50"/>
       <use x="190.869141" xlink:href="#DejaVuSans-49"/>
       <use x="254.492188" xlink:href="#DejaVuSans-47"/>
       <use x="288.183594" xlink:href="#DejaVuSans-48"/>
       <use x="351.806641" xlink:href="#DejaVuSans-55"/>
       <use x="415.429688" xlink:href="#DejaVuSans-47"/>
       <use x="449.121094" xlink:href="#DejaVuSans-51"/>
       <use x="512.744141" xlink:href="#DejaVuSans-48"/>
      </g>
     </g>
    </g>
    <g id="text_38">
     <!-- Time, t [days] -->
     <g transform="translate(489.420781 615.116562)scale(0.1 -0.1)">
      <use xlink:href="#DejaVuSans-84"/>
      <use x="57.958984" xlink:href="#DejaVuSans-105"/>
      <use x="85.742188" xlink:href="#DejaVuSans-109"/>
      <use x="183.154297" xlink:href="#DejaVuSans-101"/>
      <use x="244.677734" xlink:href="#DejaVuSans-44"/>
      <use x="276.464844" xlink:href="#DejaVuSans-32"/>
      <use x="308.251953" xlink:href="#DejaVuSans-116"/>
      <use x="347.460938" xlink:href="#DejaVuSans-32"/>
      <use x="379.248047" xlink:href="#DejaVuSans-91"/>
      <use x="418.261719" xlink:href="#DejaVuSans-100"/>
      <use x="481.738281" xlink:href="#DejaVuSans-97"/>
      <use x="543.017578" xlink:href="#DejaVuSans-121"/>
      <use x="602.197266" xlink:href="#DejaVuSans-115"/>
      <use x="654.296875" xlink:href="#DejaVuSans-93"/>
     </g>
    </g>
   </g>
   <g id="matplotlib.axis_6">
    <g id="ytick_11">
     <g id="line2d_40">
      <g>
       <use style="stroke:#000000;stroke-width:0.8;" x="70.17125" xlink:href="#m3462f32d20" y="581.018505"/>
      </g>
     </g>
     <g id="text_39">
      <!-- 0 -->
      <g transform="translate(56.80875 584.817723)scale(0.1 -0.1)">
       <use xlink:href="#DejaVuSans-48"/>
      </g>
     </g>
    </g>
    <g id="ytick_12">
     <g id="line2d_41">
      <g>
       <use style="stroke:#000000;stroke-width:0.8;" x="70.17125" xlink:href="#m3462f32d20" y="553.27306"/>
      </g>
     </g>
     <g id="text_40">
      <!-- 100 -->
      <g transform="translate(44.08375 557.072279)scale(0.1 -0.1)">
       <use xlink:href="#DejaVuSans-49"/>
       <use x="63.623047" xlink:href="#DejaVuSans-48"/>
       <use x="127.246094" xlink:href="#DejaVuSans-48"/>
      </g>
     </g>
    </g>
    <g id="ytick_13">
     <g id="line2d_42">
      <g>
       <use style="stroke:#000000;stroke-width:0.8;" x="70.17125" xlink:href="#m3462f32d20" y="525.527615"/>
      </g>
     </g>
     <g id="text_41">
      <!-- 200 -->
      <g transform="translate(44.08375 529.326834)scale(0.1 -0.1)">
       <use xlink:href="#DejaVuSans-50"/>
       <use x="63.623047" xlink:href="#DejaVuSans-48"/>
       <use x="127.246094" xlink:href="#DejaVuSans-48"/>
      </g>
     </g>
    </g>
    <g id="ytick_14">
     <g id="line2d_43">
      <g>
       <use style="stroke:#000000;stroke-width:0.8;" x="70.17125" xlink:href="#m3462f32d20" y="497.78217"/>
      </g>
     </g>
     <g id="text_42">
      <!-- 300 -->
      <g transform="translate(44.08375 501.581389)scale(0.1 -0.1)">
       <use xlink:href="#DejaVuSans-51"/>
       <use x="63.623047" xlink:href="#DejaVuSans-48"/>
       <use x="127.246094" xlink:href="#DejaVuSans-48"/>
      </g>
     </g>
    </g>
    <g id="ytick_15">
     <g id="line2d_44">
      <g>
       <use style="stroke:#000000;stroke-width:0.8;" x="70.17125" xlink:href="#m3462f32d20" y="470.036725"/>
      </g>
     </g>
     <g id="text_43">
      <!-- 400 -->
      <g transform="translate(44.08375 473.835944)scale(0.1 -0.1)">
       <use xlink:href="#DejaVuSans-52"/>
       <use x="63.623047" xlink:href="#DejaVuSans-48"/>
       <use x="127.246094" xlink:href="#DejaVuSans-48"/>
      </g>
     </g>
    </g>
    <g id="text_44">
     <!-- daily_cases_(t+7) -->
     <g transform="translate(37.725937 566.767812)rotate(-90)scale(0.1 -0.1)">
      <use xlink:href="#DejaVuSans-100"/>
      <use x="63.476562" xlink:href="#DejaVuSans-97"/>
      <use x="124.755859" xlink:href="#DejaVuSans-105"/>
      <use x="152.539062" xlink:href="#DejaVuSans-108"/>
      <use x="180.322266" xlink:href="#DejaVuSans-121"/>
      <use x="239.501953" xlink:href="#DejaVuSans-95"/>
      <use x="289.501953" xlink:href="#DejaVuSans-99"/>
      <use x="344.482422" xlink:href="#DejaVuSans-97"/>
      <use x="405.761719" xlink:href="#DejaVuSans-115"/>
      <use x="457.861328" xlink:href="#DejaVuSans-101"/>
      <use x="519.384766" xlink:href="#DejaVuSans-115"/>
      <use x="571.484375" xlink:href="#DejaVuSans-95"/>
      <use x="621.484375" xlink:href="#DejaVuSans-40"/>
      <use x="660.498047" xlink:href="#DejaVuSans-116"/>
      <use x="699.707031" xlink:href="#DejaVuSans-43"/>
      <use x="783.496094" xlink:href="#DejaVuSans-55"/>
      <use x="847.119141" xlink:href="#DejaVuSans-41"/>
     </g>
    </g>
   </g>
   <g id="line2d_45">
    <path clip-path="url(#p411e581374)" d="M 111.436193 562.429057 
L 127.618524 567.978146 
L 143.800855 554.660332 
L 159.983185 562.151602 
L 176.165516 552.995605 
L 192.347846 569.642872 
L 208.530177 556.047604 
L 224.712508 552.163242 
L 240.894838 552.718151 
L 257.077169 559.654512 
L 273.2595 550.77597 
L 289.44183 541.897427 
L 305.624161 548.27888 
L 321.806492 537.180702 
L 337.988822 523.585434 
L 354.171153 514.429437 
L 370.353484 545.226881 
L 386.535814 524.417797 
L 402.718145 506.938167 
L 418.900476 518.591254 
L 435.082806 520.25598 
L 451.265137 482.244721 
L 467.447468 520.810889 
L 483.629798 538.567974 
L 499.812129 516.649073 
L 515.99446 514.151982 
L 532.17679 519.146163 
L 548.359121 485.851629 
L 564.541452 511.099984 
L 580.723782 508.602894 
L 596.906113 507.77053 
L 613.088444 511.654892 
L 629.270774 497.504716 
L 645.453105 500.834169 
L 661.635436 502.221441 
L 677.817766 463.932727 
L 694.000097 512.209801 
L 710.182428 472.256361 
L 726.364758 499.724351 
L 742.547089 532.186522 
L 758.72942 485.574174 
L 774.91175 522.75307 
L 791.094081 509.712711 
L 807.276412 517.481436 
L 823.458742 528.024705 
L 839.641073 540.232701 
L 855.823404 525.527615 
L 872.005734 518.313799 
L 888.188065 530.521795 
L 904.370395 492.510535 
L 920.552726 530.244341 
L 936.735057 557.989785 
" style="fill:none;stroke:#0000ff;stroke-linecap:square;stroke-width:1.5;"/>
   </g>
   <g id="line2d_46">
    <path clip-path="url(#p411e581374)" d="M 111.436193 562.636903 
L 127.618524 563.19947 
L 143.800855 571.535668 
L 159.983185 567.083497 
L 176.165516 564.93197 
L 192.347846 565.12148 
L 208.530177 566.585428 
L 224.712508 566.673911 
L 240.894838 567.872385 
L 257.077169 558.384348 
L 273.2595 557.438853 
L 289.44183 568.050338 
L 305.624161 568.00872 
L 321.806492 569.126324 
L 337.988822 569.03214 
L 354.171153 571.776159 
L 370.353484 549.426476 
L 386.535814 543.94082 
L 402.718145 573.960447 
L 418.900476 574.584929 
L 435.082806 574.615764 
L 451.265137 574.39197 
L 467.447468 577.002994 
L 483.629798 527.600517 
L 499.812129 517.943777 
L 515.99446 577.358915 
L 532.17679 577.268093 
L 548.359121 579.246134 
L 564.541452 579.667099 
L 580.723782 579.86887 
L 596.906113 518.065745 
L 613.088444 515.366116 
L 629.270774 580.309334 
L 645.453105 580.416286 
L 661.635436 580.621195 
L 677.817766 580.642266 
L 694.000097 580.717272 
L 710.182428 516.326746 
L 726.364758 519.595979 
L 742.547089 580.83097 
L 758.72942 580.871946 
L 774.91175 580.913437 
L 791.094081 580.953735 
L 807.276412 580.953393 
L 823.458742 517.899897 
L 839.641073 519.963259 
L 855.823404 580.974535 
L 872.005734 580.980174 
L 888.188065 580.973318 
L 904.370395 580.978677 
L 920.552726 580.987273 
L 936.735057 543.555127 
" style="fill:none;stroke:#ff0000;stroke-linecap:square;stroke-width:1.5;"/>
   </g>
   <g id="patch_15">
    <path d="M 70.17125 586.84 
L 70.17125 458.08 
" style="fill:none;stroke:#000000;stroke-linecap:square;stroke-linejoin:miter;stroke-width:0.8;"/>
   </g>
   <g id="patch_16">
    <path d="M 978 586.84 
L 978 458.08 
" style="fill:none;stroke:#000000;stroke-linecap:square;stroke-linejoin:miter;stroke-width:0.8;"/>
   </g>
   <g id="patch_17">
    <path d="M 70.17125 586.84 
L 978 586.84 
" style="fill:none;stroke:#000000;stroke-linecap:square;stroke-linejoin:miter;stroke-width:0.8;"/>
   </g>
   <g id="patch_18">
    <path d="M 70.17125 458.08 
L 978 458.08 
" style="fill:none;stroke:#000000;stroke-linecap:square;stroke-linejoin:miter;stroke-width:0.8;"/>
   </g>
   <g id="text_45">
    <!-- KRR fit test -->
    <g transform="translate(490.345937 452.08)scale(0.12 -0.12)">
     <use xlink:href="#DejaVuSans-75"/>
     <use x="65.576172" xlink:href="#DejaVuSans-82"/>
     <use x="135.058594" xlink:href="#DejaVuSans-82"/>
     <use x="204.541016" xlink:href="#DejaVuSans-32"/>
     <use x="236.328125" xlink:href="#DejaVuSans-102"/>
     <use x="271.533203" xlink:href="#DejaVuSans-105"/>
     <use x="299.316406" xlink:href="#DejaVuSans-116"/>
     <use x="338.525391" xlink:href="#DejaVuSans-32"/>
     <use x="370.3125" xlink:href="#DejaVuSans-116"/>
     <use x="409.521484" xlink:href="#DejaVuSans-101"/>
     <use x="471.044922" xlink:href="#DejaVuSans-115"/>
     <use x="523.144531" xlink:href="#DejaVuSans-116"/>
    </g>
   </g>
   <g id="legend_3">
    <g id="patch_19">
     <path d="M 77.17125 495.43625 
L 151.474375 495.43625 
Q 153.474375 495.43625 153.474375 493.43625 
L 153.474375 465.08 
Q 153.474375 463.08 151.474375 463.08 
L 77.17125 463.08 
Q 75.17125 463.08 75.17125 465.08 
L 75.17125 493.43625 
Q 75.17125 495.43625 77.17125 495.43625 
z
" style="fill:#ffffff;opacity:0.8;stroke:#cccccc;stroke-linejoin:miter;"/>
    </g>
    <g id="line2d_47">
     <path d="M 79.17125 471.178437 
L 99.17125 471.178437 
" style="fill:none;stroke:#0000ff;stroke-linecap:square;stroke-width:1.5;"/>
    </g>
    <g id="line2d_48"/>
    <g id="text_46">
     <!-- Data -->
     <g transform="translate(107.17125 474.678437)scale(0.1 -0.1)">
      <use xlink:href="#DejaVuSans-68"/>
      <use x="77.001953" xlink:href="#DejaVuSans-97"/>
      <use x="138.28125" xlink:href="#DejaVuSans-116"/>
      <use x="177.490234" xlink:href="#DejaVuSans-97"/>
     </g>
    </g>
    <g id="line2d_49">
     <path d="M 79.17125 485.856562 
L 99.17125 485.856562 
" style="fill:none;stroke:#ff0000;stroke-linecap:square;stroke-width:1.5;"/>
    </g>
    <g id="line2d_50"/>
    <g id="text_47">
     <!-- Forecast -->
     <g transform="translate(107.17125 489.356562)scale(0.1 -0.1)">
      <use xlink:href="#DejaVuSans-70"/>
      <use x="53.894531" xlink:href="#DejaVuSans-111"/>
      <use x="115.076172" xlink:href="#DejaVuSans-114"/>
      <use x="153.939453" xlink:href="#DejaVuSans-101"/>
      <use x="215.462891" xlink:href="#DejaVuSans-99"/>
      <use x="270.443359" xlink:href="#DejaVuSans-97"/>
      <use x="331.722656" xlink:href="#DejaVuSans-115"/>
      <use x="383.822266" xlink:href="#DejaVuSans-116"/>
     </g>
    </g>
   </g>
  </g>
 </g>
 <defs>
  <clipPath id="pbdfc3a24e6">
   <rect height="128.76" width="907.82875" x="70.17125" y="46.08"/>
  </clipPath>
  <clipPath id="p339b39f77b">
   <rect height="128.76" width="907.82875" x="70.17125" y="252.08"/>
  </clipPath>
  <clipPath id="p411e581374">
   <rect height="128.76" width="907.82875" x="70.17125" y="458.08"/>
  </clipPath>
 </defs>
</svg>
