<?xml version="1.0" encoding="utf-8" standalone="no"?>
<!DOCTYPE svg PUBLIC "-//W3C//DTD SVG 1.1//EN"
  "http://www.w3.org/Graphics/SVG/1.1/DTD/svg11.dtd">
<!-- Created with matplotlib (https://matplotlib.org/) -->
<svg height="648pt" version="1.1" viewBox="0 0 1008 648" width="1008pt" xmlns="http://www.w3.org/2000/svg" xmlns:xlink="http://www.w3.org/1999/xlink">
 <metadata>
  <rdf:RDF xmlns:cc="http://creativecommons.org/ns#" xmlns:dc="http://purl.org/dc/elements/1.1/" xmlns:rdf="http://www.w3.org/1999/02/22-rdf-syntax-ns#">
   <cc:Work>
    <dc:type rdf:resource="http://purl.org/dc/dcmitype/StillImage"/>
    <dc:date>2021-08-25T17:41:52.696081</dc:date>
    <dc:format>image/svg+xml</dc:format>
    <dc:creator>
     <cc:Agent>
      <dc:title>Matplotlib v3.3.4, https://matplotlib.org/</dc:title>
     </cc:Agent>
    </dc:creator>
   </cc:Work>
  </rdf:RDF>
 </metadata>
 <defs>
  <style type="text/css">*{stroke-linecap:butt;stroke-linejoin:round;}</style>
 </defs>
 <g id="figure_1">
  <g id="patch_1">
   <path d="M 0 648 
L 1008 648 
L 1008 0 
L 0 0 
z
" style="fill:#ffffff;"/>
  </g>
  <g id="axes_1">
   <g id="patch_2">
    <path d="M 70.17125 174.84 
L 978 174.84 
L 978 46.08 
L 70.17125 46.08 
z
" style="fill:#ffffff;"/>
   </g>
   <g id="matplotlib.axis_1">
    <g id="xtick_1">
     <g id="line2d_1">
      <defs>
       <path d="M 0 0 
L 0 3.5 
" id="mc9386efa64" style="stroke:#000000;stroke-width:0.8;"/>
      </defs>
      <g>
       <use style="stroke:#000000;stroke-width:0.8;" x="111.436193" xlink:href="#mc9386efa64" y="174.84"/>
      </g>
     </g>
     <g id="text_1">
      <!-- 2020/02/29 -->
      <g transform="translate(82.617443 189.438437)scale(0.1 -0.1)">
       <defs>
        <path d="M 19.1875 8.296875 
L 53.609375 8.296875 
L 53.609375 0 
L 7.328125 0 
L 7.328125 8.296875 
Q 12.9375 14.109375 22.625 23.890625 
Q 32.328125 33.6875 34.8125 36.53125 
Q 39.546875 41.84375 41.421875 45.53125 
Q 43.3125 49.21875 43.3125 52.78125 
Q 43.3125 58.59375 39.234375 62.25 
Q 35.15625 65.921875 28.609375 65.921875 
Q 23.96875 65.921875 18.8125 64.3125 
Q 13.671875 62.703125 7.8125 59.421875 
L 7.8125 69.390625 
Q 13.765625 71.78125 18.9375 73 
Q 24.125 74.21875 28.421875 74.21875 
Q 39.75 74.21875 46.484375 68.546875 
Q 53.21875 62.890625 53.21875 53.421875 
Q 53.21875 48.921875 51.53125 44.890625 
Q 49.859375 40.875 45.40625 35.40625 
Q 44.1875 33.984375 37.640625 27.21875 
Q 31.109375 20.453125 19.1875 8.296875 
z
" id="DejaVuSans-50"/>
        <path d="M 31.78125 66.40625 
Q 24.171875 66.40625 20.328125 58.90625 
Q 16.5 51.421875 16.5 36.375 
Q 16.5 21.390625 20.328125 13.890625 
Q 24.171875 6.390625 31.78125 6.390625 
Q 39.453125 6.390625 43.28125 13.890625 
Q 47.125 21.390625 47.125 36.375 
Q 47.125 51.421875 43.28125 58.90625 
Q 39.453125 66.40625 31.78125 66.40625 
z
M 31.78125 74.21875 
Q 44.046875 74.21875 50.515625 64.515625 
Q 56.984375 54.828125 56.984375 36.375 
Q 56.984375 17.96875 50.515625 8.265625 
Q 44.046875 -1.421875 31.78125 -1.421875 
Q 19.53125 -1.421875 13.0625 8.265625 
Q 6.59375 17.96875 6.59375 36.375 
Q 6.59375 54.828125 13.0625 64.515625 
Q 19.53125 74.21875 31.78125 74.21875 
z
" id="DejaVuSans-48"/>
        <path d="M 25.390625 72.90625 
L 33.6875 72.90625 
L 8.296875 -9.28125 
L 0 -9.28125 
z
" id="DejaVuSans-47"/>
        <path d="M 10.984375 1.515625 
L 10.984375 10.5 
Q 14.703125 8.734375 18.5 7.8125 
Q 22.3125 6.890625 25.984375 6.890625 
Q 35.75 6.890625 40.890625 13.453125 
Q 46.046875 20.015625 46.78125 33.40625 
Q 43.953125 29.203125 39.59375 26.953125 
Q 35.25 24.703125 29.984375 24.703125 
Q 19.046875 24.703125 12.671875 31.3125 
Q 6.296875 37.9375 6.296875 49.421875 
Q 6.296875 60.640625 12.9375 67.421875 
Q 19.578125 74.21875 30.609375 74.21875 
Q 43.265625 74.21875 49.921875 64.515625 
Q 56.59375 54.828125 56.59375 36.375 
Q 56.59375 19.140625 48.40625 8.859375 
Q 40.234375 -1.421875 26.421875 -1.421875 
Q 22.703125 -1.421875 18.890625 -0.6875 
Q 15.09375 0.046875 10.984375 1.515625 
z
M 30.609375 32.421875 
Q 37.25 32.421875 41.125 36.953125 
Q 45.015625 41.5 45.015625 49.421875 
Q 45.015625 57.28125 41.125 61.84375 
Q 37.25 66.40625 30.609375 66.40625 
Q 23.96875 66.40625 20.09375 61.84375 
Q 16.21875 57.28125 16.21875 49.421875 
Q 16.21875 41.5 20.09375 36.953125 
Q 23.96875 32.421875 30.609375 32.421875 
z
" id="DejaVuSans-57"/>
       </defs>
       <use xlink:href="#DejaVuSans-50"/>
       <use x="63.623047" xlink:href="#DejaVuSans-48"/>
       <use x="127.246094" xlink:href="#DejaVuSans-50"/>
       <use x="190.869141" xlink:href="#DejaVuSans-48"/>
       <use x="254.492188" xlink:href="#DejaVuSans-47"/>
       <use x="288.183594" xlink:href="#DejaVuSans-48"/>
       <use x="351.806641" xlink:href="#DejaVuSans-50"/>
       <use x="415.429688" xlink:href="#DejaVuSans-47"/>
       <use x="449.121094" xlink:href="#DejaVuSans-50"/>
       <use x="512.744141" xlink:href="#DejaVuSans-57"/>
      </g>
     </g>
    </g>
    <g id="xtick_2">
     <g id="line2d_2">
      <g>
       <use style="stroke:#000000;stroke-width:0.8;" x="299.004117" xlink:href="#mc9386efa64" y="174.84"/>
      </g>
     </g>
     <g id="text_2">
      <!-- 2020/06/08 -->
      <g transform="translate(270.185367 189.438437)scale(0.1 -0.1)">
       <defs>
        <path d="M 33.015625 40.375 
Q 26.375 40.375 22.484375 35.828125 
Q 18.609375 31.296875 18.609375 23.390625 
Q 18.609375 15.53125 22.484375 10.953125 
Q 26.375 6.390625 33.015625 6.390625 
Q 39.65625 6.390625 43.53125 10.953125 
Q 47.40625 15.53125 47.40625 23.390625 
Q 47.40625 31.296875 43.53125 35.828125 
Q 39.65625 40.375 33.015625 40.375 
z
M 52.59375 71.296875 
L 52.59375 62.3125 
Q 48.875 64.0625 45.09375 64.984375 
Q 41.3125 65.921875 37.59375 65.921875 
Q 27.828125 65.921875 22.671875 59.328125 
Q 17.53125 52.734375 16.796875 39.40625 
Q 19.671875 43.65625 24.015625 45.921875 
Q 28.375 48.1875 33.59375 48.1875 
Q 44.578125 48.1875 50.953125 41.515625 
Q 57.328125 34.859375 57.328125 23.390625 
Q 57.328125 12.15625 50.6875 5.359375 
Q 44.046875 -1.421875 33.015625 -1.421875 
Q 20.359375 -1.421875 13.671875 8.265625 
Q 6.984375 17.96875 6.984375 36.375 
Q 6.984375 53.65625 15.1875 63.9375 
Q 23.390625 74.21875 37.203125 74.21875 
Q 40.921875 74.21875 44.703125 73.484375 
Q 48.484375 72.75 52.59375 71.296875 
z
" id="DejaVuSans-54"/>
        <path d="M 31.78125 34.625 
Q 24.75 34.625 20.71875 30.859375 
Q 16.703125 27.09375 16.703125 20.515625 
Q 16.703125 13.921875 20.71875 10.15625 
Q 24.75 6.390625 31.78125 6.390625 
Q 38.8125 6.390625 42.859375 10.171875 
Q 46.921875 13.96875 46.921875 20.515625 
Q 46.921875 27.09375 42.890625 30.859375 
Q 38.875 34.625 31.78125 34.625 
z
M 21.921875 38.8125 
Q 15.578125 40.375 12.03125 44.71875 
Q 8.5 49.078125 8.5 55.328125 
Q 8.5 64.0625 14.71875 69.140625 
Q 20.953125 74.21875 31.78125 74.21875 
Q 42.671875 74.21875 48.875 69.140625 
Q 55.078125 64.0625 55.078125 55.328125 
Q 55.078125 49.078125 51.53125 44.71875 
Q 48 40.375 41.703125 38.8125 
Q 48.828125 37.15625 52.796875 32.3125 
Q 56.78125 27.484375 56.78125 20.515625 
Q 56.78125 9.90625 50.3125 4.234375 
Q 43.84375 -1.421875 31.78125 -1.421875 
Q 19.734375 -1.421875 13.25 4.234375 
Q 6.78125 9.90625 6.78125 20.515625 
Q 6.78125 27.484375 10.78125 32.3125 
Q 14.796875 37.15625 21.921875 38.8125 
z
M 18.3125 54.390625 
Q 18.3125 48.734375 21.84375 45.5625 
Q 25.390625 42.390625 31.78125 42.390625 
Q 38.140625 42.390625 41.71875 45.5625 
Q 45.3125 48.734375 45.3125 54.390625 
Q 45.3125 60.0625 41.71875 63.234375 
Q 38.140625 66.40625 31.78125 66.40625 
Q 25.390625 66.40625 21.84375 63.234375 
Q 18.3125 60.0625 18.3125 54.390625 
z
" id="DejaVuSans-56"/>
       </defs>
       <use xlink:href="#DejaVuSans-50"/>
       <use x="63.623047" xlink:href="#DejaVuSans-48"/>
       <use x="127.246094" xlink:href="#DejaVuSans-50"/>
       <use x="190.869141" xlink:href="#DejaVuSans-48"/>
       <use x="254.492188" xlink:href="#DejaVuSans-47"/>
       <use x="288.183594" xlink:href="#DejaVuSans-48"/>
       <use x="351.806641" xlink:href="#DejaVuSans-54"/>
       <use x="415.429688" xlink:href="#DejaVuSans-47"/>
       <use x="449.121094" xlink:href="#DejaVuSans-48"/>
       <use x="512.744141" xlink:href="#DejaVuSans-56"/>
      </g>
     </g>
    </g>
    <g id="xtick_3">
     <g id="line2d_3">
      <g>
       <use style="stroke:#000000;stroke-width:0.8;" x="486.57204" xlink:href="#mc9386efa64" y="174.84"/>
      </g>
     </g>
     <g id="text_3">
      <!-- 2020/09/16 -->
      <g transform="translate(457.75329 189.438437)scale(0.1 -0.1)">
       <defs>
        <path d="M 12.40625 8.296875 
L 28.515625 8.296875 
L 28.515625 63.921875 
L 10.984375 60.40625 
L 10.984375 69.390625 
L 28.421875 72.90625 
L 38.28125 72.90625 
L 38.28125 8.296875 
L 54.390625 8.296875 
L 54.390625 0 
L 12.40625 0 
z
" id="DejaVuSans-49"/>
       </defs>
       <use xlink:href="#DejaVuSans-50"/>
       <use x="63.623047" xlink:href="#DejaVuSans-48"/>
       <use x="127.246094" xlink:href="#DejaVuSans-50"/>
       <use x="190.869141" xlink:href="#DejaVuSans-48"/>
       <use x="254.492188" xlink:href="#DejaVuSans-47"/>
       <use x="288.183594" xlink:href="#DejaVuSans-48"/>
       <use x="351.806641" xlink:href="#DejaVuSans-57"/>
       <use x="415.429688" xlink:href="#DejaVuSans-47"/>
       <use x="449.121094" xlink:href="#DejaVuSans-49"/>
       <use x="512.744141" xlink:href="#DejaVuSans-54"/>
      </g>
     </g>
    </g>
    <g id="xtick_4">
     <g id="line2d_4">
      <g>
       <use style="stroke:#000000;stroke-width:0.8;" x="674.139964" xlink:href="#mc9386efa64" y="174.84"/>
      </g>
     </g>
     <g id="text_4">
      <!-- 2020/12/25 -->
      <g transform="translate(645.321214 189.438437)scale(0.1 -0.1)">
       <defs>
        <path d="M 10.796875 72.90625 
L 49.515625 72.90625 
L 49.515625 64.59375 
L 19.828125 64.59375 
L 19.828125 46.734375 
Q 21.96875 47.46875 24.109375 47.828125 
Q 26.265625 48.1875 28.421875 48.1875 
Q 40.625 48.1875 47.75 41.5 
Q 54.890625 34.8125 54.890625 23.390625 
Q 54.890625 11.625 47.5625 5.09375 
Q 40.234375 -1.421875 26.90625 -1.421875 
Q 22.3125 -1.421875 17.546875 -0.640625 
Q 12.796875 0.140625 7.71875 1.703125 
L 7.71875 11.625 
Q 12.109375 9.234375 16.796875 8.0625 
Q 21.484375 6.890625 26.703125 6.890625 
Q 35.15625 6.890625 40.078125 11.328125 
Q 45.015625 15.765625 45.015625 23.390625 
Q 45.015625 31 40.078125 35.4375 
Q 35.15625 39.890625 26.703125 39.890625 
Q 22.75 39.890625 18.8125 39.015625 
Q 14.890625 38.140625 10.796875 36.28125 
z
" id="DejaVuSans-53"/>
       </defs>
       <use xlink:href="#DejaVuSans-50"/>
       <use x="63.623047" xlink:href="#DejaVuSans-48"/>
       <use x="127.246094" xlink:href="#DejaVuSans-50"/>
       <use x="190.869141" xlink:href="#DejaVuSans-48"/>
       <use x="254.492188" xlink:href="#DejaVuSans-47"/>
       <use x="288.183594" xlink:href="#DejaVuSans-49"/>
       <use x="351.806641" xlink:href="#DejaVuSans-50"/>
       <use x="415.429688" xlink:href="#DejaVuSans-47"/>
       <use x="449.121094" xlink:href="#DejaVuSans-50"/>
       <use x="512.744141" xlink:href="#DejaVuSans-53"/>
      </g>
     </g>
    </g>
    <g id="xtick_5">
     <g id="line2d_5">
      <g>
       <use style="stroke:#000000;stroke-width:0.8;" x="861.707887" xlink:href="#mc9386efa64" y="174.84"/>
      </g>
     </g>
     <g id="text_5">
      <!-- 2021/04/04 -->
      <g transform="translate(832.889137 189.438437)scale(0.1 -0.1)">
       <defs>
        <path d="M 37.796875 64.3125 
L 12.890625 25.390625 
L 37.796875 25.390625 
z
M 35.203125 72.90625 
L 47.609375 72.90625 
L 47.609375 25.390625 
L 58.015625 25.390625 
L 58.015625 17.1875 
L 47.609375 17.1875 
L 47.609375 0 
L 37.796875 0 
L 37.796875 17.1875 
L 4.890625 17.1875 
L 4.890625 26.703125 
z
" id="DejaVuSans-52"/>
       </defs>
       <use xlink:href="#DejaVuSans-50"/>
       <use x="63.623047" xlink:href="#DejaVuSans-48"/>
       <use x="127.246094" xlink:href="#DejaVuSans-50"/>
       <use x="190.869141" xlink:href="#DejaVuSans-49"/>
       <use x="254.492188" xlink:href="#DejaVuSans-47"/>
       <use x="288.183594" xlink:href="#DejaVuSans-48"/>
       <use x="351.806641" xlink:href="#DejaVuSans-52"/>
       <use x="415.429688" xlink:href="#DejaVuSans-47"/>
       <use x="449.121094" xlink:href="#DejaVuSans-48"/>
       <use x="512.744141" xlink:href="#DejaVuSans-52"/>
      </g>
     </g>
    </g>
    <g id="text_6">
     <!-- Time, t [days] -->
     <g transform="translate(489.420781 203.116562)scale(0.1 -0.1)">
      <defs>
       <path d="M -0.296875 72.90625 
L 61.375 72.90625 
L 61.375 64.59375 
L 35.5 64.59375 
L 35.5 0 
L 25.59375 0 
L 25.59375 64.59375 
L -0.296875 64.59375 
z
" id="DejaVuSans-84"/>
       <path d="M 9.421875 54.6875 
L 18.40625 54.6875 
L 18.40625 0 
L 9.421875 0 
z
M 9.421875 75.984375 
L 18.40625 75.984375 
L 18.40625 64.59375 
L 9.421875 64.59375 
z
" id="DejaVuSans-105"/>
       <path d="M 52 44.1875 
Q 55.375 50.25 60.0625 53.125 
Q 64.75 56 71.09375 56 
Q 79.640625 56 84.28125 50.015625 
Q 88.921875 44.046875 88.921875 33.015625 
L 88.921875 0 
L 79.890625 0 
L 79.890625 32.71875 
Q 79.890625 40.578125 77.09375 44.375 
Q 74.3125 48.1875 68.609375 48.1875 
Q 61.625 48.1875 57.5625 43.546875 
Q 53.515625 38.921875 53.515625 30.90625 
L 53.515625 0 
L 44.484375 0 
L 44.484375 32.71875 
Q 44.484375 40.625 41.703125 44.40625 
Q 38.921875 48.1875 33.109375 48.1875 
Q 26.21875 48.1875 22.15625 43.53125 
Q 18.109375 38.875 18.109375 30.90625 
L 18.109375 0 
L 9.078125 0 
L 9.078125 54.6875 
L 18.109375 54.6875 
L 18.109375 46.1875 
Q 21.1875 51.21875 25.484375 53.609375 
Q 29.78125 56 35.6875 56 
Q 41.65625 56 45.828125 52.96875 
Q 50 49.953125 52 44.1875 
z
" id="DejaVuSans-109"/>
       <path d="M 56.203125 29.59375 
L 56.203125 25.203125 
L 14.890625 25.203125 
Q 15.484375 15.921875 20.484375 11.0625 
Q 25.484375 6.203125 34.421875 6.203125 
Q 39.59375 6.203125 44.453125 7.46875 
Q 49.3125 8.734375 54.109375 11.28125 
L 54.109375 2.78125 
Q 49.265625 0.734375 44.1875 -0.34375 
Q 39.109375 -1.421875 33.890625 -1.421875 
Q 20.796875 -1.421875 13.15625 6.1875 
Q 5.515625 13.8125 5.515625 26.8125 
Q 5.515625 40.234375 12.765625 48.109375 
Q 20.015625 56 32.328125 56 
Q 43.359375 56 49.78125 48.890625 
Q 56.203125 41.796875 56.203125 29.59375 
z
M 47.21875 32.234375 
Q 47.125 39.59375 43.09375 43.984375 
Q 39.0625 48.390625 32.421875 48.390625 
Q 24.90625 48.390625 20.390625 44.140625 
Q 15.875 39.890625 15.1875 32.171875 
z
" id="DejaVuSans-101"/>
       <path d="M 11.71875 12.40625 
L 22.015625 12.40625 
L 22.015625 4 
L 14.015625 -11.625 
L 7.71875 -11.625 
L 11.71875 4 
z
" id="DejaVuSans-44"/>
       <path id="DejaVuSans-32"/>
       <path d="M 18.3125 70.21875 
L 18.3125 54.6875 
L 36.8125 54.6875 
L 36.8125 47.703125 
L 18.3125 47.703125 
L 18.3125 18.015625 
Q 18.3125 11.328125 20.140625 9.421875 
Q 21.96875 7.515625 27.59375 7.515625 
L 36.8125 7.515625 
L 36.8125 0 
L 27.59375 0 
Q 17.1875 0 13.234375 3.875 
Q 9.28125 7.765625 9.28125 18.015625 
L 9.28125 47.703125 
L 2.6875 47.703125 
L 2.6875 54.6875 
L 9.28125 54.6875 
L 9.28125 70.21875 
z
" id="DejaVuSans-116"/>
       <path d="M 8.59375 75.984375 
L 29.296875 75.984375 
L 29.296875 69 
L 17.578125 69 
L 17.578125 -6.203125 
L 29.296875 -6.203125 
L 29.296875 -13.1875 
L 8.59375 -13.1875 
z
" id="DejaVuSans-91"/>
       <path d="M 45.40625 46.390625 
L 45.40625 75.984375 
L 54.390625 75.984375 
L 54.390625 0 
L 45.40625 0 
L 45.40625 8.203125 
Q 42.578125 3.328125 38.25 0.953125 
Q 33.9375 -1.421875 27.875 -1.421875 
Q 17.96875 -1.421875 11.734375 6.484375 
Q 5.515625 14.40625 5.515625 27.296875 
Q 5.515625 40.1875 11.734375 48.09375 
Q 17.96875 56 27.875 56 
Q 33.9375 56 38.25 53.625 
Q 42.578125 51.265625 45.40625 46.390625 
z
M 14.796875 27.296875 
Q 14.796875 17.390625 18.875 11.75 
Q 22.953125 6.109375 30.078125 6.109375 
Q 37.203125 6.109375 41.296875 11.75 
Q 45.40625 17.390625 45.40625 27.296875 
Q 45.40625 37.203125 41.296875 42.84375 
Q 37.203125 48.484375 30.078125 48.484375 
Q 22.953125 48.484375 18.875 42.84375 
Q 14.796875 37.203125 14.796875 27.296875 
z
" id="DejaVuSans-100"/>
       <path d="M 34.28125 27.484375 
Q 23.390625 27.484375 19.1875 25 
Q 14.984375 22.515625 14.984375 16.5 
Q 14.984375 11.71875 18.140625 8.90625 
Q 21.296875 6.109375 26.703125 6.109375 
Q 34.1875 6.109375 38.703125 11.40625 
Q 43.21875 16.703125 43.21875 25.484375 
L 43.21875 27.484375 
z
M 52.203125 31.203125 
L 52.203125 0 
L 43.21875 0 
L 43.21875 8.296875 
Q 40.140625 3.328125 35.546875 0.953125 
Q 30.953125 -1.421875 24.3125 -1.421875 
Q 15.921875 -1.421875 10.953125 3.296875 
Q 6 8.015625 6 15.921875 
Q 6 25.140625 12.171875 29.828125 
Q 18.359375 34.515625 30.609375 34.515625 
L 43.21875 34.515625 
L 43.21875 35.40625 
Q 43.21875 41.609375 39.140625 45 
Q 35.0625 48.390625 27.6875 48.390625 
Q 23 48.390625 18.546875 47.265625 
Q 14.109375 46.140625 10.015625 43.890625 
L 10.015625 52.203125 
Q 14.9375 54.109375 19.578125 55.046875 
Q 24.21875 56 28.609375 56 
Q 40.484375 56 46.34375 49.84375 
Q 52.203125 43.703125 52.203125 31.203125 
z
" id="DejaVuSans-97"/>
       <path d="M 32.171875 -5.078125 
Q 28.375 -14.84375 24.75 -17.8125 
Q 21.140625 -20.796875 15.09375 -20.796875 
L 7.90625 -20.796875 
L 7.90625 -13.28125 
L 13.1875 -13.28125 
Q 16.890625 -13.28125 18.9375 -11.515625 
Q 21 -9.765625 23.484375 -3.21875 
L 25.09375 0.875 
L 2.984375 54.6875 
L 12.5 54.6875 
L 29.59375 11.921875 
L 46.6875 54.6875 
L 56.203125 54.6875 
z
" id="DejaVuSans-121"/>
       <path d="M 44.28125 53.078125 
L 44.28125 44.578125 
Q 40.484375 46.53125 36.375 47.5 
Q 32.28125 48.484375 27.875 48.484375 
Q 21.1875 48.484375 17.84375 46.4375 
Q 14.5 44.390625 14.5 40.28125 
Q 14.5 37.15625 16.890625 35.375 
Q 19.28125 33.59375 26.515625 31.984375 
L 29.59375 31.296875 
Q 39.15625 29.25 43.1875 25.515625 
Q 47.21875 21.78125 47.21875 15.09375 
Q 47.21875 7.46875 41.1875 3.015625 
Q 35.15625 -1.421875 24.609375 -1.421875 
Q 20.21875 -1.421875 15.453125 -0.5625 
Q 10.6875 0.296875 5.421875 2 
L 5.421875 11.28125 
Q 10.40625 8.6875 15.234375 7.390625 
Q 20.0625 6.109375 24.8125 6.109375 
Q 31.15625 6.109375 34.5625 8.28125 
Q 37.984375 10.453125 37.984375 14.40625 
Q 37.984375 18.0625 35.515625 20.015625 
Q 33.0625 21.96875 24.703125 23.78125 
L 21.578125 24.515625 
Q 13.234375 26.265625 9.515625 29.90625 
Q 5.8125 33.546875 5.8125 39.890625 
Q 5.8125 47.609375 11.28125 51.796875 
Q 16.75 56 26.8125 56 
Q 31.78125 56 36.171875 55.265625 
Q 40.578125 54.546875 44.28125 53.078125 
z
" id="DejaVuSans-115"/>
       <path d="M 30.421875 75.984375 
L 30.421875 -13.1875 
L 9.71875 -13.1875 
L 9.71875 -6.203125 
L 21.390625 -6.203125 
L 21.390625 69 
L 9.71875 69 
L 9.71875 75.984375 
z
" id="DejaVuSans-93"/>
      </defs>
      <use xlink:href="#DejaVuSans-84"/>
      <use x="57.958984" xlink:href="#DejaVuSans-105"/>
      <use x="85.742188" xlink:href="#DejaVuSans-109"/>
      <use x="183.154297" xlink:href="#DejaVuSans-101"/>
      <use x="244.677734" xlink:href="#DejaVuSans-44"/>
      <use x="276.464844" xlink:href="#DejaVuSans-32"/>
      <use x="308.251953" xlink:href="#DejaVuSans-116"/>
      <use x="347.460938" xlink:href="#DejaVuSans-32"/>
      <use x="379.248047" xlink:href="#DejaVuSans-91"/>
      <use x="418.261719" xlink:href="#DejaVuSans-100"/>
      <use x="481.738281" xlink:href="#DejaVuSans-97"/>
      <use x="543.017578" xlink:href="#DejaVuSans-121"/>
      <use x="602.197266" xlink:href="#DejaVuSans-115"/>
      <use x="654.296875" xlink:href="#DejaVuSans-93"/>
     </g>
    </g>
   </g>
   <g id="matplotlib.axis_2">
    <g id="ytick_1">
     <g id="line2d_6">
      <defs>
       <path d="M 0 0 
L -3.5 0 
" id="m1bb686be50" style="stroke:#000000;stroke-width:0.8;"/>
      </defs>
      <g>
       <use style="stroke:#000000;stroke-width:0.8;" x="70.17125" xlink:href="#m1bb686be50" y="168.987273"/>
      </g>
     </g>
     <g id="text_7">
      <!-- 0 -->
      <g transform="translate(56.80875 172.786491)scale(0.1 -0.1)">
       <use xlink:href="#DejaVuSans-48"/>
      </g>
     </g>
    </g>
    <g id="ytick_2">
     <g id="line2d_7">
      <g>
       <use style="stroke:#000000;stroke-width:0.8;" x="70.17125" xlink:href="#m1bb686be50" y="131.227742"/>
      </g>
     </g>
     <g id="text_8">
      <!-- 100 -->
      <g transform="translate(44.08375 135.026961)scale(0.1 -0.1)">
       <use xlink:href="#DejaVuSans-49"/>
       <use x="63.623047" xlink:href="#DejaVuSans-48"/>
       <use x="127.246094" xlink:href="#DejaVuSans-48"/>
      </g>
     </g>
    </g>
    <g id="ytick_3">
     <g id="line2d_8">
      <g>
       <use style="stroke:#000000;stroke-width:0.8;" x="70.17125" xlink:href="#m1bb686be50" y="93.468211"/>
      </g>
     </g>
     <g id="text_9">
      <!-- 200 -->
      <g transform="translate(44.08375 97.26743)scale(0.1 -0.1)">
       <use xlink:href="#DejaVuSans-50"/>
       <use x="63.623047" xlink:href="#DejaVuSans-48"/>
       <use x="127.246094" xlink:href="#DejaVuSans-48"/>
      </g>
     </g>
    </g>
    <g id="ytick_4">
     <g id="line2d_9">
      <g>
       <use style="stroke:#000000;stroke-width:0.8;" x="70.17125" xlink:href="#m1bb686be50" y="55.70868"/>
      </g>
     </g>
     <g id="text_10">
      <!-- 300 -->
      <g transform="translate(44.08375 59.507899)scale(0.1 -0.1)">
       <defs>
        <path d="M 40.578125 39.3125 
Q 47.65625 37.796875 51.625 33 
Q 55.609375 28.21875 55.609375 21.1875 
Q 55.609375 10.40625 48.1875 4.484375 
Q 40.765625 -1.421875 27.09375 -1.421875 
Q 22.515625 -1.421875 17.65625 -0.515625 
Q 12.796875 0.390625 7.625 2.203125 
L 7.625 11.71875 
Q 11.71875 9.328125 16.59375 8.109375 
Q 21.484375 6.890625 26.8125 6.890625 
Q 36.078125 6.890625 40.9375 10.546875 
Q 45.796875 14.203125 45.796875 21.1875 
Q 45.796875 27.640625 41.28125 31.265625 
Q 36.765625 34.90625 28.71875 34.90625 
L 20.21875 34.90625 
L 20.21875 43.015625 
L 29.109375 43.015625 
Q 36.375 43.015625 40.234375 45.921875 
Q 44.09375 48.828125 44.09375 54.296875 
Q 44.09375 59.90625 40.109375 62.90625 
Q 36.140625 65.921875 28.71875 65.921875 
Q 24.65625 65.921875 20.015625 65.03125 
Q 15.375 64.15625 9.8125 62.3125 
L 9.8125 71.09375 
Q 15.4375 72.65625 20.34375 73.4375 
Q 25.25 74.21875 29.59375 74.21875 
Q 40.828125 74.21875 47.359375 69.109375 
Q 53.90625 64.015625 53.90625 55.328125 
Q 53.90625 49.265625 50.4375 45.09375 
Q 46.96875 40.921875 40.578125 39.3125 
z
" id="DejaVuSans-51"/>
       </defs>
       <use xlink:href="#DejaVuSans-51"/>
       <use x="63.623047" xlink:href="#DejaVuSans-48"/>
       <use x="127.246094" xlink:href="#DejaVuSans-48"/>
      </g>
     </g>
    </g>
    <g id="text_11">
     <!-- daily_cases_(t+7) -->
     <g transform="translate(37.725937 154.767813)rotate(-90)scale(0.1 -0.1)">
      <defs>
       <path d="M 9.421875 75.984375 
L 18.40625 75.984375 
L 18.40625 0 
L 9.421875 0 
z
" id="DejaVuSans-108"/>
       <path d="M 50.984375 -16.609375 
L 50.984375 -23.578125 
L -0.984375 -23.578125 
L -0.984375 -16.609375 
z
" id="DejaVuSans-95"/>
       <path d="M 48.78125 52.59375 
L 48.78125 44.1875 
Q 44.96875 46.296875 41.140625 47.34375 
Q 37.3125 48.390625 33.40625 48.390625 
Q 24.65625 48.390625 19.8125 42.84375 
Q 14.984375 37.3125 14.984375 27.296875 
Q 14.984375 17.28125 19.8125 11.734375 
Q 24.65625 6.203125 33.40625 6.203125 
Q 37.3125 6.203125 41.140625 7.25 
Q 44.96875 8.296875 48.78125 10.40625 
L 48.78125 2.09375 
Q 45.015625 0.34375 40.984375 -0.53125 
Q 36.96875 -1.421875 32.421875 -1.421875 
Q 20.0625 -1.421875 12.78125 6.34375 
Q 5.515625 14.109375 5.515625 27.296875 
Q 5.515625 40.671875 12.859375 48.328125 
Q 20.21875 56 33.015625 56 
Q 37.15625 56 41.109375 55.140625 
Q 45.0625 54.296875 48.78125 52.59375 
z
" id="DejaVuSans-99"/>
       <path d="M 31 75.875 
Q 24.46875 64.65625 21.28125 53.65625 
Q 18.109375 42.671875 18.109375 31.390625 
Q 18.109375 20.125 21.3125 9.0625 
Q 24.515625 -2 31 -13.1875 
L 23.1875 -13.1875 
Q 15.875 -1.703125 12.234375 9.375 
Q 8.59375 20.453125 8.59375 31.390625 
Q 8.59375 42.28125 12.203125 53.3125 
Q 15.828125 64.359375 23.1875 75.875 
z
" id="DejaVuSans-40"/>
       <path d="M 46 62.703125 
L 46 35.5 
L 73.1875 35.5 
L 73.1875 27.203125 
L 46 27.203125 
L 46 0 
L 37.796875 0 
L 37.796875 27.203125 
L 10.59375 27.203125 
L 10.59375 35.5 
L 37.796875 35.5 
L 37.796875 62.703125 
z
" id="DejaVuSans-43"/>
       <path d="M 8.203125 72.90625 
L 55.078125 72.90625 
L 55.078125 68.703125 
L 28.609375 0 
L 18.3125 0 
L 43.21875 64.59375 
L 8.203125 64.59375 
z
" id="DejaVuSans-55"/>
       <path d="M 8.015625 75.875 
L 15.828125 75.875 
Q 23.140625 64.359375 26.78125 53.3125 
Q 30.421875 42.28125 30.421875 31.390625 
Q 30.421875 20.453125 26.78125 9.375 
Q 23.140625 -1.703125 15.828125 -13.1875 
L 8.015625 -13.1875 
Q 14.5 -2 17.703125 9.0625 
Q 20.90625 20.125 20.90625 31.390625 
Q 20.90625 42.671875 17.703125 53.65625 
Q 14.5 64.65625 8.015625 75.875 
z
" id="DejaVuSans-41"/>
      </defs>
      <use xlink:href="#DejaVuSans-100"/>
      <use x="63.476562" xlink:href="#DejaVuSans-97"/>
      <use x="124.755859" xlink:href="#DejaVuSans-105"/>
      <use x="152.539062" xlink:href="#DejaVuSans-108"/>
      <use x="180.322266" xlink:href="#DejaVuSans-121"/>
      <use x="239.501953" xlink:href="#DejaVuSans-95"/>
      <use x="289.501953" xlink:href="#DejaVuSans-99"/>
      <use x="344.482422" xlink:href="#DejaVuSans-97"/>
      <use x="405.761719" xlink:href="#DejaVuSans-115"/>
      <use x="457.861328" xlink:href="#DejaVuSans-101"/>
      <use x="519.384766" xlink:href="#DejaVuSans-115"/>
      <use x="571.484375" xlink:href="#DejaVuSans-95"/>
      <use x="621.484375" xlink:href="#DejaVuSans-40"/>
      <use x="660.498047" xlink:href="#DejaVuSans-116"/>
      <use x="699.707031" xlink:href="#DejaVuSans-43"/>
      <use x="783.496094" xlink:href="#DejaVuSans-55"/>
      <use x="847.119141" xlink:href="#DejaVuSans-41"/>
     </g>
    </g>
   </g>
   <g id="line2d_10">
    <path clip-path="url(#pbff4314d9b)" d="M 111.436193 168.609677 
L 113.311872 168.987273 
L 118.93891 168.987273 
L 120.814589 165.96651 
L 122.690269 164.456129 
L 124.565948 162.568152 
L 126.441627 165.588915 
L 128.317306 167.854487 
L 130.192986 162.568152 
L 133.944344 148.219531 
L 135.820023 146.70915 
L 137.695702 143.310792 
L 141.447061 140.290029 
L 143.32274 135.758886 
L 145.198419 101.020117 
L 147.074099 114.991144 
L 148.949778 131.982933 
L 150.825457 136.891672 
L 152.701136 136.136481 
L 154.576816 147.086745 
L 156.452495 147.46434 
L 158.328174 154.638651 
L 160.203853 141.422815 
L 162.079533 142.933196 
L 163.955212 153.88346 
L 165.830891 158.414604 
L 167.70657 156.904223 
L 169.582249 141.422815 
L 171.457929 146.331554 
L 173.333608 155.016246 
L 175.209287 143.310792 
L 177.084966 159.169795 
L 178.960646 151.240293 
L 180.836325 164.078534 
L 182.712004 156.526628 
L 184.587683 159.54739 
L 186.463363 146.331554 
L 188.339042 154.638651 
L 190.214721 149.352317 
L 192.0904 153.88346 
L 193.96608 156.904223 
L 195.841759 154.261056 
L 197.717438 148.974721 
L 199.593117 144.821173 
L 201.468796 154.638651 
L 203.344476 162.945748 
L 205.220155 160.302581 
L 207.095834 154.261056 
L 208.971513 150.107507 
L 210.847193 144.065982 
L 212.722872 151.617889 
L 214.598551 158.037009 
L 216.47423 166.721701 
L 218.34991 168.232082 
L 220.225589 164.456129 
L 222.101268 158.792199 
L 223.976947 163.323343 
L 225.852627 156.526628 
L 227.728306 166.344106 
L 229.603985 167.854487 
L 231.479664 168.609677 
L 233.355343 162.568152 
L 235.231023 161.812962 
L 237.106702 165.588915 
L 238.982381 161.435367 
L 240.85806 165.588915 
L 242.73374 167.854487 
L 244.609419 167.854487 
L 246.485098 165.96651 
L 248.360777 167.099296 
L 250.236457 165.588915 
L 252.112136 167.099296 
L 253.987815 165.96651 
L 255.863494 168.232082 
L 257.739174 168.987273 
L 259.614853 166.344106 
L 261.490532 167.854487 
L 263.366211 163.700938 
L 265.24189 167.476891 
L 267.11757 165.96651 
L 268.993249 168.232082 
L 270.868928 168.232082 
L 272.744607 167.476891 
L 274.620287 165.96651 
L 276.495966 167.476891 
L 278.371645 166.721701 
L 280.247324 167.099296 
L 282.123004 168.987273 
L 283.998683 168.232082 
L 285.874362 165.96651 
L 287.750041 168.232082 
L 289.625721 167.099296 
L 291.5014 167.099296 
L 293.377079 165.21132 
L 295.252758 168.232082 
L 297.128438 168.609677 
L 299.004117 166.344106 
L 300.879796 167.476891 
L 302.755475 163.700938 
L 304.631154 163.323343 
L 306.506834 164.456129 
L 308.382513 168.609677 
L 310.258192 166.721701 
L 312.133871 164.456129 
L 314.009551 166.344106 
L 315.88523 158.792199 
L 317.760909 165.96651 
L 319.636588 164.833724 
L 321.512268 166.721701 
L 323.387947 168.987273 
L 325.263626 166.721701 
L 327.139305 164.078534 
L 329.014985 166.344106 
L 330.890664 166.344106 
L 332.766343 165.96651 
L 334.642022 168.609677 
L 336.517701 168.987273 
L 338.393381 167.476891 
L 340.26906 167.099296 
L 342.144739 164.833724 
L 344.020418 167.476891 
L 345.896098 167.854487 
L 347.771777 168.987273 
L 349.647456 167.854487 
L 351.523135 168.232082 
L 353.398815 166.344106 
L 355.274494 165.588915 
L 357.150173 167.476891 
L 359.025852 166.344106 
L 360.901532 165.96651 
L 362.777211 161.057771 
L 364.65289 164.078534 
L 366.528569 168.232082 
L 370.279928 163.700938 
L 372.155607 164.456129 
L 374.031286 166.721701 
L 375.906965 167.099296 
L 377.782645 164.078534 
L 379.658324 168.609677 
L 381.534003 166.721701 
L 383.409682 154.638651 
L 385.285362 161.435367 
L 387.161041 159.924985 
L 389.03672 161.057771 
L 390.912399 153.505865 
L 392.788079 154.261056 
L 394.663758 161.057771 
L 396.539437 153.12827 
L 398.415116 156.526628 
L 400.290795 157.281818 
L 402.166475 157.659413 
L 404.042154 162.568152 
L 405.917833 144.065982 
L 407.793512 151.240293 
L 409.669192 144.821173 
L 411.544871 137.269267 
L 415.296229 153.12827 
L 417.171909 161.812962 
L 419.047588 149.729912 
L 420.923267 150.107507 
L 422.798946 143.310792 
L 424.674626 130.094956 
L 426.550305 140.667625 
L 428.425984 155.016246 
L 430.301663 148.597126 
L 432.177342 136.891672 
L 434.053022 134.248504 
L 435.928701 133.493314 
L 437.80438 120.277478 
L 439.680059 125.941408 
L 441.555739 143.688387 
L 443.431418 144.443578 
L 445.307097 125.186217 
L 447.182776 130.472551 
L 449.058456 114.235953 
L 450.934135 120.655073 
L 452.809814 124.053431 
L 454.685493 146.331554 
L 458.436852 128.584575 
L 460.312531 101.397713 
L 462.18821 111.592786 
L 464.063889 125.563812 
L 465.939569 122.920645 
L 467.815248 127.829384 
L 469.690927 136.891672 
L 471.566606 138.779648 
L 473.442286 123.675836 
L 475.317965 144.821173 
L 477.193644 127.829384 
L 479.069323 139.912434 
L 480.945003 147.841935 
L 482.820682 143.310792 
L 484.696361 141.800411 
L 486.57204 145.953959 
L 488.44772 147.46434 
L 490.323399 140.667625 
L 492.199078 148.219531 
L 494.074757 159.54739 
L 495.950436 140.667625 
L 497.826116 156.149032 
L 499.701795 151.617889 
L 501.577474 151.617889 
L 503.453153 144.065982 
L 505.328833 156.904223 
L 507.204512 145.953959 
L 509.080191 153.505865 
L 510.95587 151.617889 
L 512.83155 154.261056 
L 514.707229 156.526628 
L 516.582908 143.310792 
L 518.458587 142.555601 
L 520.334267 155.771437 
L 522.209946 151.995484 
L 524.085625 141.422815 
L 525.961304 145.953959 
L 527.836983 136.891672 
L 529.712663 130.472551 
L 531.588342 110.46 
L 533.464021 150.862698 
L 535.3397 133.870909 
L 537.21538 108.949619 
L 539.091059 88.181877 
L 540.966738 124.431026 
L 542.842417 99.132141 
L 544.718097 103.285689 
L 546.593776 107.061642 
L 548.469455 118.011906 
L 550.345134 103.663284 
L 552.220814 93.090616 
L 554.096493 100.264927 
L 555.972172 105.551261 
L 557.847851 94.978592 
L 559.72353 114.235953 
L 561.59921 87.426686 
L 563.474889 79.497185 
L 565.350568 109.704809 
L 567.226247 51.932727 
L 569.101927 83.273138 
L 570.977606 101.020117 
L 572.853285 79.87478 
L 574.728964 83.650733 
L 576.604644 72.322874 
L 578.480323 70.812493 
L 580.356002 82.895543 
L 582.231681 90.069853 
L 584.107361 96.111378 
L 585.98304 119.899883 
L 587.858719 77.986804 
L 589.734398 63.260587 
L 591.610077 78.364399 
L 593.485757 105.928856 
L 595.361436 104.79607 
L 597.237115 111.970381 
L 599.112794 137.269267 
L 600.988474 118.389501 
L 602.864153 118.767097 
L 604.739832 123.29824 
L 606.615511 129.339765 
L 608.491191 118.011906 
L 610.36687 136.136481 
L 612.242549 135.38129 
L 614.118228 128.96217 
L 615.993908 92.713021 
L 617.869587 123.675836 
L 619.745266 109.327214 
L 621.620945 118.011906 
L 623.496624 120.277478 
L 625.372304 147.086745 
L 627.247983 139.157243 
L 629.123662 135.758886 
L 630.999341 151.240293 
L 632.875021 127.451789 
L 634.7507 139.912434 
L 636.626379 148.219531 
L 638.502058 138.402053 
L 640.377738 141.04522 
L 642.253417 136.136481 
L 644.129096 138.024457 
L 646.004775 140.667625 
L 647.880455 141.422815 
L 649.756134 156.904223 
L 651.631813 149.729912 
L 653.507492 144.821173 
L 655.383171 145.576364 
L 657.258851 138.402053 
L 659.13453 146.70915 
L 661.010209 143.688387 
L 662.885888 144.443578 
L 664.761568 141.422815 
L 666.637247 141.800411 
L 668.512926 125.563812 
L 670.388605 126.319003 
L 672.264285 153.12827 
L 674.139964 113.103167 
L 676.015643 128.584575 
L 677.891322 136.514076 
L 679.767002 121.032669 
L 681.642681 118.767097 
L 685.394039 112.725572 
L 687.269718 125.941408 
L 689.145398 112.725572 
L 691.021077 124.431026 
L 692.896756 90.069853 
L 694.772435 119.899883 
L 696.648115 99.132141 
L 698.523794 115.746334 
L 700.399473 99.132141 
L 702.275152 112.725572 
L 704.150832 121.787859 
L 706.026511 124.053431 
L 707.90219 90.825044 
L 709.777869 90.447449 
L 711.653549 93.845806 
L 713.529228 93.468211 
L 715.404907 105.173666 
L 717.280586 131.227742 
L 719.156265 104.04088 
L 721.031945 118.767097 
L 722.907624 92.335425 
L 724.783303 110.082405 
L 726.658982 96.488974 
L 728.534662 122.920645 
L 730.410341 139.157243 
L 732.28602 114.613548 
L 734.161699 113.858358 
L 736.037379 123.675836 
L 737.913058 116.87912 
L 739.788737 131.605337 
L 741.664416 143.310792 
L 743.540096 147.086745 
L 745.415775 130.850147 
L 747.291454 128.96217 
L 749.167133 128.206979 
L 751.042813 144.443578 
L 752.918492 137.646862 
L 754.794171 164.078534 
L 756.66985 133.870909 
L 758.545529 131.227742 
L 760.421209 142.555601 
L 762.296888 149.352317 
L 764.172567 140.667625 
L 766.048246 140.667625 
L 767.923926 150.862698 
L 769.799605 151.240293 
L 771.675284 145.198768 
L 773.550963 147.841935 
L 775.426643 147.086745 
L 777.302322 152.373079 
L 779.178001 148.219531 
L 781.05368 157.281818 
L 782.92936 154.261056 
L 784.805039 154.261056 
L 786.680718 150.862698 
L 788.556397 155.016246 
L 790.432076 152.750674 
L 792.307756 159.169795 
L 794.183435 154.261056 
L 796.059114 152.373079 
L 797.934793 158.792199 
L 799.810473 150.862698 
L 801.686152 152.373079 
L 803.561831 154.261056 
L 805.43751 151.995484 
L 807.31319 151.617889 
L 809.188869 159.169795 
L 811.064548 148.597126 
L 812.940227 153.12827 
L 814.815907 150.107507 
L 816.691586 155.393842 
L 818.567265 155.016246 
L 820.442944 148.597126 
L 822.318623 163.323343 
L 824.194303 149.352317 
L 826.069982 150.107507 
L 827.945661 152.750674 
L 829.82134 140.290029 
L 831.69702 153.12827 
L 833.572699 158.037009 
L 835.448378 144.443578 
L 837.324057 145.576364 
L 839.199737 144.065982 
L 841.075416 145.198768 
L 842.951095 148.219531 
L 844.826774 141.422815 
L 846.702454 148.974721 
L 848.578133 153.88346 
L 850.453812 147.46434 
L 852.329491 144.443578 
L 854.20517 145.576364 
L 856.08085 130.850147 
L 857.956529 147.841935 
L 859.832208 134.248504 
L 861.707887 135.758886 
L 863.583567 130.472551 
L 865.459246 139.157243 
L 867.334925 144.065982 
L 869.210604 118.389501 
L 871.086284 130.472551 
L 872.961963 135.758886 
L 874.837642 124.053431 
L 876.713321 127.829384 
L 878.589001 135.003695 
L 880.46468 128.584575 
L 882.340359 124.053431 
L 884.216038 109.704809 
L 886.091717 139.912434 
L 887.967397 141.800411 
L 889.843076 119.522287 
L 891.718755 135.758886 
L 893.594434 131.227742 
L 895.470114 118.389501 
L 897.345793 127.451789 
L 899.221472 141.04522 
L 901.097151 127.451789 
L 902.972831 137.646862 
L 904.84851 142.555601 
L 906.724189 142.933196 
L 908.599868 142.178006 
L 910.475548 150.107507 
L 912.351227 149.352317 
L 914.226906 149.729912 
L 916.102585 149.729912 
L 917.978264 151.617889 
L 919.853944 151.240293 
L 921.729623 151.240293 
L 923.605302 161.435367 
L 925.480981 158.414604 
L 927.356661 159.169795 
L 929.23234 153.88346 
L 931.108019 154.261056 
L 932.983698 159.169795 
L 934.859378 157.659413 
L 936.735057 149.729912 
L 936.735057 149.729912 
" style="fill:none;stroke:#0000ff;stroke-linecap:square;stroke-width:1.5;"/>
   </g>
   <g id="line2d_11">
    <path clip-path="url(#pbff4314d9b)" d="M 111.436193 168.647437 
L 113.311872 168.647437 
L 115.187552 166.268587 
L 117.063231 168.647437 
L 120.814589 168.647437 
L 122.690269 165.362358 
L 124.565948 164.38061 
L 126.441627 165.098041 
L 130.192986 165.098041 
L 132.068665 158.980997 
L 133.944344 148.899202 
L 135.820023 144.065982 
L 137.695702 140.176751 
L 139.571382 141.800411 
L 141.447061 142.102487 
L 143.32274 139.42156 
L 145.198419 139.42156 
L 147.074099 136.400798 
L 148.949778 139.232762 
L 150.825457 136.400798 
L 152.701136 136.24976 
L 154.576816 145.916199 
L 156.452495 144.783413 
L 158.328174 147.275543 
L 160.203853 146.142757 
L 162.079533 147.275543 
L 163.955212 153.732422 
L 165.830891 153.92122 
L 167.70657 154.336575 
L 169.582249 149.729912 
L 171.457929 147.653138 
L 173.333608 149.767672 
L 175.209287 145.953959 
L 177.084966 156.715425 
L 178.960646 153.279308 
L 180.836325 156.904223 
L 182.712004 157.281818 
L 184.587683 157.432856 
L 186.463363 152.826194 
L 188.339042 153.958979 
L 190.214721 154.563132 
L 192.0904 151.844446 
L 193.96608 155.733677 
L 195.841759 153.732422 
L 197.717438 151.46685 
L 199.593117 155.960235 
L 201.468796 151.882205 
L 203.344476 159.50963 
L 205.220155 157.546135 
L 207.095834 153.732422 
L 208.971513 150.636141 
L 210.847193 148.634886 
L 212.722872 149.088 
L 214.598551 159.132035 
L 216.47423 163.059026 
L 218.34991 165.060282 
L 220.225589 163.096786 
L 222.101268 162.152798 
L 223.976947 157.244059 
L 225.852627 158.792199 
L 227.728306 163.172305 
L 229.603985 161.095531 
L 231.479664 168.269842 
L 233.355343 162.492633 
L 235.231023 162.454874 
L 237.106702 163.700938 
L 238.982381 160.906733 
L 240.85806 166.419625 
L 242.73374 167.892246 
L 244.609419 168.118804 
L 246.485098 165.96651 
L 248.360777 166.306346 
L 250.236457 166.419625 
L 252.112136 166.306346 
L 253.987815 166.306346 
L 255.863494 168.156563 
L 257.739174 167.892246 
L 259.614853 166.570663 
L 261.490532 166.457384 
L 263.366211 166.079789 
L 265.24189 167.363613 
L 267.11757 166.419625 
L 268.993249 168.118804 
L 270.868928 168.194323 
L 274.620287 166.532903 
L 276.495966 167.363613 
L 280.247324 167.288094 
L 282.123004 168.194323 
L 283.998683 168.194323 
L 285.874362 166.872739 
L 287.750041 167.212575 
L 289.625721 166.910499 
L 291.5014 166.495144 
L 293.377079 165.135801 
L 295.252758 168.38312 
L 297.128438 168.307601 
L 299.004117 166.344106 
L 300.879796 167.137056 
L 302.755475 165.21132 
L 304.631154 164.682686 
L 306.506834 164.456129 
L 308.382513 167.854487 
L 310.258192 167.174815 
L 312.133871 164.682686 
L 314.009551 166.193067 
L 315.88523 165.437877 
L 317.760909 165.21132 
L 319.636588 165.437877 
L 321.512268 167.854487 
L 323.387947 167.703449 
L 325.263626 164.644927 
L 327.139305 164.984762 
L 329.014985 164.191812 
L 330.890664 166.457384 
L 332.766343 166.306346 
L 334.642022 167.741208 
L 336.517701 168.194323 
L 338.393381 167.778968 
L 340.26906 166.683941 
L 342.144739 162.303836 
L 344.020418 166.910499 
L 347.771777 167.363613 
L 351.523135 168.232082 
L 353.398815 166.495144 
L 355.274494 166.155308 
L 357.150173 166.986018 
L 359.025852 166.193067 
L 360.901532 166.948258 
L 362.777211 164.795965 
L 364.65289 165.324598 
L 366.528569 165.21132 
L 368.404248 165.286839 
L 370.279928 164.909243 
L 374.031286 164.456129 
L 375.906965 163.134545 
L 377.782645 165.362358 
L 379.658324 165.815472 
L 381.534003 164.229572 
L 383.409682 160.302581 
L 385.285362 161.435367 
L 387.161041 161.284328 
L 389.03672 161.284328 
L 390.912399 158.339085 
L 392.788079 164.154053 
L 394.663758 161.284328 
L 396.539437 154.638651 
L 398.415116 157.999249 
L 400.290795 154.563132 
L 402.166475 150.409584 
L 404.042154 157.92373 
L 405.917833 143.499589 
L 407.793512 148.823683 
L 409.669192 143.499589 
L 411.544871 146.180516 
L 413.42055 150.069748 
L 415.296229 155.733677 
L 417.171909 156.413349 
L 419.047588 151.127015 
L 420.923267 147.048985 
L 422.798946 143.499589 
L 424.674626 133.417795 
L 426.550305 136.136481 
L 428.425984 151.164774 
L 430.301663 151.013736 
L 432.177342 135.116974 
L 435.928701 132.889161 
L 437.80438 127.678346 
L 439.680059 136.816152 
L 441.555739 147.275543 
L 443.431418 136.060962 
L 445.307097 127.37627 
L 447.182776 130.321513 
L 449.058456 121.334745 
L 450.934135 119.484528 
L 452.809814 118.087425 
L 454.685493 139.157243 
L 456.561173 131.718616 
L 458.436852 125.412774 
L 460.312531 116.426006 
L 462.18821 115.217701 
L 464.063889 125.79037 
L 465.939569 121.636821 
L 467.815248 132.889161 
L 469.690927 138.288774 
L 471.566606 130.623589 
L 473.442286 126.092446 
L 475.317965 143.575109 
L 477.193644 135.607848 
L 479.069323 137.911179 
L 480.945003 136.514076 
L 482.820682 136.514076 
L 484.696361 143.46183 
L 486.57204 135.154733 
L 488.44772 147.426581 
L 490.323399 143.084235 
L 492.199078 145.04773 
L 494.074757 148.936962 
L 495.950436 142.970956 
L 497.826116 148.25729 
L 499.701795 150.824938 
L 501.577474 146.331554 
L 503.453153 145.425326 
L 505.328833 153.241548 
L 507.204512 151.353572 
L 509.080191 138.930686 
L 510.95587 150.258545 
L 512.83155 151.731167 
L 514.707229 151.731167 
L 516.582908 135.570088 
L 518.458587 144.405818 
L 520.334267 150.145267 
L 522.209946 150.6739 
L 524.085625 140.403308 
L 525.961304 139.497079 
L 527.836983 135.645607 
L 531.588342 123.789114 
L 533.464021 144.443578 
L 535.3397 141.951449 
L 537.21538 120.390757 
L 539.091059 120.504035 
L 540.966738 114.613548 
L 542.842417 109.66705 
L 544.718097 109.176176 
L 546.593776 119.748845 
L 548.469455 121.863378 
L 550.345134 111.932622 
L 552.220814 109.402733 
L 554.096493 116.841361 
L 557.847851 98.074874 
L 559.72353 108.194428 
L 561.59921 89.843296 
L 563.474889 82.32915 
L 565.350568 89.956575 
L 567.226247 76.098827 
L 569.101927 81.158604 
L 570.977606 85.651988 
L 574.728964 85.651988 
L 576.604644 76.287625 
L 578.480323 77.533689 
L 580.356002 77.722487 
L 582.231681 86.784774 
L 584.107361 89.918815 
L 585.98304 116.199449 
L 587.858719 82.027073 
L 589.734398 80.592211 
L 591.610077 80.592211 
L 593.485757 103.889842 
L 597.237115 103.889842 
L 599.112794 136.740633 
L 600.988474 112.687812 
L 602.864153 120.050921 
L 604.739832 120.806111 
L 606.615511 124.204469 
L 608.491191 118.918135 
L 610.36687 136.740633 
L 612.242549 136.740633 
L 614.118228 125.71485 
L 615.993908 111.592786 
L 617.869587 121.070428 
L 619.745266 116.312727 
L 621.620945 121.372504 
L 623.496624 116.426006 
L 625.372304 140.705384 
L 627.247983 139.761396 
L 629.123662 141.536094 
L 630.999341 140.101232 
L 632.875021 123.37376 
L 634.7507 134.928176 
L 636.626379 137.420305 
L 638.502058 136.816152 
L 640.377738 142.291284 
L 642.253417 135.532328 
L 644.129096 138.930686 
L 646.004775 140.063472 
L 647.880455 140.516587 
L 649.756134 152.410839 
L 651.631813 141.649372 
L 653.507492 141.913689 
L 655.383171 136.363038 
L 657.258851 133.266757 
L 659.13453 136.853912 
L 661.010209 141.460575 
L 662.885888 143.499589 
L 664.761568 145.236528 
L 666.637247 138.062217 
L 668.512926 126.54556 
L 670.388605 126.54556 
L 672.264285 149.692152 
L 674.139964 128.471296 
L 676.015643 131.001185 
L 677.891322 137.911179 
L 679.767002 120.617314 
L 681.642681 124.242229 
L 683.51836 118.389501 
L 685.394039 123.336 
L 687.269718 125.488293 
L 689.145398 120.12644 
L 691.021077 123.071683 
L 692.896756 129.037689 
L 694.772435 121.825619 
L 696.648115 116.539284 
L 698.523794 119.975402 
L 700.399473 120.730592 
L 702.275152 113.782839 
L 704.150832 118.616059 
L 706.026511 119.144692 
L 707.90219 97.017607 
L 709.777869 94.827554 
L 711.653549 102.530499 
L 713.529228 97.017607 
L 715.404907 104.116399 
L 717.280586 124.015672 
L 719.156265 116.350487 
L 721.031945 103.285689 
L 722.907624 96.413455 
L 724.783303 99.698534 
L 726.658982 101.435472 
L 728.534662 122.54305 
L 730.410341 135.003695 
L 732.28602 123.071683 
L 734.161699 116.199449 
L 736.037379 122.694088 
L 737.913058 116.237208 
L 739.788737 131.227742 
L 741.664416 137.420305 
L 743.540096 137.344786 
L 745.415775 130.699109 
L 747.291454 130.774628 
L 749.167133 130.283754 
L 751.042813 130.094956 
L 752.918492 136.891672 
L 754.794171 140.327789 
L 756.66985 133.531073 
L 758.545529 137.307026 
L 760.421209 141.724891 
L 762.296888 144.443578 
L 764.172567 145.349806 
L 766.048246 138.251015 
L 767.923926 152.33532 
L 769.799605 145.689642 
L 771.675284 142.329044 
L 773.550963 147.690897 
L 775.426643 146.67139 
L 777.302322 149.088 
L 779.178001 149.541114 
L 781.05368 154.978487 
L 782.92936 151.768927 
L 784.805039 154.336575 
L 786.680718 153.505865 
L 788.556397 147.992974 
L 790.432076 153.166029 
L 792.307756 154.940727 
L 794.183435 154.261056 
L 796.059114 154.525372 
L 797.934793 155.242804 
L 799.810473 150.447343 
L 801.686152 152.486358 
L 803.561831 153.014991 
L 805.43751 152.033243 
L 807.31319 152.373079 
L 809.188869 155.695918 
L 811.064548 150.900457 
L 812.940227 151.957724 
L 814.815907 152.486358 
L 816.691586 153.845701 
L 818.567265 154.298815 
L 820.442944 151.731167 
L 822.318623 159.887226 
L 824.194303 151.240293 
L 826.069982 151.240293 
L 827.945661 152.448598 
L 829.82134 146.104997 
L 831.69702 152.448598 
L 833.572699 153.845701 
L 835.448378 150.409584 
L 837.324057 145.953959 
L 839.199737 142.63112 
L 841.075416 145.123249 
L 842.951095 143.235273 
L 844.826774 144.217021 
L 846.702454 147.804176 
L 848.578133 149.956469 
L 850.453812 150.031988 
L 852.329491 145.727402 
L 854.20517 143.235273 
L 856.08085 138.402053 
L 857.956529 143.46183 
L 859.832208 135.079214 
L 861.707887 142.026968 
L 863.583567 135.758886 
L 865.459246 138.477572 
L 867.334925 139.232762 
L 869.210604 126.507801 
L 871.086284 133.191238 
L 872.961963 132.322768 
L 874.837642 131.794135 
L 876.713321 130.736868 
L 878.589001 132.436047 
L 880.46468 130.245994 
L 882.340359 126.016927 
L 884.216038 119.748845 
L 886.091717 138.364293 
L 887.967397 133.79539 
L 889.843076 126.281243 
L 891.718755 131.680856 
L 893.594434 127.565067 
L 895.470114 127.489548 
L 897.345793 127.904903 
L 899.221472 140.969701 
L 901.097151 138.968446 
L 902.972831 139.987953 
L 904.84851 143.159754 
L 906.724189 144.29254 
L 908.599868 138.326534 
L 910.475548 147.917455 
L 912.351227 146.935707 
L 914.226906 139.799155 
L 916.102585 148.785924 
L 917.978264 150.787179 
L 919.853944 150.485103 
L 921.729623 150.560622 
L 923.605302 157.055261 
L 925.480981 158.376845 
L 927.356661 155.167284 
L 929.23234 156.33783 
L 931.108019 156.33783 
L 932.983698 156.639906 
L 934.859378 156.639906 
L 936.735057 148.29505 
L 936.735057 148.29505 
" style="fill:none;stroke:#ff0000;stroke-linecap:square;stroke-width:1.5;"/>
   </g>
   <g id="patch_3">
    <path d="M 70.17125 174.84 
L 70.17125 46.08 
" style="fill:none;stroke:#000000;stroke-linecap:square;stroke-linejoin:miter;stroke-width:0.8;"/>
   </g>
   <g id="patch_4">
    <path d="M 978 174.84 
L 978 46.08 
" style="fill:none;stroke:#000000;stroke-linecap:square;stroke-linejoin:miter;stroke-width:0.8;"/>
   </g>
   <g id="patch_5">
    <path d="M 70.17125 174.84 
L 978 174.84 
" style="fill:none;stroke:#000000;stroke-linecap:square;stroke-linejoin:miter;stroke-width:0.8;"/>
   </g>
   <g id="patch_6">
    <path d="M 70.17125 46.08 
L 978 46.08 
" style="fill:none;stroke:#000000;stroke-linecap:square;stroke-linejoin:miter;stroke-width:0.8;"/>
   </g>
   <g id="text_12">
    <!-- Random Forest fit train -->
    <g transform="translate(455.024688 40.08)scale(0.12 -0.12)">
     <defs>
      <path d="M 44.390625 34.1875 
Q 47.5625 33.109375 50.5625 29.59375 
Q 53.5625 26.078125 56.59375 19.921875 
L 66.609375 0 
L 56 0 
L 46.6875 18.703125 
Q 43.0625 26.03125 39.671875 28.421875 
Q 36.28125 30.8125 30.421875 30.8125 
L 19.671875 30.8125 
L 19.671875 0 
L 9.8125 0 
L 9.8125 72.90625 
L 32.078125 72.90625 
Q 44.578125 72.90625 50.734375 67.671875 
Q 56.890625 62.453125 56.890625 51.90625 
Q 56.890625 45.015625 53.6875 40.46875 
Q 50.484375 35.9375 44.390625 34.1875 
z
M 19.671875 64.796875 
L 19.671875 38.921875 
L 32.078125 38.921875 
Q 39.203125 38.921875 42.84375 42.21875 
Q 46.484375 45.515625 46.484375 51.90625 
Q 46.484375 58.296875 42.84375 61.546875 
Q 39.203125 64.796875 32.078125 64.796875 
z
" id="DejaVuSans-82"/>
      <path d="M 54.890625 33.015625 
L 54.890625 0 
L 45.90625 0 
L 45.90625 32.71875 
Q 45.90625 40.484375 42.875 44.328125 
Q 39.84375 48.1875 33.796875 48.1875 
Q 26.515625 48.1875 22.3125 43.546875 
Q 18.109375 38.921875 18.109375 30.90625 
L 18.109375 0 
L 9.078125 0 
L 9.078125 54.6875 
L 18.109375 54.6875 
L 18.109375 46.1875 
Q 21.34375 51.125 25.703125 53.5625 
Q 30.078125 56 35.796875 56 
Q 45.21875 56 50.046875 50.171875 
Q 54.890625 44.34375 54.890625 33.015625 
z
" id="DejaVuSans-110"/>
      <path d="M 30.609375 48.390625 
Q 23.390625 48.390625 19.1875 42.75 
Q 14.984375 37.109375 14.984375 27.296875 
Q 14.984375 17.484375 19.15625 11.84375 
Q 23.34375 6.203125 30.609375 6.203125 
Q 37.796875 6.203125 41.984375 11.859375 
Q 46.1875 17.53125 46.1875 27.296875 
Q 46.1875 37.015625 41.984375 42.703125 
Q 37.796875 48.390625 30.609375 48.390625 
z
M 30.609375 56 
Q 42.328125 56 49.015625 48.375 
Q 55.71875 40.765625 55.71875 27.296875 
Q 55.71875 13.875 49.015625 6.21875 
Q 42.328125 -1.421875 30.609375 -1.421875 
Q 18.84375 -1.421875 12.171875 6.21875 
Q 5.515625 13.875 5.515625 27.296875 
Q 5.515625 40.765625 12.171875 48.375 
Q 18.84375 56 30.609375 56 
z
" id="DejaVuSans-111"/>
      <path d="M 9.8125 72.90625 
L 51.703125 72.90625 
L 51.703125 64.59375 
L 19.671875 64.59375 
L 19.671875 43.109375 
L 48.578125 43.109375 
L 48.578125 34.8125 
L 19.671875 34.8125 
L 19.671875 0 
L 9.8125 0 
z
" id="DejaVuSans-70"/>
      <path d="M 41.109375 46.296875 
Q 39.59375 47.171875 37.8125 47.578125 
Q 36.03125 48 33.890625 48 
Q 26.265625 48 22.1875 43.046875 
Q 18.109375 38.09375 18.109375 28.8125 
L 18.109375 0 
L 9.078125 0 
L 9.078125 54.6875 
L 18.109375 54.6875 
L 18.109375 46.1875 
Q 20.953125 51.171875 25.484375 53.578125 
Q 30.03125 56 36.53125 56 
Q 37.453125 56 38.578125 55.875 
Q 39.703125 55.765625 41.0625 55.515625 
z
" id="DejaVuSans-114"/>
      <path d="M 37.109375 75.984375 
L 37.109375 68.5 
L 28.515625 68.5 
Q 23.6875 68.5 21.796875 66.546875 
Q 19.921875 64.59375 19.921875 59.515625 
L 19.921875 54.6875 
L 34.71875 54.6875 
L 34.71875 47.703125 
L 19.921875 47.703125 
L 19.921875 0 
L 10.890625 0 
L 10.890625 47.703125 
L 2.296875 47.703125 
L 2.296875 54.6875 
L 10.890625 54.6875 
L 10.890625 58.5 
Q 10.890625 67.625 15.140625 71.796875 
Q 19.390625 75.984375 28.609375 75.984375 
z
" id="DejaVuSans-102"/>
     </defs>
     <use xlink:href="#DejaVuSans-82"/>
     <use x="67.232422" xlink:href="#DejaVuSans-97"/>
     <use x="128.511719" xlink:href="#DejaVuSans-110"/>
     <use x="191.890625" xlink:href="#DejaVuSans-100"/>
     <use x="255.367188" xlink:href="#DejaVuSans-111"/>
     <use x="316.548828" xlink:href="#DejaVuSans-109"/>
     <use x="413.960938" xlink:href="#DejaVuSans-32"/>
     <use x="445.748047" xlink:href="#DejaVuSans-70"/>
     <use x="499.642578" xlink:href="#DejaVuSans-111"/>
     <use x="560.824219" xlink:href="#DejaVuSans-114"/>
     <use x="599.6875" xlink:href="#DejaVuSans-101"/>
     <use x="661.210938" xlink:href="#DejaVuSans-115"/>
     <use x="713.310547" xlink:href="#DejaVuSans-116"/>
     <use x="752.519531" xlink:href="#DejaVuSans-32"/>
     <use x="784.306641" xlink:href="#DejaVuSans-102"/>
     <use x="819.511719" xlink:href="#DejaVuSans-105"/>
     <use x="847.294922" xlink:href="#DejaVuSans-116"/>
     <use x="886.503906" xlink:href="#DejaVuSans-32"/>
     <use x="918.291016" xlink:href="#DejaVuSans-116"/>
     <use x="957.5" xlink:href="#DejaVuSans-114"/>
     <use x="998.613281" xlink:href="#DejaVuSans-97"/>
     <use x="1059.892578" xlink:href="#DejaVuSans-105"/>
     <use x="1087.675781" xlink:href="#DejaVuSans-110"/>
    </g>
   </g>
   <g id="legend_1">
    <g id="patch_7">
     <path d="M 77.17125 83.43625 
L 151.474375 83.43625 
Q 153.474375 83.43625 153.474375 81.43625 
L 153.474375 53.08 
Q 153.474375 51.08 151.474375 51.08 
L 77.17125 51.08 
Q 75.17125 51.08 75.17125 53.08 
L 75.17125 81.43625 
Q 75.17125 83.43625 77.17125 83.43625 
z
" style="fill:#ffffff;opacity:0.8;stroke:#cccccc;stroke-linejoin:miter;"/>
    </g>
    <g id="line2d_12">
     <path d="M 79.17125 59.178438 
L 99.17125 59.178438 
" style="fill:none;stroke:#0000ff;stroke-linecap:square;stroke-width:1.5;"/>
    </g>
    <g id="line2d_13"/>
    <g id="text_13">
     <!-- Data -->
     <g transform="translate(107.17125 62.678438)scale(0.1 -0.1)">
      <defs>
       <path d="M 19.671875 64.796875 
L 19.671875 8.109375 
L 31.59375 8.109375 
Q 46.6875 8.109375 53.6875 14.9375 
Q 60.6875 21.78125 60.6875 36.53125 
Q 60.6875 51.171875 53.6875 57.984375 
Q 46.6875 64.796875 31.59375 64.796875 
z
M 9.8125 72.90625 
L 30.078125 72.90625 
Q 51.265625 72.90625 61.171875 64.09375 
Q 71.09375 55.28125 71.09375 36.53125 
Q 71.09375 17.671875 61.125 8.828125 
Q 51.171875 0 30.078125 0 
L 9.8125 0 
z
" id="DejaVuSans-68"/>
      </defs>
      <use xlink:href="#DejaVuSans-68"/>
      <use x="77.001953" xlink:href="#DejaVuSans-97"/>
      <use x="138.28125" xlink:href="#DejaVuSans-116"/>
      <use x="177.490234" xlink:href="#DejaVuSans-97"/>
     </g>
    </g>
    <g id="line2d_14">
     <path d="M 79.17125 73.856563 
L 99.17125 73.856563 
" style="fill:none;stroke:#ff0000;stroke-linecap:square;stroke-width:1.5;"/>
    </g>
    <g id="line2d_15"/>
    <g id="text_14">
     <!-- Forecast -->
     <g transform="translate(107.17125 77.356563)scale(0.1 -0.1)">
      <use xlink:href="#DejaVuSans-70"/>
      <use x="53.894531" xlink:href="#DejaVuSans-111"/>
      <use x="115.076172" xlink:href="#DejaVuSans-114"/>
      <use x="153.939453" xlink:href="#DejaVuSans-101"/>
      <use x="215.462891" xlink:href="#DejaVuSans-99"/>
      <use x="270.443359" xlink:href="#DejaVuSans-97"/>
      <use x="331.722656" xlink:href="#DejaVuSans-115"/>
      <use x="383.822266" xlink:href="#DejaVuSans-116"/>
     </g>
    </g>
   </g>
  </g>
  <g id="axes_2">
   <g id="patch_8">
    <path d="M 70.17125 380.84 
L 978 380.84 
L 978 252.08 
L 70.17125 252.08 
z
" style="fill:#ffffff;"/>
   </g>
   <g id="matplotlib.axis_3">
    <g id="xtick_6">
     <g id="line2d_16">
      <g>
       <use style="stroke:#000000;stroke-width:0.8;" x="111.436193" xlink:href="#mc9386efa64" y="380.84"/>
      </g>
     </g>
     <g id="text_15">
      <!-- 2021/05/15 -->
      <g transform="translate(82.617443 395.438437)scale(0.1 -0.1)">
       <use xlink:href="#DejaVuSans-50"/>
       <use x="63.623047" xlink:href="#DejaVuSans-48"/>
       <use x="127.246094" xlink:href="#DejaVuSans-50"/>
       <use x="190.869141" xlink:href="#DejaVuSans-49"/>
       <use x="254.492188" xlink:href="#DejaVuSans-47"/>
       <use x="288.183594" xlink:href="#DejaVuSans-48"/>
       <use x="351.806641" xlink:href="#DejaVuSans-53"/>
       <use x="415.429688" xlink:href="#DejaVuSans-47"/>
       <use x="449.121094" xlink:href="#DejaVuSans-49"/>
       <use x="512.744141" xlink:href="#DejaVuSans-53"/>
      </g>
     </g>
    </g>
    <g id="xtick_7">
     <g id="line2d_17">
      <g>
       <use style="stroke:#000000;stroke-width:0.8;" x="273.2595" xlink:href="#mc9386efa64" y="380.84"/>
      </g>
     </g>
     <g id="text_16">
      <!-- 2021/05/25 -->
      <g transform="translate(244.44075 395.438437)scale(0.1 -0.1)">
       <use xlink:href="#DejaVuSans-50"/>
       <use x="63.623047" xlink:href="#DejaVuSans-48"/>
       <use x="127.246094" xlink:href="#DejaVuSans-50"/>
       <use x="190.869141" xlink:href="#DejaVuSans-49"/>
       <use x="254.492188" xlink:href="#DejaVuSans-47"/>
       <use x="288.183594" xlink:href="#DejaVuSans-48"/>
       <use x="351.806641" xlink:href="#DejaVuSans-53"/>
       <use x="415.429688" xlink:href="#DejaVuSans-47"/>
       <use x="449.121094" xlink:href="#DejaVuSans-50"/>
       <use x="512.744141" xlink:href="#DejaVuSans-53"/>
      </g>
     </g>
    </g>
    <g id="xtick_8">
     <g id="line2d_18">
      <g>
       <use style="stroke:#000000;stroke-width:0.8;" x="435.082806" xlink:href="#mc9386efa64" y="380.84"/>
      </g>
     </g>
     <g id="text_17">
      <!-- 2021/06/04 -->
      <g transform="translate(406.264056 395.438437)scale(0.1 -0.1)">
       <use xlink:href="#DejaVuSans-50"/>
       <use x="63.623047" xlink:href="#DejaVuSans-48"/>
       <use x="127.246094" xlink:href="#DejaVuSans-50"/>
       <use x="190.869141" xlink:href="#DejaVuSans-49"/>
       <use x="254.492188" xlink:href="#DejaVuSans-47"/>
       <use x="288.183594" xlink:href="#DejaVuSans-48"/>
       <use x="351.806641" xlink:href="#DejaVuSans-54"/>
       <use x="415.429688" xlink:href="#DejaVuSans-47"/>
       <use x="449.121094" xlink:href="#DejaVuSans-48"/>
       <use x="512.744141" xlink:href="#DejaVuSans-52"/>
      </g>
     </g>
    </g>
    <g id="xtick_9">
     <g id="line2d_19">
      <g>
       <use style="stroke:#000000;stroke-width:0.8;" x="596.906113" xlink:href="#mc9386efa64" y="380.84"/>
      </g>
     </g>
     <g id="text_18">
      <!-- 2021/06/14 -->
      <g transform="translate(568.087363 395.438437)scale(0.1 -0.1)">
       <use xlink:href="#DejaVuSans-50"/>
       <use x="63.623047" xlink:href="#DejaVuSans-48"/>
       <use x="127.246094" xlink:href="#DejaVuSans-50"/>
       <use x="190.869141" xlink:href="#DejaVuSans-49"/>
       <use x="254.492188" xlink:href="#DejaVuSans-47"/>
       <use x="288.183594" xlink:href="#DejaVuSans-48"/>
       <use x="351.806641" xlink:href="#DejaVuSans-54"/>
       <use x="415.429688" xlink:href="#DejaVuSans-47"/>
       <use x="449.121094" xlink:href="#DejaVuSans-49"/>
       <use x="512.744141" xlink:href="#DejaVuSans-52"/>
      </g>
     </g>
    </g>
    <g id="xtick_10">
     <g id="line2d_20">
      <g>
       <use style="stroke:#000000;stroke-width:0.8;" x="758.72942" xlink:href="#mc9386efa64" y="380.84"/>
      </g>
     </g>
     <g id="text_19">
      <!-- 2021/06/24 -->
      <g transform="translate(729.91067 395.438437)scale(0.1 -0.1)">
       <use xlink:href="#DejaVuSans-50"/>
       <use x="63.623047" xlink:href="#DejaVuSans-48"/>
       <use x="127.246094" xlink:href="#DejaVuSans-50"/>
       <use x="190.869141" xlink:href="#DejaVuSans-49"/>
       <use x="254.492188" xlink:href="#DejaVuSans-47"/>
       <use x="288.183594" xlink:href="#DejaVuSans-48"/>
       <use x="351.806641" xlink:href="#DejaVuSans-54"/>
       <use x="415.429688" xlink:href="#DejaVuSans-47"/>
       <use x="449.121094" xlink:href="#DejaVuSans-50"/>
       <use x="512.744141" xlink:href="#DejaVuSans-52"/>
      </g>
     </g>
    </g>
    <g id="xtick_11">
     <g id="line2d_21">
      <g>
       <use style="stroke:#000000;stroke-width:0.8;" x="920.552726" xlink:href="#mc9386efa64" y="380.84"/>
      </g>
     </g>
     <g id="text_20">
      <!-- 2021/07/04 -->
      <g transform="translate(891.733976 395.438437)scale(0.1 -0.1)">
       <use xlink:href="#DejaVuSans-50"/>
       <use x="63.623047" xlink:href="#DejaVuSans-48"/>
       <use x="127.246094" xlink:href="#DejaVuSans-50"/>
       <use x="190.869141" xlink:href="#DejaVuSans-49"/>
       <use x="254.492188" xlink:href="#DejaVuSans-47"/>
       <use x="288.183594" xlink:href="#DejaVuSans-48"/>
       <use x="351.806641" xlink:href="#DejaVuSans-55"/>
       <use x="415.429688" xlink:href="#DejaVuSans-47"/>
       <use x="449.121094" xlink:href="#DejaVuSans-48"/>
       <use x="512.744141" xlink:href="#DejaVuSans-52"/>
      </g>
     </g>
    </g>
    <g id="text_21">
     <!-- Time, t [days] -->
     <g transform="translate(489.420781 409.116562)scale(0.1 -0.1)">
      <use xlink:href="#DejaVuSans-84"/>
      <use x="57.958984" xlink:href="#DejaVuSans-105"/>
      <use x="85.742188" xlink:href="#DejaVuSans-109"/>
      <use x="183.154297" xlink:href="#DejaVuSans-101"/>
      <use x="244.677734" xlink:href="#DejaVuSans-44"/>
      <use x="276.464844" xlink:href="#DejaVuSans-32"/>
      <use x="308.251953" xlink:href="#DejaVuSans-116"/>
      <use x="347.460938" xlink:href="#DejaVuSans-32"/>
      <use x="379.248047" xlink:href="#DejaVuSans-91"/>
      <use x="418.261719" xlink:href="#DejaVuSans-100"/>
      <use x="481.738281" xlink:href="#DejaVuSans-97"/>
      <use x="543.017578" xlink:href="#DejaVuSans-121"/>
      <use x="602.197266" xlink:href="#DejaVuSans-115"/>
      <use x="654.296875" xlink:href="#DejaVuSans-93"/>
     </g>
    </g>
   </g>
   <g id="matplotlib.axis_4">
    <g id="ytick_5">
     <g id="line2d_22">
      <g>
       <use style="stroke:#000000;stroke-width:0.8;" x="70.17125" xlink:href="#m1bb686be50" y="376.654716"/>
      </g>
     </g>
     <g id="text_22">
      <!-- 0 -->
      <g transform="translate(56.80875 380.453935)scale(0.1 -0.1)">
       <use xlink:href="#DejaVuSans-48"/>
      </g>
     </g>
    </g>
    <g id="ytick_6">
     <g id="line2d_23">
      <g>
       <use style="stroke:#000000;stroke-width:0.8;" x="70.17125" xlink:href="#m1bb686be50" y="343.305843"/>
      </g>
     </g>
     <g id="text_23">
      <!-- 100 -->
      <g transform="translate(44.08375 347.105062)scale(0.1 -0.1)">
       <use xlink:href="#DejaVuSans-49"/>
       <use x="63.623047" xlink:href="#DejaVuSans-48"/>
       <use x="127.246094" xlink:href="#DejaVuSans-48"/>
      </g>
     </g>
    </g>
    <g id="ytick_7">
     <g id="line2d_24">
      <g>
       <use style="stroke:#000000;stroke-width:0.8;" x="70.17125" xlink:href="#m1bb686be50" y="309.95697"/>
      </g>
     </g>
     <g id="text_24">
      <!-- 200 -->
      <g transform="translate(44.08375 313.756188)scale(0.1 -0.1)">
       <use xlink:href="#DejaVuSans-50"/>
       <use x="63.623047" xlink:href="#DejaVuSans-48"/>
       <use x="127.246094" xlink:href="#DejaVuSans-48"/>
      </g>
     </g>
    </g>
    <g id="ytick_8">
     <g id="line2d_25">
      <g>
       <use style="stroke:#000000;stroke-width:0.8;" x="70.17125" xlink:href="#m1bb686be50" y="276.608096"/>
      </g>
     </g>
     <g id="text_25">
      <!-- 300 -->
      <g transform="translate(44.08375 280.407315)scale(0.1 -0.1)">
       <use xlink:href="#DejaVuSans-51"/>
       <use x="63.623047" xlink:href="#DejaVuSans-48"/>
       <use x="127.246094" xlink:href="#DejaVuSans-48"/>
      </g>
     </g>
    </g>
    <g id="text_26">
     <!-- daily_cases_(t+7) -->
     <g transform="translate(37.725937 360.767812)rotate(-90)scale(0.1 -0.1)">
      <use xlink:href="#DejaVuSans-100"/>
      <use x="63.476562" xlink:href="#DejaVuSans-97"/>
      <use x="124.755859" xlink:href="#DejaVuSans-105"/>
      <use x="152.539062" xlink:href="#DejaVuSans-108"/>
      <use x="180.322266" xlink:href="#DejaVuSans-121"/>
      <use x="239.501953" xlink:href="#DejaVuSans-95"/>
      <use x="289.501953" xlink:href="#DejaVuSans-99"/>
      <use x="344.482422" xlink:href="#DejaVuSans-97"/>
      <use x="405.761719" xlink:href="#DejaVuSans-115"/>
      <use x="457.861328" xlink:href="#DejaVuSans-101"/>
      <use x="519.384766" xlink:href="#DejaVuSans-115"/>
      <use x="571.484375" xlink:href="#DejaVuSans-95"/>
      <use x="621.484375" xlink:href="#DejaVuSans-40"/>
      <use x="660.498047" xlink:href="#DejaVuSans-116"/>
      <use x="699.707031" xlink:href="#DejaVuSans-43"/>
      <use x="783.496094" xlink:href="#DejaVuSans-55"/>
      <use x="847.119141" xlink:href="#DejaVuSans-41"/>
     </g>
    </g>
   </g>
   <g id="line2d_26">
    <path clip-path="url(#pe8abf56dd3)" d="M 111.436193 368.317498 
L 127.618524 367.650521 
L 143.800855 362.314701 
L 159.983185 365.983077 
L 176.165516 360.313768 
L 192.347846 362.314701 
L 208.530177 370.31843 
L 224.712508 365.316099 
L 240.894838 364.315633 
L 257.077169 365.983077 
L 273.2595 359.313302 
L 289.44183 368.984476 
L 305.624161 363.982145 
L 321.806492 365.649588 
L 337.988822 367.317032 
L 354.171153 373.653318 
L 370.353484 367.650521 
L 386.535814 365.983077 
L 402.718145 370.651919 
L 418.900476 368.650987 
L 435.082806 368.317498 
L 451.265137 374.987273 
L 467.447468 365.316099 
L 483.629798 366.316566 
L 499.812129 367.984009 
L 515.99446 365.983077 
L 532.17679 354.310971 
L 548.359121 360.980746 
L 564.541452 344.973287 
L 580.723782 353.977483 
L 596.906113 342.972354 
L 613.088444 362.981678 
L 629.270774 346.64073 
L 645.453105 341.971888 
L 661.635436 342.638866 
L 677.817766 350.976084 
L 694.000097 340.304444 
L 710.182428 329.632805 
L 726.364758 337.303046 
L 742.547089 323.963497 
L 758.72942 307.622549 
L 774.91175 296.61742 
L 791.094081 333.63467 
L 807.276412 308.623015 
L 823.458742 287.613225 
L 839.641073 301.619751 
L 855.823404 303.620684 
L 872.005734 257.932727 
L 888.188065 304.287661 
L 904.370395 325.63094 
L 920.552726 299.28533 
L 936.735057 296.283932 
" style="fill:none;stroke:#0000ff;stroke-linecap:square;stroke-width:1.5;"/>
   </g>
   <g id="line2d_27">
    <path clip-path="url(#pe8abf56dd3)" d="M 111.436193 355.044646 
L 127.618524 359.613442 
L 143.800855 361.547677 
L 159.983185 361.547677 
L 176.165516 361.547677 
L 192.347846 362.248003 
L 208.530177 362.248003 
L 224.712508 365.149355 
L 240.894838 362.714887 
L 257.077169 362.248003 
L 273.2595 362.248003 
L 289.44183 362.248003 
L 305.624161 362.248003 
L 321.806492 365.58289 
L 337.988822 362.714887 
L 354.171153 362.714887 
L 370.353484 366.283217 
L 386.535814 362.248003 
L 402.718145 362.248003 
L 418.900476 362.248003 
L 435.082806 366.283217 
L 451.265137 362.714887 
L 467.447468 365.716286 
L 483.629798 362.248003 
L 499.812129 362.248003 
L 515.99446 366.283217 
L 532.17679 366.283217 
L 548.359121 362.248003 
L 564.541452 365.716286 
L 580.723782 362.948329 
L 596.906113 366.283217 
L 613.088444 362.248003 
L 629.270774 364.949262 
L 645.453105 360.447164 
L 661.635436 360.447164 
L 677.817766 356.445299 
L 694.000097 356.345253 
L 710.182428 352.710225 
L 726.364758 354.411018 
L 742.547089 353.610645 
L 758.72942 345.306775 
L 774.91175 347.774592 
L 791.094081 336.369277 
L 807.276412 332.634204 
L 823.458742 342.472121 
L 839.641073 344.039518 
L 855.823404 340.771329 
L 872.005734 332.43411 
L 888.188065 328.832432 
L 904.370395 328.732385 
L 920.552726 330.032991 
L 936.735057 326.397964 
" style="fill:none;stroke:#ff0000;stroke-linecap:square;stroke-width:1.5;"/>
   </g>
   <g id="patch_9">
    <path d="M 70.17125 380.84 
L 70.17125 252.08 
" style="fill:none;stroke:#000000;stroke-linecap:square;stroke-linejoin:miter;stroke-width:0.8;"/>
   </g>
   <g id="patch_10">
    <path d="M 978 380.84 
L 978 252.08 
" style="fill:none;stroke:#000000;stroke-linecap:square;stroke-linejoin:miter;stroke-width:0.8;"/>
   </g>
   <g id="patch_11">
    <path d="M 70.17125 380.84 
L 978 380.84 
" style="fill:none;stroke:#000000;stroke-linecap:square;stroke-linejoin:miter;stroke-width:0.8;"/>
   </g>
   <g id="patch_12">
    <path d="M 70.17125 252.08 
L 978 252.08 
" style="fill:none;stroke:#000000;stroke-linecap:square;stroke-linejoin:miter;stroke-width:0.8;"/>
   </g>
   <g id="text_27">
    <!-- Random Forest fit val -->
    <g transform="translate(460.094688 246.08)scale(0.12 -0.12)">
     <defs>
      <path d="M 2.984375 54.6875 
L 12.5 54.6875 
L 29.59375 8.796875 
L 46.6875 54.6875 
L 56.203125 54.6875 
L 35.6875 0 
L 23.484375 0 
z
" id="DejaVuSans-118"/>
     </defs>
     <use xlink:href="#DejaVuSans-82"/>
     <use x="67.232422" xlink:href="#DejaVuSans-97"/>
     <use x="128.511719" xlink:href="#DejaVuSans-110"/>
     <use x="191.890625" xlink:href="#DejaVuSans-100"/>
     <use x="255.367188" xlink:href="#DejaVuSans-111"/>
     <use x="316.548828" xlink:href="#DejaVuSans-109"/>
     <use x="413.960938" xlink:href="#DejaVuSans-32"/>
     <use x="445.748047" xlink:href="#DejaVuSans-70"/>
     <use x="499.642578" xlink:href="#DejaVuSans-111"/>
     <use x="560.824219" xlink:href="#DejaVuSans-114"/>
     <use x="599.6875" xlink:href="#DejaVuSans-101"/>
     <use x="661.210938" xlink:href="#DejaVuSans-115"/>
     <use x="713.310547" xlink:href="#DejaVuSans-116"/>
     <use x="752.519531" xlink:href="#DejaVuSans-32"/>
     <use x="784.306641" xlink:href="#DejaVuSans-102"/>
     <use x="819.511719" xlink:href="#DejaVuSans-105"/>
     <use x="847.294922" xlink:href="#DejaVuSans-116"/>
     <use x="886.503906" xlink:href="#DejaVuSans-32"/>
     <use x="918.291016" xlink:href="#DejaVuSans-118"/>
     <use x="977.470703" xlink:href="#DejaVuSans-97"/>
     <use x="1038.75" xlink:href="#DejaVuSans-108"/>
    </g>
   </g>
   <g id="legend_2">
    <g id="patch_13">
     <path d="M 77.17125 289.43625 
L 151.474375 289.43625 
Q 153.474375 289.43625 153.474375 287.43625 
L 153.474375 259.08 
Q 153.474375 257.08 151.474375 257.08 
L 77.17125 257.08 
Q 75.17125 257.08 75.17125 259.08 
L 75.17125 287.43625 
Q 75.17125 289.43625 77.17125 289.43625 
z
" style="fill:#ffffff;opacity:0.8;stroke:#cccccc;stroke-linejoin:miter;"/>
    </g>
    <g id="line2d_28">
     <path d="M 79.17125 265.178437 
L 99.17125 265.178437 
" style="fill:none;stroke:#0000ff;stroke-linecap:square;stroke-width:1.5;"/>
    </g>
    <g id="line2d_29"/>
    <g id="text_28">
     <!-- Data -->
     <g transform="translate(107.17125 268.678437)scale(0.1 -0.1)">
      <use xlink:href="#DejaVuSans-68"/>
      <use x="77.001953" xlink:href="#DejaVuSans-97"/>
      <use x="138.28125" xlink:href="#DejaVuSans-116"/>
      <use x="177.490234" xlink:href="#DejaVuSans-97"/>
     </g>
    </g>
    <g id="line2d_30">
     <path d="M 79.17125 279.856562 
L 99.17125 279.856562 
" style="fill:none;stroke:#ff0000;stroke-linecap:square;stroke-width:1.5;"/>
    </g>
    <g id="line2d_31"/>
    <g id="text_29">
     <!-- Forecast -->
     <g transform="translate(107.17125 283.356562)scale(0.1 -0.1)">
      <use xlink:href="#DejaVuSans-70"/>
      <use x="53.894531" xlink:href="#DejaVuSans-111"/>
      <use x="115.076172" xlink:href="#DejaVuSans-114"/>
      <use x="153.939453" xlink:href="#DejaVuSans-101"/>
      <use x="215.462891" xlink:href="#DejaVuSans-99"/>
      <use x="270.443359" xlink:href="#DejaVuSans-97"/>
      <use x="331.722656" xlink:href="#DejaVuSans-115"/>
      <use x="383.822266" xlink:href="#DejaVuSans-116"/>
     </g>
    </g>
   </g>
  </g>
  <g id="axes_3">
   <g id="patch_14">
    <path d="M 70.17125 586.84 
L 978 586.84 
L 978 458.08 
L 70.17125 458.08 
z
" style="fill:#ffffff;"/>
   </g>
   <g id="matplotlib.axis_5">
    <g id="xtick_12">
     <g id="line2d_32">
      <g>
       <use style="stroke:#000000;stroke-width:0.8;" x="111.436193" xlink:href="#mc9386efa64" y="586.84"/>
      </g>
     </g>
     <g id="text_30">
      <!-- 2021/07/06 -->
      <g transform="translate(82.617443 601.438437)scale(0.1 -0.1)">
       <use xlink:href="#DejaVuSans-50"/>
       <use x="63.623047" xlink:href="#DejaVuSans-48"/>
       <use x="127.246094" xlink:href="#DejaVuSans-50"/>
       <use x="190.869141" xlink:href="#DejaVuSans-49"/>
       <use x="254.492188" xlink:href="#DejaVuSans-47"/>
       <use x="288.183594" xlink:href="#DejaVuSans-48"/>
       <use x="351.806641" xlink:href="#DejaVuSans-55"/>
       <use x="415.429688" xlink:href="#DejaVuSans-47"/>
       <use x="449.121094" xlink:href="#DejaVuSans-48"/>
       <use x="512.744141" xlink:href="#DejaVuSans-54"/>
      </g>
     </g>
    </g>
    <g id="xtick_13">
     <g id="line2d_33">
      <g>
       <use style="stroke:#000000;stroke-width:0.8;" x="276.495966" xlink:href="#mc9386efa64" y="586.84"/>
      </g>
     </g>
     <g id="text_31">
      <!-- 2021/07/11 -->
      <g transform="translate(247.677216 601.438437)scale(0.1 -0.1)">
       <use xlink:href="#DejaVuSans-50"/>
       <use x="63.623047" xlink:href="#DejaVuSans-48"/>
       <use x="127.246094" xlink:href="#DejaVuSans-50"/>
       <use x="190.869141" xlink:href="#DejaVuSans-49"/>
       <use x="254.492188" xlink:href="#DejaVuSans-47"/>
       <use x="288.183594" xlink:href="#DejaVuSans-48"/>
       <use x="351.806641" xlink:href="#DejaVuSans-55"/>
       <use x="415.429688" xlink:href="#DejaVuSans-47"/>
       <use x="449.121094" xlink:href="#DejaVuSans-49"/>
       <use x="512.744141" xlink:href="#DejaVuSans-49"/>
      </g>
     </g>
    </g>
    <g id="xtick_14">
     <g id="line2d_34">
      <g>
       <use style="stroke:#000000;stroke-width:0.8;" x="441.555739" xlink:href="#mc9386efa64" y="586.84"/>
      </g>
     </g>
     <g id="text_32">
      <!-- 2021/07/16 -->
      <g transform="translate(412.736989 601.438437)scale(0.1 -0.1)">
       <use xlink:href="#DejaVuSans-50"/>
       <use x="63.623047" xlink:href="#DejaVuSans-48"/>
       <use x="127.246094" xlink:href="#DejaVuSans-50"/>
       <use x="190.869141" xlink:href="#DejaVuSans-49"/>
       <use x="254.492188" xlink:href="#DejaVuSans-47"/>
       <use x="288.183594" xlink:href="#DejaVuSans-48"/>
       <use x="351.806641" xlink:href="#DejaVuSans-55"/>
       <use x="415.429688" xlink:href="#DejaVuSans-47"/>
       <use x="449.121094" xlink:href="#DejaVuSans-49"/>
       <use x="512.744141" xlink:href="#DejaVuSans-54"/>
      </g>
     </g>
    </g>
    <g id="xtick_15">
     <g id="line2d_35">
      <g>
       <use style="stroke:#000000;stroke-width:0.8;" x="606.615511" xlink:href="#mc9386efa64" y="586.84"/>
      </g>
     </g>
     <g id="text_33">
      <!-- 2021/07/21 -->
      <g transform="translate(577.796761 601.438437)scale(0.1 -0.1)">
       <use xlink:href="#DejaVuSans-50"/>
       <use x="63.623047" xlink:href="#DejaVuSans-48"/>
       <use x="127.246094" xlink:href="#DejaVuSans-50"/>
       <use x="190.869141" xlink:href="#DejaVuSans-49"/>
       <use x="254.492188" xlink:href="#DejaVuSans-47"/>
       <use x="288.183594" xlink:href="#DejaVuSans-48"/>
       <use x="351.806641" xlink:href="#DejaVuSans-55"/>
       <use x="415.429688" xlink:href="#DejaVuSans-47"/>
       <use x="449.121094" xlink:href="#DejaVuSans-50"/>
       <use x="512.744141" xlink:href="#DejaVuSans-49"/>
      </g>
     </g>
    </g>
    <g id="xtick_16">
     <g id="line2d_36">
      <g>
       <use style="stroke:#000000;stroke-width:0.8;" x="771.675284" xlink:href="#mc9386efa64" y="586.84"/>
      </g>
     </g>
     <g id="text_34">
      <!-- 2021/07/26 -->
      <g transform="translate(742.856534 601.438437)scale(0.1 -0.1)">
       <use xlink:href="#DejaVuSans-50"/>
       <use x="63.623047" xlink:href="#DejaVuSans-48"/>
       <use x="127.246094" xlink:href="#DejaVuSans-50"/>
       <use x="190.869141" xlink:href="#DejaVuSans-49"/>
       <use x="254.492188" xlink:href="#DejaVuSans-47"/>
       <use x="288.183594" xlink:href="#DejaVuSans-48"/>
       <use x="351.806641" xlink:href="#DejaVuSans-55"/>
       <use x="415.429688" xlink:href="#DejaVuSans-47"/>
       <use x="449.121094" xlink:href="#DejaVuSans-50"/>
       <use x="512.744141" xlink:href="#DejaVuSans-54"/>
      </g>
     </g>
    </g>
    <g id="xtick_17">
     <g id="line2d_37">
      <g>
       <use style="stroke:#000000;stroke-width:0.8;" x="936.735057" xlink:href="#mc9386efa64" y="586.84"/>
      </g>
     </g>
     <g id="text_35">
      <!-- 2021/07/31 -->
      <g transform="translate(907.916307 601.438437)scale(0.1 -0.1)">
       <use xlink:href="#DejaVuSans-50"/>
       <use x="63.623047" xlink:href="#DejaVuSans-48"/>
       <use x="127.246094" xlink:href="#DejaVuSans-50"/>
       <use x="190.869141" xlink:href="#DejaVuSans-49"/>
       <use x="254.492188" xlink:href="#DejaVuSans-47"/>
       <use x="288.183594" xlink:href="#DejaVuSans-48"/>
       <use x="351.806641" xlink:href="#DejaVuSans-55"/>
       <use x="415.429688" xlink:href="#DejaVuSans-47"/>
       <use x="449.121094" xlink:href="#DejaVuSans-51"/>
       <use x="512.744141" xlink:href="#DejaVuSans-49"/>
      </g>
     </g>
    </g>
    <g id="text_36">
     <!-- Time, t [days] -->
     <g transform="translate(489.420781 615.116562)scale(0.1 -0.1)">
      <use xlink:href="#DejaVuSans-84"/>
      <use x="57.958984" xlink:href="#DejaVuSans-105"/>
      <use x="85.742188" xlink:href="#DejaVuSans-109"/>
      <use x="183.154297" xlink:href="#DejaVuSans-101"/>
      <use x="244.677734" xlink:href="#DejaVuSans-44"/>
      <use x="276.464844" xlink:href="#DejaVuSans-32"/>
      <use x="308.251953" xlink:href="#DejaVuSans-116"/>
      <use x="347.460938" xlink:href="#DejaVuSans-32"/>
      <use x="379.248047" xlink:href="#DejaVuSans-91"/>
      <use x="418.261719" xlink:href="#DejaVuSans-100"/>
      <use x="481.738281" xlink:href="#DejaVuSans-97"/>
      <use x="543.017578" xlink:href="#DejaVuSans-121"/>
      <use x="602.197266" xlink:href="#DejaVuSans-115"/>
      <use x="654.296875" xlink:href="#DejaVuSans-93"/>
     </g>
    </g>
   </g>
   <g id="matplotlib.axis_6">
    <g id="ytick_9">
     <g id="line2d_38">
      <g>
       <use style="stroke:#000000;stroke-width:0.8;" x="70.17125" xlink:href="#m1bb686be50" y="575.117281"/>
      </g>
     </g>
     <g id="text_37">
      <!-- 100 -->
      <g transform="translate(44.08375 578.9165)scale(0.1 -0.1)">
       <use xlink:href="#DejaVuSans-49"/>
       <use x="63.623047" xlink:href="#DejaVuSans-48"/>
       <use x="127.246094" xlink:href="#DejaVuSans-48"/>
      </g>
     </g>
    </g>
    <g id="ytick_10">
     <g id="line2d_39">
      <g>
       <use style="stroke:#000000;stroke-width:0.8;" x="70.17125" xlink:href="#m1bb686be50" y="540.587916"/>
      </g>
     </g>
     <g id="text_38">
      <!-- 200 -->
      <g transform="translate(44.08375 544.387135)scale(0.1 -0.1)">
       <use xlink:href="#DejaVuSans-50"/>
       <use x="63.623047" xlink:href="#DejaVuSans-48"/>
       <use x="127.246094" xlink:href="#DejaVuSans-48"/>
      </g>
     </g>
    </g>
    <g id="ytick_11">
     <g id="line2d_40">
      <g>
       <use style="stroke:#000000;stroke-width:0.8;" x="70.17125" xlink:href="#m1bb686be50" y="506.058552"/>
      </g>
     </g>
     <g id="text_39">
      <!-- 300 -->
      <g transform="translate(44.08375 509.857771)scale(0.1 -0.1)">
       <use xlink:href="#DejaVuSans-51"/>
       <use x="63.623047" xlink:href="#DejaVuSans-48"/>
       <use x="127.246094" xlink:href="#DejaVuSans-48"/>
      </g>
     </g>
    </g>
    <g id="ytick_12">
     <g id="line2d_41">
      <g>
       <use style="stroke:#000000;stroke-width:0.8;" x="70.17125" xlink:href="#m1bb686be50" y="471.529187"/>
      </g>
     </g>
     <g id="text_40">
      <!-- 400 -->
      <g transform="translate(44.08375 475.328406)scale(0.1 -0.1)">
       <use xlink:href="#DejaVuSans-52"/>
       <use x="63.623047" xlink:href="#DejaVuSans-48"/>
       <use x="127.246094" xlink:href="#DejaVuSans-48"/>
      </g>
     </g>
    </g>
    <g id="text_41">
     <!-- daily_cases_(t+7) -->
     <g transform="translate(37.725937 566.767812)rotate(-90)scale(0.1 -0.1)">
      <use xlink:href="#DejaVuSans-100"/>
      <use x="63.476562" xlink:href="#DejaVuSans-97"/>
      <use x="124.755859" xlink:href="#DejaVuSans-105"/>
      <use x="152.539062" xlink:href="#DejaVuSans-108"/>
      <use x="180.322266" xlink:href="#DejaVuSans-121"/>
      <use x="239.501953" xlink:href="#DejaVuSans-95"/>
      <use x="289.501953" xlink:href="#DejaVuSans-99"/>
      <use x="344.482422" xlink:href="#DejaVuSans-97"/>
      <use x="405.761719" xlink:href="#DejaVuSans-115"/>
      <use x="457.861328" xlink:href="#DejaVuSans-101"/>
      <use x="519.384766" xlink:href="#DejaVuSans-115"/>
      <use x="571.484375" xlink:href="#DejaVuSans-95"/>
      <use x="621.484375" xlink:href="#DejaVuSans-40"/>
      <use x="660.498047" xlink:href="#DejaVuSans-116"/>
      <use x="699.707031" xlink:href="#DejaVuSans-43"/>
      <use x="783.496094" xlink:href="#DejaVuSans-55"/>
      <use x="847.119141" xlink:href="#DejaVuSans-41"/>
     </g>
    </g>
   </g>
   <g id="line2d_42">
    <path clip-path="url(#p46fc48d22b)" d="M 111.436193 532.646163 
L 144.448148 491.210925 
L 177.460102 522.632647 
L 210.472057 519.525004 
L 243.484011 518.489123 
L 276.495966 523.323234 
L 309.50792 505.713258 
L 342.519875 509.856782 
L 375.53183 511.58325 
L 408.543784 463.932727 
L 441.555739 524.013821 
L 474.567693 474.291537 
L 507.579648 508.475607 
L 540.591602 548.874964 
L 573.603557 490.865632 
L 606.615511 537.13498 
L 639.627466 520.906179 
L 672.63942 530.574401 
L 705.651375 543.695559 
L 738.66333 558.888479 
L 771.675284 540.587916 
L 804.687239 531.610282 
L 837.699193 546.803202 
L 870.711148 499.497973 
L 903.723102 546.457908 
L 936.735057 580.987273 
" style="fill:none;stroke:#0000ff;stroke-linecap:square;stroke-width:1.5;"/>
   </g>
   <g id="line2d_43">
    <path clip-path="url(#p46fc48d22b)" d="M 111.436193 557.162011 
L 144.448148 557.162011 
L 177.460102 557.092953 
L 210.472057 557.092953 
L 243.484011 566.588528 
L 276.495966 558.33601 
L 309.50792 557.092953 
L 342.519875 557.092953 
L 375.53183 557.092953 
L 408.543784 557.092953 
L 441.555739 557.092953 
L 474.567693 566.588528 
L 507.579648 566.588528 
L 540.591602 557.092953 
L 573.603557 557.092953 
L 606.615511 557.092953 
L 639.627466 557.092953 
L 672.63942 558.33601 
L 705.651375 559.579067 
L 738.66333 566.588528 
L 771.675284 566.588528 
L 804.687239 558.33601 
L 837.699193 566.588528 
L 870.711148 558.33601 
L 903.723102 561.788946 
L 936.735057 566.588528 
" style="fill:none;stroke:#ff0000;stroke-linecap:square;stroke-width:1.5;"/>
   </g>
   <g id="patch_15">
    <path d="M 70.17125 586.84 
L 70.17125 458.08 
" style="fill:none;stroke:#000000;stroke-linecap:square;stroke-linejoin:miter;stroke-width:0.8;"/>
   </g>
   <g id="patch_16">
    <path d="M 978 586.84 
L 978 458.08 
" style="fill:none;stroke:#000000;stroke-linecap:square;stroke-linejoin:miter;stroke-width:0.8;"/>
   </g>
   <g id="patch_17">
    <path d="M 70.17125 586.84 
L 978 586.84 
" style="fill:none;stroke:#000000;stroke-linecap:square;stroke-linejoin:miter;stroke-width:0.8;"/>
   </g>
   <g id="patch_18">
    <path d="M 70.17125 458.08 
L 978 458.08 
" style="fill:none;stroke:#000000;stroke-linecap:square;stroke-linejoin:miter;stroke-width:0.8;"/>
   </g>
   <g id="text_42">
    <!-- Random Forest fit test -->
    <g transform="translate(457.467813 452.08)scale(0.12 -0.12)">
     <use xlink:href="#DejaVuSans-82"/>
     <use x="67.232422" xlink:href="#DejaVuSans-97"/>
     <use x="128.511719" xlink:href="#DejaVuSans-110"/>
     <use x="191.890625" xlink:href="#DejaVuSans-100"/>
     <use x="255.367188" xlink:href="#DejaVuSans-111"/>
     <use x="316.548828" xlink:href="#DejaVuSans-109"/>
     <use x="413.960938" xlink:href="#DejaVuSans-32"/>
     <use x="445.748047" xlink:href="#DejaVuSans-70"/>
     <use x="499.642578" xlink:href="#DejaVuSans-111"/>
     <use x="560.824219" xlink:href="#DejaVuSans-114"/>
     <use x="599.6875" xlink:href="#DejaVuSans-101"/>
     <use x="661.210938" xlink:href="#DejaVuSans-115"/>
     <use x="713.310547" xlink:href="#DejaVuSans-116"/>
     <use x="752.519531" xlink:href="#DejaVuSans-32"/>
     <use x="784.306641" xlink:href="#DejaVuSans-102"/>
     <use x="819.511719" xlink:href="#DejaVuSans-105"/>
     <use x="847.294922" xlink:href="#DejaVuSans-116"/>
     <use x="886.503906" xlink:href="#DejaVuSans-32"/>
     <use x="918.291016" xlink:href="#DejaVuSans-116"/>
     <use x="957.5" xlink:href="#DejaVuSans-101"/>
     <use x="1019.023438" xlink:href="#DejaVuSans-115"/>
     <use x="1071.123047" xlink:href="#DejaVuSans-116"/>
    </g>
   </g>
   <g id="legend_3">
    <g id="patch_19">
     <path d="M 77.17125 495.43625 
L 151.474375 495.43625 
Q 153.474375 495.43625 153.474375 493.43625 
L 153.474375 465.08 
Q 153.474375 463.08 151.474375 463.08 
L 77.17125 463.08 
Q 75.17125 463.08 75.17125 465.08 
L 75.17125 493.43625 
Q 75.17125 495.43625 77.17125 495.43625 
z
" style="fill:#ffffff;opacity:0.8;stroke:#cccccc;stroke-linejoin:miter;"/>
    </g>
    <g id="line2d_44">
     <path d="M 79.17125 471.178437 
L 99.17125 471.178437 
" style="fill:none;stroke:#0000ff;stroke-linecap:square;stroke-width:1.5;"/>
    </g>
    <g id="line2d_45"/>
    <g id="text_43">
     <!-- Data -->
     <g transform="translate(107.17125 474.678437)scale(0.1 -0.1)">
      <use xlink:href="#DejaVuSans-68"/>
      <use x="77.001953" xlink:href="#DejaVuSans-97"/>
      <use x="138.28125" xlink:href="#DejaVuSans-116"/>
      <use x="177.490234" xlink:href="#DejaVuSans-97"/>
     </g>
    </g>
    <g id="line2d_46">
     <path d="M 79.17125 485.856562 
L 99.17125 485.856562 
" style="fill:none;stroke:#ff0000;stroke-linecap:square;stroke-width:1.5;"/>
    </g>
    <g id="line2d_47"/>
    <g id="text_44">
     <!-- Forecast -->
     <g transform="translate(107.17125 489.356562)scale(0.1 -0.1)">
      <use xlink:href="#DejaVuSans-70"/>
      <use x="53.894531" xlink:href="#DejaVuSans-111"/>
      <use x="115.076172" xlink:href="#DejaVuSans-114"/>
      <use x="153.939453" xlink:href="#DejaVuSans-101"/>
      <use x="215.462891" xlink:href="#DejaVuSans-99"/>
      <use x="270.443359" xlink:href="#DejaVuSans-97"/>
      <use x="331.722656" xlink:href="#DejaVuSans-115"/>
      <use x="383.822266" xlink:href="#DejaVuSans-116"/>
     </g>
    </g>
   </g>
  </g>
 </g>
 <defs>
  <clipPath id="pbff4314d9b">
   <rect height="128.76" width="907.82875" x="70.17125" y="46.08"/>
  </clipPath>
  <clipPath id="pe8abf56dd3">
   <rect height="128.76" width="907.82875" x="70.17125" y="252.08"/>
  </clipPath>
  <clipPath id="p46fc48d22b">
   <rect height="128.76" width="907.82875" x="70.17125" y="458.08"/>
  </clipPath>
 </defs>
</svg>
