<?xml version="1.0" encoding="utf-8" standalone="no"?>
<!DOCTYPE svg PUBLIC "-//W3C//DTD SVG 1.1//EN"
  "http://www.w3.org/Graphics/SVG/1.1/DTD/svg11.dtd">
<!-- Created with matplotlib (https://matplotlib.org/) -->
<svg height="1080pt" version="1.1" viewBox="0 0 1008 1080" width="1008pt" xmlns="http://www.w3.org/2000/svg" xmlns:xlink="http://www.w3.org/1999/xlink">
 <metadata>
  <rdf:RDF xmlns:cc="http://creativecommons.org/ns#" xmlns:dc="http://purl.org/dc/elements/1.1/" xmlns:rdf="http://www.w3.org/1999/02/22-rdf-syntax-ns#">
   <cc:Work>
    <dc:type rdf:resource="http://purl.org/dc/dcmitype/StillImage"/>
    <dc:date>2021-09-20T05:01:49.497184</dc:date>
    <dc:format>image/svg+xml</dc:format>
    <dc:creator>
     <cc:Agent>
      <dc:title>Matplotlib v3.3.3, https://matplotlib.org/</dc:title>
     </cc:Agent>
    </dc:creator>
   </cc:Work>
  </rdf:RDF>
 </metadata>
 <defs>
  <style type="text/css">*{stroke-linecap:butt;stroke-linejoin:round;}</style>
 </defs>
 <g id="figure_1">
  <g id="patch_1">
   <path d="M 0 1080 
L 1008 1080 
L 1008 0 
L 0 0 
z
" style="fill:none;"/>
  </g>
  <g id="axes_1">
   <g id="patch_2">
    <path d="M 126 369.423529 
L 907.2 369.423529 
L 907.2 129.6 
L 126 129.6 
z
" style="fill:#ffffff;"/>
   </g>
   <g id="matplotlib.axis_1">
    <g id="xtick_1">
     <g id="line2d_1">
      <defs>
       <path d="M 0 0 
L 0 3.5 
" id="mee9fb89843" style="stroke:#000000;stroke-width:0.8;"/>
      </defs>
      <g>
       <use style="stroke:#000000;stroke-width:0.8;" x="238.983471" xlink:href="#mee9fb89843" y="369.423529"/>
      </g>
     </g>
     <g id="text_1">
      <!-- 2021-07-01 -->
      <g transform="translate(209.925659 384.021967)scale(0.1 -0.1)">
       <defs>
        <path d="M 19.1875 8.296875 
L 53.609375 8.296875 
L 53.609375 0 
L 7.328125 0 
L 7.328125 8.296875 
Q 12.9375 14.109375 22.625 23.890625 
Q 32.328125 33.6875 34.8125 36.53125 
Q 39.546875 41.84375 41.421875 45.53125 
Q 43.3125 49.21875 43.3125 52.78125 
Q 43.3125 58.59375 39.234375 62.25 
Q 35.15625 65.921875 28.609375 65.921875 
Q 23.96875 65.921875 18.8125 64.3125 
Q 13.671875 62.703125 7.8125 59.421875 
L 7.8125 69.390625 
Q 13.765625 71.78125 18.9375 73 
Q 24.125 74.21875 28.421875 74.21875 
Q 39.75 74.21875 46.484375 68.546875 
Q 53.21875 62.890625 53.21875 53.421875 
Q 53.21875 48.921875 51.53125 44.890625 
Q 49.859375 40.875 45.40625 35.40625 
Q 44.1875 33.984375 37.640625 27.21875 
Q 31.109375 20.453125 19.1875 8.296875 
z
" id="DejaVuSans-50"/>
        <path d="M 31.78125 66.40625 
Q 24.171875 66.40625 20.328125 58.90625 
Q 16.5 51.421875 16.5 36.375 
Q 16.5 21.390625 20.328125 13.890625 
Q 24.171875 6.390625 31.78125 6.390625 
Q 39.453125 6.390625 43.28125 13.890625 
Q 47.125 21.390625 47.125 36.375 
Q 47.125 51.421875 43.28125 58.90625 
Q 39.453125 66.40625 31.78125 66.40625 
z
M 31.78125 74.21875 
Q 44.046875 74.21875 50.515625 64.515625 
Q 56.984375 54.828125 56.984375 36.375 
Q 56.984375 17.96875 50.515625 8.265625 
Q 44.046875 -1.421875 31.78125 -1.421875 
Q 19.53125 -1.421875 13.0625 8.265625 
Q 6.59375 17.96875 6.59375 36.375 
Q 6.59375 54.828125 13.0625 64.515625 
Q 19.53125 74.21875 31.78125 74.21875 
z
" id="DejaVuSans-48"/>
        <path d="M 12.40625 8.296875 
L 28.515625 8.296875 
L 28.515625 63.921875 
L 10.984375 60.40625 
L 10.984375 69.390625 
L 28.421875 72.90625 
L 38.28125 72.90625 
L 38.28125 8.296875 
L 54.390625 8.296875 
L 54.390625 0 
L 12.40625 0 
z
" id="DejaVuSans-49"/>
        <path d="M 4.890625 31.390625 
L 31.203125 31.390625 
L 31.203125 23.390625 
L 4.890625 23.390625 
z
" id="DejaVuSans-45"/>
        <path d="M 8.203125 72.90625 
L 55.078125 72.90625 
L 55.078125 68.703125 
L 28.609375 0 
L 18.3125 0 
L 43.21875 64.59375 
L 8.203125 64.59375 
z
" id="DejaVuSans-55"/>
       </defs>
       <use xlink:href="#DejaVuSans-50"/>
       <use x="63.623047" xlink:href="#DejaVuSans-48"/>
       <use x="127.246094" xlink:href="#DejaVuSans-50"/>
       <use x="190.869141" xlink:href="#DejaVuSans-49"/>
       <use x="254.492188" xlink:href="#DejaVuSans-45"/>
       <use x="290.576172" xlink:href="#DejaVuSans-48"/>
       <use x="354.199219" xlink:href="#DejaVuSans-55"/>
       <use x="417.822266" xlink:href="#DejaVuSans-45"/>
       <use x="453.90625" xlink:href="#DejaVuSans-48"/>
       <use x="517.529297" xlink:href="#DejaVuSans-49"/>
      </g>
     </g>
    </g>
    <g id="xtick_2">
     <g id="line2d_2">
      <g>
       <use style="stroke:#000000;stroke-width:0.8;" x="329.370248" xlink:href="#mee9fb89843" y="369.423529"/>
      </g>
     </g>
     <g id="text_2">
      <!-- 2021-07-08 -->
      <g transform="translate(300.312435 384.021967)scale(0.1 -0.1)">
       <defs>
        <path d="M 31.78125 34.625 
Q 24.75 34.625 20.71875 30.859375 
Q 16.703125 27.09375 16.703125 20.515625 
Q 16.703125 13.921875 20.71875 10.15625 
Q 24.75 6.390625 31.78125 6.390625 
Q 38.8125 6.390625 42.859375 10.171875 
Q 46.921875 13.96875 46.921875 20.515625 
Q 46.921875 27.09375 42.890625 30.859375 
Q 38.875 34.625 31.78125 34.625 
z
M 21.921875 38.8125 
Q 15.578125 40.375 12.03125 44.71875 
Q 8.5 49.078125 8.5 55.328125 
Q 8.5 64.0625 14.71875 69.140625 
Q 20.953125 74.21875 31.78125 74.21875 
Q 42.671875 74.21875 48.875 69.140625 
Q 55.078125 64.0625 55.078125 55.328125 
Q 55.078125 49.078125 51.53125 44.71875 
Q 48 40.375 41.703125 38.8125 
Q 48.828125 37.15625 52.796875 32.3125 
Q 56.78125 27.484375 56.78125 20.515625 
Q 56.78125 9.90625 50.3125 4.234375 
Q 43.84375 -1.421875 31.78125 -1.421875 
Q 19.734375 -1.421875 13.25 4.234375 
Q 6.78125 9.90625 6.78125 20.515625 
Q 6.78125 27.484375 10.78125 32.3125 
Q 14.796875 37.15625 21.921875 38.8125 
z
M 18.3125 54.390625 
Q 18.3125 48.734375 21.84375 45.5625 
Q 25.390625 42.390625 31.78125 42.390625 
Q 38.140625 42.390625 41.71875 45.5625 
Q 45.3125 48.734375 45.3125 54.390625 
Q 45.3125 60.0625 41.71875 63.234375 
Q 38.140625 66.40625 31.78125 66.40625 
Q 25.390625 66.40625 21.84375 63.234375 
Q 18.3125 60.0625 18.3125 54.390625 
z
" id="DejaVuSans-56"/>
       </defs>
       <use xlink:href="#DejaVuSans-50"/>
       <use x="63.623047" xlink:href="#DejaVuSans-48"/>
       <use x="127.246094" xlink:href="#DejaVuSans-50"/>
       <use x="190.869141" xlink:href="#DejaVuSans-49"/>
       <use x="254.492188" xlink:href="#DejaVuSans-45"/>
       <use x="290.576172" xlink:href="#DejaVuSans-48"/>
       <use x="354.199219" xlink:href="#DejaVuSans-55"/>
       <use x="417.822266" xlink:href="#DejaVuSans-45"/>
       <use x="453.90625" xlink:href="#DejaVuSans-48"/>
       <use x="517.529297" xlink:href="#DejaVuSans-56"/>
      </g>
     </g>
    </g>
    <g id="xtick_3">
     <g id="line2d_3">
      <g>
       <use style="stroke:#000000;stroke-width:0.8;" x="419.757025" xlink:href="#mee9fb89843" y="369.423529"/>
      </g>
     </g>
     <g id="text_3">
      <!-- 2021-07-15 -->
      <g transform="translate(390.699212 384.021967)scale(0.1 -0.1)">
       <defs>
        <path d="M 10.796875 72.90625 
L 49.515625 72.90625 
L 49.515625 64.59375 
L 19.828125 64.59375 
L 19.828125 46.734375 
Q 21.96875 47.46875 24.109375 47.828125 
Q 26.265625 48.1875 28.421875 48.1875 
Q 40.625 48.1875 47.75 41.5 
Q 54.890625 34.8125 54.890625 23.390625 
Q 54.890625 11.625 47.5625 5.09375 
Q 40.234375 -1.421875 26.90625 -1.421875 
Q 22.3125 -1.421875 17.546875 -0.640625 
Q 12.796875 0.140625 7.71875 1.703125 
L 7.71875 11.625 
Q 12.109375 9.234375 16.796875 8.0625 
Q 21.484375 6.890625 26.703125 6.890625 
Q 35.15625 6.890625 40.078125 11.328125 
Q 45.015625 15.765625 45.015625 23.390625 
Q 45.015625 31 40.078125 35.4375 
Q 35.15625 39.890625 26.703125 39.890625 
Q 22.75 39.890625 18.8125 39.015625 
Q 14.890625 38.140625 10.796875 36.28125 
z
" id="DejaVuSans-53"/>
       </defs>
       <use xlink:href="#DejaVuSans-50"/>
       <use x="63.623047" xlink:href="#DejaVuSans-48"/>
       <use x="127.246094" xlink:href="#DejaVuSans-50"/>
       <use x="190.869141" xlink:href="#DejaVuSans-49"/>
       <use x="254.492188" xlink:href="#DejaVuSans-45"/>
       <use x="290.576172" xlink:href="#DejaVuSans-48"/>
       <use x="354.199219" xlink:href="#DejaVuSans-55"/>
       <use x="417.822266" xlink:href="#DejaVuSans-45"/>
       <use x="453.90625" xlink:href="#DejaVuSans-49"/>
       <use x="517.529297" xlink:href="#DejaVuSans-53"/>
      </g>
     </g>
    </g>
    <g id="xtick_4">
     <g id="line2d_4">
      <g>
       <use style="stroke:#000000;stroke-width:0.8;" x="510.143802" xlink:href="#mee9fb89843" y="369.423529"/>
      </g>
     </g>
     <g id="text_4">
      <!-- 2021-07-22 -->
      <g transform="translate(481.085989 384.021967)scale(0.1 -0.1)">
       <use xlink:href="#DejaVuSans-50"/>
       <use x="63.623047" xlink:href="#DejaVuSans-48"/>
       <use x="127.246094" xlink:href="#DejaVuSans-50"/>
       <use x="190.869141" xlink:href="#DejaVuSans-49"/>
       <use x="254.492188" xlink:href="#DejaVuSans-45"/>
       <use x="290.576172" xlink:href="#DejaVuSans-48"/>
       <use x="354.199219" xlink:href="#DejaVuSans-55"/>
       <use x="417.822266" xlink:href="#DejaVuSans-45"/>
       <use x="453.90625" xlink:href="#DejaVuSans-50"/>
       <use x="517.529297" xlink:href="#DejaVuSans-50"/>
      </g>
     </g>
    </g>
    <g id="xtick_5">
     <g id="line2d_5">
      <g>
       <use style="stroke:#000000;stroke-width:0.8;" x="639.267769" xlink:href="#mee9fb89843" y="369.423529"/>
      </g>
     </g>
     <g id="text_5">
      <!-- 2021-08-01 -->
      <g transform="translate(610.209956 384.021967)scale(0.1 -0.1)">
       <use xlink:href="#DejaVuSans-50"/>
       <use x="63.623047" xlink:href="#DejaVuSans-48"/>
       <use x="127.246094" xlink:href="#DejaVuSans-50"/>
       <use x="190.869141" xlink:href="#DejaVuSans-49"/>
       <use x="254.492188" xlink:href="#DejaVuSans-45"/>
       <use x="290.576172" xlink:href="#DejaVuSans-48"/>
       <use x="354.199219" xlink:href="#DejaVuSans-56"/>
       <use x="417.822266" xlink:href="#DejaVuSans-45"/>
       <use x="453.90625" xlink:href="#DejaVuSans-48"/>
       <use x="517.529297" xlink:href="#DejaVuSans-49"/>
      </g>
     </g>
    </g>
    <g id="xtick_6">
     <g id="line2d_6">
      <g>
       <use style="stroke:#000000;stroke-width:0.8;" x="729.654545" xlink:href="#mee9fb89843" y="369.423529"/>
      </g>
     </g>
     <g id="text_6">
      <!-- 2021-08-08 -->
      <g transform="translate(700.596733 384.021967)scale(0.1 -0.1)">
       <use xlink:href="#DejaVuSans-50"/>
       <use x="63.623047" xlink:href="#DejaVuSans-48"/>
       <use x="127.246094" xlink:href="#DejaVuSans-50"/>
       <use x="190.869141" xlink:href="#DejaVuSans-49"/>
       <use x="254.492188" xlink:href="#DejaVuSans-45"/>
       <use x="290.576172" xlink:href="#DejaVuSans-48"/>
       <use x="354.199219" xlink:href="#DejaVuSans-56"/>
       <use x="417.822266" xlink:href="#DejaVuSans-45"/>
       <use x="453.90625" xlink:href="#DejaVuSans-48"/>
       <use x="517.529297" xlink:href="#DejaVuSans-56"/>
      </g>
     </g>
    </g>
    <g id="xtick_7">
     <g id="line2d_7">
      <g>
       <use style="stroke:#000000;stroke-width:0.8;" x="820.041322" xlink:href="#mee9fb89843" y="369.423529"/>
      </g>
     </g>
     <g id="text_7">
      <!-- 2021-08-15 -->
      <g transform="translate(790.98351 384.021967)scale(0.1 -0.1)">
       <use xlink:href="#DejaVuSans-50"/>
       <use x="63.623047" xlink:href="#DejaVuSans-48"/>
       <use x="127.246094" xlink:href="#DejaVuSans-50"/>
       <use x="190.869141" xlink:href="#DejaVuSans-49"/>
       <use x="254.492188" xlink:href="#DejaVuSans-45"/>
       <use x="290.576172" xlink:href="#DejaVuSans-48"/>
       <use x="354.199219" xlink:href="#DejaVuSans-56"/>
       <use x="417.822266" xlink:href="#DejaVuSans-45"/>
       <use x="453.90625" xlink:href="#DejaVuSans-49"/>
       <use x="517.529297" xlink:href="#DejaVuSans-53"/>
      </g>
     </g>
    </g>
    <g id="text_8">
     <!-- Time, t [days] -->
     <g transform="translate(471.535703 399.979623)scale(0.13 -0.13)">
      <defs>
       <path d="M -0.296875 72.90625 
L 61.375 72.90625 
L 61.375 64.59375 
L 35.5 64.59375 
L 35.5 0 
L 25.59375 0 
L 25.59375 64.59375 
L -0.296875 64.59375 
z
" id="DejaVuSans-84"/>
       <path d="M 9.421875 54.6875 
L 18.40625 54.6875 
L 18.40625 0 
L 9.421875 0 
z
M 9.421875 75.984375 
L 18.40625 75.984375 
L 18.40625 64.59375 
L 9.421875 64.59375 
z
" id="DejaVuSans-105"/>
       <path d="M 52 44.1875 
Q 55.375 50.25 60.0625 53.125 
Q 64.75 56 71.09375 56 
Q 79.640625 56 84.28125 50.015625 
Q 88.921875 44.046875 88.921875 33.015625 
L 88.921875 0 
L 79.890625 0 
L 79.890625 32.71875 
Q 79.890625 40.578125 77.09375 44.375 
Q 74.3125 48.1875 68.609375 48.1875 
Q 61.625 48.1875 57.5625 43.546875 
Q 53.515625 38.921875 53.515625 30.90625 
L 53.515625 0 
L 44.484375 0 
L 44.484375 32.71875 
Q 44.484375 40.625 41.703125 44.40625 
Q 38.921875 48.1875 33.109375 48.1875 
Q 26.21875 48.1875 22.15625 43.53125 
Q 18.109375 38.875 18.109375 30.90625 
L 18.109375 0 
L 9.078125 0 
L 9.078125 54.6875 
L 18.109375 54.6875 
L 18.109375 46.1875 
Q 21.1875 51.21875 25.484375 53.609375 
Q 29.78125 56 35.6875 56 
Q 41.65625 56 45.828125 52.96875 
Q 50 49.953125 52 44.1875 
z
" id="DejaVuSans-109"/>
       <path d="M 56.203125 29.59375 
L 56.203125 25.203125 
L 14.890625 25.203125 
Q 15.484375 15.921875 20.484375 11.0625 
Q 25.484375 6.203125 34.421875 6.203125 
Q 39.59375 6.203125 44.453125 7.46875 
Q 49.3125 8.734375 54.109375 11.28125 
L 54.109375 2.78125 
Q 49.265625 0.734375 44.1875 -0.34375 
Q 39.109375 -1.421875 33.890625 -1.421875 
Q 20.796875 -1.421875 13.15625 6.1875 
Q 5.515625 13.8125 5.515625 26.8125 
Q 5.515625 40.234375 12.765625 48.109375 
Q 20.015625 56 32.328125 56 
Q 43.359375 56 49.78125 48.890625 
Q 56.203125 41.796875 56.203125 29.59375 
z
M 47.21875 32.234375 
Q 47.125 39.59375 43.09375 43.984375 
Q 39.0625 48.390625 32.421875 48.390625 
Q 24.90625 48.390625 20.390625 44.140625 
Q 15.875 39.890625 15.1875 32.171875 
z
" id="DejaVuSans-101"/>
       <path d="M 11.71875 12.40625 
L 22.015625 12.40625 
L 22.015625 4 
L 14.015625 -11.625 
L 7.71875 -11.625 
L 11.71875 4 
z
" id="DejaVuSans-44"/>
       <path id="DejaVuSans-32"/>
       <path d="M 18.3125 70.21875 
L 18.3125 54.6875 
L 36.8125 54.6875 
L 36.8125 47.703125 
L 18.3125 47.703125 
L 18.3125 18.015625 
Q 18.3125 11.328125 20.140625 9.421875 
Q 21.96875 7.515625 27.59375 7.515625 
L 36.8125 7.515625 
L 36.8125 0 
L 27.59375 0 
Q 17.1875 0 13.234375 3.875 
Q 9.28125 7.765625 9.28125 18.015625 
L 9.28125 47.703125 
L 2.6875 47.703125 
L 2.6875 54.6875 
L 9.28125 54.6875 
L 9.28125 70.21875 
z
" id="DejaVuSans-116"/>
       <path d="M 8.59375 75.984375 
L 29.296875 75.984375 
L 29.296875 69 
L 17.578125 69 
L 17.578125 -6.203125 
L 29.296875 -6.203125 
L 29.296875 -13.1875 
L 8.59375 -13.1875 
z
" id="DejaVuSans-91"/>
       <path d="M 45.40625 46.390625 
L 45.40625 75.984375 
L 54.390625 75.984375 
L 54.390625 0 
L 45.40625 0 
L 45.40625 8.203125 
Q 42.578125 3.328125 38.25 0.953125 
Q 33.9375 -1.421875 27.875 -1.421875 
Q 17.96875 -1.421875 11.734375 6.484375 
Q 5.515625 14.40625 5.515625 27.296875 
Q 5.515625 40.1875 11.734375 48.09375 
Q 17.96875 56 27.875 56 
Q 33.9375 56 38.25 53.625 
Q 42.578125 51.265625 45.40625 46.390625 
z
M 14.796875 27.296875 
Q 14.796875 17.390625 18.875 11.75 
Q 22.953125 6.109375 30.078125 6.109375 
Q 37.203125 6.109375 41.296875 11.75 
Q 45.40625 17.390625 45.40625 27.296875 
Q 45.40625 37.203125 41.296875 42.84375 
Q 37.203125 48.484375 30.078125 48.484375 
Q 22.953125 48.484375 18.875 42.84375 
Q 14.796875 37.203125 14.796875 27.296875 
z
" id="DejaVuSans-100"/>
       <path d="M 34.28125 27.484375 
Q 23.390625 27.484375 19.1875 25 
Q 14.984375 22.515625 14.984375 16.5 
Q 14.984375 11.71875 18.140625 8.90625 
Q 21.296875 6.109375 26.703125 6.109375 
Q 34.1875 6.109375 38.703125 11.40625 
Q 43.21875 16.703125 43.21875 25.484375 
L 43.21875 27.484375 
z
M 52.203125 31.203125 
L 52.203125 0 
L 43.21875 0 
L 43.21875 8.296875 
Q 40.140625 3.328125 35.546875 0.953125 
Q 30.953125 -1.421875 24.3125 -1.421875 
Q 15.921875 -1.421875 10.953125 3.296875 
Q 6 8.015625 6 15.921875 
Q 6 25.140625 12.171875 29.828125 
Q 18.359375 34.515625 30.609375 34.515625 
L 43.21875 34.515625 
L 43.21875 35.40625 
Q 43.21875 41.609375 39.140625 45 
Q 35.0625 48.390625 27.6875 48.390625 
Q 23 48.390625 18.546875 47.265625 
Q 14.109375 46.140625 10.015625 43.890625 
L 10.015625 52.203125 
Q 14.9375 54.109375 19.578125 55.046875 
Q 24.21875 56 28.609375 56 
Q 40.484375 56 46.34375 49.84375 
Q 52.203125 43.703125 52.203125 31.203125 
z
" id="DejaVuSans-97"/>
       <path d="M 32.171875 -5.078125 
Q 28.375 -14.84375 24.75 -17.8125 
Q 21.140625 -20.796875 15.09375 -20.796875 
L 7.90625 -20.796875 
L 7.90625 -13.28125 
L 13.1875 -13.28125 
Q 16.890625 -13.28125 18.9375 -11.515625 
Q 21 -9.765625 23.484375 -3.21875 
L 25.09375 0.875 
L 2.984375 54.6875 
L 12.5 54.6875 
L 29.59375 11.921875 
L 46.6875 54.6875 
L 56.203125 54.6875 
z
" id="DejaVuSans-121"/>
       <path d="M 44.28125 53.078125 
L 44.28125 44.578125 
Q 40.484375 46.53125 36.375 47.5 
Q 32.28125 48.484375 27.875 48.484375 
Q 21.1875 48.484375 17.84375 46.4375 
Q 14.5 44.390625 14.5 40.28125 
Q 14.5 37.15625 16.890625 35.375 
Q 19.28125 33.59375 26.515625 31.984375 
L 29.59375 31.296875 
Q 39.15625 29.25 43.1875 25.515625 
Q 47.21875 21.78125 47.21875 15.09375 
Q 47.21875 7.46875 41.1875 3.015625 
Q 35.15625 -1.421875 24.609375 -1.421875 
Q 20.21875 -1.421875 15.453125 -0.5625 
Q 10.6875 0.296875 5.421875 2 
L 5.421875 11.28125 
Q 10.40625 8.6875 15.234375 7.390625 
Q 20.0625 6.109375 24.8125 6.109375 
Q 31.15625 6.109375 34.5625 8.28125 
Q 37.984375 10.453125 37.984375 14.40625 
Q 37.984375 18.0625 35.515625 20.015625 
Q 33.0625 21.96875 24.703125 23.78125 
L 21.578125 24.515625 
Q 13.234375 26.265625 9.515625 29.90625 
Q 5.8125 33.546875 5.8125 39.890625 
Q 5.8125 47.609375 11.28125 51.796875 
Q 16.75 56 26.8125 56 
Q 31.78125 56 36.171875 55.265625 
Q 40.578125 54.546875 44.28125 53.078125 
z
" id="DejaVuSans-115"/>
       <path d="M 30.421875 75.984375 
L 30.421875 -13.1875 
L 9.71875 -13.1875 
L 9.71875 -6.203125 
L 21.390625 -6.203125 
L 21.390625 69 
L 9.71875 69 
L 9.71875 75.984375 
z
" id="DejaVuSans-93"/>
      </defs>
      <use xlink:href="#DejaVuSans-84"/>
      <use x="57.958984" xlink:href="#DejaVuSans-105"/>
      <use x="85.742188" xlink:href="#DejaVuSans-109"/>
      <use x="183.154297" xlink:href="#DejaVuSans-101"/>
      <use x="244.677734" xlink:href="#DejaVuSans-44"/>
      <use x="276.464844" xlink:href="#DejaVuSans-32"/>
      <use x="308.251953" xlink:href="#DejaVuSans-116"/>
      <use x="347.460938" xlink:href="#DejaVuSans-32"/>
      <use x="379.248047" xlink:href="#DejaVuSans-91"/>
      <use x="418.261719" xlink:href="#DejaVuSans-100"/>
      <use x="481.738281" xlink:href="#DejaVuSans-97"/>
      <use x="543.017578" xlink:href="#DejaVuSans-121"/>
      <use x="602.197266" xlink:href="#DejaVuSans-115"/>
      <use x="654.296875" xlink:href="#DejaVuSans-93"/>
     </g>
    </g>
   </g>
   <g id="matplotlib.axis_2">
    <g id="ytick_1">
     <g id="line2d_8">
      <defs>
       <path d="M 0 0 
L -3.5 0 
" id="mba8dc2eb85" style="stroke:#000000;stroke-width:0.8;"/>
      </defs>
      <g>
       <use style="stroke:#000000;stroke-width:0.8;" x="126" xlink:href="#mba8dc2eb85" y="358.52246"/>
      </g>
     </g>
     <g id="text_9">
      <!-- 0 -->
      <g transform="translate(112.6375 362.321679)scale(0.1 -0.1)">
       <use xlink:href="#DejaVuSans-48"/>
      </g>
     </g>
    </g>
    <g id="ytick_2">
     <g id="line2d_9">
      <g>
       <use style="stroke:#000000;stroke-width:0.8;" x="126" xlink:href="#mba8dc2eb85" y="320.526352"/>
      </g>
     </g>
     <g id="text_10">
      <!-- 5 -->
      <g transform="translate(112.6375 324.325571)scale(0.1 -0.1)">
       <use xlink:href="#DejaVuSans-53"/>
      </g>
     </g>
    </g>
    <g id="ytick_3">
     <g id="line2d_10">
      <g>
       <use style="stroke:#000000;stroke-width:0.8;" x="126" xlink:href="#mba8dc2eb85" y="282.530245"/>
      </g>
     </g>
     <g id="text_11">
      <!-- 10 -->
      <g transform="translate(106.275 286.329464)scale(0.1 -0.1)">
       <use xlink:href="#DejaVuSans-49"/>
       <use x="63.623047" xlink:href="#DejaVuSans-48"/>
      </g>
     </g>
    </g>
    <g id="ytick_4">
     <g id="line2d_11">
      <g>
       <use style="stroke:#000000;stroke-width:0.8;" x="126" xlink:href="#mba8dc2eb85" y="244.534138"/>
      </g>
     </g>
     <g id="text_12">
      <!-- 15 -->
      <g transform="translate(106.275 248.333356)scale(0.1 -0.1)">
       <use xlink:href="#DejaVuSans-49"/>
       <use x="63.623047" xlink:href="#DejaVuSans-53"/>
      </g>
     </g>
    </g>
    <g id="ytick_5">
     <g id="line2d_12">
      <g>
       <use style="stroke:#000000;stroke-width:0.8;" x="126" xlink:href="#mba8dc2eb85" y="206.53803"/>
      </g>
     </g>
     <g id="text_13">
      <!-- 20 -->
      <g transform="translate(106.275 210.337249)scale(0.1 -0.1)">
       <use xlink:href="#DejaVuSans-50"/>
       <use x="63.623047" xlink:href="#DejaVuSans-48"/>
      </g>
     </g>
    </g>
    <g id="ytick_6">
     <g id="line2d_13">
      <g>
       <use style="stroke:#000000;stroke-width:0.8;" x="126" xlink:href="#mba8dc2eb85" y="168.541923"/>
      </g>
     </g>
     <g id="text_14">
      <!-- 25 -->
      <g transform="translate(106.275 172.341142)scale(0.1 -0.1)">
       <use xlink:href="#DejaVuSans-50"/>
       <use x="63.623047" xlink:href="#DejaVuSans-53"/>
      </g>
     </g>
    </g>
    <g id="ytick_7">
     <g id="line2d_14">
      <g>
       <use style="stroke:#000000;stroke-width:0.8;" x="126" xlink:href="#mba8dc2eb85" y="130.545815"/>
      </g>
     </g>
     <g id="text_15">
      <!-- 30 -->
      <g transform="translate(106.275 134.345034)scale(0.1 -0.1)">
       <defs>
        <path d="M 40.578125 39.3125 
Q 47.65625 37.796875 51.625 33 
Q 55.609375 28.21875 55.609375 21.1875 
Q 55.609375 10.40625 48.1875 4.484375 
Q 40.765625 -1.421875 27.09375 -1.421875 
Q 22.515625 -1.421875 17.65625 -0.515625 
Q 12.796875 0.390625 7.625 2.203125 
L 7.625 11.71875 
Q 11.71875 9.328125 16.59375 8.109375 
Q 21.484375 6.890625 26.8125 6.890625 
Q 36.078125 6.890625 40.9375 10.546875 
Q 45.796875 14.203125 45.796875 21.1875 
Q 45.796875 27.640625 41.28125 31.265625 
Q 36.765625 34.90625 28.71875 34.90625 
L 20.21875 34.90625 
L 20.21875 43.015625 
L 29.109375 43.015625 
Q 36.375 43.015625 40.234375 45.921875 
Q 44.09375 48.828125 44.09375 54.296875 
Q 44.09375 59.90625 40.109375 62.90625 
Q 36.140625 65.921875 28.71875 65.921875 
Q 24.65625 65.921875 20.015625 65.03125 
Q 15.375 64.15625 9.8125 62.3125 
L 9.8125 71.09375 
Q 15.4375 72.65625 20.34375 73.4375 
Q 25.25 74.21875 29.59375 74.21875 
Q 40.828125 74.21875 47.359375 69.109375 
Q 53.90625 64.015625 53.90625 55.328125 
Q 53.90625 49.265625 50.4375 45.09375 
Q 46.96875 40.921875 40.578125 39.3125 
z
" id="DejaVuSans-51"/>
       </defs>
       <use xlink:href="#DejaVuSans-51"/>
       <use x="63.623047" xlink:href="#DejaVuSans-48"/>
      </g>
     </g>
    </g>
    <g id="text_16">
     <!-- icu_occ -->
     <g transform="translate(99.209844 273.386062)rotate(-90)scale(0.13 -0.13)">
      <defs>
       <path d="M 48.78125 52.59375 
L 48.78125 44.1875 
Q 44.96875 46.296875 41.140625 47.34375 
Q 37.3125 48.390625 33.40625 48.390625 
Q 24.65625 48.390625 19.8125 42.84375 
Q 14.984375 37.3125 14.984375 27.296875 
Q 14.984375 17.28125 19.8125 11.734375 
Q 24.65625 6.203125 33.40625 6.203125 
Q 37.3125 6.203125 41.140625 7.25 
Q 44.96875 8.296875 48.78125 10.40625 
L 48.78125 2.09375 
Q 45.015625 0.34375 40.984375 -0.53125 
Q 36.96875 -1.421875 32.421875 -1.421875 
Q 20.0625 -1.421875 12.78125 6.34375 
Q 5.515625 14.109375 5.515625 27.296875 
Q 5.515625 40.671875 12.859375 48.328125 
Q 20.21875 56 33.015625 56 
Q 37.15625 56 41.109375 55.140625 
Q 45.0625 54.296875 48.78125 52.59375 
z
" id="DejaVuSans-99"/>
       <path d="M 8.5 21.578125 
L 8.5 54.6875 
L 17.484375 54.6875 
L 17.484375 21.921875 
Q 17.484375 14.15625 20.5 10.265625 
Q 23.53125 6.390625 29.59375 6.390625 
Q 36.859375 6.390625 41.078125 11.03125 
Q 45.3125 15.671875 45.3125 23.6875 
L 45.3125 54.6875 
L 54.296875 54.6875 
L 54.296875 0 
L 45.3125 0 
L 45.3125 8.40625 
Q 42.046875 3.421875 37.71875 1 
Q 33.40625 -1.421875 27.6875 -1.421875 
Q 18.265625 -1.421875 13.375 4.4375 
Q 8.5 10.296875 8.5 21.578125 
z
M 31.109375 56 
z
" id="DejaVuSans-117"/>
       <path d="M 50.984375 -16.609375 
L 50.984375 -23.578125 
L -0.984375 -23.578125 
L -0.984375 -16.609375 
z
" id="DejaVuSans-95"/>
       <path d="M 30.609375 48.390625 
Q 23.390625 48.390625 19.1875 42.75 
Q 14.984375 37.109375 14.984375 27.296875 
Q 14.984375 17.484375 19.15625 11.84375 
Q 23.34375 6.203125 30.609375 6.203125 
Q 37.796875 6.203125 41.984375 11.859375 
Q 46.1875 17.53125 46.1875 27.296875 
Q 46.1875 37.015625 41.984375 42.703125 
Q 37.796875 48.390625 30.609375 48.390625 
z
M 30.609375 56 
Q 42.328125 56 49.015625 48.375 
Q 55.71875 40.765625 55.71875 27.296875 
Q 55.71875 13.875 49.015625 6.21875 
Q 42.328125 -1.421875 30.609375 -1.421875 
Q 18.84375 -1.421875 12.171875 6.21875 
Q 5.515625 13.875 5.515625 27.296875 
Q 5.515625 40.765625 12.171875 48.375 
Q 18.84375 56 30.609375 56 
z
" id="DejaVuSans-111"/>
      </defs>
      <use xlink:href="#DejaVuSans-105"/>
      <use x="27.783203" xlink:href="#DejaVuSans-99"/>
      <use x="82.763672" xlink:href="#DejaVuSans-117"/>
      <use x="146.142578" xlink:href="#DejaVuSans-95"/>
      <use x="196.142578" xlink:href="#DejaVuSans-111"/>
      <use x="257.324219" xlink:href="#DejaVuSans-99"/>
      <use x="312.304688" xlink:href="#DejaVuSans-99"/>
     </g>
    </g>
   </g>
   <g id="line2d_15">
    <path clip-path="url(#p85d9a28bd9)" d="M 161.509091 358.52246 
L 174.421488 358.52246 
L 187.333884 358.52246 
L 200.246281 358.52246 
L 213.158678 358.52246 
L 226.071074 350.923238 
L 238.983471 350.923238 
L 251.895868 350.923238 
L 264.808264 335.724795 
L 277.720661 328.125574 
L 290.633058 328.125574 
L 303.545455 335.724795 
L 316.457851 320.526352 
L 329.370248 312.927131 
L 342.282645 297.728688 
L 355.195041 290.129467 
L 368.107438 297.728688 
L 381.019835 320.526352 
L 393.932231 320.526352 
L 406.844628 320.526352 
L 419.757025 312.927131 
L 432.669421 297.728688 
L 445.581818 274.931024 
L 458.494215 259.732581 
L 471.406612 274.931024 
L 484.319008 252.133359 
L 497.231405 229.335695 
L 510.143802 214.137252 
L 523.056198 221.736473 
L 535.968595 229.335695 
L 548.880992 214.137252 
L 561.793388 214.137252 
L 574.705785 198.938809 
L 587.618182 198.938809 
L 600.530579 198.938809 
L 613.442975 176.141144 
L 626.355372 176.141144 
L 639.267769 153.34348 
L 652.180165 183.740366 
L 665.092562 221.736473 
L 678.004959 229.335695 
L 690.917355 198.938809 
L 703.829752 214.137252 
L 716.742149 221.736473 
L 729.654545 198.938809 
L 742.566942 206.53803 
L 755.479339 221.736473 
L 768.391736 229.335695 
L 781.304132 221.736473 
L 794.216529 214.137252 
L 807.128926 221.736473 
L 820.041322 198.938809 
L 832.953719 214.137252 
L 845.866116 229.335695 
L 858.778512 206.53803 
L 871.690909 252.133359 
" style="fill:none;stroke:#0000ff;stroke-linecap:square;stroke-width:1.5;"/>
   </g>
   <g id="line2d_16">
    <path clip-path="url(#p85d9a28bd9)" d="M 161.509091 323.493093 
L 174.421488 332.205314 
L 187.333884 330.511946 
L 200.246281 329.090604 
L 213.158678 348.078981 
L 226.071074 345.932691 
L 238.983471 344.130179 
L 251.895868 352.760861 
L 264.808264 350.918237 
L 277.720661 349.371331 
L 290.633058 348.076815 
L 303.545455 346.995954 
L 316.457851 346.094448 
L 329.370248 335.178536 
L 342.282645 335.134889 
L 355.195041 335.107858 
L 368.107438 314.794635 
L 381.019835 305.790889 
L 393.932231 307.377009 
L 406.844628 318.841692 
L 419.757025 299.164054 
L 432.669421 290.65827 
L 445.581818 272.312078 
L 458.494215 264.990426 
L 471.406612 278.186615 
L 484.319008 310.377054 
L 497.231405 310.283416 
L 510.143802 310.205767 
L 523.056198 300.087563 
L 535.968595 280.553623 
L 548.880992 251.972006 
L 561.793388 234.774995 
L 574.705785 258.82246 
L 587.618182 230.658682 
L 600.530579 203.581306 
L 613.442975 187.735056 
L 626.355372 203.352576 
L 639.267769 217.316242 
L 652.180165 199.591346 
L 665.092562 202.958058 
L 678.004959 185.456923 
L 690.917355 189.038975 
L 703.829752 192.066289 
L 716.742149 164.064121 
L 729.654545 167.981351 
L 742.566942 140.50107 
L 755.479339 185.818373 
L 768.391736 237.808475 
L 781.304132 246.317287 
L 794.216529 204.263526 
L 807.128926 224.566207 
L 820.041322 233.909109 
L 832.953719 203.573809 
L 845.866116 214.067355 
L 858.778512 233.681244 
L 871.690909 242.536174 
" style="fill:none;stroke:#ff0000;stroke-linecap:square;stroke-width:1.5;"/>
   </g>
   <g id="patch_3">
    <path d="M 126 369.423529 
L 126 129.6 
" style="fill:none;stroke:#000000;stroke-linecap:square;stroke-linejoin:miter;stroke-width:0.8;"/>
   </g>
   <g id="patch_4">
    <path d="M 907.2 369.423529 
L 907.2 129.6 
" style="fill:none;stroke:#000000;stroke-linecap:square;stroke-linejoin:miter;stroke-width:0.8;"/>
   </g>
   <g id="patch_5">
    <path d="M 126 369.423529 
L 907.2 369.423529 
" style="fill:none;stroke:#000000;stroke-linecap:square;stroke-linejoin:miter;stroke-width:0.8;"/>
   </g>
   <g id="patch_6">
    <path d="M 126 129.6 
L 907.2 129.6 
" style="fill:none;stroke:#000000;stroke-linecap:square;stroke-linejoin:miter;stroke-width:0.8;"/>
   </g>
   <g id="legend_1">
    <g id="patch_7">
     <path d="M 807.246875 166.95625 
L 900.2 166.95625 
Q 902.2 166.95625 902.2 164.95625 
L 902.2 136.6 
Q 902.2 134.6 900.2 134.6 
L 807.246875 134.6 
Q 805.246875 134.6 805.246875 136.6 
L 805.246875 164.95625 
Q 805.246875 166.95625 807.246875 166.95625 
z
" style="fill:#ffffff;opacity:0.8;stroke:#cccccc;stroke-linejoin:miter;"/>
    </g>
    <g id="line2d_17">
     <path d="M 809.246875 142.698437 
L 829.246875 142.698437 
" style="fill:none;stroke:#0000ff;stroke-linecap:square;stroke-width:1.5;"/>
    </g>
    <g id="line2d_18"/>
    <g id="text_17">
     <!-- VAL Dataset -->
     <g transform="translate(837.246875 146.198437)scale(0.1 -0.1)">
      <defs>
       <path d="M 28.609375 0 
L 0.78125 72.90625 
L 11.078125 72.90625 
L 34.1875 11.53125 
L 57.328125 72.90625 
L 67.578125 72.90625 
L 39.796875 0 
z
" id="DejaVuSans-86"/>
       <path d="M 34.1875 63.1875 
L 20.796875 26.90625 
L 47.609375 26.90625 
z
M 28.609375 72.90625 
L 39.796875 72.90625 
L 67.578125 0 
L 57.328125 0 
L 50.6875 18.703125 
L 17.828125 18.703125 
L 11.1875 0 
L 0.78125 0 
z
" id="DejaVuSans-65"/>
       <path d="M 9.8125 72.90625 
L 19.671875 72.90625 
L 19.671875 8.296875 
L 55.171875 8.296875 
L 55.171875 0 
L 9.8125 0 
z
" id="DejaVuSans-76"/>
       <path d="M 19.671875 64.796875 
L 19.671875 8.109375 
L 31.59375 8.109375 
Q 46.6875 8.109375 53.6875 14.9375 
Q 60.6875 21.78125 60.6875 36.53125 
Q 60.6875 51.171875 53.6875 57.984375 
Q 46.6875 64.796875 31.59375 64.796875 
z
M 9.8125 72.90625 
L 30.078125 72.90625 
Q 51.265625 72.90625 61.171875 64.09375 
Q 71.09375 55.28125 71.09375 36.53125 
Q 71.09375 17.671875 61.125 8.828125 
Q 51.171875 0 30.078125 0 
L 9.8125 0 
z
" id="DejaVuSans-68"/>
      </defs>
      <use xlink:href="#DejaVuSans-86"/>
      <use x="62.033203" xlink:href="#DejaVuSans-65"/>
      <use x="130.441406" xlink:href="#DejaVuSans-76"/>
      <use x="186.154297" xlink:href="#DejaVuSans-32"/>
      <use x="217.941406" xlink:href="#DejaVuSans-68"/>
      <use x="294.943359" xlink:href="#DejaVuSans-97"/>
      <use x="356.222656" xlink:href="#DejaVuSans-116"/>
      <use x="395.431641" xlink:href="#DejaVuSans-97"/>
      <use x="456.710938" xlink:href="#DejaVuSans-115"/>
      <use x="508.810547" xlink:href="#DejaVuSans-101"/>
      <use x="570.333984" xlink:href="#DejaVuSans-116"/>
     </g>
    </g>
    <g id="line2d_19">
     <path d="M 809.246875 157.376562 
L 829.246875 157.376562 
" style="fill:none;stroke:#ff0000;stroke-linecap:square;stroke-width:1.5;"/>
    </g>
    <g id="line2d_20"/>
    <g id="text_18">
     <!-- Forecast -->
     <g transform="translate(837.246875 160.876562)scale(0.1 -0.1)">
      <defs>
       <path d="M 9.8125 72.90625 
L 51.703125 72.90625 
L 51.703125 64.59375 
L 19.671875 64.59375 
L 19.671875 43.109375 
L 48.578125 43.109375 
L 48.578125 34.8125 
L 19.671875 34.8125 
L 19.671875 0 
L 9.8125 0 
z
" id="DejaVuSans-70"/>
       <path d="M 41.109375 46.296875 
Q 39.59375 47.171875 37.8125 47.578125 
Q 36.03125 48 33.890625 48 
Q 26.265625 48 22.1875 43.046875 
Q 18.109375 38.09375 18.109375 28.8125 
L 18.109375 0 
L 9.078125 0 
L 9.078125 54.6875 
L 18.109375 54.6875 
L 18.109375 46.1875 
Q 20.953125 51.171875 25.484375 53.578125 
Q 30.03125 56 36.53125 56 
Q 37.453125 56 38.578125 55.875 
Q 39.703125 55.765625 41.0625 55.515625 
z
" id="DejaVuSans-114"/>
      </defs>
      <use xlink:href="#DejaVuSans-70"/>
      <use x="53.894531" xlink:href="#DejaVuSans-111"/>
      <use x="115.076172" xlink:href="#DejaVuSans-114"/>
      <use x="153.939453" xlink:href="#DejaVuSans-101"/>
      <use x="215.462891" xlink:href="#DejaVuSans-99"/>
      <use x="270.443359" xlink:href="#DejaVuSans-97"/>
      <use x="331.722656" xlink:href="#DejaVuSans-115"/>
      <use x="383.822266" xlink:href="#DejaVuSans-116"/>
     </g>
    </g>
   </g>
  </g>
  <g id="axes_2">
   <g id="patch_8">
    <path d="M 126 657.211765 
L 907.2 657.211765 
L 907.2 417.388235 
L 126 417.388235 
z
" style="fill:#ffffff;"/>
   </g>
   <g id="matplotlib.axis_3">
    <g id="xtick_8">
     <g id="line2d_21">
      <g>
       <use style="stroke:#000000;stroke-width:0.8;" x="188.823776" xlink:href="#mee9fb89843" y="657.211765"/>
      </g>
     </g>
     <g id="text_19">
      <!-- 2021-08-21 -->
      <g transform="translate(159.765964 671.810202)scale(0.1 -0.1)">
       <use xlink:href="#DejaVuSans-50"/>
       <use x="63.623047" xlink:href="#DejaVuSans-48"/>
       <use x="127.246094" xlink:href="#DejaVuSans-50"/>
       <use x="190.869141" xlink:href="#DejaVuSans-49"/>
       <use x="254.492188" xlink:href="#DejaVuSans-45"/>
       <use x="290.576172" xlink:href="#DejaVuSans-48"/>
       <use x="354.199219" xlink:href="#DejaVuSans-56"/>
       <use x="417.822266" xlink:href="#DejaVuSans-45"/>
       <use x="453.90625" xlink:href="#DejaVuSans-50"/>
       <use x="517.529297" xlink:href="#DejaVuSans-49"/>
      </g>
     </g>
    </g>
    <g id="xtick_9">
     <g id="line2d_22">
      <g>
       <use style="stroke:#000000;stroke-width:0.8;" x="298.082517" xlink:href="#mee9fb89843" y="657.211765"/>
      </g>
     </g>
     <g id="text_20">
      <!-- 2021-08-25 -->
      <g transform="translate(269.024705 671.810202)scale(0.1 -0.1)">
       <use xlink:href="#DejaVuSans-50"/>
       <use x="63.623047" xlink:href="#DejaVuSans-48"/>
       <use x="127.246094" xlink:href="#DejaVuSans-50"/>
       <use x="190.869141" xlink:href="#DejaVuSans-49"/>
       <use x="254.492188" xlink:href="#DejaVuSans-45"/>
       <use x="290.576172" xlink:href="#DejaVuSans-48"/>
       <use x="354.199219" xlink:href="#DejaVuSans-56"/>
       <use x="417.822266" xlink:href="#DejaVuSans-45"/>
       <use x="453.90625" xlink:href="#DejaVuSans-50"/>
       <use x="517.529297" xlink:href="#DejaVuSans-53"/>
      </g>
     </g>
    </g>
    <g id="xtick_10">
     <g id="line2d_23">
      <g>
       <use style="stroke:#000000;stroke-width:0.8;" x="407.341259" xlink:href="#mee9fb89843" y="657.211765"/>
      </g>
     </g>
     <g id="text_21">
      <!-- 2021-08-29 -->
      <g transform="translate(378.283446 671.810202)scale(0.1 -0.1)">
       <defs>
        <path d="M 10.984375 1.515625 
L 10.984375 10.5 
Q 14.703125 8.734375 18.5 7.8125 
Q 22.3125 6.890625 25.984375 6.890625 
Q 35.75 6.890625 40.890625 13.453125 
Q 46.046875 20.015625 46.78125 33.40625 
Q 43.953125 29.203125 39.59375 26.953125 
Q 35.25 24.703125 29.984375 24.703125 
Q 19.046875 24.703125 12.671875 31.3125 
Q 6.296875 37.9375 6.296875 49.421875 
Q 6.296875 60.640625 12.9375 67.421875 
Q 19.578125 74.21875 30.609375 74.21875 
Q 43.265625 74.21875 49.921875 64.515625 
Q 56.59375 54.828125 56.59375 36.375 
Q 56.59375 19.140625 48.40625 8.859375 
Q 40.234375 -1.421875 26.421875 -1.421875 
Q 22.703125 -1.421875 18.890625 -0.6875 
Q 15.09375 0.046875 10.984375 1.515625 
z
M 30.609375 32.421875 
Q 37.25 32.421875 41.125 36.953125 
Q 45.015625 41.5 45.015625 49.421875 
Q 45.015625 57.28125 41.125 61.84375 
Q 37.25 66.40625 30.609375 66.40625 
Q 23.96875 66.40625 20.09375 61.84375 
Q 16.21875 57.28125 16.21875 49.421875 
Q 16.21875 41.5 20.09375 36.953125 
Q 23.96875 32.421875 30.609375 32.421875 
z
" id="DejaVuSans-57"/>
       </defs>
       <use xlink:href="#DejaVuSans-50"/>
       <use x="63.623047" xlink:href="#DejaVuSans-48"/>
       <use x="127.246094" xlink:href="#DejaVuSans-50"/>
       <use x="190.869141" xlink:href="#DejaVuSans-49"/>
       <use x="254.492188" xlink:href="#DejaVuSans-45"/>
       <use x="290.576172" xlink:href="#DejaVuSans-48"/>
       <use x="354.199219" xlink:href="#DejaVuSans-56"/>
       <use x="417.822266" xlink:href="#DejaVuSans-45"/>
       <use x="453.90625" xlink:href="#DejaVuSans-50"/>
       <use x="517.529297" xlink:href="#DejaVuSans-57"/>
      </g>
     </g>
    </g>
    <g id="xtick_11">
     <g id="line2d_24">
      <g>
       <use style="stroke:#000000;stroke-width:0.8;" x="489.285315" xlink:href="#mee9fb89843" y="657.211765"/>
      </g>
     </g>
     <g id="text_22">
      <!-- 2021-09-01 -->
      <g transform="translate(460.227502 671.810202)scale(0.1 -0.1)">
       <use xlink:href="#DejaVuSans-50"/>
       <use x="63.623047" xlink:href="#DejaVuSans-48"/>
       <use x="127.246094" xlink:href="#DejaVuSans-50"/>
       <use x="190.869141" xlink:href="#DejaVuSans-49"/>
       <use x="254.492188" xlink:href="#DejaVuSans-45"/>
       <use x="290.576172" xlink:href="#DejaVuSans-48"/>
       <use x="354.199219" xlink:href="#DejaVuSans-57"/>
       <use x="417.822266" xlink:href="#DejaVuSans-45"/>
       <use x="453.90625" xlink:href="#DejaVuSans-48"/>
       <use x="517.529297" xlink:href="#DejaVuSans-49"/>
      </g>
     </g>
    </g>
    <g id="xtick_12">
     <g id="line2d_25">
      <g>
       <use style="stroke:#000000;stroke-width:0.8;" x="598.544056" xlink:href="#mee9fb89843" y="657.211765"/>
      </g>
     </g>
     <g id="text_23">
      <!-- 2021-09-05 -->
      <g transform="translate(569.486243 671.810202)scale(0.1 -0.1)">
       <use xlink:href="#DejaVuSans-50"/>
       <use x="63.623047" xlink:href="#DejaVuSans-48"/>
       <use x="127.246094" xlink:href="#DejaVuSans-50"/>
       <use x="190.869141" xlink:href="#DejaVuSans-49"/>
       <use x="254.492188" xlink:href="#DejaVuSans-45"/>
       <use x="290.576172" xlink:href="#DejaVuSans-48"/>
       <use x="354.199219" xlink:href="#DejaVuSans-57"/>
       <use x="417.822266" xlink:href="#DejaVuSans-45"/>
       <use x="453.90625" xlink:href="#DejaVuSans-48"/>
       <use x="517.529297" xlink:href="#DejaVuSans-53"/>
      </g>
     </g>
    </g>
    <g id="xtick_13">
     <g id="line2d_26">
      <g>
       <use style="stroke:#000000;stroke-width:0.8;" x="707.802797" xlink:href="#mee9fb89843" y="657.211765"/>
      </g>
     </g>
     <g id="text_24">
      <!-- 2021-09-09 -->
      <g transform="translate(678.744985 671.810202)scale(0.1 -0.1)">
       <use xlink:href="#DejaVuSans-50"/>
       <use x="63.623047" xlink:href="#DejaVuSans-48"/>
       <use x="127.246094" xlink:href="#DejaVuSans-50"/>
       <use x="190.869141" xlink:href="#DejaVuSans-49"/>
       <use x="254.492188" xlink:href="#DejaVuSans-45"/>
       <use x="290.576172" xlink:href="#DejaVuSans-48"/>
       <use x="354.199219" xlink:href="#DejaVuSans-57"/>
       <use x="417.822266" xlink:href="#DejaVuSans-45"/>
       <use x="453.90625" xlink:href="#DejaVuSans-48"/>
       <use x="517.529297" xlink:href="#DejaVuSans-57"/>
      </g>
     </g>
    </g>
    <g id="xtick_14">
     <g id="line2d_27">
      <g>
       <use style="stroke:#000000;stroke-width:0.8;" x="817.061538" xlink:href="#mee9fb89843" y="657.211765"/>
      </g>
     </g>
     <g id="text_25">
      <!-- 2021-09-13 -->
      <g transform="translate(788.003726 671.810202)scale(0.1 -0.1)">
       <use xlink:href="#DejaVuSans-50"/>
       <use x="63.623047" xlink:href="#DejaVuSans-48"/>
       <use x="127.246094" xlink:href="#DejaVuSans-50"/>
       <use x="190.869141" xlink:href="#DejaVuSans-49"/>
       <use x="254.492188" xlink:href="#DejaVuSans-45"/>
       <use x="290.576172" xlink:href="#DejaVuSans-48"/>
       <use x="354.199219" xlink:href="#DejaVuSans-57"/>
       <use x="417.822266" xlink:href="#DejaVuSans-45"/>
       <use x="453.90625" xlink:href="#DejaVuSans-49"/>
       <use x="517.529297" xlink:href="#DejaVuSans-51"/>
      </g>
     </g>
    </g>
    <g id="text_26">
     <!-- Time, t [days] -->
     <g transform="translate(471.535703 687.767858)scale(0.13 -0.13)">
      <use xlink:href="#DejaVuSans-84"/>
      <use x="57.958984" xlink:href="#DejaVuSans-105"/>
      <use x="85.742188" xlink:href="#DejaVuSans-109"/>
      <use x="183.154297" xlink:href="#DejaVuSans-101"/>
      <use x="244.677734" xlink:href="#DejaVuSans-44"/>
      <use x="276.464844" xlink:href="#DejaVuSans-32"/>
      <use x="308.251953" xlink:href="#DejaVuSans-116"/>
      <use x="347.460938" xlink:href="#DejaVuSans-32"/>
      <use x="379.248047" xlink:href="#DejaVuSans-91"/>
      <use x="418.261719" xlink:href="#DejaVuSans-100"/>
      <use x="481.738281" xlink:href="#DejaVuSans-97"/>
      <use x="543.017578" xlink:href="#DejaVuSans-121"/>
      <use x="602.197266" xlink:href="#DejaVuSans-115"/>
      <use x="654.296875" xlink:href="#DejaVuSans-93"/>
     </g>
    </g>
   </g>
   <g id="matplotlib.axis_4">
    <g id="ytick_8">
     <g id="line2d_28">
      <g>
       <use style="stroke:#000000;stroke-width:0.8;" x="126" xlink:href="#mba8dc2eb85" y="656.495918"/>
      </g>
     </g>
     <g id="text_27">
      <!-- 2.5 -->
      <g transform="translate(103.096875 660.295137)scale(0.1 -0.1)">
       <defs>
        <path d="M 10.6875 12.40625 
L 21 12.40625 
L 21 0 
L 10.6875 0 
z
" id="DejaVuSans-46"/>
       </defs>
       <use xlink:href="#DejaVuSans-50"/>
       <use x="63.623047" xlink:href="#DejaVuSans-46"/>
       <use x="95.410156" xlink:href="#DejaVuSans-53"/>
      </g>
     </g>
    </g>
    <g id="ytick_9">
     <g id="line2d_29">
      <g>
       <use style="stroke:#000000;stroke-width:0.8;" x="126" xlink:href="#mba8dc2eb85" y="625.128592"/>
      </g>
     </g>
     <g id="text_28">
      <!-- 5.0 -->
      <g transform="translate(103.096875 628.927811)scale(0.1 -0.1)">
       <use xlink:href="#DejaVuSans-53"/>
       <use x="63.623047" xlink:href="#DejaVuSans-46"/>
       <use x="95.410156" xlink:href="#DejaVuSans-48"/>
      </g>
     </g>
    </g>
    <g id="ytick_10">
     <g id="line2d_30">
      <g>
       <use style="stroke:#000000;stroke-width:0.8;" x="126" xlink:href="#mba8dc2eb85" y="593.761266"/>
      </g>
     </g>
     <g id="text_29">
      <!-- 7.5 -->
      <g transform="translate(103.096875 597.560484)scale(0.1 -0.1)">
       <use xlink:href="#DejaVuSans-55"/>
       <use x="63.623047" xlink:href="#DejaVuSans-46"/>
       <use x="95.410156" xlink:href="#DejaVuSans-53"/>
      </g>
     </g>
    </g>
    <g id="ytick_11">
     <g id="line2d_31">
      <g>
       <use style="stroke:#000000;stroke-width:0.8;" x="126" xlink:href="#mba8dc2eb85" y="562.393939"/>
      </g>
     </g>
     <g id="text_30">
      <!-- 10.0 -->
      <g transform="translate(96.734375 566.193158)scale(0.1 -0.1)">
       <use xlink:href="#DejaVuSans-49"/>
       <use x="63.623047" xlink:href="#DejaVuSans-48"/>
       <use x="127.246094" xlink:href="#DejaVuSans-46"/>
       <use x="159.033203" xlink:href="#DejaVuSans-48"/>
      </g>
     </g>
    </g>
    <g id="ytick_12">
     <g id="line2d_32">
      <g>
       <use style="stroke:#000000;stroke-width:0.8;" x="126" xlink:href="#mba8dc2eb85" y="531.026613"/>
      </g>
     </g>
     <g id="text_31">
      <!-- 12.5 -->
      <g transform="translate(96.734375 534.825832)scale(0.1 -0.1)">
       <use xlink:href="#DejaVuSans-49"/>
       <use x="63.623047" xlink:href="#DejaVuSans-50"/>
       <use x="127.246094" xlink:href="#DejaVuSans-46"/>
       <use x="159.033203" xlink:href="#DejaVuSans-53"/>
      </g>
     </g>
    </g>
    <g id="ytick_13">
     <g id="line2d_33">
      <g>
       <use style="stroke:#000000;stroke-width:0.8;" x="126" xlink:href="#mba8dc2eb85" y="499.659287"/>
      </g>
     </g>
     <g id="text_32">
      <!-- 15.0 -->
      <g transform="translate(96.734375 503.458506)scale(0.1 -0.1)">
       <use xlink:href="#DejaVuSans-49"/>
       <use x="63.623047" xlink:href="#DejaVuSans-53"/>
       <use x="127.246094" xlink:href="#DejaVuSans-46"/>
       <use x="159.033203" xlink:href="#DejaVuSans-48"/>
      </g>
     </g>
    </g>
    <g id="ytick_14">
     <g id="line2d_34">
      <g>
       <use style="stroke:#000000;stroke-width:0.8;" x="126" xlink:href="#mba8dc2eb85" y="468.291961"/>
      </g>
     </g>
     <g id="text_33">
      <!-- 17.5 -->
      <g transform="translate(96.734375 472.09118)scale(0.1 -0.1)">
       <use xlink:href="#DejaVuSans-49"/>
       <use x="63.623047" xlink:href="#DejaVuSans-55"/>
       <use x="127.246094" xlink:href="#DejaVuSans-46"/>
       <use x="159.033203" xlink:href="#DejaVuSans-53"/>
      </g>
     </g>
    </g>
    <g id="ytick_15">
     <g id="line2d_35">
      <g>
       <use style="stroke:#000000;stroke-width:0.8;" x="126" xlink:href="#mba8dc2eb85" y="436.924635"/>
      </g>
     </g>
     <g id="text_34">
      <!-- 20.0 -->
      <g transform="translate(96.734375 440.723853)scale(0.1 -0.1)">
       <use xlink:href="#DejaVuSans-50"/>
       <use x="63.623047" xlink:href="#DejaVuSans-48"/>
       <use x="127.246094" xlink:href="#DejaVuSans-46"/>
       <use x="159.033203" xlink:href="#DejaVuSans-48"/>
      </g>
     </g>
    </g>
    <g id="text_35">
     <!-- icu_occ -->
     <g transform="translate(89.669219 561.174297)rotate(-90)scale(0.13 -0.13)">
      <use xlink:href="#DejaVuSans-105"/>
      <use x="27.783203" xlink:href="#DejaVuSans-99"/>
      <use x="82.763672" xlink:href="#DejaVuSans-117"/>
      <use x="146.142578" xlink:href="#DejaVuSans-95"/>
      <use x="196.142578" xlink:href="#DejaVuSans-111"/>
      <use x="257.324219" xlink:href="#DejaVuSans-99"/>
      <use x="312.304688" xlink:href="#DejaVuSans-99"/>
     </g>
    </g>
   </g>
   <g id="line2d_36">
    <path clip-path="url(#pde9f5f6623)" d="M 161.509091 487.112356 
L 188.823776 474.565426 
L 216.138462 449.471565 
L 243.453147 462.018496 
L 270.767832 462.018496 
L 298.082517 462.018496 
L 325.397203 462.018496 
L 352.711888 487.112356 
L 380.026573 487.112356 
L 407.341259 499.659287 
L 434.655944 487.112356 
L 461.970629 512.206217 
L 489.285315 537.300078 
L 516.6 549.847009 
L 543.914685 587.4878 
L 571.229371 600.034731 
L 598.544056 600.034731 
L 625.858741 625.128592 
L 653.173427 625.128592 
L 680.488112 625.128592 
L 707.802797 612.581661 
L 735.117483 600.034731 
L 762.432168 600.034731 
L 789.746853 587.4878 
L 817.061538 600.034731 
L 844.376224 612.581661 
L 871.690909 600.034731 
" style="fill:none;stroke:#0000ff;stroke-linecap:square;stroke-width:1.5;"/>
   </g>
   <g id="line2d_37">
    <path clip-path="url(#pde9f5f6623)" d="M 161.509091 478.11872 
L 188.823776 461.115456 
L 216.138462 477.14571 
L 243.453147 428.289305 
L 270.767832 462.049123 
L 298.082517 493.824997 
L 325.397203 444.308024 
L 352.711888 540.189568 
L 380.026573 504.570262 
L 407.341259 487.12734 
L 434.655944 454.996076 
L 461.970629 471.53102 
L 489.285315 471.505636 
L 516.6 471.481881 
L 543.914685 471.458157 
L 571.229371 502.762076 
L 598.544056 501.273423 
L 625.858741 515.659986 
L 653.173427 498.141908 
L 680.488112 528.597801 
L 707.802797 557.824656 
L 735.117483 570.202587 
L 762.432168 614.204091 
L 789.746853 624.650911 
L 817.061538 618.980253 
L 844.376224 646.310695 
L 871.690909 640.484334 
" style="fill:none;stroke:#ff0000;stroke-linecap:square;stroke-width:1.5;"/>
   </g>
   <g id="patch_9">
    <path d="M 126 657.211765 
L 126 417.388235 
" style="fill:none;stroke:#000000;stroke-linecap:square;stroke-linejoin:miter;stroke-width:0.8;"/>
   </g>
   <g id="patch_10">
    <path d="M 907.2 657.211765 
L 907.2 417.388235 
" style="fill:none;stroke:#000000;stroke-linecap:square;stroke-linejoin:miter;stroke-width:0.8;"/>
   </g>
   <g id="patch_11">
    <path d="M 126 657.211765 
L 907.2 657.211765 
" style="fill:none;stroke:#000000;stroke-linecap:square;stroke-linejoin:miter;stroke-width:0.8;"/>
   </g>
   <g id="patch_12">
    <path d="M 126 417.388235 
L 907.2 417.388235 
" style="fill:none;stroke:#000000;stroke-linecap:square;stroke-linejoin:miter;stroke-width:0.8;"/>
   </g>
   <g id="legend_2">
    <g id="patch_13">
     <path d="M 800.979688 454.744485 
L 900.2 454.744485 
Q 902.2 454.744485 902.2 452.744485 
L 902.2 424.388235 
Q 902.2 422.388235 900.2 422.388235 
L 800.979688 422.388235 
Q 798.979688 422.388235 798.979688 424.388235 
L 798.979688 452.744485 
Q 798.979688 454.744485 800.979688 454.744485 
z
" style="fill:#ffffff;opacity:0.8;stroke:#cccccc;stroke-linejoin:miter;"/>
    </g>
    <g id="line2d_38">
     <path d="M 802.979688 430.486673 
L 822.979688 430.486673 
" style="fill:none;stroke:#0000ff;stroke-linecap:square;stroke-width:1.5;"/>
    </g>
    <g id="line2d_39"/>
    <g id="text_36">
     <!-- TEST Dataset -->
     <g transform="translate(830.979688 433.986673)scale(0.1 -0.1)">
      <defs>
       <path d="M 9.8125 72.90625 
L 55.90625 72.90625 
L 55.90625 64.59375 
L 19.671875 64.59375 
L 19.671875 43.015625 
L 54.390625 43.015625 
L 54.390625 34.71875 
L 19.671875 34.71875 
L 19.671875 8.296875 
L 56.78125 8.296875 
L 56.78125 0 
L 9.8125 0 
z
" id="DejaVuSans-69"/>
       <path d="M 53.515625 70.515625 
L 53.515625 60.890625 
Q 47.90625 63.578125 42.921875 64.890625 
Q 37.9375 66.21875 33.296875 66.21875 
Q 25.25 66.21875 20.875 63.09375 
Q 16.5 59.96875 16.5 54.203125 
Q 16.5 49.359375 19.40625 46.890625 
Q 22.3125 44.4375 30.421875 42.921875 
L 36.375 41.703125 
Q 47.40625 39.59375 52.65625 34.296875 
Q 57.90625 29 57.90625 20.125 
Q 57.90625 9.515625 50.796875 4.046875 
Q 43.703125 -1.421875 29.984375 -1.421875 
Q 24.8125 -1.421875 18.96875 -0.25 
Q 13.140625 0.921875 6.890625 3.21875 
L 6.890625 13.375 
Q 12.890625 10.015625 18.65625 8.296875 
Q 24.421875 6.59375 29.984375 6.59375 
Q 38.421875 6.59375 43.015625 9.90625 
Q 47.609375 13.234375 47.609375 19.390625 
Q 47.609375 24.75 44.3125 27.78125 
Q 41.015625 30.8125 33.5 32.328125 
L 27.484375 33.5 
Q 16.453125 35.6875 11.515625 40.375 
Q 6.59375 45.0625 6.59375 53.421875 
Q 6.59375 63.09375 13.40625 68.65625 
Q 20.21875 74.21875 32.171875 74.21875 
Q 37.3125 74.21875 42.625 73.28125 
Q 47.953125 72.359375 53.515625 70.515625 
z
" id="DejaVuSans-83"/>
      </defs>
      <use xlink:href="#DejaVuSans-84"/>
      <use x="61.083984" xlink:href="#DejaVuSans-69"/>
      <use x="124.267578" xlink:href="#DejaVuSans-83"/>
      <use x="187.744141" xlink:href="#DejaVuSans-84"/>
      <use x="248.828125" xlink:href="#DejaVuSans-32"/>
      <use x="280.615234" xlink:href="#DejaVuSans-68"/>
      <use x="357.617188" xlink:href="#DejaVuSans-97"/>
      <use x="418.896484" xlink:href="#DejaVuSans-116"/>
      <use x="458.105469" xlink:href="#DejaVuSans-97"/>
      <use x="519.384766" xlink:href="#DejaVuSans-115"/>
      <use x="571.484375" xlink:href="#DejaVuSans-101"/>
      <use x="633.007812" xlink:href="#DejaVuSans-116"/>
     </g>
    </g>
    <g id="line2d_40">
     <path d="M 802.979688 445.164798 
L 822.979688 445.164798 
" style="fill:none;stroke:#ff0000;stroke-linecap:square;stroke-width:1.5;"/>
    </g>
    <g id="line2d_41"/>
    <g id="text_37">
     <!-- Forecast -->
     <g transform="translate(830.979688 448.664798)scale(0.1 -0.1)">
      <use xlink:href="#DejaVuSans-70"/>
      <use x="53.894531" xlink:href="#DejaVuSans-111"/>
      <use x="115.076172" xlink:href="#DejaVuSans-114"/>
      <use x="153.939453" xlink:href="#DejaVuSans-101"/>
      <use x="215.462891" xlink:href="#DejaVuSans-99"/>
      <use x="270.443359" xlink:href="#DejaVuSans-97"/>
      <use x="331.722656" xlink:href="#DejaVuSans-115"/>
      <use x="383.822266" xlink:href="#DejaVuSans-116"/>
     </g>
    </g>
   </g>
  </g>
  <g id="axes_3">
   <g id="patch_14">
    <path d="M 126 945 
L 907.2 945 
L 907.2 705.176471 
L 126 705.176471 
z
" style="fill:#ffffff;"/>
   </g>
   <g id="matplotlib.axis_5">
    <g id="xtick_15">
     <g id="line2d_42">
      <g>
       <use style="stroke:#000000;stroke-width:0.8;" x="213.473614" xlink:href="#mee9fb89843" y="945"/>
      </g>
     </g>
     <g id="text_38">
      <!-- 2021-07-01 -->
      <g transform="translate(184.415802 959.598438)scale(0.1 -0.1)">
       <use xlink:href="#DejaVuSans-50"/>
       <use x="63.623047" xlink:href="#DejaVuSans-48"/>
       <use x="127.246094" xlink:href="#DejaVuSans-50"/>
       <use x="190.869141" xlink:href="#DejaVuSans-49"/>
       <use x="254.492188" xlink:href="#DejaVuSans-45"/>
       <use x="290.576172" xlink:href="#DejaVuSans-48"/>
       <use x="354.199219" xlink:href="#DejaVuSans-55"/>
       <use x="417.822266" xlink:href="#DejaVuSans-45"/>
       <use x="453.90625" xlink:href="#DejaVuSans-48"/>
       <use x="517.529297" xlink:href="#DejaVuSans-49"/>
      </g>
     </g>
    </g>
    <g id="xtick_16">
     <g id="line2d_43">
      <g>
       <use style="stroke:#000000;stroke-width:0.8;" x="334.724169" xlink:href="#mee9fb89843" y="945"/>
      </g>
     </g>
     <g id="text_39">
      <!-- 2021-07-15 -->
      <g transform="translate(305.666356 959.598438)scale(0.1 -0.1)">
       <use xlink:href="#DejaVuSans-50"/>
       <use x="63.623047" xlink:href="#DejaVuSans-48"/>
       <use x="127.246094" xlink:href="#DejaVuSans-50"/>
       <use x="190.869141" xlink:href="#DejaVuSans-49"/>
       <use x="254.492188" xlink:href="#DejaVuSans-45"/>
       <use x="290.576172" xlink:href="#DejaVuSans-48"/>
       <use x="354.199219" xlink:href="#DejaVuSans-55"/>
       <use x="417.822266" xlink:href="#DejaVuSans-45"/>
       <use x="453.90625" xlink:href="#DejaVuSans-49"/>
       <use x="517.529297" xlink:href="#DejaVuSans-53"/>
      </g>
     </g>
    </g>
    <g id="xtick_17">
     <g id="line2d_44">
      <g>
       <use style="stroke:#000000;stroke-width:0.8;" x="481.956984" xlink:href="#mee9fb89843" y="945"/>
      </g>
     </g>
     <g id="text_40">
      <!-- 2021-08-01 -->
      <g transform="translate(452.899172 959.598438)scale(0.1 -0.1)">
       <use xlink:href="#DejaVuSans-50"/>
       <use x="63.623047" xlink:href="#DejaVuSans-48"/>
       <use x="127.246094" xlink:href="#DejaVuSans-50"/>
       <use x="190.869141" xlink:href="#DejaVuSans-49"/>
       <use x="254.492188" xlink:href="#DejaVuSans-45"/>
       <use x="290.576172" xlink:href="#DejaVuSans-48"/>
       <use x="354.199219" xlink:href="#DejaVuSans-56"/>
       <use x="417.822266" xlink:href="#DejaVuSans-45"/>
       <use x="453.90625" xlink:href="#DejaVuSans-48"/>
       <use x="517.529297" xlink:href="#DejaVuSans-49"/>
      </g>
     </g>
    </g>
    <g id="xtick_18">
     <g id="line2d_45">
      <g>
       <use style="stroke:#000000;stroke-width:0.8;" x="603.207539" xlink:href="#mee9fb89843" y="945"/>
      </g>
     </g>
     <g id="text_41">
      <!-- 2021-08-15 -->
      <g transform="translate(574.149726 959.598438)scale(0.1 -0.1)">
       <use xlink:href="#DejaVuSans-50"/>
       <use x="63.623047" xlink:href="#DejaVuSans-48"/>
       <use x="127.246094" xlink:href="#DejaVuSans-50"/>
       <use x="190.869141" xlink:href="#DejaVuSans-49"/>
       <use x="254.492188" xlink:href="#DejaVuSans-45"/>
       <use x="290.576172" xlink:href="#DejaVuSans-48"/>
       <use x="354.199219" xlink:href="#DejaVuSans-56"/>
       <use x="417.822266" xlink:href="#DejaVuSans-45"/>
       <use x="453.90625" xlink:href="#DejaVuSans-49"/>
       <use x="517.529297" xlink:href="#DejaVuSans-53"/>
      </g>
     </g>
    </g>
    <g id="xtick_19">
     <g id="line2d_46">
      <g>
       <use style="stroke:#000000;stroke-width:0.8;" x="750.440355" xlink:href="#mee9fb89843" y="945"/>
      </g>
     </g>
     <g id="text_42">
      <!-- 2021-09-01 -->
      <g transform="translate(721.382542 959.598438)scale(0.1 -0.1)">
       <use xlink:href="#DejaVuSans-50"/>
       <use x="63.623047" xlink:href="#DejaVuSans-48"/>
       <use x="127.246094" xlink:href="#DejaVuSans-50"/>
       <use x="190.869141" xlink:href="#DejaVuSans-49"/>
       <use x="254.492188" xlink:href="#DejaVuSans-45"/>
       <use x="290.576172" xlink:href="#DejaVuSans-48"/>
       <use x="354.199219" xlink:href="#DejaVuSans-57"/>
       <use x="417.822266" xlink:href="#DejaVuSans-45"/>
       <use x="453.90625" xlink:href="#DejaVuSans-48"/>
       <use x="517.529297" xlink:href="#DejaVuSans-49"/>
      </g>
     </g>
    </g>
    <g id="xtick_20">
     <g id="line2d_47">
      <g>
       <use style="stroke:#000000;stroke-width:0.8;" x="871.690909" xlink:href="#mee9fb89843" y="945"/>
      </g>
     </g>
     <g id="text_43">
      <!-- 2021-09-15 -->
      <g transform="translate(842.633097 959.598438)scale(0.1 -0.1)">
       <use xlink:href="#DejaVuSans-50"/>
       <use x="63.623047" xlink:href="#DejaVuSans-48"/>
       <use x="127.246094" xlink:href="#DejaVuSans-50"/>
       <use x="190.869141" xlink:href="#DejaVuSans-49"/>
       <use x="254.492188" xlink:href="#DejaVuSans-45"/>
       <use x="290.576172" xlink:href="#DejaVuSans-48"/>
       <use x="354.199219" xlink:href="#DejaVuSans-57"/>
       <use x="417.822266" xlink:href="#DejaVuSans-45"/>
       <use x="453.90625" xlink:href="#DejaVuSans-49"/>
       <use x="517.529297" xlink:href="#DejaVuSans-53"/>
      </g>
     </g>
    </g>
    <g id="text_44">
     <!-- Time, t [days] -->
     <g transform="translate(471.535703 975.556094)scale(0.13 -0.13)">
      <use xlink:href="#DejaVuSans-84"/>
      <use x="57.958984" xlink:href="#DejaVuSans-105"/>
      <use x="85.742188" xlink:href="#DejaVuSans-109"/>
      <use x="183.154297" xlink:href="#DejaVuSans-101"/>
      <use x="244.677734" xlink:href="#DejaVuSans-44"/>
      <use x="276.464844" xlink:href="#DejaVuSans-32"/>
      <use x="308.251953" xlink:href="#DejaVuSans-116"/>
      <use x="347.460938" xlink:href="#DejaVuSans-32"/>
      <use x="379.248047" xlink:href="#DejaVuSans-91"/>
      <use x="418.261719" xlink:href="#DejaVuSans-100"/>
      <use x="481.738281" xlink:href="#DejaVuSans-97"/>
      <use x="543.017578" xlink:href="#DejaVuSans-121"/>
      <use x="602.197266" xlink:href="#DejaVuSans-115"/>
      <use x="654.296875" xlink:href="#DejaVuSans-93"/>
     </g>
    </g>
   </g>
   <g id="matplotlib.axis_6">
    <g id="ytick_16">
     <g id="line2d_48">
      <g>
       <use style="stroke:#000000;stroke-width:0.8;" x="126" xlink:href="#mba8dc2eb85" y="934.09893"/>
      </g>
     </g>
     <g id="text_45">
      <!-- 0 -->
      <g transform="translate(112.6375 937.898149)scale(0.1 -0.1)">
       <use xlink:href="#DejaVuSans-48"/>
      </g>
     </g>
    </g>
    <g id="ytick_17">
     <g id="line2d_49">
      <g>
       <use style="stroke:#000000;stroke-width:0.8;" x="126" xlink:href="#mba8dc2eb85" y="896.102823"/>
      </g>
     </g>
     <g id="text_46">
      <!-- 5 -->
      <g transform="translate(112.6375 899.902042)scale(0.1 -0.1)">
       <use xlink:href="#DejaVuSans-53"/>
      </g>
     </g>
    </g>
    <g id="ytick_18">
     <g id="line2d_50">
      <g>
       <use style="stroke:#000000;stroke-width:0.8;" x="126" xlink:href="#mba8dc2eb85" y="858.106716"/>
      </g>
     </g>
     <g id="text_47">
      <!-- 10 -->
      <g transform="translate(106.275 861.905934)scale(0.1 -0.1)">
       <use xlink:href="#DejaVuSans-49"/>
       <use x="63.623047" xlink:href="#DejaVuSans-48"/>
      </g>
     </g>
    </g>
    <g id="ytick_19">
     <g id="line2d_51">
      <g>
       <use style="stroke:#000000;stroke-width:0.8;" x="126" xlink:href="#mba8dc2eb85" y="820.110608"/>
      </g>
     </g>
     <g id="text_48">
      <!-- 15 -->
      <g transform="translate(106.275 823.909827)scale(0.1 -0.1)">
       <use xlink:href="#DejaVuSans-49"/>
       <use x="63.623047" xlink:href="#DejaVuSans-53"/>
      </g>
     </g>
    </g>
    <g id="ytick_20">
     <g id="line2d_52">
      <g>
       <use style="stroke:#000000;stroke-width:0.8;" x="126" xlink:href="#mba8dc2eb85" y="782.114501"/>
      </g>
     </g>
     <g id="text_49">
      <!-- 20 -->
      <g transform="translate(106.275 785.91372)scale(0.1 -0.1)">
       <use xlink:href="#DejaVuSans-50"/>
       <use x="63.623047" xlink:href="#DejaVuSans-48"/>
      </g>
     </g>
    </g>
    <g id="ytick_21">
     <g id="line2d_53">
      <g>
       <use style="stroke:#000000;stroke-width:0.8;" x="126" xlink:href="#mba8dc2eb85" y="744.118393"/>
      </g>
     </g>
     <g id="text_50">
      <!-- 25 -->
      <g transform="translate(106.275 747.917612)scale(0.1 -0.1)">
       <use xlink:href="#DejaVuSans-50"/>
       <use x="63.623047" xlink:href="#DejaVuSans-53"/>
      </g>
     </g>
    </g>
    <g id="ytick_22">
     <g id="line2d_54">
      <g>
       <use style="stroke:#000000;stroke-width:0.8;" x="126" xlink:href="#mba8dc2eb85" y="706.122286"/>
      </g>
     </g>
     <g id="text_51">
      <!-- 30 -->
      <g transform="translate(106.275 709.921505)scale(0.1 -0.1)">
       <use xlink:href="#DejaVuSans-51"/>
       <use x="63.623047" xlink:href="#DejaVuSans-48"/>
      </g>
     </g>
    </g>
    <g id="text_52">
     <!-- icu_occ -->
     <g transform="translate(99.209844 848.962532)rotate(-90)scale(0.13 -0.13)">
      <use xlink:href="#DejaVuSans-105"/>
      <use x="27.783203" xlink:href="#DejaVuSans-99"/>
      <use x="82.763672" xlink:href="#DejaVuSans-117"/>
      <use x="146.142578" xlink:href="#DejaVuSans-95"/>
      <use x="196.142578" xlink:href="#DejaVuSans-111"/>
      <use x="257.324219" xlink:href="#DejaVuSans-99"/>
      <use x="312.304688" xlink:href="#DejaVuSans-99"/>
     </g>
    </g>
   </g>
   <g id="line2d_55">
    <path clip-path="url(#p205b34859a)" d="M 161.509091 934.09893 
L 170.169845 934.09893 
L 178.830599 934.09893 
L 187.491353 934.09893 
L 196.152106 934.09893 
L 204.81286 926.499709 
L 213.473614 926.499709 
L 222.134368 926.499709 
L 230.795122 911.301266 
L 239.455876 903.702045 
L 248.11663 903.702045 
L 256.777384 911.301266 
L 265.438137 896.102823 
L 274.098891 888.503602 
L 282.759645 873.305159 
L 291.420399 865.705937 
L 300.081153 873.305159 
L 308.741907 896.102823 
L 317.402661 896.102823 
L 326.063415 896.102823 
L 334.724169 888.503602 
L 343.384922 873.305159 
L 352.045676 850.507494 
L 360.70643 835.309051 
L 369.367184 850.507494 
L 378.027938 827.70983 
L 386.688692 804.912165 
L 395.349446 789.713722 
L 404.0102 797.312944 
L 412.670953 804.912165 
L 421.331707 789.713722 
L 429.992461 789.713722 
L 438.653215 774.515279 
L 447.313969 774.515279 
L 455.974723 774.515279 
L 464.635477 751.717615 
L 473.296231 751.717615 
L 481.956984 728.91995 
L 490.617738 759.316836 
L 499.278492 797.312944 
L 507.939246 804.912165 
L 516.6 774.515279 
L 525.260754 789.713722 
L 533.921508 797.312944 
L 542.582262 774.515279 
L 551.243016 782.114501 
L 559.903769 797.312944 
L 568.564523 804.912165 
L 577.225277 797.312944 
L 585.886031 789.713722 
L 594.546785 797.312944 
L 603.207539 774.515279 
L 611.868293 789.713722 
L 620.529047 804.912165 
L 629.1898 782.114501 
L 637.850554 827.70983 
L 646.511308 812.511387 
L 655.172062 804.912165 
L 663.832816 789.713722 
L 672.49357 797.312944 
L 681.154324 797.312944 
L 689.815078 797.312944 
L 698.475831 797.312944 
L 707.136585 812.511387 
L 715.797339 812.511387 
L 724.458093 820.110608 
L 733.118847 812.511387 
L 741.779601 827.70983 
L 750.440355 842.908273 
L 759.101109 850.507494 
L 767.761863 873.305159 
L 776.422616 880.90438 
L 785.08337 880.90438 
L 793.744124 896.102823 
L 802.404878 896.102823 
L 811.065632 896.102823 
L 819.726386 888.503602 
L 828.38714 880.90438 
L 837.047894 880.90438 
L 845.708647 873.305159 
L 854.369401 880.90438 
L 863.030155 888.503602 
L 871.690909 880.90438 
" style="fill:none;stroke:#0000ff;stroke-linecap:square;stroke-width:1.5;"/>
   </g>
   <g id="line2d_56">
    <path clip-path="url(#p205b34859a)" d="M 161.509091 899.069563 
L 170.169845 907.781784 
L 178.830599 906.088416 
L 187.491353 904.667075 
L 196.152106 923.655451 
L 204.81286 921.509161 
L 213.473614 919.70665 
L 222.134368 928.337332 
L 230.795122 926.494708 
L 239.455876 924.947802 
L 248.11663 923.653286 
L 256.777384 922.572425 
L 265.438137 921.670919 
L 274.098891 910.755007 
L 282.759645 910.711359 
L 291.420399 910.684328 
L 300.081153 890.371105 
L 308.741907 881.367359 
L 317.402661 882.95348 
L 326.063415 894.418162 
L 334.724169 874.740524 
L 343.384922 866.234741 
L 352.045676 847.888548 
L 360.70643 840.566897 
L 369.367184 853.763086 
L 378.027938 885.953525 
L 386.688692 885.859887 
L 395.349446 885.782238 
L 404.0102 875.664034 
L 412.670953 856.130093 
L 421.331707 827.548477 
L 429.992461 810.351465 
L 438.653215 834.398931 
L 447.313969 806.235153 
L 455.974723 779.157777 
L 464.635477 763.311526 
L 473.296231 778.929047 
L 481.956984 792.892713 
L 490.617738 775.167817 
L 499.278492 778.534529 
L 507.939246 761.033393 
L 516.6 764.615446 
L 525.260754 767.64276 
L 533.921508 739.640591 
L 542.582262 743.557821 
L 551.243016 716.07754 
L 559.903769 761.394843 
L 568.564523 813.384946 
L 577.225277 821.893757 
L 585.886031 779.839997 
L 594.546785 800.142678 
L 603.207539 809.48558 
L 611.868293 779.15028 
L 620.529047 789.643825 
L 629.1898 809.257715 
L 637.850554 818.112645 
L 646.511308 807.064267 
L 655.172062 796.766005 
L 663.832816 806.47495 
L 672.49357 776.884394 
L 681.154324 797.331493 
L 689.815078 816.57699 
L 698.475831 786.586352 
L 707.136585 844.658332 
L 715.797339 823.085008 
L 724.458093 812.520461 
L 733.118847 793.059718 
L 741.779601 803.074335 
L 750.440355 803.058961 
L 759.101109 803.044574 
L 767.761863 803.030205 
L 776.422616 821.989855 
L 785.08337 821.088232 
L 793.744124 829.801652 
L 802.404878 819.191587 
L 811.065632 837.637618 
L 819.726386 855.339266 
L 828.38714 862.836131 
L 837.047894 889.486249 
L 845.708647 895.813509 
L 854.369401 892.378997 
L 863.030155 908.932056 
L 871.690909 905.40324 
" style="fill:none;stroke:#ff0000;stroke-linecap:square;stroke-width:1.5;"/>
   </g>
   <g id="line2d_57">
    <path clip-path="url(#p205b34859a)" d="M 646.511308 945 
L 646.511308 705.176471 
" style="fill:none;stroke:#000000;stroke-linecap:square;stroke-width:1.5;"/>
   </g>
   <g id="patch_15">
    <path d="M 126 945 
L 126 705.176471 
" style="fill:none;stroke:#000000;stroke-linecap:square;stroke-linejoin:miter;stroke-width:0.8;"/>
   </g>
   <g id="patch_16">
    <path d="M 907.2 945 
L 907.2 705.176471 
" style="fill:none;stroke:#000000;stroke-linecap:square;stroke-linejoin:miter;stroke-width:0.8;"/>
   </g>
   <g id="patch_17">
    <path d="M 126 945 
L 907.2 945 
" style="fill:none;stroke:#000000;stroke-linecap:square;stroke-linejoin:miter;stroke-width:0.8;"/>
   </g>
   <g id="patch_18">
    <path d="M 126 705.176471 
L 907.2 705.176471 
" style="fill:none;stroke:#000000;stroke-linecap:square;stroke-linejoin:miter;stroke-width:0.8;"/>
   </g>
   <g id="legend_3">
    <g id="patch_19">
     <path d="M 751.984375 742.532721 
L 900.2 742.532721 
Q 902.2 742.532721 902.2 740.532721 
L 902.2 712.176471 
Q 902.2 710.176471 900.2 710.176471 
L 751.984375 710.176471 
Q 749.984375 710.176471 749.984375 712.176471 
L 749.984375 740.532721 
Q 749.984375 742.532721 751.984375 742.532721 
z
" style="fill:#ffffff;opacity:0.8;stroke:#cccccc;stroke-linejoin:miter;"/>
    </g>
    <g id="line2d_58">
     <path d="M 753.984375 718.274908 
L 773.984375 718.274908 
" style="fill:none;stroke:#0000ff;stroke-linecap:square;stroke-width:1.5;"/>
    </g>
    <g id="line2d_59"/>
    <g id="text_53">
     <!-- VAL and TEST Datasets -->
     <g transform="translate(781.984375 721.774908)scale(0.1 -0.1)">
      <defs>
       <path d="M 54.890625 33.015625 
L 54.890625 0 
L 45.90625 0 
L 45.90625 32.71875 
Q 45.90625 40.484375 42.875 44.328125 
Q 39.84375 48.1875 33.796875 48.1875 
Q 26.515625 48.1875 22.3125 43.546875 
Q 18.109375 38.921875 18.109375 30.90625 
L 18.109375 0 
L 9.078125 0 
L 9.078125 54.6875 
L 18.109375 54.6875 
L 18.109375 46.1875 
Q 21.34375 51.125 25.703125 53.5625 
Q 30.078125 56 35.796875 56 
Q 45.21875 56 50.046875 50.171875 
Q 54.890625 44.34375 54.890625 33.015625 
z
" id="DejaVuSans-110"/>
      </defs>
      <use xlink:href="#DejaVuSans-86"/>
      <use x="62.033203" xlink:href="#DejaVuSans-65"/>
      <use x="130.441406" xlink:href="#DejaVuSans-76"/>
      <use x="186.154297" xlink:href="#DejaVuSans-32"/>
      <use x="217.941406" xlink:href="#DejaVuSans-97"/>
      <use x="279.220703" xlink:href="#DejaVuSans-110"/>
      <use x="342.599609" xlink:href="#DejaVuSans-100"/>
      <use x="406.076172" xlink:href="#DejaVuSans-32"/>
      <use x="437.863281" xlink:href="#DejaVuSans-84"/>
      <use x="498.947266" xlink:href="#DejaVuSans-69"/>
      <use x="562.130859" xlink:href="#DejaVuSans-83"/>
      <use x="625.607422" xlink:href="#DejaVuSans-84"/>
      <use x="686.691406" xlink:href="#DejaVuSans-32"/>
      <use x="718.478516" xlink:href="#DejaVuSans-68"/>
      <use x="795.480469" xlink:href="#DejaVuSans-97"/>
      <use x="856.759766" xlink:href="#DejaVuSans-116"/>
      <use x="895.96875" xlink:href="#DejaVuSans-97"/>
      <use x="957.248047" xlink:href="#DejaVuSans-115"/>
      <use x="1009.347656" xlink:href="#DejaVuSans-101"/>
      <use x="1070.871094" xlink:href="#DejaVuSans-116"/>
      <use x="1110.080078" xlink:href="#DejaVuSans-115"/>
     </g>
    </g>
    <g id="line2d_60">
     <path d="M 753.984375 732.953033 
L 773.984375 732.953033 
" style="fill:none;stroke:#ff0000;stroke-linecap:square;stroke-width:1.5;"/>
    </g>
    <g id="line2d_61"/>
    <g id="text_54">
     <!-- Forecast -->
     <g transform="translate(781.984375 736.453033)scale(0.1 -0.1)">
      <use xlink:href="#DejaVuSans-70"/>
      <use x="53.894531" xlink:href="#DejaVuSans-111"/>
      <use x="115.076172" xlink:href="#DejaVuSans-114"/>
      <use x="153.939453" xlink:href="#DejaVuSans-101"/>
      <use x="215.462891" xlink:href="#DejaVuSans-99"/>
      <use x="270.443359" xlink:href="#DejaVuSans-97"/>
      <use x="331.722656" xlink:href="#DejaVuSans-115"/>
      <use x="383.822266" xlink:href="#DejaVuSans-116"/>
     </g>
    </g>
   </g>
  </g>
  <g id="text_55">
   <!-- ARIMA model -->
   <g transform="translate(454.10625 32.997656)scale(0.15 -0.15)">
    <defs>
     <path d="M 44.390625 34.1875 
Q 47.5625 33.109375 50.5625 29.59375 
Q 53.5625 26.078125 56.59375 19.921875 
L 66.609375 0 
L 56 0 
L 46.6875 18.703125 
Q 43.0625 26.03125 39.671875 28.421875 
Q 36.28125 30.8125 30.421875 30.8125 
L 19.671875 30.8125 
L 19.671875 0 
L 9.8125 0 
L 9.8125 72.90625 
L 32.078125 72.90625 
Q 44.578125 72.90625 50.734375 67.671875 
Q 56.890625 62.453125 56.890625 51.90625 
Q 56.890625 45.015625 53.6875 40.46875 
Q 50.484375 35.9375 44.390625 34.1875 
z
M 19.671875 64.796875 
L 19.671875 38.921875 
L 32.078125 38.921875 
Q 39.203125 38.921875 42.84375 42.21875 
Q 46.484375 45.515625 46.484375 51.90625 
Q 46.484375 58.296875 42.84375 61.546875 
Q 39.203125 64.796875 32.078125 64.796875 
z
" id="DejaVuSans-82"/>
     <path d="M 9.8125 72.90625 
L 19.671875 72.90625 
L 19.671875 0 
L 9.8125 0 
z
" id="DejaVuSans-73"/>
     <path d="M 9.8125 72.90625 
L 24.515625 72.90625 
L 43.109375 23.296875 
L 61.8125 72.90625 
L 76.515625 72.90625 
L 76.515625 0 
L 66.890625 0 
L 66.890625 64.015625 
L 48.09375 14.015625 
L 38.1875 14.015625 
L 19.390625 64.015625 
L 19.390625 0 
L 9.8125 0 
z
" id="DejaVuSans-77"/>
     <path d="M 9.421875 75.984375 
L 18.40625 75.984375 
L 18.40625 0 
L 9.421875 0 
z
" id="DejaVuSans-108"/>
    </defs>
    <use xlink:href="#DejaVuSans-65"/>
    <use x="68.408203" xlink:href="#DejaVuSans-82"/>
    <use x="137.890625" xlink:href="#DejaVuSans-73"/>
    <use x="167.382812" xlink:href="#DejaVuSans-77"/>
    <use x="253.662109" xlink:href="#DejaVuSans-65"/>
    <use x="322.070312" xlink:href="#DejaVuSans-32"/>
    <use x="353.857422" xlink:href="#DejaVuSans-109"/>
    <use x="451.269531" xlink:href="#DejaVuSans-111"/>
    <use x="512.451172" xlink:href="#DejaVuSans-100"/>
    <use x="575.927734" xlink:href="#DejaVuSans-101"/>
    <use x="637.451172" xlink:href="#DejaVuSans-108"/>
   </g>
  </g>
 </g>
 <defs>
  <clipPath id="p85d9a28bd9">
   <rect height="239.823529" width="781.2" x="126" y="129.6"/>
  </clipPath>
  <clipPath id="pde9f5f6623">
   <rect height="239.823529" width="781.2" x="126" y="417.388235"/>
  </clipPath>
  <clipPath id="p205b34859a">
   <rect height="239.823529" width="781.2" x="126" y="705.176471"/>
  </clipPath>
 </defs>
</svg>
