<?xml version="1.0" encoding="utf-8" standalone="no"?>
<!DOCTYPE svg PUBLIC "-//W3C//DTD SVG 1.1//EN"
  "http://www.w3.org/Graphics/SVG/1.1/DTD/svg11.dtd">
<!-- Created with matplotlib (https://matplotlib.org/) -->
<svg height="720pt" version="1.1" viewBox="0 0 1224 720" width="1224pt" xmlns="http://www.w3.org/2000/svg" xmlns:xlink="http://www.w3.org/1999/xlink">
 <metadata>
  <rdf:RDF xmlns:cc="http://creativecommons.org/ns#" xmlns:dc="http://purl.org/dc/elements/1.1/" xmlns:rdf="http://www.w3.org/1999/02/22-rdf-syntax-ns#">
   <cc:Work>
    <dc:type rdf:resource="http://purl.org/dc/dcmitype/StillImage"/>
    <dc:date>2021-09-27T10:04:33.037514</dc:date>
    <dc:format>image/svg+xml</dc:format>
    <dc:creator>
     <cc:Agent>
      <dc:title>Matplotlib v3.3.3, https://matplotlib.org/</dc:title>
     </cc:Agent>
    </dc:creator>
   </cc:Work>
  </rdf:RDF>
 </metadata>
 <defs>
  <style type="text/css">*{stroke-linecap:butt;stroke-linejoin:round;}</style>
 </defs>
 <g id="figure_1">
  <g id="patch_1">
   <path d="M 0 720 
L 1224 720 
L 1224 0 
L 0 0 
z
" style="fill:none;"/>
  </g>
  <g id="axes_1">
   <g id="patch_2">
    <path d="M 153 246.282353 
L 1101.6 246.282353 
L 1101.6 86.4 
L 153 86.4 
z
" style="fill:#ffffff;"/>
   </g>
   <g id="matplotlib.axis_1">
    <g id="xtick_1">
     <g id="line2d_1">
      <defs>
       <path d="M 0 0 
L 0 3.5 
" id="m5089daec48" style="stroke:#000000;stroke-width:0.8;"/>
      </defs>
      <g>
       <use style="stroke:#000000;stroke-width:0.8;" x="153" xlink:href="#m5089daec48" y="246.282353"/>
      </g>
     </g>
    </g>
    <g id="xtick_2">
     <g id="line2d_2">
      <g>
       <use style="stroke:#000000;stroke-width:0.8;" x="206.821277" xlink:href="#m5089daec48" y="246.282353"/>
      </g>
     </g>
     <g id="text_1">
      <!-- Apr -->
      <g transform="translate(198.171277 260.88079)scale(0.1 -0.1)">
       <defs>
        <path d="M 34.1875 63.1875 
L 20.796875 26.90625 
L 47.609375 26.90625 
z
M 28.609375 72.90625 
L 39.796875 72.90625 
L 67.578125 0 
L 57.328125 0 
L 50.6875 18.703125 
L 17.828125 18.703125 
L 11.1875 0 
L 0.78125 0 
z
" id="DejaVuSans-65"/>
        <path d="M 18.109375 8.203125 
L 18.109375 -20.796875 
L 9.078125 -20.796875 
L 9.078125 54.6875 
L 18.109375 54.6875 
L 18.109375 46.390625 
Q 20.953125 51.265625 25.265625 53.625 
Q 29.59375 56 35.59375 56 
Q 45.5625 56 51.78125 48.09375 
Q 58.015625 40.1875 58.015625 27.296875 
Q 58.015625 14.40625 51.78125 6.484375 
Q 45.5625 -1.421875 35.59375 -1.421875 
Q 29.59375 -1.421875 25.265625 0.953125 
Q 20.953125 3.328125 18.109375 8.203125 
z
M 48.6875 27.296875 
Q 48.6875 37.203125 44.609375 42.84375 
Q 40.53125 48.484375 33.40625 48.484375 
Q 26.265625 48.484375 22.1875 42.84375 
Q 18.109375 37.203125 18.109375 27.296875 
Q 18.109375 17.390625 22.1875 11.75 
Q 26.265625 6.109375 33.40625 6.109375 
Q 40.53125 6.109375 44.609375 11.75 
Q 48.6875 17.390625 48.6875 27.296875 
z
" id="DejaVuSans-112"/>
        <path d="M 41.109375 46.296875 
Q 39.59375 47.171875 37.8125 47.578125 
Q 36.03125 48 33.890625 48 
Q 26.265625 48 22.1875 43.046875 
Q 18.109375 38.09375 18.109375 28.8125 
L 18.109375 0 
L 9.078125 0 
L 9.078125 54.6875 
L 18.109375 54.6875 
L 18.109375 46.1875 
Q 20.953125 51.171875 25.484375 53.578125 
Q 30.03125 56 36.53125 56 
Q 37.453125 56 38.578125 55.875 
Q 39.703125 55.765625 41.0625 55.515625 
z
" id="DejaVuSans-114"/>
       </defs>
       <use xlink:href="#DejaVuSans-65"/>
       <use x="68.408203" xlink:href="#DejaVuSans-112"/>
       <use x="131.884766" xlink:href="#DejaVuSans-114"/>
      </g>
     </g>
    </g>
    <g id="xtick_3">
     <g id="line2d_3">
      <g>
       <use style="stroke:#000000;stroke-width:0.8;" x="359.875532" xlink:href="#m5089daec48" y="246.282353"/>
      </g>
     </g>
     <g id="text_2">
      <!-- Jul -->
      <g transform="translate(353.842719 260.88079)scale(0.1 -0.1)">
       <defs>
        <path d="M 9.8125 72.90625 
L 19.671875 72.90625 
L 19.671875 5.078125 
Q 19.671875 -8.109375 14.671875 -14.0625 
Q 9.671875 -20.015625 -1.421875 -20.015625 
L -5.171875 -20.015625 
L -5.171875 -11.71875 
L -2.09375 -11.71875 
Q 4.4375 -11.71875 7.125 -8.046875 
Q 9.8125 -4.390625 9.8125 5.078125 
z
" id="DejaVuSans-74"/>
        <path d="M 8.5 21.578125 
L 8.5 54.6875 
L 17.484375 54.6875 
L 17.484375 21.921875 
Q 17.484375 14.15625 20.5 10.265625 
Q 23.53125 6.390625 29.59375 6.390625 
Q 36.859375 6.390625 41.078125 11.03125 
Q 45.3125 15.671875 45.3125 23.6875 
L 45.3125 54.6875 
L 54.296875 54.6875 
L 54.296875 0 
L 45.3125 0 
L 45.3125 8.40625 
Q 42.046875 3.421875 37.71875 1 
Q 33.40625 -1.421875 27.6875 -1.421875 
Q 18.265625 -1.421875 13.375 4.4375 
Q 8.5 10.296875 8.5 21.578125 
z
M 31.109375 56 
z
" id="DejaVuSans-117"/>
        <path d="M 9.421875 75.984375 
L 18.40625 75.984375 
L 18.40625 0 
L 9.421875 0 
z
" id="DejaVuSans-108"/>
       </defs>
       <use xlink:href="#DejaVuSans-74"/>
       <use x="29.492188" xlink:href="#DejaVuSans-117"/>
       <use x="92.871094" xlink:href="#DejaVuSans-108"/>
      </g>
     </g>
    </g>
    <g id="xtick_4">
     <g id="line2d_4">
      <g>
       <use style="stroke:#000000;stroke-width:0.8;" x="514.611702" xlink:href="#m5089daec48" y="246.282353"/>
      </g>
     </g>
     <g id="text_3">
      <!-- Oct -->
      <g transform="translate(505.96639 260.88079)scale(0.1 -0.1)">
       <defs>
        <path d="M 39.40625 66.21875 
Q 28.65625 66.21875 22.328125 58.203125 
Q 16.015625 50.203125 16.015625 36.375 
Q 16.015625 22.609375 22.328125 14.59375 
Q 28.65625 6.59375 39.40625 6.59375 
Q 50.140625 6.59375 56.421875 14.59375 
Q 62.703125 22.609375 62.703125 36.375 
Q 62.703125 50.203125 56.421875 58.203125 
Q 50.140625 66.21875 39.40625 66.21875 
z
M 39.40625 74.21875 
Q 54.734375 74.21875 63.90625 63.9375 
Q 73.09375 53.65625 73.09375 36.375 
Q 73.09375 19.140625 63.90625 8.859375 
Q 54.734375 -1.421875 39.40625 -1.421875 
Q 24.03125 -1.421875 14.8125 8.828125 
Q 5.609375 19.09375 5.609375 36.375 
Q 5.609375 53.65625 14.8125 63.9375 
Q 24.03125 74.21875 39.40625 74.21875 
z
" id="DejaVuSans-79"/>
        <path d="M 48.78125 52.59375 
L 48.78125 44.1875 
Q 44.96875 46.296875 41.140625 47.34375 
Q 37.3125 48.390625 33.40625 48.390625 
Q 24.65625 48.390625 19.8125 42.84375 
Q 14.984375 37.3125 14.984375 27.296875 
Q 14.984375 17.28125 19.8125 11.734375 
Q 24.65625 6.203125 33.40625 6.203125 
Q 37.3125 6.203125 41.140625 7.25 
Q 44.96875 8.296875 48.78125 10.40625 
L 48.78125 2.09375 
Q 45.015625 0.34375 40.984375 -0.53125 
Q 36.96875 -1.421875 32.421875 -1.421875 
Q 20.0625 -1.421875 12.78125 6.34375 
Q 5.515625 14.109375 5.515625 27.296875 
Q 5.515625 40.671875 12.859375 48.328125 
Q 20.21875 56 33.015625 56 
Q 37.15625 56 41.109375 55.140625 
Q 45.0625 54.296875 48.78125 52.59375 
z
" id="DejaVuSans-99"/>
        <path d="M 18.3125 70.21875 
L 18.3125 54.6875 
L 36.8125 54.6875 
L 36.8125 47.703125 
L 18.3125 47.703125 
L 18.3125 18.015625 
Q 18.3125 11.328125 20.140625 9.421875 
Q 21.96875 7.515625 27.59375 7.515625 
L 36.8125 7.515625 
L 36.8125 0 
L 27.59375 0 
Q 17.1875 0 13.234375 3.875 
Q 9.28125 7.765625 9.28125 18.015625 
L 9.28125 47.703125 
L 2.6875 47.703125 
L 2.6875 54.6875 
L 9.28125 54.6875 
L 9.28125 70.21875 
z
" id="DejaVuSans-116"/>
       </defs>
       <use xlink:href="#DejaVuSans-79"/>
       <use x="78.710938" xlink:href="#DejaVuSans-99"/>
       <use x="133.691406" xlink:href="#DejaVuSans-116"/>
      </g>
     </g>
    </g>
    <g id="xtick_5">
     <g id="line2d_5">
      <g>
       <use style="stroke:#000000;stroke-width:0.8;" x="669.347872" xlink:href="#m5089daec48" y="246.282353"/>
      </g>
     </g>
     <g id="text_4">
      <!-- Jan -->
      <g transform="translate(661.64006 260.88079)scale(0.1 -0.1)">
       <defs>
        <path d="M 34.28125 27.484375 
Q 23.390625 27.484375 19.1875 25 
Q 14.984375 22.515625 14.984375 16.5 
Q 14.984375 11.71875 18.140625 8.90625 
Q 21.296875 6.109375 26.703125 6.109375 
Q 34.1875 6.109375 38.703125 11.40625 
Q 43.21875 16.703125 43.21875 25.484375 
L 43.21875 27.484375 
z
M 52.203125 31.203125 
L 52.203125 0 
L 43.21875 0 
L 43.21875 8.296875 
Q 40.140625 3.328125 35.546875 0.953125 
Q 30.953125 -1.421875 24.3125 -1.421875 
Q 15.921875 -1.421875 10.953125 3.296875 
Q 6 8.015625 6 15.921875 
Q 6 25.140625 12.171875 29.828125 
Q 18.359375 34.515625 30.609375 34.515625 
L 43.21875 34.515625 
L 43.21875 35.40625 
Q 43.21875 41.609375 39.140625 45 
Q 35.0625 48.390625 27.6875 48.390625 
Q 23 48.390625 18.546875 47.265625 
Q 14.109375 46.140625 10.015625 43.890625 
L 10.015625 52.203125 
Q 14.9375 54.109375 19.578125 55.046875 
Q 24.21875 56 28.609375 56 
Q 40.484375 56 46.34375 49.84375 
Q 52.203125 43.703125 52.203125 31.203125 
z
" id="DejaVuSans-97"/>
        <path d="M 54.890625 33.015625 
L 54.890625 0 
L 45.90625 0 
L 45.90625 32.71875 
Q 45.90625 40.484375 42.875 44.328125 
Q 39.84375 48.1875 33.796875 48.1875 
Q 26.515625 48.1875 22.3125 43.546875 
Q 18.109375 38.921875 18.109375 30.90625 
L 18.109375 0 
L 9.078125 0 
L 9.078125 54.6875 
L 18.109375 54.6875 
L 18.109375 46.1875 
Q 21.34375 51.125 25.703125 53.5625 
Q 30.078125 56 35.796875 56 
Q 45.21875 56 50.046875 50.171875 
Q 54.890625 44.34375 54.890625 33.015625 
z
" id="DejaVuSans-110"/>
       </defs>
       <use xlink:href="#DejaVuSans-74"/>
       <use x="29.492188" xlink:href="#DejaVuSans-97"/>
       <use x="90.771484" xlink:href="#DejaVuSans-110"/>
      </g>
      <!-- 2021 -->
      <g transform="translate(656.622872 272.078603)scale(0.1 -0.1)">
       <defs>
        <path d="M 19.1875 8.296875 
L 53.609375 8.296875 
L 53.609375 0 
L 7.328125 0 
L 7.328125 8.296875 
Q 12.9375 14.109375 22.625 23.890625 
Q 32.328125 33.6875 34.8125 36.53125 
Q 39.546875 41.84375 41.421875 45.53125 
Q 43.3125 49.21875 43.3125 52.78125 
Q 43.3125 58.59375 39.234375 62.25 
Q 35.15625 65.921875 28.609375 65.921875 
Q 23.96875 65.921875 18.8125 64.3125 
Q 13.671875 62.703125 7.8125 59.421875 
L 7.8125 69.390625 
Q 13.765625 71.78125 18.9375 73 
Q 24.125 74.21875 28.421875 74.21875 
Q 39.75 74.21875 46.484375 68.546875 
Q 53.21875 62.890625 53.21875 53.421875 
Q 53.21875 48.921875 51.53125 44.890625 
Q 49.859375 40.875 45.40625 35.40625 
Q 44.1875 33.984375 37.640625 27.21875 
Q 31.109375 20.453125 19.1875 8.296875 
z
" id="DejaVuSans-50"/>
        <path d="M 31.78125 66.40625 
Q 24.171875 66.40625 20.328125 58.90625 
Q 16.5 51.421875 16.5 36.375 
Q 16.5 21.390625 20.328125 13.890625 
Q 24.171875 6.390625 31.78125 6.390625 
Q 39.453125 6.390625 43.28125 13.890625 
Q 47.125 21.390625 47.125 36.375 
Q 47.125 51.421875 43.28125 58.90625 
Q 39.453125 66.40625 31.78125 66.40625 
z
M 31.78125 74.21875 
Q 44.046875 74.21875 50.515625 64.515625 
Q 56.984375 54.828125 56.984375 36.375 
Q 56.984375 17.96875 50.515625 8.265625 
Q 44.046875 -1.421875 31.78125 -1.421875 
Q 19.53125 -1.421875 13.0625 8.265625 
Q 6.59375 17.96875 6.59375 36.375 
Q 6.59375 54.828125 13.0625 64.515625 
Q 19.53125 74.21875 31.78125 74.21875 
z
" id="DejaVuSans-48"/>
        <path d="M 12.40625 8.296875 
L 28.515625 8.296875 
L 28.515625 63.921875 
L 10.984375 60.40625 
L 10.984375 69.390625 
L 28.421875 72.90625 
L 38.28125 72.90625 
L 38.28125 8.296875 
L 54.390625 8.296875 
L 54.390625 0 
L 12.40625 0 
z
" id="DejaVuSans-49"/>
       </defs>
       <use xlink:href="#DejaVuSans-50"/>
       <use x="63.623047" xlink:href="#DejaVuSans-48"/>
       <use x="127.246094" xlink:href="#DejaVuSans-50"/>
       <use x="190.869141" xlink:href="#DejaVuSans-49"/>
      </g>
     </g>
    </g>
    <g id="xtick_6">
     <g id="line2d_6">
      <g>
       <use style="stroke:#000000;stroke-width:0.8;" x="820.720213" xlink:href="#m5089daec48" y="246.282353"/>
      </g>
     </g>
     <g id="text_5">
      <!-- Apr -->
      <g transform="translate(812.070213 260.88079)scale(0.1 -0.1)">
       <use xlink:href="#DejaVuSans-65"/>
       <use x="68.408203" xlink:href="#DejaVuSans-112"/>
       <use x="131.884766" xlink:href="#DejaVuSans-114"/>
      </g>
     </g>
    </g>
    <g id="xtick_7">
     <g id="line2d_7">
      <g>
       <use style="stroke:#000000;stroke-width:0.8;" x="973.774468" xlink:href="#m5089daec48" y="246.282353"/>
      </g>
     </g>
     <g id="text_6">
      <!-- Jul -->
      <g transform="translate(967.741656 260.88079)scale(0.1 -0.1)">
       <use xlink:href="#DejaVuSans-74"/>
       <use x="29.492188" xlink:href="#DejaVuSans-117"/>
       <use x="92.871094" xlink:href="#DejaVuSans-108"/>
      </g>
     </g>
    </g>
    <g id="xtick_8">
     <g id="line2d_8">
      <g>
       <use style="stroke:#000000;stroke-width:0.8;" x="1101.6" xlink:href="#m5089daec48" y="246.282353"/>
      </g>
     </g>
    </g>
    <g id="xtick_9">
     <g id="line2d_9">
      <defs>
       <path d="M 0 0 
L 0 2 
" id="m84aa36aa33" style="stroke:#000000;stroke-width:0.6;"/>
      </defs>
      <g>
       <use style="stroke:#000000;stroke-width:0.6;" x="154.681915" xlink:href="#m84aa36aa33" y="246.282353"/>
      </g>
     </g>
    </g>
    <g id="xtick_10">
     <g id="line2d_10">
      <g>
       <use style="stroke:#000000;stroke-width:0.6;" x="257.278723" xlink:href="#m84aa36aa33" y="246.282353"/>
      </g>
     </g>
    </g>
    <g id="xtick_11">
     <g id="line2d_11">
      <g>
       <use style="stroke:#000000;stroke-width:0.6;" x="309.418085" xlink:href="#m84aa36aa33" y="246.282353"/>
      </g>
     </g>
    </g>
    <g id="xtick_12">
     <g id="line2d_12">
      <g>
       <use style="stroke:#000000;stroke-width:0.6;" x="412.014894" xlink:href="#m84aa36aa33" y="246.282353"/>
      </g>
     </g>
    </g>
    <g id="xtick_13">
     <g id="line2d_13">
      <g>
       <use style="stroke:#000000;stroke-width:0.6;" x="464.154255" xlink:href="#m84aa36aa33" y="246.282353"/>
      </g>
     </g>
    </g>
    <g id="xtick_14">
     <g id="line2d_14">
      <g>
       <use style="stroke:#000000;stroke-width:0.6;" x="566.751064" xlink:href="#m84aa36aa33" y="246.282353"/>
      </g>
     </g>
    </g>
    <g id="xtick_15">
     <g id="line2d_15">
      <g>
       <use style="stroke:#000000;stroke-width:0.6;" x="617.208511" xlink:href="#m84aa36aa33" y="246.282353"/>
      </g>
     </g>
    </g>
    <g id="xtick_16">
     <g id="line2d_16">
      <g>
       <use style="stroke:#000000;stroke-width:0.6;" x="721.487234" xlink:href="#m84aa36aa33" y="246.282353"/>
      </g>
     </g>
    </g>
    <g id="xtick_17">
     <g id="line2d_17">
      <g>
       <use style="stroke:#000000;stroke-width:0.6;" x="768.580851" xlink:href="#m84aa36aa33" y="246.282353"/>
      </g>
     </g>
    </g>
    <g id="xtick_18">
     <g id="line2d_18">
      <g>
       <use style="stroke:#000000;stroke-width:0.6;" x="871.17766" xlink:href="#m84aa36aa33" y="246.282353"/>
      </g>
     </g>
    </g>
    <g id="xtick_19">
     <g id="line2d_19">
      <g>
       <use style="stroke:#000000;stroke-width:0.6;" x="923.317021" xlink:href="#m84aa36aa33" y="246.282353"/>
      </g>
     </g>
    </g>
    <g id="xtick_20">
     <g id="line2d_20">
      <g>
       <use style="stroke:#000000;stroke-width:0.6;" x="1025.91383" xlink:href="#m84aa36aa33" y="246.282353"/>
      </g>
     </g>
    </g>
    <g id="xtick_21">
     <g id="line2d_21">
      <g>
       <use style="stroke:#000000;stroke-width:0.6;" x="1078.053191" xlink:href="#m84aa36aa33" y="246.282353"/>
      </g>
     </g>
    </g>
    <g id="text_7">
     <!-- date -->
     <g transform="translate(616.025 285.756728)scale(0.1 -0.1)">
      <defs>
       <path d="M 45.40625 46.390625 
L 45.40625 75.984375 
L 54.390625 75.984375 
L 54.390625 0 
L 45.40625 0 
L 45.40625 8.203125 
Q 42.578125 3.328125 38.25 0.953125 
Q 33.9375 -1.421875 27.875 -1.421875 
Q 17.96875 -1.421875 11.734375 6.484375 
Q 5.515625 14.40625 5.515625 27.296875 
Q 5.515625 40.1875 11.734375 48.09375 
Q 17.96875 56 27.875 56 
Q 33.9375 56 38.25 53.625 
Q 42.578125 51.265625 45.40625 46.390625 
z
M 14.796875 27.296875 
Q 14.796875 17.390625 18.875 11.75 
Q 22.953125 6.109375 30.078125 6.109375 
Q 37.203125 6.109375 41.296875 11.75 
Q 45.40625 17.390625 45.40625 27.296875 
Q 45.40625 37.203125 41.296875 42.84375 
Q 37.203125 48.484375 30.078125 48.484375 
Q 22.953125 48.484375 18.875 42.84375 
Q 14.796875 37.203125 14.796875 27.296875 
z
" id="DejaVuSans-100"/>
       <path d="M 56.203125 29.59375 
L 56.203125 25.203125 
L 14.890625 25.203125 
Q 15.484375 15.921875 20.484375 11.0625 
Q 25.484375 6.203125 34.421875 6.203125 
Q 39.59375 6.203125 44.453125 7.46875 
Q 49.3125 8.734375 54.109375 11.28125 
L 54.109375 2.78125 
Q 49.265625 0.734375 44.1875 -0.34375 
Q 39.109375 -1.421875 33.890625 -1.421875 
Q 20.796875 -1.421875 13.15625 6.1875 
Q 5.515625 13.8125 5.515625 26.8125 
Q 5.515625 40.234375 12.765625 48.109375 
Q 20.015625 56 32.328125 56 
Q 43.359375 56 49.78125 48.890625 
Q 56.203125 41.796875 56.203125 29.59375 
z
M 47.21875 32.234375 
Q 47.125 39.59375 43.09375 43.984375 
Q 39.0625 48.390625 32.421875 48.390625 
Q 24.90625 48.390625 20.390625 44.140625 
Q 15.875 39.890625 15.1875 32.171875 
z
" id="DejaVuSans-101"/>
      </defs>
      <use xlink:href="#DejaVuSans-100"/>
      <use x="63.476562" xlink:href="#DejaVuSans-97"/>
      <use x="124.755859" xlink:href="#DejaVuSans-116"/>
      <use x="163.964844" xlink:href="#DejaVuSans-101"/>
     </g>
    </g>
   </g>
   <g id="matplotlib.axis_2">
    <g id="ytick_1">
     <g id="line2d_22">
      <defs>
       <path d="M 0 0 
L -3.5 0 
" id="m521f261587" style="stroke:#000000;stroke-width:0.8;"/>
      </defs>
      <g>
       <use style="stroke:#000000;stroke-width:0.8;" x="153" xlink:href="#m521f261587" y="239.014973"/>
      </g>
     </g>
     <g id="text_8">
      <!-- 0 -->
      <g transform="translate(139.6375 242.814192)scale(0.1 -0.1)">
       <use xlink:href="#DejaVuSans-48"/>
      </g>
     </g>
    </g>
    <g id="ytick_2">
     <g id="line2d_23">
      <g>
       <use style="stroke:#000000;stroke-width:0.8;" x="153" xlink:href="#m521f261587" y="204.572416"/>
      </g>
     </g>
     <g id="text_9">
      <!-- 100 -->
      <g transform="translate(126.9125 208.371634)scale(0.1 -0.1)">
       <use xlink:href="#DejaVuSans-49"/>
       <use x="63.623047" xlink:href="#DejaVuSans-48"/>
       <use x="127.246094" xlink:href="#DejaVuSans-48"/>
      </g>
     </g>
    </g>
    <g id="ytick_3">
     <g id="line2d_24">
      <g>
       <use style="stroke:#000000;stroke-width:0.8;" x="153" xlink:href="#m521f261587" y="170.129858"/>
      </g>
     </g>
     <g id="text_10">
      <!-- 200 -->
      <g transform="translate(126.9125 173.929077)scale(0.1 -0.1)">
       <use xlink:href="#DejaVuSans-50"/>
       <use x="63.623047" xlink:href="#DejaVuSans-48"/>
       <use x="127.246094" xlink:href="#DejaVuSans-48"/>
      </g>
     </g>
    </g>
    <g id="ytick_4">
     <g id="line2d_25">
      <g>
       <use style="stroke:#000000;stroke-width:0.8;" x="153" xlink:href="#m521f261587" y="135.6873"/>
      </g>
     </g>
     <g id="text_11">
      <!-- 300 -->
      <g transform="translate(126.9125 139.486519)scale(0.1 -0.1)">
       <defs>
        <path d="M 40.578125 39.3125 
Q 47.65625 37.796875 51.625 33 
Q 55.609375 28.21875 55.609375 21.1875 
Q 55.609375 10.40625 48.1875 4.484375 
Q 40.765625 -1.421875 27.09375 -1.421875 
Q 22.515625 -1.421875 17.65625 -0.515625 
Q 12.796875 0.390625 7.625 2.203125 
L 7.625 11.71875 
Q 11.71875 9.328125 16.59375 8.109375 
Q 21.484375 6.890625 26.8125 6.890625 
Q 36.078125 6.890625 40.9375 10.546875 
Q 45.796875 14.203125 45.796875 21.1875 
Q 45.796875 27.640625 41.28125 31.265625 
Q 36.765625 34.90625 28.71875 34.90625 
L 20.21875 34.90625 
L 20.21875 43.015625 
L 29.109375 43.015625 
Q 36.375 43.015625 40.234375 45.921875 
Q 44.09375 48.828125 44.09375 54.296875 
Q 44.09375 59.90625 40.109375 62.90625 
Q 36.140625 65.921875 28.71875 65.921875 
Q 24.65625 65.921875 20.015625 65.03125 
Q 15.375 64.15625 9.8125 62.3125 
L 9.8125 71.09375 
Q 15.4375 72.65625 20.34375 73.4375 
Q 25.25 74.21875 29.59375 74.21875 
Q 40.828125 74.21875 47.359375 69.109375 
Q 53.90625 64.015625 53.90625 55.328125 
Q 53.90625 49.265625 50.4375 45.09375 
Q 46.96875 40.921875 40.578125 39.3125 
z
" id="DejaVuSans-51"/>
       </defs>
       <use xlink:href="#DejaVuSans-51"/>
       <use x="63.623047" xlink:href="#DejaVuSans-48"/>
       <use x="127.246094" xlink:href="#DejaVuSans-48"/>
      </g>
     </g>
    </g>
    <g id="ytick_5">
     <g id="line2d_26">
      <g>
       <use style="stroke:#000000;stroke-width:0.8;" x="153" xlink:href="#m521f261587" y="101.244742"/>
      </g>
     </g>
     <g id="text_12">
      <!-- 400 -->
      <g transform="translate(126.9125 105.043961)scale(0.1 -0.1)">
       <defs>
        <path d="M 37.796875 64.3125 
L 12.890625 25.390625 
L 37.796875 25.390625 
z
M 35.203125 72.90625 
L 47.609375 72.90625 
L 47.609375 25.390625 
L 58.015625 25.390625 
L 58.015625 17.1875 
L 47.609375 17.1875 
L 47.609375 0 
L 37.796875 0 
L 37.796875 17.1875 
L 4.890625 17.1875 
L 4.890625 26.703125 
z
" id="DejaVuSans-52"/>
       </defs>
       <use xlink:href="#DejaVuSans-52"/>
       <use x="63.623047" xlink:href="#DejaVuSans-48"/>
       <use x="127.246094" xlink:href="#DejaVuSans-48"/>
      </g>
     </g>
    </g>
   </g>
   <g id="line2d_27">
    <path clip-path="url(#p0977d8101d)" d="M 153 238.670548 
L 154.681915 239.014973 
L 156.36383 235.915143 
L 158.045745 239.014973 
L 161.409574 239.014973 
L 163.091489 238.670548 
L 164.773404 238.670548 
L 166.455319 239.014973 
L 171.501064 239.014973 
L 173.182979 236.259569 
L 174.864894 234.881866 
L 176.546809 233.159738 
L 178.228723 235.915143 
L 179.910638 237.981697 
L 181.592553 233.159738 
L 184.956383 220.071567 
L 186.638298 218.693864 
L 188.320213 215.594034 
L 191.684043 212.838629 
L 193.365957 208.705522 
L 195.047872 177.018369 
L 196.729787 189.762116 
L 198.411702 205.261267 
L 200.093617 209.738799 
L 201.775532 209.049948 
L 203.457447 219.03829 
L 205.139362 219.382715 
L 206.821277 225.926801 
L 208.503191 213.871906 
L 210.185106 215.249608 
L 211.867021 225.23795 
L 213.548936 229.371057 
L 215.230851 227.993355 
L 216.912766 213.871906 
L 218.594681 218.349439 
L 220.276596 226.271227 
L 221.958511 215.594034 
L 223.640426 230.059908 
L 225.32234 222.826971 
L 227.004255 234.537441 
L 228.68617 227.648929 
L 230.368085 230.404334 
L 232.05 218.349439 
L 233.731915 225.926801 
L 235.41383 221.104843 
L 237.095745 225.23795 
L 238.77766 227.993355 
L 240.459574 225.582376 
L 242.141489 220.760418 
L 243.823404 216.971736 
L 245.505319 225.926801 
L 247.187234 233.504164 
L 248.869149 231.093185 
L 250.551064 225.582376 
L 252.232979 221.793694 
L 253.914894 216.282885 
L 255.596809 223.171397 
L 257.278723 229.026632 
L 258.960638 236.94842 
L 260.642553 238.326122 
L 262.324468 234.881866 
L 264.006383 229.715483 
L 265.688298 233.84859 
L 267.370213 227.648929 
L 269.052128 236.603994 
L 270.734043 237.981697 
L 272.415957 238.670548 
L 274.097872 233.159738 
L 275.779787 232.470887 
L 277.461702 235.915143 
L 279.143617 232.126462 
L 280.825532 235.915143 
L 282.507447 237.981697 
L 284.189362 237.981697 
L 285.871277 236.259569 
L 287.553191 237.292845 
L 289.235106 235.915143 
L 290.917021 237.292845 
L 292.598936 236.259569 
L 294.280851 238.326122 
L 295.962766 239.014973 
L 297.644681 236.603994 
L 299.326596 237.981697 
L 301.008511 234.193015 
L 302.690426 237.637271 
L 304.37234 236.259569 
L 306.054255 238.326122 
L 307.73617 238.326122 
L 309.418085 237.637271 
L 311.1 236.259569 
L 312.781915 237.637271 
L 314.46383 236.94842 
L 316.145745 237.292845 
L 317.82766 239.014973 
L 319.509574 238.326122 
L 321.191489 236.259569 
L 322.873404 238.326122 
L 324.555319 237.292845 
L 326.237234 237.292845 
L 327.919149 235.570717 
L 329.601064 238.326122 
L 331.282979 238.670548 
L 332.964894 236.603994 
L 334.646809 237.637271 
L 336.328723 234.193015 
L 338.010638 233.84859 
L 339.692553 234.881866 
L 341.374468 238.670548 
L 343.056383 236.94842 
L 344.738298 234.881866 
L 346.420213 236.603994 
L 348.102128 229.715483 
L 349.784043 236.259569 
L 351.465957 235.226292 
L 353.147872 236.94842 
L 354.829787 239.014973 
L 356.511702 236.94842 
L 358.193617 234.537441 
L 359.875532 236.603994 
L 361.557447 236.603994 
L 363.239362 236.259569 
L 364.921277 238.670548 
L 366.603191 239.014973 
L 368.285106 237.637271 
L 369.967021 237.292845 
L 371.648936 235.226292 
L 373.330851 237.637271 
L 375.012766 237.981697 
L 376.694681 239.014973 
L 378.376596 237.981697 
L 380.058511 238.326122 
L 381.740426 236.603994 
L 383.42234 235.915143 
L 385.104255 237.637271 
L 386.78617 236.603994 
L 388.468085 236.259569 
L 390.15 231.782036 
L 391.831915 234.537441 
L 393.51383 238.326122 
L 396.87766 234.193015 
L 398.559574 234.881866 
L 400.241489 236.94842 
L 401.923404 237.292845 
L 403.605319 234.537441 
L 405.287234 238.670548 
L 406.969149 236.94842 
L 408.651064 225.926801 
L 410.332979 232.126462 
L 412.014894 230.748759 
L 413.696809 231.782036 
L 415.378723 224.893525 
L 417.060638 225.582376 
L 418.742553 231.782036 
L 420.424468 224.549099 
L 422.106383 227.648929 
L 423.788298 228.33778 
L 425.470213 228.682206 
L 427.152128 233.159738 
L 428.834043 216.282885 
L 430.515957 222.826971 
L 432.197872 216.971736 
L 433.879787 210.083225 
L 437.243617 224.549099 
L 438.925532 232.470887 
L 440.607447 221.449269 
L 442.289362 221.793694 
L 443.971277 215.594034 
L 445.653191 203.539139 
L 447.335106 213.183055 
L 449.017021 226.271227 
L 450.698936 220.415992 
L 452.380851 209.738799 
L 454.062766 207.32782 
L 455.744681 206.638969 
L 457.426596 194.584074 
L 459.108511 199.750457 
L 460.790426 215.93846 
L 462.47234 216.627311 
L 464.154255 199.061606 
L 465.83617 203.883564 
L 467.518085 189.073265 
L 469.2 194.928499 
L 470.881915 198.02833 
L 472.56383 218.349439 
L 475.92766 202.161437 
L 477.609574 177.362795 
L 479.291489 186.662286 
L 480.973404 199.406032 
L 482.655319 196.995053 
L 484.337234 201.472585 
L 486.019149 209.738799 
L 487.701064 211.460927 
L 489.382979 197.683904 
L 491.064894 216.971736 
L 492.746809 201.472585 
L 494.428723 212.494204 
L 496.110638 219.727141 
L 497.792553 215.594034 
L 499.474468 214.216332 
L 501.156383 218.005013 
L 502.838298 219.382715 
L 504.520213 213.183055 
L 506.202128 220.071567 
L 507.884043 230.404334 
L 509.565957 213.183055 
L 511.247872 227.304504 
L 512.929787 223.171397 
L 514.611702 223.171397 
L 516.293617 216.282885 
L 517.975532 227.993355 
L 519.657447 218.005013 
L 521.339362 224.893525 
L 523.021277 223.171397 
L 524.703191 225.582376 
L 526.385106 227.648929 
L 528.067021 215.594034 
L 529.748936 214.905183 
L 531.430851 226.960078 
L 533.112766 223.515822 
L 534.794681 213.871906 
L 536.476596 218.005013 
L 538.158511 209.738799 
L 539.840426 203.883564 
L 541.52234 185.629009 
L 543.204255 222.482546 
L 544.88617 206.983395 
L 546.568085 184.251306 
L 548.25 165.3079 
L 549.931915 198.372755 
L 551.61383 175.296241 
L 553.295745 179.084923 
L 554.97766 182.529179 
L 556.659574 192.51752 
L 558.341489 179.429348 
L 560.023404 169.785432 
L 561.705319 176.329518 
L 563.387234 181.151476 
L 565.069149 171.50756 
L 566.751064 189.073265 
L 568.432979 164.619049 
L 570.114894 157.386111 
L 571.796809 184.940158 
L 573.478723 132.243044 
L 575.160638 160.830367 
L 576.842553 177.018369 
L 578.524468 157.730537 
L 580.206383 161.174793 
L 581.888298 150.842025 
L 583.570213 149.464323 
L 585.252128 160.485942 
L 586.934043 167.030028 
L 588.615957 172.540837 
L 590.297872 194.239648 
L 591.979787 156.008409 
L 593.661702 142.575812 
L 595.343617 156.352835 
L 597.025532 181.495902 
L 598.707447 180.462625 
L 600.389362 187.006711 
L 602.071277 210.083225 
L 603.753191 192.861946 
L 605.435106 193.206371 
L 607.117021 197.339478 
L 608.798936 202.850288 
L 610.480851 192.51752 
L 612.162766 209.049948 
L 613.844681 208.361097 
L 615.526596 202.505862 
L 617.208511 169.441007 
L 618.890426 197.683904 
L 620.57234 184.595732 
L 622.254255 192.51752 
L 623.93617 194.584074 
L 625.618085 219.03829 
L 627.3 211.805353 
L 628.981915 208.705522 
L 630.66383 222.826971 
L 632.345745 201.12816 
L 634.02766 212.494204 
L 635.709574 220.071567 
L 637.391489 211.116502 
L 639.073404 213.527481 
L 640.755319 209.049948 
L 642.437234 210.772076 
L 644.119149 213.183055 
L 645.801064 213.871906 
L 647.482979 227.993355 
L 649.164894 221.449269 
L 650.846809 216.971736 
L 652.528723 217.660587 
L 654.210638 211.116502 
L 655.892553 218.693864 
L 657.574468 215.93846 
L 659.256383 216.627311 
L 660.938298 213.871906 
L 662.620213 214.216332 
L 664.302128 199.406032 
L 665.984043 200.094883 
L 667.665957 224.549099 
L 669.347872 188.039988 
L 671.029787 202.161437 
L 672.711702 209.394374 
L 674.393617 195.272925 
L 676.075532 193.206371 
L 679.439362 187.695562 
L 681.121277 199.750457 
L 682.803191 187.695562 
L 684.485106 198.372755 
L 686.167021 167.030028 
L 687.848936 194.239648 
L 689.530851 175.296241 
L 691.212766 190.450967 
L 692.894681 175.296241 
L 694.576596 187.695562 
L 696.258511 195.961776 
L 697.940426 198.02833 
L 699.62234 167.718879 
L 701.304255 167.374453 
L 702.98617 170.474283 
L 704.668085 170.129858 
L 706.35 180.807051 
L 708.031915 204.572416 
L 709.71383 179.773774 
L 711.395745 193.206371 
L 713.07766 169.096581 
L 714.759574 185.284583 
L 716.441489 172.885262 
L 718.123404 196.995053 
L 719.805319 211.805353 
L 721.487234 189.41769 
L 723.169149 188.728839 
L 724.851064 197.683904 
L 726.532979 191.484244 
L 728.214894 204.916841 
L 729.896809 215.594034 
L 731.578723 219.03829 
L 733.260638 204.22799 
L 734.942553 202.505862 
L 736.624468 201.817011 
L 738.306383 216.627311 
L 739.988298 210.42765 
L 741.670213 234.537441 
L 743.352128 206.983395 
L 745.034043 204.572416 
L 746.715957 214.905183 
L 748.397872 221.104843 
L 750.079787 213.183055 
L 751.761702 213.183055 
L 753.443617 222.482546 
L 755.125532 222.826971 
L 756.807447 217.316162 
L 758.489362 219.727141 
L 760.171277 219.03829 
L 761.853191 223.860248 
L 763.535106 220.071567 
L 765.217021 228.33778 
L 766.898936 225.582376 
L 768.580851 225.582376 
L 770.262766 222.482546 
L 771.944681 226.271227 
L 773.626596 224.204673 
L 775.308511 230.059908 
L 776.990426 225.582376 
L 778.67234 223.860248 
L 780.354255 229.715483 
L 782.03617 222.482546 
L 783.718085 223.860248 
L 785.4 225.582376 
L 787.081915 223.515822 
L 788.76383 223.171397 
L 790.445745 230.059908 
L 792.12766 220.415992 
L 793.809574 224.549099 
L 795.491489 221.793694 
L 797.173404 226.615652 
L 798.855319 226.271227 
L 800.537234 220.415992 
L 802.219149 233.84859 
L 803.901064 221.104843 
L 805.582979 221.793694 
L 807.264894 224.204673 
L 808.946809 212.838629 
L 810.628723 224.549099 
L 812.310638 229.026632 
L 813.992553 216.627311 
L 815.674468 217.660587 
L 817.356383 216.282885 
L 819.038298 217.316162 
L 820.720213 220.071567 
L 822.402128 213.871906 
L 824.084043 220.760418 
L 825.765957 225.23795 
L 827.447872 219.382715 
L 829.129787 216.627311 
L 830.811702 217.660587 
L 832.493617 204.22799 
L 834.175532 219.727141 
L 835.857447 207.32782 
L 837.539362 208.705522 
L 839.221277 203.883564 
L 840.903191 211.805353 
L 842.585106 216.282885 
L 844.267021 192.861946 
L 845.948936 203.883564 
L 847.630851 208.705522 
L 849.312766 198.02833 
L 850.994681 201.472585 
L 852.676596 208.016671 
L 854.358511 202.161437 
L 856.040426 198.02833 
L 857.72234 184.940158 
L 859.404255 212.494204 
L 861.08617 214.216332 
L 862.768085 193.895223 
L 864.45 208.705522 
L 866.131915 204.572416 
L 867.81383 192.861946 
L 869.495745 201.12816 
L 871.17766 213.527481 
L 872.859574 201.12816 
L 874.541489 210.42765 
L 876.223404 214.905183 
L 877.905319 215.249608 
L 879.587234 214.560757 
L 881.269149 221.793694 
L 882.951064 221.104843 
L 884.632979 221.449269 
L 886.314894 221.449269 
L 887.996809 223.171397 
L 889.678723 222.826971 
L 891.360638 222.826971 
L 893.042553 232.126462 
L 894.724468 229.371057 
L 896.406383 230.059908 
L 898.088298 225.23795 
L 899.770213 225.582376 
L 901.452128 230.059908 
L 903.134043 228.682206 
L 904.815957 221.449269 
L 906.497872 230.404334 
L 908.179787 229.715483 
L 909.861702 224.204673 
L 911.543617 227.993355 
L 913.225532 222.13812 
L 914.907447 224.204673 
L 916.589362 232.470887 
L 918.271277 227.304504 
L 919.953191 226.271227 
L 921.635106 227.993355 
L 923.317021 221.104843 
L 924.998936 231.093185 
L 926.680851 225.926801 
L 930.044681 229.371057 
L 931.726596 235.915143 
L 933.408511 229.715483 
L 935.090426 227.993355 
L 936.77234 232.815313 
L 938.454255 230.748759 
L 940.13617 230.404334 
L 941.818085 237.292845 
L 943.5 227.304504 
L 945.181915 228.33778 
L 946.86383 230.059908 
L 948.545745 227.993355 
L 950.22766 215.93846 
L 951.909574 222.826971 
L 953.591489 206.294543 
L 955.273404 215.594034 
L 956.955319 204.22799 
L 958.637234 224.893525 
L 960.319149 208.016671 
L 962.001064 203.194713 
L 963.682979 203.883564 
L 965.364894 212.494204 
L 968.728723 190.450967 
L 970.410638 198.372755 
L 972.092553 184.595732 
L 973.774468 167.718879 
L 975.456383 156.352835 
L 977.138298 194.584074 
L 978.820213 168.752156 
L 980.502128 147.053344 
L 982.184043 161.519218 
L 983.865957 163.585772 
L 985.547872 116.399468 
L 987.229787 164.274623 
L 988.911702 186.31786 
L 990.593617 159.108239 
L 992.275532 156.008409 
L 993.957447 162.20807 
L 995.639362 120.877 
L 997.321277 152.219728 
L 999.003191 149.119898 
L 1000.685106 148.086621 
L 1002.367021 152.908579 
L 1004.048936 135.342875 
L 1005.730851 139.475981 
L 1007.412766 141.198109 
L 1009.094681 93.66738 
L 1010.776596 153.59743 
L 1012.458511 104.000147 
L 1014.140426 138.098279 
L 1015.82234 178.396072 
L 1017.504255 120.532575 
L 1019.18617 166.685602 
L 1020.868085 150.4976 
L 1022.55 160.141516 
L 1024.231915 173.229688 
L 1025.91383 188.384413 
L 1027.595745 170.129858 
L 1029.27766 161.174793 
L 1030.959574 176.329518 
L 1032.641489 129.143214 
L 1034.323404 175.985093 
L 1036.005319 210.42765 
L 1037.687234 157.386111 
L 1039.369149 169.441007 
L 1041.051064 179.429348 
L 1042.732979 154.630707 
L 1044.414894 169.096581 
L 1046.096809 187.695562 
L 1047.778723 198.372755 
L 1049.460638 172.540837 
L 1051.142553 201.472585 
L 1052.824468 184.940158 
L 1054.506383 177.362795 
L 1056.188298 191.828669 
L 1057.870213 192.861946 
L 1059.552128 197.339478 
L 1061.234043 207.32782 
L 1062.915957 172.196411 
L 1064.597872 199.406032 
L 1066.279787 194.239648 
L 1067.961702 207.32782 
L 1069.643617 190.106541 
L 1071.325532 209.394374 
L 1073.007447 204.916841 
L 1074.689362 216.627311 
L 1076.371277 211.805353 
L 1078.053191 213.527481 
L 1079.735106 210.083225 
L 1081.417021 213.527481 
L 1083.098936 210.42765 
L 1084.780851 220.760418 
L 1086.462766 219.03829 
L 1088.144681 218.349439 
L 1089.826596 219.382715 
L 1091.508511 216.971736 
L 1093.190426 219.03829 
L 1094.87234 226.960078 
L 1096.554255 226.271227 
L 1098.23617 223.860248 
L 1099.918085 220.415992 
L 1101.6 223.171397 
L 1101.6 223.171397 
" style="fill:none;stroke:#1f77b4;stroke-linecap:square;stroke-width:1.5;"/>
   </g>
   <g id="line2d_28">
    <path clip-path="url(#p0977d8101d)" d="M 726.532979 246.282353 
L 726.532979 86.4 
" style="fill:none;stroke:#808080;stroke-dasharray:5.55,2.4;stroke-dashoffset:0;stroke-width:1.5;"/>
   </g>
   <g id="patch_3">
    <path d="M 153 246.282353 
L 153 86.4 
" style="fill:none;stroke:#000000;stroke-linecap:square;stroke-linejoin:miter;stroke-width:0.8;"/>
   </g>
   <g id="patch_4">
    <path d="M 1101.6 246.282353 
L 1101.6 86.4 
" style="fill:none;stroke:#000000;stroke-linecap:square;stroke-linejoin:miter;stroke-width:0.8;"/>
   </g>
   <g id="patch_5">
    <path d="M 153 246.282353 
L 1101.6 246.282353 
" style="fill:none;stroke:#000000;stroke-linecap:square;stroke-linejoin:miter;stroke-width:0.8;"/>
   </g>
   <g id="patch_6">
    <path d="M 153 86.4 
L 1101.6 86.4 
" style="fill:none;stroke:#000000;stroke-linecap:square;stroke-linejoin:miter;stroke-width:0.8;"/>
   </g>
   <g id="legend_1">
    <g id="patch_7">
     <path d="M 160 109.35625 
L 249.15 109.35625 
Q 251.15 109.35625 251.15 107.35625 
L 251.15 93.4 
Q 251.15 91.4 249.15 91.4 
L 160 91.4 
Q 158 91.4 158 93.4 
L 158 107.35625 
Q 158 109.35625 160 109.35625 
z
" style="fill:#ffffff;opacity:0.8;stroke:#cccccc;stroke-linejoin:miter;"/>
    </g>
    <g id="line2d_29">
     <path d="M 162 99.498438 
L 182 99.498438 
" style="fill:none;stroke:#1f77b4;stroke-linecap:square;stroke-width:1.5;"/>
    </g>
    <g id="line2d_30"/>
    <g id="text_13">
     <!-- daily_cases -->
     <g transform="translate(190 102.998438)scale(0.1 -0.1)">
      <defs>
       <path d="M 9.421875 54.6875 
L 18.40625 54.6875 
L 18.40625 0 
L 9.421875 0 
z
M 9.421875 75.984375 
L 18.40625 75.984375 
L 18.40625 64.59375 
L 9.421875 64.59375 
z
" id="DejaVuSans-105"/>
       <path d="M 32.171875 -5.078125 
Q 28.375 -14.84375 24.75 -17.8125 
Q 21.140625 -20.796875 15.09375 -20.796875 
L 7.90625 -20.796875 
L 7.90625 -13.28125 
L 13.1875 -13.28125 
Q 16.890625 -13.28125 18.9375 -11.515625 
Q 21 -9.765625 23.484375 -3.21875 
L 25.09375 0.875 
L 2.984375 54.6875 
L 12.5 54.6875 
L 29.59375 11.921875 
L 46.6875 54.6875 
L 56.203125 54.6875 
z
" id="DejaVuSans-121"/>
       <path d="M 50.984375 -16.609375 
L 50.984375 -23.578125 
L -0.984375 -23.578125 
L -0.984375 -16.609375 
z
" id="DejaVuSans-95"/>
       <path d="M 44.28125 53.078125 
L 44.28125 44.578125 
Q 40.484375 46.53125 36.375 47.5 
Q 32.28125 48.484375 27.875 48.484375 
Q 21.1875 48.484375 17.84375 46.4375 
Q 14.5 44.390625 14.5 40.28125 
Q 14.5 37.15625 16.890625 35.375 
Q 19.28125 33.59375 26.515625 31.984375 
L 29.59375 31.296875 
Q 39.15625 29.25 43.1875 25.515625 
Q 47.21875 21.78125 47.21875 15.09375 
Q 47.21875 7.46875 41.1875 3.015625 
Q 35.15625 -1.421875 24.609375 -1.421875 
Q 20.21875 -1.421875 15.453125 -0.5625 
Q 10.6875 0.296875 5.421875 2 
L 5.421875 11.28125 
Q 10.40625 8.6875 15.234375 7.390625 
Q 20.0625 6.109375 24.8125 6.109375 
Q 31.15625 6.109375 34.5625 8.28125 
Q 37.984375 10.453125 37.984375 14.40625 
Q 37.984375 18.0625 35.515625 20.015625 
Q 33.0625 21.96875 24.703125 23.78125 
L 21.578125 24.515625 
Q 13.234375 26.265625 9.515625 29.90625 
Q 5.8125 33.546875 5.8125 39.890625 
Q 5.8125 47.609375 11.28125 51.796875 
Q 16.75 56 26.8125 56 
Q 31.78125 56 36.171875 55.265625 
Q 40.578125 54.546875 44.28125 53.078125 
z
" id="DejaVuSans-115"/>
      </defs>
      <use xlink:href="#DejaVuSans-100"/>
      <use x="63.476562" xlink:href="#DejaVuSans-97"/>
      <use x="124.755859" xlink:href="#DejaVuSans-105"/>
      <use x="152.539062" xlink:href="#DejaVuSans-108"/>
      <use x="180.322266" xlink:href="#DejaVuSans-121"/>
      <use x="239.501953" xlink:href="#DejaVuSans-95"/>
      <use x="289.501953" xlink:href="#DejaVuSans-99"/>
      <use x="344.482422" xlink:href="#DejaVuSans-97"/>
      <use x="405.761719" xlink:href="#DejaVuSans-115"/>
      <use x="457.861328" xlink:href="#DejaVuSans-101"/>
      <use x="519.384766" xlink:href="#DejaVuSans-115"/>
     </g>
    </g>
   </g>
  </g>
  <g id="axes_2">
   <g id="patch_8">
    <path d="M 153 438.141176 
L 1101.6 438.141176 
L 1101.6 278.258824 
L 153 278.258824 
z
" style="fill:#ffffff;"/>
   </g>
   <g id="matplotlib.axis_3">
    <g id="xtick_22">
     <g id="line2d_31">
      <g>
       <use style="stroke:#000000;stroke-width:0.8;" x="153" xlink:href="#m5089daec48" y="438.141176"/>
      </g>
     </g>
    </g>
    <g id="xtick_23">
     <g id="line2d_32">
      <g>
       <use style="stroke:#000000;stroke-width:0.8;" x="206.821277" xlink:href="#m5089daec48" y="438.141176"/>
      </g>
     </g>
     <g id="text_14">
      <!-- Apr -->
      <g transform="translate(198.171277 452.739614)scale(0.1 -0.1)">
       <use xlink:href="#DejaVuSans-65"/>
       <use x="68.408203" xlink:href="#DejaVuSans-112"/>
       <use x="131.884766" xlink:href="#DejaVuSans-114"/>
      </g>
     </g>
    </g>
    <g id="xtick_24">
     <g id="line2d_33">
      <g>
       <use style="stroke:#000000;stroke-width:0.8;" x="359.875532" xlink:href="#m5089daec48" y="438.141176"/>
      </g>
     </g>
     <g id="text_15">
      <!-- Jul -->
      <g transform="translate(353.842719 452.739614)scale(0.1 -0.1)">
       <use xlink:href="#DejaVuSans-74"/>
       <use x="29.492188" xlink:href="#DejaVuSans-117"/>
       <use x="92.871094" xlink:href="#DejaVuSans-108"/>
      </g>
     </g>
    </g>
    <g id="xtick_25">
     <g id="line2d_34">
      <g>
       <use style="stroke:#000000;stroke-width:0.8;" x="514.611702" xlink:href="#m5089daec48" y="438.141176"/>
      </g>
     </g>
     <g id="text_16">
      <!-- Oct -->
      <g transform="translate(505.96639 452.739614)scale(0.1 -0.1)">
       <use xlink:href="#DejaVuSans-79"/>
       <use x="78.710938" xlink:href="#DejaVuSans-99"/>
       <use x="133.691406" xlink:href="#DejaVuSans-116"/>
      </g>
     </g>
    </g>
    <g id="xtick_26">
     <g id="line2d_35">
      <g>
       <use style="stroke:#000000;stroke-width:0.8;" x="669.347872" xlink:href="#m5089daec48" y="438.141176"/>
      </g>
     </g>
     <g id="text_17">
      <!-- Jan -->
      <g transform="translate(661.64006 452.739614)scale(0.1 -0.1)">
       <use xlink:href="#DejaVuSans-74"/>
       <use x="29.492188" xlink:href="#DejaVuSans-97"/>
       <use x="90.771484" xlink:href="#DejaVuSans-110"/>
      </g>
      <!-- 2021 -->
      <g transform="translate(656.622872 463.937426)scale(0.1 -0.1)">
       <use xlink:href="#DejaVuSans-50"/>
       <use x="63.623047" xlink:href="#DejaVuSans-48"/>
       <use x="127.246094" xlink:href="#DejaVuSans-50"/>
       <use x="190.869141" xlink:href="#DejaVuSans-49"/>
      </g>
     </g>
    </g>
    <g id="xtick_27">
     <g id="line2d_36">
      <g>
       <use style="stroke:#000000;stroke-width:0.8;" x="820.720213" xlink:href="#m5089daec48" y="438.141176"/>
      </g>
     </g>
     <g id="text_18">
      <!-- Apr -->
      <g transform="translate(812.070213 452.739614)scale(0.1 -0.1)">
       <use xlink:href="#DejaVuSans-65"/>
       <use x="68.408203" xlink:href="#DejaVuSans-112"/>
       <use x="131.884766" xlink:href="#DejaVuSans-114"/>
      </g>
     </g>
    </g>
    <g id="xtick_28">
     <g id="line2d_37">
      <g>
       <use style="stroke:#000000;stroke-width:0.8;" x="973.774468" xlink:href="#m5089daec48" y="438.141176"/>
      </g>
     </g>
     <g id="text_19">
      <!-- Jul -->
      <g transform="translate(967.741656 452.739614)scale(0.1 -0.1)">
       <use xlink:href="#DejaVuSans-74"/>
       <use x="29.492188" xlink:href="#DejaVuSans-117"/>
       <use x="92.871094" xlink:href="#DejaVuSans-108"/>
      </g>
     </g>
    </g>
    <g id="xtick_29">
     <g id="line2d_38">
      <g>
       <use style="stroke:#000000;stroke-width:0.8;" x="1101.6" xlink:href="#m5089daec48" y="438.141176"/>
      </g>
     </g>
    </g>
    <g id="xtick_30">
     <g id="line2d_39">
      <g>
       <use style="stroke:#000000;stroke-width:0.6;" x="154.681915" xlink:href="#m84aa36aa33" y="438.141176"/>
      </g>
     </g>
    </g>
    <g id="xtick_31">
     <g id="line2d_40">
      <g>
       <use style="stroke:#000000;stroke-width:0.6;" x="257.278723" xlink:href="#m84aa36aa33" y="438.141176"/>
      </g>
     </g>
    </g>
    <g id="xtick_32">
     <g id="line2d_41">
      <g>
       <use style="stroke:#000000;stroke-width:0.6;" x="309.418085" xlink:href="#m84aa36aa33" y="438.141176"/>
      </g>
     </g>
    </g>
    <g id="xtick_33">
     <g id="line2d_42">
      <g>
       <use style="stroke:#000000;stroke-width:0.6;" x="412.014894" xlink:href="#m84aa36aa33" y="438.141176"/>
      </g>
     </g>
    </g>
    <g id="xtick_34">
     <g id="line2d_43">
      <g>
       <use style="stroke:#000000;stroke-width:0.6;" x="464.154255" xlink:href="#m84aa36aa33" y="438.141176"/>
      </g>
     </g>
    </g>
    <g id="xtick_35">
     <g id="line2d_44">
      <g>
       <use style="stroke:#000000;stroke-width:0.6;" x="566.751064" xlink:href="#m84aa36aa33" y="438.141176"/>
      </g>
     </g>
    </g>
    <g id="xtick_36">
     <g id="line2d_45">
      <g>
       <use style="stroke:#000000;stroke-width:0.6;" x="617.208511" xlink:href="#m84aa36aa33" y="438.141176"/>
      </g>
     </g>
    </g>
    <g id="xtick_37">
     <g id="line2d_46">
      <g>
       <use style="stroke:#000000;stroke-width:0.6;" x="721.487234" xlink:href="#m84aa36aa33" y="438.141176"/>
      </g>
     </g>
    </g>
    <g id="xtick_38">
     <g id="line2d_47">
      <g>
       <use style="stroke:#000000;stroke-width:0.6;" x="768.580851" xlink:href="#m84aa36aa33" y="438.141176"/>
      </g>
     </g>
    </g>
    <g id="xtick_39">
     <g id="line2d_48">
      <g>
       <use style="stroke:#000000;stroke-width:0.6;" x="871.17766" xlink:href="#m84aa36aa33" y="438.141176"/>
      </g>
     </g>
    </g>
    <g id="xtick_40">
     <g id="line2d_49">
      <g>
       <use style="stroke:#000000;stroke-width:0.6;" x="923.317021" xlink:href="#m84aa36aa33" y="438.141176"/>
      </g>
     </g>
    </g>
    <g id="xtick_41">
     <g id="line2d_50">
      <g>
       <use style="stroke:#000000;stroke-width:0.6;" x="1025.91383" xlink:href="#m84aa36aa33" y="438.141176"/>
      </g>
     </g>
    </g>
    <g id="xtick_42">
     <g id="line2d_51">
      <g>
       <use style="stroke:#000000;stroke-width:0.6;" x="1078.053191" xlink:href="#m84aa36aa33" y="438.141176"/>
      </g>
     </g>
    </g>
    <g id="text_20">
     <!-- date -->
     <g transform="translate(616.025 477.615551)scale(0.1 -0.1)">
      <use xlink:href="#DejaVuSans-100"/>
      <use x="63.476562" xlink:href="#DejaVuSans-97"/>
      <use x="124.755859" xlink:href="#DejaVuSans-116"/>
      <use x="163.964844" xlink:href="#DejaVuSans-101"/>
     </g>
    </g>
   </g>
   <g id="matplotlib.axis_4">
    <g id="ytick_6">
     <g id="line2d_52">
      <g>
       <use style="stroke:#000000;stroke-width:0.8;" x="153" xlink:href="#m521f261587" y="431.235358"/>
      </g>
     </g>
     <g id="text_21">
      <!-- 0 -->
      <g transform="translate(139.6375 435.034577)scale(0.1 -0.1)">
       <use xlink:href="#DejaVuSans-48"/>
      </g>
     </g>
    </g>
    <g id="ytick_7">
     <g id="line2d_53">
      <g>
       <use style="stroke:#000000;stroke-width:0.8;" x="153" xlink:href="#m521f261587" y="395.07924"/>
      </g>
     </g>
     <g id="text_22">
      <!-- 100 -->
      <g transform="translate(126.9125 398.878459)scale(0.1 -0.1)">
       <use xlink:href="#DejaVuSans-49"/>
       <use x="63.623047" xlink:href="#DejaVuSans-48"/>
       <use x="127.246094" xlink:href="#DejaVuSans-48"/>
      </g>
     </g>
    </g>
    <g id="ytick_8">
     <g id="line2d_54">
      <g>
       <use style="stroke:#000000;stroke-width:0.8;" x="153" xlink:href="#m521f261587" y="358.923122"/>
      </g>
     </g>
     <g id="text_23">
      <!-- 200 -->
      <g transform="translate(126.9125 362.722341)scale(0.1 -0.1)">
       <use xlink:href="#DejaVuSans-50"/>
       <use x="63.623047" xlink:href="#DejaVuSans-48"/>
       <use x="127.246094" xlink:href="#DejaVuSans-48"/>
      </g>
     </g>
    </g>
    <g id="ytick_9">
     <g id="line2d_55">
      <g>
       <use style="stroke:#000000;stroke-width:0.8;" x="153" xlink:href="#m521f261587" y="322.767005"/>
      </g>
     </g>
     <g id="text_24">
      <!-- 300 -->
      <g transform="translate(126.9125 326.566223)scale(0.1 -0.1)">
       <use xlink:href="#DejaVuSans-51"/>
       <use x="63.623047" xlink:href="#DejaVuSans-48"/>
       <use x="127.246094" xlink:href="#DejaVuSans-48"/>
      </g>
     </g>
    </g>
    <g id="ytick_10">
     <g id="line2d_56">
      <g>
       <use style="stroke:#000000;stroke-width:0.8;" x="153" xlink:href="#m521f261587" y="286.610887"/>
      </g>
     </g>
     <g id="text_25">
      <!-- 400 -->
      <g transform="translate(126.9125 290.410105)scale(0.1 -0.1)">
       <use xlink:href="#DejaVuSans-52"/>
       <use x="63.623047" xlink:href="#DejaVuSans-48"/>
       <use x="127.246094" xlink:href="#DejaVuSans-48"/>
      </g>
     </g>
    </g>
   </g>
   <g id="line2d_57">
    <path clip-path="url(#p324bae6906)" d="M 153 430.873797 
L 169.819149 430.873797 
L 171.501064 429.789113 
L 174.864894 429.065991 
L 176.546809 427.981307 
L 178.228723 427.619746 
L 179.910638 426.173501 
L 181.592553 421.473206 
L 183.274468 414.603544 
L 184.956383 404.479831 
L 186.638298 397.248607 
L 190.002128 378.085865 
L 191.684043 363.623418 
L 193.365957 345.545359 
L 195.047872 323.490127 
L 196.729787 306.496752 
L 198.411702 298.542406 
L 200.093617 289.864937 
L 201.775532 291.672743 
L 203.457447 285.526203 
L 205.139362 291.672743 
L 206.821277 301.073334 
L 208.503191 302.88114 
L 210.185106 301.796456 
L 211.867021 305.050507 
L 213.548936 300.711773 
L 215.230851 312.28173 
L 216.912766 315.535781 
L 218.594681 318.42827 
L 220.276596 316.982026 
L 221.958511 318.789832 
L 223.640426 318.789832 
L 225.32234 317.705148 
L 227.004255 326.021055 
L 228.68617 338.314135 
L 230.368085 340.483502 
L 232.05 347.353165 
L 233.731915 354.945949 
L 235.41383 355.669072 
L 237.095745 352.776582 
L 238.77766 358.561561 
L 240.459574 361.815612 
L 242.141489 363.623418 
L 243.823404 375.916498 
L 245.505319 380.978354 
L 247.187234 378.447426 
L 248.869149 380.978354 
L 250.551064 387.124894 
L 253.914894 396.525485 
L 255.596809 402.672025 
L 257.278723 403.033586 
L 258.960638 405.202953 
L 260.642553 405.564514 
L 262.324468 413.157299 
L 264.006383 415.688227 
L 265.688298 417.496033 
L 267.370213 418.580717 
L 269.052128 419.303839 
L 270.734043 419.303839 
L 272.415957 418.942278 
L 274.097872 422.196329 
L 275.779787 422.55789 
L 277.461702 423.642573 
L 279.143617 424.004134 
L 280.825532 425.088818 
L 282.507447 425.450379 
L 284.189362 425.088818 
L 285.871277 426.173501 
L 287.553191 426.173501 
L 289.235106 427.981307 
L 290.917021 427.619746 
L 292.598936 426.896624 
L 295.962766 427.619746 
L 297.644681 426.896624 
L 299.326596 429.065991 
L 301.008511 429.065991 
L 302.690426 428.342869 
L 306.054255 428.342869 
L 309.418085 427.619746 
L 311.1 428.342869 
L 312.781915 427.981307 
L 314.46383 429.427552 
L 316.145745 429.065991 
L 317.82766 429.065991 
L 321.191489 428.342869 
L 322.873404 428.342869 
L 324.555319 429.065991 
L 326.237234 429.427552 
L 327.919149 429.427552 
L 329.601064 429.065991 
L 334.646809 429.065991 
L 336.328723 429.789113 
L 338.010638 430.150674 
L 339.692553 430.150674 
L 341.374468 429.789113 
L 344.738298 429.789113 
L 346.420213 429.065991 
L 348.102128 429.427552 
L 349.784043 430.512236 
L 354.829787 430.512236 
L 356.511702 430.150674 
L 358.193617 430.512236 
L 359.875532 430.512236 
L 361.557447 430.873797 
L 378.376596 430.873797 
L 380.058511 430.150674 
L 381.740426 430.512236 
L 383.42234 430.150674 
L 386.78617 430.873797 
L 388.468085 430.512236 
L 390.15 430.512236 
L 391.831915 430.873797 
L 393.51383 430.512236 
L 395.195745 430.873797 
L 396.87766 430.512236 
L 398.559574 430.873797 
L 401.923404 430.873797 
L 403.605319 430.512236 
L 406.969149 430.512236 
L 408.651064 428.70443 
L 410.332979 428.70443 
L 413.696809 426.535063 
L 417.060638 425.81194 
L 418.742553 425.81194 
L 420.424468 425.450379 
L 427.152128 425.450379 
L 428.834043 426.173501 
L 432.197872 425.450379 
L 433.879787 423.281012 
L 435.561702 421.834767 
L 438.925532 423.281012 
L 440.607447 422.919451 
L 442.289362 421.834767 
L 443.971277 421.111645 
L 445.653191 418.219156 
L 447.335106 420.026961 
L 452.380851 421.111645 
L 454.062766 420.750084 
L 455.744681 421.473206 
L 459.108511 420.026961 
L 462.47234 417.857594 
L 464.154255 414.241983 
L 465.83617 415.688227 
L 467.518085 414.965105 
L 469.2 416.049788 
L 470.881915 413.157299 
L 472.56383 411.711054 
L 474.245745 413.51886 
L 475.92766 415.688227 
L 477.609574 410.987932 
L 479.291489 410.26481 
L 480.973404 412.072616 
L 482.655319 407.733881 
L 484.337234 404.841392 
L 486.019149 407.010759 
L 487.701064 406.287637 
L 491.064894 407.733881 
L 492.746809 407.37232 
L 494.428723 405.202953 
L 496.110638 403.756708 
L 497.792553 404.11827 
L 499.474468 406.287637 
L 501.156383 410.26481 
L 502.838298 409.180126 
L 504.520213 410.626371 
L 506.202128 409.903248 
L 507.884043 410.987932 
L 509.565957 411.349493 
L 511.247872 411.349493 
L 512.929787 412.434177 
L 514.611702 412.072616 
L 516.293617 415.326666 
L 517.975532 415.688227 
L 521.339362 415.688227 
L 523.021277 416.049788 
L 524.703191 417.496033 
L 526.385106 417.134472 
L 528.067021 418.580717 
L 529.748936 419.303839 
L 531.430851 417.857594 
L 533.112766 416.049788 
L 534.794681 416.41135 
L 536.476596 417.496033 
L 539.840426 418.942278 
L 541.52234 416.772911 
L 543.204255 412.795738 
L 544.88617 410.26481 
L 546.568085 410.26481 
L 548.25 410.987932 
L 549.931915 410.26481 
L 551.61383 407.010759 
L 553.295745 405.202953 
L 554.97766 403.033586 
L 556.659574 400.502658 
L 558.341489 395.07924 
L 560.023404 391.463628 
L 561.705319 390.378945 
L 563.387234 387.124894 
L 565.069149 382.424599 
L 566.751064 378.085865 
L 568.432979 374.470253 
L 570.114894 377.362742 
L 571.796809 377.724304 
L 573.478723 377.724304 
L 575.160638 374.108692 
L 576.842553 374.470253 
L 578.524468 367.239029 
L 580.206383 366.515907 
L 581.888298 361.815612 
L 583.570213 360.007806 
L 585.252128 360.369367 
L 586.934043 366.877468 
L 588.615957 362.177173 
L 590.297872 360.007806 
L 591.979787 362.900295 
L 593.661702 359.284684 
L 595.343617 361.454051 
L 598.707447 366.515907 
L 600.389362 365.431224 
L 602.071277 365.431224 
L 603.753191 372.300886 
L 605.435106 366.877468 
L 607.117021 365.069662 
L 608.798936 371.577764 
L 610.480851 374.108692 
L 612.162766 371.216202 
L 613.844681 370.131519 
L 615.526596 371.216202 
L 617.208511 370.131519 
L 618.890426 367.239029 
L 620.57234 367.962152 
L 622.254255 370.131519 
L 623.93617 370.131519 
L 625.618085 369.408397 
L 627.3 375.554937 
L 628.981915 374.108692 
L 630.66383 375.193375 
L 632.345745 377.001181 
L 634.02766 382.063038 
L 635.709574 380.978354 
L 637.391489 377.724304 
L 639.073404 380.978354 
L 640.755319 383.147721 
L 642.437234 384.593966 
L 644.119149 387.486455 
L 645.801064 390.740506 
L 647.482979 391.102067 
L 649.164894 390.740506 
L 650.846809 391.102067 
L 654.210638 403.033586 
L 655.892553 403.033586 
L 657.574468 400.502658 
L 659.256383 398.333291 
L 662.620213 400.502658 
L 664.302128 400.864219 
L 665.984043 398.333291 
L 667.665957 397.610168 
L 671.029787 397.610168 
L 672.711702 396.163924 
L 674.393617 398.694852 
L 677.757447 395.07924 
L 679.439362 392.909873 
L 681.121277 388.9327 
L 682.803191 382.78616 
L 684.485106 381.339915 
L 687.848936 377.724304 
L 689.530851 372.662447 
L 691.212766 370.854641 
L 692.894681 374.831814 
L 694.576596 366.154346 
L 696.258511 362.900295 
L 697.940426 363.261856 
L 699.62234 364.708101 
L 701.304255 365.431224 
L 702.98617 361.454051 
L 704.668085 359.646245 
L 708.031915 357.476878 
L 709.71383 356.030633 
L 711.395745 356.753755 
L 713.07766 358.2 
L 714.759574 353.138144 
L 716.441489 357.476878 
L 718.123404 355.669072 
L 719.805319 354.222827 
L 721.487234 358.923122 
L 723.169149 366.515907 
L 724.851064 368.323713 
L 726.532979 372.300886 
L 728.214894 378.447426 
L 729.896809 378.085865 
L 731.578723 374.831814 
L 733.260638 375.916498 
L 734.942553 377.724304 
L 736.624468 378.808987 
L 738.306383 380.255232 
L 739.988298 383.147721 
L 741.670213 379.893671 
L 743.352128 378.808987 
L 745.034043 379.893671 
L 746.715957 384.593966 
L 748.397872 386.401772 
L 750.079787 385.317088 
L 751.761702 388.209578 
L 753.443617 386.040211 
L 755.125532 383.509282 
L 756.807447 382.78616 
L 758.489362 384.593966 
L 760.171277 385.67865 
L 761.853191 388.571139 
L 763.535106 392.909873 
L 765.217021 391.102067 
L 766.898936 390.378945 
L 768.580851 396.525485 
L 770.262766 396.887046 
L 771.944681 400.502658 
L 773.626596 402.672025 
L 776.990426 405.564514 
L 782.03617 403.395147 
L 783.718085 403.756708 
L 785.4 404.479831 
L 787.081915 408.095443 
L 788.76383 405.564514 
L 790.445745 403.395147 
L 792.12766 407.010759 
L 793.809574 409.180126 
L 795.491489 407.733881 
L 797.173404 407.37232 
L 798.855319 408.818565 
L 800.537234 407.010759 
L 802.219149 406.287637 
L 803.901064 408.095443 
L 805.582979 410.26481 
L 807.264894 409.903248 
L 808.946809 410.626371 
L 810.628723 409.903248 
L 812.310638 407.010759 
L 815.674468 402.672025 
L 817.356383 402.672025 
L 819.038298 404.841392 
L 820.720213 403.756708 
L 822.402128 401.587341 
L 824.084043 400.864219 
L 825.765957 401.22578 
L 829.129787 407.010759 
L 834.175532 404.841392 
L 835.857447 402.310464 
L 837.539362 400.141097 
L 839.221277 400.141097 
L 840.903191 401.22578 
L 842.585106 399.779535 
L 844.267021 398.694852 
L 845.948936 400.502658 
L 847.630851 399.779535 
L 849.312766 398.333291 
L 850.994681 397.248607 
L 852.676596 397.97173 
L 854.358511 399.056413 
L 856.040426 396.525485 
L 857.72234 397.97173 
L 859.404255 394.717679 
L 861.08617 392.548312 
L 862.768085 391.102067 
L 864.45 391.82519 
L 866.131915 395.07924 
L 867.81383 394.717679 
L 869.495745 397.248607 
L 871.17766 392.548312 
L 872.859574 388.9327 
L 874.541489 387.848017 
L 876.223404 390.017384 
L 877.905319 392.548312 
L 879.587234 392.909873 
L 881.269149 392.909873 
L 882.951064 390.017384 
L 884.632979 390.017384 
L 886.314894 393.994557 
L 887.996809 395.07924 
L 889.678723 395.802363 
L 891.360638 396.887046 
L 893.042553 400.141097 
L 894.724468 400.864219 
L 896.406383 400.141097 
L 898.088298 404.479831 
L 899.770213 404.479831 
L 901.452128 405.202953 
L 903.134043 407.733881 
L 904.815957 416.049788 
L 906.497872 414.603544 
L 908.179787 414.241983 
L 909.861702 414.965105 
L 911.543617 417.134472 
L 913.225532 418.219156 
L 914.907447 420.750084 
L 916.589362 420.750084 
L 919.953191 420.026961 
L 923.317021 420.026961 
L 924.998936 420.750084 
L 926.680851 421.111645 
L 931.726596 418.942278 
L 933.408511 417.496033 
L 935.090426 420.026961 
L 936.77234 422.919451 
L 938.454255 422.55789 
L 940.13617 424.365696 
L 941.818085 423.281012 
L 943.5 421.473206 
L 945.181915 421.111645 
L 946.86383 420.388523 
L 948.545745 421.473206 
L 950.22766 421.473206 
L 951.909574 423.642573 
L 955.273404 422.196329 
L 956.955319 422.919451 
L 958.637234 424.004134 
L 960.319149 424.365696 
L 962.001064 424.004134 
L 963.682979 425.088818 
L 965.364894 424.727257 
L 967.046809 423.281012 
L 968.728723 424.365696 
L 970.410638 424.365696 
L 972.092553 424.004134 
L 973.774468 423.281012 
L 975.456383 424.365696 
L 977.138298 422.55789 
L 978.820213 419.6654 
L 980.502128 418.580717 
L 983.865957 414.241983 
L 985.547872 412.434177 
L 987.229787 414.965105 
L 990.593617 411.349493 
L 992.275532 412.072616 
L 993.957447 412.072616 
L 995.639362 410.26481 
L 997.321277 407.733881 
L 999.003191 409.903248 
L 1000.685106 406.287637 
L 1002.367021 403.395147 
L 1004.048936 401.948903 
L 1005.730851 402.672025 
L 1007.412766 399.417974 
L 1009.094681 397.97173 
L 1010.776596 398.333291 
L 1012.458511 395.07924 
L 1014.140426 390.740506 
L 1015.82234 388.9327 
L 1017.504255 391.102067 
L 1019.18617 390.740506 
L 1020.868085 392.186751 
L 1022.55 395.802363 
L 1024.231915 395.07924 
L 1025.91383 392.548312 
L 1027.595745 396.887046 
L 1029.27766 396.525485 
L 1030.959574 397.248607 
L 1032.641489 396.163924 
L 1034.323404 394.717679 
L 1036.005319 394.356118 
L 1037.687234 392.548312 
L 1039.369149 393.632995 
L 1041.051064 393.632995 
L 1042.732979 392.909873 
L 1044.414894 393.994557 
L 1046.096809 397.248607 
L 1047.778723 396.163924 
L 1049.460638 392.548312 
L 1051.142553 394.717679 
L 1052.824468 399.056413 
L 1054.506383 399.417974 
L 1056.188298 402.672025 
L 1057.870213 401.948903 
L 1059.552128 399.779535 
L 1061.234043 398.333291 
L 1062.915957 397.248607 
L 1064.597872 399.779535 
L 1066.279787 401.948903 
L 1067.961702 404.479831 
L 1069.643617 408.457004 
L 1071.325532 407.733881 
L 1073.007447 405.926076 
L 1074.689362 405.926076 
L 1076.371277 413.157299 
L 1078.053191 414.603544 
L 1079.735106 414.603544 
L 1081.417021 416.049788 
L 1083.098936 414.965105 
L 1084.780851 414.241983 
L 1086.462766 415.688227 
L 1089.826596 417.134472 
L 1091.508511 418.219156 
L 1093.190426 418.580717 
L 1094.87234 416.772911 
L 1096.554255 416.772911 
L 1098.23617 418.942278 
L 1099.918085 419.6654 
L 1101.6 416.41135 
L 1101.6 416.41135 
" style="fill:none;stroke:#ff7f0e;stroke-linecap:square;stroke-width:1.5;"/>
   </g>
   <g id="line2d_58">
    <path clip-path="url(#p324bae6906)" d="M 726.532979 438.141176 
L 726.532979 278.258824 
" style="fill:none;stroke:#808080;stroke-dasharray:5.55,2.4;stroke-dashoffset:0;stroke-width:1.5;"/>
   </g>
   <g id="patch_9">
    <path d="M 153 438.141176 
L 153 278.258824 
" style="fill:none;stroke:#000000;stroke-linecap:square;stroke-linejoin:miter;stroke-width:0.8;"/>
   </g>
   <g id="patch_10">
    <path d="M 1101.6 438.141176 
L 1101.6 278.258824 
" style="fill:none;stroke:#000000;stroke-linecap:square;stroke-linejoin:miter;stroke-width:0.8;"/>
   </g>
   <g id="patch_11">
    <path d="M 153 438.141176 
L 1101.6 438.141176 
" style="fill:none;stroke:#000000;stroke-linecap:square;stroke-linejoin:miter;stroke-width:0.8;"/>
   </g>
   <g id="patch_12">
    <path d="M 153 278.258824 
L 1101.6 278.258824 
" style="fill:none;stroke:#000000;stroke-linecap:square;stroke-linejoin:miter;stroke-width:0.8;"/>
   </g>
   <g id="legend_2">
    <g id="patch_13">
     <path d="M 1000.865625 301.215074 
L 1094.6 301.215074 
Q 1096.6 301.215074 1096.6 299.215074 
L 1096.6 285.258824 
Q 1096.6 283.258824 1094.6 283.258824 
L 1000.865625 283.258824 
Q 998.865625 283.258824 998.865625 285.258824 
L 998.865625 299.215074 
Q 998.865625 301.215074 1000.865625 301.215074 
z
" style="fill:#ffffff;opacity:0.8;stroke:#cccccc;stroke-linejoin:miter;"/>
    </g>
    <g id="line2d_59">
     <path d="M 1002.865625 291.357261 
L 1022.865625 291.357261 
" style="fill:none;stroke:#ff7f0e;stroke-linecap:square;stroke-width:1.5;"/>
    </g>
    <g id="line2d_60"/>
    <g id="text_26">
     <!-- hospital_occ -->
     <g transform="translate(1030.865625 294.857261)scale(0.1 -0.1)">
      <defs>
       <path d="M 54.890625 33.015625 
L 54.890625 0 
L 45.90625 0 
L 45.90625 32.71875 
Q 45.90625 40.484375 42.875 44.328125 
Q 39.84375 48.1875 33.796875 48.1875 
Q 26.515625 48.1875 22.3125 43.546875 
Q 18.109375 38.921875 18.109375 30.90625 
L 18.109375 0 
L 9.078125 0 
L 9.078125 75.984375 
L 18.109375 75.984375 
L 18.109375 46.1875 
Q 21.34375 51.125 25.703125 53.5625 
Q 30.078125 56 35.796875 56 
Q 45.21875 56 50.046875 50.171875 
Q 54.890625 44.34375 54.890625 33.015625 
z
" id="DejaVuSans-104"/>
       <path d="M 30.609375 48.390625 
Q 23.390625 48.390625 19.1875 42.75 
Q 14.984375 37.109375 14.984375 27.296875 
Q 14.984375 17.484375 19.15625 11.84375 
Q 23.34375 6.203125 30.609375 6.203125 
Q 37.796875 6.203125 41.984375 11.859375 
Q 46.1875 17.53125 46.1875 27.296875 
Q 46.1875 37.015625 41.984375 42.703125 
Q 37.796875 48.390625 30.609375 48.390625 
z
M 30.609375 56 
Q 42.328125 56 49.015625 48.375 
Q 55.71875 40.765625 55.71875 27.296875 
Q 55.71875 13.875 49.015625 6.21875 
Q 42.328125 -1.421875 30.609375 -1.421875 
Q 18.84375 -1.421875 12.171875 6.21875 
Q 5.515625 13.875 5.515625 27.296875 
Q 5.515625 40.765625 12.171875 48.375 
Q 18.84375 56 30.609375 56 
z
" id="DejaVuSans-111"/>
      </defs>
      <use xlink:href="#DejaVuSans-104"/>
      <use x="63.378906" xlink:href="#DejaVuSans-111"/>
      <use x="124.560547" xlink:href="#DejaVuSans-115"/>
      <use x="176.660156" xlink:href="#DejaVuSans-112"/>
      <use x="240.136719" xlink:href="#DejaVuSans-105"/>
      <use x="267.919922" xlink:href="#DejaVuSans-116"/>
      <use x="307.128906" xlink:href="#DejaVuSans-97"/>
      <use x="368.408203" xlink:href="#DejaVuSans-108"/>
      <use x="396.191406" xlink:href="#DejaVuSans-95"/>
      <use x="446.191406" xlink:href="#DejaVuSans-111"/>
      <use x="507.373047" xlink:href="#DejaVuSans-99"/>
      <use x="562.353516" xlink:href="#DejaVuSans-99"/>
     </g>
    </g>
   </g>
  </g>
  <g id="axes_3">
   <g id="patch_14">
    <path d="M 153 630 
L 1101.6 630 
L 1101.6 470.117647 
L 153 470.117647 
z
" style="fill:#ffffff;"/>
   </g>
   <g id="matplotlib.axis_5">
    <g id="xtick_43">
     <g id="line2d_61">
      <g>
       <use style="stroke:#000000;stroke-width:0.8;" x="153" xlink:href="#m5089daec48" y="630"/>
      </g>
     </g>
    </g>
    <g id="xtick_44">
     <g id="line2d_62">
      <g>
       <use style="stroke:#000000;stroke-width:0.8;" x="206.821277" xlink:href="#m5089daec48" y="630"/>
      </g>
     </g>
     <g id="text_27">
      <!-- Apr -->
      <g transform="translate(198.171277 644.598438)scale(0.1 -0.1)">
       <use xlink:href="#DejaVuSans-65"/>
       <use x="68.408203" xlink:href="#DejaVuSans-112"/>
       <use x="131.884766" xlink:href="#DejaVuSans-114"/>
      </g>
     </g>
    </g>
    <g id="xtick_45">
     <g id="line2d_63">
      <g>
       <use style="stroke:#000000;stroke-width:0.8;" x="359.875532" xlink:href="#m5089daec48" y="630"/>
      </g>
     </g>
     <g id="text_28">
      <!-- Jul -->
      <g transform="translate(353.842719 644.598438)scale(0.1 -0.1)">
       <use xlink:href="#DejaVuSans-74"/>
       <use x="29.492188" xlink:href="#DejaVuSans-117"/>
       <use x="92.871094" xlink:href="#DejaVuSans-108"/>
      </g>
     </g>
    </g>
    <g id="xtick_46">
     <g id="line2d_64">
      <g>
       <use style="stroke:#000000;stroke-width:0.8;" x="514.611702" xlink:href="#m5089daec48" y="630"/>
      </g>
     </g>
     <g id="text_29">
      <!-- Oct -->
      <g transform="translate(505.96639 644.598438)scale(0.1 -0.1)">
       <use xlink:href="#DejaVuSans-79"/>
       <use x="78.710938" xlink:href="#DejaVuSans-99"/>
       <use x="133.691406" xlink:href="#DejaVuSans-116"/>
      </g>
     </g>
    </g>
    <g id="xtick_47">
     <g id="line2d_65">
      <g>
       <use style="stroke:#000000;stroke-width:0.8;" x="669.347872" xlink:href="#m5089daec48" y="630"/>
      </g>
     </g>
     <g id="text_30">
      <!-- Jan -->
      <g transform="translate(661.64006 644.598438)scale(0.1 -0.1)">
       <use xlink:href="#DejaVuSans-74"/>
       <use x="29.492188" xlink:href="#DejaVuSans-97"/>
       <use x="90.771484" xlink:href="#DejaVuSans-110"/>
      </g>
      <!-- 2021 -->
      <g transform="translate(656.622872 655.79625)scale(0.1 -0.1)">
       <use xlink:href="#DejaVuSans-50"/>
       <use x="63.623047" xlink:href="#DejaVuSans-48"/>
       <use x="127.246094" xlink:href="#DejaVuSans-50"/>
       <use x="190.869141" xlink:href="#DejaVuSans-49"/>
      </g>
     </g>
    </g>
    <g id="xtick_48">
     <g id="line2d_66">
      <g>
       <use style="stroke:#000000;stroke-width:0.8;" x="820.720213" xlink:href="#m5089daec48" y="630"/>
      </g>
     </g>
     <g id="text_31">
      <!-- Apr -->
      <g transform="translate(812.070213 644.598438)scale(0.1 -0.1)">
       <use xlink:href="#DejaVuSans-65"/>
       <use x="68.408203" xlink:href="#DejaVuSans-112"/>
       <use x="131.884766" xlink:href="#DejaVuSans-114"/>
      </g>
     </g>
    </g>
    <g id="xtick_49">
     <g id="line2d_67">
      <g>
       <use style="stroke:#000000;stroke-width:0.8;" x="973.774468" xlink:href="#m5089daec48" y="630"/>
      </g>
     </g>
     <g id="text_32">
      <!-- Jul -->
      <g transform="translate(967.741656 644.598438)scale(0.1 -0.1)">
       <use xlink:href="#DejaVuSans-74"/>
       <use x="29.492188" xlink:href="#DejaVuSans-117"/>
       <use x="92.871094" xlink:href="#DejaVuSans-108"/>
      </g>
     </g>
    </g>
    <g id="xtick_50">
     <g id="line2d_68">
      <g>
       <use style="stroke:#000000;stroke-width:0.8;" x="1101.6" xlink:href="#m5089daec48" y="630"/>
      </g>
     </g>
    </g>
    <g id="xtick_51">
     <g id="line2d_69">
      <g>
       <use style="stroke:#000000;stroke-width:0.6;" x="154.681915" xlink:href="#m84aa36aa33" y="630"/>
      </g>
     </g>
    </g>
    <g id="xtick_52">
     <g id="line2d_70">
      <g>
       <use style="stroke:#000000;stroke-width:0.6;" x="257.278723" xlink:href="#m84aa36aa33" y="630"/>
      </g>
     </g>
    </g>
    <g id="xtick_53">
     <g id="line2d_71">
      <g>
       <use style="stroke:#000000;stroke-width:0.6;" x="309.418085" xlink:href="#m84aa36aa33" y="630"/>
      </g>
     </g>
    </g>
    <g id="xtick_54">
     <g id="line2d_72">
      <g>
       <use style="stroke:#000000;stroke-width:0.6;" x="412.014894" xlink:href="#m84aa36aa33" y="630"/>
      </g>
     </g>
    </g>
    <g id="xtick_55">
     <g id="line2d_73">
      <g>
       <use style="stroke:#000000;stroke-width:0.6;" x="464.154255" xlink:href="#m84aa36aa33" y="630"/>
      </g>
     </g>
    </g>
    <g id="xtick_56">
     <g id="line2d_74">
      <g>
       <use style="stroke:#000000;stroke-width:0.6;" x="566.751064" xlink:href="#m84aa36aa33" y="630"/>
      </g>
     </g>
    </g>
    <g id="xtick_57">
     <g id="line2d_75">
      <g>
       <use style="stroke:#000000;stroke-width:0.6;" x="617.208511" xlink:href="#m84aa36aa33" y="630"/>
      </g>
     </g>
    </g>
    <g id="xtick_58">
     <g id="line2d_76">
      <g>
       <use style="stroke:#000000;stroke-width:0.6;" x="721.487234" xlink:href="#m84aa36aa33" y="630"/>
      </g>
     </g>
    </g>
    <g id="xtick_59">
     <g id="line2d_77">
      <g>
       <use style="stroke:#000000;stroke-width:0.6;" x="768.580851" xlink:href="#m84aa36aa33" y="630"/>
      </g>
     </g>
    </g>
    <g id="xtick_60">
     <g id="line2d_78">
      <g>
       <use style="stroke:#000000;stroke-width:0.6;" x="871.17766" xlink:href="#m84aa36aa33" y="630"/>
      </g>
     </g>
    </g>
    <g id="xtick_61">
     <g id="line2d_79">
      <g>
       <use style="stroke:#000000;stroke-width:0.6;" x="923.317021" xlink:href="#m84aa36aa33" y="630"/>
      </g>
     </g>
    </g>
    <g id="xtick_62">
     <g id="line2d_80">
      <g>
       <use style="stroke:#000000;stroke-width:0.6;" x="1025.91383" xlink:href="#m84aa36aa33" y="630"/>
      </g>
     </g>
    </g>
    <g id="xtick_63">
     <g id="line2d_81">
      <g>
       <use style="stroke:#000000;stroke-width:0.6;" x="1078.053191" xlink:href="#m84aa36aa33" y="630"/>
      </g>
     </g>
    </g>
    <g id="text_33">
     <!-- Date -->
     <g transform="translate(609.373828 673.273594)scale(0.15 -0.15)">
      <defs>
       <path d="M 19.671875 64.796875 
L 19.671875 8.109375 
L 31.59375 8.109375 
Q 46.6875 8.109375 53.6875 14.9375 
Q 60.6875 21.78125 60.6875 36.53125 
Q 60.6875 51.171875 53.6875 57.984375 
Q 46.6875 64.796875 31.59375 64.796875 
z
M 9.8125 72.90625 
L 30.078125 72.90625 
Q 51.265625 72.90625 61.171875 64.09375 
Q 71.09375 55.28125 71.09375 36.53125 
Q 71.09375 17.671875 61.125 8.828125 
Q 51.171875 0 30.078125 0 
L 9.8125 0 
z
" id="DejaVuSans-68"/>
      </defs>
      <use xlink:href="#DejaVuSans-68"/>
      <use x="77.001953" xlink:href="#DejaVuSans-97"/>
      <use x="138.28125" xlink:href="#DejaVuSans-116"/>
      <use x="177.490234" xlink:href="#DejaVuSans-101"/>
     </g>
    </g>
   </g>
   <g id="matplotlib.axis_6">
    <g id="ytick_11">
     <g id="line2d_82">
      <g>
       <use style="stroke:#000000;stroke-width:0.8;" x="153" xlink:href="#m521f261587" y="622.73262"/>
      </g>
     </g>
     <g id="text_34">
      <!-- 0 -->
      <g transform="translate(139.6375 626.531839)scale(0.1 -0.1)">
       <use xlink:href="#DejaVuSans-48"/>
      </g>
     </g>
    </g>
    <g id="ytick_12">
     <g id="line2d_83">
      <g>
       <use style="stroke:#000000;stroke-width:0.8;" x="153" xlink:href="#m521f261587" y="591.8076"/>
      </g>
     </g>
     <g id="text_35">
      <!-- 10 -->
      <g transform="translate(133.275 595.606819)scale(0.1 -0.1)">
       <use xlink:href="#DejaVuSans-49"/>
       <use x="63.623047" xlink:href="#DejaVuSans-48"/>
      </g>
     </g>
    </g>
    <g id="ytick_13">
     <g id="line2d_84">
      <g>
       <use style="stroke:#000000;stroke-width:0.8;" x="153" xlink:href="#m521f261587" y="560.88258"/>
      </g>
     </g>
     <g id="text_36">
      <!-- 20 -->
      <g transform="translate(133.275 564.681799)scale(0.1 -0.1)">
       <use xlink:href="#DejaVuSans-50"/>
       <use x="63.623047" xlink:href="#DejaVuSans-48"/>
      </g>
     </g>
    </g>
    <g id="ytick_14">
     <g id="line2d_85">
      <g>
       <use style="stroke:#000000;stroke-width:0.8;" x="153" xlink:href="#m521f261587" y="529.957561"/>
      </g>
     </g>
     <g id="text_37">
      <!-- 30 -->
      <g transform="translate(133.275 533.756779)scale(0.1 -0.1)">
       <use xlink:href="#DejaVuSans-51"/>
       <use x="63.623047" xlink:href="#DejaVuSans-48"/>
      </g>
     </g>
    </g>
    <g id="ytick_15">
     <g id="line2d_86">
      <g>
       <use style="stroke:#000000;stroke-width:0.8;" x="153" xlink:href="#m521f261587" y="499.032541"/>
      </g>
     </g>
     <g id="text_38">
      <!-- 40 -->
      <g transform="translate(133.275 502.831759)scale(0.1 -0.1)">
       <use xlink:href="#DejaVuSans-52"/>
       <use x="63.623047" xlink:href="#DejaVuSans-48"/>
      </g>
     </g>
    </g>
   </g>
   <g id="line2d_87">
    <path clip-path="url(#pf782884fe0)" d="M 153 622.73262 
L 169.819149 622.73262 
L 171.501064 619.640118 
L 174.864894 619.640118 
L 176.546809 613.455114 
L 179.910638 613.455114 
L 183.274468 607.27011 
L 184.956383 601.085106 
L 186.638298 601.085106 
L 190.002128 576.34509 
L 191.684043 560.88258 
L 195.047872 548.512573 
L 196.729787 533.050063 
L 198.411702 511.402549 
L 200.093617 505.217545 
L 201.775532 495.940039 
L 203.457447 483.570031 
L 205.139362 477.385027 
L 210.185106 477.385027 
L 211.867021 489.755035 
L 213.548936 489.755035 
L 215.230851 499.032541 
L 216.912766 495.940039 
L 218.594681 505.217545 
L 220.276596 502.125043 
L 221.958511 511.402549 
L 223.640426 514.495051 
L 225.32234 520.680055 
L 227.004255 529.957561 
L 228.68617 533.050063 
L 230.368085 542.327569 
L 232.05 554.697577 
L 233.731915 560.88258 
L 235.41383 560.88258 
L 237.095745 570.160086 
L 238.77766 567.067584 
L 240.459574 567.067584 
L 242.141489 570.160086 
L 243.823404 588.715098 
L 245.505319 594.900102 
L 248.869149 594.900102 
L 250.551064 597.992604 
L 252.232979 594.900102 
L 253.914894 604.177608 
L 257.278723 604.177608 
L 258.960638 607.27011 
L 260.642553 607.27011 
L 262.324468 613.455114 
L 267.370213 613.455114 
L 269.052128 610.362612 
L 275.779787 610.362612 
L 277.461702 616.547616 
L 279.143617 619.640118 
L 284.189362 619.640118 
L 285.871277 616.547616 
L 287.553191 616.547616 
L 289.235106 619.640118 
L 317.82766 619.640118 
L 319.509574 616.547616 
L 324.555319 616.547616 
L 327.919149 622.73262 
L 391.831915 622.73262 
L 393.51383 619.640118 
L 408.651064 619.640118 
L 410.332979 622.73262 
L 412.014894 619.640118 
L 413.696809 622.73262 
L 415.378723 619.640118 
L 418.742553 619.640118 
L 420.424468 622.73262 
L 435.561702 622.73262 
L 437.243617 619.640118 
L 438.925532 619.640118 
L 440.607447 616.547616 
L 442.289362 616.547616 
L 443.971277 613.455114 
L 447.335106 613.455114 
L 452.380851 622.73262 
L 455.744681 616.547616 
L 457.426596 619.640118 
L 460.790426 619.640118 
L 462.47234 610.362612 
L 464.154255 607.27011 
L 465.83617 610.362612 
L 467.518085 610.362612 
L 470.881915 597.992604 
L 472.56383 597.992604 
L 474.245745 594.900102 
L 477.609574 594.900102 
L 480.973404 607.27011 
L 482.655319 601.085106 
L 484.337234 597.992604 
L 486.019149 597.992604 
L 487.701064 601.085106 
L 489.382979 591.8076 
L 491.064894 591.8076 
L 492.746809 588.715098 
L 494.428723 591.8076 
L 496.110638 591.8076 
L 497.792553 594.900102 
L 499.474468 594.900102 
L 501.156383 597.992604 
L 502.838298 604.177608 
L 506.202128 597.992604 
L 507.884043 597.992604 
L 509.565957 594.900102 
L 511.247872 588.715098 
L 514.611702 594.900102 
L 516.293617 588.715098 
L 519.657447 588.715098 
L 521.339362 604.177608 
L 523.021277 597.992604 
L 526.385106 604.177608 
L 529.748936 604.177608 
L 533.112766 591.8076 
L 534.794681 594.900102 
L 536.476596 591.8076 
L 539.840426 597.992604 
L 541.52234 597.992604 
L 544.88617 591.8076 
L 546.568085 585.622596 
L 548.25 588.715098 
L 551.61383 588.715098 
L 556.659574 579.437592 
L 558.341489 573.252588 
L 560.023404 585.622596 
L 563.387234 585.622596 
L 565.069149 576.34509 
L 568.432979 570.160086 
L 570.114894 570.160086 
L 575.160638 551.605075 
L 576.842553 548.512573 
L 580.206383 517.587553 
L 581.888298 514.495051 
L 583.570213 517.587553 
L 585.252128 514.495051 
L 586.934043 517.587553 
L 588.615957 517.587553 
L 591.979787 529.957561 
L 593.661702 514.495051 
L 595.343617 520.680055 
L 597.025532 511.402549 
L 598.707447 505.217545 
L 600.389362 511.402549 
L 602.071277 505.217545 
L 603.753191 529.957561 
L 605.435106 520.680055 
L 607.117021 523.772557 
L 608.798936 536.142565 
L 610.480851 536.142565 
L 612.162766 523.772557 
L 613.844681 529.957561 
L 615.526596 533.050063 
L 618.890426 520.680055 
L 620.57234 520.680055 
L 622.254255 533.050063 
L 623.93617 536.142565 
L 627.3 536.142565 
L 628.981915 542.327569 
L 632.345745 536.142565 
L 634.02766 545.420071 
L 635.709574 545.420071 
L 637.391489 542.327569 
L 639.073404 542.327569 
L 640.755319 557.790079 
L 649.164894 557.790079 
L 650.846809 548.512573 
L 652.528723 554.697577 
L 655.892553 554.697577 
L 657.574468 551.605075 
L 659.256383 551.605075 
L 660.938298 545.420071 
L 662.620213 557.790079 
L 664.302128 557.790079 
L 665.984043 560.88258 
L 667.665957 554.697577 
L 669.347872 557.790079 
L 671.029787 554.697577 
L 672.711702 554.697577 
L 674.393617 545.420071 
L 676.075532 548.512573 
L 677.757447 542.327569 
L 679.439362 551.605075 
L 681.121277 557.790079 
L 682.803191 551.605075 
L 684.485106 548.512573 
L 686.167021 539.235067 
L 687.848936 539.235067 
L 689.530851 548.512573 
L 691.212766 548.512573 
L 692.894681 545.420071 
L 694.576596 533.050063 
L 696.258511 526.865059 
L 697.940426 533.050063 
L 699.62234 545.420071 
L 701.304255 548.512573 
L 702.98617 539.235067 
L 704.668085 539.235067 
L 706.35 520.680055 
L 708.031915 520.680055 
L 709.71383 514.495051 
L 711.395745 520.680055 
L 713.07766 517.587553 
L 714.759574 505.217545 
L 716.441489 514.495051 
L 718.123404 508.310047 
L 719.805319 505.217545 
L 721.487234 517.587553 
L 723.169149 517.587553 
L 724.851064 520.680055 
L 726.532979 526.865059 
L 728.214894 526.865059 
L 729.896809 536.142565 
L 731.578723 523.772557 
L 733.260638 526.865059 
L 734.942553 523.772557 
L 736.624468 542.327569 
L 738.306383 551.605075 
L 739.988298 548.512573 
L 741.670213 548.512573 
L 743.352128 539.235067 
L 745.034043 533.050063 
L 746.715957 551.605075 
L 750.079787 551.605075 
L 751.761702 542.327569 
L 755.125532 536.142565 
L 758.489362 542.327569 
L 761.853191 536.142565 
L 763.535106 529.957561 
L 765.217021 539.235067 
L 766.898936 545.420071 
L 768.580851 548.512573 
L 770.262766 554.697577 
L 771.944681 548.512573 
L 775.308511 542.327569 
L 776.990426 542.327569 
L 778.67234 548.512573 
L 780.354255 551.605075 
L 782.03617 563.975082 
L 783.718085 563.975082 
L 785.4 576.34509 
L 790.445745 585.622596 
L 792.12766 585.622596 
L 795.491489 573.252588 
L 797.173404 585.622596 
L 798.855319 579.437592 
L 800.537234 576.34509 
L 803.901064 576.34509 
L 805.582979 570.160086 
L 807.264894 576.34509 
L 808.946809 576.34509 
L 810.628723 573.252588 
L 812.310638 563.975082 
L 813.992553 551.605075 
L 817.356383 557.790079 
L 819.038298 573.252588 
L 820.720213 573.252588 
L 822.402128 560.88258 
L 824.084043 567.067584 
L 825.765957 563.975082 
L 827.447872 557.790079 
L 829.129787 570.160086 
L 830.811702 567.067584 
L 834.175532 579.437592 
L 835.857447 576.34509 
L 839.221277 563.975082 
L 840.903191 554.697577 
L 842.585106 560.88258 
L 844.267021 557.790079 
L 845.948936 557.790079 
L 847.630851 548.512573 
L 849.312766 548.512573 
L 850.994681 554.697577 
L 852.676596 557.790079 
L 854.358511 567.067584 
L 856.040426 563.975082 
L 857.72234 563.975082 
L 861.08617 551.605075 
L 862.768085 557.790079 
L 864.45 551.605075 
L 867.81383 551.605075 
L 869.495745 554.697577 
L 871.17766 554.697577 
L 872.859574 548.512573 
L 874.541489 536.142565 
L 876.223404 539.235067 
L 877.905319 536.142565 
L 879.587234 542.327569 
L 881.269149 542.327569 
L 882.951064 529.957561 
L 884.632979 529.957561 
L 889.678723 557.790079 
L 891.360638 560.88258 
L 893.042553 557.790079 
L 894.724468 551.605075 
L 896.406383 557.790079 
L 898.088298 557.790079 
L 901.452128 570.160086 
L 903.134043 570.160086 
L 904.815957 576.34509 
L 906.497872 576.34509 
L 908.179787 573.252588 
L 911.543617 573.252588 
L 913.225532 585.622596 
L 916.589362 591.8076 
L 918.271277 597.992604 
L 921.635106 604.177608 
L 924.998936 604.177608 
L 926.680851 597.992604 
L 928.362766 601.085106 
L 931.726596 594.900102 
L 935.090426 594.900102 
L 936.77234 601.085106 
L 938.454255 604.177608 
L 945.181915 604.177608 
L 948.545745 610.362612 
L 950.22766 610.362612 
L 951.909574 613.455114 
L 955.273404 613.455114 
L 956.955319 619.640118 
L 960.319149 619.640118 
L 962.001064 622.73262 
L 970.410638 622.73262 
L 972.092553 619.640118 
L 975.456383 619.640118 
L 977.138298 613.455114 
L 978.820213 610.362612 
L 980.502128 610.362612 
L 982.184043 613.455114 
L 983.865957 607.27011 
L 985.547872 604.177608 
L 987.229787 597.992604 
L 988.911702 594.900102 
L 990.593617 597.992604 
L 992.275532 607.27011 
L 995.639362 607.27011 
L 997.321277 604.177608 
L 999.003191 597.992604 
L 1000.685106 588.715098 
L 1002.367021 582.530094 
L 1004.048936 588.715098 
L 1007.412766 570.160086 
L 1009.094681 563.975082 
L 1012.458511 570.160086 
L 1014.140426 563.975082 
L 1015.82234 563.975082 
L 1017.504255 557.790079 
L 1020.868085 557.790079 
L 1022.55 548.512573 
L 1024.231915 548.512573 
L 1025.91383 539.235067 
L 1027.595745 551.605075 
L 1029.27766 567.067584 
L 1030.959574 570.160086 
L 1032.641489 557.790079 
L 1034.323404 563.975082 
L 1036.005319 567.067584 
L 1037.687234 557.790079 
L 1039.369149 560.88258 
L 1041.051064 567.067584 
L 1042.732979 570.160086 
L 1046.096809 563.975082 
L 1047.778723 567.067584 
L 1049.460638 557.790079 
L 1052.824468 570.160086 
L 1054.506383 560.88258 
L 1056.188298 579.437592 
L 1057.870213 573.252588 
L 1059.552128 570.160086 
L 1061.234043 563.975082 
L 1062.915957 567.067584 
L 1067.961702 567.067584 
L 1069.643617 573.252588 
L 1071.325532 573.252588 
L 1073.007447 576.34509 
L 1074.689362 573.252588 
L 1078.053191 585.622596 
L 1079.735106 588.715098 
L 1081.417021 597.992604 
L 1083.098936 601.085106 
L 1084.780851 601.085106 
L 1086.462766 607.27011 
L 1089.826596 607.27011 
L 1093.190426 601.085106 
L 1094.87234 601.085106 
L 1096.554255 597.992604 
L 1099.918085 604.177608 
L 1101.6 601.085106 
L 1101.6 601.085106 
" style="fill:none;stroke:#2ca02c;stroke-linecap:square;stroke-width:1.5;"/>
   </g>
   <g id="line2d_88">
    <path clip-path="url(#pf782884fe0)" d="M 726.532979 630 
L 726.532979 470.117647 
" style="fill:none;stroke:#808080;stroke-dasharray:5.55,2.4;stroke-dashoffset:0;stroke-width:1.5;"/>
   </g>
   <g id="patch_15">
    <path d="M 153 630 
L 153 470.117647 
" style="fill:none;stroke:#000000;stroke-linecap:square;stroke-linejoin:miter;stroke-width:0.8;"/>
   </g>
   <g id="patch_16">
    <path d="M 1101.6 630 
L 1101.6 470.117647 
" style="fill:none;stroke:#000000;stroke-linecap:square;stroke-linejoin:miter;stroke-width:0.8;"/>
   </g>
   <g id="patch_17">
    <path d="M 153 630 
L 1101.6 630 
" style="fill:none;stroke:#000000;stroke-linecap:square;stroke-linejoin:miter;stroke-width:0.8;"/>
   </g>
   <g id="patch_18">
    <path d="M 153 470.117647 
L 1101.6 470.117647 
" style="fill:none;stroke:#000000;stroke-linecap:square;stroke-linejoin:miter;stroke-width:0.8;"/>
   </g>
   <g id="legend_3">
    <g id="patch_19">
     <path d="M 1025.870313 493.073897 
L 1094.6 493.073897 
Q 1096.6 493.073897 1096.6 491.073897 
L 1096.6 477.117647 
Q 1096.6 475.117647 1094.6 475.117647 
L 1025.870313 475.117647 
Q 1023.870313 475.117647 1023.870313 477.117647 
L 1023.870313 491.073897 
Q 1023.870313 493.073897 1025.870313 493.073897 
z
" style="fill:#ffffff;opacity:0.8;stroke:#cccccc;stroke-linejoin:miter;"/>
    </g>
    <g id="line2d_89">
     <path d="M 1027.870313 483.216085 
L 1047.870313 483.216085 
" style="fill:none;stroke:#2ca02c;stroke-linecap:square;stroke-width:1.5;"/>
    </g>
    <g id="line2d_90"/>
    <g id="text_39">
     <!-- icu_occ -->
     <g transform="translate(1055.870313 486.716085)scale(0.1 -0.1)">
      <use xlink:href="#DejaVuSans-105"/>
      <use x="27.783203" xlink:href="#DejaVuSans-99"/>
      <use x="82.763672" xlink:href="#DejaVuSans-117"/>
      <use x="146.142578" xlink:href="#DejaVuSans-95"/>
      <use x="196.142578" xlink:href="#DejaVuSans-111"/>
      <use x="257.324219" xlink:href="#DejaVuSans-99"/>
      <use x="312.304688" xlink:href="#DejaVuSans-99"/>
     </g>
    </g>
   </g>
  </g>
  <g id="text_40">
   <!-- COVID-19 in Cantabria -->
   <g transform="translate(499.1625 29.596875)scale(0.2 -0.2)">
    <defs>
     <path d="M 64.40625 67.28125 
L 64.40625 56.890625 
Q 59.421875 61.53125 53.78125 63.8125 
Q 48.140625 66.109375 41.796875 66.109375 
Q 29.296875 66.109375 22.65625 58.46875 
Q 16.015625 50.828125 16.015625 36.375 
Q 16.015625 21.96875 22.65625 14.328125 
Q 29.296875 6.6875 41.796875 6.6875 
Q 48.140625 6.6875 53.78125 8.984375 
Q 59.421875 11.28125 64.40625 15.921875 
L 64.40625 5.609375 
Q 59.234375 2.09375 53.4375 0.328125 
Q 47.65625 -1.421875 41.21875 -1.421875 
Q 24.65625 -1.421875 15.125 8.703125 
Q 5.609375 18.84375 5.609375 36.375 
Q 5.609375 53.953125 15.125 64.078125 
Q 24.65625 74.21875 41.21875 74.21875 
Q 47.75 74.21875 53.53125 72.484375 
Q 59.328125 70.75 64.40625 67.28125 
z
" id="DejaVuSans-67"/>
     <path d="M 28.609375 0 
L 0.78125 72.90625 
L 11.078125 72.90625 
L 34.1875 11.53125 
L 57.328125 72.90625 
L 67.578125 72.90625 
L 39.796875 0 
z
" id="DejaVuSans-86"/>
     <path d="M 9.8125 72.90625 
L 19.671875 72.90625 
L 19.671875 0 
L 9.8125 0 
z
" id="DejaVuSans-73"/>
     <path d="M 4.890625 31.390625 
L 31.203125 31.390625 
L 31.203125 23.390625 
L 4.890625 23.390625 
z
" id="DejaVuSans-45"/>
     <path d="M 10.984375 1.515625 
L 10.984375 10.5 
Q 14.703125 8.734375 18.5 7.8125 
Q 22.3125 6.890625 25.984375 6.890625 
Q 35.75 6.890625 40.890625 13.453125 
Q 46.046875 20.015625 46.78125 33.40625 
Q 43.953125 29.203125 39.59375 26.953125 
Q 35.25 24.703125 29.984375 24.703125 
Q 19.046875 24.703125 12.671875 31.3125 
Q 6.296875 37.9375 6.296875 49.421875 
Q 6.296875 60.640625 12.9375 67.421875 
Q 19.578125 74.21875 30.609375 74.21875 
Q 43.265625 74.21875 49.921875 64.515625 
Q 56.59375 54.828125 56.59375 36.375 
Q 56.59375 19.140625 48.40625 8.859375 
Q 40.234375 -1.421875 26.421875 -1.421875 
Q 22.703125 -1.421875 18.890625 -0.6875 
Q 15.09375 0.046875 10.984375 1.515625 
z
M 30.609375 32.421875 
Q 37.25 32.421875 41.125 36.953125 
Q 45.015625 41.5 45.015625 49.421875 
Q 45.015625 57.28125 41.125 61.84375 
Q 37.25 66.40625 30.609375 66.40625 
Q 23.96875 66.40625 20.09375 61.84375 
Q 16.21875 57.28125 16.21875 49.421875 
Q 16.21875 41.5 20.09375 36.953125 
Q 23.96875 32.421875 30.609375 32.421875 
z
" id="DejaVuSans-57"/>
     <path id="DejaVuSans-32"/>
     <path d="M 48.6875 27.296875 
Q 48.6875 37.203125 44.609375 42.84375 
Q 40.53125 48.484375 33.40625 48.484375 
Q 26.265625 48.484375 22.1875 42.84375 
Q 18.109375 37.203125 18.109375 27.296875 
Q 18.109375 17.390625 22.1875 11.75 
Q 26.265625 6.109375 33.40625 6.109375 
Q 40.53125 6.109375 44.609375 11.75 
Q 48.6875 17.390625 48.6875 27.296875 
z
M 18.109375 46.390625 
Q 20.953125 51.265625 25.265625 53.625 
Q 29.59375 56 35.59375 56 
Q 45.5625 56 51.78125 48.09375 
Q 58.015625 40.1875 58.015625 27.296875 
Q 58.015625 14.40625 51.78125 6.484375 
Q 45.5625 -1.421875 35.59375 -1.421875 
Q 29.59375 -1.421875 25.265625 0.953125 
Q 20.953125 3.328125 18.109375 8.203125 
L 18.109375 0 
L 9.078125 0 
L 9.078125 75.984375 
L 18.109375 75.984375 
z
" id="DejaVuSans-98"/>
    </defs>
    <use xlink:href="#DejaVuSans-67"/>
    <use x="69.824219" xlink:href="#DejaVuSans-79"/>
    <use x="146.785156" xlink:href="#DejaVuSans-86"/>
    <use x="215.193359" xlink:href="#DejaVuSans-73"/>
    <use x="244.685547" xlink:href="#DejaVuSans-68"/>
    <use x="321.6875" xlink:href="#DejaVuSans-45"/>
    <use x="357.771484" xlink:href="#DejaVuSans-49"/>
    <use x="421.394531" xlink:href="#DejaVuSans-57"/>
    <use x="485.017578" xlink:href="#DejaVuSans-32"/>
    <use x="516.804688" xlink:href="#DejaVuSans-105"/>
    <use x="544.587891" xlink:href="#DejaVuSans-110"/>
    <use x="607.966797" xlink:href="#DejaVuSans-32"/>
    <use x="639.753906" xlink:href="#DejaVuSans-67"/>
    <use x="709.578125" xlink:href="#DejaVuSans-97"/>
    <use x="770.857422" xlink:href="#DejaVuSans-110"/>
    <use x="834.236328" xlink:href="#DejaVuSans-116"/>
    <use x="873.445312" xlink:href="#DejaVuSans-97"/>
    <use x="934.724609" xlink:href="#DejaVuSans-98"/>
    <use x="998.201172" xlink:href="#DejaVuSans-114"/>
    <use x="1039.314453" xlink:href="#DejaVuSans-105"/>
    <use x="1067.097656" xlink:href="#DejaVuSans-97"/>
   </g>
  </g>
 </g>
 <defs>
  <clipPath id="p0977d8101d">
   <rect height="159.882353" width="948.6" x="153" y="86.4"/>
  </clipPath>
  <clipPath id="p324bae6906">
   <rect height="159.882353" width="948.6" x="153" y="278.258824"/>
  </clipPath>
  <clipPath id="pf782884fe0">
   <rect height="159.882353" width="948.6" x="153" y="470.117647"/>
  </clipPath>
 </defs>
</svg>
