<?xml version="1.0" encoding="utf-8" standalone="no"?>
<!DOCTYPE svg PUBLIC "-//W3C//DTD SVG 1.1//EN"
  "http://www.w3.org/Graphics/SVG/1.1/DTD/svg11.dtd">
<!-- Created with matplotlib (https://matplotlib.org/) -->
<svg height="648pt" version="1.1" viewBox="0 0 1008 648" width="1008pt" xmlns="http://www.w3.org/2000/svg" xmlns:xlink="http://www.w3.org/1999/xlink">
 <metadata>
  <rdf:RDF xmlns:cc="http://creativecommons.org/ns#" xmlns:dc="http://purl.org/dc/elements/1.1/" xmlns:rdf="http://www.w3.org/1999/02/22-rdf-syntax-ns#">
   <cc:Work>
    <dc:type rdf:resource="http://purl.org/dc/dcmitype/StillImage"/>
    <dc:date>2021-08-27T06:22:02.947101</dc:date>
    <dc:format>image/svg+xml</dc:format>
    <dc:creator>
     <cc:Agent>
      <dc:title>Matplotlib v3.3.4, https://matplotlib.org/</dc:title>
     </cc:Agent>
    </dc:creator>
   </cc:Work>
  </rdf:RDF>
 </metadata>
 <defs>
  <style type="text/css">*{stroke-linecap:butt;stroke-linejoin:round;}</style>
 </defs>
 <g id="figure_1">
  <g id="patch_1">
   <path d="M 0 648 
L 1008 648 
L 1008 0 
L 0 0 
z
" style="fill:#ffffff;"/>
  </g>
  <g id="axes_1">
   <g id="patch_2">
    <path d="M 78.54125 174.84 
L 978 174.84 
L 978 46.08 
L 78.54125 46.08 
z
" style="fill:#ffffff;"/>
   </g>
   <g id="matplotlib.axis_1">
    <g id="xtick_1">
     <g id="line2d_1">
      <defs>
       <path d="M 0 0 
L 0 3.5 
" id="mb147e1f7bf" style="stroke:#000000;stroke-width:0.8;"/>
      </defs>
      <g>
       <use style="stroke:#000000;stroke-width:0.8;" x="119.425739" xlink:href="#mb147e1f7bf" y="174.84"/>
      </g>
     </g>
     <g id="text_1">
      <!-- 2020/02/29 -->
      <g transform="translate(90.606989 189.438437)scale(0.1 -0.1)">
       <defs>
        <path d="M 19.1875 8.296875 
L 53.609375 8.296875 
L 53.609375 0 
L 7.328125 0 
L 7.328125 8.296875 
Q 12.9375 14.109375 22.625 23.890625 
Q 32.328125 33.6875 34.8125 36.53125 
Q 39.546875 41.84375 41.421875 45.53125 
Q 43.3125 49.21875 43.3125 52.78125 
Q 43.3125 58.59375 39.234375 62.25 
Q 35.15625 65.921875 28.609375 65.921875 
Q 23.96875 65.921875 18.8125 64.3125 
Q 13.671875 62.703125 7.8125 59.421875 
L 7.8125 69.390625 
Q 13.765625 71.78125 18.9375 73 
Q 24.125 74.21875 28.421875 74.21875 
Q 39.75 74.21875 46.484375 68.546875 
Q 53.21875 62.890625 53.21875 53.421875 
Q 53.21875 48.921875 51.53125 44.890625 
Q 49.859375 40.875 45.40625 35.40625 
Q 44.1875 33.984375 37.640625 27.21875 
Q 31.109375 20.453125 19.1875 8.296875 
z
" id="DejaVuSans-50"/>
        <path d="M 31.78125 66.40625 
Q 24.171875 66.40625 20.328125 58.90625 
Q 16.5 51.421875 16.5 36.375 
Q 16.5 21.390625 20.328125 13.890625 
Q 24.171875 6.390625 31.78125 6.390625 
Q 39.453125 6.390625 43.28125 13.890625 
Q 47.125 21.390625 47.125 36.375 
Q 47.125 51.421875 43.28125 58.90625 
Q 39.453125 66.40625 31.78125 66.40625 
z
M 31.78125 74.21875 
Q 44.046875 74.21875 50.515625 64.515625 
Q 56.984375 54.828125 56.984375 36.375 
Q 56.984375 17.96875 50.515625 8.265625 
Q 44.046875 -1.421875 31.78125 -1.421875 
Q 19.53125 -1.421875 13.0625 8.265625 
Q 6.59375 17.96875 6.59375 36.375 
Q 6.59375 54.828125 13.0625 64.515625 
Q 19.53125 74.21875 31.78125 74.21875 
z
" id="DejaVuSans-48"/>
        <path d="M 25.390625 72.90625 
L 33.6875 72.90625 
L 8.296875 -9.28125 
L 0 -9.28125 
z
" id="DejaVuSans-47"/>
        <path d="M 10.984375 1.515625 
L 10.984375 10.5 
Q 14.703125 8.734375 18.5 7.8125 
Q 22.3125 6.890625 25.984375 6.890625 
Q 35.75 6.890625 40.890625 13.453125 
Q 46.046875 20.015625 46.78125 33.40625 
Q 43.953125 29.203125 39.59375 26.953125 
Q 35.25 24.703125 29.984375 24.703125 
Q 19.046875 24.703125 12.671875 31.3125 
Q 6.296875 37.9375 6.296875 49.421875 
Q 6.296875 60.640625 12.9375 67.421875 
Q 19.578125 74.21875 30.609375 74.21875 
Q 43.265625 74.21875 49.921875 64.515625 
Q 56.59375 54.828125 56.59375 36.375 
Q 56.59375 19.140625 48.40625 8.859375 
Q 40.234375 -1.421875 26.421875 -1.421875 
Q 22.703125 -1.421875 18.890625 -0.6875 
Q 15.09375 0.046875 10.984375 1.515625 
z
M 30.609375 32.421875 
Q 37.25 32.421875 41.125 36.953125 
Q 45.015625 41.5 45.015625 49.421875 
Q 45.015625 57.28125 41.125 61.84375 
Q 37.25 66.40625 30.609375 66.40625 
Q 23.96875 66.40625 20.09375 61.84375 
Q 16.21875 57.28125 16.21875 49.421875 
Q 16.21875 41.5 20.09375 36.953125 
Q 23.96875 32.421875 30.609375 32.421875 
z
" id="DejaVuSans-57"/>
       </defs>
       <use xlink:href="#DejaVuSans-50"/>
       <use x="63.623047" xlink:href="#DejaVuSans-48"/>
       <use x="127.246094" xlink:href="#DejaVuSans-50"/>
       <use x="190.869141" xlink:href="#DejaVuSans-48"/>
       <use x="254.492188" xlink:href="#DejaVuSans-47"/>
       <use x="288.183594" xlink:href="#DejaVuSans-48"/>
       <use x="351.806641" xlink:href="#DejaVuSans-50"/>
       <use x="415.429688" xlink:href="#DejaVuSans-47"/>
       <use x="449.121094" xlink:href="#DejaVuSans-50"/>
       <use x="512.744141" xlink:href="#DejaVuSans-57"/>
      </g>
     </g>
    </g>
    <g id="xtick_2">
     <g id="line2d_2">
      <g>
       <use style="stroke:#000000;stroke-width:0.8;" x="305.264323" xlink:href="#mb147e1f7bf" y="174.84"/>
      </g>
     </g>
     <g id="text_2">
      <!-- 2020/06/08 -->
      <g transform="translate(276.445573 189.438437)scale(0.1 -0.1)">
       <defs>
        <path d="M 33.015625 40.375 
Q 26.375 40.375 22.484375 35.828125 
Q 18.609375 31.296875 18.609375 23.390625 
Q 18.609375 15.53125 22.484375 10.953125 
Q 26.375 6.390625 33.015625 6.390625 
Q 39.65625 6.390625 43.53125 10.953125 
Q 47.40625 15.53125 47.40625 23.390625 
Q 47.40625 31.296875 43.53125 35.828125 
Q 39.65625 40.375 33.015625 40.375 
z
M 52.59375 71.296875 
L 52.59375 62.3125 
Q 48.875 64.0625 45.09375 64.984375 
Q 41.3125 65.921875 37.59375 65.921875 
Q 27.828125 65.921875 22.671875 59.328125 
Q 17.53125 52.734375 16.796875 39.40625 
Q 19.671875 43.65625 24.015625 45.921875 
Q 28.375 48.1875 33.59375 48.1875 
Q 44.578125 48.1875 50.953125 41.515625 
Q 57.328125 34.859375 57.328125 23.390625 
Q 57.328125 12.15625 50.6875 5.359375 
Q 44.046875 -1.421875 33.015625 -1.421875 
Q 20.359375 -1.421875 13.671875 8.265625 
Q 6.984375 17.96875 6.984375 36.375 
Q 6.984375 53.65625 15.1875 63.9375 
Q 23.390625 74.21875 37.203125 74.21875 
Q 40.921875 74.21875 44.703125 73.484375 
Q 48.484375 72.75 52.59375 71.296875 
z
" id="DejaVuSans-54"/>
        <path d="M 31.78125 34.625 
Q 24.75 34.625 20.71875 30.859375 
Q 16.703125 27.09375 16.703125 20.515625 
Q 16.703125 13.921875 20.71875 10.15625 
Q 24.75 6.390625 31.78125 6.390625 
Q 38.8125 6.390625 42.859375 10.171875 
Q 46.921875 13.96875 46.921875 20.515625 
Q 46.921875 27.09375 42.890625 30.859375 
Q 38.875 34.625 31.78125 34.625 
z
M 21.921875 38.8125 
Q 15.578125 40.375 12.03125 44.71875 
Q 8.5 49.078125 8.5 55.328125 
Q 8.5 64.0625 14.71875 69.140625 
Q 20.953125 74.21875 31.78125 74.21875 
Q 42.671875 74.21875 48.875 69.140625 
Q 55.078125 64.0625 55.078125 55.328125 
Q 55.078125 49.078125 51.53125 44.71875 
Q 48 40.375 41.703125 38.8125 
Q 48.828125 37.15625 52.796875 32.3125 
Q 56.78125 27.484375 56.78125 20.515625 
Q 56.78125 9.90625 50.3125 4.234375 
Q 43.84375 -1.421875 31.78125 -1.421875 
Q 19.734375 -1.421875 13.25 4.234375 
Q 6.78125 9.90625 6.78125 20.515625 
Q 6.78125 27.484375 10.78125 32.3125 
Q 14.796875 37.15625 21.921875 38.8125 
z
M 18.3125 54.390625 
Q 18.3125 48.734375 21.84375 45.5625 
Q 25.390625 42.390625 31.78125 42.390625 
Q 38.140625 42.390625 41.71875 45.5625 
Q 45.3125 48.734375 45.3125 54.390625 
Q 45.3125 60.0625 41.71875 63.234375 
Q 38.140625 66.40625 31.78125 66.40625 
Q 25.390625 66.40625 21.84375 63.234375 
Q 18.3125 60.0625 18.3125 54.390625 
z
" id="DejaVuSans-56"/>
       </defs>
       <use xlink:href="#DejaVuSans-50"/>
       <use x="63.623047" xlink:href="#DejaVuSans-48"/>
       <use x="127.246094" xlink:href="#DejaVuSans-50"/>
       <use x="190.869141" xlink:href="#DejaVuSans-48"/>
       <use x="254.492188" xlink:href="#DejaVuSans-47"/>
       <use x="288.183594" xlink:href="#DejaVuSans-48"/>
       <use x="351.806641" xlink:href="#DejaVuSans-54"/>
       <use x="415.429688" xlink:href="#DejaVuSans-47"/>
       <use x="449.121094" xlink:href="#DejaVuSans-48"/>
       <use x="512.744141" xlink:href="#DejaVuSans-56"/>
      </g>
     </g>
    </g>
    <g id="xtick_3">
     <g id="line2d_3">
      <g>
       <use style="stroke:#000000;stroke-width:0.8;" x="491.102908" xlink:href="#mb147e1f7bf" y="174.84"/>
      </g>
     </g>
     <g id="text_3">
      <!-- 2020/09/16 -->
      <g transform="translate(462.284158 189.438437)scale(0.1 -0.1)">
       <defs>
        <path d="M 12.40625 8.296875 
L 28.515625 8.296875 
L 28.515625 63.921875 
L 10.984375 60.40625 
L 10.984375 69.390625 
L 28.421875 72.90625 
L 38.28125 72.90625 
L 38.28125 8.296875 
L 54.390625 8.296875 
L 54.390625 0 
L 12.40625 0 
z
" id="DejaVuSans-49"/>
       </defs>
       <use xlink:href="#DejaVuSans-50"/>
       <use x="63.623047" xlink:href="#DejaVuSans-48"/>
       <use x="127.246094" xlink:href="#DejaVuSans-50"/>
       <use x="190.869141" xlink:href="#DejaVuSans-48"/>
       <use x="254.492188" xlink:href="#DejaVuSans-47"/>
       <use x="288.183594" xlink:href="#DejaVuSans-48"/>
       <use x="351.806641" xlink:href="#DejaVuSans-57"/>
       <use x="415.429688" xlink:href="#DejaVuSans-47"/>
       <use x="449.121094" xlink:href="#DejaVuSans-49"/>
       <use x="512.744141" xlink:href="#DejaVuSans-54"/>
      </g>
     </g>
    </g>
    <g id="xtick_4">
     <g id="line2d_4">
      <g>
       <use style="stroke:#000000;stroke-width:0.8;" x="676.941493" xlink:href="#mb147e1f7bf" y="174.84"/>
      </g>
     </g>
     <g id="text_4">
      <!-- 2020/12/25 -->
      <g transform="translate(648.122743 189.438437)scale(0.1 -0.1)">
       <defs>
        <path d="M 10.796875 72.90625 
L 49.515625 72.90625 
L 49.515625 64.59375 
L 19.828125 64.59375 
L 19.828125 46.734375 
Q 21.96875 47.46875 24.109375 47.828125 
Q 26.265625 48.1875 28.421875 48.1875 
Q 40.625 48.1875 47.75 41.5 
Q 54.890625 34.8125 54.890625 23.390625 
Q 54.890625 11.625 47.5625 5.09375 
Q 40.234375 -1.421875 26.90625 -1.421875 
Q 22.3125 -1.421875 17.546875 -0.640625 
Q 12.796875 0.140625 7.71875 1.703125 
L 7.71875 11.625 
Q 12.109375 9.234375 16.796875 8.0625 
Q 21.484375 6.890625 26.703125 6.890625 
Q 35.15625 6.890625 40.078125 11.328125 
Q 45.015625 15.765625 45.015625 23.390625 
Q 45.015625 31 40.078125 35.4375 
Q 35.15625 39.890625 26.703125 39.890625 
Q 22.75 39.890625 18.8125 39.015625 
Q 14.890625 38.140625 10.796875 36.28125 
z
" id="DejaVuSans-53"/>
       </defs>
       <use xlink:href="#DejaVuSans-50"/>
       <use x="63.623047" xlink:href="#DejaVuSans-48"/>
       <use x="127.246094" xlink:href="#DejaVuSans-50"/>
       <use x="190.869141" xlink:href="#DejaVuSans-48"/>
       <use x="254.492188" xlink:href="#DejaVuSans-47"/>
       <use x="288.183594" xlink:href="#DejaVuSans-49"/>
       <use x="351.806641" xlink:href="#DejaVuSans-50"/>
       <use x="415.429688" xlink:href="#DejaVuSans-47"/>
       <use x="449.121094" xlink:href="#DejaVuSans-50"/>
       <use x="512.744141" xlink:href="#DejaVuSans-53"/>
      </g>
     </g>
    </g>
    <g id="xtick_5">
     <g id="line2d_5">
      <g>
       <use style="stroke:#000000;stroke-width:0.8;" x="862.780077" xlink:href="#mb147e1f7bf" y="174.84"/>
      </g>
     </g>
     <g id="text_5">
      <!-- 2021/04/04 -->
      <g transform="translate(833.961327 189.438437)scale(0.1 -0.1)">
       <defs>
        <path d="M 37.796875 64.3125 
L 12.890625 25.390625 
L 37.796875 25.390625 
z
M 35.203125 72.90625 
L 47.609375 72.90625 
L 47.609375 25.390625 
L 58.015625 25.390625 
L 58.015625 17.1875 
L 47.609375 17.1875 
L 47.609375 0 
L 37.796875 0 
L 37.796875 17.1875 
L 4.890625 17.1875 
L 4.890625 26.703125 
z
" id="DejaVuSans-52"/>
       </defs>
       <use xlink:href="#DejaVuSans-50"/>
       <use x="63.623047" xlink:href="#DejaVuSans-48"/>
       <use x="127.246094" xlink:href="#DejaVuSans-50"/>
       <use x="190.869141" xlink:href="#DejaVuSans-49"/>
       <use x="254.492188" xlink:href="#DejaVuSans-47"/>
       <use x="288.183594" xlink:href="#DejaVuSans-48"/>
       <use x="351.806641" xlink:href="#DejaVuSans-52"/>
       <use x="415.429688" xlink:href="#DejaVuSans-47"/>
       <use x="449.121094" xlink:href="#DejaVuSans-48"/>
       <use x="512.744141" xlink:href="#DejaVuSans-52"/>
      </g>
     </g>
    </g>
    <g id="text_6">
     <!-- Time, t [days] -->
     <g transform="translate(493.605781 203.116562)scale(0.1 -0.1)">
      <defs>
       <path d="M -0.296875 72.90625 
L 61.375 72.90625 
L 61.375 64.59375 
L 35.5 64.59375 
L 35.5 0 
L 25.59375 0 
L 25.59375 64.59375 
L -0.296875 64.59375 
z
" id="DejaVuSans-84"/>
       <path d="M 9.421875 54.6875 
L 18.40625 54.6875 
L 18.40625 0 
L 9.421875 0 
z
M 9.421875 75.984375 
L 18.40625 75.984375 
L 18.40625 64.59375 
L 9.421875 64.59375 
z
" id="DejaVuSans-105"/>
       <path d="M 52 44.1875 
Q 55.375 50.25 60.0625 53.125 
Q 64.75 56 71.09375 56 
Q 79.640625 56 84.28125 50.015625 
Q 88.921875 44.046875 88.921875 33.015625 
L 88.921875 0 
L 79.890625 0 
L 79.890625 32.71875 
Q 79.890625 40.578125 77.09375 44.375 
Q 74.3125 48.1875 68.609375 48.1875 
Q 61.625 48.1875 57.5625 43.546875 
Q 53.515625 38.921875 53.515625 30.90625 
L 53.515625 0 
L 44.484375 0 
L 44.484375 32.71875 
Q 44.484375 40.625 41.703125 44.40625 
Q 38.921875 48.1875 33.109375 48.1875 
Q 26.21875 48.1875 22.15625 43.53125 
Q 18.109375 38.875 18.109375 30.90625 
L 18.109375 0 
L 9.078125 0 
L 9.078125 54.6875 
L 18.109375 54.6875 
L 18.109375 46.1875 
Q 21.1875 51.21875 25.484375 53.609375 
Q 29.78125 56 35.6875 56 
Q 41.65625 56 45.828125 52.96875 
Q 50 49.953125 52 44.1875 
z
" id="DejaVuSans-109"/>
       <path d="M 56.203125 29.59375 
L 56.203125 25.203125 
L 14.890625 25.203125 
Q 15.484375 15.921875 20.484375 11.0625 
Q 25.484375 6.203125 34.421875 6.203125 
Q 39.59375 6.203125 44.453125 7.46875 
Q 49.3125 8.734375 54.109375 11.28125 
L 54.109375 2.78125 
Q 49.265625 0.734375 44.1875 -0.34375 
Q 39.109375 -1.421875 33.890625 -1.421875 
Q 20.796875 -1.421875 13.15625 6.1875 
Q 5.515625 13.8125 5.515625 26.8125 
Q 5.515625 40.234375 12.765625 48.109375 
Q 20.015625 56 32.328125 56 
Q 43.359375 56 49.78125 48.890625 
Q 56.203125 41.796875 56.203125 29.59375 
z
M 47.21875 32.234375 
Q 47.125 39.59375 43.09375 43.984375 
Q 39.0625 48.390625 32.421875 48.390625 
Q 24.90625 48.390625 20.390625 44.140625 
Q 15.875 39.890625 15.1875 32.171875 
z
" id="DejaVuSans-101"/>
       <path d="M 11.71875 12.40625 
L 22.015625 12.40625 
L 22.015625 4 
L 14.015625 -11.625 
L 7.71875 -11.625 
L 11.71875 4 
z
" id="DejaVuSans-44"/>
       <path id="DejaVuSans-32"/>
       <path d="M 18.3125 70.21875 
L 18.3125 54.6875 
L 36.8125 54.6875 
L 36.8125 47.703125 
L 18.3125 47.703125 
L 18.3125 18.015625 
Q 18.3125 11.328125 20.140625 9.421875 
Q 21.96875 7.515625 27.59375 7.515625 
L 36.8125 7.515625 
L 36.8125 0 
L 27.59375 0 
Q 17.1875 0 13.234375 3.875 
Q 9.28125 7.765625 9.28125 18.015625 
L 9.28125 47.703125 
L 2.6875 47.703125 
L 2.6875 54.6875 
L 9.28125 54.6875 
L 9.28125 70.21875 
z
" id="DejaVuSans-116"/>
       <path d="M 8.59375 75.984375 
L 29.296875 75.984375 
L 29.296875 69 
L 17.578125 69 
L 17.578125 -6.203125 
L 29.296875 -6.203125 
L 29.296875 -13.1875 
L 8.59375 -13.1875 
z
" id="DejaVuSans-91"/>
       <path d="M 45.40625 46.390625 
L 45.40625 75.984375 
L 54.390625 75.984375 
L 54.390625 0 
L 45.40625 0 
L 45.40625 8.203125 
Q 42.578125 3.328125 38.25 0.953125 
Q 33.9375 -1.421875 27.875 -1.421875 
Q 17.96875 -1.421875 11.734375 6.484375 
Q 5.515625 14.40625 5.515625 27.296875 
Q 5.515625 40.1875 11.734375 48.09375 
Q 17.96875 56 27.875 56 
Q 33.9375 56 38.25 53.625 
Q 42.578125 51.265625 45.40625 46.390625 
z
M 14.796875 27.296875 
Q 14.796875 17.390625 18.875 11.75 
Q 22.953125 6.109375 30.078125 6.109375 
Q 37.203125 6.109375 41.296875 11.75 
Q 45.40625 17.390625 45.40625 27.296875 
Q 45.40625 37.203125 41.296875 42.84375 
Q 37.203125 48.484375 30.078125 48.484375 
Q 22.953125 48.484375 18.875 42.84375 
Q 14.796875 37.203125 14.796875 27.296875 
z
" id="DejaVuSans-100"/>
       <path d="M 34.28125 27.484375 
Q 23.390625 27.484375 19.1875 25 
Q 14.984375 22.515625 14.984375 16.5 
Q 14.984375 11.71875 18.140625 8.90625 
Q 21.296875 6.109375 26.703125 6.109375 
Q 34.1875 6.109375 38.703125 11.40625 
Q 43.21875 16.703125 43.21875 25.484375 
L 43.21875 27.484375 
z
M 52.203125 31.203125 
L 52.203125 0 
L 43.21875 0 
L 43.21875 8.296875 
Q 40.140625 3.328125 35.546875 0.953125 
Q 30.953125 -1.421875 24.3125 -1.421875 
Q 15.921875 -1.421875 10.953125 3.296875 
Q 6 8.015625 6 15.921875 
Q 6 25.140625 12.171875 29.828125 
Q 18.359375 34.515625 30.609375 34.515625 
L 43.21875 34.515625 
L 43.21875 35.40625 
Q 43.21875 41.609375 39.140625 45 
Q 35.0625 48.390625 27.6875 48.390625 
Q 23 48.390625 18.546875 47.265625 
Q 14.109375 46.140625 10.015625 43.890625 
L 10.015625 52.203125 
Q 14.9375 54.109375 19.578125 55.046875 
Q 24.21875 56 28.609375 56 
Q 40.484375 56 46.34375 49.84375 
Q 52.203125 43.703125 52.203125 31.203125 
z
" id="DejaVuSans-97"/>
       <path d="M 32.171875 -5.078125 
Q 28.375 -14.84375 24.75 -17.8125 
Q 21.140625 -20.796875 15.09375 -20.796875 
L 7.90625 -20.796875 
L 7.90625 -13.28125 
L 13.1875 -13.28125 
Q 16.890625 -13.28125 18.9375 -11.515625 
Q 21 -9.765625 23.484375 -3.21875 
L 25.09375 0.875 
L 2.984375 54.6875 
L 12.5 54.6875 
L 29.59375 11.921875 
L 46.6875 54.6875 
L 56.203125 54.6875 
z
" id="DejaVuSans-121"/>
       <path d="M 44.28125 53.078125 
L 44.28125 44.578125 
Q 40.484375 46.53125 36.375 47.5 
Q 32.28125 48.484375 27.875 48.484375 
Q 21.1875 48.484375 17.84375 46.4375 
Q 14.5 44.390625 14.5 40.28125 
Q 14.5 37.15625 16.890625 35.375 
Q 19.28125 33.59375 26.515625 31.984375 
L 29.59375 31.296875 
Q 39.15625 29.25 43.1875 25.515625 
Q 47.21875 21.78125 47.21875 15.09375 
Q 47.21875 7.46875 41.1875 3.015625 
Q 35.15625 -1.421875 24.609375 -1.421875 
Q 20.21875 -1.421875 15.453125 -0.5625 
Q 10.6875 0.296875 5.421875 2 
L 5.421875 11.28125 
Q 10.40625 8.6875 15.234375 7.390625 
Q 20.0625 6.109375 24.8125 6.109375 
Q 31.15625 6.109375 34.5625 8.28125 
Q 37.984375 10.453125 37.984375 14.40625 
Q 37.984375 18.0625 35.515625 20.015625 
Q 33.0625 21.96875 24.703125 23.78125 
L 21.578125 24.515625 
Q 13.234375 26.265625 9.515625 29.90625 
Q 5.8125 33.546875 5.8125 39.890625 
Q 5.8125 47.609375 11.28125 51.796875 
Q 16.75 56 26.8125 56 
Q 31.78125 56 36.171875 55.265625 
Q 40.578125 54.546875 44.28125 53.078125 
z
" id="DejaVuSans-115"/>
       <path d="M 30.421875 75.984375 
L 30.421875 -13.1875 
L 9.71875 -13.1875 
L 9.71875 -6.203125 
L 21.390625 -6.203125 
L 21.390625 69 
L 9.71875 69 
L 9.71875 75.984375 
z
" id="DejaVuSans-93"/>
      </defs>
      <use xlink:href="#DejaVuSans-84"/>
      <use x="57.958984" xlink:href="#DejaVuSans-105"/>
      <use x="85.742188" xlink:href="#DejaVuSans-109"/>
      <use x="183.154297" xlink:href="#DejaVuSans-101"/>
      <use x="244.677734" xlink:href="#DejaVuSans-44"/>
      <use x="276.464844" xlink:href="#DejaVuSans-32"/>
      <use x="308.251953" xlink:href="#DejaVuSans-116"/>
      <use x="347.460938" xlink:href="#DejaVuSans-32"/>
      <use x="379.248047" xlink:href="#DejaVuSans-91"/>
      <use x="418.261719" xlink:href="#DejaVuSans-100"/>
      <use x="481.738281" xlink:href="#DejaVuSans-97"/>
      <use x="543.017578" xlink:href="#DejaVuSans-121"/>
      <use x="602.197266" xlink:href="#DejaVuSans-115"/>
      <use x="654.296875" xlink:href="#DejaVuSans-93"/>
     </g>
    </g>
   </g>
   <g id="matplotlib.axis_2">
    <g id="ytick_1">
     <g id="line2d_6">
      <defs>
       <path d="M 0 0 
L -3.5 0 
" id="m8b61846861" style="stroke:#000000;stroke-width:0.8;"/>
      </defs>
      <g>
       <use style="stroke:#000000;stroke-width:0.8;" x="78.54125" xlink:href="#m8b61846861" y="173.705766"/>
      </g>
     </g>
     <g id="text_7">
      <!-- −100 -->
      <g transform="translate(44.074063 177.504985)scale(0.1 -0.1)">
       <defs>
        <path d="M 10.59375 35.5 
L 73.1875 35.5 
L 73.1875 27.203125 
L 10.59375 27.203125 
z
" id="DejaVuSans-8722"/>
       </defs>
       <use xlink:href="#DejaVuSans-8722"/>
       <use x="83.789062" xlink:href="#DejaVuSans-49"/>
       <use x="147.412109" xlink:href="#DejaVuSans-48"/>
       <use x="211.035156" xlink:href="#DejaVuSans-48"/>
      </g>
     </g>
    </g>
    <g id="ytick_2">
     <g id="line2d_7">
      <g>
       <use style="stroke:#000000;stroke-width:0.8;" x="78.54125" xlink:href="#m8b61846861" y="144.005025"/>
      </g>
     </g>
     <g id="text_8">
      <!-- 0 -->
      <g transform="translate(65.17875 147.804244)scale(0.1 -0.1)">
       <use xlink:href="#DejaVuSans-48"/>
      </g>
     </g>
    </g>
    <g id="ytick_3">
     <g id="line2d_8">
      <g>
       <use style="stroke:#000000;stroke-width:0.8;" x="78.54125" xlink:href="#m8b61846861" y="114.304284"/>
      </g>
     </g>
     <g id="text_9">
      <!-- 100 -->
      <g transform="translate(52.45375 118.103502)scale(0.1 -0.1)">
       <use xlink:href="#DejaVuSans-49"/>
       <use x="63.623047" xlink:href="#DejaVuSans-48"/>
       <use x="127.246094" xlink:href="#DejaVuSans-48"/>
      </g>
     </g>
    </g>
    <g id="ytick_4">
     <g id="line2d_9">
      <g>
       <use style="stroke:#000000;stroke-width:0.8;" x="78.54125" xlink:href="#m8b61846861" y="84.603543"/>
      </g>
     </g>
     <g id="text_10">
      <!-- 200 -->
      <g transform="translate(52.45375 88.402761)scale(0.1 -0.1)">
       <use xlink:href="#DejaVuSans-50"/>
       <use x="63.623047" xlink:href="#DejaVuSans-48"/>
       <use x="127.246094" xlink:href="#DejaVuSans-48"/>
      </g>
     </g>
    </g>
    <g id="ytick_5">
     <g id="line2d_10">
      <g>
       <use style="stroke:#000000;stroke-width:0.8;" x="78.54125" xlink:href="#m8b61846861" y="54.902801"/>
      </g>
     </g>
     <g id="text_11">
      <!-- 300 -->
      <g transform="translate(52.45375 58.70202)scale(0.1 -0.1)">
       <defs>
        <path d="M 40.578125 39.3125 
Q 47.65625 37.796875 51.625 33 
Q 55.609375 28.21875 55.609375 21.1875 
Q 55.609375 10.40625 48.1875 4.484375 
Q 40.765625 -1.421875 27.09375 -1.421875 
Q 22.515625 -1.421875 17.65625 -0.515625 
Q 12.796875 0.390625 7.625 2.203125 
L 7.625 11.71875 
Q 11.71875 9.328125 16.59375 8.109375 
Q 21.484375 6.890625 26.8125 6.890625 
Q 36.078125 6.890625 40.9375 10.546875 
Q 45.796875 14.203125 45.796875 21.1875 
Q 45.796875 27.640625 41.28125 31.265625 
Q 36.765625 34.90625 28.71875 34.90625 
L 20.21875 34.90625 
L 20.21875 43.015625 
L 29.109375 43.015625 
Q 36.375 43.015625 40.234375 45.921875 
Q 44.09375 48.828125 44.09375 54.296875 
Q 44.09375 59.90625 40.109375 62.90625 
Q 36.140625 65.921875 28.71875 65.921875 
Q 24.65625 65.921875 20.015625 65.03125 
Q 15.375 64.15625 9.8125 62.3125 
L 9.8125 71.09375 
Q 15.4375 72.65625 20.34375 73.4375 
Q 25.25 74.21875 29.59375 74.21875 
Q 40.828125 74.21875 47.359375 69.109375 
Q 53.90625 64.015625 53.90625 55.328125 
Q 53.90625 49.265625 50.4375 45.09375 
Q 46.96875 40.921875 40.578125 39.3125 
z
" id="DejaVuSans-51"/>
       </defs>
       <use xlink:href="#DejaVuSans-51"/>
       <use x="63.623047" xlink:href="#DejaVuSans-48"/>
       <use x="127.246094" xlink:href="#DejaVuSans-48"/>
      </g>
     </g>
    </g>
    <g id="text_12">
     <!-- daily_cases_(t+7) -->
     <g transform="translate(37.71625 154.767813)rotate(-90)scale(0.1 -0.1)">
      <defs>
       <path d="M 9.421875 75.984375 
L 18.40625 75.984375 
L 18.40625 0 
L 9.421875 0 
z
" id="DejaVuSans-108"/>
       <path d="M 50.984375 -16.609375 
L 50.984375 -23.578125 
L -0.984375 -23.578125 
L -0.984375 -16.609375 
z
" id="DejaVuSans-95"/>
       <path d="M 48.78125 52.59375 
L 48.78125 44.1875 
Q 44.96875 46.296875 41.140625 47.34375 
Q 37.3125 48.390625 33.40625 48.390625 
Q 24.65625 48.390625 19.8125 42.84375 
Q 14.984375 37.3125 14.984375 27.296875 
Q 14.984375 17.28125 19.8125 11.734375 
Q 24.65625 6.203125 33.40625 6.203125 
Q 37.3125 6.203125 41.140625 7.25 
Q 44.96875 8.296875 48.78125 10.40625 
L 48.78125 2.09375 
Q 45.015625 0.34375 40.984375 -0.53125 
Q 36.96875 -1.421875 32.421875 -1.421875 
Q 20.0625 -1.421875 12.78125 6.34375 
Q 5.515625 14.109375 5.515625 27.296875 
Q 5.515625 40.671875 12.859375 48.328125 
Q 20.21875 56 33.015625 56 
Q 37.15625 56 41.109375 55.140625 
Q 45.0625 54.296875 48.78125 52.59375 
z
" id="DejaVuSans-99"/>
       <path d="M 31 75.875 
Q 24.46875 64.65625 21.28125 53.65625 
Q 18.109375 42.671875 18.109375 31.390625 
Q 18.109375 20.125 21.3125 9.0625 
Q 24.515625 -2 31 -13.1875 
L 23.1875 -13.1875 
Q 15.875 -1.703125 12.234375 9.375 
Q 8.59375 20.453125 8.59375 31.390625 
Q 8.59375 42.28125 12.203125 53.3125 
Q 15.828125 64.359375 23.1875 75.875 
z
" id="DejaVuSans-40"/>
       <path d="M 46 62.703125 
L 46 35.5 
L 73.1875 35.5 
L 73.1875 27.203125 
L 46 27.203125 
L 46 0 
L 37.796875 0 
L 37.796875 27.203125 
L 10.59375 27.203125 
L 10.59375 35.5 
L 37.796875 35.5 
L 37.796875 62.703125 
z
" id="DejaVuSans-43"/>
       <path d="M 8.203125 72.90625 
L 55.078125 72.90625 
L 55.078125 68.703125 
L 28.609375 0 
L 18.3125 0 
L 43.21875 64.59375 
L 8.203125 64.59375 
z
" id="DejaVuSans-55"/>
       <path d="M 8.015625 75.875 
L 15.828125 75.875 
Q 23.140625 64.359375 26.78125 53.3125 
Q 30.421875 42.28125 30.421875 31.390625 
Q 30.421875 20.453125 26.78125 9.375 
Q 23.140625 -1.703125 15.828125 -13.1875 
L 8.015625 -13.1875 
Q 14.5 -2 17.703125 9.0625 
Q 20.90625 20.125 20.90625 31.390625 
Q 20.90625 42.671875 17.703125 53.65625 
Q 14.5 64.65625 8.015625 75.875 
z
" id="DejaVuSans-41"/>
      </defs>
      <use xlink:href="#DejaVuSans-100"/>
      <use x="63.476562" xlink:href="#DejaVuSans-97"/>
      <use x="124.755859" xlink:href="#DejaVuSans-105"/>
      <use x="152.539062" xlink:href="#DejaVuSans-108"/>
      <use x="180.322266" xlink:href="#DejaVuSans-121"/>
      <use x="239.501953" xlink:href="#DejaVuSans-95"/>
      <use x="289.501953" xlink:href="#DejaVuSans-99"/>
      <use x="344.482422" xlink:href="#DejaVuSans-97"/>
      <use x="405.761719" xlink:href="#DejaVuSans-115"/>
      <use x="457.861328" xlink:href="#DejaVuSans-101"/>
      <use x="519.384766" xlink:href="#DejaVuSans-115"/>
      <use x="571.484375" xlink:href="#DejaVuSans-95"/>
      <use x="621.484375" xlink:href="#DejaVuSans-40"/>
      <use x="660.498047" xlink:href="#DejaVuSans-116"/>
      <use x="699.707031" xlink:href="#DejaVuSans-43"/>
      <use x="783.496094" xlink:href="#DejaVuSans-55"/>
      <use x="847.119141" xlink:href="#DejaVuSans-41"/>
     </g>
    </g>
   </g>
   <g id="line2d_11">
    <path clip-path="url(#p6d1a0a1ea8)" d="M 119.425739 143.708017 
L 121.284124 144.005025 
L 126.859282 144.005025 
L 128.717668 141.628966 
L 130.576054 140.440936 
L 132.43444 138.955899 
L 134.292825 141.331958 
L 136.151211 143.114003 
L 138.009597 138.955899 
L 141.726369 127.669617 
L 143.584755 126.481588 
L 145.44314 123.808521 
L 149.159912 121.432462 
L 151.018298 117.868373 
L 152.876684 90.543691 
L 154.73507 101.532965 
L 156.593456 114.898298 
L 158.451841 118.759395 
L 160.310227 118.16538 
L 162.168613 126.778595 
L 164.026999 127.075602 
L 165.885385 132.718743 
L 167.743771 122.323484 
L 169.602157 123.511513 
L 171.460542 132.124728 
L 173.318928 135.688817 
L 175.177314 134.500788 
L 177.0357 122.323484 
L 178.894086 126.18458 
L 180.752472 133.015751 
L 182.610857 123.808521 
L 184.469243 136.282832 
L 186.327629 130.045676 
L 188.186015 140.143928 
L 190.044401 134.20378 
L 191.902787 136.57984 
L 193.761173 126.18458 
L 195.619558 132.718743 
L 197.477944 128.560639 
L 199.33633 132.124728 
L 201.194716 134.500788 
L 203.053102 132.421736 
L 204.911488 128.263632 
L 206.769873 124.99655 
L 208.628259 132.718743 
L 210.486645 139.252906 
L 212.345031 137.173854 
L 214.203417 132.421736 
L 216.061803 129.154654 
L 217.920189 124.402536 
L 219.778574 130.342684 
L 221.63696 135.39181 
L 223.495346 142.22298 
L 225.353732 143.41101 
L 227.212118 140.440936 
L 229.070504 135.985825 
L 230.928889 139.549914 
L 232.787275 134.20378 
L 234.645661 141.925973 
L 236.504047 143.114003 
L 238.362433 143.708017 
L 240.220819 138.955899 
L 242.079205 138.361884 
L 243.93759 141.331958 
L 245.795976 138.064877 
L 247.654362 141.331958 
L 249.512748 143.114003 
L 251.371134 143.114003 
L 253.22952 141.628966 
L 255.087905 142.519988 
L 256.946291 141.331958 
L 258.804677 142.519988 
L 260.663063 141.628966 
L 262.521449 143.41101 
L 264.379835 144.005025 
L 266.238221 141.925973 
L 268.096606 143.114003 
L 269.954992 139.846921 
L 271.813378 142.816995 
L 273.671764 141.628966 
L 275.53015 143.41101 
L 277.388536 143.41101 
L 279.246921 142.816995 
L 281.105307 141.628966 
L 282.963693 142.816995 
L 284.822079 142.22298 
L 286.680465 142.519988 
L 288.538851 144.005025 
L 290.397237 143.41101 
L 292.255622 141.628966 
L 294.114008 143.41101 
L 295.972394 142.519988 
L 297.83078 142.519988 
L 299.689166 141.034951 
L 301.547552 143.41101 
L 303.405938 143.708017 
L 305.264323 141.925973 
L 307.122709 142.816995 
L 308.981095 139.846921 
L 310.839481 139.549914 
L 312.697867 140.440936 
L 314.556253 143.708017 
L 316.414638 142.22298 
L 318.273024 140.440936 
L 320.13141 141.925973 
L 321.989796 135.985825 
L 323.848182 141.628966 
L 325.706568 140.737943 
L 327.564954 142.22298 
L 329.423339 144.005025 
L 331.281725 142.22298 
L 333.140111 140.143928 
L 334.998497 141.925973 
L 336.856883 141.925973 
L 338.715269 141.628966 
L 340.573654 143.708017 
L 342.43204 144.005025 
L 344.290426 142.816995 
L 346.148812 142.519988 
L 348.007198 140.737943 
L 349.865584 142.816995 
L 351.72397 143.114003 
L 353.582355 144.005025 
L 355.440741 143.114003 
L 357.299127 143.41101 
L 359.157513 141.925973 
L 361.015899 141.331958 
L 362.874285 142.816995 
L 364.73267 141.925973 
L 366.591056 141.628966 
L 368.449442 137.767869 
L 370.307828 140.143928 
L 372.166214 143.41101 
L 375.882986 139.846921 
L 377.741371 140.440936 
L 379.599757 142.22298 
L 381.458143 142.519988 
L 383.316529 140.143928 
L 385.174915 143.708017 
L 387.033301 142.22298 
L 388.891686 132.718743 
L 390.750072 138.064877 
L 392.608458 136.876847 
L 394.466844 137.767869 
L 396.32523 131.827721 
L 398.183616 132.421736 
L 400.042002 137.767869 
L 401.900387 131.530714 
L 403.758773 134.20378 
L 405.617159 134.797795 
L 407.475545 135.094802 
L 409.333931 138.955899 
L 411.192317 124.402536 
L 413.050702 130.045676 
L 414.909088 124.99655 
L 416.767474 119.056402 
L 420.484246 131.530714 
L 422.342632 138.361884 
L 424.201018 128.857647 
L 426.059403 129.154654 
L 427.917789 123.808521 
L 429.776175 113.413261 
L 431.634561 121.729469 
L 433.492947 133.015751 
L 435.351333 127.966625 
L 437.209718 118.759395 
L 439.068104 116.680343 
L 440.92649 116.086328 
L 442.784876 105.691069 
L 444.643262 110.14618 
L 446.501648 124.105528 
L 448.360034 124.699543 
L 450.218419 109.552165 
L 452.076805 113.710269 
L 453.935191 100.93895 
L 455.793577 105.988076 
L 457.651963 108.661143 
L 459.510349 126.18458 
L 463.22712 112.225232 
L 465.085506 90.840698 
L 466.943892 98.859898 
L 468.802278 109.849173 
L 470.660664 107.770121 
L 472.51905 111.631217 
L 474.377435 118.759395 
L 476.235821 120.244432 
L 478.094207 108.364135 
L 479.952593 124.99655 
L 481.810979 111.631217 
L 483.669365 121.135454 
L 485.527751 127.37261 
L 487.386136 123.808521 
L 489.244522 122.620491 
L 491.102908 125.887573 
L 492.961294 127.075602 
L 494.81968 121.729469 
L 496.678066 127.669617 
L 498.536451 136.57984 
L 500.394837 121.729469 
L 502.253223 133.906773 
L 504.111609 130.342684 
L 505.969995 130.342684 
L 507.828381 124.402536 
L 509.686767 134.500788 
L 511.545152 125.887573 
L 513.403538 131.827721 
L 515.261924 130.342684 
L 517.12031 132.421736 
L 518.978696 134.20378 
L 520.837082 123.808521 
L 522.695467 123.214506 
L 524.553853 133.609765 
L 526.412239 130.639691 
L 528.270625 122.323484 
L 530.129011 125.887573 
L 531.987397 118.759395 
L 533.845783 113.710269 
L 535.704168 97.968876 
L 537.562554 129.748669 
L 539.42094 116.383336 
L 541.279326 96.780846 
L 543.137712 80.445439 
L 544.996098 108.95815 
L 546.854483 89.058654 
L 548.712869 92.325735 
L 550.571255 95.295809 
L 552.429641 103.909024 
L 554.288027 92.622743 
L 556.146413 84.306535 
L 558.004799 89.949676 
L 559.863184 94.10778 
L 561.72157 85.791572 
L 563.579956 100.93895 
L 565.438342 79.851424 
L 567.296728 73.614268 
L 569.155114 97.374861 
L 571.013499 51.932727 
L 572.871885 76.584342 
L 574.730271 90.543691 
L 576.588657 73.911276 
L 578.447043 76.88135 
L 580.305429 67.971127 
L 582.163815 66.783098 
L 584.0222 76.287335 
L 585.880586 81.930476 
L 587.738972 86.682594 
L 589.597358 105.394061 
L 591.455744 72.426239 
L 593.31413 60.84295 
L 595.172515 72.723246 
L 597.030901 94.404787 
L 598.889287 93.513765 
L 600.747673 99.156906 
L 602.606059 119.056402 
L 604.464445 104.206032 
L 606.322831 104.503039 
L 608.181216 108.067128 
L 610.039602 112.819247 
L 611.897988 103.909024 
L 613.756374 118.16538 
L 615.61476 117.571365 
L 617.473146 112.522239 
L 619.331532 84.009528 
L 621.189917 108.364135 
L 623.048303 97.077854 
L 624.906689 103.909024 
L 626.765075 105.691069 
L 628.623461 126.778595 
L 630.481847 120.541439 
L 632.340232 117.868373 
L 634.198618 130.045676 
L 636.057004 111.33421 
L 637.91539 121.135454 
L 639.773776 127.669617 
L 641.632162 119.947424 
L 643.490548 122.026476 
L 645.348933 118.16538 
L 647.207319 119.650417 
L 649.065705 121.729469 
L 650.924091 122.323484 
L 652.782477 134.500788 
L 654.640863 128.857647 
L 656.499248 124.99655 
L 658.357634 125.590565 
L 660.21602 119.947424 
L 662.074406 126.481588 
L 663.932792 124.105528 
L 665.791178 124.699543 
L 667.649564 122.323484 
L 669.507949 122.620491 
L 671.366335 109.849173 
L 673.224721 110.443187 
L 675.083107 131.530714 
L 676.941493 100.047928 
L 678.799879 112.225232 
L 680.658264 118.462387 
L 682.51665 106.285084 
L 684.375036 104.503039 
L 688.091808 99.750921 
L 689.950194 110.14618 
L 691.80858 99.750921 
L 693.666965 108.95815 
L 695.525351 81.930476 
L 697.383737 105.394061 
L 699.242123 89.058654 
L 701.100509 102.12698 
L 702.958895 89.058654 
L 704.81728 99.750921 
L 706.675666 106.879098 
L 708.534052 108.661143 
L 710.392438 82.524491 
L 712.250824 82.227483 
L 714.10921 84.90055 
L 715.967596 84.603543 
L 717.825981 93.810772 
L 719.684367 114.304284 
L 721.542753 92.91975 
L 723.401139 104.503039 
L 725.259525 83.71252 
L 727.117911 97.671869 
L 728.976296 86.979602 
L 730.834682 107.770121 
L 732.693068 120.541439 
L 734.551454 101.235958 
L 736.40984 100.641943 
L 738.268226 108.364135 
L 740.126612 103.018002 
L 741.984997 114.601291 
L 743.843383 123.808521 
L 745.701769 126.778595 
L 747.560155 114.007276 
L 749.418541 112.522239 
L 751.276927 111.928224 
L 753.135313 124.699543 
L 754.993698 119.35341 
L 756.852084 140.143928 
L 758.71047 116.383336 
L 760.568856 114.304284 
L 762.427242 123.214506 
L 764.285628 128.560639 
L 766.144013 121.729469 
L 768.002399 121.729469 
L 769.860785 129.748669 
L 771.719171 130.045676 
L 773.577557 125.293558 
L 775.435943 127.37261 
L 777.294329 126.778595 
L 779.152714 130.936699 
L 781.0111 127.669617 
L 782.869486 134.797795 
L 784.727872 132.421736 
L 786.586258 132.421736 
L 788.444644 129.748669 
L 790.303029 133.015751 
L 792.161415 131.233706 
L 794.019801 136.282832 
L 795.878187 132.421736 
L 797.736573 130.936699 
L 799.594959 135.985825 
L 801.453345 129.748669 
L 803.31173 130.936699 
L 805.170116 132.421736 
L 807.028502 130.639691 
L 808.886888 130.342684 
L 810.745274 136.282832 
L 812.60366 127.966625 
L 814.462045 131.530714 
L 816.320431 129.154654 
L 818.178817 133.312758 
L 820.037203 133.015751 
L 821.895589 127.966625 
L 823.753975 139.549914 
L 825.612361 128.560639 
L 827.470746 129.154654 
L 829.329132 131.233706 
L 831.187518 121.432462 
L 833.045904 131.530714 
L 834.90429 135.39181 
L 836.762676 124.699543 
L 838.621061 125.590565 
L 840.479447 124.402536 
L 842.337833 125.293558 
L 844.196219 127.669617 
L 846.054605 122.323484 
L 847.912991 128.263632 
L 849.771377 132.124728 
L 851.629762 127.075602 
L 853.488148 124.699543 
L 855.346534 125.590565 
L 857.20492 114.007276 
L 859.063306 127.37261 
L 860.921692 116.680343 
L 862.780077 117.868373 
L 864.638463 113.710269 
L 866.496849 120.541439 
L 868.355235 124.402536 
L 870.213621 104.206032 
L 872.072007 113.710269 
L 873.930393 117.868373 
L 875.788778 108.661143 
L 877.647164 111.631217 
L 879.50555 117.274358 
L 881.363936 112.225232 
L 883.222322 108.661143 
L 885.080708 97.374861 
L 886.939093 121.135454 
L 888.797479 122.620491 
L 890.655865 105.097054 
L 892.514251 117.868373 
L 894.372637 114.304284 
L 896.231023 104.206032 
L 898.089409 111.33421 
L 899.947794 122.026476 
L 901.80618 111.33421 
L 903.664566 119.35341 
L 905.522952 123.214506 
L 907.381338 123.511513 
L 909.239724 122.917499 
L 911.09811 129.154654 
L 912.956495 128.560639 
L 914.814881 128.857647 
L 916.673267 128.857647 
L 918.531653 130.342684 
L 920.390039 130.045676 
L 922.248425 130.045676 
L 924.10681 138.064877 
L 925.965196 135.688817 
L 927.823582 136.282832 
L 929.681968 132.124728 
L 931.540354 132.421736 
L 933.39874 136.282832 
L 935.257126 135.094802 
L 937.115511 128.857647 
L 937.115511 128.857647 
" style="fill:none;stroke:#0000ff;stroke-linecap:square;stroke-width:1.5;"/>
   </g>
   <g id="line2d_12">
    <path clip-path="url(#p6d1a0a1ea8)" d="M 119.425739 153.125359 
L 121.284124 153.125359 
L 123.14251 144.064576 
L 125.000896 152.962457 
L 126.859282 152.962457 
L 128.717668 153.09089 
L 130.576054 150.593308 
L 132.43444 149.981136 
L 134.292825 151.978422 
L 136.151211 151.476216 
L 138.009597 151.424843 
L 139.867983 152.253339 
L 141.726369 149.866148 
L 143.584755 148.131237 
L 145.44314 149.043947 
L 147.301526 149.442903 
L 149.159912 148.9575 
L 151.018298 148.001067 
L 152.876684 146.577478 
L 154.73507 145.418889 
L 156.593456 142.222323 
L 158.451841 143.798401 
L 160.310227 141.002818 
L 162.168613 141.161941 
L 164.026999 135.147574 
L 165.885385 131.941969 
L 167.743771 130.528439 
L 169.602157 134.39135 
L 171.460542 132.818451 
L 173.318928 133.299873 
L 177.0357 141.668545 
L 178.894086 150.43225 
L 180.752472 155.728357 
L 184.469243 163.126163 
L 186.327629 168.987273 
L 188.186015 168.624679 
L 190.044401 166.210638 
L 191.902787 160.578294 
L 193.761173 163.064519 
L 195.619558 160.004476 
L 197.477944 163.105239 
L 199.33633 158.173845 
L 201.194716 161.193687 
L 203.053102 161.031667 
L 204.911488 162.553257 
L 206.769873 160.586828 
L 208.628259 161.224617 
L 210.486645 159.733525 
L 212.345031 163.178961 
L 216.061803 156.537914 
L 217.920189 153.865252 
L 219.778574 154.327817 
L 221.63696 155.110602 
L 223.495346 157.097228 
L 227.212118 159.133975 
L 229.070504 157.39988 
L 230.928889 155.101911 
L 232.787275 156.087268 
L 234.645661 155.291829 
L 236.504047 157.495236 
L 238.362433 161.27464 
L 240.220819 159.946872 
L 242.079205 159.30001 
L 243.93759 161.339511 
L 245.795976 159.241784 
L 247.654362 164.237098 
L 249.512748 163.985619 
L 251.371134 166.92198 
L 253.22952 161.408179 
L 255.087905 159.866837 
L 256.946291 160.399698 
L 260.663063 158.565208 
L 262.521449 159.339359 
L 264.379835 161.295082 
L 266.238221 162.645212 
L 268.096606 159.416625 
L 269.954992 160.023699 
L 271.813378 158.976584 
L 273.671764 161.66443 
L 275.53015 161.081587 
L 277.388536 163.352917 
L 279.246921 160.981015 
L 281.105307 162.116125 
L 282.963693 159.213558 
L 284.822079 160.373308 
L 286.680465 160.066552 
L 288.538851 160.452399 
L 290.397237 163.320447 
L 292.255622 161.502567 
L 294.114008 157.934072 
L 295.972394 159.664142 
L 297.83078 160.118426 
L 299.689166 158.235132 
L 301.547552 162.020088 
L 303.405938 165.438646 
L 305.264323 161.477961 
L 307.122709 162.727627 
L 308.981095 159.861811 
L 310.839481 160.711704 
L 314.556253 159.755722 
L 316.414638 162.905524 
L 318.273024 161.26446 
L 320.13141 159.059796 
L 321.989796 158.30825 
L 323.848182 156.523193 
L 325.706568 157.15342 
L 327.564954 158.007009 
L 329.423339 159.959195 
L 331.281725 159.465825 
L 333.140111 155.7742 
L 334.998497 155.427267 
L 336.856883 156.814181 
L 338.715269 157.410799 
L 340.573654 155.399205 
L 342.43204 158.835195 
L 344.290426 159.061749 
L 346.148812 156.527647 
L 348.007198 157.866457 
L 349.865584 158.882007 
L 351.72397 158.797151 
L 353.582355 159.275965 
L 355.440741 162.27844 
L 357.299127 162.782923 
L 359.157513 159.810857 
L 362.874285 158.915153 
L 364.73267 161.649618 
L 366.591056 162.215556 
L 368.449442 160.768679 
L 370.307828 163.023848 
L 372.166214 158.693428 
L 374.0246 160.49919 
L 375.882986 158.380718 
L 377.741371 160.318669 
L 379.599757 160.264006 
L 381.458143 160.079639 
L 383.316529 157.537129 
L 385.174915 158.298754 
L 387.033301 156.526147 
L 388.891686 156.218065 
L 390.750072 158.743911 
L 392.608458 156.88827 
L 394.466844 159.581466 
L 396.32523 158.478677 
L 398.183616 157.736807 
L 400.042002 159.355407 
L 401.900387 157.61923 
L 403.758773 157.531717 
L 405.617159 157.591657 
L 407.475545 155.426728 
L 409.333931 154.168978 
L 411.192317 149.47687 
L 413.050702 148.18577 
L 414.909088 149.016687 
L 416.767474 146.760086 
L 418.62586 148.222404 
L 420.484246 152.306197 
L 422.342632 152.686601 
L 424.201018 146.083654 
L 426.059403 147.267482 
L 427.917789 147.037507 
L 429.776175 143.699215 
L 431.634561 142.552876 
L 433.492947 146.293802 
L 437.209718 142.482022 
L 439.068104 141.424442 
L 440.92649 145.399826 
L 442.784876 140.349812 
L 444.643262 142.350208 
L 446.501648 146.470705 
L 448.360034 143.457905 
L 450.218419 136.077918 
L 452.076805 136.886872 
L 453.935191 135.672838 
L 455.793577 132.017905 
L 457.651963 130.678382 
L 459.510349 135.675641 
L 461.368735 136.575882 
L 463.22712 131.811264 
L 465.085506 129.562579 
L 466.943892 128.011773 
L 468.802278 130.302662 
L 470.660664 134.235216 
L 472.51905 137.101346 
L 476.235821 132.445811 
L 478.094207 126.494956 
L 479.952593 128.360308 
L 481.810979 129.59606 
L 483.669365 133.120637 
L 485.527751 129.492943 
L 487.386136 127.211577 
L 489.244522 130.519005 
L 491.102908 133.088457 
L 492.961294 139.441391 
L 494.81968 138.721495 
L 496.678066 143.340593 
L 498.536451 151.954204 
L 500.394837 150.703262 
L 502.253223 145.950348 
L 505.969995 146.960355 
L 507.828381 146.039339 
L 509.686767 148.646478 
L 511.545152 152.53491 
L 513.403538 146.563141 
L 515.261924 153.065642 
L 517.12031 148.271982 
L 518.978696 147.605823 
L 520.837082 149.554333 
L 522.695467 150.698302 
L 524.553853 148.919299 
L 526.412239 150.229964 
L 528.270625 149.066525 
L 530.129011 146.444829 
L 531.987397 146.206034 
L 533.845783 141.542301 
L 535.704168 142.82774 
L 537.562554 151.354668 
L 539.42094 151.661914 
L 541.279326 145.7355 
L 543.137712 142.884227 
L 544.996098 136.569662 
L 546.854483 134.345454 
L 548.712869 134.288762 
L 550.571255 138.249749 
L 552.429641 129.825806 
L 554.288027 128.567879 
L 556.146413 111.94892 
L 558.004799 118.712724 
L 559.863184 111.488341 
L 561.72157 113.232291 
L 563.579956 111.780465 
L 565.438342 109.735791 
L 567.296728 109.981732 
L 569.155114 113.844249 
L 571.013499 113.09603 
L 574.730271 118.259396 
L 576.588657 123.505886 
L 578.447043 117.249962 
L 580.305429 110.234005 
L 582.163815 119.04936 
L 584.0222 106.276988 
L 585.880586 105.136835 
L 587.738972 107.890824 
L 589.597358 110.369845 
L 591.455744 106.86881 
L 593.31413 105.6755 
L 595.172515 97.812798 
L 597.030901 105.61443 
L 598.889287 107.453388 
L 600.747673 108.074525 
L 602.606059 120.378377 
L 604.464445 112.914282 
L 606.322831 110.185357 
L 608.181216 115.150804 
L 610.039602 120.562064 
L 611.897988 120.656617 
L 613.756374 123.066866 
L 615.61476 130.528108 
L 617.473146 128.139043 
L 619.331532 122.835238 
L 621.189917 140.348346 
L 624.906689 140.971619 
L 626.765075 148.078297 
L 628.623461 149.701268 
L 630.481847 145.230745 
L 632.340232 135.17783 
L 634.198618 133.454926 
L 636.057004 125.898967 
L 637.91539 125.324143 
L 639.773776 125.76122 
L 641.632162 131.902649 
L 643.490548 129.136039 
L 645.348933 136.114951 
L 647.207319 144.161001 
L 649.065705 143.700446 
L 650.924091 144.837153 
L 652.782477 152.584795 
L 654.640863 154.685344 
L 656.499248 150.631948 
L 658.357634 140.699049 
L 660.21602 139.189523 
L 662.074406 138.667753 
L 663.932792 138.614022 
L 665.791178 139.398498 
L 667.649564 141.918113 
L 669.507949 146.468234 
L 671.366335 138.594054 
L 673.224721 137.202878 
L 675.083107 142.284316 
L 676.941493 144.71371 
L 678.799879 140.798614 
L 680.658264 142.452245 
L 682.51665 138.614538 
L 684.375036 135.429035 
L 686.233422 128.391899 
L 688.091808 140.277366 
L 689.950194 128.85405 
L 693.666965 129.715582 
L 695.525351 127.95419 
L 697.383737 123.035398 
L 699.242123 127.203216 
L 701.100509 119.926191 
L 702.958895 120.912018 
L 704.81728 126.133678 
L 706.675666 123.657746 
L 708.534052 121.78254 
L 710.392438 117.323419 
L 712.250824 110.747075 
L 714.10921 118.655764 
L 715.967596 108.833124 
L 717.825981 121.899978 
L 719.684367 124.154827 
L 721.542753 125.267364 
L 723.401139 110.552028 
L 725.259525 113.78847 
L 727.117911 112.772354 
L 728.976296 112.298886 
L 730.834682 121.431736 
L 732.693068 121.882603 
L 734.551454 116.014926 
L 736.40984 116.595711 
L 738.268226 112.549325 
L 740.126612 126.532488 
L 741.984997 116.322313 
L 743.843383 134.62058 
L 745.701769 138.708377 
L 747.560155 131.050542 
L 749.418541 126.669314 
L 751.276927 129.055564 
L 753.135313 129.686553 
L 754.993698 137.499985 
L 756.852084 139.787491 
L 758.71047 146.731479 
L 760.568856 137.492335 
L 762.427242 146.988493 
L 764.285628 142.242367 
L 766.144013 146.869995 
L 768.002399 148.726109 
L 769.860785 153.574083 
L 771.719171 149.853432 
L 773.577557 142.139934 
L 775.435943 147.137184 
L 777.294329 147.59129 
L 779.152714 141.792412 
L 781.0111 145.769921 
L 782.869486 145.876281 
L 784.727872 152.881394 
L 786.586258 147.979624 
L 788.444644 148.983118 
L 790.303029 145.72539 
L 792.161415 150.3378 
L 794.019801 146.941672 
L 795.878187 156.894307 
L 797.736573 155.841194 
L 799.594959 150.463246 
L 801.453345 146.495387 
L 803.31173 152.583097 
L 805.170116 152.419715 
L 807.028502 153.319315 
L 808.886888 152.83362 
L 810.745274 155.461962 
L 812.60366 153.613845 
L 814.462045 149.716979 
L 816.320431 148.192907 
L 818.178817 150.602563 
L 820.037203 144.440426 
L 821.895589 150.79599 
L 823.753975 155.635682 
L 825.612361 147.039495 
L 827.470746 149.127823 
L 829.329132 149.553271 
L 831.187518 144.410569 
L 833.045904 147.554725 
L 834.90429 152.927883 
L 836.762676 154.487439 
L 838.621061 151.95314 
L 840.479447 145.916414 
L 842.337833 148.833901 
L 844.196219 148.232469 
L 846.054605 145.360012 
L 847.912991 153.741115 
L 851.629762 144.203732 
L 853.488148 144.262212 
L 855.346534 144.048594 
L 857.20492 149.461977 
L 859.063306 148.251235 
L 860.921692 142.219951 
L 862.780077 148.969156 
L 864.638463 147.354715 
L 866.496849 148.937962 
L 868.355235 149.08807 
L 870.213621 141.04739 
L 872.072007 146.335135 
L 873.930393 143.454586 
L 875.788778 144.048514 
L 877.647164 139.771163 
L 879.50555 138.495597 
L 881.363936 138.071668 
L 883.222322 133.814306 
L 885.080708 131.857878 
L 886.939093 135.794539 
L 888.797479 135.23946 
L 890.655865 136.248488 
L 892.514251 134.269574 
L 894.372637 130.919386 
L 896.231023 131.861393 
L 898.089409 126.978471 
L 899.947794 137.053701 
L 901.80618 137.688725 
L 903.664566 133.669822 
L 905.522952 135.845662 
L 907.381338 135.851443 
L 909.239724 135.66409 
L 911.09811 139.553272 
L 912.956495 137.003532 
L 914.814881 132.949952 
L 916.673267 143.693601 
L 918.531653 140.553118 
L 920.390039 146.508233 
L 922.248425 146.221006 
L 924.10681 151.835459 
L 925.965196 154.489874 
L 927.823582 155.847102 
L 929.681968 156.556468 
L 931.540354 158.813378 
L 933.39874 156.599532 
L 935.257126 158.765372 
L 937.115511 159.814086 
L 937.115511 159.814086 
" style="fill:none;stroke:#ff0000;stroke-linecap:square;stroke-width:1.5;"/>
   </g>
   <g id="patch_3">
    <path d="M 78.54125 174.84 
L 78.54125 46.08 
" style="fill:none;stroke:#000000;stroke-linecap:square;stroke-linejoin:miter;stroke-width:0.8;"/>
   </g>
   <g id="patch_4">
    <path d="M 978 174.84 
L 978 46.08 
" style="fill:none;stroke:#000000;stroke-linecap:square;stroke-linejoin:miter;stroke-width:0.8;"/>
   </g>
   <g id="patch_5">
    <path d="M 78.54125 174.84 
L 978 174.84 
" style="fill:none;stroke:#000000;stroke-linecap:square;stroke-linejoin:miter;stroke-width:0.8;"/>
   </g>
   <g id="patch_6">
    <path d="M 78.54125 46.08 
L 978 46.08 
" style="fill:none;stroke:#000000;stroke-linecap:square;stroke-linejoin:miter;stroke-width:0.8;"/>
   </g>
   <g id="text_13">
    <!-- GLM fit train -->
    <g transform="translate(491.191562 40.08)scale(0.12 -0.12)">
     <defs>
      <path d="M 59.515625 10.40625 
L 59.515625 29.984375 
L 43.40625 29.984375 
L 43.40625 38.09375 
L 69.28125 38.09375 
L 69.28125 6.78125 
Q 63.578125 2.734375 56.6875 0.65625 
Q 49.8125 -1.421875 42 -1.421875 
Q 24.90625 -1.421875 15.25 8.5625 
Q 5.609375 18.5625 5.609375 36.375 
Q 5.609375 54.25 15.25 64.234375 
Q 24.90625 74.21875 42 74.21875 
Q 49.125 74.21875 55.546875 72.453125 
Q 61.96875 70.703125 67.390625 67.28125 
L 67.390625 56.78125 
Q 61.921875 61.421875 55.765625 63.765625 
Q 49.609375 66.109375 42.828125 66.109375 
Q 29.4375 66.109375 22.71875 58.640625 
Q 16.015625 51.171875 16.015625 36.375 
Q 16.015625 21.625 22.71875 14.15625 
Q 29.4375 6.6875 42.828125 6.6875 
Q 48.046875 6.6875 52.140625 7.59375 
Q 56.25 8.5 59.515625 10.40625 
z
" id="DejaVuSans-71"/>
      <path d="M 9.8125 72.90625 
L 19.671875 72.90625 
L 19.671875 8.296875 
L 55.171875 8.296875 
L 55.171875 0 
L 9.8125 0 
z
" id="DejaVuSans-76"/>
      <path d="M 9.8125 72.90625 
L 24.515625 72.90625 
L 43.109375 23.296875 
L 61.8125 72.90625 
L 76.515625 72.90625 
L 76.515625 0 
L 66.890625 0 
L 66.890625 64.015625 
L 48.09375 14.015625 
L 38.1875 14.015625 
L 19.390625 64.015625 
L 19.390625 0 
L 9.8125 0 
z
" id="DejaVuSans-77"/>
      <path d="M 37.109375 75.984375 
L 37.109375 68.5 
L 28.515625 68.5 
Q 23.6875 68.5 21.796875 66.546875 
Q 19.921875 64.59375 19.921875 59.515625 
L 19.921875 54.6875 
L 34.71875 54.6875 
L 34.71875 47.703125 
L 19.921875 47.703125 
L 19.921875 0 
L 10.890625 0 
L 10.890625 47.703125 
L 2.296875 47.703125 
L 2.296875 54.6875 
L 10.890625 54.6875 
L 10.890625 58.5 
Q 10.890625 67.625 15.140625 71.796875 
Q 19.390625 75.984375 28.609375 75.984375 
z
" id="DejaVuSans-102"/>
      <path d="M 41.109375 46.296875 
Q 39.59375 47.171875 37.8125 47.578125 
Q 36.03125 48 33.890625 48 
Q 26.265625 48 22.1875 43.046875 
Q 18.109375 38.09375 18.109375 28.8125 
L 18.109375 0 
L 9.078125 0 
L 9.078125 54.6875 
L 18.109375 54.6875 
L 18.109375 46.1875 
Q 20.953125 51.171875 25.484375 53.578125 
Q 30.03125 56 36.53125 56 
Q 37.453125 56 38.578125 55.875 
Q 39.703125 55.765625 41.0625 55.515625 
z
" id="DejaVuSans-114"/>
      <path d="M 54.890625 33.015625 
L 54.890625 0 
L 45.90625 0 
L 45.90625 32.71875 
Q 45.90625 40.484375 42.875 44.328125 
Q 39.84375 48.1875 33.796875 48.1875 
Q 26.515625 48.1875 22.3125 43.546875 
Q 18.109375 38.921875 18.109375 30.90625 
L 18.109375 0 
L 9.078125 0 
L 9.078125 54.6875 
L 18.109375 54.6875 
L 18.109375 46.1875 
Q 21.34375 51.125 25.703125 53.5625 
Q 30.078125 56 35.796875 56 
Q 45.21875 56 50.046875 50.171875 
Q 54.890625 44.34375 54.890625 33.015625 
z
" id="DejaVuSans-110"/>
     </defs>
     <use xlink:href="#DejaVuSans-71"/>
     <use x="77.490234" xlink:href="#DejaVuSans-76"/>
     <use x="133.203125" xlink:href="#DejaVuSans-77"/>
     <use x="219.482422" xlink:href="#DejaVuSans-32"/>
     <use x="251.269531" xlink:href="#DejaVuSans-102"/>
     <use x="286.474609" xlink:href="#DejaVuSans-105"/>
     <use x="314.257812" xlink:href="#DejaVuSans-116"/>
     <use x="353.466797" xlink:href="#DejaVuSans-32"/>
     <use x="385.253906" xlink:href="#DejaVuSans-116"/>
     <use x="424.462891" xlink:href="#DejaVuSans-114"/>
     <use x="465.576172" xlink:href="#DejaVuSans-97"/>
     <use x="526.855469" xlink:href="#DejaVuSans-105"/>
     <use x="554.638672" xlink:href="#DejaVuSans-110"/>
    </g>
   </g>
   <g id="legend_1">
    <g id="patch_7">
     <path d="M 85.54125 83.43625 
L 159.844375 83.43625 
Q 161.844375 83.43625 161.844375 81.43625 
L 161.844375 53.08 
Q 161.844375 51.08 159.844375 51.08 
L 85.54125 51.08 
Q 83.54125 51.08 83.54125 53.08 
L 83.54125 81.43625 
Q 83.54125 83.43625 85.54125 83.43625 
z
" style="fill:#ffffff;opacity:0.8;stroke:#cccccc;stroke-linejoin:miter;"/>
    </g>
    <g id="line2d_13">
     <path d="M 87.54125 59.178438 
L 107.54125 59.178438 
" style="fill:none;stroke:#0000ff;stroke-linecap:square;stroke-width:1.5;"/>
    </g>
    <g id="line2d_14"/>
    <g id="text_14">
     <!-- Data -->
     <g transform="translate(115.54125 62.678438)scale(0.1 -0.1)">
      <defs>
       <path d="M 19.671875 64.796875 
L 19.671875 8.109375 
L 31.59375 8.109375 
Q 46.6875 8.109375 53.6875 14.9375 
Q 60.6875 21.78125 60.6875 36.53125 
Q 60.6875 51.171875 53.6875 57.984375 
Q 46.6875 64.796875 31.59375 64.796875 
z
M 9.8125 72.90625 
L 30.078125 72.90625 
Q 51.265625 72.90625 61.171875 64.09375 
Q 71.09375 55.28125 71.09375 36.53125 
Q 71.09375 17.671875 61.125 8.828125 
Q 51.171875 0 30.078125 0 
L 9.8125 0 
z
" id="DejaVuSans-68"/>
      </defs>
      <use xlink:href="#DejaVuSans-68"/>
      <use x="77.001953" xlink:href="#DejaVuSans-97"/>
      <use x="138.28125" xlink:href="#DejaVuSans-116"/>
      <use x="177.490234" xlink:href="#DejaVuSans-97"/>
     </g>
    </g>
    <g id="line2d_15">
     <path d="M 87.54125 73.856563 
L 107.54125 73.856563 
" style="fill:none;stroke:#ff0000;stroke-linecap:square;stroke-width:1.5;"/>
    </g>
    <g id="line2d_16"/>
    <g id="text_15">
     <!-- Forecast -->
     <g transform="translate(115.54125 77.356563)scale(0.1 -0.1)">
      <defs>
       <path d="M 9.8125 72.90625 
L 51.703125 72.90625 
L 51.703125 64.59375 
L 19.671875 64.59375 
L 19.671875 43.109375 
L 48.578125 43.109375 
L 48.578125 34.8125 
L 19.671875 34.8125 
L 19.671875 0 
L 9.8125 0 
z
" id="DejaVuSans-70"/>
       <path d="M 30.609375 48.390625 
Q 23.390625 48.390625 19.1875 42.75 
Q 14.984375 37.109375 14.984375 27.296875 
Q 14.984375 17.484375 19.15625 11.84375 
Q 23.34375 6.203125 30.609375 6.203125 
Q 37.796875 6.203125 41.984375 11.859375 
Q 46.1875 17.53125 46.1875 27.296875 
Q 46.1875 37.015625 41.984375 42.703125 
Q 37.796875 48.390625 30.609375 48.390625 
z
M 30.609375 56 
Q 42.328125 56 49.015625 48.375 
Q 55.71875 40.765625 55.71875 27.296875 
Q 55.71875 13.875 49.015625 6.21875 
Q 42.328125 -1.421875 30.609375 -1.421875 
Q 18.84375 -1.421875 12.171875 6.21875 
Q 5.515625 13.875 5.515625 27.296875 
Q 5.515625 40.765625 12.171875 48.375 
Q 18.84375 56 30.609375 56 
z
" id="DejaVuSans-111"/>
      </defs>
      <use xlink:href="#DejaVuSans-70"/>
      <use x="53.894531" xlink:href="#DejaVuSans-111"/>
      <use x="115.076172" xlink:href="#DejaVuSans-114"/>
      <use x="153.939453" xlink:href="#DejaVuSans-101"/>
      <use x="215.462891" xlink:href="#DejaVuSans-99"/>
      <use x="270.443359" xlink:href="#DejaVuSans-97"/>
      <use x="331.722656" xlink:href="#DejaVuSans-115"/>
      <use x="383.822266" xlink:href="#DejaVuSans-116"/>
     </g>
    </g>
   </g>
  </g>
  <g id="axes_2">
   <g id="patch_8">
    <path d="M 78.54125 380.84 
L 978 380.84 
L 978 252.08 
L 78.54125 252.08 
z
" style="fill:#ffffff;"/>
   </g>
   <g id="matplotlib.axis_3">
    <g id="xtick_6">
     <g id="line2d_17">
      <g>
       <use style="stroke:#000000;stroke-width:0.8;" x="119.425739" xlink:href="#mb147e1f7bf" y="380.84"/>
      </g>
     </g>
     <g id="text_16">
      <!-- 2021/05/15 -->
      <g transform="translate(90.606989 395.438437)scale(0.1 -0.1)">
       <use xlink:href="#DejaVuSans-50"/>
       <use x="63.623047" xlink:href="#DejaVuSans-48"/>
       <use x="127.246094" xlink:href="#DejaVuSans-50"/>
       <use x="190.869141" xlink:href="#DejaVuSans-49"/>
       <use x="254.492188" xlink:href="#DejaVuSans-47"/>
       <use x="288.183594" xlink:href="#DejaVuSans-48"/>
       <use x="351.806641" xlink:href="#DejaVuSans-53"/>
       <use x="415.429688" xlink:href="#DejaVuSans-47"/>
       <use x="449.121094" xlink:href="#DejaVuSans-49"/>
       <use x="512.744141" xlink:href="#DejaVuSans-53"/>
      </g>
     </g>
    </g>
    <g id="xtick_7">
     <g id="line2d_18">
      <g>
       <use style="stroke:#000000;stroke-width:0.8;" x="279.757067" xlink:href="#mb147e1f7bf" y="380.84"/>
      </g>
     </g>
     <g id="text_17">
      <!-- 2021/05/25 -->
      <g transform="translate(250.938317 395.438437)scale(0.1 -0.1)">
       <use xlink:href="#DejaVuSans-50"/>
       <use x="63.623047" xlink:href="#DejaVuSans-48"/>
       <use x="127.246094" xlink:href="#DejaVuSans-50"/>
       <use x="190.869141" xlink:href="#DejaVuSans-49"/>
       <use x="254.492188" xlink:href="#DejaVuSans-47"/>
       <use x="288.183594" xlink:href="#DejaVuSans-48"/>
       <use x="351.806641" xlink:href="#DejaVuSans-53"/>
       <use x="415.429688" xlink:href="#DejaVuSans-47"/>
       <use x="449.121094" xlink:href="#DejaVuSans-50"/>
       <use x="512.744141" xlink:href="#DejaVuSans-53"/>
      </g>
     </g>
    </g>
    <g id="xtick_8">
     <g id="line2d_19">
      <g>
       <use style="stroke:#000000;stroke-width:0.8;" x="440.088395" xlink:href="#mb147e1f7bf" y="380.84"/>
      </g>
     </g>
     <g id="text_18">
      <!-- 2021/06/04 -->
      <g transform="translate(411.269645 395.438437)scale(0.1 -0.1)">
       <use xlink:href="#DejaVuSans-50"/>
       <use x="63.623047" xlink:href="#DejaVuSans-48"/>
       <use x="127.246094" xlink:href="#DejaVuSans-50"/>
       <use x="190.869141" xlink:href="#DejaVuSans-49"/>
       <use x="254.492188" xlink:href="#DejaVuSans-47"/>
       <use x="288.183594" xlink:href="#DejaVuSans-48"/>
       <use x="351.806641" xlink:href="#DejaVuSans-54"/>
       <use x="415.429688" xlink:href="#DejaVuSans-47"/>
       <use x="449.121094" xlink:href="#DejaVuSans-48"/>
       <use x="512.744141" xlink:href="#DejaVuSans-52"/>
      </g>
     </g>
    </g>
    <g id="xtick_9">
     <g id="line2d_20">
      <g>
       <use style="stroke:#000000;stroke-width:0.8;" x="600.419723" xlink:href="#mb147e1f7bf" y="380.84"/>
      </g>
     </g>
     <g id="text_19">
      <!-- 2021/06/14 -->
      <g transform="translate(571.600973 395.438437)scale(0.1 -0.1)">
       <use xlink:href="#DejaVuSans-50"/>
       <use x="63.623047" xlink:href="#DejaVuSans-48"/>
       <use x="127.246094" xlink:href="#DejaVuSans-50"/>
       <use x="190.869141" xlink:href="#DejaVuSans-49"/>
       <use x="254.492188" xlink:href="#DejaVuSans-47"/>
       <use x="288.183594" xlink:href="#DejaVuSans-48"/>
       <use x="351.806641" xlink:href="#DejaVuSans-54"/>
       <use x="415.429688" xlink:href="#DejaVuSans-47"/>
       <use x="449.121094" xlink:href="#DejaVuSans-49"/>
       <use x="512.744141" xlink:href="#DejaVuSans-52"/>
      </g>
     </g>
    </g>
    <g id="xtick_10">
     <g id="line2d_21">
      <g>
       <use style="stroke:#000000;stroke-width:0.8;" x="760.751051" xlink:href="#mb147e1f7bf" y="380.84"/>
      </g>
     </g>
     <g id="text_20">
      <!-- 2021/06/24 -->
      <g transform="translate(731.932301 395.438437)scale(0.1 -0.1)">
       <use xlink:href="#DejaVuSans-50"/>
       <use x="63.623047" xlink:href="#DejaVuSans-48"/>
       <use x="127.246094" xlink:href="#DejaVuSans-50"/>
       <use x="190.869141" xlink:href="#DejaVuSans-49"/>
       <use x="254.492188" xlink:href="#DejaVuSans-47"/>
       <use x="288.183594" xlink:href="#DejaVuSans-48"/>
       <use x="351.806641" xlink:href="#DejaVuSans-54"/>
       <use x="415.429688" xlink:href="#DejaVuSans-47"/>
       <use x="449.121094" xlink:href="#DejaVuSans-50"/>
       <use x="512.744141" xlink:href="#DejaVuSans-52"/>
      </g>
     </g>
    </g>
    <g id="xtick_11">
     <g id="line2d_22">
      <g>
       <use style="stroke:#000000;stroke-width:0.8;" x="921.082379" xlink:href="#mb147e1f7bf" y="380.84"/>
      </g>
     </g>
     <g id="text_21">
      <!-- 2021/07/04 -->
      <g transform="translate(892.263629 395.438437)scale(0.1 -0.1)">
       <use xlink:href="#DejaVuSans-50"/>
       <use x="63.623047" xlink:href="#DejaVuSans-48"/>
       <use x="127.246094" xlink:href="#DejaVuSans-50"/>
       <use x="190.869141" xlink:href="#DejaVuSans-49"/>
       <use x="254.492188" xlink:href="#DejaVuSans-47"/>
       <use x="288.183594" xlink:href="#DejaVuSans-48"/>
       <use x="351.806641" xlink:href="#DejaVuSans-55"/>
       <use x="415.429688" xlink:href="#DejaVuSans-47"/>
       <use x="449.121094" xlink:href="#DejaVuSans-48"/>
       <use x="512.744141" xlink:href="#DejaVuSans-52"/>
      </g>
     </g>
    </g>
    <g id="text_22">
     <!-- Time, t [days] -->
     <g transform="translate(493.605781 409.116562)scale(0.1 -0.1)">
      <use xlink:href="#DejaVuSans-84"/>
      <use x="57.958984" xlink:href="#DejaVuSans-105"/>
      <use x="85.742188" xlink:href="#DejaVuSans-109"/>
      <use x="183.154297" xlink:href="#DejaVuSans-101"/>
      <use x="244.677734" xlink:href="#DejaVuSans-44"/>
      <use x="276.464844" xlink:href="#DejaVuSans-32"/>
      <use x="308.251953" xlink:href="#DejaVuSans-116"/>
      <use x="347.460938" xlink:href="#DejaVuSans-32"/>
      <use x="379.248047" xlink:href="#DejaVuSans-91"/>
      <use x="418.261719" xlink:href="#DejaVuSans-100"/>
      <use x="481.738281" xlink:href="#DejaVuSans-97"/>
      <use x="543.017578" xlink:href="#DejaVuSans-121"/>
      <use x="602.197266" xlink:href="#DejaVuSans-115"/>
      <use x="654.296875" xlink:href="#DejaVuSans-93"/>
     </g>
    </g>
   </g>
   <g id="matplotlib.axis_4">
    <g id="ytick_6">
     <g id="line2d_23">
      <g>
       <use style="stroke:#000000;stroke-width:0.8;" x="78.54125" xlink:href="#m8b61846861" y="357.091688"/>
      </g>
     </g>
     <g id="text_23">
      <!-- 0 -->
      <g transform="translate(65.17875 360.890907)scale(0.1 -0.1)">
       <use xlink:href="#DejaVuSans-48"/>
      </g>
     </g>
    </g>
    <g id="ytick_7">
     <g id="line2d_24">
      <g>
       <use style="stroke:#000000;stroke-width:0.8;" x="78.54125" xlink:href="#m8b61846861" y="329.238047"/>
      </g>
     </g>
     <g id="text_24">
      <!-- 100 -->
      <g transform="translate(52.45375 333.037266)scale(0.1 -0.1)">
       <use xlink:href="#DejaVuSans-49"/>
       <use x="63.623047" xlink:href="#DejaVuSans-48"/>
       <use x="127.246094" xlink:href="#DejaVuSans-48"/>
      </g>
     </g>
    </g>
    <g id="ytick_8">
     <g id="line2d_25">
      <g>
       <use style="stroke:#000000;stroke-width:0.8;" x="78.54125" xlink:href="#m8b61846861" y="301.384407"/>
      </g>
     </g>
     <g id="text_25">
      <!-- 200 -->
      <g transform="translate(52.45375 305.183626)scale(0.1 -0.1)">
       <use xlink:href="#DejaVuSans-50"/>
       <use x="63.623047" xlink:href="#DejaVuSans-48"/>
       <use x="127.246094" xlink:href="#DejaVuSans-48"/>
      </g>
     </g>
    </g>
    <g id="ytick_9">
     <g id="line2d_26">
      <g>
       <use style="stroke:#000000;stroke-width:0.8;" x="78.54125" xlink:href="#m8b61846861" y="273.530766"/>
      </g>
     </g>
     <g id="text_26">
      <!-- 300 -->
      <g transform="translate(52.45375 277.329985)scale(0.1 -0.1)">
       <use xlink:href="#DejaVuSans-51"/>
       <use x="63.623047" xlink:href="#DejaVuSans-48"/>
       <use x="127.246094" xlink:href="#DejaVuSans-48"/>
      </g>
     </g>
    </g>
    <g id="text_27">
     <!-- daily_cases_(t+7) -->
     <g transform="translate(46.095938 360.767812)rotate(-90)scale(0.1 -0.1)">
      <use xlink:href="#DejaVuSans-100"/>
      <use x="63.476562" xlink:href="#DejaVuSans-97"/>
      <use x="124.755859" xlink:href="#DejaVuSans-105"/>
      <use x="152.539062" xlink:href="#DejaVuSans-108"/>
      <use x="180.322266" xlink:href="#DejaVuSans-121"/>
      <use x="239.501953" xlink:href="#DejaVuSans-95"/>
      <use x="289.501953" xlink:href="#DejaVuSans-99"/>
      <use x="344.482422" xlink:href="#DejaVuSans-97"/>
      <use x="405.761719" xlink:href="#DejaVuSans-115"/>
      <use x="457.861328" xlink:href="#DejaVuSans-101"/>
      <use x="519.384766" xlink:href="#DejaVuSans-115"/>
      <use x="571.484375" xlink:href="#DejaVuSans-95"/>
      <use x="621.484375" xlink:href="#DejaVuSans-40"/>
      <use x="660.498047" xlink:href="#DejaVuSans-116"/>
      <use x="699.707031" xlink:href="#DejaVuSans-43"/>
      <use x="783.496094" xlink:href="#DejaVuSans-55"/>
      <use x="847.119141" xlink:href="#DejaVuSans-41"/>
     </g>
    </g>
   </g>
   <g id="line2d_27">
    <path clip-path="url(#pfb2c9dfdb2)" d="M 119.425739 350.128278 
L 135.458871 349.571205 
L 151.492004 345.114623 
L 167.525137 348.178523 
L 183.55827 343.443404 
L 199.591403 345.114623 
L 215.624535 351.799496 
L 231.657668 347.62145 
L 247.690801 346.785841 
L 263.723934 348.178523 
L 279.757067 342.607795 
L 295.790199 350.685351 
L 311.823332 346.507305 
L 327.856465 347.899987 
L 343.889598 349.292669 
L 359.922731 354.58486 
L 375.955863 349.571205 
L 391.988996 348.178523 
L 408.022129 352.078033 
L 424.055262 350.406814 
L 440.088395 350.128278 
L 456.121527 355.699006 
L 472.15466 347.62145 
L 488.187793 348.45706 
L 504.220926 349.849742 
L 520.254059 348.178523 
L 536.287191 338.429749 
L 552.320324 344.000477 
L 568.353457 330.630729 
L 584.38659 338.151212 
L 600.419723 328.959511 
L 616.452855 345.671695 
L 632.485988 332.023412 
L 648.519121 328.123902 
L 664.552254 328.680975 
L 680.585387 335.644385 
L 696.618519 326.73122 
L 712.651652 317.818055 
L 728.684785 324.224392 
L 744.717918 313.082936 
L 760.751051 299.434652 
L 776.784183 290.24295 
L 792.817316 321.160492 
L 808.850449 300.270261 
L 824.883582 282.722467 
L 840.916715 294.420997 
L 856.949847 296.092215 
L 872.98298 257.932727 
L 889.016113 296.649288 
L 905.049246 314.475618 
L 921.082379 292.471242 
L 937.115511 289.964414 
" style="fill:none;stroke:#0000ff;stroke-linecap:square;stroke-width:1.5;"/>
   </g>
   <g id="line2d_28">
    <path clip-path="url(#pfb2c9dfdb2)" d="M 119.425739 371.32055 
L 135.458871 367.595609 
L 151.492004 370.984408 
L 167.525137 369.887221 
L 183.55827 371.625126 
L 199.591403 373.060992 
L 215.624535 369.709701 
L 231.657668 366.27494 
L 247.690801 364.600792 
L 263.723934 367.910422 
L 279.757067 369.206315 
L 295.790199 364.428257 
L 311.823332 365.091865 
L 327.856465 367.565935 
L 343.889598 361.54175 
L 359.922731 358.980747 
L 375.955863 365.957572 
L 391.988996 365.059453 
L 408.022129 369.173297 
L 424.055262 369.910502 
L 440.088395 370.130163 
L 456.121527 362.793967 
L 472.15466 362.419349 
L 488.187793 368.005363 
L 504.220926 367.085457 
L 520.254059 372.762217 
L 536.287191 373.476021 
L 552.320324 374.274554 
L 568.353457 364.62299 
L 584.38659 365.521963 
L 600.419723 371.194184 
L 616.452855 371.697213 
L 632.485988 374.987273 
L 648.519121 374.506534 
L 664.552254 371.992553 
L 680.585387 351.343104 
L 696.618519 351.244959 
L 712.651652 357.936731 
L 728.684785 362.149089 
L 744.717918 349.392876 
L 760.751051 352.71396 
L 776.784183 348.63538 
L 792.817316 338.920347 
L 808.850449 337.122418 
L 824.883582 344.624512 
L 840.916715 345.604303 
L 856.949847 343.916708 
L 872.98298 339.851607 
L 889.016113 332.868046 
L 905.049246 321.209979 
L 921.082379 312.962575 
L 937.115511 316.065178 
" style="fill:none;stroke:#ff0000;stroke-linecap:square;stroke-width:1.5;"/>
   </g>
   <g id="patch_9">
    <path d="M 78.54125 380.84 
L 78.54125 252.08 
" style="fill:none;stroke:#000000;stroke-linecap:square;stroke-linejoin:miter;stroke-width:0.8;"/>
   </g>
   <g id="patch_10">
    <path d="M 978 380.84 
L 978 252.08 
" style="fill:none;stroke:#000000;stroke-linecap:square;stroke-linejoin:miter;stroke-width:0.8;"/>
   </g>
   <g id="patch_11">
    <path d="M 78.54125 380.84 
L 978 380.84 
" style="fill:none;stroke:#000000;stroke-linecap:square;stroke-linejoin:miter;stroke-width:0.8;"/>
   </g>
   <g id="patch_12">
    <path d="M 78.54125 252.08 
L 978 252.08 
" style="fill:none;stroke:#000000;stroke-linecap:square;stroke-linejoin:miter;stroke-width:0.8;"/>
   </g>
   <g id="text_28">
    <!-- GLM fit val -->
    <g transform="translate(496.261562 246.08)scale(0.12 -0.12)">
     <defs>
      <path d="M 2.984375 54.6875 
L 12.5 54.6875 
L 29.59375 8.796875 
L 46.6875 54.6875 
L 56.203125 54.6875 
L 35.6875 0 
L 23.484375 0 
z
" id="DejaVuSans-118"/>
     </defs>
     <use xlink:href="#DejaVuSans-71"/>
     <use x="77.490234" xlink:href="#DejaVuSans-76"/>
     <use x="133.203125" xlink:href="#DejaVuSans-77"/>
     <use x="219.482422" xlink:href="#DejaVuSans-32"/>
     <use x="251.269531" xlink:href="#DejaVuSans-102"/>
     <use x="286.474609" xlink:href="#DejaVuSans-105"/>
     <use x="314.257812" xlink:href="#DejaVuSans-116"/>
     <use x="353.466797" xlink:href="#DejaVuSans-32"/>
     <use x="385.253906" xlink:href="#DejaVuSans-118"/>
     <use x="444.433594" xlink:href="#DejaVuSans-97"/>
     <use x="505.712891" xlink:href="#DejaVuSans-108"/>
    </g>
   </g>
   <g id="legend_2">
    <g id="patch_13">
     <path d="M 85.54125 289.43625 
L 159.844375 289.43625 
Q 161.844375 289.43625 161.844375 287.43625 
L 161.844375 259.08 
Q 161.844375 257.08 159.844375 257.08 
L 85.54125 257.08 
Q 83.54125 257.08 83.54125 259.08 
L 83.54125 287.43625 
Q 83.54125 289.43625 85.54125 289.43625 
z
" style="fill:#ffffff;opacity:0.8;stroke:#cccccc;stroke-linejoin:miter;"/>
    </g>
    <g id="line2d_29">
     <path d="M 87.54125 265.178437 
L 107.54125 265.178437 
" style="fill:none;stroke:#0000ff;stroke-linecap:square;stroke-width:1.5;"/>
    </g>
    <g id="line2d_30"/>
    <g id="text_29">
     <!-- Data -->
     <g transform="translate(115.54125 268.678437)scale(0.1 -0.1)">
      <use xlink:href="#DejaVuSans-68"/>
      <use x="77.001953" xlink:href="#DejaVuSans-97"/>
      <use x="138.28125" xlink:href="#DejaVuSans-116"/>
      <use x="177.490234" xlink:href="#DejaVuSans-97"/>
     </g>
    </g>
    <g id="line2d_31">
     <path d="M 87.54125 279.856562 
L 107.54125 279.856562 
" style="fill:none;stroke:#ff0000;stroke-linecap:square;stroke-width:1.5;"/>
    </g>
    <g id="line2d_32"/>
    <g id="text_30">
     <!-- Forecast -->
     <g transform="translate(115.54125 283.356562)scale(0.1 -0.1)">
      <use xlink:href="#DejaVuSans-70"/>
      <use x="53.894531" xlink:href="#DejaVuSans-111"/>
      <use x="115.076172" xlink:href="#DejaVuSans-114"/>
      <use x="153.939453" xlink:href="#DejaVuSans-101"/>
      <use x="215.462891" xlink:href="#DejaVuSans-99"/>
      <use x="270.443359" xlink:href="#DejaVuSans-97"/>
      <use x="331.722656" xlink:href="#DejaVuSans-115"/>
      <use x="383.822266" xlink:href="#DejaVuSans-116"/>
     </g>
    </g>
   </g>
  </g>
  <g id="axes_3">
   <g id="patch_14">
    <path d="M 78.54125 586.84 
L 978 586.84 
L 978 458.08 
L 78.54125 458.08 
z
" style="fill:#ffffff;"/>
   </g>
   <g id="matplotlib.axis_5">
    <g id="xtick_12">
     <g id="line2d_33">
      <g>
       <use style="stroke:#000000;stroke-width:0.8;" x="119.425739" xlink:href="#mb147e1f7bf" y="586.84"/>
      </g>
     </g>
     <g id="text_31">
      <!-- 2021/07/06 -->
      <g transform="translate(90.606989 601.438437)scale(0.1 -0.1)">
       <use xlink:href="#DejaVuSans-50"/>
       <use x="63.623047" xlink:href="#DejaVuSans-48"/>
       <use x="127.246094" xlink:href="#DejaVuSans-50"/>
       <use x="190.869141" xlink:href="#DejaVuSans-49"/>
       <use x="254.492188" xlink:href="#DejaVuSans-47"/>
       <use x="288.183594" xlink:href="#DejaVuSans-48"/>
       <use x="351.806641" xlink:href="#DejaVuSans-55"/>
       <use x="415.429688" xlink:href="#DejaVuSans-47"/>
       <use x="449.121094" xlink:href="#DejaVuSans-48"/>
       <use x="512.744141" xlink:href="#DejaVuSans-54"/>
      </g>
     </g>
    </g>
    <g id="xtick_13">
     <g id="line2d_34">
      <g>
       <use style="stroke:#000000;stroke-width:0.8;" x="282.963693" xlink:href="#mb147e1f7bf" y="586.84"/>
      </g>
     </g>
     <g id="text_32">
      <!-- 2021/07/11 -->
      <g transform="translate(254.144943 601.438437)scale(0.1 -0.1)">
       <use xlink:href="#DejaVuSans-50"/>
       <use x="63.623047" xlink:href="#DejaVuSans-48"/>
       <use x="127.246094" xlink:href="#DejaVuSans-50"/>
       <use x="190.869141" xlink:href="#DejaVuSans-49"/>
       <use x="254.492188" xlink:href="#DejaVuSans-47"/>
       <use x="288.183594" xlink:href="#DejaVuSans-48"/>
       <use x="351.806641" xlink:href="#DejaVuSans-55"/>
       <use x="415.429688" xlink:href="#DejaVuSans-47"/>
       <use x="449.121094" xlink:href="#DejaVuSans-49"/>
       <use x="512.744141" xlink:href="#DejaVuSans-49"/>
      </g>
     </g>
    </g>
    <g id="xtick_14">
     <g id="line2d_35">
      <g>
       <use style="stroke:#000000;stroke-width:0.8;" x="446.501648" xlink:href="#mb147e1f7bf" y="586.84"/>
      </g>
     </g>
     <g id="text_33">
      <!-- 2021/07/16 -->
      <g transform="translate(417.682898 601.438437)scale(0.1 -0.1)">
       <use xlink:href="#DejaVuSans-50"/>
       <use x="63.623047" xlink:href="#DejaVuSans-48"/>
       <use x="127.246094" xlink:href="#DejaVuSans-50"/>
       <use x="190.869141" xlink:href="#DejaVuSans-49"/>
       <use x="254.492188" xlink:href="#DejaVuSans-47"/>
       <use x="288.183594" xlink:href="#DejaVuSans-48"/>
       <use x="351.806641" xlink:href="#DejaVuSans-55"/>
       <use x="415.429688" xlink:href="#DejaVuSans-47"/>
       <use x="449.121094" xlink:href="#DejaVuSans-49"/>
       <use x="512.744141" xlink:href="#DejaVuSans-54"/>
      </g>
     </g>
    </g>
    <g id="xtick_15">
     <g id="line2d_36">
      <g>
       <use style="stroke:#000000;stroke-width:0.8;" x="610.039602" xlink:href="#mb147e1f7bf" y="586.84"/>
      </g>
     </g>
     <g id="text_34">
      <!-- 2021/07/21 -->
      <g transform="translate(581.220852 601.438437)scale(0.1 -0.1)">
       <use xlink:href="#DejaVuSans-50"/>
       <use x="63.623047" xlink:href="#DejaVuSans-48"/>
       <use x="127.246094" xlink:href="#DejaVuSans-50"/>
       <use x="190.869141" xlink:href="#DejaVuSans-49"/>
       <use x="254.492188" xlink:href="#DejaVuSans-47"/>
       <use x="288.183594" xlink:href="#DejaVuSans-48"/>
       <use x="351.806641" xlink:href="#DejaVuSans-55"/>
       <use x="415.429688" xlink:href="#DejaVuSans-47"/>
       <use x="449.121094" xlink:href="#DejaVuSans-50"/>
       <use x="512.744141" xlink:href="#DejaVuSans-49"/>
      </g>
     </g>
    </g>
    <g id="xtick_16">
     <g id="line2d_37">
      <g>
       <use style="stroke:#000000;stroke-width:0.8;" x="773.577557" xlink:href="#mb147e1f7bf" y="586.84"/>
      </g>
     </g>
     <g id="text_35">
      <!-- 2021/07/26 -->
      <g transform="translate(744.758807 601.438437)scale(0.1 -0.1)">
       <use xlink:href="#DejaVuSans-50"/>
       <use x="63.623047" xlink:href="#DejaVuSans-48"/>
       <use x="127.246094" xlink:href="#DejaVuSans-50"/>
       <use x="190.869141" xlink:href="#DejaVuSans-49"/>
       <use x="254.492188" xlink:href="#DejaVuSans-47"/>
       <use x="288.183594" xlink:href="#DejaVuSans-48"/>
       <use x="351.806641" xlink:href="#DejaVuSans-55"/>
       <use x="415.429688" xlink:href="#DejaVuSans-47"/>
       <use x="449.121094" xlink:href="#DejaVuSans-50"/>
       <use x="512.744141" xlink:href="#DejaVuSans-54"/>
      </g>
     </g>
    </g>
    <g id="xtick_17">
     <g id="line2d_38">
      <g>
       <use style="stroke:#000000;stroke-width:0.8;" x="937.115511" xlink:href="#mb147e1f7bf" y="586.84"/>
      </g>
     </g>
     <g id="text_36">
      <!-- 2021/07/31 -->
      <g transform="translate(908.296761 601.438437)scale(0.1 -0.1)">
       <use xlink:href="#DejaVuSans-50"/>
       <use x="63.623047" xlink:href="#DejaVuSans-48"/>
       <use x="127.246094" xlink:href="#DejaVuSans-50"/>
       <use x="190.869141" xlink:href="#DejaVuSans-49"/>
       <use x="254.492188" xlink:href="#DejaVuSans-47"/>
       <use x="288.183594" xlink:href="#DejaVuSans-48"/>
       <use x="351.806641" xlink:href="#DejaVuSans-55"/>
       <use x="415.429688" xlink:href="#DejaVuSans-47"/>
       <use x="449.121094" xlink:href="#DejaVuSans-51"/>
       <use x="512.744141" xlink:href="#DejaVuSans-49"/>
      </g>
     </g>
    </g>
    <g id="text_37">
     <!-- Time, t [days] -->
     <g transform="translate(493.605781 615.116562)scale(0.1 -0.1)">
      <use xlink:href="#DejaVuSans-84"/>
      <use x="57.958984" xlink:href="#DejaVuSans-105"/>
      <use x="85.742188" xlink:href="#DejaVuSans-109"/>
      <use x="183.154297" xlink:href="#DejaVuSans-101"/>
      <use x="244.677734" xlink:href="#DejaVuSans-44"/>
      <use x="276.464844" xlink:href="#DejaVuSans-32"/>
      <use x="308.251953" xlink:href="#DejaVuSans-116"/>
      <use x="347.460938" xlink:href="#DejaVuSans-32"/>
      <use x="379.248047" xlink:href="#DejaVuSans-91"/>
      <use x="418.261719" xlink:href="#DejaVuSans-100"/>
      <use x="481.738281" xlink:href="#DejaVuSans-97"/>
      <use x="543.017578" xlink:href="#DejaVuSans-121"/>
      <use x="602.197266" xlink:href="#DejaVuSans-115"/>
      <use x="654.296875" xlink:href="#DejaVuSans-93"/>
     </g>
    </g>
   </g>
   <g id="matplotlib.axis_6">
    <g id="ytick_10">
     <g id="line2d_39">
      <g>
       <use style="stroke:#000000;stroke-width:0.8;" x="78.54125" xlink:href="#m8b61846861" y="575.117281"/>
      </g>
     </g>
     <g id="text_38">
      <!-- 100 -->
      <g transform="translate(52.45375 578.9165)scale(0.1 -0.1)">
       <use xlink:href="#DejaVuSans-49"/>
       <use x="63.623047" xlink:href="#DejaVuSans-48"/>
       <use x="127.246094" xlink:href="#DejaVuSans-48"/>
      </g>
     </g>
    </g>
    <g id="ytick_11">
     <g id="line2d_40">
      <g>
       <use style="stroke:#000000;stroke-width:0.8;" x="78.54125" xlink:href="#m8b61846861" y="540.587916"/>
      </g>
     </g>
     <g id="text_39">
      <!-- 200 -->
      <g transform="translate(52.45375 544.387135)scale(0.1 -0.1)">
       <use xlink:href="#DejaVuSans-50"/>
       <use x="63.623047" xlink:href="#DejaVuSans-48"/>
       <use x="127.246094" xlink:href="#DejaVuSans-48"/>
      </g>
     </g>
    </g>
    <g id="ytick_12">
     <g id="line2d_41">
      <g>
       <use style="stroke:#000000;stroke-width:0.8;" x="78.54125" xlink:href="#m8b61846861" y="506.058552"/>
      </g>
     </g>
     <g id="text_40">
      <!-- 300 -->
      <g transform="translate(52.45375 509.857771)scale(0.1 -0.1)">
       <use xlink:href="#DejaVuSans-51"/>
       <use x="63.623047" xlink:href="#DejaVuSans-48"/>
       <use x="127.246094" xlink:href="#DejaVuSans-48"/>
      </g>
     </g>
    </g>
    <g id="ytick_13">
     <g id="line2d_42">
      <g>
       <use style="stroke:#000000;stroke-width:0.8;" x="78.54125" xlink:href="#m8b61846861" y="471.529187"/>
      </g>
     </g>
     <g id="text_41">
      <!-- 400 -->
      <g transform="translate(52.45375 475.328406)scale(0.1 -0.1)">
       <use xlink:href="#DejaVuSans-52"/>
       <use x="63.623047" xlink:href="#DejaVuSans-48"/>
       <use x="127.246094" xlink:href="#DejaVuSans-48"/>
      </g>
     </g>
    </g>
    <g id="text_42">
     <!-- daily_cases_(t+7) -->
     <g transform="translate(46.095938 566.767812)rotate(-90)scale(0.1 -0.1)">
      <use xlink:href="#DejaVuSans-100"/>
      <use x="63.476562" xlink:href="#DejaVuSans-97"/>
      <use x="124.755859" xlink:href="#DejaVuSans-105"/>
      <use x="152.539062" xlink:href="#DejaVuSans-108"/>
      <use x="180.322266" xlink:href="#DejaVuSans-121"/>
      <use x="239.501953" xlink:href="#DejaVuSans-95"/>
      <use x="289.501953" xlink:href="#DejaVuSans-99"/>
      <use x="344.482422" xlink:href="#DejaVuSans-97"/>
      <use x="405.761719" xlink:href="#DejaVuSans-115"/>
      <use x="457.861328" xlink:href="#DejaVuSans-101"/>
      <use x="519.384766" xlink:href="#DejaVuSans-115"/>
      <use x="571.484375" xlink:href="#DejaVuSans-95"/>
      <use x="621.484375" xlink:href="#DejaVuSans-40"/>
      <use x="660.498047" xlink:href="#DejaVuSans-116"/>
      <use x="699.707031" xlink:href="#DejaVuSans-43"/>
      <use x="783.496094" xlink:href="#DejaVuSans-55"/>
      <use x="847.119141" xlink:href="#DejaVuSans-41"/>
     </g>
    </g>
   </g>
   <g id="line2d_43">
    <path clip-path="url(#p8d034aef35)" d="M 119.425739 532.646163 
L 152.13333 491.210925 
L 184.84092 522.632647 
L 217.548511 519.525004 
L 250.256102 518.489123 
L 282.963693 523.323234 
L 315.671284 505.713258 
L 348.378875 509.856782 
L 381.086466 511.58325 
L 413.794057 463.932727 
L 446.501648 524.013821 
L 479.209239 474.291537 
L 511.91683 508.475607 
L 544.62442 548.874964 
L 577.332011 490.865632 
L 610.039602 537.13498 
L 642.747193 520.906179 
L 675.454784 530.574401 
L 708.162375 543.695559 
L 740.869966 558.888479 
L 773.577557 540.587916 
L 806.285148 531.610282 
L 838.992739 546.803202 
L 871.70033 499.497973 
L 904.40792 546.457908 
L 937.115511 580.987273 
" style="fill:none;stroke:#0000ff;stroke-linecap:square;stroke-width:1.5;"/>
   </g>
   <g id="line2d_44">
    <path clip-path="url(#p8d034aef35)" d="M 119.425739 557.201388 
L 152.13333 560.925917 
L 184.84092 550.723612 
L 217.548511 562.166406 
L 250.256102 542.653574 
L 282.963693 540.4854 
L 315.671284 564.4136 
L 348.378875 571.429321 
L 381.086466 557.195042 
L 413.794057 579.725208 
L 446.501648 574.334524 
L 479.209239 546.780597 
L 511.91683 549.179445 
L 544.62442 561.27767 
L 577.332011 561.076773 
L 610.039602 568.863183 
L 642.747193 543.794451 
L 675.454784 557.055033 
L 708.162375 524.932851 
L 740.869966 526.912305 
L 773.577557 561.695231 
L 806.285148 556.198367 
L 838.992739 569.154772 
L 871.70033 578.533442 
L 904.40792 578.608459 
L 937.115511 572.132901 
" style="fill:none;stroke:#ff0000;stroke-linecap:square;stroke-width:1.5;"/>
   </g>
   <g id="patch_15">
    <path d="M 78.54125 586.84 
L 78.54125 458.08 
" style="fill:none;stroke:#000000;stroke-linecap:square;stroke-linejoin:miter;stroke-width:0.8;"/>
   </g>
   <g id="patch_16">
    <path d="M 978 586.84 
L 978 458.08 
" style="fill:none;stroke:#000000;stroke-linecap:square;stroke-linejoin:miter;stroke-width:0.8;"/>
   </g>
   <g id="patch_17">
    <path d="M 78.54125 586.84 
L 978 586.84 
" style="fill:none;stroke:#000000;stroke-linecap:square;stroke-linejoin:miter;stroke-width:0.8;"/>
   </g>
   <g id="patch_18">
    <path d="M 78.54125 458.08 
L 978 458.08 
" style="fill:none;stroke:#000000;stroke-linecap:square;stroke-linejoin:miter;stroke-width:0.8;"/>
   </g>
   <g id="text_43">
    <!-- GLM fit test -->
    <g transform="translate(493.634687 452.08)scale(0.12 -0.12)">
     <use xlink:href="#DejaVuSans-71"/>
     <use x="77.490234" xlink:href="#DejaVuSans-76"/>
     <use x="133.203125" xlink:href="#DejaVuSans-77"/>
     <use x="219.482422" xlink:href="#DejaVuSans-32"/>
     <use x="251.269531" xlink:href="#DejaVuSans-102"/>
     <use x="286.474609" xlink:href="#DejaVuSans-105"/>
     <use x="314.257812" xlink:href="#DejaVuSans-116"/>
     <use x="353.466797" xlink:href="#DejaVuSans-32"/>
     <use x="385.253906" xlink:href="#DejaVuSans-116"/>
     <use x="424.462891" xlink:href="#DejaVuSans-101"/>
     <use x="485.986328" xlink:href="#DejaVuSans-115"/>
     <use x="538.085938" xlink:href="#DejaVuSans-116"/>
    </g>
   </g>
   <g id="legend_3">
    <g id="patch_19">
     <path d="M 85.54125 495.43625 
L 159.844375 495.43625 
Q 161.844375 495.43625 161.844375 493.43625 
L 161.844375 465.08 
Q 161.844375 463.08 159.844375 463.08 
L 85.54125 463.08 
Q 83.54125 463.08 83.54125 465.08 
L 83.54125 493.43625 
Q 83.54125 495.43625 85.54125 495.43625 
z
" style="fill:#ffffff;opacity:0.8;stroke:#cccccc;stroke-linejoin:miter;"/>
    </g>
    <g id="line2d_45">
     <path d="M 87.54125 471.178437 
L 107.54125 471.178437 
" style="fill:none;stroke:#0000ff;stroke-linecap:square;stroke-width:1.5;"/>
    </g>
    <g id="line2d_46"/>
    <g id="text_44">
     <!-- Data -->
     <g transform="translate(115.54125 474.678437)scale(0.1 -0.1)">
      <use xlink:href="#DejaVuSans-68"/>
      <use x="77.001953" xlink:href="#DejaVuSans-97"/>
      <use x="138.28125" xlink:href="#DejaVuSans-116"/>
      <use x="177.490234" xlink:href="#DejaVuSans-97"/>
     </g>
    </g>
    <g id="line2d_47">
     <path d="M 87.54125 485.856562 
L 107.54125 485.856562 
" style="fill:none;stroke:#ff0000;stroke-linecap:square;stroke-width:1.5;"/>
    </g>
    <g id="line2d_48"/>
    <g id="text_45">
     <!-- Forecast -->
     <g transform="translate(115.54125 489.356562)scale(0.1 -0.1)">
      <use xlink:href="#DejaVuSans-70"/>
      <use x="53.894531" xlink:href="#DejaVuSans-111"/>
      <use x="115.076172" xlink:href="#DejaVuSans-114"/>
      <use x="153.939453" xlink:href="#DejaVuSans-101"/>
      <use x="215.462891" xlink:href="#DejaVuSans-99"/>
      <use x="270.443359" xlink:href="#DejaVuSans-97"/>
      <use x="331.722656" xlink:href="#DejaVuSans-115"/>
      <use x="383.822266" xlink:href="#DejaVuSans-116"/>
     </g>
    </g>
   </g>
  </g>
 </g>
 <defs>
  <clipPath id="p6d1a0a1ea8">
   <rect height="128.76" width="899.45875" x="78.54125" y="46.08"/>
  </clipPath>
  <clipPath id="pfb2c9dfdb2">
   <rect height="128.76" width="899.45875" x="78.54125" y="252.08"/>
  </clipPath>
  <clipPath id="p8d034aef35">
   <rect height="128.76" width="899.45875" x="78.54125" y="458.08"/>
  </clipPath>
 </defs>
</svg>
