<?xml version="1.0" encoding="utf-8" standalone="no"?>
<!DOCTYPE svg PUBLIC "-//W3C//DTD SVG 1.1//EN"
  "http://www.w3.org/Graphics/SVG/1.1/DTD/svg11.dtd">
<!-- Created with matplotlib (https://matplotlib.org/) -->
<svg height="648pt" version="1.1" viewBox="0 0 1008 648" width="1008pt" xmlns="http://www.w3.org/2000/svg" xmlns:xlink="http://www.w3.org/1999/xlink">
 <metadata>
  <rdf:RDF xmlns:cc="http://creativecommons.org/ns#" xmlns:dc="http://purl.org/dc/elements/1.1/" xmlns:rdf="http://www.w3.org/1999/02/22-rdf-syntax-ns#">
   <cc:Work>
    <dc:type rdf:resource="http://purl.org/dc/dcmitype/StillImage"/>
    <dc:date>2021-08-27T10:16:15.500447</dc:date>
    <dc:format>image/svg+xml</dc:format>
    <dc:creator>
     <cc:Agent>
      <dc:title>Matplotlib v3.3.4, https://matplotlib.org/</dc:title>
     </cc:Agent>
    </dc:creator>
   </cc:Work>
  </rdf:RDF>
 </metadata>
 <defs>
  <style type="text/css">*{stroke-linecap:butt;stroke-linejoin:round;}</style>
 </defs>
 <g id="figure_1">
  <g id="patch_1">
   <path d="M 0 648 
L 1008 648 
L 1008 0 
L 0 0 
z
" style="fill:#ffffff;"/>
  </g>
  <g id="axes_1">
   <g id="patch_2">
    <path d="M 70.17125 174.84 
L 978 174.84 
L 978 46.08 
L 70.17125 46.08 
z
" style="fill:#ffffff;"/>
   </g>
   <g id="matplotlib.axis_1">
    <g id="xtick_1">
     <g id="line2d_1">
      <defs>
       <path d="M 0 0 
L 0 3.5 
" id="m41ba9c5323" style="stroke:#000000;stroke-width:0.8;"/>
      </defs>
      <g>
       <use style="stroke:#000000;stroke-width:0.8;" x="111.436193" xlink:href="#m41ba9c5323" y="174.84"/>
      </g>
     </g>
     <g id="text_1">
      <!-- 2020/02/29 -->
      <g transform="translate(82.617443 189.438437)scale(0.1 -0.1)">
       <defs>
        <path d="M 19.1875 8.296875 
L 53.609375 8.296875 
L 53.609375 0 
L 7.328125 0 
L 7.328125 8.296875 
Q 12.9375 14.109375 22.625 23.890625 
Q 32.328125 33.6875 34.8125 36.53125 
Q 39.546875 41.84375 41.421875 45.53125 
Q 43.3125 49.21875 43.3125 52.78125 
Q 43.3125 58.59375 39.234375 62.25 
Q 35.15625 65.921875 28.609375 65.921875 
Q 23.96875 65.921875 18.8125 64.3125 
Q 13.671875 62.703125 7.8125 59.421875 
L 7.8125 69.390625 
Q 13.765625 71.78125 18.9375 73 
Q 24.125 74.21875 28.421875 74.21875 
Q 39.75 74.21875 46.484375 68.546875 
Q 53.21875 62.890625 53.21875 53.421875 
Q 53.21875 48.921875 51.53125 44.890625 
Q 49.859375 40.875 45.40625 35.40625 
Q 44.1875 33.984375 37.640625 27.21875 
Q 31.109375 20.453125 19.1875 8.296875 
z
" id="DejaVuSans-50"/>
        <path d="M 31.78125 66.40625 
Q 24.171875 66.40625 20.328125 58.90625 
Q 16.5 51.421875 16.5 36.375 
Q 16.5 21.390625 20.328125 13.890625 
Q 24.171875 6.390625 31.78125 6.390625 
Q 39.453125 6.390625 43.28125 13.890625 
Q 47.125 21.390625 47.125 36.375 
Q 47.125 51.421875 43.28125 58.90625 
Q 39.453125 66.40625 31.78125 66.40625 
z
M 31.78125 74.21875 
Q 44.046875 74.21875 50.515625 64.515625 
Q 56.984375 54.828125 56.984375 36.375 
Q 56.984375 17.96875 50.515625 8.265625 
Q 44.046875 -1.421875 31.78125 -1.421875 
Q 19.53125 -1.421875 13.0625 8.265625 
Q 6.59375 17.96875 6.59375 36.375 
Q 6.59375 54.828125 13.0625 64.515625 
Q 19.53125 74.21875 31.78125 74.21875 
z
" id="DejaVuSans-48"/>
        <path d="M 25.390625 72.90625 
L 33.6875 72.90625 
L 8.296875 -9.28125 
L 0 -9.28125 
z
" id="DejaVuSans-47"/>
        <path d="M 10.984375 1.515625 
L 10.984375 10.5 
Q 14.703125 8.734375 18.5 7.8125 
Q 22.3125 6.890625 25.984375 6.890625 
Q 35.75 6.890625 40.890625 13.453125 
Q 46.046875 20.015625 46.78125 33.40625 
Q 43.953125 29.203125 39.59375 26.953125 
Q 35.25 24.703125 29.984375 24.703125 
Q 19.046875 24.703125 12.671875 31.3125 
Q 6.296875 37.9375 6.296875 49.421875 
Q 6.296875 60.640625 12.9375 67.421875 
Q 19.578125 74.21875 30.609375 74.21875 
Q 43.265625 74.21875 49.921875 64.515625 
Q 56.59375 54.828125 56.59375 36.375 
Q 56.59375 19.140625 48.40625 8.859375 
Q 40.234375 -1.421875 26.421875 -1.421875 
Q 22.703125 -1.421875 18.890625 -0.6875 
Q 15.09375 0.046875 10.984375 1.515625 
z
M 30.609375 32.421875 
Q 37.25 32.421875 41.125 36.953125 
Q 45.015625 41.5 45.015625 49.421875 
Q 45.015625 57.28125 41.125 61.84375 
Q 37.25 66.40625 30.609375 66.40625 
Q 23.96875 66.40625 20.09375 61.84375 
Q 16.21875 57.28125 16.21875 49.421875 
Q 16.21875 41.5 20.09375 36.953125 
Q 23.96875 32.421875 30.609375 32.421875 
z
" id="DejaVuSans-57"/>
       </defs>
       <use xlink:href="#DejaVuSans-50"/>
       <use x="63.623047" xlink:href="#DejaVuSans-48"/>
       <use x="127.246094" xlink:href="#DejaVuSans-50"/>
       <use x="190.869141" xlink:href="#DejaVuSans-48"/>
       <use x="254.492188" xlink:href="#DejaVuSans-47"/>
       <use x="288.183594" xlink:href="#DejaVuSans-48"/>
       <use x="351.806641" xlink:href="#DejaVuSans-50"/>
       <use x="415.429688" xlink:href="#DejaVuSans-47"/>
       <use x="449.121094" xlink:href="#DejaVuSans-50"/>
       <use x="512.744141" xlink:href="#DejaVuSans-57"/>
      </g>
     </g>
    </g>
    <g id="xtick_2">
     <g id="line2d_2">
      <g>
       <use style="stroke:#000000;stroke-width:0.8;" x="310.783745" xlink:href="#m41ba9c5323" y="174.84"/>
      </g>
     </g>
     <g id="text_2">
      <!-- 2020/06/08 -->
      <g transform="translate(281.964995 189.438437)scale(0.1 -0.1)">
       <defs>
        <path d="M 33.015625 40.375 
Q 26.375 40.375 22.484375 35.828125 
Q 18.609375 31.296875 18.609375 23.390625 
Q 18.609375 15.53125 22.484375 10.953125 
Q 26.375 6.390625 33.015625 6.390625 
Q 39.65625 6.390625 43.53125 10.953125 
Q 47.40625 15.53125 47.40625 23.390625 
Q 47.40625 31.296875 43.53125 35.828125 
Q 39.65625 40.375 33.015625 40.375 
z
M 52.59375 71.296875 
L 52.59375 62.3125 
Q 48.875 64.0625 45.09375 64.984375 
Q 41.3125 65.921875 37.59375 65.921875 
Q 27.828125 65.921875 22.671875 59.328125 
Q 17.53125 52.734375 16.796875 39.40625 
Q 19.671875 43.65625 24.015625 45.921875 
Q 28.375 48.1875 33.59375 48.1875 
Q 44.578125 48.1875 50.953125 41.515625 
Q 57.328125 34.859375 57.328125 23.390625 
Q 57.328125 12.15625 50.6875 5.359375 
Q 44.046875 -1.421875 33.015625 -1.421875 
Q 20.359375 -1.421875 13.671875 8.265625 
Q 6.984375 17.96875 6.984375 36.375 
Q 6.984375 53.65625 15.1875 63.9375 
Q 23.390625 74.21875 37.203125 74.21875 
Q 40.921875 74.21875 44.703125 73.484375 
Q 48.484375 72.75 52.59375 71.296875 
z
" id="DejaVuSans-54"/>
        <path d="M 31.78125 34.625 
Q 24.75 34.625 20.71875 30.859375 
Q 16.703125 27.09375 16.703125 20.515625 
Q 16.703125 13.921875 20.71875 10.15625 
Q 24.75 6.390625 31.78125 6.390625 
Q 38.8125 6.390625 42.859375 10.171875 
Q 46.921875 13.96875 46.921875 20.515625 
Q 46.921875 27.09375 42.890625 30.859375 
Q 38.875 34.625 31.78125 34.625 
z
M 21.921875 38.8125 
Q 15.578125 40.375 12.03125 44.71875 
Q 8.5 49.078125 8.5 55.328125 
Q 8.5 64.0625 14.71875 69.140625 
Q 20.953125 74.21875 31.78125 74.21875 
Q 42.671875 74.21875 48.875 69.140625 
Q 55.078125 64.0625 55.078125 55.328125 
Q 55.078125 49.078125 51.53125 44.71875 
Q 48 40.375 41.703125 38.8125 
Q 48.828125 37.15625 52.796875 32.3125 
Q 56.78125 27.484375 56.78125 20.515625 
Q 56.78125 9.90625 50.3125 4.234375 
Q 43.84375 -1.421875 31.78125 -1.421875 
Q 19.734375 -1.421875 13.25 4.234375 
Q 6.78125 9.90625 6.78125 20.515625 
Q 6.78125 27.484375 10.78125 32.3125 
Q 14.796875 37.15625 21.921875 38.8125 
z
M 18.3125 54.390625 
Q 18.3125 48.734375 21.84375 45.5625 
Q 25.390625 42.390625 31.78125 42.390625 
Q 38.140625 42.390625 41.71875 45.5625 
Q 45.3125 48.734375 45.3125 54.390625 
Q 45.3125 60.0625 41.71875 63.234375 
Q 38.140625 66.40625 31.78125 66.40625 
Q 25.390625 66.40625 21.84375 63.234375 
Q 18.3125 60.0625 18.3125 54.390625 
z
" id="DejaVuSans-56"/>
       </defs>
       <use xlink:href="#DejaVuSans-50"/>
       <use x="63.623047" xlink:href="#DejaVuSans-48"/>
       <use x="127.246094" xlink:href="#DejaVuSans-50"/>
       <use x="190.869141" xlink:href="#DejaVuSans-48"/>
       <use x="254.492188" xlink:href="#DejaVuSans-47"/>
       <use x="288.183594" xlink:href="#DejaVuSans-48"/>
       <use x="351.806641" xlink:href="#DejaVuSans-54"/>
       <use x="415.429688" xlink:href="#DejaVuSans-47"/>
       <use x="449.121094" xlink:href="#DejaVuSans-48"/>
       <use x="512.744141" xlink:href="#DejaVuSans-56"/>
      </g>
     </g>
    </g>
    <g id="xtick_3">
     <g id="line2d_3">
      <g>
       <use style="stroke:#000000;stroke-width:0.8;" x="510.131296" xlink:href="#m41ba9c5323" y="174.84"/>
      </g>
     </g>
     <g id="text_3">
      <!-- 2020/09/16 -->
      <g transform="translate(481.312546 189.438437)scale(0.1 -0.1)">
       <defs>
        <path d="M 12.40625 8.296875 
L 28.515625 8.296875 
L 28.515625 63.921875 
L 10.984375 60.40625 
L 10.984375 69.390625 
L 28.421875 72.90625 
L 38.28125 72.90625 
L 38.28125 8.296875 
L 54.390625 8.296875 
L 54.390625 0 
L 12.40625 0 
z
" id="DejaVuSans-49"/>
       </defs>
       <use xlink:href="#DejaVuSans-50"/>
       <use x="63.623047" xlink:href="#DejaVuSans-48"/>
       <use x="127.246094" xlink:href="#DejaVuSans-50"/>
       <use x="190.869141" xlink:href="#DejaVuSans-48"/>
       <use x="254.492188" xlink:href="#DejaVuSans-47"/>
       <use x="288.183594" xlink:href="#DejaVuSans-48"/>
       <use x="351.806641" xlink:href="#DejaVuSans-57"/>
       <use x="415.429688" xlink:href="#DejaVuSans-47"/>
       <use x="449.121094" xlink:href="#DejaVuSans-49"/>
       <use x="512.744141" xlink:href="#DejaVuSans-54"/>
      </g>
     </g>
    </g>
    <g id="xtick_4">
     <g id="line2d_4">
      <g>
       <use style="stroke:#000000;stroke-width:0.8;" x="709.478848" xlink:href="#m41ba9c5323" y="174.84"/>
      </g>
     </g>
     <g id="text_4">
      <!-- 2020/12/25 -->
      <g transform="translate(680.660098 189.438437)scale(0.1 -0.1)">
       <defs>
        <path d="M 10.796875 72.90625 
L 49.515625 72.90625 
L 49.515625 64.59375 
L 19.828125 64.59375 
L 19.828125 46.734375 
Q 21.96875 47.46875 24.109375 47.828125 
Q 26.265625 48.1875 28.421875 48.1875 
Q 40.625 48.1875 47.75 41.5 
Q 54.890625 34.8125 54.890625 23.390625 
Q 54.890625 11.625 47.5625 5.09375 
Q 40.234375 -1.421875 26.90625 -1.421875 
Q 22.3125 -1.421875 17.546875 -0.640625 
Q 12.796875 0.140625 7.71875 1.703125 
L 7.71875 11.625 
Q 12.109375 9.234375 16.796875 8.0625 
Q 21.484375 6.890625 26.703125 6.890625 
Q 35.15625 6.890625 40.078125 11.328125 
Q 45.015625 15.765625 45.015625 23.390625 
Q 45.015625 31 40.078125 35.4375 
Q 35.15625 39.890625 26.703125 39.890625 
Q 22.75 39.890625 18.8125 39.015625 
Q 14.890625 38.140625 10.796875 36.28125 
z
" id="DejaVuSans-53"/>
       </defs>
       <use xlink:href="#DejaVuSans-50"/>
       <use x="63.623047" xlink:href="#DejaVuSans-48"/>
       <use x="127.246094" xlink:href="#DejaVuSans-50"/>
       <use x="190.869141" xlink:href="#DejaVuSans-48"/>
       <use x="254.492188" xlink:href="#DejaVuSans-47"/>
       <use x="288.183594" xlink:href="#DejaVuSans-49"/>
       <use x="351.806641" xlink:href="#DejaVuSans-50"/>
       <use x="415.429688" xlink:href="#DejaVuSans-47"/>
       <use x="449.121094" xlink:href="#DejaVuSans-50"/>
       <use x="512.744141" xlink:href="#DejaVuSans-53"/>
      </g>
     </g>
    </g>
    <g id="xtick_5">
     <g id="line2d_5">
      <g>
       <use style="stroke:#000000;stroke-width:0.8;" x="908.8264" xlink:href="#m41ba9c5323" y="174.84"/>
      </g>
     </g>
     <g id="text_5">
      <!-- 2021/04/04 -->
      <g transform="translate(880.00765 189.438437)scale(0.1 -0.1)">
       <defs>
        <path d="M 37.796875 64.3125 
L 12.890625 25.390625 
L 37.796875 25.390625 
z
M 35.203125 72.90625 
L 47.609375 72.90625 
L 47.609375 25.390625 
L 58.015625 25.390625 
L 58.015625 17.1875 
L 47.609375 17.1875 
L 47.609375 0 
L 37.796875 0 
L 37.796875 17.1875 
L 4.890625 17.1875 
L 4.890625 26.703125 
z
" id="DejaVuSans-52"/>
       </defs>
       <use xlink:href="#DejaVuSans-50"/>
       <use x="63.623047" xlink:href="#DejaVuSans-48"/>
       <use x="127.246094" xlink:href="#DejaVuSans-50"/>
       <use x="190.869141" xlink:href="#DejaVuSans-49"/>
       <use x="254.492188" xlink:href="#DejaVuSans-47"/>
       <use x="288.183594" xlink:href="#DejaVuSans-48"/>
       <use x="351.806641" xlink:href="#DejaVuSans-52"/>
       <use x="415.429688" xlink:href="#DejaVuSans-47"/>
       <use x="449.121094" xlink:href="#DejaVuSans-48"/>
       <use x="512.744141" xlink:href="#DejaVuSans-52"/>
      </g>
     </g>
    </g>
    <g id="text_6">
     <!-- Time, t [days] -->
     <g transform="translate(489.420781 203.116562)scale(0.1 -0.1)">
      <defs>
       <path d="M -0.296875 72.90625 
L 61.375 72.90625 
L 61.375 64.59375 
L 35.5 64.59375 
L 35.5 0 
L 25.59375 0 
L 25.59375 64.59375 
L -0.296875 64.59375 
z
" id="DejaVuSans-84"/>
       <path d="M 9.421875 54.6875 
L 18.40625 54.6875 
L 18.40625 0 
L 9.421875 0 
z
M 9.421875 75.984375 
L 18.40625 75.984375 
L 18.40625 64.59375 
L 9.421875 64.59375 
z
" id="DejaVuSans-105"/>
       <path d="M 52 44.1875 
Q 55.375 50.25 60.0625 53.125 
Q 64.75 56 71.09375 56 
Q 79.640625 56 84.28125 50.015625 
Q 88.921875 44.046875 88.921875 33.015625 
L 88.921875 0 
L 79.890625 0 
L 79.890625 32.71875 
Q 79.890625 40.578125 77.09375 44.375 
Q 74.3125 48.1875 68.609375 48.1875 
Q 61.625 48.1875 57.5625 43.546875 
Q 53.515625 38.921875 53.515625 30.90625 
L 53.515625 0 
L 44.484375 0 
L 44.484375 32.71875 
Q 44.484375 40.625 41.703125 44.40625 
Q 38.921875 48.1875 33.109375 48.1875 
Q 26.21875 48.1875 22.15625 43.53125 
Q 18.109375 38.875 18.109375 30.90625 
L 18.109375 0 
L 9.078125 0 
L 9.078125 54.6875 
L 18.109375 54.6875 
L 18.109375 46.1875 
Q 21.1875 51.21875 25.484375 53.609375 
Q 29.78125 56 35.6875 56 
Q 41.65625 56 45.828125 52.96875 
Q 50 49.953125 52 44.1875 
z
" id="DejaVuSans-109"/>
       <path d="M 56.203125 29.59375 
L 56.203125 25.203125 
L 14.890625 25.203125 
Q 15.484375 15.921875 20.484375 11.0625 
Q 25.484375 6.203125 34.421875 6.203125 
Q 39.59375 6.203125 44.453125 7.46875 
Q 49.3125 8.734375 54.109375 11.28125 
L 54.109375 2.78125 
Q 49.265625 0.734375 44.1875 -0.34375 
Q 39.109375 -1.421875 33.890625 -1.421875 
Q 20.796875 -1.421875 13.15625 6.1875 
Q 5.515625 13.8125 5.515625 26.8125 
Q 5.515625 40.234375 12.765625 48.109375 
Q 20.015625 56 32.328125 56 
Q 43.359375 56 49.78125 48.890625 
Q 56.203125 41.796875 56.203125 29.59375 
z
M 47.21875 32.234375 
Q 47.125 39.59375 43.09375 43.984375 
Q 39.0625 48.390625 32.421875 48.390625 
Q 24.90625 48.390625 20.390625 44.140625 
Q 15.875 39.890625 15.1875 32.171875 
z
" id="DejaVuSans-101"/>
       <path d="M 11.71875 12.40625 
L 22.015625 12.40625 
L 22.015625 4 
L 14.015625 -11.625 
L 7.71875 -11.625 
L 11.71875 4 
z
" id="DejaVuSans-44"/>
       <path id="DejaVuSans-32"/>
       <path d="M 18.3125 70.21875 
L 18.3125 54.6875 
L 36.8125 54.6875 
L 36.8125 47.703125 
L 18.3125 47.703125 
L 18.3125 18.015625 
Q 18.3125 11.328125 20.140625 9.421875 
Q 21.96875 7.515625 27.59375 7.515625 
L 36.8125 7.515625 
L 36.8125 0 
L 27.59375 0 
Q 17.1875 0 13.234375 3.875 
Q 9.28125 7.765625 9.28125 18.015625 
L 9.28125 47.703125 
L 2.6875 47.703125 
L 2.6875 54.6875 
L 9.28125 54.6875 
L 9.28125 70.21875 
z
" id="DejaVuSans-116"/>
       <path d="M 8.59375 75.984375 
L 29.296875 75.984375 
L 29.296875 69 
L 17.578125 69 
L 17.578125 -6.203125 
L 29.296875 -6.203125 
L 29.296875 -13.1875 
L 8.59375 -13.1875 
z
" id="DejaVuSans-91"/>
       <path d="M 45.40625 46.390625 
L 45.40625 75.984375 
L 54.390625 75.984375 
L 54.390625 0 
L 45.40625 0 
L 45.40625 8.203125 
Q 42.578125 3.328125 38.25 0.953125 
Q 33.9375 -1.421875 27.875 -1.421875 
Q 17.96875 -1.421875 11.734375 6.484375 
Q 5.515625 14.40625 5.515625 27.296875 
Q 5.515625 40.1875 11.734375 48.09375 
Q 17.96875 56 27.875 56 
Q 33.9375 56 38.25 53.625 
Q 42.578125 51.265625 45.40625 46.390625 
z
M 14.796875 27.296875 
Q 14.796875 17.390625 18.875 11.75 
Q 22.953125 6.109375 30.078125 6.109375 
Q 37.203125 6.109375 41.296875 11.75 
Q 45.40625 17.390625 45.40625 27.296875 
Q 45.40625 37.203125 41.296875 42.84375 
Q 37.203125 48.484375 30.078125 48.484375 
Q 22.953125 48.484375 18.875 42.84375 
Q 14.796875 37.203125 14.796875 27.296875 
z
" id="DejaVuSans-100"/>
       <path d="M 34.28125 27.484375 
Q 23.390625 27.484375 19.1875 25 
Q 14.984375 22.515625 14.984375 16.5 
Q 14.984375 11.71875 18.140625 8.90625 
Q 21.296875 6.109375 26.703125 6.109375 
Q 34.1875 6.109375 38.703125 11.40625 
Q 43.21875 16.703125 43.21875 25.484375 
L 43.21875 27.484375 
z
M 52.203125 31.203125 
L 52.203125 0 
L 43.21875 0 
L 43.21875 8.296875 
Q 40.140625 3.328125 35.546875 0.953125 
Q 30.953125 -1.421875 24.3125 -1.421875 
Q 15.921875 -1.421875 10.953125 3.296875 
Q 6 8.015625 6 15.921875 
Q 6 25.140625 12.171875 29.828125 
Q 18.359375 34.515625 30.609375 34.515625 
L 43.21875 34.515625 
L 43.21875 35.40625 
Q 43.21875 41.609375 39.140625 45 
Q 35.0625 48.390625 27.6875 48.390625 
Q 23 48.390625 18.546875 47.265625 
Q 14.109375 46.140625 10.015625 43.890625 
L 10.015625 52.203125 
Q 14.9375 54.109375 19.578125 55.046875 
Q 24.21875 56 28.609375 56 
Q 40.484375 56 46.34375 49.84375 
Q 52.203125 43.703125 52.203125 31.203125 
z
" id="DejaVuSans-97"/>
       <path d="M 32.171875 -5.078125 
Q 28.375 -14.84375 24.75 -17.8125 
Q 21.140625 -20.796875 15.09375 -20.796875 
L 7.90625 -20.796875 
L 7.90625 -13.28125 
L 13.1875 -13.28125 
Q 16.890625 -13.28125 18.9375 -11.515625 
Q 21 -9.765625 23.484375 -3.21875 
L 25.09375 0.875 
L 2.984375 54.6875 
L 12.5 54.6875 
L 29.59375 11.921875 
L 46.6875 54.6875 
L 56.203125 54.6875 
z
" id="DejaVuSans-121"/>
       <path d="M 44.28125 53.078125 
L 44.28125 44.578125 
Q 40.484375 46.53125 36.375 47.5 
Q 32.28125 48.484375 27.875 48.484375 
Q 21.1875 48.484375 17.84375 46.4375 
Q 14.5 44.390625 14.5 40.28125 
Q 14.5 37.15625 16.890625 35.375 
Q 19.28125 33.59375 26.515625 31.984375 
L 29.59375 31.296875 
Q 39.15625 29.25 43.1875 25.515625 
Q 47.21875 21.78125 47.21875 15.09375 
Q 47.21875 7.46875 41.1875 3.015625 
Q 35.15625 -1.421875 24.609375 -1.421875 
Q 20.21875 -1.421875 15.453125 -0.5625 
Q 10.6875 0.296875 5.421875 2 
L 5.421875 11.28125 
Q 10.40625 8.6875 15.234375 7.390625 
Q 20.0625 6.109375 24.8125 6.109375 
Q 31.15625 6.109375 34.5625 8.28125 
Q 37.984375 10.453125 37.984375 14.40625 
Q 37.984375 18.0625 35.515625 20.015625 
Q 33.0625 21.96875 24.703125 23.78125 
L 21.578125 24.515625 
Q 13.234375 26.265625 9.515625 29.90625 
Q 5.8125 33.546875 5.8125 39.890625 
Q 5.8125 47.609375 11.28125 51.796875 
Q 16.75 56 26.8125 56 
Q 31.78125 56 36.171875 55.265625 
Q 40.578125 54.546875 44.28125 53.078125 
z
" id="DejaVuSans-115"/>
       <path d="M 30.421875 75.984375 
L 30.421875 -13.1875 
L 9.71875 -13.1875 
L 9.71875 -6.203125 
L 21.390625 -6.203125 
L 21.390625 69 
L 9.71875 69 
L 9.71875 75.984375 
z
" id="DejaVuSans-93"/>
      </defs>
      <use xlink:href="#DejaVuSans-84"/>
      <use x="57.958984" xlink:href="#DejaVuSans-105"/>
      <use x="85.742188" xlink:href="#DejaVuSans-109"/>
      <use x="183.154297" xlink:href="#DejaVuSans-101"/>
      <use x="244.677734" xlink:href="#DejaVuSans-44"/>
      <use x="276.464844" xlink:href="#DejaVuSans-32"/>
      <use x="308.251953" xlink:href="#DejaVuSans-116"/>
      <use x="347.460938" xlink:href="#DejaVuSans-32"/>
      <use x="379.248047" xlink:href="#DejaVuSans-91"/>
      <use x="418.261719" xlink:href="#DejaVuSans-100"/>
      <use x="481.738281" xlink:href="#DejaVuSans-97"/>
      <use x="543.017578" xlink:href="#DejaVuSans-121"/>
      <use x="602.197266" xlink:href="#DejaVuSans-115"/>
      <use x="654.296875" xlink:href="#DejaVuSans-93"/>
     </g>
    </g>
   </g>
   <g id="matplotlib.axis_2">
    <g id="ytick_1">
     <g id="line2d_6">
      <defs>
       <path d="M 0 0 
L -3.5 0 
" id="m318573cb57" style="stroke:#000000;stroke-width:0.8;"/>
      </defs>
      <g>
       <use style="stroke:#000000;stroke-width:0.8;" x="70.17125" xlink:href="#m318573cb57" y="168.987273"/>
      </g>
     </g>
     <g id="text_7">
      <!-- 0 -->
      <g transform="translate(56.80875 172.786491)scale(0.1 -0.1)">
       <use xlink:href="#DejaVuSans-48"/>
      </g>
     </g>
    </g>
    <g id="ytick_2">
     <g id="line2d_7">
      <g>
       <use style="stroke:#000000;stroke-width:0.8;" x="70.17125" xlink:href="#m318573cb57" y="131.227742"/>
      </g>
     </g>
     <g id="text_8">
      <!-- 100 -->
      <g transform="translate(44.08375 135.026961)scale(0.1 -0.1)">
       <use xlink:href="#DejaVuSans-49"/>
       <use x="63.623047" xlink:href="#DejaVuSans-48"/>
       <use x="127.246094" xlink:href="#DejaVuSans-48"/>
      </g>
     </g>
    </g>
    <g id="ytick_3">
     <g id="line2d_8">
      <g>
       <use style="stroke:#000000;stroke-width:0.8;" x="70.17125" xlink:href="#m318573cb57" y="93.468211"/>
      </g>
     </g>
     <g id="text_9">
      <!-- 200 -->
      <g transform="translate(44.08375 97.26743)scale(0.1 -0.1)">
       <use xlink:href="#DejaVuSans-50"/>
       <use x="63.623047" xlink:href="#DejaVuSans-48"/>
       <use x="127.246094" xlink:href="#DejaVuSans-48"/>
      </g>
     </g>
    </g>
    <g id="ytick_4">
     <g id="line2d_9">
      <g>
       <use style="stroke:#000000;stroke-width:0.8;" x="70.17125" xlink:href="#m318573cb57" y="55.70868"/>
      </g>
     </g>
     <g id="text_10">
      <!-- 300 -->
      <g transform="translate(44.08375 59.507899)scale(0.1 -0.1)">
       <defs>
        <path d="M 40.578125 39.3125 
Q 47.65625 37.796875 51.625 33 
Q 55.609375 28.21875 55.609375 21.1875 
Q 55.609375 10.40625 48.1875 4.484375 
Q 40.765625 -1.421875 27.09375 -1.421875 
Q 22.515625 -1.421875 17.65625 -0.515625 
Q 12.796875 0.390625 7.625 2.203125 
L 7.625 11.71875 
Q 11.71875 9.328125 16.59375 8.109375 
Q 21.484375 6.890625 26.8125 6.890625 
Q 36.078125 6.890625 40.9375 10.546875 
Q 45.796875 14.203125 45.796875 21.1875 
Q 45.796875 27.640625 41.28125 31.265625 
Q 36.765625 34.90625 28.71875 34.90625 
L 20.21875 34.90625 
L 20.21875 43.015625 
L 29.109375 43.015625 
Q 36.375 43.015625 40.234375 45.921875 
Q 44.09375 48.828125 44.09375 54.296875 
Q 44.09375 59.90625 40.109375 62.90625 
Q 36.140625 65.921875 28.71875 65.921875 
Q 24.65625 65.921875 20.015625 65.03125 
Q 15.375 64.15625 9.8125 62.3125 
L 9.8125 71.09375 
Q 15.4375 72.65625 20.34375 73.4375 
Q 25.25 74.21875 29.59375 74.21875 
Q 40.828125 74.21875 47.359375 69.109375 
Q 53.90625 64.015625 53.90625 55.328125 
Q 53.90625 49.265625 50.4375 45.09375 
Q 46.96875 40.921875 40.578125 39.3125 
z
" id="DejaVuSans-51"/>
       </defs>
       <use xlink:href="#DejaVuSans-51"/>
       <use x="63.623047" xlink:href="#DejaVuSans-48"/>
       <use x="127.246094" xlink:href="#DejaVuSans-48"/>
      </g>
     </g>
    </g>
    <g id="text_11">
     <!-- daily_cases_(t+7) -->
     <g transform="translate(37.725937 154.767813)rotate(-90)scale(0.1 -0.1)">
      <defs>
       <path d="M 9.421875 75.984375 
L 18.40625 75.984375 
L 18.40625 0 
L 9.421875 0 
z
" id="DejaVuSans-108"/>
       <path d="M 50.984375 -16.609375 
L 50.984375 -23.578125 
L -0.984375 -23.578125 
L -0.984375 -16.609375 
z
" id="DejaVuSans-95"/>
       <path d="M 48.78125 52.59375 
L 48.78125 44.1875 
Q 44.96875 46.296875 41.140625 47.34375 
Q 37.3125 48.390625 33.40625 48.390625 
Q 24.65625 48.390625 19.8125 42.84375 
Q 14.984375 37.3125 14.984375 27.296875 
Q 14.984375 17.28125 19.8125 11.734375 
Q 24.65625 6.203125 33.40625 6.203125 
Q 37.3125 6.203125 41.140625 7.25 
Q 44.96875 8.296875 48.78125 10.40625 
L 48.78125 2.09375 
Q 45.015625 0.34375 40.984375 -0.53125 
Q 36.96875 -1.421875 32.421875 -1.421875 
Q 20.0625 -1.421875 12.78125 6.34375 
Q 5.515625 14.109375 5.515625 27.296875 
Q 5.515625 40.671875 12.859375 48.328125 
Q 20.21875 56 33.015625 56 
Q 37.15625 56 41.109375 55.140625 
Q 45.0625 54.296875 48.78125 52.59375 
z
" id="DejaVuSans-99"/>
       <path d="M 31 75.875 
Q 24.46875 64.65625 21.28125 53.65625 
Q 18.109375 42.671875 18.109375 31.390625 
Q 18.109375 20.125 21.3125 9.0625 
Q 24.515625 -2 31 -13.1875 
L 23.1875 -13.1875 
Q 15.875 -1.703125 12.234375 9.375 
Q 8.59375 20.453125 8.59375 31.390625 
Q 8.59375 42.28125 12.203125 53.3125 
Q 15.828125 64.359375 23.1875 75.875 
z
" id="DejaVuSans-40"/>
       <path d="M 46 62.703125 
L 46 35.5 
L 73.1875 35.5 
L 73.1875 27.203125 
L 46 27.203125 
L 46 0 
L 37.796875 0 
L 37.796875 27.203125 
L 10.59375 27.203125 
L 10.59375 35.5 
L 37.796875 35.5 
L 37.796875 62.703125 
z
" id="DejaVuSans-43"/>
       <path d="M 8.203125 72.90625 
L 55.078125 72.90625 
L 55.078125 68.703125 
L 28.609375 0 
L 18.3125 0 
L 43.21875 64.59375 
L 8.203125 64.59375 
z
" id="DejaVuSans-55"/>
       <path d="M 8.015625 75.875 
L 15.828125 75.875 
Q 23.140625 64.359375 26.78125 53.3125 
Q 30.421875 42.28125 30.421875 31.390625 
Q 30.421875 20.453125 26.78125 9.375 
Q 23.140625 -1.703125 15.828125 -13.1875 
L 8.015625 -13.1875 
Q 14.5 -2 17.703125 9.0625 
Q 20.90625 20.125 20.90625 31.390625 
Q 20.90625 42.671875 17.703125 53.65625 
Q 14.5 64.65625 8.015625 75.875 
z
" id="DejaVuSans-41"/>
      </defs>
      <use xlink:href="#DejaVuSans-100"/>
      <use x="63.476562" xlink:href="#DejaVuSans-97"/>
      <use x="124.755859" xlink:href="#DejaVuSans-105"/>
      <use x="152.539062" xlink:href="#DejaVuSans-108"/>
      <use x="180.322266" xlink:href="#DejaVuSans-121"/>
      <use x="239.501953" xlink:href="#DejaVuSans-95"/>
      <use x="289.501953" xlink:href="#DejaVuSans-99"/>
      <use x="344.482422" xlink:href="#DejaVuSans-97"/>
      <use x="405.761719" xlink:href="#DejaVuSans-115"/>
      <use x="457.861328" xlink:href="#DejaVuSans-101"/>
      <use x="519.384766" xlink:href="#DejaVuSans-115"/>
      <use x="571.484375" xlink:href="#DejaVuSans-95"/>
      <use x="621.484375" xlink:href="#DejaVuSans-40"/>
      <use x="660.498047" xlink:href="#DejaVuSans-116"/>
      <use x="699.707031" xlink:href="#DejaVuSans-43"/>
      <use x="783.496094" xlink:href="#DejaVuSans-55"/>
      <use x="847.119141" xlink:href="#DejaVuSans-41"/>
     </g>
    </g>
   </g>
   <g id="line2d_10">
    <path clip-path="url(#pcc289ddb46)" d="M 111.436193 168.609677 
L 113.429669 168.987273 
L 119.410095 168.987273 
L 121.403571 165.96651 
L 123.397046 164.456129 
L 125.390522 162.568152 
L 127.383997 165.588915 
L 129.377473 167.854487 
L 131.370948 162.568152 
L 135.357899 148.219531 
L 137.351375 146.70915 
L 139.34485 143.310792 
L 143.331801 140.290029 
L 145.325277 135.758886 
L 147.318752 101.020117 
L 149.312228 114.991144 
L 151.305704 131.982933 
L 153.299179 136.891672 
L 155.292655 136.136481 
L 157.28613 147.086745 
L 159.279606 147.46434 
L 161.273081 154.638651 
L 163.266557 141.422815 
L 165.260032 142.933196 
L 167.253508 153.88346 
L 169.246983 158.414604 
L 171.240459 156.904223 
L 173.233934 141.422815 
L 175.22741 146.331554 
L 177.220885 155.016246 
L 179.214361 143.310792 
L 181.207836 159.169795 
L 183.201312 151.240293 
L 185.194787 164.078534 
L 187.188263 156.526628 
L 189.181738 159.54739 
L 191.175214 146.331554 
L 193.168689 154.638651 
L 195.162165 149.352317 
L 197.15564 153.88346 
L 199.149116 156.904223 
L 201.142591 154.261056 
L 203.136067 148.974721 
L 205.129542 144.821173 
L 207.123018 154.638651 
L 209.116493 162.945748 
L 211.109969 160.302581 
L 213.103444 154.261056 
L 215.09692 150.107507 
L 217.090396 144.065982 
L 219.083871 151.617889 
L 221.077347 158.037009 
L 223.070822 166.721701 
L 225.064298 168.232082 
L 227.057773 164.456129 
L 229.051249 158.792199 
L 231.044724 163.323343 
L 233.0382 156.526628 
L 235.031675 166.344106 
L 237.025151 167.854487 
L 239.018626 168.609677 
L 241.012102 162.568152 
L 243.005577 161.812962 
L 244.999053 165.588915 
L 246.992528 161.435367 
L 248.986004 165.588915 
L 250.979479 167.854487 
L 252.972955 167.854487 
L 254.96643 165.96651 
L 256.959906 167.099296 
L 258.953381 165.588915 
L 260.946857 167.099296 
L 262.940332 165.96651 
L 264.933808 168.232082 
L 266.927283 168.987273 
L 268.920759 166.344106 
L 270.914234 167.854487 
L 272.90771 163.700938 
L 274.901185 167.476891 
L 276.894661 165.96651 
L 278.888137 168.232082 
L 280.881612 168.232082 
L 282.875088 167.476891 
L 284.868563 165.96651 
L 286.862039 167.476891 
L 288.855514 166.721701 
L 290.84899 167.099296 
L 292.842465 168.987273 
L 294.835941 168.232082 
L 296.829416 165.96651 
L 298.822892 168.232082 
L 300.816367 167.099296 
L 302.809843 167.099296 
L 304.803318 165.21132 
L 306.796794 168.232082 
L 308.790269 168.609677 
L 310.783745 166.344106 
L 312.77722 167.476891 
L 314.770696 163.700938 
L 316.764171 163.323343 
L 318.757647 164.456129 
L 320.751122 168.609677 
L 322.744598 166.721701 
L 324.738073 164.456129 
L 326.731549 166.344106 
L 328.725024 158.792199 
L 330.7185 165.96651 
L 332.711975 164.833724 
L 334.705451 166.721701 
L 336.698926 168.987273 
L 338.692402 166.721701 
L 340.685878 164.078534 
L 342.679353 166.344106 
L 344.672829 166.344106 
L 346.666304 165.96651 
L 348.65978 168.609677 
L 350.653255 168.987273 
L 352.646731 167.476891 
L 354.640206 167.099296 
L 356.633682 164.833724 
L 358.627157 167.476891 
L 360.620633 167.854487 
L 362.614108 168.987273 
L 364.607584 167.854487 
L 366.601059 168.232082 
L 368.594535 166.344106 
L 370.58801 165.588915 
L 372.581486 167.476891 
L 374.574961 166.344106 
L 376.568437 165.96651 
L 378.561912 161.057771 
L 380.555388 164.078534 
L 382.548863 168.232082 
L 386.535814 163.700938 
L 388.52929 164.456129 
L 390.522765 166.721701 
L 392.516241 167.099296 
L 394.509716 164.078534 
L 396.503192 168.609677 
L 398.496667 166.721701 
L 400.490143 154.638651 
L 402.483619 161.435367 
L 404.477094 159.924985 
L 406.47057 161.057771 
L 408.464045 153.505865 
L 410.457521 154.261056 
L 412.450996 161.057771 
L 414.444472 153.12827 
L 416.437947 156.526628 
L 418.431423 157.281818 
L 420.424898 157.659413 
L 422.418374 162.568152 
L 424.411849 144.065982 
L 426.405325 151.240293 
L 428.3988 144.821173 
L 430.392276 137.269267 
L 434.379227 153.12827 
L 436.372702 161.812962 
L 438.366178 149.729912 
L 440.359653 150.107507 
L 442.353129 143.310792 
L 444.346604 130.094956 
L 446.34008 140.667625 
L 448.333555 155.016246 
L 450.327031 148.597126 
L 452.320506 136.891672 
L 454.313982 134.248504 
L 456.307457 133.493314 
L 458.300933 120.277478 
L 460.294408 125.941408 
L 462.287884 143.688387 
L 464.28136 144.443578 
L 466.274835 125.186217 
L 468.268311 130.472551 
L 470.261786 114.235953 
L 472.255262 120.655073 
L 474.248737 124.053431 
L 476.242213 146.331554 
L 480.229164 128.584575 
L 482.222639 101.397713 
L 484.216115 111.592786 
L 486.20959 125.563812 
L 488.203066 122.920645 
L 490.196541 127.829384 
L 492.190017 136.891672 
L 494.183492 138.779648 
L 496.176968 123.675836 
L 498.170443 144.821173 
L 500.163919 127.829384 
L 502.157394 139.912434 
L 504.15087 147.841935 
L 506.144345 143.310792 
L 508.137821 141.800411 
L 510.131296 145.953959 
L 512.124772 147.46434 
L 514.118247 140.667625 
L 516.111723 148.219531 
L 518.105198 159.54739 
L 520.098674 140.667625 
L 522.092149 156.149032 
L 524.085625 151.617889 
L 526.079101 151.617889 
L 528.072576 144.065982 
L 530.066052 156.904223 
L 532.059527 145.953959 
L 534.053003 153.505865 
L 536.046478 151.617889 
L 538.039954 154.261056 
L 540.033429 156.526628 
L 542.026905 143.310792 
L 544.02038 142.555601 
L 546.013856 155.771437 
L 548.007331 151.995484 
L 550.000807 141.422815 
L 551.994282 145.953959 
L 553.987758 136.891672 
L 555.981233 130.472551 
L 557.974709 110.46 
L 559.968184 150.862698 
L 561.96166 133.870909 
L 563.955135 108.949619 
L 565.948611 88.181877 
L 567.942086 124.431026 
L 569.935562 99.132141 
L 571.929037 103.285689 
L 573.922513 107.061642 
L 575.915988 118.011906 
L 577.909464 103.663284 
L 579.902939 93.090616 
L 581.896415 100.264927 
L 583.88989 105.551261 
L 585.883366 94.978592 
L 587.876842 114.235953 
L 589.870317 87.426686 
L 591.863793 79.497185 
L 593.857268 109.704809 
L 595.850744 51.932727 
L 597.844219 83.273138 
L 599.837695 101.020117 
L 601.83117 79.87478 
L 603.824646 83.650733 
L 605.818121 72.322874 
L 607.811597 70.812493 
L 609.805072 82.895543 
L 611.798548 90.069853 
L 613.792023 96.111378 
L 615.785499 119.899883 
L 617.778974 77.986804 
L 619.77245 63.260587 
L 621.765925 78.364399 
L 623.759401 105.928856 
L 625.752876 104.79607 
L 627.746352 111.970381 
L 629.739827 137.269267 
L 631.733303 118.389501 
L 633.726778 118.767097 
L 635.720254 123.29824 
L 637.713729 129.339765 
L 639.707205 118.011906 
L 641.70068 136.136481 
L 643.694156 135.38129 
L 645.687631 128.96217 
L 647.681107 92.713021 
L 649.674583 123.675836 
L 651.668058 109.327214 
L 653.661534 118.011906 
L 655.655009 120.277478 
L 657.648485 147.086745 
L 659.64196 139.157243 
L 661.635436 135.758886 
L 663.628911 151.240293 
L 665.622387 127.451789 
L 667.615862 139.912434 
L 669.609338 148.219531 
L 671.602813 138.402053 
L 673.596289 141.04522 
L 675.589764 136.136481 
L 677.58324 138.024457 
L 679.576715 140.667625 
L 681.570191 141.422815 
L 683.563666 156.904223 
L 685.557142 149.729912 
L 687.550617 144.821173 
L 689.544093 145.576364 
L 691.537568 138.402053 
L 693.531044 146.70915 
L 695.524519 143.688387 
L 697.517995 144.443578 
L 699.51147 141.422815 
L 701.504946 141.800411 
L 703.498421 125.563812 
L 705.491897 126.319003 
L 707.485372 153.12827 
L 709.478848 113.103167 
L 711.472324 128.584575 
L 713.465799 136.514076 
L 715.459275 121.032669 
L 717.45275 118.767097 
L 721.439701 112.725572 
L 723.433177 125.941408 
L 725.426652 112.725572 
L 727.420128 124.431026 
L 729.413603 90.069853 
L 731.407079 119.899883 
L 733.400554 99.132141 
L 735.39403 115.746334 
L 737.387505 99.132141 
L 739.380981 112.725572 
L 741.374456 121.787859 
L 743.367932 124.053431 
L 745.361407 90.825044 
L 747.354883 90.447449 
L 749.348358 93.845806 
L 751.341834 93.468211 
L 753.335309 105.173666 
L 755.328785 131.227742 
L 757.32226 104.04088 
L 759.315736 118.767097 
L 761.309211 92.335425 
L 763.302687 110.082405 
L 765.296162 96.488974 
L 767.289638 122.920645 
L 769.283113 139.157243 
L 771.276589 114.613548 
L 773.270065 113.858358 
L 775.26354 123.675836 
L 777.257016 116.87912 
L 779.250491 131.605337 
L 781.243967 143.310792 
L 783.237442 147.086745 
L 785.230918 130.850147 
L 787.224393 128.96217 
L 789.217869 128.206979 
L 791.211344 144.443578 
L 793.20482 137.646862 
L 795.198295 164.078534 
L 797.191771 133.870909 
L 799.185246 131.227742 
L 801.178722 142.555601 
L 803.172197 149.352317 
L 805.165673 140.667625 
L 807.159148 140.667625 
L 809.152624 150.862698 
L 811.146099 151.240293 
L 813.139575 145.198768 
L 815.13305 147.841935 
L 817.126526 147.086745 
L 819.120001 152.373079 
L 821.113477 148.219531 
L 823.106952 157.281818 
L 825.100428 154.261056 
L 827.093903 154.261056 
L 829.087379 150.862698 
L 831.080854 155.016246 
L 833.07433 152.750674 
L 835.067806 159.169795 
L 837.061281 154.261056 
L 839.054757 152.373079 
L 841.048232 158.792199 
L 843.041708 150.862698 
L 845.035183 152.373079 
L 847.028659 154.261056 
L 849.022134 151.995484 
L 851.01561 151.617889 
L 853.009085 159.169795 
L 855.002561 148.597126 
L 856.996036 153.12827 
L 858.989512 150.107507 
L 860.982987 155.393842 
L 862.976463 155.016246 
L 864.969938 148.597126 
L 866.963414 163.323343 
L 868.956889 149.352317 
L 870.950365 150.107507 
L 872.94384 152.750674 
L 874.937316 140.290029 
L 876.930791 153.12827 
L 878.924267 158.037009 
L 880.917742 144.443578 
L 882.911218 145.576364 
L 884.904693 144.065982 
L 886.898169 145.198768 
L 888.891644 148.219531 
L 890.88512 141.422815 
L 892.878595 148.974721 
L 894.872071 153.88346 
L 896.865546 147.46434 
L 898.859022 144.443578 
L 900.852498 145.576364 
L 902.845973 130.850147 
L 904.839449 147.841935 
L 906.832924 134.248504 
L 908.8264 135.758886 
L 910.819875 130.472551 
L 912.813351 139.157243 
L 914.806826 144.065982 
L 916.800302 118.389501 
L 918.793777 130.472551 
L 920.787253 135.758886 
L 922.780728 124.053431 
L 924.774204 127.829384 
L 926.767679 135.003695 
L 928.761155 128.584575 
L 930.75463 124.053431 
L 932.748106 109.704809 
L 934.741581 139.912434 
L 936.735057 141.800411 
L 936.735057 141.800411 
" style="fill:none;stroke:#0000ff;stroke-linecap:square;stroke-width:1.5;"/>
   </g>
   <g id="line2d_11">
    <path clip-path="url(#pcc289ddb46)" d="M 111.436193 164.774104 
L 113.429669 164.774104 
L 115.423144 142.31712 
L 117.41662 164.774104 
L 121.403571 164.774104 
L 123.397046 152.353206 
L 125.390522 154.718145 
L 127.383997 164.774104 
L 131.370948 164.774104 
L 133.364424 164.933092 
L 135.357899 158.295363 
L 137.351375 152.353206 
L 139.34485 151.299914 
L 141.338326 157.818401 
L 143.331801 163.740685 
L 145.325277 150.743457 
L 147.318752 140.210536 
L 149.312228 139.355978 
L 151.305704 139.594459 
L 153.299179 136.434582 
L 155.292655 136.335215 
L 157.28613 136.355089 
L 159.279606 138.342432 
L 161.273081 125.981154 
L 163.266557 134.74534 
L 165.260032 135.440911 
L 167.253508 149.749785 
L 169.246983 153.168017 
L 171.240459 152.313459 
L 173.233934 152.49232 
L 177.220885 153.625106 
L 179.214361 154.002701 
L 183.201312 153.585359 
L 185.194787 153.625106 
L 187.188263 153.784093 
L 191.175214 153.784093 
L 193.168689 153.625106 
L 195.162165 153.962954 
L 197.15564 153.625106 
L 199.149116 156.42726 
L 201.142591 155.890678 
L 203.136067 155.890678 
L 205.129542 158.037009 
L 207.123018 157.06321 
L 209.116493 157.321565 
L 211.109969 154.380296 
L 213.103444 158.037009 
L 215.09692 158.27549 
L 217.090396 158.792199 
L 219.083871 161.177012 
L 221.077347 161.276379 
L 223.070822 156.407387 
L 225.064298 156.347767 
L 227.057773 161.375746 
L 229.051249 161.276379 
L 231.044724 162.011696 
L 233.0382 161.355873 
L 235.031675 163.621445 
L 237.025151 162.508532 
L 239.018626 165.926763 
L 241.012102 162.03157 
L 243.005577 164.217648 
L 244.999053 164.217648 
L 246.992528 163.204102 
L 248.986004 164.69461 
L 250.979479 165.27094 
L 252.972955 166.60246 
L 254.96643 165.887017 
L 256.959906 165.529295 
L 260.946857 166.046004 
L 262.940332 165.728029 
L 264.933808 164.615117 
L 266.927283 165.310687 
L 268.920759 166.185118 
L 270.914234 165.469674 
L 272.90771 164.933092 
L 274.901185 165.469674 
L 276.894661 165.588915 
L 278.888137 165.27094 
L 280.881612 166.284485 
L 282.875088 165.887017 
L 284.868563 166.363979 
L 286.862039 165.628662 
L 290.84899 166.046004 
L 292.842465 164.992712 
L 294.835941 166.463346 
L 296.829416 166.244738 
L 298.822892 165.449801 
L 300.816367 165.887017 
L 304.803318 165.092079 
L 306.796794 164.774104 
L 308.790269 166.046004 
L 314.770696 165.529295 
L 316.764171 165.887017 
L 318.757647 165.887017 
L 320.751122 164.476002 
L 322.744598 165.688282 
L 324.738073 165.867143 
L 326.731549 164.873471 
L 328.725024 165.728029 
L 330.7185 166.026131 
L 332.711975 165.131826 
L 334.705451 164.774104 
L 336.698926 166.204992 
L 338.692402 166.284485 
L 340.685878 164.217648 
L 342.679353 163.025242 
L 344.672829 165.012585 
L 346.666304 164.535623 
L 348.65978 164.992712 
L 350.653255 164.615117 
L 352.646731 165.370307 
L 354.640206 163.462457 
L 356.633682 163.184229 
L 358.627157 165.21132 
L 360.620633 164.118281 
L 364.607584 166.403726 
L 366.601059 166.264612 
L 368.594535 165.33056 
L 370.58801 164.933092 
L 372.581486 165.33056 
L 374.574961 164.674737 
L 376.568437 165.549168 
L 378.561912 165.111952 
L 380.555388 166.224865 
L 382.548863 164.515749 
L 384.542339 164.992712 
L 386.535814 165.21132 
L 388.52929 165.032459 
L 390.522765 164.992712 
L 392.516241 163.899673 
L 394.509716 164.515749 
L 396.503192 164.813851 
L 398.496667 164.416382 
L 400.490143 164.535623 
L 402.483619 164.813851 
L 404.477094 164.535623 
L 406.47057 164.376635 
L 408.464045 164.356762 
L 410.457521 165.27094 
L 412.450996 163.919546 
L 414.444472 161.256506 
L 416.437947 164.018913 
L 418.431423 162.230304 
L 420.424898 163.164356 
L 422.418374 157.957515 
L 424.411849 156.824729 
L 426.405325 158.871693 
L 428.3988 157.122831 
L 430.392276 157.301692 
L 432.385751 156.407387 
L 434.379227 160.779543 
L 436.372702 159.706378 
L 438.366178 138.700154 
L 440.359653 140.071422 
L 442.353129 141.899778 
L 444.346604 137.766103 
L 446.34008 138.680281 
L 448.333555 142.595348 
L 450.327031 146.053326 
L 452.320506 134.228631 
L 454.313982 133.592681 
L 456.307457 137.487875 
L 458.300933 133.075972 
L 460.294408 136.732684 
L 462.287884 142.138259 
L 464.28136 139.813067 
L 466.274835 130.134703 
L 468.268311 131.406603 
L 470.261786 128.703815 
L 472.255262 128.644195 
L 474.248737 129.975715 
L 476.242213 140.131042 
L 480.229164 126.497864 
L 482.222639 130.055209 
L 484.216115 132.618883 
L 488.203066 126.716472 
L 490.196541 138.879015 
L 492.190017 134.129264 
L 494.183492 136.931418 
L 496.176968 120.05887 
L 498.170443 128.226853 
L 500.163919 134.884454 
L 502.157394 119.30368 
L 504.15087 125.08685 
L 506.144345 130.154576 
L 508.137821 134.208758 
L 510.131296 132.440022 
L 512.124772 137.090406 
L 516.111723 135.838379 
L 518.105198 138.839268 
L 520.098674 143.807628 
L 522.092149 138.660407 
L 524.085625 139.813067 
L 526.079101 139.554712 
L 528.072576 134.983822 
L 530.066052 136.931418 
L 532.059527 144.642312 
L 534.053003 136.215975 
L 536.046478 138.302686 
L 538.039954 137.507748 
L 540.033429 135.858253 
L 542.026905 133.314453 
L 544.02038 138.660407 
L 546.013856 137.547495 
L 548.007331 140.031675 
L 550.000807 142.873576 
L 551.994282 134.089517 
L 553.987758 133.135592 
L 555.981233 133.314453 
L 557.974709 134.486986 
L 559.968184 141.879904 
L 561.96166 140.429143 
L 563.955135 136.136481 
L 565.948611 137.726356 
L 567.942086 134.367745 
L 569.935562 133.234959 
L 571.929037 128.882676 
L 573.922513 138.56104 
L 575.915988 128.90255 
L 577.909464 130.730906 
L 579.902939 127.014573 
L 581.896415 130.790526 
L 583.88989 115.627094 
L 585.883366 116.581019 
L 587.876842 112.606331 
L 589.870317 114.613548 
L 591.863793 105.690375 
L 593.857268 105.551261 
L 595.850744 108.035441 
L 597.844219 104.418475 
L 599.837695 106.127591 
L 601.83117 102.927967 
L 603.824646 100.543155 
L 605.818121 101.139358 
L 607.811597 102.292017 
L 609.805072 95.554922 
L 611.798548 95.435681 
L 613.792023 102.470878 
L 615.785499 104.418475 
L 617.778974 109.088733 
L 619.77245 104.617209 
L 621.765925 104.617209 
L 623.759401 106.127591 
L 625.752876 105.31278 
L 627.746352 102.351638 
L 629.739827 101.993916 
L 633.726778 108.631644 
L 635.720254 107.796959 
L 637.713729 108.015567 
L 639.707205 105.213413 
L 641.70068 109.207973 
L 643.694156 117.733678 
L 645.687631 106.226958 
L 647.681107 114.096839 
L 649.674583 128.584575 
L 651.668058 126.040775 
L 653.661534 126.815839 
L 655.655009 122.145581 
L 657.648485 131.366856 
L 659.64196 133.692048 
L 661.635436 131.883565 
L 663.628911 126.319003 
L 665.622387 125.464445 
L 667.615862 122.960392 
L 669.609338 136.633317 
L 671.602813 136.235848 
L 673.596289 134.010023 
L 675.589764 134.04977 
L 677.58324 138.044331 
L 679.576715 132.420148 
L 681.570191 137.388507 
L 683.563666 137.885343 
L 685.557142 135.440911 
L 687.550617 141.025347 
L 689.544093 137.686609 
L 691.537568 136.59357 
L 693.531044 133.453567 
L 695.524519 132.340654 
L 697.517995 133.3542 
L 699.51147 135.659518 
L 701.504946 135.182556 
L 703.498421 134.327998 
L 705.491897 134.467112 
L 707.485372 134.725467 
L 709.478848 137.626989 
L 711.472324 137.309014 
L 713.465799 132.320781 
L 715.459275 137.110279 
L 717.45275 133.930529 
L 719.446226 136.673064 
L 721.439701 133.910656 
L 723.433177 134.367745 
L 725.426652 131.823945 
L 727.420128 134.785087 
L 729.413603 129.339765 
L 731.407079 125.424698 
L 733.400554 126.179889 
L 735.39403 122.066087 
L 737.387505 121.251276 
L 739.380981 121.867353 
L 741.374456 129.677614 
L 743.367932 127.769764 
L 745.361407 115.189878 
L 747.354883 114.812283 
L 749.348358 122.60267 
L 751.341834 116.918867 
L 753.335309 113.222408 
L 755.328785 129.717361 
L 757.32226 125.305458 
L 759.315736 116.084183 
L 763.302687 122.900772 
L 765.296162 115.825828 
L 767.289638 121.350644 
L 769.283113 125.881787 
L 771.276589 121.509631 
L 773.270065 120.535833 
L 775.26354 116.302791 
L 777.257016 116.422031 
L 779.250491 118.329881 
L 781.243967 124.39128 
L 783.237442 134.089517 
L 785.230918 119.224186 
L 787.224393 121.132036 
L 789.217869 120.178111 
L 791.211344 121.370517 
L 793.20482 125.643306 
L 795.198295 132.360528 
L 797.191771 128.862803 
L 799.185246 134.506859 
L 801.178722 142.615221 
L 803.172197 142.674842 
L 805.165673 143.926868 
L 807.159148 145.715478 
L 809.152624 143.489653 
L 811.146099 130.114829 
L 813.139575 146.271934 
L 815.13305 149.789532 
L 817.126526 150.127381 
L 819.120001 142.913323 
L 821.113477 148.060543 
L 823.106952 137.885343 
L 825.100428 141.820284 
L 827.093903 150.147254 
L 829.087379 150.226748 
L 831.080854 151.001812 
L 833.07433 151.399281 
L 835.067806 150.485103 
L 837.061281 143.489653 
L 839.054757 145.000034 
L 841.048232 150.445356 
L 843.041708 150.922318 
L 845.035183 152.412826 
L 847.028659 151.379407 
L 849.022134 151.260167 
L 851.01561 144.682059 
L 853.009085 145.695604 
L 855.002561 150.783204 
L 856.996036 150.981939 
L 858.989512 150.962065 
L 860.982987 150.504976 
L 862.976463 145.715478 
L 864.969938 145.397503 
L 866.963414 145.377629 
L 868.956889 149.113835 
L 870.950365 149.590798 
L 872.94384 149.511304 
L 874.937316 145.457123 
L 876.930791 142.476107 
L 878.924267 146.291807 
L 880.917742 144.86092 
L 882.911218 142.89345 
L 884.904693 141.760664 
L 886.898169 140.389397 
L 888.891644 139.355978 
L 890.88512 139.733573 
L 892.878595 142.595348 
L 894.872071 139.733573 
L 896.865546 137.706482 
L 898.859022 137.706482 
L 900.852498 138.024457 
L 902.845973 138.024457 
L 904.839449 138.978382 
L 906.832924 145.715478 
L 908.8264 145.914212 
L 910.819875 136.196101 
L 912.813351 136.692937 
L 914.806826 136.553823 
L 916.800302 136.096734 
L 918.793777 136.692937 
L 920.787253 143.807628 
L 922.780728 142.237626 
L 924.774204 136.196101 
L 926.767679 137.944964 
L 928.761155 136.374962 
L 930.75463 135.540278 
L 934.741581 135.639645 
L 936.735057 140.230409 
L 936.735057 140.230409 
" style="fill:none;stroke:#ff0000;stroke-linecap:square;stroke-width:1.5;"/>
   </g>
   <g id="patch_3">
    <path d="M 70.17125 174.84 
L 70.17125 46.08 
" style="fill:none;stroke:#000000;stroke-linecap:square;stroke-linejoin:miter;stroke-width:0.8;"/>
   </g>
   <g id="patch_4">
    <path d="M 978 174.84 
L 978 46.08 
" style="fill:none;stroke:#000000;stroke-linecap:square;stroke-linejoin:miter;stroke-width:0.8;"/>
   </g>
   <g id="patch_5">
    <path d="M 70.17125 174.84 
L 978 174.84 
" style="fill:none;stroke:#000000;stroke-linecap:square;stroke-linejoin:miter;stroke-width:0.8;"/>
   </g>
   <g id="patch_6">
    <path d="M 70.17125 46.08 
L 978 46.08 
" style="fill:none;stroke:#000000;stroke-linecap:square;stroke-linejoin:miter;stroke-width:0.8;"/>
   </g>
   <g id="text_12">
    <!-- K-NN fit train -->
    <g transform="translate(485.72875 40.08)scale(0.12 -0.12)">
     <defs>
      <path d="M 9.8125 72.90625 
L 19.671875 72.90625 
L 19.671875 42.09375 
L 52.390625 72.90625 
L 65.09375 72.90625 
L 28.90625 38.921875 
L 67.671875 0 
L 54.6875 0 
L 19.671875 35.109375 
L 19.671875 0 
L 9.8125 0 
z
" id="DejaVuSans-75"/>
      <path d="M 4.890625 31.390625 
L 31.203125 31.390625 
L 31.203125 23.390625 
L 4.890625 23.390625 
z
" id="DejaVuSans-45"/>
      <path d="M 9.8125 72.90625 
L 23.09375 72.90625 
L 55.421875 11.921875 
L 55.421875 72.90625 
L 64.984375 72.90625 
L 64.984375 0 
L 51.703125 0 
L 19.390625 60.984375 
L 19.390625 0 
L 9.8125 0 
z
" id="DejaVuSans-78"/>
      <path d="M 37.109375 75.984375 
L 37.109375 68.5 
L 28.515625 68.5 
Q 23.6875 68.5 21.796875 66.546875 
Q 19.921875 64.59375 19.921875 59.515625 
L 19.921875 54.6875 
L 34.71875 54.6875 
L 34.71875 47.703125 
L 19.921875 47.703125 
L 19.921875 0 
L 10.890625 0 
L 10.890625 47.703125 
L 2.296875 47.703125 
L 2.296875 54.6875 
L 10.890625 54.6875 
L 10.890625 58.5 
Q 10.890625 67.625 15.140625 71.796875 
Q 19.390625 75.984375 28.609375 75.984375 
z
" id="DejaVuSans-102"/>
      <path d="M 41.109375 46.296875 
Q 39.59375 47.171875 37.8125 47.578125 
Q 36.03125 48 33.890625 48 
Q 26.265625 48 22.1875 43.046875 
Q 18.109375 38.09375 18.109375 28.8125 
L 18.109375 0 
L 9.078125 0 
L 9.078125 54.6875 
L 18.109375 54.6875 
L 18.109375 46.1875 
Q 20.953125 51.171875 25.484375 53.578125 
Q 30.03125 56 36.53125 56 
Q 37.453125 56 38.578125 55.875 
Q 39.703125 55.765625 41.0625 55.515625 
z
" id="DejaVuSans-114"/>
      <path d="M 54.890625 33.015625 
L 54.890625 0 
L 45.90625 0 
L 45.90625 32.71875 
Q 45.90625 40.484375 42.875 44.328125 
Q 39.84375 48.1875 33.796875 48.1875 
Q 26.515625 48.1875 22.3125 43.546875 
Q 18.109375 38.921875 18.109375 30.90625 
L 18.109375 0 
L 9.078125 0 
L 9.078125 54.6875 
L 18.109375 54.6875 
L 18.109375 46.1875 
Q 21.34375 51.125 25.703125 53.5625 
Q 30.078125 56 35.796875 56 
Q 45.21875 56 50.046875 50.171875 
Q 54.890625 44.34375 54.890625 33.015625 
z
" id="DejaVuSans-110"/>
     </defs>
     <use xlink:href="#DejaVuSans-75"/>
     <use x="55.076172" xlink:href="#DejaVuSans-45"/>
     <use x="91.160156" xlink:href="#DejaVuSans-78"/>
     <use x="165.964844" xlink:href="#DejaVuSans-78"/>
     <use x="240.769531" xlink:href="#DejaVuSans-32"/>
     <use x="272.556641" xlink:href="#DejaVuSans-102"/>
     <use x="307.761719" xlink:href="#DejaVuSans-105"/>
     <use x="335.544922" xlink:href="#DejaVuSans-116"/>
     <use x="374.753906" xlink:href="#DejaVuSans-32"/>
     <use x="406.541016" xlink:href="#DejaVuSans-116"/>
     <use x="445.75" xlink:href="#DejaVuSans-114"/>
     <use x="486.863281" xlink:href="#DejaVuSans-97"/>
     <use x="548.142578" xlink:href="#DejaVuSans-105"/>
     <use x="575.925781" xlink:href="#DejaVuSans-110"/>
    </g>
   </g>
   <g id="legend_1">
    <g id="patch_7">
     <path d="M 77.17125 83.43625 
L 151.474375 83.43625 
Q 153.474375 83.43625 153.474375 81.43625 
L 153.474375 53.08 
Q 153.474375 51.08 151.474375 51.08 
L 77.17125 51.08 
Q 75.17125 51.08 75.17125 53.08 
L 75.17125 81.43625 
Q 75.17125 83.43625 77.17125 83.43625 
z
" style="fill:#ffffff;opacity:0.8;stroke:#cccccc;stroke-linejoin:miter;"/>
    </g>
    <g id="line2d_12">
     <path d="M 79.17125 59.178438 
L 99.17125 59.178438 
" style="fill:none;stroke:#0000ff;stroke-linecap:square;stroke-width:1.5;"/>
    </g>
    <g id="line2d_13"/>
    <g id="text_13">
     <!-- Data -->
     <g transform="translate(107.17125 62.678438)scale(0.1 -0.1)">
      <defs>
       <path d="M 19.671875 64.796875 
L 19.671875 8.109375 
L 31.59375 8.109375 
Q 46.6875 8.109375 53.6875 14.9375 
Q 60.6875 21.78125 60.6875 36.53125 
Q 60.6875 51.171875 53.6875 57.984375 
Q 46.6875 64.796875 31.59375 64.796875 
z
M 9.8125 72.90625 
L 30.078125 72.90625 
Q 51.265625 72.90625 61.171875 64.09375 
Q 71.09375 55.28125 71.09375 36.53125 
Q 71.09375 17.671875 61.125 8.828125 
Q 51.171875 0 30.078125 0 
L 9.8125 0 
z
" id="DejaVuSans-68"/>
      </defs>
      <use xlink:href="#DejaVuSans-68"/>
      <use x="77.001953" xlink:href="#DejaVuSans-97"/>
      <use x="138.28125" xlink:href="#DejaVuSans-116"/>
      <use x="177.490234" xlink:href="#DejaVuSans-97"/>
     </g>
    </g>
    <g id="line2d_14">
     <path d="M 79.17125 73.856563 
L 99.17125 73.856563 
" style="fill:none;stroke:#ff0000;stroke-linecap:square;stroke-width:1.5;"/>
    </g>
    <g id="line2d_15"/>
    <g id="text_14">
     <!-- Forecast -->
     <g transform="translate(107.17125 77.356563)scale(0.1 -0.1)">
      <defs>
       <path d="M 9.8125 72.90625 
L 51.703125 72.90625 
L 51.703125 64.59375 
L 19.671875 64.59375 
L 19.671875 43.109375 
L 48.578125 43.109375 
L 48.578125 34.8125 
L 19.671875 34.8125 
L 19.671875 0 
L 9.8125 0 
z
" id="DejaVuSans-70"/>
       <path d="M 30.609375 48.390625 
Q 23.390625 48.390625 19.1875 42.75 
Q 14.984375 37.109375 14.984375 27.296875 
Q 14.984375 17.484375 19.15625 11.84375 
Q 23.34375 6.203125 30.609375 6.203125 
Q 37.796875 6.203125 41.984375 11.859375 
Q 46.1875 17.53125 46.1875 27.296875 
Q 46.1875 37.015625 41.984375 42.703125 
Q 37.796875 48.390625 30.609375 48.390625 
z
M 30.609375 56 
Q 42.328125 56 49.015625 48.375 
Q 55.71875 40.765625 55.71875 27.296875 
Q 55.71875 13.875 49.015625 6.21875 
Q 42.328125 -1.421875 30.609375 -1.421875 
Q 18.84375 -1.421875 12.171875 6.21875 
Q 5.515625 13.875 5.515625 27.296875 
Q 5.515625 40.765625 12.171875 48.375 
Q 18.84375 56 30.609375 56 
z
" id="DejaVuSans-111"/>
      </defs>
      <use xlink:href="#DejaVuSans-70"/>
      <use x="53.894531" xlink:href="#DejaVuSans-111"/>
      <use x="115.076172" xlink:href="#DejaVuSans-114"/>
      <use x="153.939453" xlink:href="#DejaVuSans-101"/>
      <use x="215.462891" xlink:href="#DejaVuSans-99"/>
      <use x="270.443359" xlink:href="#DejaVuSans-97"/>
      <use x="331.722656" xlink:href="#DejaVuSans-115"/>
      <use x="383.822266" xlink:href="#DejaVuSans-116"/>
     </g>
    </g>
   </g>
  </g>
  <g id="axes_2">
   <g id="patch_8">
    <path d="M 70.17125 380.84 
L 978 380.84 
L 978 252.08 
L 70.17125 252.08 
z
" style="fill:#ffffff;"/>
   </g>
   <g id="matplotlib.axis_3">
    <g id="xtick_6">
     <g id="line2d_16">
      <g>
       <use style="stroke:#000000;stroke-width:0.8;" x="111.436193" xlink:href="#m41ba9c5323" y="380.84"/>
      </g>
     </g>
     <g id="text_15">
      <!-- 2021/04/19 -->
      <g transform="translate(82.617443 395.438437)scale(0.1 -0.1)">
       <use xlink:href="#DejaVuSans-50"/>
       <use x="63.623047" xlink:href="#DejaVuSans-48"/>
       <use x="127.246094" xlink:href="#DejaVuSans-50"/>
       <use x="190.869141" xlink:href="#DejaVuSans-49"/>
       <use x="254.492188" xlink:href="#DejaVuSans-47"/>
       <use x="288.183594" xlink:href="#DejaVuSans-48"/>
       <use x="351.806641" xlink:href="#DejaVuSans-52"/>
       <use x="415.429688" xlink:href="#DejaVuSans-47"/>
       <use x="449.121094" xlink:href="#DejaVuSans-49"/>
       <use x="512.744141" xlink:href="#DejaVuSans-57"/>
      </g>
     </g>
    </g>
    <g id="xtick_7">
     <g id="line2d_17">
      <g>
       <use style="stroke:#000000;stroke-width:0.8;" x="273.2595" xlink:href="#m41ba9c5323" y="380.84"/>
      </g>
     </g>
     <g id="text_16">
      <!-- 2021/04/29 -->
      <g transform="translate(244.44075 395.438437)scale(0.1 -0.1)">
       <use xlink:href="#DejaVuSans-50"/>
       <use x="63.623047" xlink:href="#DejaVuSans-48"/>
       <use x="127.246094" xlink:href="#DejaVuSans-50"/>
       <use x="190.869141" xlink:href="#DejaVuSans-49"/>
       <use x="254.492188" xlink:href="#DejaVuSans-47"/>
       <use x="288.183594" xlink:href="#DejaVuSans-48"/>
       <use x="351.806641" xlink:href="#DejaVuSans-52"/>
       <use x="415.429688" xlink:href="#DejaVuSans-47"/>
       <use x="449.121094" xlink:href="#DejaVuSans-50"/>
       <use x="512.744141" xlink:href="#DejaVuSans-57"/>
      </g>
     </g>
    </g>
    <g id="xtick_8">
     <g id="line2d_18">
      <g>
       <use style="stroke:#000000;stroke-width:0.8;" x="435.082806" xlink:href="#m41ba9c5323" y="380.84"/>
      </g>
     </g>
     <g id="text_17">
      <!-- 2021/05/09 -->
      <g transform="translate(406.264056 395.438437)scale(0.1 -0.1)">
       <use xlink:href="#DejaVuSans-50"/>
       <use x="63.623047" xlink:href="#DejaVuSans-48"/>
       <use x="127.246094" xlink:href="#DejaVuSans-50"/>
       <use x="190.869141" xlink:href="#DejaVuSans-49"/>
       <use x="254.492188" xlink:href="#DejaVuSans-47"/>
       <use x="288.183594" xlink:href="#DejaVuSans-48"/>
       <use x="351.806641" xlink:href="#DejaVuSans-53"/>
       <use x="415.429688" xlink:href="#DejaVuSans-47"/>
       <use x="449.121094" xlink:href="#DejaVuSans-48"/>
       <use x="512.744141" xlink:href="#DejaVuSans-57"/>
      </g>
     </g>
    </g>
    <g id="xtick_9">
     <g id="line2d_19">
      <g>
       <use style="stroke:#000000;stroke-width:0.8;" x="596.906113" xlink:href="#m41ba9c5323" y="380.84"/>
      </g>
     </g>
     <g id="text_18">
      <!-- 2021/05/19 -->
      <g transform="translate(568.087363 395.438437)scale(0.1 -0.1)">
       <use xlink:href="#DejaVuSans-50"/>
       <use x="63.623047" xlink:href="#DejaVuSans-48"/>
       <use x="127.246094" xlink:href="#DejaVuSans-50"/>
       <use x="190.869141" xlink:href="#DejaVuSans-49"/>
       <use x="254.492188" xlink:href="#DejaVuSans-47"/>
       <use x="288.183594" xlink:href="#DejaVuSans-48"/>
       <use x="351.806641" xlink:href="#DejaVuSans-53"/>
       <use x="415.429688" xlink:href="#DejaVuSans-47"/>
       <use x="449.121094" xlink:href="#DejaVuSans-49"/>
       <use x="512.744141" xlink:href="#DejaVuSans-57"/>
      </g>
     </g>
    </g>
    <g id="xtick_10">
     <g id="line2d_20">
      <g>
       <use style="stroke:#000000;stroke-width:0.8;" x="758.72942" xlink:href="#m41ba9c5323" y="380.84"/>
      </g>
     </g>
     <g id="text_19">
      <!-- 2021/05/29 -->
      <g transform="translate(729.91067 395.438437)scale(0.1 -0.1)">
       <use xlink:href="#DejaVuSans-50"/>
       <use x="63.623047" xlink:href="#DejaVuSans-48"/>
       <use x="127.246094" xlink:href="#DejaVuSans-50"/>
       <use x="190.869141" xlink:href="#DejaVuSans-49"/>
       <use x="254.492188" xlink:href="#DejaVuSans-47"/>
       <use x="288.183594" xlink:href="#DejaVuSans-48"/>
       <use x="351.806641" xlink:href="#DejaVuSans-53"/>
       <use x="415.429688" xlink:href="#DejaVuSans-47"/>
       <use x="449.121094" xlink:href="#DejaVuSans-50"/>
       <use x="512.744141" xlink:href="#DejaVuSans-57"/>
      </g>
     </g>
    </g>
    <g id="xtick_11">
     <g id="line2d_21">
      <g>
       <use style="stroke:#000000;stroke-width:0.8;" x="920.552726" xlink:href="#m41ba9c5323" y="380.84"/>
      </g>
     </g>
     <g id="text_20">
      <!-- 2021/06/08 -->
      <g transform="translate(891.733976 395.438437)scale(0.1 -0.1)">
       <use xlink:href="#DejaVuSans-50"/>
       <use x="63.623047" xlink:href="#DejaVuSans-48"/>
       <use x="127.246094" xlink:href="#DejaVuSans-50"/>
       <use x="190.869141" xlink:href="#DejaVuSans-49"/>
       <use x="254.492188" xlink:href="#DejaVuSans-47"/>
       <use x="288.183594" xlink:href="#DejaVuSans-48"/>
       <use x="351.806641" xlink:href="#DejaVuSans-54"/>
       <use x="415.429688" xlink:href="#DejaVuSans-47"/>
       <use x="449.121094" xlink:href="#DejaVuSans-48"/>
       <use x="512.744141" xlink:href="#DejaVuSans-56"/>
      </g>
     </g>
    </g>
    <g id="text_21">
     <!-- Time, t [days] -->
     <g transform="translate(489.420781 409.116562)scale(0.1 -0.1)">
      <use xlink:href="#DejaVuSans-84"/>
      <use x="57.958984" xlink:href="#DejaVuSans-105"/>
      <use x="85.742188" xlink:href="#DejaVuSans-109"/>
      <use x="183.154297" xlink:href="#DejaVuSans-101"/>
      <use x="244.677734" xlink:href="#DejaVuSans-44"/>
      <use x="276.464844" xlink:href="#DejaVuSans-32"/>
      <use x="308.251953" xlink:href="#DejaVuSans-116"/>
      <use x="347.460938" xlink:href="#DejaVuSans-32"/>
      <use x="379.248047" xlink:href="#DejaVuSans-91"/>
      <use x="418.261719" xlink:href="#DejaVuSans-100"/>
      <use x="481.738281" xlink:href="#DejaVuSans-97"/>
      <use x="543.017578" xlink:href="#DejaVuSans-121"/>
      <use x="602.197266" xlink:href="#DejaVuSans-115"/>
      <use x="654.296875" xlink:href="#DejaVuSans-93"/>
     </g>
    </g>
   </g>
   <g id="matplotlib.axis_4">
    <g id="ytick_5">
     <g id="line2d_22">
      <g>
       <use style="stroke:#000000;stroke-width:0.8;" x="70.17125" xlink:href="#m318573cb57" y="379.524271"/>
      </g>
     </g>
     <g id="text_22">
      <!-- 0 -->
      <g transform="translate(56.80875 383.323489)scale(0.1 -0.1)">
       <use xlink:href="#DejaVuSans-48"/>
      </g>
     </g>
    </g>
    <g id="ytick_6">
     <g id="line2d_23">
      <g>
       <use style="stroke:#000000;stroke-width:0.8;" x="70.17125" xlink:href="#m318573cb57" y="356.839281"/>
      </g>
     </g>
     <g id="text_23">
      <!-- 25 -->
      <g transform="translate(50.44625 360.6385)scale(0.1 -0.1)">
       <use xlink:href="#DejaVuSans-50"/>
       <use x="63.623047" xlink:href="#DejaVuSans-53"/>
      </g>
     </g>
    </g>
    <g id="ytick_7">
     <g id="line2d_24">
      <g>
       <use style="stroke:#000000;stroke-width:0.8;" x="70.17125" xlink:href="#m318573cb57" y="334.154292"/>
      </g>
     </g>
     <g id="text_24">
      <!-- 50 -->
      <g transform="translate(50.44625 337.953511)scale(0.1 -0.1)">
       <use xlink:href="#DejaVuSans-53"/>
       <use x="63.623047" xlink:href="#DejaVuSans-48"/>
      </g>
     </g>
    </g>
    <g id="ytick_8">
     <g id="line2d_25">
      <g>
       <use style="stroke:#000000;stroke-width:0.8;" x="70.17125" xlink:href="#m318573cb57" y="311.469302"/>
      </g>
     </g>
     <g id="text_25">
      <!-- 75 -->
      <g transform="translate(50.44625 315.268521)scale(0.1 -0.1)">
       <use xlink:href="#DejaVuSans-55"/>
       <use x="63.623047" xlink:href="#DejaVuSans-53"/>
      </g>
     </g>
    </g>
    <g id="ytick_9">
     <g id="line2d_26">
      <g>
       <use style="stroke:#000000;stroke-width:0.8;" x="70.17125" xlink:href="#m318573cb57" y="288.784313"/>
      </g>
     </g>
     <g id="text_26">
      <!-- 100 -->
      <g transform="translate(44.08375 292.583532)scale(0.1 -0.1)">
       <use xlink:href="#DejaVuSans-49"/>
       <use x="63.623047" xlink:href="#DejaVuSans-48"/>
       <use x="127.246094" xlink:href="#DejaVuSans-48"/>
      </g>
     </g>
    </g>
    <g id="ytick_10">
     <g id="line2d_27">
      <g>
       <use style="stroke:#000000;stroke-width:0.8;" x="70.17125" xlink:href="#m318573cb57" y="266.099323"/>
      </g>
     </g>
     <g id="text_27">
      <!-- 125 -->
      <g transform="translate(44.08375 269.898542)scale(0.1 -0.1)">
       <use xlink:href="#DejaVuSans-49"/>
       <use x="63.623047" xlink:href="#DejaVuSans-50"/>
       <use x="127.246094" xlink:href="#DejaVuSans-53"/>
      </g>
     </g>
    </g>
    <g id="text_28">
     <!-- daily_cases_(t+7) -->
     <g transform="translate(37.725937 360.767812)rotate(-90)scale(0.1 -0.1)">
      <use xlink:href="#DejaVuSans-100"/>
      <use x="63.476562" xlink:href="#DejaVuSans-97"/>
      <use x="124.755859" xlink:href="#DejaVuSans-105"/>
      <use x="152.539062" xlink:href="#DejaVuSans-108"/>
      <use x="180.322266" xlink:href="#DejaVuSans-121"/>
      <use x="239.501953" xlink:href="#DejaVuSans-95"/>
      <use x="289.501953" xlink:href="#DejaVuSans-99"/>
      <use x="344.482422" xlink:href="#DejaVuSans-97"/>
      <use x="405.761719" xlink:href="#DejaVuSans-115"/>
      <use x="457.861328" xlink:href="#DejaVuSans-101"/>
      <use x="519.384766" xlink:href="#DejaVuSans-115"/>
      <use x="571.484375" xlink:href="#DejaVuSans-95"/>
      <use x="621.484375" xlink:href="#DejaVuSans-40"/>
      <use x="660.498047" xlink:href="#DejaVuSans-116"/>
      <use x="699.707031" xlink:href="#DejaVuSans-43"/>
      <use x="783.496094" xlink:href="#DejaVuSans-55"/>
      <use x="847.119141" xlink:href="#DejaVuSans-41"/>
     </g>
    </g>
   </g>
   <g id="line2d_28">
    <path clip-path="url(#p1897bb01e2)" d="M 111.436193 260.654926 
L 127.618524 299.673108 
L 143.800855 288.784313 
L 159.983185 257.932727 
L 176.165516 279.710317 
L 192.347846 312.376702 
L 208.530177 279.710317 
L 224.712508 304.210106 
L 240.894838 316.0063 
L 257.077169 316.9137 
L 273.2595 315.098901 
L 289.44183 334.154292 
L 305.624161 332.339493 
L 321.806492 333.246892 
L 337.988822 333.246892 
L 354.171153 337.78389 
L 370.353484 336.87649 
L 386.535814 336.87649 
L 402.718145 361.376279 
L 418.900476 354.117082 
L 435.082806 355.931882 
L 451.265137 343.228288 
L 467.447468 344.135687 
L 483.629798 355.931882 
L 499.812129 352.302283 
L 515.99446 333.246892 
L 532.17679 356.839281 
L 548.359121 355.024482 
L 564.541452 340.506089 
L 580.723782 350.487484 
L 596.906113 335.061691 
L 613.088444 340.506089 
L 629.270774 362.283679 
L 645.453105 348.672685 
L 661.635436 345.950486 
L 677.817766 350.487484 
L 694.000097 332.339493 
L 710.182428 358.65408 
L 726.364758 345.043087 
L 742.547089 349.580085 
L 758.72942 354.117082 
L 774.91175 371.357674 
L 791.094081 355.024482 
L 807.276412 350.487484 
L 823.458742 363.191078 
L 839.641073 357.746681 
L 855.823404 356.839281 
L 872.005734 374.987273 
L 888.188065 348.672685 
L 904.370395 351.394884 
L 920.552726 355.931882 
L 936.735057 350.487484 
" style="fill:none;stroke:#0000ff;stroke-linecap:square;stroke-width:1.5;"/>
   </g>
   <g id="line2d_29">
    <path clip-path="url(#p1897bb01e2)" d="M 111.436193 299.338803 
L 127.618524 299.338803 
L 143.800855 299.147771 
L 159.983185 299.147771 
L 176.165516 299.147771 
L 192.347846 296.616604 
L 208.530177 290.312565 
L 224.712508 299.147771 
L 240.894838 299.147771 
L 257.077169 299.338803 
L 273.2595 299.147771 
L 289.44183 299.147771 
L 305.624161 283.435431 
L 321.806492 285.918841 
L 337.988822 300.723781 
L 354.171153 299.816381 
L 370.353484 299.816381 
L 386.535814 299.816381 
L 402.718145 299.816381 
L 418.900476 305.117505 
L 435.082806 319.683656 
L 451.265137 299.816381 
L 467.447468 299.816381 
L 483.629798 299.816381 
L 499.812129 299.816381 
L 515.99446 299.816381 
L 532.17679 321.785003 
L 548.359121 327.89801 
L 564.541452 299.816381 
L 580.723782 299.816381 
L 596.906113 299.816381 
L 613.088444 299.816381 
L 629.270774 299.816381 
L 645.453105 330.476936 
L 661.635436 324.98478 
L 677.817766 299.816381 
L 694.000097 299.816381 
L 710.182428 299.816381 
L 726.364758 299.816381 
L 742.547089 299.816381 
L 758.72942 323.838591 
L 774.91175 325.844422 
L 791.094081 299.816381 
L 807.276412 299.816381 
L 823.458742 299.816381 
L 839.641073 299.816381 
L 855.823404 299.816381 
L 872.005734 324.98478 
L 888.188065 324.98478 
L 904.370395 299.816381 
L 920.552726 299.816381 
L 936.735057 299.816381 
" style="fill:none;stroke:#ff0000;stroke-linecap:square;stroke-width:1.5;"/>
   </g>
   <g id="patch_9">
    <path d="M 70.17125 380.84 
L 70.17125 252.08 
" style="fill:none;stroke:#000000;stroke-linecap:square;stroke-linejoin:miter;stroke-width:0.8;"/>
   </g>
   <g id="patch_10">
    <path d="M 978 380.84 
L 978 252.08 
" style="fill:none;stroke:#000000;stroke-linecap:square;stroke-linejoin:miter;stroke-width:0.8;"/>
   </g>
   <g id="patch_11">
    <path d="M 70.17125 380.84 
L 978 380.84 
" style="fill:none;stroke:#000000;stroke-linecap:square;stroke-linejoin:miter;stroke-width:0.8;"/>
   </g>
   <g id="patch_12">
    <path d="M 70.17125 252.08 
L 978 252.08 
" style="fill:none;stroke:#000000;stroke-linecap:square;stroke-linejoin:miter;stroke-width:0.8;"/>
   </g>
   <g id="text_29">
    <!-- K-NN fit val -->
    <g transform="translate(490.79875 246.08)scale(0.12 -0.12)">
     <defs>
      <path d="M 2.984375 54.6875 
L 12.5 54.6875 
L 29.59375 8.796875 
L 46.6875 54.6875 
L 56.203125 54.6875 
L 35.6875 0 
L 23.484375 0 
z
" id="DejaVuSans-118"/>
     </defs>
     <use xlink:href="#DejaVuSans-75"/>
     <use x="55.076172" xlink:href="#DejaVuSans-45"/>
     <use x="91.160156" xlink:href="#DejaVuSans-78"/>
     <use x="165.964844" xlink:href="#DejaVuSans-78"/>
     <use x="240.769531" xlink:href="#DejaVuSans-32"/>
     <use x="272.556641" xlink:href="#DejaVuSans-102"/>
     <use x="307.761719" xlink:href="#DejaVuSans-105"/>
     <use x="335.544922" xlink:href="#DejaVuSans-116"/>
     <use x="374.753906" xlink:href="#DejaVuSans-32"/>
     <use x="406.541016" xlink:href="#DejaVuSans-118"/>
     <use x="465.720703" xlink:href="#DejaVuSans-97"/>
     <use x="527" xlink:href="#DejaVuSans-108"/>
    </g>
   </g>
   <g id="legend_2">
    <g id="patch_13">
     <path d="M 77.17125 289.43625 
L 151.474375 289.43625 
Q 153.474375 289.43625 153.474375 287.43625 
L 153.474375 259.08 
Q 153.474375 257.08 151.474375 257.08 
L 77.17125 257.08 
Q 75.17125 257.08 75.17125 259.08 
L 75.17125 287.43625 
Q 75.17125 289.43625 77.17125 289.43625 
z
" style="fill:#ffffff;opacity:0.8;stroke:#cccccc;stroke-linejoin:miter;"/>
    </g>
    <g id="line2d_30">
     <path d="M 79.17125 265.178437 
L 99.17125 265.178437 
" style="fill:none;stroke:#0000ff;stroke-linecap:square;stroke-width:1.5;"/>
    </g>
    <g id="line2d_31"/>
    <g id="text_30">
     <!-- Data -->
     <g transform="translate(107.17125 268.678437)scale(0.1 -0.1)">
      <use xlink:href="#DejaVuSans-68"/>
      <use x="77.001953" xlink:href="#DejaVuSans-97"/>
      <use x="138.28125" xlink:href="#DejaVuSans-116"/>
      <use x="177.490234" xlink:href="#DejaVuSans-97"/>
     </g>
    </g>
    <g id="line2d_32">
     <path d="M 79.17125 279.856562 
L 99.17125 279.856562 
" style="fill:none;stroke:#ff0000;stroke-linecap:square;stroke-width:1.5;"/>
    </g>
    <g id="line2d_33"/>
    <g id="text_31">
     <!-- Forecast -->
     <g transform="translate(107.17125 283.356562)scale(0.1 -0.1)">
      <use xlink:href="#DejaVuSans-70"/>
      <use x="53.894531" xlink:href="#DejaVuSans-111"/>
      <use x="115.076172" xlink:href="#DejaVuSans-114"/>
      <use x="153.939453" xlink:href="#DejaVuSans-101"/>
      <use x="215.462891" xlink:href="#DejaVuSans-99"/>
      <use x="270.443359" xlink:href="#DejaVuSans-97"/>
      <use x="331.722656" xlink:href="#DejaVuSans-115"/>
      <use x="383.822266" xlink:href="#DejaVuSans-116"/>
     </g>
    </g>
   </g>
  </g>
  <g id="axes_3">
   <g id="patch_14">
    <path d="M 70.17125 586.84 
L 978 586.84 
L 978 458.08 
L 70.17125 458.08 
z
" style="fill:#ffffff;"/>
   </g>
   <g id="matplotlib.axis_5">
    <g id="xtick_12">
     <g id="line2d_34">
      <g>
       <use style="stroke:#000000;stroke-width:0.8;" x="111.436193" xlink:href="#m41ba9c5323" y="586.84"/>
      </g>
     </g>
     <g id="text_32">
      <!-- 2021/06/10 -->
      <g transform="translate(82.617443 601.438437)scale(0.1 -0.1)">
       <use xlink:href="#DejaVuSans-50"/>
       <use x="63.623047" xlink:href="#DejaVuSans-48"/>
       <use x="127.246094" xlink:href="#DejaVuSans-50"/>
       <use x="190.869141" xlink:href="#DejaVuSans-49"/>
       <use x="254.492188" xlink:href="#DejaVuSans-47"/>
       <use x="288.183594" xlink:href="#DejaVuSans-48"/>
       <use x="351.806641" xlink:href="#DejaVuSans-54"/>
       <use x="415.429688" xlink:href="#DejaVuSans-47"/>
       <use x="449.121094" xlink:href="#DejaVuSans-49"/>
       <use x="512.744141" xlink:href="#DejaVuSans-48"/>
      </g>
     </g>
    </g>
    <g id="xtick_13">
     <g id="line2d_35">
      <g>
       <use style="stroke:#000000;stroke-width:0.8;" x="273.2595" xlink:href="#m41ba9c5323" y="586.84"/>
      </g>
     </g>
     <g id="text_33">
      <!-- 2021/06/20 -->
      <g transform="translate(244.44075 601.438437)scale(0.1 -0.1)">
       <use xlink:href="#DejaVuSans-50"/>
       <use x="63.623047" xlink:href="#DejaVuSans-48"/>
       <use x="127.246094" xlink:href="#DejaVuSans-50"/>
       <use x="190.869141" xlink:href="#DejaVuSans-49"/>
       <use x="254.492188" xlink:href="#DejaVuSans-47"/>
       <use x="288.183594" xlink:href="#DejaVuSans-48"/>
       <use x="351.806641" xlink:href="#DejaVuSans-54"/>
       <use x="415.429688" xlink:href="#DejaVuSans-47"/>
       <use x="449.121094" xlink:href="#DejaVuSans-50"/>
       <use x="512.744141" xlink:href="#DejaVuSans-48"/>
      </g>
     </g>
    </g>
    <g id="xtick_14">
     <g id="line2d_36">
      <g>
       <use style="stroke:#000000;stroke-width:0.8;" x="435.082806" xlink:href="#m41ba9c5323" y="586.84"/>
      </g>
     </g>
     <g id="text_34">
      <!-- 2021/06/30 -->
      <g transform="translate(406.264056 601.438437)scale(0.1 -0.1)">
       <use xlink:href="#DejaVuSans-50"/>
       <use x="63.623047" xlink:href="#DejaVuSans-48"/>
       <use x="127.246094" xlink:href="#DejaVuSans-50"/>
       <use x="190.869141" xlink:href="#DejaVuSans-49"/>
       <use x="254.492188" xlink:href="#DejaVuSans-47"/>
       <use x="288.183594" xlink:href="#DejaVuSans-48"/>
       <use x="351.806641" xlink:href="#DejaVuSans-54"/>
       <use x="415.429688" xlink:href="#DejaVuSans-47"/>
       <use x="449.121094" xlink:href="#DejaVuSans-51"/>
       <use x="512.744141" xlink:href="#DejaVuSans-48"/>
      </g>
     </g>
    </g>
    <g id="xtick_15">
     <g id="line2d_37">
      <g>
       <use style="stroke:#000000;stroke-width:0.8;" x="596.906113" xlink:href="#m41ba9c5323" y="586.84"/>
      </g>
     </g>
     <g id="text_35">
      <!-- 2021/07/10 -->
      <g transform="translate(568.087363 601.438437)scale(0.1 -0.1)">
       <use xlink:href="#DejaVuSans-50"/>
       <use x="63.623047" xlink:href="#DejaVuSans-48"/>
       <use x="127.246094" xlink:href="#DejaVuSans-50"/>
       <use x="190.869141" xlink:href="#DejaVuSans-49"/>
       <use x="254.492188" xlink:href="#DejaVuSans-47"/>
       <use x="288.183594" xlink:href="#DejaVuSans-48"/>
       <use x="351.806641" xlink:href="#DejaVuSans-55"/>
       <use x="415.429688" xlink:href="#DejaVuSans-47"/>
       <use x="449.121094" xlink:href="#DejaVuSans-49"/>
       <use x="512.744141" xlink:href="#DejaVuSans-48"/>
      </g>
     </g>
    </g>
    <g id="xtick_16">
     <g id="line2d_38">
      <g>
       <use style="stroke:#000000;stroke-width:0.8;" x="758.72942" xlink:href="#m41ba9c5323" y="586.84"/>
      </g>
     </g>
     <g id="text_36">
      <!-- 2021/07/20 -->
      <g transform="translate(729.91067 601.438437)scale(0.1 -0.1)">
       <use xlink:href="#DejaVuSans-50"/>
       <use x="63.623047" xlink:href="#DejaVuSans-48"/>
       <use x="127.246094" xlink:href="#DejaVuSans-50"/>
       <use x="190.869141" xlink:href="#DejaVuSans-49"/>
       <use x="254.492188" xlink:href="#DejaVuSans-47"/>
       <use x="288.183594" xlink:href="#DejaVuSans-48"/>
       <use x="351.806641" xlink:href="#DejaVuSans-55"/>
       <use x="415.429688" xlink:href="#DejaVuSans-47"/>
       <use x="449.121094" xlink:href="#DejaVuSans-50"/>
       <use x="512.744141" xlink:href="#DejaVuSans-48"/>
      </g>
     </g>
    </g>
    <g id="xtick_17">
     <g id="line2d_39">
      <g>
       <use style="stroke:#000000;stroke-width:0.8;" x="920.552726" xlink:href="#m41ba9c5323" y="586.84"/>
      </g>
     </g>
     <g id="text_37">
      <!-- 2021/07/30 -->
      <g transform="translate(891.733976 601.438437)scale(0.1 -0.1)">
       <use xlink:href="#DejaVuSans-50"/>
       <use x="63.623047" xlink:href="#DejaVuSans-48"/>
       <use x="127.246094" xlink:href="#DejaVuSans-50"/>
       <use x="190.869141" xlink:href="#DejaVuSans-49"/>
       <use x="254.492188" xlink:href="#DejaVuSans-47"/>
       <use x="288.183594" xlink:href="#DejaVuSans-48"/>
       <use x="351.806641" xlink:href="#DejaVuSans-55"/>
       <use x="415.429688" xlink:href="#DejaVuSans-47"/>
       <use x="449.121094" xlink:href="#DejaVuSans-51"/>
       <use x="512.744141" xlink:href="#DejaVuSans-48"/>
      </g>
     </g>
    </g>
    <g id="text_38">
     <!-- Time, t [days] -->
     <g transform="translate(489.420781 615.116562)scale(0.1 -0.1)">
      <use xlink:href="#DejaVuSans-84"/>
      <use x="57.958984" xlink:href="#DejaVuSans-105"/>
      <use x="85.742188" xlink:href="#DejaVuSans-109"/>
      <use x="183.154297" xlink:href="#DejaVuSans-101"/>
      <use x="244.677734" xlink:href="#DejaVuSans-44"/>
      <use x="276.464844" xlink:href="#DejaVuSans-32"/>
      <use x="308.251953" xlink:href="#DejaVuSans-116"/>
      <use x="347.460938" xlink:href="#DejaVuSans-32"/>
      <use x="379.248047" xlink:href="#DejaVuSans-91"/>
      <use x="418.261719" xlink:href="#DejaVuSans-100"/>
      <use x="481.738281" xlink:href="#DejaVuSans-97"/>
      <use x="543.017578" xlink:href="#DejaVuSans-121"/>
      <use x="602.197266" xlink:href="#DejaVuSans-115"/>
      <use x="654.296875" xlink:href="#DejaVuSans-93"/>
     </g>
    </g>
   </g>
   <g id="matplotlib.axis_6">
    <g id="ytick_11">
     <g id="line2d_40">
      <g>
       <use style="stroke:#000000;stroke-width:0.8;" x="70.17125" xlink:href="#m318573cb57" y="562.860716"/>
      </g>
     </g>
     <g id="text_39">
      <!-- 100 -->
      <g transform="translate(44.08375 566.659935)scale(0.1 -0.1)">
       <use xlink:href="#DejaVuSans-49"/>
       <use x="63.623047" xlink:href="#DejaVuSans-48"/>
       <use x="127.246094" xlink:href="#DejaVuSans-48"/>
      </g>
     </g>
    </g>
    <g id="ytick_12">
     <g id="line2d_41">
      <g>
       <use style="stroke:#000000;stroke-width:0.8;" x="70.17125" xlink:href="#m318573cb57" y="532.137738"/>
      </g>
     </g>
     <g id="text_40">
      <!-- 200 -->
      <g transform="translate(44.08375 535.936957)scale(0.1 -0.1)">
       <use xlink:href="#DejaVuSans-50"/>
       <use x="63.623047" xlink:href="#DejaVuSans-48"/>
       <use x="127.246094" xlink:href="#DejaVuSans-48"/>
      </g>
     </g>
    </g>
    <g id="ytick_13">
     <g id="line2d_42">
      <g>
       <use style="stroke:#000000;stroke-width:0.8;" x="70.17125" xlink:href="#m318573cb57" y="501.41476"/>
      </g>
     </g>
     <g id="text_41">
      <!-- 300 -->
      <g transform="translate(44.08375 505.213979)scale(0.1 -0.1)">
       <use xlink:href="#DejaVuSans-51"/>
       <use x="63.623047" xlink:href="#DejaVuSans-48"/>
       <use x="127.246094" xlink:href="#DejaVuSans-48"/>
      </g>
     </g>
    </g>
    <g id="ytick_14">
     <g id="line2d_43">
      <g>
       <use style="stroke:#000000;stroke-width:0.8;" x="70.17125" xlink:href="#m318573cb57" y="470.691782"/>
      </g>
     </g>
     <g id="text_42">
      <!-- 400 -->
      <g transform="translate(44.08375 474.491001)scale(0.1 -0.1)">
       <use xlink:href="#DejaVuSans-52"/>
       <use x="63.623047" xlink:href="#DejaVuSans-48"/>
       <use x="127.246094" xlink:href="#DejaVuSans-48"/>
      </g>
     </g>
    </g>
    <g id="text_43">
     <!-- daily_cases_(t+7) -->
     <g transform="translate(37.725937 566.767812)rotate(-90)scale(0.1 -0.1)">
      <use xlink:href="#DejaVuSans-100"/>
      <use x="63.476562" xlink:href="#DejaVuSans-97"/>
      <use x="124.755859" xlink:href="#DejaVuSans-105"/>
      <use x="152.539062" xlink:href="#DejaVuSans-108"/>
      <use x="180.322266" xlink:href="#DejaVuSans-121"/>
      <use x="239.501953" xlink:href="#DejaVuSans-95"/>
      <use x="289.501953" xlink:href="#DejaVuSans-99"/>
      <use x="344.482422" xlink:href="#DejaVuSans-97"/>
      <use x="405.761719" xlink:href="#DejaVuSans-115"/>
      <use x="457.861328" xlink:href="#DejaVuSans-101"/>
      <use x="519.384766" xlink:href="#DejaVuSans-115"/>
      <use x="571.484375" xlink:href="#DejaVuSans-95"/>
      <use x="621.484375" xlink:href="#DejaVuSans-40"/>
      <use x="660.498047" xlink:href="#DejaVuSans-116"/>
      <use x="699.707031" xlink:href="#DejaVuSans-43"/>
      <use x="783.496094" xlink:href="#DejaVuSans-55"/>
      <use x="847.119141" xlink:href="#DejaVuSans-41"/>
     </g>
    </g>
   </g>
   <g id="line2d_44">
    <path clip-path="url(#pa7fd9eb715)" d="M 111.436193 572.999298 
L 127.618524 579.143894 
L 143.800855 564.396865 
L 159.983185 572.692069 
L 176.165516 562.553486 
L 192.347846 580.987273 
L 208.530177 565.933014 
L 224.712508 561.631797 
L 240.894838 562.246256 
L 257.077169 569.927001 
L 273.2595 560.095648 
L 289.44183 550.264295 
L 305.624161 557.33058 
L 321.806492 545.041389 
L 337.988822 529.98713 
L 354.171153 519.848547 
L 370.353484 553.951052 
L 386.535814 530.908819 
L 402.718145 511.553343 
L 418.900476 524.456994 
L 435.082806 526.300372 
L 451.265137 484.209893 
L 467.447468 526.914832 
L 483.629798 546.577538 
L 499.812129 522.306385 
L 515.99446 519.541317 
L 532.17679 525.071453 
L 548.359121 488.20388 
L 564.541452 516.16179 
L 580.723782 513.396722 
L 596.906113 512.475032 
L 613.088444 516.776249 
L 629.270774 501.10753 
L 645.453105 504.794288 
L 661.635436 506.330437 
L 677.817766 463.932727 
L 694.000097 517.390709 
L 710.182428 473.149621 
L 726.364758 503.565369 
L 742.547089 539.511253 
L 758.72942 487.89665 
L 774.91175 529.06544 
L 791.094081 514.625641 
L 807.276412 523.228074 
L 823.458742 534.902806 
L 839.641073 548.420916 
L 855.823404 532.137738 
L 872.005734 524.149764 
L 888.188065 537.667874 
L 904.370395 495.577394 
L 920.552726 537.360644 
L 936.735057 568.083622 
" style="fill:none;stroke:#0000ff;stroke-linecap:square;stroke-width:1.5;"/>
   </g>
   <g id="line2d_45">
    <path clip-path="url(#pa7fd9eb715)" d="M 111.436193 566.595983 
L 127.618524 566.595983 
L 143.800855 577.219665 
L 159.983185 576.880096 
L 176.165516 566.595983 
L 192.347846 566.595983 
L 208.530177 566.595983 
L 224.712508 566.595983 
L 240.894838 566.595983 
L 257.077169 575.683517 
L 273.2595 575.635007 
L 289.44183 566.595983 
L 305.624161 566.595983 
L 321.806492 566.595983 
L 337.988822 566.595983 
L 354.171153 566.595983 
L 370.353484 573.112488 
L 386.535814 571.36613 
L 402.718145 566.595983 
L 418.900476 566.595983 
L 435.082806 566.595983 
L 451.265137 566.595983 
L 467.447468 566.595983 
L 483.629798 554.662532 
L 499.812129 553.174893 
L 515.99446 566.595983 
L 532.17679 566.595983 
L 548.359121 566.595983 
L 564.541452 566.595983 
L 580.723782 566.595983 
L 596.906113 553.773182 
L 613.088444 550.442165 
L 629.270774 566.595983 
L 645.453105 566.595983 
L 661.635436 566.595983 
L 677.817766 566.595983 
L 694.000097 566.595983 
L 710.182428 550.037915 
L 726.364758 550.425995 
L 742.547089 566.595983 
L 758.72942 566.595983 
L 774.91175 566.595983 
L 791.094081 566.595983 
L 807.276412 566.595983 
L 823.458742 544.103529 
L 839.641073 546.723067 
L 855.823404 566.595983 
L 872.005734 566.595983 
L 888.188065 566.595983 
L 904.370395 566.595983 
L 920.552726 566.595983 
L 936.735057 551.412364 
" style="fill:none;stroke:#ff0000;stroke-linecap:square;stroke-width:1.5;"/>
   </g>
   <g id="patch_15">
    <path d="M 70.17125 586.84 
L 70.17125 458.08 
" style="fill:none;stroke:#000000;stroke-linecap:square;stroke-linejoin:miter;stroke-width:0.8;"/>
   </g>
   <g id="patch_16">
    <path d="M 978 586.84 
L 978 458.08 
" style="fill:none;stroke:#000000;stroke-linecap:square;stroke-linejoin:miter;stroke-width:0.8;"/>
   </g>
   <g id="patch_17">
    <path d="M 70.17125 586.84 
L 978 586.84 
" style="fill:none;stroke:#000000;stroke-linecap:square;stroke-linejoin:miter;stroke-width:0.8;"/>
   </g>
   <g id="patch_18">
    <path d="M 70.17125 458.08 
L 978 458.08 
" style="fill:none;stroke:#000000;stroke-linecap:square;stroke-linejoin:miter;stroke-width:0.8;"/>
   </g>
   <g id="text_44">
    <!-- K-NN fit test -->
    <g transform="translate(488.171875 452.08)scale(0.12 -0.12)">
     <use xlink:href="#DejaVuSans-75"/>
     <use x="55.076172" xlink:href="#DejaVuSans-45"/>
     <use x="91.160156" xlink:href="#DejaVuSans-78"/>
     <use x="165.964844" xlink:href="#DejaVuSans-78"/>
     <use x="240.769531" xlink:href="#DejaVuSans-32"/>
     <use x="272.556641" xlink:href="#DejaVuSans-102"/>
     <use x="307.761719" xlink:href="#DejaVuSans-105"/>
     <use x="335.544922" xlink:href="#DejaVuSans-116"/>
     <use x="374.753906" xlink:href="#DejaVuSans-32"/>
     <use x="406.541016" xlink:href="#DejaVuSans-116"/>
     <use x="445.75" xlink:href="#DejaVuSans-101"/>
     <use x="507.273438" xlink:href="#DejaVuSans-115"/>
     <use x="559.373047" xlink:href="#DejaVuSans-116"/>
    </g>
   </g>
   <g id="legend_3">
    <g id="patch_19">
     <path d="M 77.17125 495.43625 
L 151.474375 495.43625 
Q 153.474375 495.43625 153.474375 493.43625 
L 153.474375 465.08 
Q 153.474375 463.08 151.474375 463.08 
L 77.17125 463.08 
Q 75.17125 463.08 75.17125 465.08 
L 75.17125 493.43625 
Q 75.17125 495.43625 77.17125 495.43625 
z
" style="fill:#ffffff;opacity:0.8;stroke:#cccccc;stroke-linejoin:miter;"/>
    </g>
    <g id="line2d_46">
     <path d="M 79.17125 471.178437 
L 99.17125 471.178437 
" style="fill:none;stroke:#0000ff;stroke-linecap:square;stroke-width:1.5;"/>
    </g>
    <g id="line2d_47"/>
    <g id="text_45">
     <!-- Data -->
     <g transform="translate(107.17125 474.678437)scale(0.1 -0.1)">
      <use xlink:href="#DejaVuSans-68"/>
      <use x="77.001953" xlink:href="#DejaVuSans-97"/>
      <use x="138.28125" xlink:href="#DejaVuSans-116"/>
      <use x="177.490234" xlink:href="#DejaVuSans-97"/>
     </g>
    </g>
    <g id="line2d_48">
     <path d="M 79.17125 485.856562 
L 99.17125 485.856562 
" style="fill:none;stroke:#ff0000;stroke-linecap:square;stroke-width:1.5;"/>
    </g>
    <g id="line2d_49"/>
    <g id="text_46">
     <!-- Forecast -->
     <g transform="translate(107.17125 489.356562)scale(0.1 -0.1)">
      <use xlink:href="#DejaVuSans-70"/>
      <use x="53.894531" xlink:href="#DejaVuSans-111"/>
      <use x="115.076172" xlink:href="#DejaVuSans-114"/>
      <use x="153.939453" xlink:href="#DejaVuSans-101"/>
      <use x="215.462891" xlink:href="#DejaVuSans-99"/>
      <use x="270.443359" xlink:href="#DejaVuSans-97"/>
      <use x="331.722656" xlink:href="#DejaVuSans-115"/>
      <use x="383.822266" xlink:href="#DejaVuSans-116"/>
     </g>
    </g>
   </g>
  </g>
 </g>
 <defs>
  <clipPath id="pcc289ddb46">
   <rect height="128.76" width="907.82875" x="70.17125" y="46.08"/>
  </clipPath>
  <clipPath id="p1897bb01e2">
   <rect height="128.76" width="907.82875" x="70.17125" y="252.08"/>
  </clipPath>
  <clipPath id="pa7fd9eb715">
   <rect height="128.76" width="907.82875" x="70.17125" y="458.08"/>
  </clipPath>
 </defs>
</svg>
