<?xml version="1.0" encoding="utf-8" standalone="no"?>
<!DOCTYPE svg PUBLIC "-//W3C//DTD SVG 1.1//EN"
  "http://www.w3.org/Graphics/SVG/1.1/DTD/svg11.dtd">
<!-- Created with matplotlib (https://matplotlib.org/) -->
<svg height="614.833125pt" version="1.1" viewBox="0 0 877.4875 614.833125" width="877.4875pt" xmlns="http://www.w3.org/2000/svg" xmlns:xlink="http://www.w3.org/1999/xlink">
 <metadata>
  <rdf:RDF xmlns:cc="http://creativecommons.org/ns#" xmlns:dc="http://purl.org/dc/elements/1.1/" xmlns:rdf="http://www.w3.org/1999/02/22-rdf-syntax-ns#">
   <cc:Work>
    <dc:type rdf:resource="http://purl.org/dc/dcmitype/StillImage"/>
    <dc:date>2021-09-18T19:57:05.218241</dc:date>
    <dc:format>image/svg+xml</dc:format>
    <dc:creator>
     <cc:Agent>
      <dc:title>Matplotlib v3.3.3, https://matplotlib.org/</dc:title>
     </cc:Agent>
    </dc:creator>
   </cc:Work>
  </rdf:RDF>
 </metadata>
 <defs>
  <style type="text/css">*{stroke-linecap:butt;stroke-linejoin:round;}</style>
 </defs>
 <g id="figure_1">
  <g id="patch_1">
   <path d="M 0 614.833125 
L 877.4875 614.833125 
L 877.4875 0 
L 0 0 
z
" style="fill:none;"/>
  </g>
  <g id="axes_1">
   <g id="patch_2">
    <path d="M 33.2875 215.894118 
L 870.2875 215.894118 
L 870.2875 72 
L 33.2875 72 
z
" style="fill:#ffffff;"/>
   </g>
   <g id="matplotlib.axis_1">
    <g id="xtick_1">
     <g id="line2d_1">
      <defs>
       <path d="M 0 0 
L 0 3.5 
" id="m838223d43b" style="stroke:#000000;stroke-width:0.8;"/>
      </defs>
      <g>
       <use style="stroke:#000000;stroke-width:0.8;" x="33.2875" xlink:href="#m838223d43b" y="215.894118"/>
      </g>
     </g>
    </g>
    <g id="xtick_2">
     <g id="line2d_2">
      <g>
       <use style="stroke:#000000;stroke-width:0.8;" x="80.776862" xlink:href="#m838223d43b" y="215.894118"/>
      </g>
     </g>
     <g id="text_1">
      <!-- Apr -->
      <g transform="translate(72.126862 230.492555)scale(0.1 -0.1)">
       <defs>
        <path d="M 34.1875 63.1875 
L 20.796875 26.90625 
L 47.609375 26.90625 
z
M 28.609375 72.90625 
L 39.796875 72.90625 
L 67.578125 0 
L 57.328125 0 
L 50.6875 18.703125 
L 17.828125 18.703125 
L 11.1875 0 
L 0.78125 0 
z
" id="DejaVuSans-65"/>
        <path d="M 18.109375 8.203125 
L 18.109375 -20.796875 
L 9.078125 -20.796875 
L 9.078125 54.6875 
L 18.109375 54.6875 
L 18.109375 46.390625 
Q 20.953125 51.265625 25.265625 53.625 
Q 29.59375 56 35.59375 56 
Q 45.5625 56 51.78125 48.09375 
Q 58.015625 40.1875 58.015625 27.296875 
Q 58.015625 14.40625 51.78125 6.484375 
Q 45.5625 -1.421875 35.59375 -1.421875 
Q 29.59375 -1.421875 25.265625 0.953125 
Q 20.953125 3.328125 18.109375 8.203125 
z
M 48.6875 27.296875 
Q 48.6875 37.203125 44.609375 42.84375 
Q 40.53125 48.484375 33.40625 48.484375 
Q 26.265625 48.484375 22.1875 42.84375 
Q 18.109375 37.203125 18.109375 27.296875 
Q 18.109375 17.390625 22.1875 11.75 
Q 26.265625 6.109375 33.40625 6.109375 
Q 40.53125 6.109375 44.609375 11.75 
Q 48.6875 17.390625 48.6875 27.296875 
z
" id="DejaVuSans-112"/>
        <path d="M 41.109375 46.296875 
Q 39.59375 47.171875 37.8125 47.578125 
Q 36.03125 48 33.890625 48 
Q 26.265625 48 22.1875 43.046875 
Q 18.109375 38.09375 18.109375 28.8125 
L 18.109375 0 
L 9.078125 0 
L 9.078125 54.6875 
L 18.109375 54.6875 
L 18.109375 46.1875 
Q 20.953125 51.171875 25.484375 53.578125 
Q 30.03125 56 36.53125 56 
Q 37.453125 56 38.578125 55.875 
Q 39.703125 55.765625 41.0625 55.515625 
z
" id="DejaVuSans-114"/>
       </defs>
       <use xlink:href="#DejaVuSans-65"/>
       <use x="68.408203" xlink:href="#DejaVuSans-112"/>
       <use x="131.884766" xlink:href="#DejaVuSans-114"/>
      </g>
     </g>
    </g>
    <g id="xtick_3">
     <g id="line2d_3">
      <g>
       <use style="stroke:#000000;stroke-width:0.8;" x="215.824734" xlink:href="#m838223d43b" y="215.894118"/>
      </g>
     </g>
     <g id="text_2">
      <!-- Jul -->
      <g transform="translate(209.791922 230.492555)scale(0.1 -0.1)">
       <defs>
        <path d="M 9.8125 72.90625 
L 19.671875 72.90625 
L 19.671875 5.078125 
Q 19.671875 -8.109375 14.671875 -14.0625 
Q 9.671875 -20.015625 -1.421875 -20.015625 
L -5.171875 -20.015625 
L -5.171875 -11.71875 
L -2.09375 -11.71875 
Q 4.4375 -11.71875 7.125 -8.046875 
Q 9.8125 -4.390625 9.8125 5.078125 
z
" id="DejaVuSans-74"/>
        <path d="M 8.5 21.578125 
L 8.5 54.6875 
L 17.484375 54.6875 
L 17.484375 21.921875 
Q 17.484375 14.15625 20.5 10.265625 
Q 23.53125 6.390625 29.59375 6.390625 
Q 36.859375 6.390625 41.078125 11.03125 
Q 45.3125 15.671875 45.3125 23.6875 
L 45.3125 54.6875 
L 54.296875 54.6875 
L 54.296875 0 
L 45.3125 0 
L 45.3125 8.40625 
Q 42.046875 3.421875 37.71875 1 
Q 33.40625 -1.421875 27.6875 -1.421875 
Q 18.265625 -1.421875 13.375 4.4375 
Q 8.5 10.296875 8.5 21.578125 
z
M 31.109375 56 
z
" id="DejaVuSans-117"/>
        <path d="M 9.421875 75.984375 
L 18.40625 75.984375 
L 18.40625 0 
L 9.421875 0 
z
" id="DejaVuSans-108"/>
       </defs>
       <use xlink:href="#DejaVuSans-74"/>
       <use x="29.492188" xlink:href="#DejaVuSans-117"/>
       <use x="92.871094" xlink:href="#DejaVuSans-108"/>
      </g>
     </g>
    </g>
    <g id="xtick_4">
     <g id="line2d_4">
      <g>
       <use style="stroke:#000000;stroke-width:0.8;" x="352.356649" xlink:href="#m838223d43b" y="215.894118"/>
      </g>
     </g>
     <g id="text_3">
      <!-- Oct -->
      <g transform="translate(343.711336 230.492555)scale(0.1 -0.1)">
       <defs>
        <path d="M 39.40625 66.21875 
Q 28.65625 66.21875 22.328125 58.203125 
Q 16.015625 50.203125 16.015625 36.375 
Q 16.015625 22.609375 22.328125 14.59375 
Q 28.65625 6.59375 39.40625 6.59375 
Q 50.140625 6.59375 56.421875 14.59375 
Q 62.703125 22.609375 62.703125 36.375 
Q 62.703125 50.203125 56.421875 58.203125 
Q 50.140625 66.21875 39.40625 66.21875 
z
M 39.40625 74.21875 
Q 54.734375 74.21875 63.90625 63.9375 
Q 73.09375 53.65625 73.09375 36.375 
Q 73.09375 19.140625 63.90625 8.859375 
Q 54.734375 -1.421875 39.40625 -1.421875 
Q 24.03125 -1.421875 14.8125 8.828125 
Q 5.609375 19.09375 5.609375 36.375 
Q 5.609375 53.65625 14.8125 63.9375 
Q 24.03125 74.21875 39.40625 74.21875 
z
" id="DejaVuSans-79"/>
        <path d="M 48.78125 52.59375 
L 48.78125 44.1875 
Q 44.96875 46.296875 41.140625 47.34375 
Q 37.3125 48.390625 33.40625 48.390625 
Q 24.65625 48.390625 19.8125 42.84375 
Q 14.984375 37.3125 14.984375 27.296875 
Q 14.984375 17.28125 19.8125 11.734375 
Q 24.65625 6.203125 33.40625 6.203125 
Q 37.3125 6.203125 41.140625 7.25 
Q 44.96875 8.296875 48.78125 10.40625 
L 48.78125 2.09375 
Q 45.015625 0.34375 40.984375 -0.53125 
Q 36.96875 -1.421875 32.421875 -1.421875 
Q 20.0625 -1.421875 12.78125 6.34375 
Q 5.515625 14.109375 5.515625 27.296875 
Q 5.515625 40.671875 12.859375 48.328125 
Q 20.21875 56 33.015625 56 
Q 37.15625 56 41.109375 55.140625 
Q 45.0625 54.296875 48.78125 52.59375 
z
" id="DejaVuSans-99"/>
        <path d="M 18.3125 70.21875 
L 18.3125 54.6875 
L 36.8125 54.6875 
L 36.8125 47.703125 
L 18.3125 47.703125 
L 18.3125 18.015625 
Q 18.3125 11.328125 20.140625 9.421875 
Q 21.96875 7.515625 27.59375 7.515625 
L 36.8125 7.515625 
L 36.8125 0 
L 27.59375 0 
Q 17.1875 0 13.234375 3.875 
Q 9.28125 7.765625 9.28125 18.015625 
L 9.28125 47.703125 
L 2.6875 47.703125 
L 2.6875 54.6875 
L 9.28125 54.6875 
L 9.28125 70.21875 
z
" id="DejaVuSans-116"/>
       </defs>
       <use xlink:href="#DejaVuSans-79"/>
       <use x="78.710938" xlink:href="#DejaVuSans-99"/>
       <use x="133.691406" xlink:href="#DejaVuSans-116"/>
      </g>
     </g>
    </g>
    <g id="xtick_5">
     <g id="line2d_5">
      <g>
       <use style="stroke:#000000;stroke-width:0.8;" x="488.888564" xlink:href="#m838223d43b" y="215.894118"/>
      </g>
     </g>
     <g id="text_4">
      <!-- Jan -->
      <g transform="translate(481.180751 230.492555)scale(0.1 -0.1)">
       <defs>
        <path d="M 34.28125 27.484375 
Q 23.390625 27.484375 19.1875 25 
Q 14.984375 22.515625 14.984375 16.5 
Q 14.984375 11.71875 18.140625 8.90625 
Q 21.296875 6.109375 26.703125 6.109375 
Q 34.1875 6.109375 38.703125 11.40625 
Q 43.21875 16.703125 43.21875 25.484375 
L 43.21875 27.484375 
z
M 52.203125 31.203125 
L 52.203125 0 
L 43.21875 0 
L 43.21875 8.296875 
Q 40.140625 3.328125 35.546875 0.953125 
Q 30.953125 -1.421875 24.3125 -1.421875 
Q 15.921875 -1.421875 10.953125 3.296875 
Q 6 8.015625 6 15.921875 
Q 6 25.140625 12.171875 29.828125 
Q 18.359375 34.515625 30.609375 34.515625 
L 43.21875 34.515625 
L 43.21875 35.40625 
Q 43.21875 41.609375 39.140625 45 
Q 35.0625 48.390625 27.6875 48.390625 
Q 23 48.390625 18.546875 47.265625 
Q 14.109375 46.140625 10.015625 43.890625 
L 10.015625 52.203125 
Q 14.9375 54.109375 19.578125 55.046875 
Q 24.21875 56 28.609375 56 
Q 40.484375 56 46.34375 49.84375 
Q 52.203125 43.703125 52.203125 31.203125 
z
" id="DejaVuSans-97"/>
        <path d="M 54.890625 33.015625 
L 54.890625 0 
L 45.90625 0 
L 45.90625 32.71875 
Q 45.90625 40.484375 42.875 44.328125 
Q 39.84375 48.1875 33.796875 48.1875 
Q 26.515625 48.1875 22.3125 43.546875 
Q 18.109375 38.921875 18.109375 30.90625 
L 18.109375 0 
L 9.078125 0 
L 9.078125 54.6875 
L 18.109375 54.6875 
L 18.109375 46.1875 
Q 21.34375 51.125 25.703125 53.5625 
Q 30.078125 56 35.796875 56 
Q 45.21875 56 50.046875 50.171875 
Q 54.890625 44.34375 54.890625 33.015625 
z
" id="DejaVuSans-110"/>
       </defs>
       <use xlink:href="#DejaVuSans-74"/>
       <use x="29.492188" xlink:href="#DejaVuSans-97"/>
       <use x="90.771484" xlink:href="#DejaVuSans-110"/>
      </g>
      <!-- 2021 -->
      <g transform="translate(476.163564 241.690368)scale(0.1 -0.1)">
       <defs>
        <path d="M 19.1875 8.296875 
L 53.609375 8.296875 
L 53.609375 0 
L 7.328125 0 
L 7.328125 8.296875 
Q 12.9375 14.109375 22.625 23.890625 
Q 32.328125 33.6875 34.8125 36.53125 
Q 39.546875 41.84375 41.421875 45.53125 
Q 43.3125 49.21875 43.3125 52.78125 
Q 43.3125 58.59375 39.234375 62.25 
Q 35.15625 65.921875 28.609375 65.921875 
Q 23.96875 65.921875 18.8125 64.3125 
Q 13.671875 62.703125 7.8125 59.421875 
L 7.8125 69.390625 
Q 13.765625 71.78125 18.9375 73 
Q 24.125 74.21875 28.421875 74.21875 
Q 39.75 74.21875 46.484375 68.546875 
Q 53.21875 62.890625 53.21875 53.421875 
Q 53.21875 48.921875 51.53125 44.890625 
Q 49.859375 40.875 45.40625 35.40625 
Q 44.1875 33.984375 37.640625 27.21875 
Q 31.109375 20.453125 19.1875 8.296875 
z
" id="DejaVuSans-50"/>
        <path d="M 31.78125 66.40625 
Q 24.171875 66.40625 20.328125 58.90625 
Q 16.5 51.421875 16.5 36.375 
Q 16.5 21.390625 20.328125 13.890625 
Q 24.171875 6.390625 31.78125 6.390625 
Q 39.453125 6.390625 43.28125 13.890625 
Q 47.125 21.390625 47.125 36.375 
Q 47.125 51.421875 43.28125 58.90625 
Q 39.453125 66.40625 31.78125 66.40625 
z
M 31.78125 74.21875 
Q 44.046875 74.21875 50.515625 64.515625 
Q 56.984375 54.828125 56.984375 36.375 
Q 56.984375 17.96875 50.515625 8.265625 
Q 44.046875 -1.421875 31.78125 -1.421875 
Q 19.53125 -1.421875 13.0625 8.265625 
Q 6.59375 17.96875 6.59375 36.375 
Q 6.59375 54.828125 13.0625 64.515625 
Q 19.53125 74.21875 31.78125 74.21875 
z
" id="DejaVuSans-48"/>
        <path d="M 12.40625 8.296875 
L 28.515625 8.296875 
L 28.515625 63.921875 
L 10.984375 60.40625 
L 10.984375 69.390625 
L 28.421875 72.90625 
L 38.28125 72.90625 
L 38.28125 8.296875 
L 54.390625 8.296875 
L 54.390625 0 
L 12.40625 0 
z
" id="DejaVuSans-49"/>
       </defs>
       <use xlink:href="#DejaVuSans-50"/>
       <use x="63.623047" xlink:href="#DejaVuSans-48"/>
       <use x="127.246094" xlink:href="#DejaVuSans-50"/>
       <use x="190.869141" xlink:href="#DejaVuSans-49"/>
      </g>
     </g>
    </g>
    <g id="xtick_6">
     <g id="line2d_6">
      <g>
       <use style="stroke:#000000;stroke-width:0.8;" x="622.452394" xlink:href="#m838223d43b" y="215.894118"/>
      </g>
     </g>
     <g id="text_5">
      <!-- Apr -->
      <g transform="translate(613.802394 230.492555)scale(0.1 -0.1)">
       <use xlink:href="#DejaVuSans-65"/>
       <use x="68.408203" xlink:href="#DejaVuSans-112"/>
       <use x="131.884766" xlink:href="#DejaVuSans-114"/>
      </g>
     </g>
    </g>
    <g id="xtick_7">
     <g id="line2d_7">
      <g>
       <use style="stroke:#000000;stroke-width:0.8;" x="757.500266" xlink:href="#m838223d43b" y="215.894118"/>
      </g>
     </g>
     <g id="text_6">
      <!-- Jul -->
      <g transform="translate(751.467453 230.492555)scale(0.1 -0.1)">
       <use xlink:href="#DejaVuSans-74"/>
       <use x="29.492188" xlink:href="#DejaVuSans-117"/>
       <use x="92.871094" xlink:href="#DejaVuSans-108"/>
      </g>
     </g>
    </g>
    <g id="xtick_8">
     <g id="line2d_8">
      <g>
       <use style="stroke:#000000;stroke-width:0.8;" x="870.2875" xlink:href="#m838223d43b" y="215.894118"/>
      </g>
     </g>
    </g>
    <g id="xtick_9">
     <g id="line2d_9">
      <defs>
       <path d="M 0 0 
L 0 2 
" id="meefa531db7" style="stroke:#000000;stroke-width:0.6;"/>
      </defs>
      <g>
       <use style="stroke:#000000;stroke-width:0.6;" x="34.771543" xlink:href="#meefa531db7" y="215.894118"/>
      </g>
     </g>
    </g>
    <g id="xtick_10">
     <g id="line2d_10">
      <g>
       <use style="stroke:#000000;stroke-width:0.6;" x="125.298138" xlink:href="#meefa531db7" y="215.894118"/>
      </g>
     </g>
    </g>
    <g id="xtick_11">
     <g id="line2d_11">
      <g>
       <use style="stroke:#000000;stroke-width:0.6;" x="171.303457" xlink:href="#meefa531db7" y="215.894118"/>
      </g>
     </g>
    </g>
    <g id="xtick_12">
     <g id="line2d_12">
      <g>
       <use style="stroke:#000000;stroke-width:0.6;" x="261.830053" xlink:href="#meefa531db7" y="215.894118"/>
      </g>
     </g>
    </g>
    <g id="xtick_13">
     <g id="line2d_13">
      <g>
       <use style="stroke:#000000;stroke-width:0.6;" x="307.835372" xlink:href="#meefa531db7" y="215.894118"/>
      </g>
     </g>
    </g>
    <g id="xtick_14">
     <g id="line2d_14">
      <g>
       <use style="stroke:#000000;stroke-width:0.6;" x="398.361968" xlink:href="#meefa531db7" y="215.894118"/>
      </g>
     </g>
    </g>
    <g id="xtick_15">
     <g id="line2d_15">
      <g>
       <use style="stroke:#000000;stroke-width:0.6;" x="442.883245" xlink:href="#meefa531db7" y="215.894118"/>
      </g>
     </g>
    </g>
    <g id="xtick_16">
     <g id="line2d_16">
      <g>
       <use style="stroke:#000000;stroke-width:0.6;" x="534.893883" xlink:href="#meefa531db7" y="215.894118"/>
      </g>
     </g>
    </g>
    <g id="xtick_17">
     <g id="line2d_17">
      <g>
       <use style="stroke:#000000;stroke-width:0.6;" x="576.447074" xlink:href="#meefa531db7" y="215.894118"/>
      </g>
     </g>
    </g>
    <g id="xtick_18">
     <g id="line2d_18">
      <g>
       <use style="stroke:#000000;stroke-width:0.6;" x="666.97367" xlink:href="#meefa531db7" y="215.894118"/>
      </g>
     </g>
    </g>
    <g id="xtick_19">
     <g id="line2d_19">
      <g>
       <use style="stroke:#000000;stroke-width:0.6;" x="712.978989" xlink:href="#meefa531db7" y="215.894118"/>
      </g>
     </g>
    </g>
    <g id="xtick_20">
     <g id="line2d_20">
      <g>
       <use style="stroke:#000000;stroke-width:0.6;" x="803.505585" xlink:href="#meefa531db7" y="215.894118"/>
      </g>
     </g>
    </g>
    <g id="xtick_21">
     <g id="line2d_21">
      <g>
       <use style="stroke:#000000;stroke-width:0.6;" x="849.510904" xlink:href="#meefa531db7" y="215.894118"/>
      </g>
     </g>
    </g>
    <g id="text_7">
     <!-- date -->
     <g transform="translate(440.5125 255.368493)scale(0.1 -0.1)">
      <defs>
       <path d="M 45.40625 46.390625 
L 45.40625 75.984375 
L 54.390625 75.984375 
L 54.390625 0 
L 45.40625 0 
L 45.40625 8.203125 
Q 42.578125 3.328125 38.25 0.953125 
Q 33.9375 -1.421875 27.875 -1.421875 
Q 17.96875 -1.421875 11.734375 6.484375 
Q 5.515625 14.40625 5.515625 27.296875 
Q 5.515625 40.1875 11.734375 48.09375 
Q 17.96875 56 27.875 56 
Q 33.9375 56 38.25 53.625 
Q 42.578125 51.265625 45.40625 46.390625 
z
M 14.796875 27.296875 
Q 14.796875 17.390625 18.875 11.75 
Q 22.953125 6.109375 30.078125 6.109375 
Q 37.203125 6.109375 41.296875 11.75 
Q 45.40625 17.390625 45.40625 27.296875 
Q 45.40625 37.203125 41.296875 42.84375 
Q 37.203125 48.484375 30.078125 48.484375 
Q 22.953125 48.484375 18.875 42.84375 
Q 14.796875 37.203125 14.796875 27.296875 
z
" id="DejaVuSans-100"/>
       <path d="M 56.203125 29.59375 
L 56.203125 25.203125 
L 14.890625 25.203125 
Q 15.484375 15.921875 20.484375 11.0625 
Q 25.484375 6.203125 34.421875 6.203125 
Q 39.59375 6.203125 44.453125 7.46875 
Q 49.3125 8.734375 54.109375 11.28125 
L 54.109375 2.78125 
Q 49.265625 0.734375 44.1875 -0.34375 
Q 39.109375 -1.421875 33.890625 -1.421875 
Q 20.796875 -1.421875 13.15625 6.1875 
Q 5.515625 13.8125 5.515625 26.8125 
Q 5.515625 40.234375 12.765625 48.109375 
Q 20.015625 56 32.328125 56 
Q 43.359375 56 49.78125 48.890625 
Q 56.203125 41.796875 56.203125 29.59375 
z
M 47.21875 32.234375 
Q 47.125 39.59375 43.09375 43.984375 
Q 39.0625 48.390625 32.421875 48.390625 
Q 24.90625 48.390625 20.390625 44.140625 
Q 15.875 39.890625 15.1875 32.171875 
z
" id="DejaVuSans-101"/>
      </defs>
      <use xlink:href="#DejaVuSans-100"/>
      <use x="63.476562" xlink:href="#DejaVuSans-97"/>
      <use x="124.755859" xlink:href="#DejaVuSans-116"/>
      <use x="163.964844" xlink:href="#DejaVuSans-101"/>
     </g>
    </g>
   </g>
   <g id="matplotlib.axis_2">
    <g id="ytick_1">
     <g id="line2d_22">
      <defs>
       <path d="M 0 0 
L -3.5 0 
" id="m7503ed53b4" style="stroke:#000000;stroke-width:0.8;"/>
      </defs>
      <g>
       <use style="stroke:#000000;stroke-width:0.8;" x="33.2875" xlink:href="#m7503ed53b4" y="209.353476"/>
      </g>
     </g>
     <g id="text_8">
      <!-- 0 -->
      <g transform="translate(19.925 213.152695)scale(0.1 -0.1)">
       <use xlink:href="#DejaVuSans-48"/>
      </g>
     </g>
    </g>
    <g id="ytick_2">
     <g id="line2d_23">
      <g>
       <use style="stroke:#000000;stroke-width:0.8;" x="33.2875" xlink:href="#m7503ed53b4" y="168.474465"/>
      </g>
     </g>
     <g id="text_9">
      <!-- 5 -->
      <g transform="translate(19.925 172.273684)scale(0.1 -0.1)">
       <defs>
        <path d="M 10.796875 72.90625 
L 49.515625 72.90625 
L 49.515625 64.59375 
L 19.828125 64.59375 
L 19.828125 46.734375 
Q 21.96875 47.46875 24.109375 47.828125 
Q 26.265625 48.1875 28.421875 48.1875 
Q 40.625 48.1875 47.75 41.5 
Q 54.890625 34.8125 54.890625 23.390625 
Q 54.890625 11.625 47.5625 5.09375 
Q 40.234375 -1.421875 26.90625 -1.421875 
Q 22.3125 -1.421875 17.546875 -0.640625 
Q 12.796875 0.140625 7.71875 1.703125 
L 7.71875 11.625 
Q 12.109375 9.234375 16.796875 8.0625 
Q 21.484375 6.890625 26.703125 6.890625 
Q 35.15625 6.890625 40.078125 11.328125 
Q 45.015625 15.765625 45.015625 23.390625 
Q 45.015625 31 40.078125 35.4375 
Q 35.15625 39.890625 26.703125 39.890625 
Q 22.75 39.890625 18.8125 39.015625 
Q 14.890625 38.140625 10.796875 36.28125 
z
" id="DejaVuSans-53"/>
       </defs>
       <use xlink:href="#DejaVuSans-53"/>
      </g>
     </g>
    </g>
    <g id="ytick_3">
     <g id="line2d_24">
      <g>
       <use style="stroke:#000000;stroke-width:0.8;" x="33.2875" xlink:href="#m7503ed53b4" y="127.595455"/>
      </g>
     </g>
     <g id="text_10">
      <!-- 10 -->
      <g transform="translate(13.5625 131.394673)scale(0.1 -0.1)">
       <use xlink:href="#DejaVuSans-49"/>
       <use x="63.623047" xlink:href="#DejaVuSans-48"/>
      </g>
     </g>
    </g>
    <g id="ytick_4">
     <g id="line2d_25">
      <g>
       <use style="stroke:#000000;stroke-width:0.8;" x="33.2875" xlink:href="#m7503ed53b4" y="86.716444"/>
      </g>
     </g>
     <g id="text_11">
      <!-- 15 -->
      <g transform="translate(13.5625 90.515663)scale(0.1 -0.1)">
       <use xlink:href="#DejaVuSans-49"/>
       <use x="63.623047" xlink:href="#DejaVuSans-53"/>
      </g>
     </g>
    </g>
   </g>
   <g id="line2d_26">
    <path clip-path="url(#p52015c32d3)" d="M 33.2875 209.353476 
L 57.032181 209.353476 
L 58.516223 201.177674 
L 60.000266 209.353476 
L 61.484309 209.353476 
L 62.968351 193.001872 
L 64.452394 184.82607 
L 65.936436 193.001872 
L 67.420479 176.650267 
L 68.904521 168.474465 
L 70.388564 193.001872 
L 71.872606 160.298663 
L 73.356649 184.82607 
L 76.324734 184.82607 
L 77.808777 86.716444 
L 79.292819 119.419652 
L 80.776862 176.650267 
L 82.260904 143.947059 
L 83.744947 193.001872 
L 86.713032 143.947059 
L 88.197074 143.947059 
L 89.681117 176.650267 
L 91.16516 168.474465 
L 92.649202 176.650267 
L 94.133245 135.771257 
L 95.617287 176.650267 
L 97.10133 143.947059 
L 98.585372 160.298663 
L 101.553457 160.298663 
L 103.0375 184.82607 
L 104.521543 160.298663 
L 106.005585 176.650267 
L 107.489628 176.650267 
L 108.97367 168.474465 
L 110.457713 176.650267 
L 111.941755 176.650267 
L 113.425798 184.82607 
L 114.90984 184.82607 
L 116.393883 176.650267 
L 117.877926 176.650267 
L 119.361968 201.177674 
L 120.846011 193.001872 
L 122.330053 209.353476 
L 123.814096 193.001872 
L 126.782181 193.001872 
L 128.266223 201.177674 
L 129.750266 201.177674 
L 131.234309 209.353476 
L 132.718351 201.177674 
L 134.202394 209.353476 
L 135.686436 201.177674 
L 137.170479 209.353476 
L 138.654521 209.353476 
L 140.138564 201.177674 
L 141.622606 209.353476 
L 143.106649 209.353476 
L 144.590691 201.177674 
L 146.074734 209.353476 
L 147.558777 193.001872 
L 149.042819 209.353476 
L 150.526862 209.353476 
L 152.010904 201.177674 
L 153.494947 209.353476 
L 212.856649 209.353476 
L 214.340691 193.001872 
L 215.824734 209.353476 
L 236.60133 209.353476 
L 238.085372 201.177674 
L 239.569415 209.353476 
L 269.250266 209.353476 
L 270.734309 201.177674 
L 272.218351 209.353476 
L 273.702394 209.353476 
L 275.186436 201.177674 
L 276.670479 201.177674 
L 278.154521 209.353476 
L 287.058777 209.353476 
L 288.542819 201.177674 
L 290.026862 209.353476 
L 301.899202 209.353476 
L 303.383245 193.001872 
L 304.867287 209.353476 
L 306.35133 201.177674 
L 307.835372 209.353476 
L 309.319415 201.177674 
L 310.803457 209.353476 
L 312.2875 201.177674 
L 313.771543 209.353476 
L 315.255585 209.353476 
L 316.739628 201.177674 
L 318.22367 209.353476 
L 319.707713 201.177674 
L 321.191755 209.353476 
L 327.127926 209.353476 
L 328.611968 201.177674 
L 330.096011 209.353476 
L 331.580053 201.177674 
L 333.064096 184.82607 
L 334.548138 201.177674 
L 336.032181 209.353476 
L 340.484309 209.353476 
L 341.968351 201.177674 
L 343.452394 209.353476 
L 344.936436 201.177674 
L 346.420479 209.353476 
L 347.904521 201.177674 
L 349.388564 209.353476 
L 352.356649 209.353476 
L 353.840691 201.177674 
L 355.324734 209.353476 
L 356.808777 201.177674 
L 358.292819 209.353476 
L 362.744947 209.353476 
L 364.228989 201.177674 
L 365.713032 201.177674 
L 367.197074 209.353476 
L 368.681117 209.353476 
L 370.16516 201.177674 
L 371.649202 209.353476 
L 373.133245 193.001872 
L 374.617287 193.001872 
L 376.10133 184.82607 
L 377.585372 209.353476 
L 380.553457 209.353476 
L 382.0375 201.177674 
L 383.521543 209.353476 
L 387.97367 209.353476 
L 389.457713 193.001872 
L 390.941755 201.177674 
L 392.425798 201.177674 
L 393.90984 209.353476 
L 396.877926 193.001872 
L 398.361968 209.353476 
L 399.846011 209.353476 
L 401.330053 176.650267 
L 402.814096 176.650267 
L 404.298138 201.177674 
L 405.782181 193.001872 
L 410.234309 193.001872 
L 411.718351 184.82607 
L 413.202394 201.177674 
L 414.686436 168.474465 
L 416.170479 184.82607 
L 417.654521 209.353476 
L 419.138564 201.177674 
L 420.622606 184.82607 
L 422.106649 160.298663 
L 423.590691 201.177674 
L 425.074734 201.177674 
L 426.558777 193.001872 
L 428.042819 201.177674 
L 429.526862 201.177674 
L 431.010904 209.353476 
L 433.978989 193.001872 
L 435.463032 176.650267 
L 436.947074 201.177674 
L 438.431117 160.298663 
L 439.91516 201.177674 
L 441.399202 176.650267 
L 442.883245 176.650267 
L 444.367287 201.177674 
L 445.85133 184.82607 
L 447.335372 209.353476 
L 448.819415 176.650267 
L 450.303457 184.82607 
L 451.7875 119.419652 
L 453.271543 193.001872 
L 454.755585 184.82607 
L 456.239628 201.177674 
L 457.72367 193.001872 
L 459.207713 193.001872 
L 460.691755 201.177674 
L 462.175798 160.298663 
L 463.65984 176.650267 
L 465.143883 176.650267 
L 468.111968 193.001872 
L 469.596011 184.82607 
L 471.080053 201.177674 
L 472.564096 209.353476 
L 474.048138 201.177674 
L 475.532181 201.177674 
L 477.016223 193.001872 
L 478.500266 193.001872 
L 479.984309 209.353476 
L 481.468351 201.177674 
L 482.952394 160.298663 
L 484.436436 201.177674 
L 485.920479 168.474465 
L 487.404521 201.177674 
L 488.888564 184.82607 
L 490.372606 193.001872 
L 491.856649 209.353476 
L 493.340691 193.001872 
L 494.824734 209.353476 
L 496.308777 201.177674 
L 497.792819 209.353476 
L 499.276862 209.353476 
L 500.760904 193.001872 
L 502.244947 201.177674 
L 505.213032 201.177674 
L 506.697074 184.82607 
L 508.181117 193.001872 
L 509.66516 209.353476 
L 511.149202 209.353476 
L 512.633245 184.82607 
L 514.117287 184.82607 
L 515.60133 209.353476 
L 517.085372 176.650267 
L 518.569415 78.540642 
L 520.053457 193.001872 
L 521.5375 184.82607 
L 523.021543 168.474465 
L 524.505585 201.177674 
L 525.989628 152.122861 
L 527.47367 176.650267 
L 528.957713 193.001872 
L 530.441755 184.82607 
L 531.925798 193.001872 
L 533.40984 184.82607 
L 534.893883 201.177674 
L 536.377926 193.001872 
L 537.861968 201.177674 
L 540.830053 201.177674 
L 542.314096 168.474465 
L 543.798138 193.001872 
L 545.282181 152.122861 
L 546.766223 209.353476 
L 548.250266 184.82607 
L 549.734309 209.353476 
L 551.218351 209.353476 
L 552.702394 201.177674 
L 554.186436 184.82607 
L 558.638564 209.353476 
L 560.122606 127.595455 
L 561.606649 209.353476 
L 563.090691 209.353476 
L 564.574734 201.177674 
L 566.058777 209.353476 
L 567.542819 193.001872 
L 570.510904 193.001872 
L 571.994947 209.353476 
L 573.478989 201.177674 
L 574.963032 209.353476 
L 576.447074 201.177674 
L 577.931117 176.650267 
L 579.41516 193.001872 
L 580.899202 201.177674 
L 582.383245 184.82607 
L 583.867287 201.177674 
L 585.35133 201.177674 
L 586.835372 184.82607 
L 588.319415 201.177674 
L 591.2875 201.177674 
L 592.771543 209.353476 
L 594.255585 201.177674 
L 595.739628 209.353476 
L 600.191755 209.353476 
L 601.675798 201.177674 
L 603.15984 201.177674 
L 604.643883 209.353476 
L 607.611968 209.353476 
L 609.096011 193.001872 
L 610.580053 201.177674 
L 613.548138 201.177674 
L 615.032181 209.353476 
L 619.484309 209.353476 
L 620.968351 201.177674 
L 622.452394 209.353476 
L 623.936436 201.177674 
L 625.420479 209.353476 
L 626.904521 209.353476 
L 628.388564 201.177674 
L 629.872606 209.353476 
L 631.356649 201.177674 
L 632.840691 209.353476 
L 634.324734 201.177674 
L 635.808777 209.353476 
L 638.776862 193.001872 
L 640.260904 209.353476 
L 641.744947 209.353476 
L 643.228989 201.177674 
L 646.197074 201.177674 
L 647.681117 209.353476 
L 650.649202 209.353476 
L 652.133245 201.177674 
L 653.617287 209.353476 
L 658.069415 209.353476 
L 659.553457 201.177674 
L 661.0375 201.177674 
L 662.521543 209.353476 
L 664.005585 201.177674 
L 665.489628 201.177674 
L 666.97367 209.353476 
L 669.941755 209.353476 
L 671.425798 201.177674 
L 672.90984 209.353476 
L 674.393883 209.353476 
L 675.877926 193.001872 
L 677.361968 209.353476 
L 684.782181 209.353476 
L 686.266223 201.177674 
L 687.750266 209.353476 
L 693.686436 209.353476 
L 695.170479 201.177674 
L 696.654521 201.177674 
L 698.138564 209.353476 
L 702.590691 209.353476 
L 704.074734 201.177674 
L 705.558777 209.353476 
L 708.526862 209.353476 
L 710.010904 201.177674 
L 711.494947 209.353476 
L 720.399202 209.353476 
L 721.883245 201.177674 
L 723.367287 209.353476 
L 724.85133 209.353476 
L 726.335372 176.650267 
L 727.819415 209.353476 
L 733.755585 209.353476 
L 735.239628 201.177674 
L 736.72367 209.353476 
L 738.207713 201.177674 
L 739.691755 209.353476 
L 751.564096 209.353476 
L 753.048138 201.177674 
L 754.532181 209.353476 
L 761.952394 209.353476 
L 763.436436 201.177674 
L 764.920479 209.353476 
L 782.728989 209.353476 
L 784.213032 201.177674 
L 785.697074 209.353476 
L 787.181117 209.353476 
L 788.66516 201.177674 
L 790.149202 209.353476 
L 796.085372 209.353476 
L 797.569415 193.001872 
L 799.053457 201.177674 
L 800.5375 193.001872 
L 802.021543 209.353476 
L 803.505585 209.353476 
L 806.47367 193.001872 
L 807.957713 209.353476 
L 809.441755 201.177674 
L 810.925798 209.353476 
L 816.861968 209.353476 
L 818.346011 193.001872 
L 819.830053 209.353476 
L 824.282181 209.353476 
L 825.766223 201.177674 
L 827.250266 201.177674 
L 828.734309 193.001872 
L 830.218351 193.001872 
L 831.702394 209.353476 
L 833.186436 193.001872 
L 834.670479 209.353476 
L 836.154521 193.001872 
L 837.638564 193.001872 
L 839.122606 209.353476 
L 840.606649 209.353476 
L 842.090691 201.177674 
L 843.574734 201.177674 
L 845.058777 209.353476 
L 846.542819 209.353476 
L 848.026862 201.177674 
L 849.510904 201.177674 
L 850.994947 209.353476 
L 859.899202 209.353476 
L 861.383245 201.177674 
L 862.867287 209.353476 
L 870.2875 209.353476 
L 870.2875 209.353476 
" style="fill:none;stroke:#1f77b4;stroke-linecap:square;stroke-width:1.5;"/>
   </g>
   <g id="line2d_27">
    <path clip-path="url(#p52015c32d3)" d="M 539.346011 215.894118 
L 539.346011 72 
" style="fill:none;stroke:#808080;stroke-dasharray:5.55,2.4;stroke-dashoffset:0;stroke-width:1.5;"/>
   </g>
   <g id="patch_3">
    <path d="M 33.2875 215.894118 
L 33.2875 72 
" style="fill:none;stroke:#000000;stroke-linecap:square;stroke-linejoin:miter;stroke-width:0.8;"/>
   </g>
   <g id="patch_4">
    <path d="M 870.2875 215.894118 
L 870.2875 72 
" style="fill:none;stroke:#000000;stroke-linecap:square;stroke-linejoin:miter;stroke-width:0.8;"/>
   </g>
   <g id="patch_5">
    <path d="M 33.2875 215.894118 
L 870.2875 215.894118 
" style="fill:none;stroke:#000000;stroke-linecap:square;stroke-linejoin:miter;stroke-width:0.8;"/>
   </g>
   <g id="patch_6">
    <path d="M 33.2875 72 
L 870.2875 72 
" style="fill:none;stroke:#000000;stroke-linecap:square;stroke-linejoin:miter;stroke-width:0.8;"/>
   </g>
   <g id="legend_1">
    <g id="patch_7">
     <path d="M 768.239063 94.95625 
L 863.2875 94.95625 
Q 865.2875 94.95625 865.2875 92.95625 
L 865.2875 79 
Q 865.2875 77 863.2875 77 
L 768.239063 77 
Q 766.239063 77 766.239063 79 
L 766.239063 92.95625 
Q 766.239063 94.95625 768.239063 94.95625 
z
" style="fill:#ffffff;opacity:0.8;stroke:#cccccc;stroke-linejoin:miter;"/>
    </g>
    <g id="line2d_28">
     <path d="M 770.239063 85.098437 
L 790.239063 85.098437 
" style="fill:none;stroke:#1f77b4;stroke-linecap:square;stroke-width:1.5;"/>
    </g>
    <g id="line2d_29"/>
    <g id="text_12">
     <!-- daily_deaths -->
     <g transform="translate(798.239063 88.598437)scale(0.1 -0.1)">
      <defs>
       <path d="M 9.421875 54.6875 
L 18.40625 54.6875 
L 18.40625 0 
L 9.421875 0 
z
M 9.421875 75.984375 
L 18.40625 75.984375 
L 18.40625 64.59375 
L 9.421875 64.59375 
z
" id="DejaVuSans-105"/>
       <path d="M 32.171875 -5.078125 
Q 28.375 -14.84375 24.75 -17.8125 
Q 21.140625 -20.796875 15.09375 -20.796875 
L 7.90625 -20.796875 
L 7.90625 -13.28125 
L 13.1875 -13.28125 
Q 16.890625 -13.28125 18.9375 -11.515625 
Q 21 -9.765625 23.484375 -3.21875 
L 25.09375 0.875 
L 2.984375 54.6875 
L 12.5 54.6875 
L 29.59375 11.921875 
L 46.6875 54.6875 
L 56.203125 54.6875 
z
" id="DejaVuSans-121"/>
       <path d="M 50.984375 -16.609375 
L 50.984375 -23.578125 
L -0.984375 -23.578125 
L -0.984375 -16.609375 
z
" id="DejaVuSans-95"/>
       <path d="M 54.890625 33.015625 
L 54.890625 0 
L 45.90625 0 
L 45.90625 32.71875 
Q 45.90625 40.484375 42.875 44.328125 
Q 39.84375 48.1875 33.796875 48.1875 
Q 26.515625 48.1875 22.3125 43.546875 
Q 18.109375 38.921875 18.109375 30.90625 
L 18.109375 0 
L 9.078125 0 
L 9.078125 75.984375 
L 18.109375 75.984375 
L 18.109375 46.1875 
Q 21.34375 51.125 25.703125 53.5625 
Q 30.078125 56 35.796875 56 
Q 45.21875 56 50.046875 50.171875 
Q 54.890625 44.34375 54.890625 33.015625 
z
" id="DejaVuSans-104"/>
       <path d="M 44.28125 53.078125 
L 44.28125 44.578125 
Q 40.484375 46.53125 36.375 47.5 
Q 32.28125 48.484375 27.875 48.484375 
Q 21.1875 48.484375 17.84375 46.4375 
Q 14.5 44.390625 14.5 40.28125 
Q 14.5 37.15625 16.890625 35.375 
Q 19.28125 33.59375 26.515625 31.984375 
L 29.59375 31.296875 
Q 39.15625 29.25 43.1875 25.515625 
Q 47.21875 21.78125 47.21875 15.09375 
Q 47.21875 7.46875 41.1875 3.015625 
Q 35.15625 -1.421875 24.609375 -1.421875 
Q 20.21875 -1.421875 15.453125 -0.5625 
Q 10.6875 0.296875 5.421875 2 
L 5.421875 11.28125 
Q 10.40625 8.6875 15.234375 7.390625 
Q 20.0625 6.109375 24.8125 6.109375 
Q 31.15625 6.109375 34.5625 8.28125 
Q 37.984375 10.453125 37.984375 14.40625 
Q 37.984375 18.0625 35.515625 20.015625 
Q 33.0625 21.96875 24.703125 23.78125 
L 21.578125 24.515625 
Q 13.234375 26.265625 9.515625 29.90625 
Q 5.8125 33.546875 5.8125 39.890625 
Q 5.8125 47.609375 11.28125 51.796875 
Q 16.75 56 26.8125 56 
Q 31.78125 56 36.171875 55.265625 
Q 40.578125 54.546875 44.28125 53.078125 
z
" id="DejaVuSans-115"/>
      </defs>
      <use xlink:href="#DejaVuSans-100"/>
      <use x="63.476562" xlink:href="#DejaVuSans-97"/>
      <use x="124.755859" xlink:href="#DejaVuSans-105"/>
      <use x="152.539062" xlink:href="#DejaVuSans-108"/>
      <use x="180.322266" xlink:href="#DejaVuSans-121"/>
      <use x="239.501953" xlink:href="#DejaVuSans-95"/>
      <use x="289.501953" xlink:href="#DejaVuSans-100"/>
      <use x="352.978516" xlink:href="#DejaVuSans-101"/>
      <use x="414.501953" xlink:href="#DejaVuSans-97"/>
      <use x="475.78125" xlink:href="#DejaVuSans-116"/>
      <use x="514.990234" xlink:href="#DejaVuSans-104"/>
      <use x="578.369141" xlink:href="#DejaVuSans-115"/>
     </g>
    </g>
   </g>
  </g>
  <g id="axes_2">
   <g id="patch_8">
    <path d="M 33.2875 388.567059 
L 870.2875 388.567059 
L 870.2875 244.672941 
L 33.2875 244.672941 
z
" style="fill:#ffffff;"/>
   </g>
   <g id="matplotlib.axis_3">
    <g id="xtick_22">
     <g id="line2d_30">
      <g>
       <use style="stroke:#000000;stroke-width:0.8;" x="33.2875" xlink:href="#m838223d43b" y="388.567059"/>
      </g>
     </g>
    </g>
    <g id="xtick_23">
     <g id="line2d_31">
      <g>
       <use style="stroke:#000000;stroke-width:0.8;" x="80.776862" xlink:href="#m838223d43b" y="388.567059"/>
      </g>
     </g>
     <g id="text_13">
      <!-- Apr -->
      <g transform="translate(72.126862 403.165496)scale(0.1 -0.1)">
       <use xlink:href="#DejaVuSans-65"/>
       <use x="68.408203" xlink:href="#DejaVuSans-112"/>
       <use x="131.884766" xlink:href="#DejaVuSans-114"/>
      </g>
     </g>
    </g>
    <g id="xtick_24">
     <g id="line2d_32">
      <g>
       <use style="stroke:#000000;stroke-width:0.8;" x="215.824734" xlink:href="#m838223d43b" y="388.567059"/>
      </g>
     </g>
     <g id="text_14">
      <!-- Jul -->
      <g transform="translate(209.791922 403.165496)scale(0.1 -0.1)">
       <use xlink:href="#DejaVuSans-74"/>
       <use x="29.492188" xlink:href="#DejaVuSans-117"/>
       <use x="92.871094" xlink:href="#DejaVuSans-108"/>
      </g>
     </g>
    </g>
    <g id="xtick_25">
     <g id="line2d_33">
      <g>
       <use style="stroke:#000000;stroke-width:0.8;" x="352.356649" xlink:href="#m838223d43b" y="388.567059"/>
      </g>
     </g>
     <g id="text_15">
      <!-- Oct -->
      <g transform="translate(343.711336 403.165496)scale(0.1 -0.1)">
       <use xlink:href="#DejaVuSans-79"/>
       <use x="78.710938" xlink:href="#DejaVuSans-99"/>
       <use x="133.691406" xlink:href="#DejaVuSans-116"/>
      </g>
     </g>
    </g>
    <g id="xtick_26">
     <g id="line2d_34">
      <g>
       <use style="stroke:#000000;stroke-width:0.8;" x="488.888564" xlink:href="#m838223d43b" y="388.567059"/>
      </g>
     </g>
     <g id="text_16">
      <!-- Jan -->
      <g transform="translate(481.180751 403.165496)scale(0.1 -0.1)">
       <use xlink:href="#DejaVuSans-74"/>
       <use x="29.492188" xlink:href="#DejaVuSans-97"/>
       <use x="90.771484" xlink:href="#DejaVuSans-110"/>
      </g>
      <!-- 2021 -->
      <g transform="translate(476.163564 414.363309)scale(0.1 -0.1)">
       <use xlink:href="#DejaVuSans-50"/>
       <use x="63.623047" xlink:href="#DejaVuSans-48"/>
       <use x="127.246094" xlink:href="#DejaVuSans-50"/>
       <use x="190.869141" xlink:href="#DejaVuSans-49"/>
      </g>
     </g>
    </g>
    <g id="xtick_27">
     <g id="line2d_35">
      <g>
       <use style="stroke:#000000;stroke-width:0.8;" x="622.452394" xlink:href="#m838223d43b" y="388.567059"/>
      </g>
     </g>
     <g id="text_17">
      <!-- Apr -->
      <g transform="translate(613.802394 403.165496)scale(0.1 -0.1)">
       <use xlink:href="#DejaVuSans-65"/>
       <use x="68.408203" xlink:href="#DejaVuSans-112"/>
       <use x="131.884766" xlink:href="#DejaVuSans-114"/>
      </g>
     </g>
    </g>
    <g id="xtick_28">
     <g id="line2d_36">
      <g>
       <use style="stroke:#000000;stroke-width:0.8;" x="757.500266" xlink:href="#m838223d43b" y="388.567059"/>
      </g>
     </g>
     <g id="text_18">
      <!-- Jul -->
      <g transform="translate(751.467453 403.165496)scale(0.1 -0.1)">
       <use xlink:href="#DejaVuSans-74"/>
       <use x="29.492188" xlink:href="#DejaVuSans-117"/>
       <use x="92.871094" xlink:href="#DejaVuSans-108"/>
      </g>
     </g>
    </g>
    <g id="xtick_29">
     <g id="line2d_37">
      <g>
       <use style="stroke:#000000;stroke-width:0.8;" x="870.2875" xlink:href="#m838223d43b" y="388.567059"/>
      </g>
     </g>
    </g>
    <g id="xtick_30">
     <g id="line2d_38">
      <g>
       <use style="stroke:#000000;stroke-width:0.6;" x="34.771543" xlink:href="#meefa531db7" y="388.567059"/>
      </g>
     </g>
    </g>
    <g id="xtick_31">
     <g id="line2d_39">
      <g>
       <use style="stroke:#000000;stroke-width:0.6;" x="125.298138" xlink:href="#meefa531db7" y="388.567059"/>
      </g>
     </g>
    </g>
    <g id="xtick_32">
     <g id="line2d_40">
      <g>
       <use style="stroke:#000000;stroke-width:0.6;" x="171.303457" xlink:href="#meefa531db7" y="388.567059"/>
      </g>
     </g>
    </g>
    <g id="xtick_33">
     <g id="line2d_41">
      <g>
       <use style="stroke:#000000;stroke-width:0.6;" x="261.830053" xlink:href="#meefa531db7" y="388.567059"/>
      </g>
     </g>
    </g>
    <g id="xtick_34">
     <g id="line2d_42">
      <g>
       <use style="stroke:#000000;stroke-width:0.6;" x="307.835372" xlink:href="#meefa531db7" y="388.567059"/>
      </g>
     </g>
    </g>
    <g id="xtick_35">
     <g id="line2d_43">
      <g>
       <use style="stroke:#000000;stroke-width:0.6;" x="398.361968" xlink:href="#meefa531db7" y="388.567059"/>
      </g>
     </g>
    </g>
    <g id="xtick_36">
     <g id="line2d_44">
      <g>
       <use style="stroke:#000000;stroke-width:0.6;" x="442.883245" xlink:href="#meefa531db7" y="388.567059"/>
      </g>
     </g>
    </g>
    <g id="xtick_37">
     <g id="line2d_45">
      <g>
       <use style="stroke:#000000;stroke-width:0.6;" x="534.893883" xlink:href="#meefa531db7" y="388.567059"/>
      </g>
     </g>
    </g>
    <g id="xtick_38">
     <g id="line2d_46">
      <g>
       <use style="stroke:#000000;stroke-width:0.6;" x="576.447074" xlink:href="#meefa531db7" y="388.567059"/>
      </g>
     </g>
    </g>
    <g id="xtick_39">
     <g id="line2d_47">
      <g>
       <use style="stroke:#000000;stroke-width:0.6;" x="666.97367" xlink:href="#meefa531db7" y="388.567059"/>
      </g>
     </g>
    </g>
    <g id="xtick_40">
     <g id="line2d_48">
      <g>
       <use style="stroke:#000000;stroke-width:0.6;" x="712.978989" xlink:href="#meefa531db7" y="388.567059"/>
      </g>
     </g>
    </g>
    <g id="xtick_41">
     <g id="line2d_49">
      <g>
       <use style="stroke:#000000;stroke-width:0.6;" x="803.505585" xlink:href="#meefa531db7" y="388.567059"/>
      </g>
     </g>
    </g>
    <g id="xtick_42">
     <g id="line2d_50">
      <g>
       <use style="stroke:#000000;stroke-width:0.6;" x="849.510904" xlink:href="#meefa531db7" y="388.567059"/>
      </g>
     </g>
    </g>
    <g id="text_19">
     <!-- date -->
     <g transform="translate(440.5125 428.041434)scale(0.1 -0.1)">
      <use xlink:href="#DejaVuSans-100"/>
      <use x="63.476562" xlink:href="#DejaVuSans-97"/>
      <use x="124.755859" xlink:href="#DejaVuSans-116"/>
      <use x="163.964844" xlink:href="#DejaVuSans-101"/>
     </g>
    </g>
   </g>
   <g id="matplotlib.axis_4">
    <g id="ytick_5">
     <g id="line2d_51">
      <g>
       <use style="stroke:#000000;stroke-width:0.8;" x="33.2875" xlink:href="#m7503ed53b4" y="382.351822"/>
      </g>
     </g>
     <g id="text_20">
      <!-- 0 -->
      <g transform="translate(19.925 386.151041)scale(0.1 -0.1)">
       <use xlink:href="#DejaVuSans-48"/>
      </g>
     </g>
    </g>
    <g id="ytick_6">
     <g id="line2d_52">
      <g>
       <use style="stroke:#000000;stroke-width:0.8;" x="33.2875" xlink:href="#m7503ed53b4" y="349.811316"/>
      </g>
     </g>
     <g id="text_21">
      <!-- 100 -->
      <g transform="translate(7.2 353.610535)scale(0.1 -0.1)">
       <use xlink:href="#DejaVuSans-49"/>
       <use x="63.623047" xlink:href="#DejaVuSans-48"/>
       <use x="127.246094" xlink:href="#DejaVuSans-48"/>
      </g>
     </g>
    </g>
    <g id="ytick_7">
     <g id="line2d_53">
      <g>
       <use style="stroke:#000000;stroke-width:0.8;" x="33.2875" xlink:href="#m7503ed53b4" y="317.27081"/>
      </g>
     </g>
     <g id="text_22">
      <!-- 200 -->
      <g transform="translate(7.2 321.070029)scale(0.1 -0.1)">
       <use xlink:href="#DejaVuSans-50"/>
       <use x="63.623047" xlink:href="#DejaVuSans-48"/>
       <use x="127.246094" xlink:href="#DejaVuSans-48"/>
      </g>
     </g>
    </g>
    <g id="ytick_8">
     <g id="line2d_54">
      <g>
       <use style="stroke:#000000;stroke-width:0.8;" x="33.2875" xlink:href="#m7503ed53b4" y="284.730304"/>
      </g>
     </g>
     <g id="text_23">
      <!-- 300 -->
      <g transform="translate(7.2 288.529523)scale(0.1 -0.1)">
       <defs>
        <path d="M 40.578125 39.3125 
Q 47.65625 37.796875 51.625 33 
Q 55.609375 28.21875 55.609375 21.1875 
Q 55.609375 10.40625 48.1875 4.484375 
Q 40.765625 -1.421875 27.09375 -1.421875 
Q 22.515625 -1.421875 17.65625 -0.515625 
Q 12.796875 0.390625 7.625 2.203125 
L 7.625 11.71875 
Q 11.71875 9.328125 16.59375 8.109375 
Q 21.484375 6.890625 26.8125 6.890625 
Q 36.078125 6.890625 40.9375 10.546875 
Q 45.796875 14.203125 45.796875 21.1875 
Q 45.796875 27.640625 41.28125 31.265625 
Q 36.765625 34.90625 28.71875 34.90625 
L 20.21875 34.90625 
L 20.21875 43.015625 
L 29.109375 43.015625 
Q 36.375 43.015625 40.234375 45.921875 
Q 44.09375 48.828125 44.09375 54.296875 
Q 44.09375 59.90625 40.109375 62.90625 
Q 36.140625 65.921875 28.71875 65.921875 
Q 24.65625 65.921875 20.015625 65.03125 
Q 15.375 64.15625 9.8125 62.3125 
L 9.8125 71.09375 
Q 15.4375 72.65625 20.34375 73.4375 
Q 25.25 74.21875 29.59375 74.21875 
Q 40.828125 74.21875 47.359375 69.109375 
Q 53.90625 64.015625 53.90625 55.328125 
Q 53.90625 49.265625 50.4375 45.09375 
Q 46.96875 40.921875 40.578125 39.3125 
z
" id="DejaVuSans-51"/>
       </defs>
       <use xlink:href="#DejaVuSans-51"/>
       <use x="63.623047" xlink:href="#DejaVuSans-48"/>
       <use x="127.246094" xlink:href="#DejaVuSans-48"/>
      </g>
     </g>
    </g>
    <g id="ytick_9">
     <g id="line2d_55">
      <g>
       <use style="stroke:#000000;stroke-width:0.8;" x="33.2875" xlink:href="#m7503ed53b4" y="252.189798"/>
      </g>
     </g>
     <g id="text_24">
      <!-- 400 -->
      <g transform="translate(7.2 255.989017)scale(0.1 -0.1)">
       <defs>
        <path d="M 37.796875 64.3125 
L 12.890625 25.390625 
L 37.796875 25.390625 
z
M 35.203125 72.90625 
L 47.609375 72.90625 
L 47.609375 25.390625 
L 58.015625 25.390625 
L 58.015625 17.1875 
L 47.609375 17.1875 
L 47.609375 0 
L 37.796875 0 
L 37.796875 17.1875 
L 4.890625 17.1875 
L 4.890625 26.703125 
z
" id="DejaVuSans-52"/>
       </defs>
       <use xlink:href="#DejaVuSans-52"/>
       <use x="63.623047" xlink:href="#DejaVuSans-48"/>
       <use x="127.246094" xlink:href="#DejaVuSans-48"/>
      </g>
     </g>
    </g>
   </g>
   <g id="line2d_56">
    <path clip-path="url(#p3d002596d2)" d="M 33.2875 382.026417 
L 48.127926 382.026417 
L 49.611968 381.050202 
L 52.580053 380.399392 
L 54.064096 379.423177 
L 55.548138 379.097772 
L 57.032181 377.796151 
L 58.516223 373.565886 
L 60.000266 367.383189 
L 61.484309 358.271848 
L 62.968351 351.763747 
L 65.936436 334.517278 
L 67.420479 321.501076 
L 68.904521 305.230823 
L 70.388564 285.381114 
L 71.872606 270.087076 
L 73.356649 262.928165 
L 74.840691 255.118444 
L 76.324734 256.745469 
L 77.808777 251.213583 
L 79.292819 256.745469 
L 80.776862 265.206 
L 82.260904 266.833026 
L 83.744947 265.856811 
L 85.228989 268.785456 
L 86.713032 264.880595 
L 88.197074 275.293557 
L 89.681117 278.222203 
L 91.16516 280.825443 
L 92.649202 279.523823 
L 94.133245 281.150848 
L 95.617287 281.150848 
L 97.10133 280.174633 
L 98.585372 287.65895 
L 100.069415 298.722722 
L 101.553457 300.675152 
L 103.0375 306.857848 
L 104.521543 313.691354 
L 106.005585 314.342165 
L 107.489628 311.738924 
L 108.97367 316.945405 
L 110.457713 319.874051 
L 111.941755 321.501076 
L 113.425798 332.564848 
L 114.90984 337.120519 
L 116.393883 334.842683 
L 117.877926 337.120519 
L 119.361968 342.652405 
L 122.330053 351.112936 
L 123.814096 356.644822 
L 125.298138 356.970227 
L 126.782181 358.922658 
L 128.266223 359.248063 
L 129.750266 366.081569 
L 131.234309 368.359405 
L 132.718351 369.98643 
L 134.202394 370.962645 
L 135.686436 371.613455 
L 137.170479 371.613455 
L 138.654521 371.28805 
L 140.138564 374.216696 
L 141.622606 374.542101 
L 143.106649 375.518316 
L 144.590691 375.843721 
L 146.074734 376.819936 
L 147.558777 377.145341 
L 149.042819 376.819936 
L 150.526862 377.796151 
L 152.010904 377.796151 
L 153.494947 379.423177 
L 154.978989 379.097772 
L 156.463032 378.446961 
L 159.431117 379.097772 
L 160.91516 378.446961 
L 162.399202 380.399392 
L 163.883245 380.399392 
L 165.367287 379.748582 
L 168.335372 379.748582 
L 171.303457 379.097772 
L 172.7875 379.748582 
L 174.271543 379.423177 
L 175.755585 380.724797 
L 177.239628 380.399392 
L 178.72367 380.399392 
L 181.691755 379.748582 
L 183.175798 379.748582 
L 184.65984 380.399392 
L 186.143883 380.724797 
L 187.627926 380.724797 
L 189.111968 380.399392 
L 193.564096 380.399392 
L 195.048138 381.050202 
L 196.532181 381.375607 
L 198.016223 381.375607 
L 199.500266 381.050202 
L 202.468351 381.050202 
L 203.952394 380.399392 
L 205.436436 380.724797 
L 206.920479 381.701012 
L 211.372606 381.701012 
L 212.856649 381.375607 
L 214.340691 381.701012 
L 215.824734 381.701012 
L 217.308777 382.026417 
L 232.149202 382.026417 
L 233.633245 381.375607 
L 235.117287 381.701012 
L 236.60133 381.375607 
L 239.569415 382.026417 
L 241.053457 381.701012 
L 242.5375 381.701012 
L 244.021543 382.026417 
L 245.505585 381.701012 
L 246.989628 382.026417 
L 248.47367 381.701012 
L 249.957713 382.026417 
L 252.925798 382.026417 
L 254.40984 381.701012 
L 257.377926 381.701012 
L 258.861968 380.073987 
L 260.346011 380.073987 
L 263.314096 378.121556 
L 266.282181 377.470746 
L 267.766223 377.470746 
L 269.250266 377.145341 
L 275.186436 377.145341 
L 276.670479 377.796151 
L 279.638564 377.145341 
L 281.122606 375.192911 
L 282.606649 373.891291 
L 285.574734 375.192911 
L 287.058777 374.867506 
L 288.542819 373.891291 
L 290.026862 373.24048 
L 291.510904 370.63724 
L 292.994947 372.264265 
L 297.447074 373.24048 
L 298.931117 372.915075 
L 300.41516 373.565886 
L 303.383245 372.264265 
L 306.35133 370.311835 
L 307.835372 367.057784 
L 309.319415 368.359405 
L 310.803457 367.708594 
L 312.2875 368.68481 
L 313.771543 366.081569 
L 315.255585 364.779949 
L 316.739628 366.406974 
L 318.22367 368.359405 
L 319.707713 364.129139 
L 321.191755 363.478329 
L 322.675798 365.105354 
L 324.15984 361.200493 
L 325.643883 358.597253 
L 327.127926 360.549683 
L 328.611968 359.898873 
L 331.580053 361.200493 
L 333.064096 360.875088 
L 334.548138 358.922658 
L 336.032181 357.621038 
L 337.516223 357.946443 
L 339.000266 359.898873 
L 340.484309 363.478329 
L 341.968351 362.502113 
L 343.452394 363.803734 
L 344.936436 363.152924 
L 346.420479 364.129139 
L 347.904521 364.454544 
L 349.388564 364.454544 
L 350.872606 365.430759 
L 352.356649 365.105354 
L 353.840691 368.034 
L 355.324734 368.359405 
L 358.292819 368.359405 
L 359.776862 368.68481 
L 361.260904 369.98643 
L 362.744947 369.661025 
L 364.228989 370.962645 
L 365.713032 371.613455 
L 367.197074 370.311835 
L 368.681117 368.68481 
L 370.16516 369.010215 
L 371.649202 369.98643 
L 374.617287 371.28805 
L 376.10133 369.33562 
L 377.585372 365.756164 
L 379.069415 363.478329 
L 380.553457 363.478329 
L 382.0375 364.129139 
L 383.521543 363.478329 
L 385.005585 360.549683 
L 386.489628 358.922658 
L 387.97367 356.970227 
L 389.457713 354.692392 
L 390.941755 349.811316 
L 392.425798 346.557266 
L 393.90984 345.58105 
L 395.393883 342.652405 
L 398.361968 334.517278 
L 399.846011 331.263228 
L 401.330053 333.866468 
L 402.814096 334.191873 
L 404.298138 334.191873 
L 405.782181 330.937823 
L 407.266223 331.263228 
L 408.750266 324.755127 
L 410.234309 324.104316 
L 411.718351 319.874051 
L 413.202394 318.247025 
L 414.686436 318.57243 
L 416.170479 324.429721 
L 417.654521 320.199456 
L 419.138564 318.247025 
L 420.622606 320.850266 
L 422.106649 317.596215 
L 423.590691 319.548646 
L 426.558777 324.104316 
L 428.042819 323.128101 
L 429.526862 323.128101 
L 431.010904 329.310797 
L 432.494947 324.429721 
L 433.978989 322.802696 
L 435.463032 328.659987 
L 436.947074 330.937823 
L 438.431117 328.334582 
L 439.91516 327.358367 
L 441.399202 328.334582 
L 442.883245 327.358367 
L 444.367287 324.755127 
L 445.85133 325.405937 
L 447.335372 327.358367 
L 448.819415 327.358367 
L 450.303457 326.707557 
L 451.7875 332.239443 
L 453.271543 330.937823 
L 454.755585 331.914038 
L 456.239628 333.541063 
L 457.72367 338.096734 
L 459.207713 337.120519 
L 460.691755 334.191873 
L 462.175798 337.120519 
L 463.65984 339.072949 
L 465.143883 340.374569 
L 466.627926 342.97781 
L 468.111968 345.906455 
L 469.596011 346.23186 
L 471.080053 345.906455 
L 472.564096 346.23186 
L 475.532181 356.970227 
L 477.016223 356.970227 
L 478.500266 354.692392 
L 479.984309 352.739962 
L 482.952394 354.692392 
L 484.436436 355.017797 
L 485.920479 352.739962 
L 487.404521 352.089152 
L 490.372606 352.089152 
L 491.856649 350.787531 
L 493.340691 353.065367 
L 496.308777 349.811316 
L 497.792819 347.858886 
L 499.276862 344.27943 
L 500.760904 338.747544 
L 502.244947 337.445924 
L 505.213032 334.191873 
L 506.697074 329.636202 
L 508.181117 328.009177 
L 509.66516 331.588633 
L 511.149202 323.778911 
L 512.633245 320.850266 
L 514.117287 321.175671 
L 515.60133 322.477291 
L 517.085372 323.128101 
L 518.569415 319.548646 
L 520.053457 317.92162 
L 523.021543 315.96919 
L 524.505585 314.66757 
L 525.989628 315.31838 
L 527.47367 316.62 
L 528.957713 312.064329 
L 530.441755 315.96919 
L 531.925798 314.342165 
L 533.40984 313.040544 
L 534.893883 317.27081 
L 536.377926 324.104316 
L 537.861968 325.731342 
L 539.346011 329.310797 
L 540.830053 334.842683 
L 542.314096 334.517278 
L 543.798138 331.588633 
L 545.282181 332.564848 
L 546.766223 334.191873 
L 548.250266 335.168088 
L 549.734309 336.469709 
L 551.218351 339.072949 
L 552.702394 336.144304 
L 554.186436 335.168088 
L 555.670479 336.144304 
L 557.154521 340.374569 
L 558.638564 342.001595 
L 560.122606 341.02538 
L 561.606649 343.62862 
L 563.090691 341.67619 
L 564.574734 339.398354 
L 566.058777 338.747544 
L 567.542819 340.374569 
L 569.026862 341.350785 
L 570.510904 343.954025 
L 571.994947 347.858886 
L 573.478989 346.23186 
L 574.963032 345.58105 
L 576.447074 351.112936 
L 577.931117 351.438341 
L 579.41516 354.692392 
L 580.899202 356.644822 
L 583.867287 359.248063 
L 588.319415 357.295633 
L 589.803457 357.621038 
L 591.2875 358.271848 
L 592.771543 361.525898 
L 594.255585 359.248063 
L 595.739628 357.295633 
L 597.22367 360.549683 
L 598.707713 362.502113 
L 600.191755 361.200493 
L 601.675798 360.875088 
L 603.15984 362.176708 
L 604.643883 360.549683 
L 606.127926 359.898873 
L 607.611968 361.525898 
L 609.096011 363.478329 
L 610.580053 363.152924 
L 612.064096 363.803734 
L 613.548138 363.152924 
L 615.032181 360.549683 
L 618.000266 356.644822 
L 619.484309 356.644822 
L 620.968351 358.597253 
L 622.452394 357.621038 
L 623.936436 355.668607 
L 625.420479 355.017797 
L 626.904521 355.343202 
L 629.872606 360.549683 
L 634.324734 358.597253 
L 635.808777 356.319417 
L 637.292819 354.366987 
L 638.776862 354.366987 
L 640.260904 355.343202 
L 641.744947 354.041582 
L 643.228989 353.065367 
L 644.713032 354.692392 
L 646.197074 354.041582 
L 647.681117 352.739962 
L 649.16516 351.763747 
L 650.649202 352.414557 
L 652.133245 353.390772 
L 653.617287 351.112936 
L 655.10133 352.414557 
L 656.585372 349.485911 
L 658.069415 347.533481 
L 659.553457 346.23186 
L 661.0375 346.882671 
L 662.521543 349.811316 
L 664.005585 349.485911 
L 665.489628 351.763747 
L 666.97367 347.533481 
L 668.457713 344.27943 
L 669.941755 343.303215 
L 671.425798 345.255645 
L 672.90984 347.533481 
L 674.393883 347.858886 
L 675.877926 347.858886 
L 677.361968 345.255645 
L 678.846011 345.255645 
L 680.330053 348.835101 
L 681.814096 349.811316 
L 683.298138 350.462126 
L 684.782181 351.438341 
L 686.266223 354.366987 
L 687.750266 355.017797 
L 689.234309 354.366987 
L 690.718351 358.271848 
L 692.202394 358.271848 
L 693.686436 358.922658 
L 695.170479 361.200493 
L 696.654521 368.68481 
L 698.138564 367.383189 
L 699.622606 367.057784 
L 701.106649 367.708594 
L 702.590691 369.661025 
L 704.074734 370.63724 
L 705.558777 372.915075 
L 707.042819 372.915075 
L 710.010904 372.264265 
L 712.978989 372.264265 
L 714.463032 372.915075 
L 715.947074 373.24048 
L 720.399202 371.28805 
L 721.883245 369.98643 
L 723.367287 372.264265 
L 724.85133 374.867506 
L 726.335372 374.542101 
L 727.819415 376.169126 
L 729.303457 375.192911 
L 730.7875 373.565886 
L 732.271543 373.24048 
L 733.755585 372.58967 
L 735.239628 373.565886 
L 736.72367 373.565886 
L 738.207713 375.518316 
L 741.175798 374.216696 
L 742.65984 374.867506 
L 744.143883 375.843721 
L 745.627926 376.169126 
L 747.111968 375.843721 
L 748.596011 376.819936 
L 750.080053 376.494531 
L 751.564096 375.192911 
L 753.048138 376.169126 
L 754.532181 376.169126 
L 756.016223 375.843721 
L 757.500266 375.192911 
L 758.984309 376.169126 
L 760.468351 374.542101 
L 761.952394 371.93886 
L 763.436436 370.962645 
L 766.404521 367.057784 
L 767.888564 365.430759 
L 769.372606 367.708594 
L 772.340691 364.454544 
L 773.824734 365.105354 
L 775.308777 365.105354 
L 776.792819 363.478329 
L 778.276862 361.200493 
L 779.760904 363.152924 
L 781.244947 359.898873 
L 782.728989 357.295633 
L 784.213032 355.994012 
L 785.697074 356.644822 
L 787.181117 353.716177 
L 788.66516 352.414557 
L 790.149202 352.739962 
L 791.633245 349.811316 
L 793.117287 345.906455 
L 794.60133 344.27943 
L 796.085372 346.23186 
L 797.569415 345.906455 
L 799.053457 347.208076 
L 800.5375 350.462126 
L 802.021543 349.811316 
L 803.505585 347.533481 
L 804.989628 351.438341 
L 806.47367 351.112936 
L 807.957713 351.763747 
L 809.441755 350.787531 
L 810.925798 349.485911 
L 812.40984 349.160506 
L 813.893883 347.533481 
L 815.377926 348.509696 
L 816.861968 348.509696 
L 818.346011 347.858886 
L 819.830053 348.835101 
L 821.314096 351.763747 
L 822.798138 350.787531 
L 824.282181 347.533481 
L 825.766223 349.485911 
L 827.250266 353.390772 
L 828.734309 353.716177 
L 830.218351 356.644822 
L 831.702394 355.994012 
L 833.186436 354.041582 
L 834.670479 352.739962 
L 836.154521 351.763747 
L 837.638564 354.041582 
L 839.122606 355.994012 
L 840.606649 358.271848 
L 842.090691 361.851303 
L 843.574734 361.200493 
L 845.058777 359.573468 
L 846.542819 359.573468 
L 848.026862 366.081569 
L 849.510904 367.383189 
L 850.994947 367.383189 
L 852.478989 368.68481 
L 853.963032 367.708594 
L 855.447074 367.057784 
L 856.931117 368.359405 
L 859.899202 369.661025 
L 861.383245 370.63724 
L 862.867287 370.962645 
L 864.35133 369.33562 
L 865.835372 369.33562 
L 867.319415 371.28805 
L 868.803457 371.93886 
L 870.2875 369.010215 
L 870.2875 369.010215 
" style="fill:none;stroke:#ff7f0e;stroke-linecap:square;stroke-width:1.5;"/>
   </g>
   <g id="line2d_57">
    <path clip-path="url(#p3d002596d2)" d="M 539.346011 388.567059 
L 539.346011 244.672941 
" style="fill:none;stroke:#808080;stroke-dasharray:5.55,2.4;stroke-dashoffset:0;stroke-width:1.5;"/>
   </g>
   <g id="patch_9">
    <path d="M 33.2875 388.567059 
L 33.2875 244.672941 
" style="fill:none;stroke:#000000;stroke-linecap:square;stroke-linejoin:miter;stroke-width:0.8;"/>
   </g>
   <g id="patch_10">
    <path d="M 870.2875 388.567059 
L 870.2875 244.672941 
" style="fill:none;stroke:#000000;stroke-linecap:square;stroke-linejoin:miter;stroke-width:0.8;"/>
   </g>
   <g id="patch_11">
    <path d="M 33.2875 388.567059 
L 870.2875 388.567059 
" style="fill:none;stroke:#000000;stroke-linecap:square;stroke-linejoin:miter;stroke-width:0.8;"/>
   </g>
   <g id="patch_12">
    <path d="M 33.2875 244.672941 
L 870.2875 244.672941 
" style="fill:none;stroke:#000000;stroke-linecap:square;stroke-linejoin:miter;stroke-width:0.8;"/>
   </g>
   <g id="legend_2">
    <g id="patch_13">
     <path d="M 769.553125 267.629191 
L 863.2875 267.629191 
Q 865.2875 267.629191 865.2875 265.629191 
L 865.2875 251.672941 
Q 865.2875 249.672941 863.2875 249.672941 
L 769.553125 249.672941 
Q 767.553125 249.672941 767.553125 251.672941 
L 767.553125 265.629191 
Q 767.553125 267.629191 769.553125 267.629191 
z
" style="fill:#ffffff;opacity:0.8;stroke:#cccccc;stroke-linejoin:miter;"/>
    </g>
    <g id="line2d_58">
     <path d="M 771.553125 257.771379 
L 791.553125 257.771379 
" style="fill:none;stroke:#ff7f0e;stroke-linecap:square;stroke-width:1.5;"/>
    </g>
    <g id="line2d_59"/>
    <g id="text_25">
     <!-- hospital_occ -->
     <g transform="translate(799.553125 261.271379)scale(0.1 -0.1)">
      <defs>
       <path d="M 30.609375 48.390625 
Q 23.390625 48.390625 19.1875 42.75 
Q 14.984375 37.109375 14.984375 27.296875 
Q 14.984375 17.484375 19.15625 11.84375 
Q 23.34375 6.203125 30.609375 6.203125 
Q 37.796875 6.203125 41.984375 11.859375 
Q 46.1875 17.53125 46.1875 27.296875 
Q 46.1875 37.015625 41.984375 42.703125 
Q 37.796875 48.390625 30.609375 48.390625 
z
M 30.609375 56 
Q 42.328125 56 49.015625 48.375 
Q 55.71875 40.765625 55.71875 27.296875 
Q 55.71875 13.875 49.015625 6.21875 
Q 42.328125 -1.421875 30.609375 -1.421875 
Q 18.84375 -1.421875 12.171875 6.21875 
Q 5.515625 13.875 5.515625 27.296875 
Q 5.515625 40.765625 12.171875 48.375 
Q 18.84375 56 30.609375 56 
z
" id="DejaVuSans-111"/>
      </defs>
      <use xlink:href="#DejaVuSans-104"/>
      <use x="63.378906" xlink:href="#DejaVuSans-111"/>
      <use x="124.560547" xlink:href="#DejaVuSans-115"/>
      <use x="176.660156" xlink:href="#DejaVuSans-112"/>
      <use x="240.136719" xlink:href="#DejaVuSans-105"/>
      <use x="267.919922" xlink:href="#DejaVuSans-116"/>
      <use x="307.128906" xlink:href="#DejaVuSans-97"/>
      <use x="368.408203" xlink:href="#DejaVuSans-108"/>
      <use x="396.191406" xlink:href="#DejaVuSans-95"/>
      <use x="446.191406" xlink:href="#DejaVuSans-111"/>
      <use x="507.373047" xlink:href="#DejaVuSans-99"/>
      <use x="562.353516" xlink:href="#DejaVuSans-99"/>
     </g>
    </g>
   </g>
  </g>
  <g id="axes_3">
   <g id="patch_14">
    <path d="M 33.2875 561.24 
L 870.2875 561.24 
L 870.2875 417.345882 
L 33.2875 417.345882 
z
" style="fill:#ffffff;"/>
   </g>
   <g id="matplotlib.axis_5">
    <g id="xtick_43">
     <g id="line2d_60">
      <g>
       <use style="stroke:#000000;stroke-width:0.8;" x="33.2875" xlink:href="#m838223d43b" y="561.24"/>
      </g>
     </g>
    </g>
    <g id="xtick_44">
     <g id="line2d_61">
      <g>
       <use style="stroke:#000000;stroke-width:0.8;" x="80.776862" xlink:href="#m838223d43b" y="561.24"/>
      </g>
     </g>
     <g id="text_26">
      <!-- Apr -->
      <g transform="translate(72.126862 575.838437)scale(0.1 -0.1)">
       <use xlink:href="#DejaVuSans-65"/>
       <use x="68.408203" xlink:href="#DejaVuSans-112"/>
       <use x="131.884766" xlink:href="#DejaVuSans-114"/>
      </g>
     </g>
    </g>
    <g id="xtick_45">
     <g id="line2d_62">
      <g>
       <use style="stroke:#000000;stroke-width:0.8;" x="215.824734" xlink:href="#m838223d43b" y="561.24"/>
      </g>
     </g>
     <g id="text_27">
      <!-- Jul -->
      <g transform="translate(209.791922 575.838437)scale(0.1 -0.1)">
       <use xlink:href="#DejaVuSans-74"/>
       <use x="29.492188" xlink:href="#DejaVuSans-117"/>
       <use x="92.871094" xlink:href="#DejaVuSans-108"/>
      </g>
     </g>
    </g>
    <g id="xtick_46">
     <g id="line2d_63">
      <g>
       <use style="stroke:#000000;stroke-width:0.8;" x="352.356649" xlink:href="#m838223d43b" y="561.24"/>
      </g>
     </g>
     <g id="text_28">
      <!-- Oct -->
      <g transform="translate(343.711336 575.838437)scale(0.1 -0.1)">
       <use xlink:href="#DejaVuSans-79"/>
       <use x="78.710938" xlink:href="#DejaVuSans-99"/>
       <use x="133.691406" xlink:href="#DejaVuSans-116"/>
      </g>
     </g>
    </g>
    <g id="xtick_47">
     <g id="line2d_64">
      <g>
       <use style="stroke:#000000;stroke-width:0.8;" x="488.888564" xlink:href="#m838223d43b" y="561.24"/>
      </g>
     </g>
     <g id="text_29">
      <!-- Jan -->
      <g transform="translate(481.180751 575.838437)scale(0.1 -0.1)">
       <use xlink:href="#DejaVuSans-74"/>
       <use x="29.492188" xlink:href="#DejaVuSans-97"/>
       <use x="90.771484" xlink:href="#DejaVuSans-110"/>
      </g>
      <!-- 2021 -->
      <g transform="translate(476.163564 587.03625)scale(0.1 -0.1)">
       <use xlink:href="#DejaVuSans-50"/>
       <use x="63.623047" xlink:href="#DejaVuSans-48"/>
       <use x="127.246094" xlink:href="#DejaVuSans-50"/>
       <use x="190.869141" xlink:href="#DejaVuSans-49"/>
      </g>
     </g>
    </g>
    <g id="xtick_48">
     <g id="line2d_65">
      <g>
       <use style="stroke:#000000;stroke-width:0.8;" x="622.452394" xlink:href="#m838223d43b" y="561.24"/>
      </g>
     </g>
     <g id="text_30">
      <!-- Apr -->
      <g transform="translate(613.802394 575.838437)scale(0.1 -0.1)">
       <use xlink:href="#DejaVuSans-65"/>
       <use x="68.408203" xlink:href="#DejaVuSans-112"/>
       <use x="131.884766" xlink:href="#DejaVuSans-114"/>
      </g>
     </g>
    </g>
    <g id="xtick_49">
     <g id="line2d_66">
      <g>
       <use style="stroke:#000000;stroke-width:0.8;" x="757.500266" xlink:href="#m838223d43b" y="561.24"/>
      </g>
     </g>
     <g id="text_31">
      <!-- Jul -->
      <g transform="translate(751.467453 575.838437)scale(0.1 -0.1)">
       <use xlink:href="#DejaVuSans-74"/>
       <use x="29.492188" xlink:href="#DejaVuSans-117"/>
       <use x="92.871094" xlink:href="#DejaVuSans-108"/>
      </g>
     </g>
    </g>
    <g id="xtick_50">
     <g id="line2d_67">
      <g>
       <use style="stroke:#000000;stroke-width:0.8;" x="870.2875" xlink:href="#m838223d43b" y="561.24"/>
      </g>
     </g>
    </g>
    <g id="xtick_51">
     <g id="line2d_68">
      <g>
       <use style="stroke:#000000;stroke-width:0.6;" x="34.771543" xlink:href="#meefa531db7" y="561.24"/>
      </g>
     </g>
    </g>
    <g id="xtick_52">
     <g id="line2d_69">
      <g>
       <use style="stroke:#000000;stroke-width:0.6;" x="125.298138" xlink:href="#meefa531db7" y="561.24"/>
      </g>
     </g>
    </g>
    <g id="xtick_53">
     <g id="line2d_70">
      <g>
       <use style="stroke:#000000;stroke-width:0.6;" x="171.303457" xlink:href="#meefa531db7" y="561.24"/>
      </g>
     </g>
    </g>
    <g id="xtick_54">
     <g id="line2d_71">
      <g>
       <use style="stroke:#000000;stroke-width:0.6;" x="261.830053" xlink:href="#meefa531db7" y="561.24"/>
      </g>
     </g>
    </g>
    <g id="xtick_55">
     <g id="line2d_72">
      <g>
       <use style="stroke:#000000;stroke-width:0.6;" x="307.835372" xlink:href="#meefa531db7" y="561.24"/>
      </g>
     </g>
    </g>
    <g id="xtick_56">
     <g id="line2d_73">
      <g>
       <use style="stroke:#000000;stroke-width:0.6;" x="398.361968" xlink:href="#meefa531db7" y="561.24"/>
      </g>
     </g>
    </g>
    <g id="xtick_57">
     <g id="line2d_74">
      <g>
       <use style="stroke:#000000;stroke-width:0.6;" x="442.883245" xlink:href="#meefa531db7" y="561.24"/>
      </g>
     </g>
    </g>
    <g id="xtick_58">
     <g id="line2d_75">
      <g>
       <use style="stroke:#000000;stroke-width:0.6;" x="534.893883" xlink:href="#meefa531db7" y="561.24"/>
      </g>
     </g>
    </g>
    <g id="xtick_59">
     <g id="line2d_76">
      <g>
       <use style="stroke:#000000;stroke-width:0.6;" x="576.447074" xlink:href="#meefa531db7" y="561.24"/>
      </g>
     </g>
    </g>
    <g id="xtick_60">
     <g id="line2d_77">
      <g>
       <use style="stroke:#000000;stroke-width:0.6;" x="666.97367" xlink:href="#meefa531db7" y="561.24"/>
      </g>
     </g>
    </g>
    <g id="xtick_61">
     <g id="line2d_78">
      <g>
       <use style="stroke:#000000;stroke-width:0.6;" x="712.978989" xlink:href="#meefa531db7" y="561.24"/>
      </g>
     </g>
    </g>
    <g id="xtick_62">
     <g id="line2d_79">
      <g>
       <use style="stroke:#000000;stroke-width:0.6;" x="803.505585" xlink:href="#meefa531db7" y="561.24"/>
      </g>
     </g>
    </g>
    <g id="xtick_63">
     <g id="line2d_80">
      <g>
       <use style="stroke:#000000;stroke-width:0.6;" x="849.510904" xlink:href="#meefa531db7" y="561.24"/>
      </g>
     </g>
    </g>
    <g id="text_32">
     <!-- Date -->
     <g transform="translate(433.861328 604.513594)scale(0.15 -0.15)">
      <defs>
       <path d="M 19.671875 64.796875 
L 19.671875 8.109375 
L 31.59375 8.109375 
Q 46.6875 8.109375 53.6875 14.9375 
Q 60.6875 21.78125 60.6875 36.53125 
Q 60.6875 51.171875 53.6875 57.984375 
Q 46.6875 64.796875 31.59375 64.796875 
z
M 9.8125 72.90625 
L 30.078125 72.90625 
Q 51.265625 72.90625 61.171875 64.09375 
Q 71.09375 55.28125 71.09375 36.53125 
Q 71.09375 17.671875 61.125 8.828125 
Q 51.171875 0 30.078125 0 
L 9.8125 0 
z
" id="DejaVuSans-68"/>
      </defs>
      <use xlink:href="#DejaVuSans-68"/>
      <use x="77.001953" xlink:href="#DejaVuSans-97"/>
      <use x="138.28125" xlink:href="#DejaVuSans-116"/>
      <use x="177.490234" xlink:href="#DejaVuSans-101"/>
     </g>
    </g>
   </g>
   <g id="matplotlib.axis_6">
    <g id="ytick_10">
     <g id="line2d_81">
      <g>
       <use style="stroke:#000000;stroke-width:0.8;" x="33.2875" xlink:href="#m7503ed53b4" y="554.699358"/>
      </g>
     </g>
     <g id="text_33">
      <!-- 0 -->
      <g transform="translate(19.925 558.498577)scale(0.1 -0.1)">
       <use xlink:href="#DejaVuSans-48"/>
      </g>
     </g>
    </g>
    <g id="ytick_11">
     <g id="line2d_82">
      <g>
       <use style="stroke:#000000;stroke-width:0.8;" x="33.2875" xlink:href="#m7503ed53b4" y="526.86684"/>
      </g>
     </g>
     <g id="text_34">
      <!-- 10 -->
      <g transform="translate(13.5625 530.666059)scale(0.1 -0.1)">
       <use xlink:href="#DejaVuSans-49"/>
       <use x="63.623047" xlink:href="#DejaVuSans-48"/>
      </g>
     </g>
    </g>
    <g id="ytick_12">
     <g id="line2d_83">
      <g>
       <use style="stroke:#000000;stroke-width:0.8;" x="33.2875" xlink:href="#m7503ed53b4" y="499.034322"/>
      </g>
     </g>
     <g id="text_35">
      <!-- 20 -->
      <g transform="translate(13.5625 502.833541)scale(0.1 -0.1)">
       <use xlink:href="#DejaVuSans-50"/>
       <use x="63.623047" xlink:href="#DejaVuSans-48"/>
      </g>
     </g>
    </g>
    <g id="ytick_13">
     <g id="line2d_84">
      <g>
       <use style="stroke:#000000;stroke-width:0.8;" x="33.2875" xlink:href="#m7503ed53b4" y="471.201805"/>
      </g>
     </g>
     <g id="text_36">
      <!-- 30 -->
      <g transform="translate(13.5625 475.001023)scale(0.1 -0.1)">
       <use xlink:href="#DejaVuSans-51"/>
       <use x="63.623047" xlink:href="#DejaVuSans-48"/>
      </g>
     </g>
    </g>
    <g id="ytick_14">
     <g id="line2d_85">
      <g>
       <use style="stroke:#000000;stroke-width:0.8;" x="33.2875" xlink:href="#m7503ed53b4" y="443.369287"/>
      </g>
     </g>
     <g id="text_37">
      <!-- 40 -->
      <g transform="translate(13.5625 447.168505)scale(0.1 -0.1)">
       <use xlink:href="#DejaVuSans-52"/>
       <use x="63.623047" xlink:href="#DejaVuSans-48"/>
      </g>
     </g>
    </g>
   </g>
   <g id="line2d_86">
    <path clip-path="url(#pa8bedf1631)" d="M 33.2875 554.699358 
L 48.127926 554.699358 
L 49.611968 551.916106 
L 52.580053 551.916106 
L 54.064096 546.349603 
L 57.032181 546.349603 
L 60.000266 540.783099 
L 61.484309 535.216596 
L 62.968351 535.216596 
L 65.936436 512.950581 
L 67.420479 499.034322 
L 70.388564 487.901315 
L 71.872606 473.985056 
L 73.356649 454.502294 
L 74.840691 448.93579 
L 76.324734 440.586035 
L 77.808777 429.453028 
L 79.292819 423.886524 
L 83.744947 423.886524 
L 85.228989 435.019531 
L 86.713032 435.019531 
L 88.197074 443.369287 
L 89.681117 440.586035 
L 91.16516 448.93579 
L 92.649202 446.152538 
L 94.133245 454.502294 
L 95.617287 457.285546 
L 97.10133 462.852049 
L 98.585372 471.201805 
L 100.069415 473.985056 
L 101.553457 482.334812 
L 103.0375 493.467819 
L 104.521543 499.034322 
L 106.005585 499.034322 
L 107.489628 507.384078 
L 108.97367 504.600826 
L 110.457713 504.600826 
L 111.941755 507.384078 
L 113.425798 524.083589 
L 114.90984 529.650092 
L 117.877926 529.650092 
L 119.361968 532.433344 
L 120.846011 529.650092 
L 122.330053 537.999848 
L 125.298138 537.999848 
L 126.782181 540.783099 
L 128.266223 540.783099 
L 129.750266 546.349603 
L 134.202394 546.349603 
L 135.686436 543.566351 
L 141.622606 543.566351 
L 143.106649 549.132855 
L 144.590691 551.916106 
L 149.042819 551.916106 
L 150.526862 549.132855 
L 152.010904 549.132855 
L 153.494947 551.916106 
L 178.72367 551.916106 
L 180.207713 549.132855 
L 184.65984 549.132855 
L 187.627926 554.699358 
L 244.021543 554.699358 
L 245.505585 551.916106 
L 258.861968 551.916106 
L 260.346011 554.699358 
L 261.830053 551.916106 
L 263.314096 554.699358 
L 264.798138 551.916106 
L 267.766223 551.916106 
L 269.250266 554.699358 
L 282.606649 554.699358 
L 284.090691 551.916106 
L 285.574734 551.916106 
L 287.058777 549.132855 
L 288.542819 549.132855 
L 290.026862 546.349603 
L 292.994947 546.349603 
L 297.447074 554.699358 
L 300.41516 549.132855 
L 301.899202 551.916106 
L 304.867287 551.916106 
L 306.35133 543.566351 
L 307.835372 540.783099 
L 309.319415 543.566351 
L 310.803457 543.566351 
L 313.771543 532.433344 
L 315.255585 532.433344 
L 316.739628 529.650092 
L 319.707713 529.650092 
L 322.675798 540.783099 
L 324.15984 535.216596 
L 325.643883 532.433344 
L 327.127926 532.433344 
L 328.611968 535.216596 
L 330.096011 526.86684 
L 331.580053 526.86684 
L 333.064096 524.083589 
L 334.548138 526.86684 
L 336.032181 526.86684 
L 337.516223 529.650092 
L 339.000266 529.650092 
L 340.484309 532.433344 
L 341.968351 537.999848 
L 344.936436 532.433344 
L 346.420479 532.433344 
L 347.904521 529.650092 
L 349.388564 524.083589 
L 352.356649 529.650092 
L 353.840691 524.083589 
L 356.808777 524.083589 
L 358.292819 537.999848 
L 359.776862 532.433344 
L 362.744947 537.999848 
L 365.713032 537.999848 
L 368.681117 526.86684 
L 370.16516 529.650092 
L 371.649202 526.86684 
L 374.617287 532.433344 
L 376.10133 532.433344 
L 379.069415 526.86684 
L 380.553457 521.300337 
L 382.0375 524.083589 
L 385.005585 524.083589 
L 389.457713 515.733833 
L 390.941755 510.16733 
L 392.425798 521.300337 
L 395.393883 521.300337 
L 396.877926 512.950581 
L 399.846011 507.384078 
L 401.330053 507.384078 
L 405.782181 490.684567 
L 407.266223 487.901315 
L 410.234309 460.068797 
L 411.718351 457.285546 
L 413.202394 460.068797 
L 414.686436 457.285546 
L 416.170479 460.068797 
L 417.654521 460.068797 
L 420.622606 471.201805 
L 422.106649 457.285546 
L 423.590691 462.852049 
L 425.074734 454.502294 
L 426.558777 448.93579 
L 428.042819 454.502294 
L 429.526862 448.93579 
L 431.010904 471.201805 
L 432.494947 462.852049 
L 433.978989 465.635301 
L 435.463032 476.768308 
L 436.947074 476.768308 
L 438.431117 465.635301 
L 439.91516 471.201805 
L 441.399202 473.985056 
L 444.367287 462.852049 
L 445.85133 462.852049 
L 447.335372 473.985056 
L 448.819415 476.768308 
L 451.7875 476.768308 
L 453.271543 482.334812 
L 456.239628 476.768308 
L 457.72367 485.118063 
L 459.207713 485.118063 
L 460.691755 482.334812 
L 462.175798 482.334812 
L 463.65984 496.251071 
L 471.080053 496.251071 
L 472.564096 487.901315 
L 474.048138 493.467819 
L 477.016223 493.467819 
L 478.500266 490.684567 
L 479.984309 490.684567 
L 481.468351 485.118063 
L 482.952394 496.251071 
L 484.436436 496.251071 
L 485.920479 499.034322 
L 487.404521 493.467819 
L 488.888564 496.251071 
L 490.372606 493.467819 
L 491.856649 493.467819 
L 493.340691 485.118063 
L 494.824734 487.901315 
L 496.308777 482.334812 
L 497.792819 490.684567 
L 499.276862 496.251071 
L 500.760904 490.684567 
L 502.244947 487.901315 
L 503.728989 479.55156 
L 505.213032 479.55156 
L 506.697074 487.901315 
L 508.181117 487.901315 
L 509.66516 485.118063 
L 511.149202 473.985056 
L 512.633245 468.418553 
L 514.117287 473.985056 
L 515.60133 485.118063 
L 517.085372 487.901315 
L 518.569415 479.55156 
L 520.053457 479.55156 
L 521.5375 462.852049 
L 523.021543 462.852049 
L 524.505585 457.285546 
L 525.989628 462.852049 
L 527.47367 460.068797 
L 528.957713 448.93579 
L 530.441755 457.285546 
L 531.925798 451.719042 
L 533.40984 448.93579 
L 534.893883 460.068797 
L 536.377926 460.068797 
L 537.861968 462.852049 
L 539.346011 468.418553 
L 540.830053 468.418553 
L 542.314096 476.768308 
L 543.798138 465.635301 
L 545.282181 468.418553 
L 546.766223 465.635301 
L 548.250266 482.334812 
L 549.734309 490.684567 
L 551.218351 487.901315 
L 552.702394 487.901315 
L 554.186436 479.55156 
L 555.670479 473.985056 
L 557.154521 490.684567 
L 560.122606 490.684567 
L 561.606649 482.334812 
L 564.574734 476.768308 
L 567.542819 482.334812 
L 570.510904 476.768308 
L 571.994947 471.201805 
L 573.478989 479.55156 
L 574.963032 485.118063 
L 576.447074 487.901315 
L 577.931117 493.467819 
L 579.41516 487.901315 
L 582.383245 482.334812 
L 583.867287 482.334812 
L 585.35133 487.901315 
L 586.835372 490.684567 
L 588.319415 501.817574 
L 589.803457 501.817574 
L 591.2875 512.950581 
L 595.739628 521.300337 
L 597.22367 521.300337 
L 600.191755 510.16733 
L 601.675798 521.300337 
L 603.15984 515.733833 
L 604.643883 512.950581 
L 607.611968 512.950581 
L 609.096011 507.384078 
L 610.580053 512.950581 
L 612.064096 512.950581 
L 613.548138 510.16733 
L 615.032181 501.817574 
L 616.516223 490.684567 
L 619.484309 496.251071 
L 620.968351 510.16733 
L 622.452394 510.16733 
L 623.936436 499.034322 
L 625.420479 504.600826 
L 626.904521 501.817574 
L 628.388564 496.251071 
L 629.872606 507.384078 
L 631.356649 504.600826 
L 634.324734 515.733833 
L 635.808777 512.950581 
L 638.776862 501.817574 
L 640.260904 493.467819 
L 641.744947 499.034322 
L 643.228989 496.251071 
L 644.713032 496.251071 
L 646.197074 487.901315 
L 647.681117 487.901315 
L 649.16516 493.467819 
L 650.649202 496.251071 
L 652.133245 504.600826 
L 653.617287 501.817574 
L 655.10133 501.817574 
L 658.069415 490.684567 
L 659.553457 496.251071 
L 661.0375 490.684567 
L 664.005585 490.684567 
L 665.489628 493.467819 
L 666.97367 493.467819 
L 668.457713 487.901315 
L 669.941755 476.768308 
L 671.425798 479.55156 
L 672.90984 476.768308 
L 674.393883 482.334812 
L 675.877926 482.334812 
L 677.361968 471.201805 
L 678.846011 471.201805 
L 683.298138 496.251071 
L 684.782181 499.034322 
L 686.266223 496.251071 
L 687.750266 490.684567 
L 689.234309 496.251071 
L 690.718351 496.251071 
L 693.686436 507.384078 
L 695.170479 507.384078 
L 696.654521 512.950581 
L 698.138564 512.950581 
L 699.622606 510.16733 
L 702.590691 510.16733 
L 704.074734 521.300337 
L 707.042819 526.86684 
L 708.526862 532.433344 
L 711.494947 537.999848 
L 714.463032 537.999848 
L 715.947074 532.433344 
L 717.431117 535.216596 
L 720.399202 529.650092 
L 723.367287 529.650092 
L 724.85133 535.216596 
L 726.335372 537.999848 
L 732.271543 537.999848 
L 735.239628 543.566351 
L 736.72367 543.566351 
L 738.207713 546.349603 
L 741.175798 546.349603 
L 742.65984 551.916106 
L 745.627926 551.916106 
L 747.111968 554.699358 
L 754.532181 554.699358 
L 756.016223 551.916106 
L 758.984309 551.916106 
L 760.468351 546.349603 
L 761.952394 543.566351 
L 763.436436 543.566351 
L 764.920479 546.349603 
L 766.404521 540.783099 
L 767.888564 537.999848 
L 769.372606 532.433344 
L 770.856649 529.650092 
L 772.340691 532.433344 
L 773.824734 540.783099 
L 776.792819 540.783099 
L 778.276862 537.999848 
L 779.760904 532.433344 
L 781.244947 524.083589 
L 782.728989 518.517085 
L 784.213032 524.083589 
L 787.181117 507.384078 
L 788.66516 501.817574 
L 791.633245 507.384078 
L 793.117287 501.817574 
L 794.60133 501.817574 
L 796.085372 496.251071 
L 799.053457 496.251071 
L 800.5375 487.901315 
L 802.021543 487.901315 
L 803.505585 479.55156 
L 804.989628 490.684567 
L 806.47367 504.600826 
L 807.957713 507.384078 
L 809.441755 496.251071 
L 810.925798 501.817574 
L 812.40984 504.600826 
L 813.893883 496.251071 
L 815.377926 499.034322 
L 816.861968 504.600826 
L 818.346011 507.384078 
L 821.314096 501.817574 
L 822.798138 504.600826 
L 824.282181 496.251071 
L 827.250266 507.384078 
L 828.734309 499.034322 
L 830.218351 515.733833 
L 831.702394 510.16733 
L 833.186436 507.384078 
L 834.670479 501.817574 
L 836.154521 504.600826 
L 840.606649 504.600826 
L 842.090691 510.16733 
L 843.574734 510.16733 
L 845.058777 512.950581 
L 846.542819 510.16733 
L 849.510904 521.300337 
L 850.994947 524.083589 
L 852.478989 532.433344 
L 853.963032 535.216596 
L 855.447074 535.216596 
L 856.931117 540.783099 
L 859.899202 540.783099 
L 862.867287 535.216596 
L 864.35133 535.216596 
L 865.835372 532.433344 
L 868.803457 537.999848 
L 870.2875 535.216596 
L 870.2875 535.216596 
" style="fill:none;stroke:#2ca02c;stroke-linecap:square;stroke-width:1.5;"/>
   </g>
   <g id="line2d_87">
    <path clip-path="url(#pa8bedf1631)" d="M 539.346011 561.24 
L 539.346011 417.345882 
" style="fill:none;stroke:#808080;stroke-dasharray:5.55,2.4;stroke-dashoffset:0;stroke-width:1.5;"/>
   </g>
   <g id="patch_15">
    <path d="M 33.2875 561.24 
L 33.2875 417.345882 
" style="fill:none;stroke:#000000;stroke-linecap:square;stroke-linejoin:miter;stroke-width:0.8;"/>
   </g>
   <g id="patch_16">
    <path d="M 870.2875 561.24 
L 870.2875 417.345882 
" style="fill:none;stroke:#000000;stroke-linecap:square;stroke-linejoin:miter;stroke-width:0.8;"/>
   </g>
   <g id="patch_17">
    <path d="M 33.2875 561.24 
L 870.2875 561.24 
" style="fill:none;stroke:#000000;stroke-linecap:square;stroke-linejoin:miter;stroke-width:0.8;"/>
   </g>
   <g id="patch_18">
    <path d="M 33.2875 417.345882 
L 870.2875 417.345882 
" style="fill:none;stroke:#000000;stroke-linecap:square;stroke-linejoin:miter;stroke-width:0.8;"/>
   </g>
   <g id="legend_3">
    <g id="patch_19">
     <path d="M 794.557813 440.302132 
L 863.2875 440.302132 
Q 865.2875 440.302132 865.2875 438.302132 
L 865.2875 424.345882 
Q 865.2875 422.345882 863.2875 422.345882 
L 794.557813 422.345882 
Q 792.557813 422.345882 792.557813 424.345882 
L 792.557813 438.302132 
Q 792.557813 440.302132 794.557813 440.302132 
z
" style="fill:#ffffff;opacity:0.8;stroke:#cccccc;stroke-linejoin:miter;"/>
    </g>
    <g id="line2d_88">
     <path d="M 796.557813 430.44432 
L 816.557813 430.44432 
" style="fill:none;stroke:#2ca02c;stroke-linecap:square;stroke-width:1.5;"/>
    </g>
    <g id="line2d_89"/>
    <g id="text_38">
     <!-- icu_occ -->
     <g transform="translate(824.557813 433.94432)scale(0.1 -0.1)">
      <use xlink:href="#DejaVuSans-105"/>
      <use x="27.783203" xlink:href="#DejaVuSans-99"/>
      <use x="82.763672" xlink:href="#DejaVuSans-117"/>
      <use x="146.142578" xlink:href="#DejaVuSans-95"/>
      <use x="196.142578" xlink:href="#DejaVuSans-111"/>
      <use x="257.324219" xlink:href="#DejaVuSans-99"/>
      <use x="312.304688" xlink:href="#DejaVuSans-99"/>
     </g>
    </g>
   </g>
  </g>
  <g id="text_39">
   <!-- COVID-19 in Cantabria -->
   <g transform="translate(325.45 22.396875)scale(0.2 -0.2)">
    <defs>
     <path d="M 64.40625 67.28125 
L 64.40625 56.890625 
Q 59.421875 61.53125 53.78125 63.8125 
Q 48.140625 66.109375 41.796875 66.109375 
Q 29.296875 66.109375 22.65625 58.46875 
Q 16.015625 50.828125 16.015625 36.375 
Q 16.015625 21.96875 22.65625 14.328125 
Q 29.296875 6.6875 41.796875 6.6875 
Q 48.140625 6.6875 53.78125 8.984375 
Q 59.421875 11.28125 64.40625 15.921875 
L 64.40625 5.609375 
Q 59.234375 2.09375 53.4375 0.328125 
Q 47.65625 -1.421875 41.21875 -1.421875 
Q 24.65625 -1.421875 15.125 8.703125 
Q 5.609375 18.84375 5.609375 36.375 
Q 5.609375 53.953125 15.125 64.078125 
Q 24.65625 74.21875 41.21875 74.21875 
Q 47.75 74.21875 53.53125 72.484375 
Q 59.328125 70.75 64.40625 67.28125 
z
" id="DejaVuSans-67"/>
     <path d="M 28.609375 0 
L 0.78125 72.90625 
L 11.078125 72.90625 
L 34.1875 11.53125 
L 57.328125 72.90625 
L 67.578125 72.90625 
L 39.796875 0 
z
" id="DejaVuSans-86"/>
     <path d="M 9.8125 72.90625 
L 19.671875 72.90625 
L 19.671875 0 
L 9.8125 0 
z
" id="DejaVuSans-73"/>
     <path d="M 4.890625 31.390625 
L 31.203125 31.390625 
L 31.203125 23.390625 
L 4.890625 23.390625 
z
" id="DejaVuSans-45"/>
     <path d="M 10.984375 1.515625 
L 10.984375 10.5 
Q 14.703125 8.734375 18.5 7.8125 
Q 22.3125 6.890625 25.984375 6.890625 
Q 35.75 6.890625 40.890625 13.453125 
Q 46.046875 20.015625 46.78125 33.40625 
Q 43.953125 29.203125 39.59375 26.953125 
Q 35.25 24.703125 29.984375 24.703125 
Q 19.046875 24.703125 12.671875 31.3125 
Q 6.296875 37.9375 6.296875 49.421875 
Q 6.296875 60.640625 12.9375 67.421875 
Q 19.578125 74.21875 30.609375 74.21875 
Q 43.265625 74.21875 49.921875 64.515625 
Q 56.59375 54.828125 56.59375 36.375 
Q 56.59375 19.140625 48.40625 8.859375 
Q 40.234375 -1.421875 26.421875 -1.421875 
Q 22.703125 -1.421875 18.890625 -0.6875 
Q 15.09375 0.046875 10.984375 1.515625 
z
M 30.609375 32.421875 
Q 37.25 32.421875 41.125 36.953125 
Q 45.015625 41.5 45.015625 49.421875 
Q 45.015625 57.28125 41.125 61.84375 
Q 37.25 66.40625 30.609375 66.40625 
Q 23.96875 66.40625 20.09375 61.84375 
Q 16.21875 57.28125 16.21875 49.421875 
Q 16.21875 41.5 20.09375 36.953125 
Q 23.96875 32.421875 30.609375 32.421875 
z
" id="DejaVuSans-57"/>
     <path id="DejaVuSans-32"/>
     <path d="M 48.6875 27.296875 
Q 48.6875 37.203125 44.609375 42.84375 
Q 40.53125 48.484375 33.40625 48.484375 
Q 26.265625 48.484375 22.1875 42.84375 
Q 18.109375 37.203125 18.109375 27.296875 
Q 18.109375 17.390625 22.1875 11.75 
Q 26.265625 6.109375 33.40625 6.109375 
Q 40.53125 6.109375 44.609375 11.75 
Q 48.6875 17.390625 48.6875 27.296875 
z
M 18.109375 46.390625 
Q 20.953125 51.265625 25.265625 53.625 
Q 29.59375 56 35.59375 56 
Q 45.5625 56 51.78125 48.09375 
Q 58.015625 40.1875 58.015625 27.296875 
Q 58.015625 14.40625 51.78125 6.484375 
Q 45.5625 -1.421875 35.59375 -1.421875 
Q 29.59375 -1.421875 25.265625 0.953125 
Q 20.953125 3.328125 18.109375 8.203125 
L 18.109375 0 
L 9.078125 0 
L 9.078125 75.984375 
L 18.109375 75.984375 
z
" id="DejaVuSans-98"/>
    </defs>
    <use xlink:href="#DejaVuSans-67"/>
    <use x="69.824219" xlink:href="#DejaVuSans-79"/>
    <use x="146.785156" xlink:href="#DejaVuSans-86"/>
    <use x="215.193359" xlink:href="#DejaVuSans-73"/>
    <use x="244.685547" xlink:href="#DejaVuSans-68"/>
    <use x="321.6875" xlink:href="#DejaVuSans-45"/>
    <use x="357.771484" xlink:href="#DejaVuSans-49"/>
    <use x="421.394531" xlink:href="#DejaVuSans-57"/>
    <use x="485.017578" xlink:href="#DejaVuSans-32"/>
    <use x="516.804688" xlink:href="#DejaVuSans-105"/>
    <use x="544.587891" xlink:href="#DejaVuSans-110"/>
    <use x="607.966797" xlink:href="#DejaVuSans-32"/>
    <use x="639.753906" xlink:href="#DejaVuSans-67"/>
    <use x="709.578125" xlink:href="#DejaVuSans-97"/>
    <use x="770.857422" xlink:href="#DejaVuSans-110"/>
    <use x="834.236328" xlink:href="#DejaVuSans-116"/>
    <use x="873.445312" xlink:href="#DejaVuSans-97"/>
    <use x="934.724609" xlink:href="#DejaVuSans-98"/>
    <use x="998.201172" xlink:href="#DejaVuSans-114"/>
    <use x="1039.314453" xlink:href="#DejaVuSans-105"/>
    <use x="1067.097656" xlink:href="#DejaVuSans-97"/>
   </g>
  </g>
 </g>
 <defs>
  <clipPath id="p52015c32d3">
   <rect height="143.894118" width="837" x="33.2875" y="72"/>
  </clipPath>
  <clipPath id="p3d002596d2">
   <rect height="143.894118" width="837" x="33.2875" y="244.672941"/>
  </clipPath>
  <clipPath id="pa8bedf1631">
   <rect height="143.894118" width="837" x="33.2875" y="417.345882"/>
  </clipPath>
 </defs>
</svg>
