<?xml version="1.0" encoding="utf-8" standalone="no"?>
<!DOCTYPE svg PUBLIC "-//W3C//DTD SVG 1.1//EN"
  "http://www.w3.org/Graphics/SVG/1.1/DTD/svg11.dtd">
<!-- Created with matplotlib (https://matplotlib.org/) -->
<svg height="648pt" version="1.1" viewBox="0 0 1008 648" width="1008pt" xmlns="http://www.w3.org/2000/svg" xmlns:xlink="http://www.w3.org/1999/xlink">
 <metadata>
  <rdf:RDF xmlns:cc="http://creativecommons.org/ns#" xmlns:dc="http://purl.org/dc/elements/1.1/" xmlns:rdf="http://www.w3.org/1999/02/22-rdf-syntax-ns#">
   <cc:Work>
    <dc:type rdf:resource="http://purl.org/dc/dcmitype/StillImage"/>
    <dc:date>2021-08-27T10:15:36.724085</dc:date>
    <dc:format>image/svg+xml</dc:format>
    <dc:creator>
     <cc:Agent>
      <dc:title>Matplotlib v3.3.4, https://matplotlib.org/</dc:title>
     </cc:Agent>
    </dc:creator>
   </cc:Work>
  </rdf:RDF>
 </metadata>
 <defs>
  <style type="text/css">*{stroke-linecap:butt;stroke-linejoin:round;}</style>
 </defs>
 <g id="figure_1">
  <g id="patch_1">
   <path d="M 0 648 
L 1008 648 
L 1008 0 
L 0 0 
z
" style="fill:#ffffff;"/>
  </g>
  <g id="axes_1">
   <g id="patch_2">
    <path d="M 70.17125 174.84 
L 978 174.84 
L 978 46.08 
L 70.17125 46.08 
z
" style="fill:#ffffff;"/>
   </g>
   <g id="matplotlib.axis_1">
    <g id="xtick_1">
     <g id="line2d_1">
      <defs>
       <path d="M 0 0 
L 0 3.5 
" id="m741c9a7034" style="stroke:#000000;stroke-width:0.8;"/>
      </defs>
      <g>
       <use style="stroke:#000000;stroke-width:0.8;" x="111.436193" xlink:href="#m741c9a7034" y="174.84"/>
      </g>
     </g>
     <g id="text_1">
      <!-- 2020/02/29 -->
      <g transform="translate(82.617443 189.438437)scale(0.1 -0.1)">
       <defs>
        <path d="M 19.1875 8.296875 
L 53.609375 8.296875 
L 53.609375 0 
L 7.328125 0 
L 7.328125 8.296875 
Q 12.9375 14.109375 22.625 23.890625 
Q 32.328125 33.6875 34.8125 36.53125 
Q 39.546875 41.84375 41.421875 45.53125 
Q 43.3125 49.21875 43.3125 52.78125 
Q 43.3125 58.59375 39.234375 62.25 
Q 35.15625 65.921875 28.609375 65.921875 
Q 23.96875 65.921875 18.8125 64.3125 
Q 13.671875 62.703125 7.8125 59.421875 
L 7.8125 69.390625 
Q 13.765625 71.78125 18.9375 73 
Q 24.125 74.21875 28.421875 74.21875 
Q 39.75 74.21875 46.484375 68.546875 
Q 53.21875 62.890625 53.21875 53.421875 
Q 53.21875 48.921875 51.53125 44.890625 
Q 49.859375 40.875 45.40625 35.40625 
Q 44.1875 33.984375 37.640625 27.21875 
Q 31.109375 20.453125 19.1875 8.296875 
z
" id="DejaVuSans-50"/>
        <path d="M 31.78125 66.40625 
Q 24.171875 66.40625 20.328125 58.90625 
Q 16.5 51.421875 16.5 36.375 
Q 16.5 21.390625 20.328125 13.890625 
Q 24.171875 6.390625 31.78125 6.390625 
Q 39.453125 6.390625 43.28125 13.890625 
Q 47.125 21.390625 47.125 36.375 
Q 47.125 51.421875 43.28125 58.90625 
Q 39.453125 66.40625 31.78125 66.40625 
z
M 31.78125 74.21875 
Q 44.046875 74.21875 50.515625 64.515625 
Q 56.984375 54.828125 56.984375 36.375 
Q 56.984375 17.96875 50.515625 8.265625 
Q 44.046875 -1.421875 31.78125 -1.421875 
Q 19.53125 -1.421875 13.0625 8.265625 
Q 6.59375 17.96875 6.59375 36.375 
Q 6.59375 54.828125 13.0625 64.515625 
Q 19.53125 74.21875 31.78125 74.21875 
z
" id="DejaVuSans-48"/>
        <path d="M 25.390625 72.90625 
L 33.6875 72.90625 
L 8.296875 -9.28125 
L 0 -9.28125 
z
" id="DejaVuSans-47"/>
        <path d="M 10.984375 1.515625 
L 10.984375 10.5 
Q 14.703125 8.734375 18.5 7.8125 
Q 22.3125 6.890625 25.984375 6.890625 
Q 35.75 6.890625 40.890625 13.453125 
Q 46.046875 20.015625 46.78125 33.40625 
Q 43.953125 29.203125 39.59375 26.953125 
Q 35.25 24.703125 29.984375 24.703125 
Q 19.046875 24.703125 12.671875 31.3125 
Q 6.296875 37.9375 6.296875 49.421875 
Q 6.296875 60.640625 12.9375 67.421875 
Q 19.578125 74.21875 30.609375 74.21875 
Q 43.265625 74.21875 49.921875 64.515625 
Q 56.59375 54.828125 56.59375 36.375 
Q 56.59375 19.140625 48.40625 8.859375 
Q 40.234375 -1.421875 26.421875 -1.421875 
Q 22.703125 -1.421875 18.890625 -0.6875 
Q 15.09375 0.046875 10.984375 1.515625 
z
M 30.609375 32.421875 
Q 37.25 32.421875 41.125 36.953125 
Q 45.015625 41.5 45.015625 49.421875 
Q 45.015625 57.28125 41.125 61.84375 
Q 37.25 66.40625 30.609375 66.40625 
Q 23.96875 66.40625 20.09375 61.84375 
Q 16.21875 57.28125 16.21875 49.421875 
Q 16.21875 41.5 20.09375 36.953125 
Q 23.96875 32.421875 30.609375 32.421875 
z
" id="DejaVuSans-57"/>
       </defs>
       <use xlink:href="#DejaVuSans-50"/>
       <use x="63.623047" xlink:href="#DejaVuSans-48"/>
       <use x="127.246094" xlink:href="#DejaVuSans-50"/>
       <use x="190.869141" xlink:href="#DejaVuSans-48"/>
       <use x="254.492188" xlink:href="#DejaVuSans-47"/>
       <use x="288.183594" xlink:href="#DejaVuSans-48"/>
       <use x="351.806641" xlink:href="#DejaVuSans-50"/>
       <use x="415.429688" xlink:href="#DejaVuSans-47"/>
       <use x="449.121094" xlink:href="#DejaVuSans-50"/>
       <use x="512.744141" xlink:href="#DejaVuSans-57"/>
      </g>
     </g>
    </g>
    <g id="xtick_2">
     <g id="line2d_2">
      <g>
       <use style="stroke:#000000;stroke-width:0.8;" x="310.783745" xlink:href="#m741c9a7034" y="174.84"/>
      </g>
     </g>
     <g id="text_2">
      <!-- 2020/06/08 -->
      <g transform="translate(281.964995 189.438437)scale(0.1 -0.1)">
       <defs>
        <path d="M 33.015625 40.375 
Q 26.375 40.375 22.484375 35.828125 
Q 18.609375 31.296875 18.609375 23.390625 
Q 18.609375 15.53125 22.484375 10.953125 
Q 26.375 6.390625 33.015625 6.390625 
Q 39.65625 6.390625 43.53125 10.953125 
Q 47.40625 15.53125 47.40625 23.390625 
Q 47.40625 31.296875 43.53125 35.828125 
Q 39.65625 40.375 33.015625 40.375 
z
M 52.59375 71.296875 
L 52.59375 62.3125 
Q 48.875 64.0625 45.09375 64.984375 
Q 41.3125 65.921875 37.59375 65.921875 
Q 27.828125 65.921875 22.671875 59.328125 
Q 17.53125 52.734375 16.796875 39.40625 
Q 19.671875 43.65625 24.015625 45.921875 
Q 28.375 48.1875 33.59375 48.1875 
Q 44.578125 48.1875 50.953125 41.515625 
Q 57.328125 34.859375 57.328125 23.390625 
Q 57.328125 12.15625 50.6875 5.359375 
Q 44.046875 -1.421875 33.015625 -1.421875 
Q 20.359375 -1.421875 13.671875 8.265625 
Q 6.984375 17.96875 6.984375 36.375 
Q 6.984375 53.65625 15.1875 63.9375 
Q 23.390625 74.21875 37.203125 74.21875 
Q 40.921875 74.21875 44.703125 73.484375 
Q 48.484375 72.75 52.59375 71.296875 
z
" id="DejaVuSans-54"/>
        <path d="M 31.78125 34.625 
Q 24.75 34.625 20.71875 30.859375 
Q 16.703125 27.09375 16.703125 20.515625 
Q 16.703125 13.921875 20.71875 10.15625 
Q 24.75 6.390625 31.78125 6.390625 
Q 38.8125 6.390625 42.859375 10.171875 
Q 46.921875 13.96875 46.921875 20.515625 
Q 46.921875 27.09375 42.890625 30.859375 
Q 38.875 34.625 31.78125 34.625 
z
M 21.921875 38.8125 
Q 15.578125 40.375 12.03125 44.71875 
Q 8.5 49.078125 8.5 55.328125 
Q 8.5 64.0625 14.71875 69.140625 
Q 20.953125 74.21875 31.78125 74.21875 
Q 42.671875 74.21875 48.875 69.140625 
Q 55.078125 64.0625 55.078125 55.328125 
Q 55.078125 49.078125 51.53125 44.71875 
Q 48 40.375 41.703125 38.8125 
Q 48.828125 37.15625 52.796875 32.3125 
Q 56.78125 27.484375 56.78125 20.515625 
Q 56.78125 9.90625 50.3125 4.234375 
Q 43.84375 -1.421875 31.78125 -1.421875 
Q 19.734375 -1.421875 13.25 4.234375 
Q 6.78125 9.90625 6.78125 20.515625 
Q 6.78125 27.484375 10.78125 32.3125 
Q 14.796875 37.15625 21.921875 38.8125 
z
M 18.3125 54.390625 
Q 18.3125 48.734375 21.84375 45.5625 
Q 25.390625 42.390625 31.78125 42.390625 
Q 38.140625 42.390625 41.71875 45.5625 
Q 45.3125 48.734375 45.3125 54.390625 
Q 45.3125 60.0625 41.71875 63.234375 
Q 38.140625 66.40625 31.78125 66.40625 
Q 25.390625 66.40625 21.84375 63.234375 
Q 18.3125 60.0625 18.3125 54.390625 
z
" id="DejaVuSans-56"/>
       </defs>
       <use xlink:href="#DejaVuSans-50"/>
       <use x="63.623047" xlink:href="#DejaVuSans-48"/>
       <use x="127.246094" xlink:href="#DejaVuSans-50"/>
       <use x="190.869141" xlink:href="#DejaVuSans-48"/>
       <use x="254.492188" xlink:href="#DejaVuSans-47"/>
       <use x="288.183594" xlink:href="#DejaVuSans-48"/>
       <use x="351.806641" xlink:href="#DejaVuSans-54"/>
       <use x="415.429688" xlink:href="#DejaVuSans-47"/>
       <use x="449.121094" xlink:href="#DejaVuSans-48"/>
       <use x="512.744141" xlink:href="#DejaVuSans-56"/>
      </g>
     </g>
    </g>
    <g id="xtick_3">
     <g id="line2d_3">
      <g>
       <use style="stroke:#000000;stroke-width:0.8;" x="510.131296" xlink:href="#m741c9a7034" y="174.84"/>
      </g>
     </g>
     <g id="text_3">
      <!-- 2020/09/16 -->
      <g transform="translate(481.312546 189.438437)scale(0.1 -0.1)">
       <defs>
        <path d="M 12.40625 8.296875 
L 28.515625 8.296875 
L 28.515625 63.921875 
L 10.984375 60.40625 
L 10.984375 69.390625 
L 28.421875 72.90625 
L 38.28125 72.90625 
L 38.28125 8.296875 
L 54.390625 8.296875 
L 54.390625 0 
L 12.40625 0 
z
" id="DejaVuSans-49"/>
       </defs>
       <use xlink:href="#DejaVuSans-50"/>
       <use x="63.623047" xlink:href="#DejaVuSans-48"/>
       <use x="127.246094" xlink:href="#DejaVuSans-50"/>
       <use x="190.869141" xlink:href="#DejaVuSans-48"/>
       <use x="254.492188" xlink:href="#DejaVuSans-47"/>
       <use x="288.183594" xlink:href="#DejaVuSans-48"/>
       <use x="351.806641" xlink:href="#DejaVuSans-57"/>
       <use x="415.429688" xlink:href="#DejaVuSans-47"/>
       <use x="449.121094" xlink:href="#DejaVuSans-49"/>
       <use x="512.744141" xlink:href="#DejaVuSans-54"/>
      </g>
     </g>
    </g>
    <g id="xtick_4">
     <g id="line2d_4">
      <g>
       <use style="stroke:#000000;stroke-width:0.8;" x="709.478848" xlink:href="#m741c9a7034" y="174.84"/>
      </g>
     </g>
     <g id="text_4">
      <!-- 2020/12/25 -->
      <g transform="translate(680.660098 189.438437)scale(0.1 -0.1)">
       <defs>
        <path d="M 10.796875 72.90625 
L 49.515625 72.90625 
L 49.515625 64.59375 
L 19.828125 64.59375 
L 19.828125 46.734375 
Q 21.96875 47.46875 24.109375 47.828125 
Q 26.265625 48.1875 28.421875 48.1875 
Q 40.625 48.1875 47.75 41.5 
Q 54.890625 34.8125 54.890625 23.390625 
Q 54.890625 11.625 47.5625 5.09375 
Q 40.234375 -1.421875 26.90625 -1.421875 
Q 22.3125 -1.421875 17.546875 -0.640625 
Q 12.796875 0.140625 7.71875 1.703125 
L 7.71875 11.625 
Q 12.109375 9.234375 16.796875 8.0625 
Q 21.484375 6.890625 26.703125 6.890625 
Q 35.15625 6.890625 40.078125 11.328125 
Q 45.015625 15.765625 45.015625 23.390625 
Q 45.015625 31 40.078125 35.4375 
Q 35.15625 39.890625 26.703125 39.890625 
Q 22.75 39.890625 18.8125 39.015625 
Q 14.890625 38.140625 10.796875 36.28125 
z
" id="DejaVuSans-53"/>
       </defs>
       <use xlink:href="#DejaVuSans-50"/>
       <use x="63.623047" xlink:href="#DejaVuSans-48"/>
       <use x="127.246094" xlink:href="#DejaVuSans-50"/>
       <use x="190.869141" xlink:href="#DejaVuSans-48"/>
       <use x="254.492188" xlink:href="#DejaVuSans-47"/>
       <use x="288.183594" xlink:href="#DejaVuSans-49"/>
       <use x="351.806641" xlink:href="#DejaVuSans-50"/>
       <use x="415.429688" xlink:href="#DejaVuSans-47"/>
       <use x="449.121094" xlink:href="#DejaVuSans-50"/>
       <use x="512.744141" xlink:href="#DejaVuSans-53"/>
      </g>
     </g>
    </g>
    <g id="xtick_5">
     <g id="line2d_5">
      <g>
       <use style="stroke:#000000;stroke-width:0.8;" x="908.8264" xlink:href="#m741c9a7034" y="174.84"/>
      </g>
     </g>
     <g id="text_5">
      <!-- 2021/04/04 -->
      <g transform="translate(880.00765 189.438437)scale(0.1 -0.1)">
       <defs>
        <path d="M 37.796875 64.3125 
L 12.890625 25.390625 
L 37.796875 25.390625 
z
M 35.203125 72.90625 
L 47.609375 72.90625 
L 47.609375 25.390625 
L 58.015625 25.390625 
L 58.015625 17.1875 
L 47.609375 17.1875 
L 47.609375 0 
L 37.796875 0 
L 37.796875 17.1875 
L 4.890625 17.1875 
L 4.890625 26.703125 
z
" id="DejaVuSans-52"/>
       </defs>
       <use xlink:href="#DejaVuSans-50"/>
       <use x="63.623047" xlink:href="#DejaVuSans-48"/>
       <use x="127.246094" xlink:href="#DejaVuSans-50"/>
       <use x="190.869141" xlink:href="#DejaVuSans-49"/>
       <use x="254.492188" xlink:href="#DejaVuSans-47"/>
       <use x="288.183594" xlink:href="#DejaVuSans-48"/>
       <use x="351.806641" xlink:href="#DejaVuSans-52"/>
       <use x="415.429688" xlink:href="#DejaVuSans-47"/>
       <use x="449.121094" xlink:href="#DejaVuSans-48"/>
       <use x="512.744141" xlink:href="#DejaVuSans-52"/>
      </g>
     </g>
    </g>
    <g id="text_6">
     <!-- Time, t [days] -->
     <g transform="translate(489.420781 203.116562)scale(0.1 -0.1)">
      <defs>
       <path d="M -0.296875 72.90625 
L 61.375 72.90625 
L 61.375 64.59375 
L 35.5 64.59375 
L 35.5 0 
L 25.59375 0 
L 25.59375 64.59375 
L -0.296875 64.59375 
z
" id="DejaVuSans-84"/>
       <path d="M 9.421875 54.6875 
L 18.40625 54.6875 
L 18.40625 0 
L 9.421875 0 
z
M 9.421875 75.984375 
L 18.40625 75.984375 
L 18.40625 64.59375 
L 9.421875 64.59375 
z
" id="DejaVuSans-105"/>
       <path d="M 52 44.1875 
Q 55.375 50.25 60.0625 53.125 
Q 64.75 56 71.09375 56 
Q 79.640625 56 84.28125 50.015625 
Q 88.921875 44.046875 88.921875 33.015625 
L 88.921875 0 
L 79.890625 0 
L 79.890625 32.71875 
Q 79.890625 40.578125 77.09375 44.375 
Q 74.3125 48.1875 68.609375 48.1875 
Q 61.625 48.1875 57.5625 43.546875 
Q 53.515625 38.921875 53.515625 30.90625 
L 53.515625 0 
L 44.484375 0 
L 44.484375 32.71875 
Q 44.484375 40.625 41.703125 44.40625 
Q 38.921875 48.1875 33.109375 48.1875 
Q 26.21875 48.1875 22.15625 43.53125 
Q 18.109375 38.875 18.109375 30.90625 
L 18.109375 0 
L 9.078125 0 
L 9.078125 54.6875 
L 18.109375 54.6875 
L 18.109375 46.1875 
Q 21.1875 51.21875 25.484375 53.609375 
Q 29.78125 56 35.6875 56 
Q 41.65625 56 45.828125 52.96875 
Q 50 49.953125 52 44.1875 
z
" id="DejaVuSans-109"/>
       <path d="M 56.203125 29.59375 
L 56.203125 25.203125 
L 14.890625 25.203125 
Q 15.484375 15.921875 20.484375 11.0625 
Q 25.484375 6.203125 34.421875 6.203125 
Q 39.59375 6.203125 44.453125 7.46875 
Q 49.3125 8.734375 54.109375 11.28125 
L 54.109375 2.78125 
Q 49.265625 0.734375 44.1875 -0.34375 
Q 39.109375 -1.421875 33.890625 -1.421875 
Q 20.796875 -1.421875 13.15625 6.1875 
Q 5.515625 13.8125 5.515625 26.8125 
Q 5.515625 40.234375 12.765625 48.109375 
Q 20.015625 56 32.328125 56 
Q 43.359375 56 49.78125 48.890625 
Q 56.203125 41.796875 56.203125 29.59375 
z
M 47.21875 32.234375 
Q 47.125 39.59375 43.09375 43.984375 
Q 39.0625 48.390625 32.421875 48.390625 
Q 24.90625 48.390625 20.390625 44.140625 
Q 15.875 39.890625 15.1875 32.171875 
z
" id="DejaVuSans-101"/>
       <path d="M 11.71875 12.40625 
L 22.015625 12.40625 
L 22.015625 4 
L 14.015625 -11.625 
L 7.71875 -11.625 
L 11.71875 4 
z
" id="DejaVuSans-44"/>
       <path id="DejaVuSans-32"/>
       <path d="M 18.3125 70.21875 
L 18.3125 54.6875 
L 36.8125 54.6875 
L 36.8125 47.703125 
L 18.3125 47.703125 
L 18.3125 18.015625 
Q 18.3125 11.328125 20.140625 9.421875 
Q 21.96875 7.515625 27.59375 7.515625 
L 36.8125 7.515625 
L 36.8125 0 
L 27.59375 0 
Q 17.1875 0 13.234375 3.875 
Q 9.28125 7.765625 9.28125 18.015625 
L 9.28125 47.703125 
L 2.6875 47.703125 
L 2.6875 54.6875 
L 9.28125 54.6875 
L 9.28125 70.21875 
z
" id="DejaVuSans-116"/>
       <path d="M 8.59375 75.984375 
L 29.296875 75.984375 
L 29.296875 69 
L 17.578125 69 
L 17.578125 -6.203125 
L 29.296875 -6.203125 
L 29.296875 -13.1875 
L 8.59375 -13.1875 
z
" id="DejaVuSans-91"/>
       <path d="M 45.40625 46.390625 
L 45.40625 75.984375 
L 54.390625 75.984375 
L 54.390625 0 
L 45.40625 0 
L 45.40625 8.203125 
Q 42.578125 3.328125 38.25 0.953125 
Q 33.9375 -1.421875 27.875 -1.421875 
Q 17.96875 -1.421875 11.734375 6.484375 
Q 5.515625 14.40625 5.515625 27.296875 
Q 5.515625 40.1875 11.734375 48.09375 
Q 17.96875 56 27.875 56 
Q 33.9375 56 38.25 53.625 
Q 42.578125 51.265625 45.40625 46.390625 
z
M 14.796875 27.296875 
Q 14.796875 17.390625 18.875 11.75 
Q 22.953125 6.109375 30.078125 6.109375 
Q 37.203125 6.109375 41.296875 11.75 
Q 45.40625 17.390625 45.40625 27.296875 
Q 45.40625 37.203125 41.296875 42.84375 
Q 37.203125 48.484375 30.078125 48.484375 
Q 22.953125 48.484375 18.875 42.84375 
Q 14.796875 37.203125 14.796875 27.296875 
z
" id="DejaVuSans-100"/>
       <path d="M 34.28125 27.484375 
Q 23.390625 27.484375 19.1875 25 
Q 14.984375 22.515625 14.984375 16.5 
Q 14.984375 11.71875 18.140625 8.90625 
Q 21.296875 6.109375 26.703125 6.109375 
Q 34.1875 6.109375 38.703125 11.40625 
Q 43.21875 16.703125 43.21875 25.484375 
L 43.21875 27.484375 
z
M 52.203125 31.203125 
L 52.203125 0 
L 43.21875 0 
L 43.21875 8.296875 
Q 40.140625 3.328125 35.546875 0.953125 
Q 30.953125 -1.421875 24.3125 -1.421875 
Q 15.921875 -1.421875 10.953125 3.296875 
Q 6 8.015625 6 15.921875 
Q 6 25.140625 12.171875 29.828125 
Q 18.359375 34.515625 30.609375 34.515625 
L 43.21875 34.515625 
L 43.21875 35.40625 
Q 43.21875 41.609375 39.140625 45 
Q 35.0625 48.390625 27.6875 48.390625 
Q 23 48.390625 18.546875 47.265625 
Q 14.109375 46.140625 10.015625 43.890625 
L 10.015625 52.203125 
Q 14.9375 54.109375 19.578125 55.046875 
Q 24.21875 56 28.609375 56 
Q 40.484375 56 46.34375 49.84375 
Q 52.203125 43.703125 52.203125 31.203125 
z
" id="DejaVuSans-97"/>
       <path d="M 32.171875 -5.078125 
Q 28.375 -14.84375 24.75 -17.8125 
Q 21.140625 -20.796875 15.09375 -20.796875 
L 7.90625 -20.796875 
L 7.90625 -13.28125 
L 13.1875 -13.28125 
Q 16.890625 -13.28125 18.9375 -11.515625 
Q 21 -9.765625 23.484375 -3.21875 
L 25.09375 0.875 
L 2.984375 54.6875 
L 12.5 54.6875 
L 29.59375 11.921875 
L 46.6875 54.6875 
L 56.203125 54.6875 
z
" id="DejaVuSans-121"/>
       <path d="M 44.28125 53.078125 
L 44.28125 44.578125 
Q 40.484375 46.53125 36.375 47.5 
Q 32.28125 48.484375 27.875 48.484375 
Q 21.1875 48.484375 17.84375 46.4375 
Q 14.5 44.390625 14.5 40.28125 
Q 14.5 37.15625 16.890625 35.375 
Q 19.28125 33.59375 26.515625 31.984375 
L 29.59375 31.296875 
Q 39.15625 29.25 43.1875 25.515625 
Q 47.21875 21.78125 47.21875 15.09375 
Q 47.21875 7.46875 41.1875 3.015625 
Q 35.15625 -1.421875 24.609375 -1.421875 
Q 20.21875 -1.421875 15.453125 -0.5625 
Q 10.6875 0.296875 5.421875 2 
L 5.421875 11.28125 
Q 10.40625 8.6875 15.234375 7.390625 
Q 20.0625 6.109375 24.8125 6.109375 
Q 31.15625 6.109375 34.5625 8.28125 
Q 37.984375 10.453125 37.984375 14.40625 
Q 37.984375 18.0625 35.515625 20.015625 
Q 33.0625 21.96875 24.703125 23.78125 
L 21.578125 24.515625 
Q 13.234375 26.265625 9.515625 29.90625 
Q 5.8125 33.546875 5.8125 39.890625 
Q 5.8125 47.609375 11.28125 51.796875 
Q 16.75 56 26.8125 56 
Q 31.78125 56 36.171875 55.265625 
Q 40.578125 54.546875 44.28125 53.078125 
z
" id="DejaVuSans-115"/>
       <path d="M 30.421875 75.984375 
L 30.421875 -13.1875 
L 9.71875 -13.1875 
L 9.71875 -6.203125 
L 21.390625 -6.203125 
L 21.390625 69 
L 9.71875 69 
L 9.71875 75.984375 
z
" id="DejaVuSans-93"/>
      </defs>
      <use xlink:href="#DejaVuSans-84"/>
      <use x="57.958984" xlink:href="#DejaVuSans-105"/>
      <use x="85.742188" xlink:href="#DejaVuSans-109"/>
      <use x="183.154297" xlink:href="#DejaVuSans-101"/>
      <use x="244.677734" xlink:href="#DejaVuSans-44"/>
      <use x="276.464844" xlink:href="#DejaVuSans-32"/>
      <use x="308.251953" xlink:href="#DejaVuSans-116"/>
      <use x="347.460938" xlink:href="#DejaVuSans-32"/>
      <use x="379.248047" xlink:href="#DejaVuSans-91"/>
      <use x="418.261719" xlink:href="#DejaVuSans-100"/>
      <use x="481.738281" xlink:href="#DejaVuSans-97"/>
      <use x="543.017578" xlink:href="#DejaVuSans-121"/>
      <use x="602.197266" xlink:href="#DejaVuSans-115"/>
      <use x="654.296875" xlink:href="#DejaVuSans-93"/>
     </g>
    </g>
   </g>
   <g id="matplotlib.axis_2">
    <g id="ytick_1">
     <g id="line2d_6">
      <defs>
       <path d="M 0 0 
L -3.5 0 
" id="m986bcbc29e" style="stroke:#000000;stroke-width:0.8;"/>
      </defs>
      <g>
       <use style="stroke:#000000;stroke-width:0.8;" x="70.17125" xlink:href="#m986bcbc29e" y="167.865535"/>
      </g>
     </g>
     <g id="text_7">
      <!-- 0 -->
      <g transform="translate(56.80875 171.664754)scale(0.1 -0.1)">
       <use xlink:href="#DejaVuSans-48"/>
      </g>
     </g>
    </g>
    <g id="ytick_2">
     <g id="line2d_7">
      <g>
       <use style="stroke:#000000;stroke-width:0.8;" x="70.17125" xlink:href="#m986bcbc29e" y="130.467855"/>
      </g>
     </g>
     <g id="text_8">
      <!-- 100 -->
      <g transform="translate(44.08375 134.267074)scale(0.1 -0.1)">
       <use xlink:href="#DejaVuSans-49"/>
       <use x="63.623047" xlink:href="#DejaVuSans-48"/>
       <use x="127.246094" xlink:href="#DejaVuSans-48"/>
      </g>
     </g>
    </g>
    <g id="ytick_3">
     <g id="line2d_8">
      <g>
       <use style="stroke:#000000;stroke-width:0.8;" x="70.17125" xlink:href="#m986bcbc29e" y="93.070175"/>
      </g>
     </g>
     <g id="text_9">
      <!-- 200 -->
      <g transform="translate(44.08375 96.869394)scale(0.1 -0.1)">
       <use xlink:href="#DejaVuSans-50"/>
       <use x="63.623047" xlink:href="#DejaVuSans-48"/>
       <use x="127.246094" xlink:href="#DejaVuSans-48"/>
      </g>
     </g>
    </g>
    <g id="ytick_4">
     <g id="line2d_9">
      <g>
       <use style="stroke:#000000;stroke-width:0.8;" x="70.17125" xlink:href="#m986bcbc29e" y="55.672495"/>
      </g>
     </g>
     <g id="text_10">
      <!-- 300 -->
      <g transform="translate(44.08375 59.471714)scale(0.1 -0.1)">
       <defs>
        <path d="M 40.578125 39.3125 
Q 47.65625 37.796875 51.625 33 
Q 55.609375 28.21875 55.609375 21.1875 
Q 55.609375 10.40625 48.1875 4.484375 
Q 40.765625 -1.421875 27.09375 -1.421875 
Q 22.515625 -1.421875 17.65625 -0.515625 
Q 12.796875 0.390625 7.625 2.203125 
L 7.625 11.71875 
Q 11.71875 9.328125 16.59375 8.109375 
Q 21.484375 6.890625 26.8125 6.890625 
Q 36.078125 6.890625 40.9375 10.546875 
Q 45.796875 14.203125 45.796875 21.1875 
Q 45.796875 27.640625 41.28125 31.265625 
Q 36.765625 34.90625 28.71875 34.90625 
L 20.21875 34.90625 
L 20.21875 43.015625 
L 29.109375 43.015625 
Q 36.375 43.015625 40.234375 45.921875 
Q 44.09375 48.828125 44.09375 54.296875 
Q 44.09375 59.90625 40.109375 62.90625 
Q 36.140625 65.921875 28.71875 65.921875 
Q 24.65625 65.921875 20.015625 65.03125 
Q 15.375 64.15625 9.8125 62.3125 
L 9.8125 71.09375 
Q 15.4375 72.65625 20.34375 73.4375 
Q 25.25 74.21875 29.59375 74.21875 
Q 40.828125 74.21875 47.359375 69.109375 
Q 53.90625 64.015625 53.90625 55.328125 
Q 53.90625 49.265625 50.4375 45.09375 
Q 46.96875 40.921875 40.578125 39.3125 
z
" id="DejaVuSans-51"/>
       </defs>
       <use xlink:href="#DejaVuSans-51"/>
       <use x="63.623047" xlink:href="#DejaVuSans-48"/>
       <use x="127.246094" xlink:href="#DejaVuSans-48"/>
      </g>
     </g>
    </g>
    <g id="text_11">
     <!-- daily_cases_(t+7) -->
     <g transform="translate(37.725937 154.767813)rotate(-90)scale(0.1 -0.1)">
      <defs>
       <path d="M 9.421875 75.984375 
L 18.40625 75.984375 
L 18.40625 0 
L 9.421875 0 
z
" id="DejaVuSans-108"/>
       <path d="M 50.984375 -16.609375 
L 50.984375 -23.578125 
L -0.984375 -23.578125 
L -0.984375 -16.609375 
z
" id="DejaVuSans-95"/>
       <path d="M 48.78125 52.59375 
L 48.78125 44.1875 
Q 44.96875 46.296875 41.140625 47.34375 
Q 37.3125 48.390625 33.40625 48.390625 
Q 24.65625 48.390625 19.8125 42.84375 
Q 14.984375 37.3125 14.984375 27.296875 
Q 14.984375 17.28125 19.8125 11.734375 
Q 24.65625 6.203125 33.40625 6.203125 
Q 37.3125 6.203125 41.140625 7.25 
Q 44.96875 8.296875 48.78125 10.40625 
L 48.78125 2.09375 
Q 45.015625 0.34375 40.984375 -0.53125 
Q 36.96875 -1.421875 32.421875 -1.421875 
Q 20.0625 -1.421875 12.78125 6.34375 
Q 5.515625 14.109375 5.515625 27.296875 
Q 5.515625 40.671875 12.859375 48.328125 
Q 20.21875 56 33.015625 56 
Q 37.15625 56 41.109375 55.140625 
Q 45.0625 54.296875 48.78125 52.59375 
z
" id="DejaVuSans-99"/>
       <path d="M 31 75.875 
Q 24.46875 64.65625 21.28125 53.65625 
Q 18.109375 42.671875 18.109375 31.390625 
Q 18.109375 20.125 21.3125 9.0625 
Q 24.515625 -2 31 -13.1875 
L 23.1875 -13.1875 
Q 15.875 -1.703125 12.234375 9.375 
Q 8.59375 20.453125 8.59375 31.390625 
Q 8.59375 42.28125 12.203125 53.3125 
Q 15.828125 64.359375 23.1875 75.875 
z
" id="DejaVuSans-40"/>
       <path d="M 46 62.703125 
L 46 35.5 
L 73.1875 35.5 
L 73.1875 27.203125 
L 46 27.203125 
L 46 0 
L 37.796875 0 
L 37.796875 27.203125 
L 10.59375 27.203125 
L 10.59375 35.5 
L 37.796875 35.5 
L 37.796875 62.703125 
z
" id="DejaVuSans-43"/>
       <path d="M 8.203125 72.90625 
L 55.078125 72.90625 
L 55.078125 68.703125 
L 28.609375 0 
L 18.3125 0 
L 43.21875 64.59375 
L 8.203125 64.59375 
z
" id="DejaVuSans-55"/>
       <path d="M 8.015625 75.875 
L 15.828125 75.875 
Q 23.140625 64.359375 26.78125 53.3125 
Q 30.421875 42.28125 30.421875 31.390625 
Q 30.421875 20.453125 26.78125 9.375 
Q 23.140625 -1.703125 15.828125 -13.1875 
L 8.015625 -13.1875 
Q 14.5 -2 17.703125 9.0625 
Q 20.90625 20.125 20.90625 31.390625 
Q 20.90625 42.671875 17.703125 53.65625 
Q 14.5 64.65625 8.015625 75.875 
z
" id="DejaVuSans-41"/>
      </defs>
      <use xlink:href="#DejaVuSans-100"/>
      <use x="63.476562" xlink:href="#DejaVuSans-97"/>
      <use x="124.755859" xlink:href="#DejaVuSans-105"/>
      <use x="152.539062" xlink:href="#DejaVuSans-108"/>
      <use x="180.322266" xlink:href="#DejaVuSans-121"/>
      <use x="239.501953" xlink:href="#DejaVuSans-95"/>
      <use x="289.501953" xlink:href="#DejaVuSans-99"/>
      <use x="344.482422" xlink:href="#DejaVuSans-97"/>
      <use x="405.761719" xlink:href="#DejaVuSans-115"/>
      <use x="457.861328" xlink:href="#DejaVuSans-101"/>
      <use x="519.384766" xlink:href="#DejaVuSans-115"/>
      <use x="571.484375" xlink:href="#DejaVuSans-95"/>
      <use x="621.484375" xlink:href="#DejaVuSans-40"/>
      <use x="660.498047" xlink:href="#DejaVuSans-116"/>
      <use x="699.707031" xlink:href="#DejaVuSans-43"/>
      <use x="783.496094" xlink:href="#DejaVuSans-55"/>
      <use x="847.119141" xlink:href="#DejaVuSans-41"/>
     </g>
    </g>
   </g>
   <g id="line2d_10">
    <path clip-path="url(#pda3980bdf2)" d="M 111.436193 167.491558 
L 113.429669 167.865535 
L 119.410095 167.865535 
L 121.403571 164.873721 
L 123.397046 163.377814 
L 125.390522 161.50793 
L 127.383997 164.499744 
L 129.377473 166.743605 
L 131.370948 161.50793 
L 135.357899 147.296811 
L 137.351375 145.800904 
L 139.34485 142.435113 
L 143.331801 139.443298 
L 145.325277 134.955577 
L 147.318752 100.549711 
L 149.312228 114.386853 
L 151.305704 131.215809 
L 153.299179 136.077507 
L 155.292655 135.329554 
L 157.28613 146.174881 
L 159.279606 146.548858 
L 161.273081 153.654417 
L 163.266557 140.565229 
L 165.260032 142.061136 
L 167.253508 152.906463 
L 169.246983 157.394185 
L 171.240459 155.898278 
L 173.233934 140.565229 
L 175.22741 145.426927 
L 177.220885 154.028394 
L 179.214361 142.435113 
L 181.207836 158.142138 
L 183.201312 150.288626 
L 185.194787 163.003837 
L 187.188263 155.524301 
L 189.181738 158.516115 
L 191.175214 145.426927 
L 193.168689 153.654417 
L 195.162165 148.418742 
L 197.15564 152.906463 
L 199.149116 155.898278 
L 201.142591 153.28044 
L 203.136067 148.044765 
L 205.129542 143.93102 
L 207.123018 153.654417 
L 209.116493 161.881906 
L 211.109969 159.264069 
L 213.103444 153.28044 
L 215.09692 149.166695 
L 217.090396 143.183066 
L 219.083871 150.662602 
L 221.077347 157.020208 
L 223.070822 165.621674 
L 225.064298 167.117582 
L 227.057773 163.377814 
L 229.051249 157.768162 
L 231.044724 162.255883 
L 233.0382 155.524301 
L 235.031675 165.247698 
L 237.025151 166.743605 
L 239.018626 167.491558 
L 241.012102 161.50793 
L 243.005577 160.759976 
L 244.999053 164.499744 
L 246.992528 160.385999 
L 248.986004 164.499744 
L 250.979479 166.743605 
L 252.972955 166.743605 
L 254.96643 164.873721 
L 256.959906 165.995651 
L 258.953381 164.499744 
L 260.946857 165.995651 
L 262.940332 164.873721 
L 264.933808 167.117582 
L 266.927283 167.865535 
L 268.920759 165.247698 
L 270.914234 166.743605 
L 272.90771 162.62986 
L 274.901185 166.369628 
L 276.894661 164.873721 
L 278.888137 167.117582 
L 280.881612 167.117582 
L 282.875088 166.369628 
L 284.868563 164.873721 
L 286.862039 166.369628 
L 288.855514 165.621674 
L 290.84899 165.995651 
L 292.842465 167.865535 
L 294.835941 167.117582 
L 296.829416 164.873721 
L 298.822892 167.117582 
L 300.816367 165.995651 
L 302.809843 165.995651 
L 304.803318 164.125767 
L 306.796794 167.117582 
L 308.790269 167.491558 
L 310.783745 165.247698 
L 312.77722 166.369628 
L 314.770696 162.62986 
L 316.764171 162.255883 
L 318.757647 163.377814 
L 320.751122 167.491558 
L 322.744598 165.621674 
L 324.738073 163.377814 
L 326.731549 165.247698 
L 328.725024 157.768162 
L 330.7185 164.873721 
L 332.711975 163.75179 
L 334.705451 165.621674 
L 336.698926 167.865535 
L 338.692402 165.621674 
L 340.685878 163.003837 
L 342.679353 165.247698 
L 344.672829 165.247698 
L 346.666304 164.873721 
L 348.65978 167.491558 
L 350.653255 167.865535 
L 352.646731 166.369628 
L 354.640206 165.995651 
L 356.633682 163.75179 
L 358.627157 166.369628 
L 360.620633 166.743605 
L 362.614108 167.865535 
L 364.607584 166.743605 
L 366.601059 167.117582 
L 368.594535 165.247698 
L 370.58801 164.499744 
L 372.581486 166.369628 
L 374.574961 165.247698 
L 376.568437 164.873721 
L 378.561912 160.012022 
L 380.555388 163.003837 
L 382.548863 167.117582 
L 386.535814 162.62986 
L 388.52929 163.377814 
L 390.522765 165.621674 
L 392.516241 165.995651 
L 394.509716 163.003837 
L 396.503192 167.491558 
L 398.496667 165.621674 
L 400.490143 153.654417 
L 402.483619 160.385999 
L 404.477094 158.890092 
L 406.47057 160.012022 
L 408.464045 152.532486 
L 410.457521 153.28044 
L 412.450996 160.012022 
L 414.444472 152.15851 
L 416.437947 155.524301 
L 418.431423 156.272254 
L 420.424898 156.646231 
L 422.418374 161.50793 
L 424.411849 143.183066 
L 426.405325 150.288626 
L 428.3988 143.93102 
L 430.392276 136.451484 
L 434.379227 152.15851 
L 436.372702 160.759976 
L 438.366178 148.792718 
L 440.359653 149.166695 
L 442.353129 142.435113 
L 444.346604 129.345925 
L 446.34008 139.817275 
L 448.333555 154.028394 
L 450.327031 147.670788 
L 452.320506 136.077507 
L 454.313982 133.45967 
L 456.307457 132.711716 
L 458.300933 119.622528 
L 460.294408 125.23218 
L 462.287884 142.80909 
L 464.28136 143.557043 
L 466.274835 124.484226 
L 468.268311 129.719902 
L 470.261786 113.638899 
L 472.255262 119.996505 
L 474.248737 123.362296 
L 476.242213 145.426927 
L 480.229164 127.850018 
L 482.222639 100.923688 
L 484.216115 111.021062 
L 486.20959 124.858203 
L 488.203066 122.240366 
L 490.196541 127.102064 
L 492.190017 136.077507 
L 494.183492 137.947391 
L 496.176968 122.988319 
L 498.170443 143.93102 
L 500.163919 127.102064 
L 502.157394 139.069322 
L 504.15087 146.922834 
L 506.144345 142.435113 
L 508.137821 140.939206 
L 510.131296 145.05295 
L 512.124772 146.548858 
L 514.118247 139.817275 
L 516.111723 147.296811 
L 518.105198 158.516115 
L 520.098674 139.817275 
L 522.092149 155.150324 
L 524.085625 150.662602 
L 526.079101 150.662602 
L 528.072576 143.183066 
L 530.066052 155.898278 
L 532.059527 145.05295 
L 534.053003 152.532486 
L 536.046478 150.662602 
L 538.039954 153.28044 
L 540.033429 155.524301 
L 542.026905 142.435113 
L 544.02038 141.687159 
L 546.013856 154.776347 
L 548.007331 151.036579 
L 550.000807 140.565229 
L 551.994282 145.05295 
L 553.987758 136.077507 
L 555.981233 129.719902 
L 557.974709 109.899131 
L 559.968184 149.914649 
L 561.96166 133.085693 
L 563.955135 108.403224 
L 565.948611 87.8345 
L 567.942086 123.736273 
L 569.935562 98.679827 
L 571.929037 102.793572 
L 573.922513 106.53334 
L 575.915988 117.378667 
L 577.909464 103.167549 
L 579.902939 92.696198 
L 581.896415 99.801758 
L 583.88989 105.037433 
L 585.883366 94.566082 
L 587.876842 113.638899 
L 589.870317 87.086546 
L 591.863793 79.233034 
L 593.857268 109.151178 
L 595.850744 51.932727 
L 597.844219 82.972802 
L 599.837695 100.549711 
L 601.83117 79.60701 
L 603.824646 83.346778 
L 605.818121 72.127474 
L 607.811597 70.631567 
L 609.805072 82.598825 
L 611.798548 89.704384 
L 613.792023 95.688013 
L 615.785499 119.248551 
L 617.778974 77.737126 
L 619.77245 63.152031 
L 621.765925 78.111103 
L 623.759401 105.41141 
L 625.752876 104.289479 
L 627.746352 111.395038 
L 629.739827 136.451484 
L 631.733303 117.752644 
L 633.726778 118.126621 
L 635.720254 122.614342 
L 637.713729 128.597971 
L 639.707205 117.378667 
L 641.70068 135.329554 
L 643.694156 134.5816 
L 645.687631 128.223994 
L 647.681107 92.322222 
L 649.674583 122.988319 
L 651.668058 108.777201 
L 653.661534 117.378667 
L 655.655009 119.622528 
L 657.648485 146.174881 
L 659.64196 138.321368 
L 661.635436 134.955577 
L 663.628911 150.288626 
L 665.622387 126.728087 
L 667.615862 139.069322 
L 669.609338 147.296811 
L 671.602813 137.573414 
L 673.596289 140.191252 
L 675.589764 135.329554 
L 677.58324 137.199438 
L 679.576715 139.817275 
L 681.570191 140.565229 
L 683.563666 155.898278 
L 685.557142 148.792718 
L 687.550617 143.93102 
L 689.544093 144.678974 
L 691.537568 137.573414 
L 693.531044 145.800904 
L 695.524519 142.80909 
L 697.517995 143.557043 
L 699.51147 140.565229 
L 701.504946 140.939206 
L 703.498421 124.858203 
L 705.491897 125.606157 
L 707.485372 152.15851 
L 709.478848 112.516969 
L 711.472324 127.850018 
L 713.465799 135.70353 
L 715.459275 120.370482 
L 717.45275 118.126621 
L 721.439701 112.142992 
L 723.433177 125.23218 
L 725.426652 112.142992 
L 727.420128 123.736273 
L 729.413603 89.704384 
L 731.407079 119.248551 
L 733.400554 98.679827 
L 735.39403 115.134806 
L 737.387505 98.679827 
L 739.380981 112.142992 
L 741.374456 121.118435 
L 743.367932 123.362296 
L 745.361407 90.452338 
L 747.354883 90.078361 
L 749.348358 93.444152 
L 751.341834 93.070175 
L 753.335309 104.663456 
L 755.328785 130.467855 
L 757.32226 103.541526 
L 759.315736 118.126621 
L 761.309211 91.948245 
L 763.302687 109.525154 
L 765.296162 96.06199 
L 767.289638 122.240366 
L 769.283113 138.321368 
L 771.276589 114.012876 
L 773.270065 113.264922 
L 775.26354 122.988319 
L 777.257016 116.256737 
L 779.250491 130.841832 
L 781.243967 142.435113 
L 783.237442 146.174881 
L 785.230918 130.093878 
L 787.224393 128.223994 
L 789.217869 127.476041 
L 791.211344 143.557043 
L 793.20482 136.825461 
L 795.198295 163.003837 
L 797.191771 133.085693 
L 799.185246 130.467855 
L 801.178722 141.687159 
L 803.172197 148.418742 
L 805.165673 139.817275 
L 807.159148 139.817275 
L 809.152624 149.914649 
L 811.146099 150.288626 
L 813.139575 144.304997 
L 815.13305 146.922834 
L 817.126526 146.174881 
L 819.120001 151.410556 
L 821.113477 147.296811 
L 823.106952 156.272254 
L 825.100428 153.28044 
L 827.093903 153.28044 
L 829.087379 149.914649 
L 831.080854 154.028394 
L 833.07433 151.784533 
L 835.067806 158.142138 
L 837.061281 153.28044 
L 839.054757 151.410556 
L 841.048232 157.768162 
L 843.041708 149.914649 
L 845.035183 151.410556 
L 847.028659 153.28044 
L 849.022134 151.036579 
L 851.01561 150.662602 
L 853.009085 158.142138 
L 855.002561 147.670788 
L 856.996036 152.15851 
L 858.989512 149.166695 
L 860.982987 154.40237 
L 862.976463 154.028394 
L 864.969938 147.670788 
L 866.963414 162.255883 
L 868.956889 148.418742 
L 870.950365 149.166695 
L 872.94384 151.784533 
L 874.937316 139.443298 
L 876.930791 152.15851 
L 878.924267 157.020208 
L 880.917742 143.557043 
L 882.911218 144.678974 
L 884.904693 143.183066 
L 886.898169 144.304997 
L 888.891644 147.296811 
L 890.88512 140.565229 
L 892.878595 148.044765 
L 894.872071 152.906463 
L 896.865546 146.548858 
L 898.859022 143.557043 
L 900.852498 144.678974 
L 902.845973 130.093878 
L 904.839449 146.922834 
L 906.832924 133.45967 
L 908.8264 134.955577 
L 910.819875 129.719902 
L 912.813351 138.321368 
L 914.806826 143.183066 
L 916.800302 117.752644 
L 918.793777 129.719902 
L 920.787253 134.955577 
L 922.780728 123.362296 
L 924.774204 127.102064 
L 926.767679 134.207623 
L 928.761155 127.850018 
L 930.75463 123.362296 
L 932.748106 109.151178 
L 934.741581 139.069322 
L 936.735057 140.939206 
L 936.735057 140.939206 
" style="fill:none;stroke:#0000ff;stroke-linecap:square;stroke-width:1.5;"/>
   </g>
   <g id="line2d_11">
    <path clip-path="url(#pda3980bdf2)" d="M 111.436193 165.995527 
L 115.423144 165.995816 
L 117.41662 165.851609 
L 119.410095 165.851609 
L 121.403571 165.970747 
L 123.397046 145.568852 
L 125.390522 148.093183 
L 127.383997 165.616362 
L 129.377473 165.832183 
L 131.370948 165.784391 
L 133.364424 162.790468 
L 135.357899 148.533558 
L 137.351375 144.285054 
L 139.34485 146.259083 
L 141.338326 152.264468 
L 143.331801 156.2461 
L 145.325277 142.604321 
L 147.318752 133.55116 
L 149.312228 131.76121 
L 151.305704 133.085531 
L 153.299179 135.318062 
L 155.292655 134.320085 
L 157.28613 143.722128 
L 159.279606 144.445297 
L 161.273081 151.784639 
L 163.266557 148.657024 
L 165.260032 143.931154 
L 167.253508 138.085332 
L 169.246983 142.314063 
L 171.240459 149.398345 
L 173.233934 147.631453 
L 175.22741 152.57794 
L 177.220885 151.121277 
L 179.214361 151.662999 
L 181.207836 155.996529 
L 183.201312 153.472019 
L 185.194787 157.888627 
L 187.188263 153.851878 
L 189.181738 153.163566 
L 191.175214 154.108059 
L 193.168689 151.784458 
L 195.162165 157.265431 
L 197.15564 151.583217 
L 199.149116 158.671592 
L 201.142591 155.89969 
L 203.136067 157.984493 
L 205.129542 154.293019 
L 207.123018 155.524389 
L 209.116493 153.399032 
L 211.109969 151.571585 
L 213.103444 155.470891 
L 215.09692 154.216625 
L 217.090396 151.77397 
L 219.083871 152.658266 
L 221.077347 155.561798 
L 223.070822 153.011924 
L 225.064298 157.000948 
L 227.057773 158.267433 
L 229.051249 155.210347 
L 231.044724 154.412162 
L 233.0382 155.125158 
L 235.031675 156.278782 
L 237.025151 160.898371 
L 239.018626 164.165004 
L 241.012102 163.377757 
L 243.005577 161.944716 
L 244.999053 162.049201 
L 246.992528 160.755725 
L 248.986004 164.187596 
L 250.979479 166.206115 
L 252.972955 166.846276 
L 254.96643 163.231458 
L 256.959906 161.477236 
L 258.953381 164.516392 
L 260.946857 164.129829 
L 262.940332 162.962555 
L 264.933808 164.416908 
L 266.927283 164.84593 
L 268.920759 167.027964 
L 270.914234 163.163201 
L 272.90771 163.954634 
L 274.901185 163.866289 
L 276.894661 165.932477 
L 278.888137 164.809333 
L 280.881612 168.987273 
L 282.875088 165.523931 
L 284.868563 166.594759 
L 286.862039 163.016331 
L 288.855514 164.768564 
L 290.84899 166.183381 
L 292.842465 165.763614 
L 294.835941 166.677014 
L 296.829416 165.851453 
L 298.822892 164.089773 
L 300.816367 165.188346 
L 302.809843 165.363521 
L 304.803318 162.529321 
L 306.796794 166.60071 
L 308.790269 166.425514 
L 310.783745 166.098535 
L 312.77722 168.239472 
L 314.770696 164.749796 
L 316.764171 166.592686 
L 318.757647 166.290114 
L 320.751122 163.392247 
L 322.744598 168.912917 
L 324.738073 167.469477 
L 326.731549 163.692817 
L 328.725024 164.287285 
L 330.7185 163.364115 
L 332.711975 161.881763 
L 336.698926 166.53304 
L 338.692402 162.922929 
L 340.685878 159.675114 
L 342.679353 159.031147 
L 344.672829 161.880665 
L 346.666304 162.299595 
L 348.65978 161.166626 
L 350.653255 166.071109 
L 352.646731 164.428309 
L 354.640206 161.304183 
L 356.633682 161.501157 
L 358.627157 163.549054 
L 360.620633 164.013947 
L 362.614108 164.862779 
L 364.607584 168.567772 
L 366.601059 167.158295 
L 368.594535 164.101912 
L 370.58801 164.071821 
L 372.581486 163.785536 
L 374.574961 166.099046 
L 376.568437 167.485159 
L 378.561912 166.701837 
L 380.555388 166.231802 
L 382.548863 164.372032 
L 384.542339 164.042993 
L 386.535814 162.799686 
L 388.52929 165.70346 
L 392.516241 161.204942 
L 394.509716 161.759638 
L 396.503192 163.988362 
L 398.496667 161.066814 
L 400.490143 160.352194 
L 402.483619 163.335995 
L 404.477094 163.049293 
L 406.47057 165.121862 
L 408.464045 161.994573 
L 410.457521 164.349232 
L 412.450996 163.418823 
L 414.444472 153.560206 
L 416.437947 161.132239 
L 418.431423 156.54891 
L 420.424898 157.1428 
L 422.418374 153.917094 
L 424.411849 152.035419 
L 426.405325 154.71151 
L 428.3988 151.137967 
L 430.392276 152.323002 
L 432.385751 152.786104 
L 434.379227 153.675293 
L 436.372702 157.244248 
L 438.366178 145.541688 
L 440.359653 146.18807 
L 442.353129 145.62731 
L 444.346604 137.242445 
L 446.34008 138.727898 
L 448.333555 146.247727 
L 450.327031 150.441164 
L 452.320506 140.536473 
L 454.313982 138.977243 
L 456.307457 140.50275 
L 458.300933 129.010301 
L 460.294408 140.048436 
L 462.287884 147.208518 
L 464.28136 142.736795 
L 466.274835 133.058759 
L 468.268311 131.877168 
L 470.261786 130.501615 
L 472.255262 125.233272 
L 474.248737 125.400897 
L 476.242213 132.920041 
L 478.235688 132.15865 
L 480.229164 117.419835 
L 482.222639 125.383618 
L 484.216115 120.338577 
L 486.20959 121.571394 
L 488.203066 118.892912 
L 490.196541 131.633121 
L 492.190017 129.165532 
L 494.183492 127.182256 
L 496.176968 106.461097 
L 498.170443 117.472989 
L 500.163919 123.742137 
L 502.157394 113.971723 
L 504.15087 116.708413 
L 506.144345 123.455399 
L 508.137821 123.397963 
L 510.131296 122.177273 
L 512.124772 133.011042 
L 514.118247 125.816869 
L 516.111723 129.297995 
L 518.105198 139.878227 
L 520.098674 141.68722 
L 522.092149 137.454649 
L 524.085625 139.72869 
L 526.079101 139.764263 
L 528.072576 137.830446 
L 530.066052 140.947226 
L 532.059527 152.426492 
L 534.053003 140.848952 
L 536.046478 148.80543 
L 542.026905 143.543224 
L 544.02038 150.463688 
L 546.013856 146.486157 
L 548.007331 151.030341 
L 550.000807 147.847325 
L 551.994282 146.882504 
L 553.987758 145.739401 
L 555.981233 140.771948 
L 557.974709 142.526645 
L 559.968184 146.991257 
L 561.96166 144.805231 
L 563.955135 144.68507 
L 565.948611 143.653868 
L 567.942086 136.594514 
L 569.935562 134.668967 
L 571.929037 123.881917 
L 573.922513 132.172564 
L 575.915988 125.024512 
L 577.909464 123.879071 
L 579.902939 110.011843 
L 581.896415 118.355709 
L 583.88989 103.629897 
L 585.883366 106.404743 
L 587.876842 107.218086 
L 589.870317 103.9098 
L 591.863793 98.674869 
L 593.857268 100.299801 
L 595.850744 106.806847 
L 597.844219 103.408201 
L 599.837695 103.14506 
L 601.83117 111.488225 
L 603.824646 104.629274 
L 605.818121 104.457283 
L 607.811597 112.787689 
L 609.805072 100.66954 
L 611.798548 97.864526 
L 613.792023 109.64351 
L 615.785499 109.342101 
L 617.778974 111.991093 
L 619.77245 101.070703 
L 621.765925 104.8977 
L 623.759401 109.502606 
L 625.752876 111.751324 
L 627.746352 108.447221 
L 629.739827 121.469162 
L 631.733303 112.27766 
L 633.726778 107.887114 
L 635.720254 114.784425 
L 637.713729 119.548901 
L 639.707205 119.248559 
L 641.70068 122.519007 
L 643.694156 133.164333 
L 645.687631 124.233284 
L 647.681107 105.999963 
L 649.674583 126.016147 
L 651.668058 128.81108 
L 653.661534 129.501494 
L 655.655009 128.660146 
L 657.648485 138.166764 
L 659.64196 135.567967 
L 661.635436 122.483039 
L 663.628911 123.957663 
L 665.622387 124.186688 
L 667.615862 125.367308 
L 669.609338 128.002392 
L 671.602813 135.989729 
L 673.596289 133.040675 
L 675.589764 130.803798 
L 677.58324 143.292738 
L 679.576715 137.994502 
L 681.570191 140.664143 
L 683.563666 145.779171 
L 685.557142 140.385295 
L 687.550617 144.44592 
L 689.544093 135.810305 
L 691.537568 135.703364 
L 693.531044 136.529923 
L 695.524519 136.640678 
L 697.517995 142.43869 
L 699.51147 141.650979 
L 701.504946 142.809244 
L 703.498421 138.043872 
L 705.491897 135.703225 
L 707.485372 142.538632 
L 709.478848 136.513916 
L 711.472324 136.706993 
L 713.465799 141.944642 
L 715.459275 139.32965 
L 717.45275 134.677572 
L 719.446226 123.367007 
L 721.439701 141.726868 
L 723.433177 129.386624 
L 725.426652 130.013517 
L 727.420128 129.093242 
L 729.413603 127.298386 
L 731.407079 120.74175 
L 733.400554 121.384799 
L 737.387505 112.973578 
L 739.380981 112.324345 
L 741.374456 121.980708 
L 743.367932 115.103224 
L 745.361407 115.479578 
L 747.354883 102.163086 
L 749.348358 115.085328 
L 751.341834 111.606887 
L 753.335309 112.080252 
L 755.328785 119.765602 
L 757.32226 124.686932 
L 759.315736 114.829485 
L 761.309211 112.602249 
L 763.302687 114.116013 
L 765.296162 109.091922 
L 767.289638 123.30903 
L 769.283113 123.858696 
L 771.276589 115.33438 
L 773.270065 120.045754 
L 775.26354 117.436018 
L 777.257016 116.785869 
L 779.250491 121.402897 
L 781.243967 130.335162 
L 783.237442 137.039904 
L 785.230918 130.255236 
L 787.224393 125.968958 
L 789.217869 129.34591 
L 791.211344 126.464571 
L 793.20482 132.890257 
L 795.198295 136.322925 
L 797.191771 136.90286 
L 799.185246 132.623929 
L 801.178722 139.817223 
L 803.172197 135.907911 
L 805.165673 142.374215 
L 807.159148 142.244767 
L 809.152624 147.711211 
L 811.146099 142.528121 
L 813.139575 138.938443 
L 815.13305 144.402723 
L 817.126526 144.692874 
L 819.120001 138.51504 
L 821.113477 143.74216 
L 823.106952 145.170655 
L 825.100428 149.170423 
L 827.093903 146.110633 
L 829.087379 148.49243 
L 831.080854 145.697125 
L 833.07433 150.014457 
L 835.067806 147.53943 
L 837.061281 154.31107 
L 839.054757 156.157279 
L 841.048232 150.630311 
L 843.041708 148.044809 
L 845.035183 151.512624 
L 847.028659 152.610125 
L 849.022134 153.849981 
L 851.01561 156.832028 
L 853.009085 156.486365 
L 855.002561 152.767381 
L 856.996036 148.355997 
L 858.989512 149.682465 
L 860.982987 150.546718 
L 864.969938 149.15361 
L 866.963414 153.639089 
L 868.956889 145.979864 
L 870.950365 147.296845 
L 872.94384 143.395208 
L 874.937316 144.211823 
L 876.930791 151.911518 
L 878.924267 150.430856 
L 880.917742 157.592963 
L 882.911218 147.250237 
L 884.904693 143.478582 
L 886.898169 144.7312 
L 888.891644 142.476402 
L 890.88512 140.967959 
L 892.878595 149.914782 
L 894.872071 146.761249 
L 896.865546 137.674126 
L 898.859022 140.904072 
L 900.852498 140.021194 
L 902.845973 140.680862 
L 904.839449 144.878547 
L 906.832924 147.851747 
L 908.8264 152.874287 
L 910.819875 142.108791 
L 912.813351 141.263122 
L 914.806826 139.803137 
L 916.800302 134.089033 
L 918.793777 138.098582 
L 920.787253 137.817956 
L 922.780728 138.975314 
L 924.774204 133.22513 
L 926.767679 134.767114 
L 928.761155 132.451086 
L 930.75463 127.832201 
L 932.748106 130.053575 
L 934.741581 138.089304 
L 936.735057 134.62753 
L 936.735057 134.62753 
" style="fill:none;stroke:#ff0000;stroke-linecap:square;stroke-width:1.5;"/>
   </g>
   <g id="patch_3">
    <path d="M 70.17125 174.84 
L 70.17125 46.08 
" style="fill:none;stroke:#000000;stroke-linecap:square;stroke-linejoin:miter;stroke-width:0.8;"/>
   </g>
   <g id="patch_4">
    <path d="M 978 174.84 
L 978 46.08 
" style="fill:none;stroke:#000000;stroke-linecap:square;stroke-linejoin:miter;stroke-width:0.8;"/>
   </g>
   <g id="patch_5">
    <path d="M 70.17125 174.84 
L 978 174.84 
" style="fill:none;stroke:#000000;stroke-linecap:square;stroke-linejoin:miter;stroke-width:0.8;"/>
   </g>
   <g id="patch_6">
    <path d="M 70.17125 46.08 
L 978 46.08 
" style="fill:none;stroke:#000000;stroke-linecap:square;stroke-linejoin:miter;stroke-width:0.8;"/>
   </g>
   <g id="text_12">
    <!-- Support Vector Regression fit train -->
    <g transform="translate(420.706562 40.08)scale(0.12 -0.12)">
     <defs>
      <path d="M 53.515625 70.515625 
L 53.515625 60.890625 
Q 47.90625 63.578125 42.921875 64.890625 
Q 37.9375 66.21875 33.296875 66.21875 
Q 25.25 66.21875 20.875 63.09375 
Q 16.5 59.96875 16.5 54.203125 
Q 16.5 49.359375 19.40625 46.890625 
Q 22.3125 44.4375 30.421875 42.921875 
L 36.375 41.703125 
Q 47.40625 39.59375 52.65625 34.296875 
Q 57.90625 29 57.90625 20.125 
Q 57.90625 9.515625 50.796875 4.046875 
Q 43.703125 -1.421875 29.984375 -1.421875 
Q 24.8125 -1.421875 18.96875 -0.25 
Q 13.140625 0.921875 6.890625 3.21875 
L 6.890625 13.375 
Q 12.890625 10.015625 18.65625 8.296875 
Q 24.421875 6.59375 29.984375 6.59375 
Q 38.421875 6.59375 43.015625 9.90625 
Q 47.609375 13.234375 47.609375 19.390625 
Q 47.609375 24.75 44.3125 27.78125 
Q 41.015625 30.8125 33.5 32.328125 
L 27.484375 33.5 
Q 16.453125 35.6875 11.515625 40.375 
Q 6.59375 45.0625 6.59375 53.421875 
Q 6.59375 63.09375 13.40625 68.65625 
Q 20.21875 74.21875 32.171875 74.21875 
Q 37.3125 74.21875 42.625 73.28125 
Q 47.953125 72.359375 53.515625 70.515625 
z
" id="DejaVuSans-83"/>
      <path d="M 8.5 21.578125 
L 8.5 54.6875 
L 17.484375 54.6875 
L 17.484375 21.921875 
Q 17.484375 14.15625 20.5 10.265625 
Q 23.53125 6.390625 29.59375 6.390625 
Q 36.859375 6.390625 41.078125 11.03125 
Q 45.3125 15.671875 45.3125 23.6875 
L 45.3125 54.6875 
L 54.296875 54.6875 
L 54.296875 0 
L 45.3125 0 
L 45.3125 8.40625 
Q 42.046875 3.421875 37.71875 1 
Q 33.40625 -1.421875 27.6875 -1.421875 
Q 18.265625 -1.421875 13.375 4.4375 
Q 8.5 10.296875 8.5 21.578125 
z
M 31.109375 56 
z
" id="DejaVuSans-117"/>
      <path d="M 18.109375 8.203125 
L 18.109375 -20.796875 
L 9.078125 -20.796875 
L 9.078125 54.6875 
L 18.109375 54.6875 
L 18.109375 46.390625 
Q 20.953125 51.265625 25.265625 53.625 
Q 29.59375 56 35.59375 56 
Q 45.5625 56 51.78125 48.09375 
Q 58.015625 40.1875 58.015625 27.296875 
Q 58.015625 14.40625 51.78125 6.484375 
Q 45.5625 -1.421875 35.59375 -1.421875 
Q 29.59375 -1.421875 25.265625 0.953125 
Q 20.953125 3.328125 18.109375 8.203125 
z
M 48.6875 27.296875 
Q 48.6875 37.203125 44.609375 42.84375 
Q 40.53125 48.484375 33.40625 48.484375 
Q 26.265625 48.484375 22.1875 42.84375 
Q 18.109375 37.203125 18.109375 27.296875 
Q 18.109375 17.390625 22.1875 11.75 
Q 26.265625 6.109375 33.40625 6.109375 
Q 40.53125 6.109375 44.609375 11.75 
Q 48.6875 17.390625 48.6875 27.296875 
z
" id="DejaVuSans-112"/>
      <path d="M 30.609375 48.390625 
Q 23.390625 48.390625 19.1875 42.75 
Q 14.984375 37.109375 14.984375 27.296875 
Q 14.984375 17.484375 19.15625 11.84375 
Q 23.34375 6.203125 30.609375 6.203125 
Q 37.796875 6.203125 41.984375 11.859375 
Q 46.1875 17.53125 46.1875 27.296875 
Q 46.1875 37.015625 41.984375 42.703125 
Q 37.796875 48.390625 30.609375 48.390625 
z
M 30.609375 56 
Q 42.328125 56 49.015625 48.375 
Q 55.71875 40.765625 55.71875 27.296875 
Q 55.71875 13.875 49.015625 6.21875 
Q 42.328125 -1.421875 30.609375 -1.421875 
Q 18.84375 -1.421875 12.171875 6.21875 
Q 5.515625 13.875 5.515625 27.296875 
Q 5.515625 40.765625 12.171875 48.375 
Q 18.84375 56 30.609375 56 
z
" id="DejaVuSans-111"/>
      <path d="M 41.109375 46.296875 
Q 39.59375 47.171875 37.8125 47.578125 
Q 36.03125 48 33.890625 48 
Q 26.265625 48 22.1875 43.046875 
Q 18.109375 38.09375 18.109375 28.8125 
L 18.109375 0 
L 9.078125 0 
L 9.078125 54.6875 
L 18.109375 54.6875 
L 18.109375 46.1875 
Q 20.953125 51.171875 25.484375 53.578125 
Q 30.03125 56 36.53125 56 
Q 37.453125 56 38.578125 55.875 
Q 39.703125 55.765625 41.0625 55.515625 
z
" id="DejaVuSans-114"/>
      <path d="M 28.609375 0 
L 0.78125 72.90625 
L 11.078125 72.90625 
L 34.1875 11.53125 
L 57.328125 72.90625 
L 67.578125 72.90625 
L 39.796875 0 
z
" id="DejaVuSans-86"/>
      <path d="M 44.390625 34.1875 
Q 47.5625 33.109375 50.5625 29.59375 
Q 53.5625 26.078125 56.59375 19.921875 
L 66.609375 0 
L 56 0 
L 46.6875 18.703125 
Q 43.0625 26.03125 39.671875 28.421875 
Q 36.28125 30.8125 30.421875 30.8125 
L 19.671875 30.8125 
L 19.671875 0 
L 9.8125 0 
L 9.8125 72.90625 
L 32.078125 72.90625 
Q 44.578125 72.90625 50.734375 67.671875 
Q 56.890625 62.453125 56.890625 51.90625 
Q 56.890625 45.015625 53.6875 40.46875 
Q 50.484375 35.9375 44.390625 34.1875 
z
M 19.671875 64.796875 
L 19.671875 38.921875 
L 32.078125 38.921875 
Q 39.203125 38.921875 42.84375 42.21875 
Q 46.484375 45.515625 46.484375 51.90625 
Q 46.484375 58.296875 42.84375 61.546875 
Q 39.203125 64.796875 32.078125 64.796875 
z
" id="DejaVuSans-82"/>
      <path d="M 45.40625 27.984375 
Q 45.40625 37.75 41.375 43.109375 
Q 37.359375 48.484375 30.078125 48.484375 
Q 22.859375 48.484375 18.828125 43.109375 
Q 14.796875 37.75 14.796875 27.984375 
Q 14.796875 18.265625 18.828125 12.890625 
Q 22.859375 7.515625 30.078125 7.515625 
Q 37.359375 7.515625 41.375 12.890625 
Q 45.40625 18.265625 45.40625 27.984375 
z
M 54.390625 6.78125 
Q 54.390625 -7.171875 48.1875 -13.984375 
Q 42 -20.796875 29.203125 -20.796875 
Q 24.46875 -20.796875 20.265625 -20.09375 
Q 16.0625 -19.390625 12.109375 -17.921875 
L 12.109375 -9.1875 
Q 16.0625 -11.328125 19.921875 -12.34375 
Q 23.78125 -13.375 27.78125 -13.375 
Q 36.625 -13.375 41.015625 -8.765625 
Q 45.40625 -4.15625 45.40625 5.171875 
L 45.40625 9.625 
Q 42.625 4.78125 38.28125 2.390625 
Q 33.9375 0 27.875 0 
Q 17.828125 0 11.671875 7.65625 
Q 5.515625 15.328125 5.515625 27.984375 
Q 5.515625 40.671875 11.671875 48.328125 
Q 17.828125 56 27.875 56 
Q 33.9375 56 38.28125 53.609375 
Q 42.625 51.21875 45.40625 46.390625 
L 45.40625 54.6875 
L 54.390625 54.6875 
z
" id="DejaVuSans-103"/>
      <path d="M 54.890625 33.015625 
L 54.890625 0 
L 45.90625 0 
L 45.90625 32.71875 
Q 45.90625 40.484375 42.875 44.328125 
Q 39.84375 48.1875 33.796875 48.1875 
Q 26.515625 48.1875 22.3125 43.546875 
Q 18.109375 38.921875 18.109375 30.90625 
L 18.109375 0 
L 9.078125 0 
L 9.078125 54.6875 
L 18.109375 54.6875 
L 18.109375 46.1875 
Q 21.34375 51.125 25.703125 53.5625 
Q 30.078125 56 35.796875 56 
Q 45.21875 56 50.046875 50.171875 
Q 54.890625 44.34375 54.890625 33.015625 
z
" id="DejaVuSans-110"/>
      <path d="M 37.109375 75.984375 
L 37.109375 68.5 
L 28.515625 68.5 
Q 23.6875 68.5 21.796875 66.546875 
Q 19.921875 64.59375 19.921875 59.515625 
L 19.921875 54.6875 
L 34.71875 54.6875 
L 34.71875 47.703125 
L 19.921875 47.703125 
L 19.921875 0 
L 10.890625 0 
L 10.890625 47.703125 
L 2.296875 47.703125 
L 2.296875 54.6875 
L 10.890625 54.6875 
L 10.890625 58.5 
Q 10.890625 67.625 15.140625 71.796875 
Q 19.390625 75.984375 28.609375 75.984375 
z
" id="DejaVuSans-102"/>
     </defs>
     <use xlink:href="#DejaVuSans-83"/>
     <use x="63.476562" xlink:href="#DejaVuSans-117"/>
     <use x="126.855469" xlink:href="#DejaVuSans-112"/>
     <use x="190.332031" xlink:href="#DejaVuSans-112"/>
     <use x="253.808594" xlink:href="#DejaVuSans-111"/>
     <use x="314.990234" xlink:href="#DejaVuSans-114"/>
     <use x="356.103516" xlink:href="#DejaVuSans-116"/>
     <use x="395.3125" xlink:href="#DejaVuSans-32"/>
     <use x="427.099609" xlink:href="#DejaVuSans-86"/>
     <use x="487.757812" xlink:href="#DejaVuSans-101"/>
     <use x="549.28125" xlink:href="#DejaVuSans-99"/>
     <use x="604.261719" xlink:href="#DejaVuSans-116"/>
     <use x="643.470703" xlink:href="#DejaVuSans-111"/>
     <use x="704.652344" xlink:href="#DejaVuSans-114"/>
     <use x="745.765625" xlink:href="#DejaVuSans-32"/>
     <use x="777.552734" xlink:href="#DejaVuSans-82"/>
     <use x="842.535156" xlink:href="#DejaVuSans-101"/>
     <use x="904.058594" xlink:href="#DejaVuSans-103"/>
     <use x="967.535156" xlink:href="#DejaVuSans-114"/>
     <use x="1006.398438" xlink:href="#DejaVuSans-101"/>
     <use x="1067.921875" xlink:href="#DejaVuSans-115"/>
     <use x="1120.021484" xlink:href="#DejaVuSans-115"/>
     <use x="1172.121094" xlink:href="#DejaVuSans-105"/>
     <use x="1199.904297" xlink:href="#DejaVuSans-111"/>
     <use x="1261.085938" xlink:href="#DejaVuSans-110"/>
     <use x="1324.464844" xlink:href="#DejaVuSans-32"/>
     <use x="1356.251953" xlink:href="#DejaVuSans-102"/>
     <use x="1391.457031" xlink:href="#DejaVuSans-105"/>
     <use x="1419.240234" xlink:href="#DejaVuSans-116"/>
     <use x="1458.449219" xlink:href="#DejaVuSans-32"/>
     <use x="1490.236328" xlink:href="#DejaVuSans-116"/>
     <use x="1529.445312" xlink:href="#DejaVuSans-114"/>
     <use x="1570.558594" xlink:href="#DejaVuSans-97"/>
     <use x="1631.837891" xlink:href="#DejaVuSans-105"/>
     <use x="1659.621094" xlink:href="#DejaVuSans-110"/>
    </g>
   </g>
   <g id="legend_1">
    <g id="patch_7">
     <path d="M 77.17125 83.43625 
L 151.474375 83.43625 
Q 153.474375 83.43625 153.474375 81.43625 
L 153.474375 53.08 
Q 153.474375 51.08 151.474375 51.08 
L 77.17125 51.08 
Q 75.17125 51.08 75.17125 53.08 
L 75.17125 81.43625 
Q 75.17125 83.43625 77.17125 83.43625 
z
" style="fill:#ffffff;opacity:0.8;stroke:#cccccc;stroke-linejoin:miter;"/>
    </g>
    <g id="line2d_12">
     <path d="M 79.17125 59.178438 
L 99.17125 59.178438 
" style="fill:none;stroke:#0000ff;stroke-linecap:square;stroke-width:1.5;"/>
    </g>
    <g id="line2d_13"/>
    <g id="text_13">
     <!-- Data -->
     <g transform="translate(107.17125 62.678438)scale(0.1 -0.1)">
      <defs>
       <path d="M 19.671875 64.796875 
L 19.671875 8.109375 
L 31.59375 8.109375 
Q 46.6875 8.109375 53.6875 14.9375 
Q 60.6875 21.78125 60.6875 36.53125 
Q 60.6875 51.171875 53.6875 57.984375 
Q 46.6875 64.796875 31.59375 64.796875 
z
M 9.8125 72.90625 
L 30.078125 72.90625 
Q 51.265625 72.90625 61.171875 64.09375 
Q 71.09375 55.28125 71.09375 36.53125 
Q 71.09375 17.671875 61.125 8.828125 
Q 51.171875 0 30.078125 0 
L 9.8125 0 
z
" id="DejaVuSans-68"/>
      </defs>
      <use xlink:href="#DejaVuSans-68"/>
      <use x="77.001953" xlink:href="#DejaVuSans-97"/>
      <use x="138.28125" xlink:href="#DejaVuSans-116"/>
      <use x="177.490234" xlink:href="#DejaVuSans-97"/>
     </g>
    </g>
    <g id="line2d_14">
     <path d="M 79.17125 73.856563 
L 99.17125 73.856563 
" style="fill:none;stroke:#ff0000;stroke-linecap:square;stroke-width:1.5;"/>
    </g>
    <g id="line2d_15"/>
    <g id="text_14">
     <!-- Forecast -->
     <g transform="translate(107.17125 77.356563)scale(0.1 -0.1)">
      <defs>
       <path d="M 9.8125 72.90625 
L 51.703125 72.90625 
L 51.703125 64.59375 
L 19.671875 64.59375 
L 19.671875 43.109375 
L 48.578125 43.109375 
L 48.578125 34.8125 
L 19.671875 34.8125 
L 19.671875 0 
L 9.8125 0 
z
" id="DejaVuSans-70"/>
      </defs>
      <use xlink:href="#DejaVuSans-70"/>
      <use x="53.894531" xlink:href="#DejaVuSans-111"/>
      <use x="115.076172" xlink:href="#DejaVuSans-114"/>
      <use x="153.939453" xlink:href="#DejaVuSans-101"/>
      <use x="215.462891" xlink:href="#DejaVuSans-99"/>
      <use x="270.443359" xlink:href="#DejaVuSans-97"/>
      <use x="331.722656" xlink:href="#DejaVuSans-115"/>
      <use x="383.822266" xlink:href="#DejaVuSans-116"/>
     </g>
    </g>
   </g>
  </g>
  <g id="axes_2">
   <g id="patch_8">
    <path d="M 70.17125 380.84 
L 978 380.84 
L 978 252.08 
L 70.17125 252.08 
z
" style="fill:#ffffff;"/>
   </g>
   <g id="matplotlib.axis_3">
    <g id="xtick_6">
     <g id="line2d_16">
      <g>
       <use style="stroke:#000000;stroke-width:0.8;" x="111.436193" xlink:href="#m741c9a7034" y="380.84"/>
      </g>
     </g>
     <g id="text_15">
      <!-- 2021/04/19 -->
      <g transform="translate(82.617443 395.438437)scale(0.1 -0.1)">
       <use xlink:href="#DejaVuSans-50"/>
       <use x="63.623047" xlink:href="#DejaVuSans-48"/>
       <use x="127.246094" xlink:href="#DejaVuSans-50"/>
       <use x="190.869141" xlink:href="#DejaVuSans-49"/>
       <use x="254.492188" xlink:href="#DejaVuSans-47"/>
       <use x="288.183594" xlink:href="#DejaVuSans-48"/>
       <use x="351.806641" xlink:href="#DejaVuSans-52"/>
       <use x="415.429688" xlink:href="#DejaVuSans-47"/>
       <use x="449.121094" xlink:href="#DejaVuSans-49"/>
       <use x="512.744141" xlink:href="#DejaVuSans-57"/>
      </g>
     </g>
    </g>
    <g id="xtick_7">
     <g id="line2d_17">
      <g>
       <use style="stroke:#000000;stroke-width:0.8;" x="273.2595" xlink:href="#m741c9a7034" y="380.84"/>
      </g>
     </g>
     <g id="text_16">
      <!-- 2021/04/29 -->
      <g transform="translate(244.44075 395.438437)scale(0.1 -0.1)">
       <use xlink:href="#DejaVuSans-50"/>
       <use x="63.623047" xlink:href="#DejaVuSans-48"/>
       <use x="127.246094" xlink:href="#DejaVuSans-50"/>
       <use x="190.869141" xlink:href="#DejaVuSans-49"/>
       <use x="254.492188" xlink:href="#DejaVuSans-47"/>
       <use x="288.183594" xlink:href="#DejaVuSans-48"/>
       <use x="351.806641" xlink:href="#DejaVuSans-52"/>
       <use x="415.429688" xlink:href="#DejaVuSans-47"/>
       <use x="449.121094" xlink:href="#DejaVuSans-50"/>
       <use x="512.744141" xlink:href="#DejaVuSans-57"/>
      </g>
     </g>
    </g>
    <g id="xtick_8">
     <g id="line2d_18">
      <g>
       <use style="stroke:#000000;stroke-width:0.8;" x="435.082806" xlink:href="#m741c9a7034" y="380.84"/>
      </g>
     </g>
     <g id="text_17">
      <!-- 2021/05/09 -->
      <g transform="translate(406.264056 395.438437)scale(0.1 -0.1)">
       <use xlink:href="#DejaVuSans-50"/>
       <use x="63.623047" xlink:href="#DejaVuSans-48"/>
       <use x="127.246094" xlink:href="#DejaVuSans-50"/>
       <use x="190.869141" xlink:href="#DejaVuSans-49"/>
       <use x="254.492188" xlink:href="#DejaVuSans-47"/>
       <use x="288.183594" xlink:href="#DejaVuSans-48"/>
       <use x="351.806641" xlink:href="#DejaVuSans-53"/>
       <use x="415.429688" xlink:href="#DejaVuSans-47"/>
       <use x="449.121094" xlink:href="#DejaVuSans-48"/>
       <use x="512.744141" xlink:href="#DejaVuSans-57"/>
      </g>
     </g>
    </g>
    <g id="xtick_9">
     <g id="line2d_19">
      <g>
       <use style="stroke:#000000;stroke-width:0.8;" x="596.906113" xlink:href="#m741c9a7034" y="380.84"/>
      </g>
     </g>
     <g id="text_18">
      <!-- 2021/05/19 -->
      <g transform="translate(568.087363 395.438437)scale(0.1 -0.1)">
       <use xlink:href="#DejaVuSans-50"/>
       <use x="63.623047" xlink:href="#DejaVuSans-48"/>
       <use x="127.246094" xlink:href="#DejaVuSans-50"/>
       <use x="190.869141" xlink:href="#DejaVuSans-49"/>
       <use x="254.492188" xlink:href="#DejaVuSans-47"/>
       <use x="288.183594" xlink:href="#DejaVuSans-48"/>
       <use x="351.806641" xlink:href="#DejaVuSans-53"/>
       <use x="415.429688" xlink:href="#DejaVuSans-47"/>
       <use x="449.121094" xlink:href="#DejaVuSans-49"/>
       <use x="512.744141" xlink:href="#DejaVuSans-57"/>
      </g>
     </g>
    </g>
    <g id="xtick_10">
     <g id="line2d_20">
      <g>
       <use style="stroke:#000000;stroke-width:0.8;" x="758.72942" xlink:href="#m741c9a7034" y="380.84"/>
      </g>
     </g>
     <g id="text_19">
      <!-- 2021/05/29 -->
      <g transform="translate(729.91067 395.438437)scale(0.1 -0.1)">
       <use xlink:href="#DejaVuSans-50"/>
       <use x="63.623047" xlink:href="#DejaVuSans-48"/>
       <use x="127.246094" xlink:href="#DejaVuSans-50"/>
       <use x="190.869141" xlink:href="#DejaVuSans-49"/>
       <use x="254.492188" xlink:href="#DejaVuSans-47"/>
       <use x="288.183594" xlink:href="#DejaVuSans-48"/>
       <use x="351.806641" xlink:href="#DejaVuSans-53"/>
       <use x="415.429688" xlink:href="#DejaVuSans-47"/>
       <use x="449.121094" xlink:href="#DejaVuSans-50"/>
       <use x="512.744141" xlink:href="#DejaVuSans-57"/>
      </g>
     </g>
    </g>
    <g id="xtick_11">
     <g id="line2d_21">
      <g>
       <use style="stroke:#000000;stroke-width:0.8;" x="920.552726" xlink:href="#m741c9a7034" y="380.84"/>
      </g>
     </g>
     <g id="text_20">
      <!-- 2021/06/08 -->
      <g transform="translate(891.733976 395.438437)scale(0.1 -0.1)">
       <use xlink:href="#DejaVuSans-50"/>
       <use x="63.623047" xlink:href="#DejaVuSans-48"/>
       <use x="127.246094" xlink:href="#DejaVuSans-50"/>
       <use x="190.869141" xlink:href="#DejaVuSans-49"/>
       <use x="254.492188" xlink:href="#DejaVuSans-47"/>
       <use x="288.183594" xlink:href="#DejaVuSans-48"/>
       <use x="351.806641" xlink:href="#DejaVuSans-54"/>
       <use x="415.429688" xlink:href="#DejaVuSans-47"/>
       <use x="449.121094" xlink:href="#DejaVuSans-48"/>
       <use x="512.744141" xlink:href="#DejaVuSans-56"/>
      </g>
     </g>
    </g>
    <g id="text_21">
     <!-- Time, t [days] -->
     <g transform="translate(489.420781 409.116562)scale(0.1 -0.1)">
      <use xlink:href="#DejaVuSans-84"/>
      <use x="57.958984" xlink:href="#DejaVuSans-105"/>
      <use x="85.742188" xlink:href="#DejaVuSans-109"/>
      <use x="183.154297" xlink:href="#DejaVuSans-101"/>
      <use x="244.677734" xlink:href="#DejaVuSans-44"/>
      <use x="276.464844" xlink:href="#DejaVuSans-32"/>
      <use x="308.251953" xlink:href="#DejaVuSans-116"/>
      <use x="347.460938" xlink:href="#DejaVuSans-32"/>
      <use x="379.248047" xlink:href="#DejaVuSans-91"/>
      <use x="418.261719" xlink:href="#DejaVuSans-100"/>
      <use x="481.738281" xlink:href="#DejaVuSans-97"/>
      <use x="543.017578" xlink:href="#DejaVuSans-121"/>
      <use x="602.197266" xlink:href="#DejaVuSans-115"/>
      <use x="654.296875" xlink:href="#DejaVuSans-93"/>
     </g>
    </g>
   </g>
   <g id="matplotlib.axis_4">
    <g id="ytick_5">
     <g id="line2d_22">
      <g>
       <use style="stroke:#000000;stroke-width:0.8;" x="70.17125" xlink:href="#m986bcbc29e" y="379.524271"/>
      </g>
     </g>
     <g id="text_22">
      <!-- 0 -->
      <g transform="translate(56.80875 383.323489)scale(0.1 -0.1)">
       <use xlink:href="#DejaVuSans-48"/>
      </g>
     </g>
    </g>
    <g id="ytick_6">
     <g id="line2d_23">
      <g>
       <use style="stroke:#000000;stroke-width:0.8;" x="70.17125" xlink:href="#m986bcbc29e" y="356.839281"/>
      </g>
     </g>
     <g id="text_23">
      <!-- 25 -->
      <g transform="translate(50.44625 360.6385)scale(0.1 -0.1)">
       <use xlink:href="#DejaVuSans-50"/>
       <use x="63.623047" xlink:href="#DejaVuSans-53"/>
      </g>
     </g>
    </g>
    <g id="ytick_7">
     <g id="line2d_24">
      <g>
       <use style="stroke:#000000;stroke-width:0.8;" x="70.17125" xlink:href="#m986bcbc29e" y="334.154292"/>
      </g>
     </g>
     <g id="text_24">
      <!-- 50 -->
      <g transform="translate(50.44625 337.953511)scale(0.1 -0.1)">
       <use xlink:href="#DejaVuSans-53"/>
       <use x="63.623047" xlink:href="#DejaVuSans-48"/>
      </g>
     </g>
    </g>
    <g id="ytick_8">
     <g id="line2d_25">
      <g>
       <use style="stroke:#000000;stroke-width:0.8;" x="70.17125" xlink:href="#m986bcbc29e" y="311.469302"/>
      </g>
     </g>
     <g id="text_25">
      <!-- 75 -->
      <g transform="translate(50.44625 315.268521)scale(0.1 -0.1)">
       <use xlink:href="#DejaVuSans-55"/>
       <use x="63.623047" xlink:href="#DejaVuSans-53"/>
      </g>
     </g>
    </g>
    <g id="ytick_9">
     <g id="line2d_26">
      <g>
       <use style="stroke:#000000;stroke-width:0.8;" x="70.17125" xlink:href="#m986bcbc29e" y="288.784313"/>
      </g>
     </g>
     <g id="text_26">
      <!-- 100 -->
      <g transform="translate(44.08375 292.583532)scale(0.1 -0.1)">
       <use xlink:href="#DejaVuSans-49"/>
       <use x="63.623047" xlink:href="#DejaVuSans-48"/>
       <use x="127.246094" xlink:href="#DejaVuSans-48"/>
      </g>
     </g>
    </g>
    <g id="ytick_10">
     <g id="line2d_27">
      <g>
       <use style="stroke:#000000;stroke-width:0.8;" x="70.17125" xlink:href="#m986bcbc29e" y="266.099323"/>
      </g>
     </g>
     <g id="text_27">
      <!-- 125 -->
      <g transform="translate(44.08375 269.898542)scale(0.1 -0.1)">
       <use xlink:href="#DejaVuSans-49"/>
       <use x="63.623047" xlink:href="#DejaVuSans-50"/>
       <use x="127.246094" xlink:href="#DejaVuSans-53"/>
      </g>
     </g>
    </g>
    <g id="text_28">
     <!-- daily_cases_(t+7) -->
     <g transform="translate(37.725937 360.767812)rotate(-90)scale(0.1 -0.1)">
      <use xlink:href="#DejaVuSans-100"/>
      <use x="63.476562" xlink:href="#DejaVuSans-97"/>
      <use x="124.755859" xlink:href="#DejaVuSans-105"/>
      <use x="152.539062" xlink:href="#DejaVuSans-108"/>
      <use x="180.322266" xlink:href="#DejaVuSans-121"/>
      <use x="239.501953" xlink:href="#DejaVuSans-95"/>
      <use x="289.501953" xlink:href="#DejaVuSans-99"/>
      <use x="344.482422" xlink:href="#DejaVuSans-97"/>
      <use x="405.761719" xlink:href="#DejaVuSans-115"/>
      <use x="457.861328" xlink:href="#DejaVuSans-101"/>
      <use x="519.384766" xlink:href="#DejaVuSans-115"/>
      <use x="571.484375" xlink:href="#DejaVuSans-95"/>
      <use x="621.484375" xlink:href="#DejaVuSans-40"/>
      <use x="660.498047" xlink:href="#DejaVuSans-116"/>
      <use x="699.707031" xlink:href="#DejaVuSans-43"/>
      <use x="783.496094" xlink:href="#DejaVuSans-55"/>
      <use x="847.119141" xlink:href="#DejaVuSans-41"/>
     </g>
    </g>
   </g>
   <g id="line2d_28">
    <path clip-path="url(#p8b52349cad)" d="M 111.436193 260.654926 
L 127.618524 299.673108 
L 143.800855 288.784313 
L 159.983185 257.932727 
L 176.165516 279.710317 
L 192.347846 312.376702 
L 208.530177 279.710317 
L 224.712508 304.210106 
L 240.894838 316.0063 
L 257.077169 316.9137 
L 273.2595 315.098901 
L 289.44183 334.154292 
L 305.624161 332.339493 
L 321.806492 333.246892 
L 337.988822 333.246892 
L 354.171153 337.78389 
L 370.353484 336.87649 
L 386.535814 336.87649 
L 402.718145 361.376279 
L 418.900476 354.117082 
L 435.082806 355.931882 
L 451.265137 343.228288 
L 467.447468 344.135687 
L 483.629798 355.931882 
L 499.812129 352.302283 
L 515.99446 333.246892 
L 532.17679 356.839281 
L 548.359121 355.024482 
L 564.541452 340.506089 
L 580.723782 350.487484 
L 596.906113 335.061691 
L 613.088444 340.506089 
L 629.270774 362.283679 
L 645.453105 348.672685 
L 661.635436 345.950486 
L 677.817766 350.487484 
L 694.000097 332.339493 
L 710.182428 358.65408 
L 726.364758 345.043087 
L 742.547089 349.580085 
L 758.72942 354.117082 
L 774.91175 371.357674 
L 791.094081 355.024482 
L 807.276412 350.487484 
L 823.458742 363.191078 
L 839.641073 357.746681 
L 855.823404 356.839281 
L 872.005734 374.987273 
L 888.188065 348.672685 
L 904.370395 351.394884 
L 920.552726 355.931882 
L 936.735057 350.487484 
" style="fill:none;stroke:#0000ff;stroke-linecap:square;stroke-width:1.5;"/>
   </g>
   <g id="line2d_29">
    <path clip-path="url(#p8b52349cad)" d="M 111.436193 282.723928 
L 127.618524 286.207939 
L 143.800855 278.465231 
L 159.983185 266.865276 
L 176.165516 271.480633 
L 192.347846 292.288869 
L 208.530177 300.045752 
L 224.712508 272.952132 
L 240.894838 286.157391 
L 257.077169 283.747026 
L 273.2595 277.774581 
L 289.44183 282.772048 
L 305.624161 288.266701 
L 321.806492 281.902025 
L 337.988822 290.884631 
L 354.171153 290.014579 
L 370.353484 292.185318 
L 386.535814 292.96139 
L 402.718145 296.945886 
L 418.900476 332.582283 
L 435.082806 352.668177 
L 451.265137 301.09758 
L 467.447468 301.946523 
L 483.629798 299.956523 
L 499.812129 300.877846 
L 515.99446 303.415082 
L 532.17679 361.415993 
L 548.359121 357.542001 
L 564.541452 301.93464 
L 580.723782 301.182923 
L 596.906113 302.960472 
L 613.088444 302.513812 
L 629.270774 298.563907 
L 645.453105 350.805945 
L 661.635436 353.594553 
L 677.817766 299.282479 
L 694.000097 300.380024 
L 710.182428 297.961816 
L 726.364758 298.023094 
L 742.547089 300.670267 
L 758.72942 349.693337 
L 774.91175 344.046322 
L 791.094081 301.456762 
L 807.276412 299.054745 
L 823.458742 303.450266 
L 839.641073 305.072907 
L 855.823404 304.100706 
L 872.005734 347.850388 
L 888.188065 353.194365 
L 904.370395 306.790575 
L 920.552726 310.603475 
L 936.735057 311.540768 
" style="fill:none;stroke:#ff0000;stroke-linecap:square;stroke-width:1.5;"/>
   </g>
   <g id="patch_9">
    <path d="M 70.17125 380.84 
L 70.17125 252.08 
" style="fill:none;stroke:#000000;stroke-linecap:square;stroke-linejoin:miter;stroke-width:0.8;"/>
   </g>
   <g id="patch_10">
    <path d="M 978 380.84 
L 978 252.08 
" style="fill:none;stroke:#000000;stroke-linecap:square;stroke-linejoin:miter;stroke-width:0.8;"/>
   </g>
   <g id="patch_11">
    <path d="M 70.17125 380.84 
L 978 380.84 
" style="fill:none;stroke:#000000;stroke-linecap:square;stroke-linejoin:miter;stroke-width:0.8;"/>
   </g>
   <g id="patch_12">
    <path d="M 70.17125 252.08 
L 978 252.08 
" style="fill:none;stroke:#000000;stroke-linecap:square;stroke-linejoin:miter;stroke-width:0.8;"/>
   </g>
   <g id="text_29">
    <!-- Support Vector Regression fit val -->
    <g transform="translate(425.776562 246.08)scale(0.12 -0.12)">
     <defs>
      <path d="M 2.984375 54.6875 
L 12.5 54.6875 
L 29.59375 8.796875 
L 46.6875 54.6875 
L 56.203125 54.6875 
L 35.6875 0 
L 23.484375 0 
z
" id="DejaVuSans-118"/>
     </defs>
     <use xlink:href="#DejaVuSans-83"/>
     <use x="63.476562" xlink:href="#DejaVuSans-117"/>
     <use x="126.855469" xlink:href="#DejaVuSans-112"/>
     <use x="190.332031" xlink:href="#DejaVuSans-112"/>
     <use x="253.808594" xlink:href="#DejaVuSans-111"/>
     <use x="314.990234" xlink:href="#DejaVuSans-114"/>
     <use x="356.103516" xlink:href="#DejaVuSans-116"/>
     <use x="395.3125" xlink:href="#DejaVuSans-32"/>
     <use x="427.099609" xlink:href="#DejaVuSans-86"/>
     <use x="487.757812" xlink:href="#DejaVuSans-101"/>
     <use x="549.28125" xlink:href="#DejaVuSans-99"/>
     <use x="604.261719" xlink:href="#DejaVuSans-116"/>
     <use x="643.470703" xlink:href="#DejaVuSans-111"/>
     <use x="704.652344" xlink:href="#DejaVuSans-114"/>
     <use x="745.765625" xlink:href="#DejaVuSans-32"/>
     <use x="777.552734" xlink:href="#DejaVuSans-82"/>
     <use x="842.535156" xlink:href="#DejaVuSans-101"/>
     <use x="904.058594" xlink:href="#DejaVuSans-103"/>
     <use x="967.535156" xlink:href="#DejaVuSans-114"/>
     <use x="1006.398438" xlink:href="#DejaVuSans-101"/>
     <use x="1067.921875" xlink:href="#DejaVuSans-115"/>
     <use x="1120.021484" xlink:href="#DejaVuSans-115"/>
     <use x="1172.121094" xlink:href="#DejaVuSans-105"/>
     <use x="1199.904297" xlink:href="#DejaVuSans-111"/>
     <use x="1261.085938" xlink:href="#DejaVuSans-110"/>
     <use x="1324.464844" xlink:href="#DejaVuSans-32"/>
     <use x="1356.251953" xlink:href="#DejaVuSans-102"/>
     <use x="1391.457031" xlink:href="#DejaVuSans-105"/>
     <use x="1419.240234" xlink:href="#DejaVuSans-116"/>
     <use x="1458.449219" xlink:href="#DejaVuSans-32"/>
     <use x="1490.236328" xlink:href="#DejaVuSans-118"/>
     <use x="1549.416016" xlink:href="#DejaVuSans-97"/>
     <use x="1610.695312" xlink:href="#DejaVuSans-108"/>
    </g>
   </g>
   <g id="legend_2">
    <g id="patch_13">
     <path d="M 77.17125 289.43625 
L 151.474375 289.43625 
Q 153.474375 289.43625 153.474375 287.43625 
L 153.474375 259.08 
Q 153.474375 257.08 151.474375 257.08 
L 77.17125 257.08 
Q 75.17125 257.08 75.17125 259.08 
L 75.17125 287.43625 
Q 75.17125 289.43625 77.17125 289.43625 
z
" style="fill:#ffffff;opacity:0.8;stroke:#cccccc;stroke-linejoin:miter;"/>
    </g>
    <g id="line2d_30">
     <path d="M 79.17125 265.178437 
L 99.17125 265.178437 
" style="fill:none;stroke:#0000ff;stroke-linecap:square;stroke-width:1.5;"/>
    </g>
    <g id="line2d_31"/>
    <g id="text_30">
     <!-- Data -->
     <g transform="translate(107.17125 268.678437)scale(0.1 -0.1)">
      <use xlink:href="#DejaVuSans-68"/>
      <use x="77.001953" xlink:href="#DejaVuSans-97"/>
      <use x="138.28125" xlink:href="#DejaVuSans-116"/>
      <use x="177.490234" xlink:href="#DejaVuSans-97"/>
     </g>
    </g>
    <g id="line2d_32">
     <path d="M 79.17125 279.856562 
L 99.17125 279.856562 
" style="fill:none;stroke:#ff0000;stroke-linecap:square;stroke-width:1.5;"/>
    </g>
    <g id="line2d_33"/>
    <g id="text_31">
     <!-- Forecast -->
     <g transform="translate(107.17125 283.356562)scale(0.1 -0.1)">
      <use xlink:href="#DejaVuSans-70"/>
      <use x="53.894531" xlink:href="#DejaVuSans-111"/>
      <use x="115.076172" xlink:href="#DejaVuSans-114"/>
      <use x="153.939453" xlink:href="#DejaVuSans-101"/>
      <use x="215.462891" xlink:href="#DejaVuSans-99"/>
      <use x="270.443359" xlink:href="#DejaVuSans-97"/>
      <use x="331.722656" xlink:href="#DejaVuSans-115"/>
      <use x="383.822266" xlink:href="#DejaVuSans-116"/>
     </g>
    </g>
   </g>
  </g>
  <g id="axes_3">
   <g id="patch_14">
    <path d="M 70.17125 586.84 
L 978 586.84 
L 978 458.08 
L 70.17125 458.08 
z
" style="fill:#ffffff;"/>
   </g>
   <g id="matplotlib.axis_5">
    <g id="xtick_12">
     <g id="line2d_34">
      <g>
       <use style="stroke:#000000;stroke-width:0.8;" x="111.436193" xlink:href="#m741c9a7034" y="586.84"/>
      </g>
     </g>
     <g id="text_32">
      <!-- 2021/06/10 -->
      <g transform="translate(82.617443 601.438437)scale(0.1 -0.1)">
       <use xlink:href="#DejaVuSans-50"/>
       <use x="63.623047" xlink:href="#DejaVuSans-48"/>
       <use x="127.246094" xlink:href="#DejaVuSans-50"/>
       <use x="190.869141" xlink:href="#DejaVuSans-49"/>
       <use x="254.492188" xlink:href="#DejaVuSans-47"/>
       <use x="288.183594" xlink:href="#DejaVuSans-48"/>
       <use x="351.806641" xlink:href="#DejaVuSans-54"/>
       <use x="415.429688" xlink:href="#DejaVuSans-47"/>
       <use x="449.121094" xlink:href="#DejaVuSans-49"/>
       <use x="512.744141" xlink:href="#DejaVuSans-48"/>
      </g>
     </g>
    </g>
    <g id="xtick_13">
     <g id="line2d_35">
      <g>
       <use style="stroke:#000000;stroke-width:0.8;" x="273.2595" xlink:href="#m741c9a7034" y="586.84"/>
      </g>
     </g>
     <g id="text_33">
      <!-- 2021/06/20 -->
      <g transform="translate(244.44075 601.438437)scale(0.1 -0.1)">
       <use xlink:href="#DejaVuSans-50"/>
       <use x="63.623047" xlink:href="#DejaVuSans-48"/>
       <use x="127.246094" xlink:href="#DejaVuSans-50"/>
       <use x="190.869141" xlink:href="#DejaVuSans-49"/>
       <use x="254.492188" xlink:href="#DejaVuSans-47"/>
       <use x="288.183594" xlink:href="#DejaVuSans-48"/>
       <use x="351.806641" xlink:href="#DejaVuSans-54"/>
       <use x="415.429688" xlink:href="#DejaVuSans-47"/>
       <use x="449.121094" xlink:href="#DejaVuSans-50"/>
       <use x="512.744141" xlink:href="#DejaVuSans-48"/>
      </g>
     </g>
    </g>
    <g id="xtick_14">
     <g id="line2d_36">
      <g>
       <use style="stroke:#000000;stroke-width:0.8;" x="435.082806" xlink:href="#m741c9a7034" y="586.84"/>
      </g>
     </g>
     <g id="text_34">
      <!-- 2021/06/30 -->
      <g transform="translate(406.264056 601.438437)scale(0.1 -0.1)">
       <use xlink:href="#DejaVuSans-50"/>
       <use x="63.623047" xlink:href="#DejaVuSans-48"/>
       <use x="127.246094" xlink:href="#DejaVuSans-50"/>
       <use x="190.869141" xlink:href="#DejaVuSans-49"/>
       <use x="254.492188" xlink:href="#DejaVuSans-47"/>
       <use x="288.183594" xlink:href="#DejaVuSans-48"/>
       <use x="351.806641" xlink:href="#DejaVuSans-54"/>
       <use x="415.429688" xlink:href="#DejaVuSans-47"/>
       <use x="449.121094" xlink:href="#DejaVuSans-51"/>
       <use x="512.744141" xlink:href="#DejaVuSans-48"/>
      </g>
     </g>
    </g>
    <g id="xtick_15">
     <g id="line2d_37">
      <g>
       <use style="stroke:#000000;stroke-width:0.8;" x="596.906113" xlink:href="#m741c9a7034" y="586.84"/>
      </g>
     </g>
     <g id="text_35">
      <!-- 2021/07/10 -->
      <g transform="translate(568.087363 601.438437)scale(0.1 -0.1)">
       <use xlink:href="#DejaVuSans-50"/>
       <use x="63.623047" xlink:href="#DejaVuSans-48"/>
       <use x="127.246094" xlink:href="#DejaVuSans-50"/>
       <use x="190.869141" xlink:href="#DejaVuSans-49"/>
       <use x="254.492188" xlink:href="#DejaVuSans-47"/>
       <use x="288.183594" xlink:href="#DejaVuSans-48"/>
       <use x="351.806641" xlink:href="#DejaVuSans-55"/>
       <use x="415.429688" xlink:href="#DejaVuSans-47"/>
       <use x="449.121094" xlink:href="#DejaVuSans-49"/>
       <use x="512.744141" xlink:href="#DejaVuSans-48"/>
      </g>
     </g>
    </g>
    <g id="xtick_16">
     <g id="line2d_38">
      <g>
       <use style="stroke:#000000;stroke-width:0.8;" x="758.72942" xlink:href="#m741c9a7034" y="586.84"/>
      </g>
     </g>
     <g id="text_36">
      <!-- 2021/07/20 -->
      <g transform="translate(729.91067 601.438437)scale(0.1 -0.1)">
       <use xlink:href="#DejaVuSans-50"/>
       <use x="63.623047" xlink:href="#DejaVuSans-48"/>
       <use x="127.246094" xlink:href="#DejaVuSans-50"/>
       <use x="190.869141" xlink:href="#DejaVuSans-49"/>
       <use x="254.492188" xlink:href="#DejaVuSans-47"/>
       <use x="288.183594" xlink:href="#DejaVuSans-48"/>
       <use x="351.806641" xlink:href="#DejaVuSans-55"/>
       <use x="415.429688" xlink:href="#DejaVuSans-47"/>
       <use x="449.121094" xlink:href="#DejaVuSans-50"/>
       <use x="512.744141" xlink:href="#DejaVuSans-48"/>
      </g>
     </g>
    </g>
    <g id="xtick_17">
     <g id="line2d_39">
      <g>
       <use style="stroke:#000000;stroke-width:0.8;" x="920.552726" xlink:href="#m741c9a7034" y="586.84"/>
      </g>
     </g>
     <g id="text_37">
      <!-- 2021/07/30 -->
      <g transform="translate(891.733976 601.438437)scale(0.1 -0.1)">
       <use xlink:href="#DejaVuSans-50"/>
       <use x="63.623047" xlink:href="#DejaVuSans-48"/>
       <use x="127.246094" xlink:href="#DejaVuSans-50"/>
       <use x="190.869141" xlink:href="#DejaVuSans-49"/>
       <use x="254.492188" xlink:href="#DejaVuSans-47"/>
       <use x="288.183594" xlink:href="#DejaVuSans-48"/>
       <use x="351.806641" xlink:href="#DejaVuSans-55"/>
       <use x="415.429688" xlink:href="#DejaVuSans-47"/>
       <use x="449.121094" xlink:href="#DejaVuSans-51"/>
       <use x="512.744141" xlink:href="#DejaVuSans-48"/>
      </g>
     </g>
    </g>
    <g id="text_38">
     <!-- Time, t [days] -->
     <g transform="translate(489.420781 615.116562)scale(0.1 -0.1)">
      <use xlink:href="#DejaVuSans-84"/>
      <use x="57.958984" xlink:href="#DejaVuSans-105"/>
      <use x="85.742188" xlink:href="#DejaVuSans-109"/>
      <use x="183.154297" xlink:href="#DejaVuSans-101"/>
      <use x="244.677734" xlink:href="#DejaVuSans-44"/>
      <use x="276.464844" xlink:href="#DejaVuSans-32"/>
      <use x="308.251953" xlink:href="#DejaVuSans-116"/>
      <use x="347.460938" xlink:href="#DejaVuSans-32"/>
      <use x="379.248047" xlink:href="#DejaVuSans-91"/>
      <use x="418.261719" xlink:href="#DejaVuSans-100"/>
      <use x="481.738281" xlink:href="#DejaVuSans-97"/>
      <use x="543.017578" xlink:href="#DejaVuSans-121"/>
      <use x="602.197266" xlink:href="#DejaVuSans-115"/>
      <use x="654.296875" xlink:href="#DejaVuSans-93"/>
     </g>
    </g>
   </g>
   <g id="matplotlib.axis_6">
    <g id="ytick_11">
     <g id="line2d_40">
      <g>
       <use style="stroke:#000000;stroke-width:0.8;" x="70.17125" xlink:href="#m986bcbc29e" y="559.330774"/>
      </g>
     </g>
     <g id="text_39">
      <!-- 100 -->
      <g transform="translate(44.08375 563.129993)scale(0.1 -0.1)">
       <use xlink:href="#DejaVuSans-49"/>
       <use x="63.623047" xlink:href="#DejaVuSans-48"/>
       <use x="127.246094" xlink:href="#DejaVuSans-48"/>
      </g>
     </g>
    </g>
    <g id="ytick_12">
     <g id="line2d_41">
      <g>
       <use style="stroke:#000000;stroke-width:0.8;" x="70.17125" xlink:href="#m986bcbc29e" y="529.704052"/>
      </g>
     </g>
     <g id="text_40">
      <!-- 200 -->
      <g transform="translate(44.08375 533.50327)scale(0.1 -0.1)">
       <use xlink:href="#DejaVuSans-50"/>
       <use x="63.623047" xlink:href="#DejaVuSans-48"/>
       <use x="127.246094" xlink:href="#DejaVuSans-48"/>
      </g>
     </g>
    </g>
    <g id="ytick_13">
     <g id="line2d_42">
      <g>
       <use style="stroke:#000000;stroke-width:0.8;" x="70.17125" xlink:href="#m986bcbc29e" y="500.077329"/>
      </g>
     </g>
     <g id="text_41">
      <!-- 300 -->
      <g transform="translate(44.08375 503.876548)scale(0.1 -0.1)">
       <use xlink:href="#DejaVuSans-51"/>
       <use x="63.623047" xlink:href="#DejaVuSans-48"/>
       <use x="127.246094" xlink:href="#DejaVuSans-48"/>
      </g>
     </g>
    </g>
    <g id="ytick_14">
     <g id="line2d_43">
      <g>
       <use style="stroke:#000000;stroke-width:0.8;" x="70.17125" xlink:href="#m986bcbc29e" y="470.450606"/>
      </g>
     </g>
     <g id="text_42">
      <!-- 400 -->
      <g transform="translate(44.08375 474.249825)scale(0.1 -0.1)">
       <use xlink:href="#DejaVuSans-52"/>
       <use x="63.623047" xlink:href="#DejaVuSans-48"/>
       <use x="127.246094" xlink:href="#DejaVuSans-48"/>
      </g>
     </g>
    </g>
    <g id="text_43">
     <!-- daily_cases_(t+7) -->
     <g transform="translate(37.725937 566.767812)rotate(-90)scale(0.1 -0.1)">
      <use xlink:href="#DejaVuSans-100"/>
      <use x="63.476562" xlink:href="#DejaVuSans-97"/>
      <use x="124.755859" xlink:href="#DejaVuSans-105"/>
      <use x="152.539062" xlink:href="#DejaVuSans-108"/>
      <use x="180.322266" xlink:href="#DejaVuSans-121"/>
      <use x="239.501953" xlink:href="#DejaVuSans-95"/>
      <use x="289.501953" xlink:href="#DejaVuSans-99"/>
      <use x="344.482422" xlink:href="#DejaVuSans-97"/>
      <use x="405.761719" xlink:href="#DejaVuSans-115"/>
      <use x="457.861328" xlink:href="#DejaVuSans-101"/>
      <use x="519.384766" xlink:href="#DejaVuSans-115"/>
      <use x="571.484375" xlink:href="#DejaVuSans-95"/>
      <use x="621.484375" xlink:href="#DejaVuSans-40"/>
      <use x="660.498047" xlink:href="#DejaVuSans-116"/>
      <use x="699.707031" xlink:href="#DejaVuSans-43"/>
      <use x="783.496094" xlink:href="#DejaVuSans-55"/>
      <use x="847.119141" xlink:href="#DejaVuSans-41"/>
     </g>
    </g>
   </g>
   <g id="line2d_44">
    <path clip-path="url(#pc112bf009a)" d="M 111.436193 569.107593 
L 127.618524 575.032937 
L 143.800855 560.812111 
L 159.983185 568.811326 
L 176.165516 559.034507 
L 192.347846 576.810541 
L 208.530177 562.293447 
L 224.712508 558.145705 
L 240.894838 558.73824 
L 257.077169 566.144921 
L 273.2595 556.664369 
L 289.44183 547.183818 
L 305.624161 553.997964 
L 321.806492 542.147275 
L 337.988822 527.630181 
L 354.171153 517.853363 
L 370.353484 550.739025 
L 386.535814 528.518983 
L 402.718145 509.854147 
L 418.900476 522.297371 
L 435.082806 524.074974 
L 451.265137 483.486364 
L 467.447468 524.667509 
L 483.629798 543.628611 
L 499.812129 520.2235 
L 515.99446 517.557095 
L 532.17679 522.889905 
L 548.359121 487.337838 
L 564.541452 514.298156 
L 580.723782 511.631751 
L 596.906113 510.742949 
L 613.088444 514.89069 
L 629.270774 499.781062 
L 645.453105 503.336268 
L 661.635436 504.817605 
L 677.817766 463.932727 
L 694.000097 515.483225 
L 710.182428 472.820744 
L 726.364758 502.1512 
L 742.547089 536.814465 
L 758.72942 487.041571 
L 774.91175 526.741379 
L 791.094081 512.81682 
L 807.276412 521.112302 
L 823.458742 532.370457 
L 839.641073 545.406215 
L 855.823404 529.704052 
L 872.005734 522.001104 
L 888.188065 535.036862 
L 904.370395 494.448252 
L 920.552726 534.740595 
L 936.735057 564.367317 
" style="fill:none;stroke:#0000ff;stroke-linecap:square;stroke-width:1.5;"/>
   </g>
   <g id="line2d_45">
    <path clip-path="url(#pc112bf009a)" d="M 111.436193 567.476744 
L 127.618524 568.047982 
L 143.800855 580.987273 
L 159.983185 577.541072 
L 176.165516 569.081787 
L 192.347846 569.283638 
L 208.530177 570.271848 
L 224.712508 570.402674 
L 240.894838 571.19565 
L 257.077169 569.894541 
L 273.2595 568.737385 
L 289.44183 571.400395 
L 305.624161 571.413254 
L 321.806492 572.281767 
L 337.988822 572.118931 
L 354.171153 574.047461 
L 370.353484 561.965265 
L 386.535814 556.546786 
L 402.718145 575.593859 
L 418.900476 575.984515 
L 435.082806 575.98666 
L 451.265137 575.905741 
L 467.447468 577.671557 
L 483.629798 542.601121 
L 499.812129 534.85794 
L 515.99446 577.925463 
L 532.17679 577.848708 
L 548.359121 579.11878 
L 564.541452 579.406577 
L 580.723782 579.536038 
L 596.906113 536.041154 
L 613.088444 534.131247 
L 629.270774 579.830915 
L 645.453105 579.896468 
L 661.635436 580.027647 
L 677.817766 580.037381 
L 694.000097 580.085709 
L 710.182428 534.513264 
L 726.364758 537.757161 
L 742.547089 580.15954 
L 758.72942 580.184607 
L 774.91175 580.210149 
L 791.094081 580.236748 
L 807.276412 580.237004 
L 823.458742 538.628744 
L 839.641073 539.418926 
L 855.823404 580.249989 
L 872.005734 580.253599 
L 888.188065 580.249427 
L 904.370395 580.252771 
L 920.552726 580.257758 
L 936.735057 553.371305 
" style="fill:none;stroke:#ff0000;stroke-linecap:square;stroke-width:1.5;"/>
   </g>
   <g id="patch_15">
    <path d="M 70.17125 586.84 
L 70.17125 458.08 
" style="fill:none;stroke:#000000;stroke-linecap:square;stroke-linejoin:miter;stroke-width:0.8;"/>
   </g>
   <g id="patch_16">
    <path d="M 978 586.84 
L 978 458.08 
" style="fill:none;stroke:#000000;stroke-linecap:square;stroke-linejoin:miter;stroke-width:0.8;"/>
   </g>
   <g id="patch_17">
    <path d="M 70.17125 586.84 
L 978 586.84 
" style="fill:none;stroke:#000000;stroke-linecap:square;stroke-linejoin:miter;stroke-width:0.8;"/>
   </g>
   <g id="patch_18">
    <path d="M 70.17125 458.08 
L 978 458.08 
" style="fill:none;stroke:#000000;stroke-linecap:square;stroke-linejoin:miter;stroke-width:0.8;"/>
   </g>
   <g id="text_44">
    <!-- Support Vector Regression fit test -->
    <g transform="translate(423.149687 452.08)scale(0.12 -0.12)">
     <use xlink:href="#DejaVuSans-83"/>
     <use x="63.476562" xlink:href="#DejaVuSans-117"/>
     <use x="126.855469" xlink:href="#DejaVuSans-112"/>
     <use x="190.332031" xlink:href="#DejaVuSans-112"/>
     <use x="253.808594" xlink:href="#DejaVuSans-111"/>
     <use x="314.990234" xlink:href="#DejaVuSans-114"/>
     <use x="356.103516" xlink:href="#DejaVuSans-116"/>
     <use x="395.3125" xlink:href="#DejaVuSans-32"/>
     <use x="427.099609" xlink:href="#DejaVuSans-86"/>
     <use x="487.757812" xlink:href="#DejaVuSans-101"/>
     <use x="549.28125" xlink:href="#DejaVuSans-99"/>
     <use x="604.261719" xlink:href="#DejaVuSans-116"/>
     <use x="643.470703" xlink:href="#DejaVuSans-111"/>
     <use x="704.652344" xlink:href="#DejaVuSans-114"/>
     <use x="745.765625" xlink:href="#DejaVuSans-32"/>
     <use x="777.552734" xlink:href="#DejaVuSans-82"/>
     <use x="842.535156" xlink:href="#DejaVuSans-101"/>
     <use x="904.058594" xlink:href="#DejaVuSans-103"/>
     <use x="967.535156" xlink:href="#DejaVuSans-114"/>
     <use x="1006.398438" xlink:href="#DejaVuSans-101"/>
     <use x="1067.921875" xlink:href="#DejaVuSans-115"/>
     <use x="1120.021484" xlink:href="#DejaVuSans-115"/>
     <use x="1172.121094" xlink:href="#DejaVuSans-105"/>
     <use x="1199.904297" xlink:href="#DejaVuSans-111"/>
     <use x="1261.085938" xlink:href="#DejaVuSans-110"/>
     <use x="1324.464844" xlink:href="#DejaVuSans-32"/>
     <use x="1356.251953" xlink:href="#DejaVuSans-102"/>
     <use x="1391.457031" xlink:href="#DejaVuSans-105"/>
     <use x="1419.240234" xlink:href="#DejaVuSans-116"/>
     <use x="1458.449219" xlink:href="#DejaVuSans-32"/>
     <use x="1490.236328" xlink:href="#DejaVuSans-116"/>
     <use x="1529.445312" xlink:href="#DejaVuSans-101"/>
     <use x="1590.96875" xlink:href="#DejaVuSans-115"/>
     <use x="1643.068359" xlink:href="#DejaVuSans-116"/>
    </g>
   </g>
   <g id="legend_3">
    <g id="patch_19">
     <path d="M 77.17125 495.43625 
L 151.474375 495.43625 
Q 153.474375 495.43625 153.474375 493.43625 
L 153.474375 465.08 
Q 153.474375 463.08 151.474375 463.08 
L 77.17125 463.08 
Q 75.17125 463.08 75.17125 465.08 
L 75.17125 493.43625 
Q 75.17125 495.43625 77.17125 495.43625 
z
" style="fill:#ffffff;opacity:0.8;stroke:#cccccc;stroke-linejoin:miter;"/>
    </g>
    <g id="line2d_46">
     <path d="M 79.17125 471.178437 
L 99.17125 471.178437 
" style="fill:none;stroke:#0000ff;stroke-linecap:square;stroke-width:1.5;"/>
    </g>
    <g id="line2d_47"/>
    <g id="text_45">
     <!-- Data -->
     <g transform="translate(107.17125 474.678437)scale(0.1 -0.1)">
      <use xlink:href="#DejaVuSans-68"/>
      <use x="77.001953" xlink:href="#DejaVuSans-97"/>
      <use x="138.28125" xlink:href="#DejaVuSans-116"/>
      <use x="177.490234" xlink:href="#DejaVuSans-97"/>
     </g>
    </g>
    <g id="line2d_48">
     <path d="M 79.17125 485.856562 
L 99.17125 485.856562 
" style="fill:none;stroke:#ff0000;stroke-linecap:square;stroke-width:1.5;"/>
    </g>
    <g id="line2d_49"/>
    <g id="text_46">
     <!-- Forecast -->
     <g transform="translate(107.17125 489.356562)scale(0.1 -0.1)">
      <use xlink:href="#DejaVuSans-70"/>
      <use x="53.894531" xlink:href="#DejaVuSans-111"/>
      <use x="115.076172" xlink:href="#DejaVuSans-114"/>
      <use x="153.939453" xlink:href="#DejaVuSans-101"/>
      <use x="215.462891" xlink:href="#DejaVuSans-99"/>
      <use x="270.443359" xlink:href="#DejaVuSans-97"/>
      <use x="331.722656" xlink:href="#DejaVuSans-115"/>
      <use x="383.822266" xlink:href="#DejaVuSans-116"/>
     </g>
    </g>
   </g>
  </g>
 </g>
 <defs>
  <clipPath id="pda3980bdf2">
   <rect height="128.76" width="907.82875" x="70.17125" y="46.08"/>
  </clipPath>
  <clipPath id="p8b52349cad">
   <rect height="128.76" width="907.82875" x="70.17125" y="252.08"/>
  </clipPath>
  <clipPath id="pc112bf009a">
   <rect height="128.76" width="907.82875" x="70.17125" y="458.08"/>
  </clipPath>
 </defs>
</svg>
