<?xml version="1.0" encoding="utf-8" standalone="no"?>
<!DOCTYPE svg PUBLIC "-//W3C//DTD SVG 1.1//EN"
  "http://www.w3.org/Graphics/SVG/1.1/DTD/svg11.dtd">
<!-- Created with matplotlib (https://matplotlib.org/) -->
<svg height="648pt" version="1.1" viewBox="0 0 1008 648" width="1008pt" xmlns="http://www.w3.org/2000/svg" xmlns:xlink="http://www.w3.org/1999/xlink">
 <metadata>
  <rdf:RDF xmlns:cc="http://creativecommons.org/ns#" xmlns:dc="http://purl.org/dc/elements/1.1/" xmlns:rdf="http://www.w3.org/1999/02/22-rdf-syntax-ns#">
   <cc:Work>
    <dc:type rdf:resource="http://purl.org/dc/dcmitype/StillImage"/>
    <dc:date>2021-08-27T06:22:00.423901</dc:date>
    <dc:format>image/svg+xml</dc:format>
    <dc:creator>
     <cc:Agent>
      <dc:title>Matplotlib v3.3.4, https://matplotlib.org/</dc:title>
     </cc:Agent>
    </dc:creator>
   </cc:Work>
  </rdf:RDF>
 </metadata>
 <defs>
  <style type="text/css">*{stroke-linecap:butt;stroke-linejoin:round;}</style>
 </defs>
 <g id="figure_1">
  <g id="patch_1">
   <path d="M 0 648 
L 1008 648 
L 1008 0 
L 0 0 
z
" style="fill:#ffffff;"/>
  </g>
  <g id="axes_1">
   <g id="patch_2">
    <path d="M 126 173.551304 
L 907.2 173.551304 
L 907.2 77.76 
L 126 77.76 
z
" style="fill:#ffffff;"/>
   </g>
   <g id="matplotlib.axis_1">
    <g id="xtick_1">
     <g id="line2d_1">
      <defs>
       <path d="M 0 0 
L 0 3.5 
" id="mb9c2b4fff1" style="stroke:#000000;stroke-width:0.8;"/>
      </defs>
      <g>
       <use style="stroke:#000000;stroke-width:0.8;" x="161.509091" xlink:href="#mb9c2b4fff1" y="173.551304"/>
      </g>
     </g>
    </g>
    <g id="xtick_2">
     <g id="line2d_2">
      <g>
       <use style="stroke:#000000;stroke-width:0.8;" x="296.781818" xlink:href="#mb9c2b4fff1" y="173.551304"/>
      </g>
     </g>
    </g>
    <g id="xtick_3">
     <g id="line2d_3">
      <g>
       <use style="stroke:#000000;stroke-width:0.8;" x="432.054545" xlink:href="#mb9c2b4fff1" y="173.551304"/>
      </g>
     </g>
    </g>
    <g id="xtick_4">
     <g id="line2d_4">
      <g>
       <use style="stroke:#000000;stroke-width:0.8;" x="567.327273" xlink:href="#mb9c2b4fff1" y="173.551304"/>
      </g>
     </g>
    </g>
    <g id="xtick_5">
     <g id="line2d_5">
      <g>
       <use style="stroke:#000000;stroke-width:0.8;" x="702.6" xlink:href="#mb9c2b4fff1" y="173.551304"/>
      </g>
     </g>
    </g>
    <g id="xtick_6">
     <g id="line2d_6">
      <g>
       <use style="stroke:#000000;stroke-width:0.8;" x="837.872727" xlink:href="#mb9c2b4fff1" y="173.551304"/>
      </g>
     </g>
    </g>
   </g>
   <g id="matplotlib.axis_2">
    <g id="ytick_1">
     <g id="line2d_7">
      <defs>
       <path d="M 0 0 
L -3.5 0 
" id="m084c7b15b8" style="stroke:#000000;stroke-width:0.8;"/>
      </defs>
      <g>
       <use style="stroke:#000000;stroke-width:0.8;" x="126" xlink:href="#m084c7b15b8" y="169.197154"/>
      </g>
     </g>
     <g id="text_1">
      <!-- 0 -->
      <g transform="translate(112.6375 172.996373)scale(0.1 -0.1)">
       <defs>
        <path d="M 31.78125 66.40625 
Q 24.171875 66.40625 20.328125 58.90625 
Q 16.5 51.421875 16.5 36.375 
Q 16.5 21.390625 20.328125 13.890625 
Q 24.171875 6.390625 31.78125 6.390625 
Q 39.453125 6.390625 43.28125 13.890625 
Q 47.125 21.390625 47.125 36.375 
Q 47.125 51.421875 43.28125 58.90625 
Q 39.453125 66.40625 31.78125 66.40625 
z
M 31.78125 74.21875 
Q 44.046875 74.21875 50.515625 64.515625 
Q 56.984375 54.828125 56.984375 36.375 
Q 56.984375 17.96875 50.515625 8.265625 
Q 44.046875 -1.421875 31.78125 -1.421875 
Q 19.53125 -1.421875 13.0625 8.265625 
Q 6.59375 17.96875 6.59375 36.375 
Q 6.59375 54.828125 13.0625 64.515625 
Q 19.53125 74.21875 31.78125 74.21875 
z
" id="DejaVuSans-48"/>
       </defs>
       <use xlink:href="#DejaVuSans-48"/>
      </g>
     </g>
    </g>
    <g id="ytick_2">
     <g id="line2d_8">
      <g>
       <use style="stroke:#000000;stroke-width:0.8;" x="126" xlink:href="#m084c7b15b8" y="127.925588"/>
      </g>
     </g>
     <g id="text_2">
      <!-- 200 -->
      <g transform="translate(99.9125 131.724807)scale(0.1 -0.1)">
       <defs>
        <path d="M 19.1875 8.296875 
L 53.609375 8.296875 
L 53.609375 0 
L 7.328125 0 
L 7.328125 8.296875 
Q 12.9375 14.109375 22.625 23.890625 
Q 32.328125 33.6875 34.8125 36.53125 
Q 39.546875 41.84375 41.421875 45.53125 
Q 43.3125 49.21875 43.3125 52.78125 
Q 43.3125 58.59375 39.234375 62.25 
Q 35.15625 65.921875 28.609375 65.921875 
Q 23.96875 65.921875 18.8125 64.3125 
Q 13.671875 62.703125 7.8125 59.421875 
L 7.8125 69.390625 
Q 13.765625 71.78125 18.9375 73 
Q 24.125 74.21875 28.421875 74.21875 
Q 39.75 74.21875 46.484375 68.546875 
Q 53.21875 62.890625 53.21875 53.421875 
Q 53.21875 48.921875 51.53125 44.890625 
Q 49.859375 40.875 45.40625 35.40625 
Q 44.1875 33.984375 37.640625 27.21875 
Q 31.109375 20.453125 19.1875 8.296875 
z
" id="DejaVuSans-50"/>
       </defs>
       <use xlink:href="#DejaVuSans-50"/>
       <use x="63.623047" xlink:href="#DejaVuSans-48"/>
       <use x="127.246094" xlink:href="#DejaVuSans-48"/>
      </g>
     </g>
    </g>
    <g id="ytick_3">
     <g id="line2d_9">
      <g>
       <use style="stroke:#000000;stroke-width:0.8;" x="126" xlink:href="#m084c7b15b8" y="86.654022"/>
      </g>
     </g>
     <g id="text_3">
      <!-- 400 -->
      <g transform="translate(99.9125 90.453241)scale(0.1 -0.1)">
       <defs>
        <path d="M 37.796875 64.3125 
L 12.890625 25.390625 
L 37.796875 25.390625 
z
M 35.203125 72.90625 
L 47.609375 72.90625 
L 47.609375 25.390625 
L 58.015625 25.390625 
L 58.015625 17.1875 
L 47.609375 17.1875 
L 47.609375 0 
L 37.796875 0 
L 37.796875 17.1875 
L 4.890625 17.1875 
L 4.890625 26.703125 
z
" id="DejaVuSans-52"/>
       </defs>
       <use xlink:href="#DejaVuSans-52"/>
       <use x="63.623047" xlink:href="#DejaVuSans-48"/>
       <use x="127.246094" xlink:href="#DejaVuSans-48"/>
      </g>
     </g>
    </g>
   </g>
   <g id="line2d_10">
    <path clip-path="url(#pc1ace90f5c)" d="M 161.509091 168.990796 
L 162.861818 169.197154 
L 164.214545 167.339934 
L 165.567273 169.197154 
L 168.272727 169.197154 
L 169.625455 168.990796 
L 170.978182 168.990796 
L 172.330909 169.197154 
L 176.389091 169.197154 
L 177.741818 167.546292 
L 179.094545 166.72086 
L 180.447273 165.689071 
L 181.8 167.339934 
L 183.152727 168.578081 
L 184.505455 165.689071 
L 187.210909 157.847474 
L 188.563636 157.022042 
L 189.916364 155.164822 
L 192.621818 153.513959 
L 193.974545 151.037665 
L 195.327273 132.052745 
L 196.68 139.687985 
L 198.032727 148.974087 
L 199.385455 151.656739 
L 200.738182 151.244023 
L 202.090909 157.2284 
L 203.443636 157.434758 
L 204.796364 161.355557 
L 206.149091 154.133033 
L 207.501818 154.958464 
L 208.854545 160.942841 
L 210.207273 163.419135 
L 211.56 162.593704 
L 212.912727 154.133033 
L 214.265455 156.815684 
L 215.618182 161.561914 
L 216.970909 155.164822 
L 218.323636 163.831851 
L 219.676364 159.498336 
L 221.029091 166.514502 
L 222.381818 162.387346 
L 223.734545 164.038208 
L 225.087273 156.815684 
L 226.44 161.355557 
L 227.792727 158.466547 
L 229.145455 160.942841 
L 230.498182 162.593704 
L 231.850909 161.149199 
L 233.203636 158.260189 
L 234.556364 155.990253 
L 235.909091 161.355557 
L 237.261818 165.895429 
L 238.614545 164.450924 
L 239.967273 161.149199 
L 241.32 158.879263 
L 242.672727 155.577537 
L 244.025455 159.704694 
L 245.378182 163.212777 
L 246.730909 167.959007 
L 248.083636 168.784438 
L 249.436364 166.72086 
L 250.789091 163.625493 
L 252.141818 166.101787 
L 253.494545 162.387346 
L 254.847273 167.752649 
L 256.2 168.578081 
L 257.552727 168.990796 
L 258.905455 165.689071 
L 260.258182 165.276355 
L 261.610909 167.339934 
L 262.963636 165.069998 
L 264.316364 167.339934 
L 265.669091 168.578081 
L 267.021818 168.578081 
L 268.374545 167.546292 
L 269.727273 168.165365 
L 271.08 167.339934 
L 272.432727 168.165365 
L 273.785455 167.546292 
L 275.138182 168.784438 
L 276.490909 169.197154 
L 277.843636 167.752649 
L 279.196364 168.578081 
L 280.549091 166.308145 
L 281.901818 168.371723 
L 283.254545 167.546292 
L 284.607273 168.784438 
L 285.96 168.784438 
L 287.312727 168.371723 
L 288.665455 167.546292 
L 290.018182 168.371723 
L 291.370909 167.959007 
L 292.723636 168.165365 
L 294.076364 169.197154 
L 295.429091 168.784438 
L 296.781818 167.546292 
L 298.134545 168.784438 
L 299.487273 168.165365 
L 300.84 168.165365 
L 302.192727 167.133576 
L 303.545455 168.784438 
L 304.898182 168.990796 
L 306.250909 167.752649 
L 307.603636 168.371723 
L 308.956364 166.308145 
L 310.309091 166.101787 
L 311.661818 166.72086 
L 313.014545 168.990796 
L 314.367273 167.959007 
L 315.72 166.72086 
L 317.072727 167.752649 
L 318.425455 163.625493 
L 319.778182 167.546292 
L 321.130909 166.927218 
L 322.483636 167.959007 
L 323.836364 169.197154 
L 325.189091 167.959007 
L 326.541818 166.514502 
L 327.894545 167.752649 
L 329.247273 167.752649 
L 330.6 167.546292 
L 331.952727 168.990796 
L 333.305455 169.197154 
L 334.658182 168.371723 
L 336.010909 168.165365 
L 337.363636 166.927218 
L 338.716364 168.371723 
L 340.069091 168.578081 
L 341.421818 169.197154 
L 342.774545 168.578081 
L 344.127273 168.784438 
L 345.48 167.752649 
L 346.832727 167.339934 
L 348.185455 168.371723 
L 349.538182 167.752649 
L 350.890909 167.546292 
L 352.243636 164.86364 
L 353.596364 166.514502 
L 354.949091 168.784438 
L 357.654545 166.308145 
L 359.007273 166.72086 
L 360.36 167.959007 
L 361.712727 168.165365 
L 363.065455 166.514502 
L 364.418182 168.990796 
L 365.770909 167.959007 
L 367.123636 161.355557 
L 368.476364 165.069998 
L 369.829091 164.244566 
L 371.181818 164.86364 
L 372.534545 160.736483 
L 373.887273 161.149199 
L 375.24 164.86364 
L 376.592727 160.530125 
L 377.945455 162.387346 
L 379.298182 162.800061 
L 380.650909 163.006419 
L 382.003636 165.689071 
L 383.356364 155.577537 
L 384.709091 159.498336 
L 386.061818 155.990253 
L 387.414545 151.863096 
L 390.12 160.530125 
L 391.472727 165.276355 
L 392.825455 158.672905 
L 394.178182 158.879263 
L 395.530909 155.164822 
L 396.883636 147.942298 
L 398.236364 153.720317 
L 399.589091 161.561914 
L 400.941818 158.053831 
L 402.294545 151.656739 
L 403.647273 150.212234 
L 405 149.799518 
L 406.352727 142.576994 
L 407.705455 145.672362 
L 409.058182 155.37118 
L 410.410909 155.783895 
L 411.763636 145.259646 
L 413.116364 148.148656 
L 414.469091 139.275269 
L 415.821818 142.783352 
L 417.174545 144.640572 
L 418.527273 156.815684 
L 421.232727 147.116866 
L 422.585455 132.259103 
L 423.938182 137.830764 
L 425.290909 145.466004 
L 426.643636 144.021499 
L 427.996364 146.704151 
L 429.349091 151.656739 
L 430.701818 152.688528 
L 432.054545 144.434215 
L 433.407273 155.990253 
L 434.76 146.704151 
L 436.112727 153.307601 
L 437.465455 157.641116 
L 438.818182 155.164822 
L 440.170909 154.33939 
L 441.523636 156.609327 
L 442.876364 157.434758 
L 444.229091 153.720317 
L 445.581818 157.847474 
L 446.934545 164.038208 
L 448.287273 153.720317 
L 449.64 162.180988 
L 450.992727 159.704694 
L 452.345455 159.704694 
L 453.698182 155.577537 
L 455.050909 162.593704 
L 456.403636 156.609327 
L 457.756364 160.736483 
L 459.109091 159.704694 
L 460.461818 161.149199 
L 461.814545 162.387346 
L 463.167273 155.164822 
L 464.52 154.752106 
L 465.872727 161.97463 
L 467.225455 159.911052 
L 468.578182 154.133033 
L 469.930909 156.609327 
L 471.283636 151.656739 
L 472.636364 148.148656 
L 473.989091 137.211691 
L 475.341818 159.291978 
L 476.694545 150.005876 
L 478.047273 136.386259 
L 479.4 125.036579 
L 480.752727 144.84693 
L 482.105455 131.020956 
L 484.810909 135.35447 
L 486.163636 141.338847 
L 487.516364 133.49725 
L 488.869091 127.71923 
L 490.221818 131.640029 
L 491.574545 134.529039 
L 492.927273 128.75102 
L 494.28 139.275269 
L 495.632727 124.623863 
L 496.985455 120.290349 
L 498.338182 136.798975 
L 499.690909 105.226227 
L 501.043636 122.353927 
L 502.396364 132.052745 
L 503.749091 120.496706 
L 505.101818 122.560285 
L 506.454545 116.36955 
L 507.807273 115.544119 
L 509.16 122.147569 
L 510.512727 126.068368 
L 511.865455 129.370093 
L 513.218182 142.370636 
L 514.570909 119.464917 
L 515.923636 111.416962 
L 517.276364 119.671275 
L 518.629091 134.735397 
L 519.981818 134.116323 
L 521.334545 138.037122 
L 522.687273 151.863096 
L 524.04 141.545205 
L 525.392727 141.751563 
L 526.745455 144.227857 
L 528.098182 147.529582 
L 529.450909 141.338847 
L 530.803636 151.244023 
L 532.156364 150.831307 
L 533.509091 147.323224 
L 534.861818 127.512873 
L 536.214545 144.434215 
L 537.567273 136.592617 
L 538.92 141.338847 
L 540.272727 142.576994 
L 541.625455 157.2284 
L 542.978182 152.894886 
L 544.330909 151.037665 
L 545.683636 159.498336 
L 547.036364 146.497793 
L 548.389091 153.307601 
L 549.741818 157.847474 
L 551.094545 152.48217 
L 552.447273 153.926675 
L 553.8 151.244023 
L 555.152727 152.275812 
L 556.505455 153.720317 
L 557.858182 154.133033 
L 559.210909 162.593704 
L 560.563636 158.672905 
L 561.916364 155.990253 
L 563.269091 156.402969 
L 564.621818 152.48217 
L 565.974545 157.022042 
L 567.327273 155.37118 
L 568.68 155.783895 
L 570.032727 154.133033 
L 571.385455 154.33939 
L 572.738182 145.466004 
L 574.090909 145.878719 
L 575.443636 160.530125 
L 576.796364 138.656195 
L 578.149091 147.116866 
L 579.501818 151.450381 
L 580.854545 142.98971 
L 582.207273 141.751563 
L 584.912727 138.449838 
L 586.265455 145.672362 
L 587.618182 138.449838 
L 588.970909 144.84693 
L 590.323636 126.068368 
L 591.676364 142.370636 
L 593.029091 131.020956 
L 594.381818 140.1007 
L 595.734545 131.020956 
L 597.087273 138.449838 
L 598.44 143.402425 
L 599.792727 144.640572 
L 601.145455 126.481083 
L 602.498182 126.274726 
L 603.850909 128.131946 
L 605.203636 127.925588 
L 606.556364 134.322681 
L 607.909091 148.561371 
L 609.261818 133.703608 
L 610.614545 141.751563 
L 611.967273 127.306515 
L 613.32 137.005333 
L 614.672727 129.576451 
L 616.025455 144.021499 
L 617.378182 152.894886 
L 618.730909 139.481627 
L 620.083636 139.068911 
L 621.436364 144.434215 
L 622.789091 140.719774 
L 624.141818 148.767729 
L 625.494545 155.164822 
L 626.847273 157.2284 
L 628.2 148.355013 
L 629.552727 147.323224 
L 630.905455 146.910509 
L 632.258182 155.783895 
L 633.610909 152.069454 
L 634.963636 166.514502 
L 636.316364 150.005876 
L 637.669091 148.561371 
L 639.021818 154.752106 
L 640.374545 158.466547 
L 641.727273 153.720317 
L 643.08 153.720317 
L 644.432727 159.291978 
L 645.785455 159.498336 
L 647.138182 156.196611 
L 648.490909 157.641116 
L 649.843636 157.2284 
L 651.196364 160.11741 
L 652.549091 157.847474 
L 653.901818 162.800061 
L 655.254545 161.149199 
L 656.607273 161.149199 
L 657.96 159.291978 
L 659.312727 161.561914 
L 660.665455 160.323767 
L 662.018182 163.831851 
L 663.370909 161.149199 
L 664.723636 160.11741 
L 666.076364 163.625493 
L 667.429091 159.291978 
L 668.781818 160.11741 
L 670.134545 161.149199 
L 671.487273 159.911052 
L 672.84 159.704694 
L 674.192727 163.831851 
L 675.545455 158.053831 
L 676.898182 160.530125 
L 678.250909 158.879263 
L 679.603636 161.768272 
L 680.956364 161.561914 
L 682.309091 158.053831 
L 683.661818 166.101787 
L 685.014545 158.466547 
L 686.367273 158.879263 
L 687.72 160.323767 
L 689.072727 153.513959 
L 690.425455 160.530125 
L 691.778182 163.212777 
L 693.130909 155.783895 
L 694.483636 156.402969 
L 695.836364 155.577537 
L 697.189091 156.196611 
L 698.541818 157.847474 
L 699.894545 154.133033 
L 701.247273 158.260189 
L 702.6 160.942841 
L 703.952727 157.434758 
L 705.305455 155.783895 
L 706.658182 156.402969 
L 708.010909 148.355013 
L 709.363636 157.641116 
L 710.716364 150.212234 
L 712.069091 151.037665 
L 713.421818 148.148656 
L 714.774545 152.894886 
L 716.127273 155.577537 
L 717.48 141.545205 
L 718.832727 148.148656 
L 720.185455 151.037665 
L 721.538182 144.640572 
L 722.890909 146.704151 
L 724.243636 150.62495 
L 725.596364 147.116866 
L 726.949091 144.640572 
L 728.301818 136.798975 
L 729.654545 153.307601 
L 731.007273 154.33939 
L 732.36 142.164279 
L 733.712727 151.037665 
L 735.065455 148.561371 
L 736.418182 141.545205 
L 737.770909 146.497793 
L 739.123636 153.926675 
L 740.476364 146.497793 
L 741.829091 152.069454 
L 743.181818 154.752106 
L 744.534545 154.958464 
L 745.887273 154.545748 
L 747.24 158.879263 
L 748.592727 158.466547 
L 749.945455 158.672905 
L 751.298182 158.672905 
L 752.650909 159.704694 
L 754.003636 159.498336 
L 755.356364 159.498336 
L 756.709091 165.069998 
L 758.061818 163.419135 
L 759.414545 163.831851 
L 760.767273 160.942841 
L 762.12 161.149199 
L 763.472727 163.831851 
L 764.825455 163.006419 
L 766.178182 158.672905 
L 767.530909 164.038208 
L 768.883636 163.625493 
L 770.236364 160.323767 
L 771.589091 162.593704 
L 772.941818 159.085621 
L 774.294545 160.323767 
L 775.647273 165.276355 
L 777 162.180988 
L 778.352727 161.561914 
L 779.705455 162.593704 
L 781.058182 158.466547 
L 782.410909 164.450924 
L 783.763636 161.355557 
L 786.469091 163.419135 
L 787.821818 167.339934 
L 789.174545 163.625493 
L 790.527273 162.593704 
L 791.88 165.482713 
L 793.232727 164.244566 
L 794.585455 164.038208 
L 795.938182 168.165365 
L 797.290909 162.180988 
L 798.643636 162.800061 
L 799.996364 163.831851 
L 801.349091 162.593704 
L 802.701818 155.37118 
L 804.054545 159.498336 
L 805.407273 149.59316 
L 806.76 155.164822 
L 808.112727 148.355013 
L 809.465455 160.736483 
L 810.818182 150.62495 
L 812.170909 147.73594 
L 813.523636 148.148656 
L 814.876364 153.307601 
L 817.581818 140.1007 
L 818.934545 144.84693 
L 820.287273 136.592617 
L 821.64 126.481083 
L 822.992727 119.671275 
L 824.345455 142.576994 
L 825.698182 127.100157 
L 827.050909 114.099614 
L 828.403636 122.766643 
L 829.756364 124.00479 
L 831.109091 95.733767 
L 832.461818 124.417505 
L 833.814545 137.624406 
L 835.167273 121.322138 
L 836.52 119.464917 
L 837.872727 123.179358 
L 839.225455 98.416419 
L 840.578182 117.194981 
L 841.930909 115.337761 
L 843.283636 114.718687 
L 844.636364 117.607697 
L 845.989091 107.083448 
L 847.341818 109.559741 
L 848.694545 110.591531 
L 850.047273 82.11415 
L 851.4 118.020412 
L 852.752727 88.304885 
L 854.105455 108.73431 
L 855.458182 132.878176 
L 856.810909 98.210061 
L 858.163636 125.86201 
L 859.516364 116.163192 
L 860.869091 121.941211 
L 862.221818 129.782809 
L 863.574545 138.862553 
L 864.927273 127.925588 
L 866.28 122.560285 
L 867.632727 131.640029 
L 868.985455 103.369007 
L 870.338182 131.433671 
L 871.690909 152.069454 
L 871.690909 152.069454 
" style="fill:none;stroke:#1f77b4;stroke-linecap:square;stroke-width:1.5;"/>
   </g>
   <g id="patch_3">
    <path d="M 126 173.551304 
L 126 77.76 
" style="fill:none;stroke:#000000;stroke-linecap:square;stroke-linejoin:miter;stroke-width:0.8;"/>
   </g>
   <g id="patch_4">
    <path d="M 907.2 173.551304 
L 907.2 77.76 
" style="fill:none;stroke:#000000;stroke-linecap:square;stroke-linejoin:miter;stroke-width:0.8;"/>
   </g>
   <g id="patch_5">
    <path d="M 126 173.551304 
L 907.2 173.551304 
" style="fill:none;stroke:#000000;stroke-linecap:square;stroke-linejoin:miter;stroke-width:0.8;"/>
   </g>
   <g id="patch_6">
    <path d="M 126 77.76 
L 907.2 77.76 
" style="fill:none;stroke:#000000;stroke-linecap:square;stroke-linejoin:miter;stroke-width:0.8;"/>
   </g>
   <g id="legend_1">
    <g id="patch_7">
     <path d="M 133 100.71625 
L 222.15 100.71625 
Q 224.15 100.71625 224.15 98.71625 
L 224.15 84.76 
Q 224.15 82.76 222.15 82.76 
L 133 82.76 
Q 131 82.76 131 84.76 
L 131 98.71625 
Q 131 100.71625 133 100.71625 
z
" style="fill:#ffffff;opacity:0.8;stroke:#cccccc;stroke-linejoin:miter;"/>
    </g>
    <g id="line2d_11">
     <path d="M 135 90.858437 
L 155 90.858437 
" style="fill:none;stroke:#1f77b4;stroke-linecap:square;stroke-width:1.5;"/>
    </g>
    <g id="line2d_12"/>
    <g id="text_4">
     <!-- daily_cases -->
     <g transform="translate(163 94.358437)scale(0.1 -0.1)">
      <defs>
       <path d="M 45.40625 46.390625 
L 45.40625 75.984375 
L 54.390625 75.984375 
L 54.390625 0 
L 45.40625 0 
L 45.40625 8.203125 
Q 42.578125 3.328125 38.25 0.953125 
Q 33.9375 -1.421875 27.875 -1.421875 
Q 17.96875 -1.421875 11.734375 6.484375 
Q 5.515625 14.40625 5.515625 27.296875 
Q 5.515625 40.1875 11.734375 48.09375 
Q 17.96875 56 27.875 56 
Q 33.9375 56 38.25 53.625 
Q 42.578125 51.265625 45.40625 46.390625 
z
M 14.796875 27.296875 
Q 14.796875 17.390625 18.875 11.75 
Q 22.953125 6.109375 30.078125 6.109375 
Q 37.203125 6.109375 41.296875 11.75 
Q 45.40625 17.390625 45.40625 27.296875 
Q 45.40625 37.203125 41.296875 42.84375 
Q 37.203125 48.484375 30.078125 48.484375 
Q 22.953125 48.484375 18.875 42.84375 
Q 14.796875 37.203125 14.796875 27.296875 
z
" id="DejaVuSans-100"/>
       <path d="M 34.28125 27.484375 
Q 23.390625 27.484375 19.1875 25 
Q 14.984375 22.515625 14.984375 16.5 
Q 14.984375 11.71875 18.140625 8.90625 
Q 21.296875 6.109375 26.703125 6.109375 
Q 34.1875 6.109375 38.703125 11.40625 
Q 43.21875 16.703125 43.21875 25.484375 
L 43.21875 27.484375 
z
M 52.203125 31.203125 
L 52.203125 0 
L 43.21875 0 
L 43.21875 8.296875 
Q 40.140625 3.328125 35.546875 0.953125 
Q 30.953125 -1.421875 24.3125 -1.421875 
Q 15.921875 -1.421875 10.953125 3.296875 
Q 6 8.015625 6 15.921875 
Q 6 25.140625 12.171875 29.828125 
Q 18.359375 34.515625 30.609375 34.515625 
L 43.21875 34.515625 
L 43.21875 35.40625 
Q 43.21875 41.609375 39.140625 45 
Q 35.0625 48.390625 27.6875 48.390625 
Q 23 48.390625 18.546875 47.265625 
Q 14.109375 46.140625 10.015625 43.890625 
L 10.015625 52.203125 
Q 14.9375 54.109375 19.578125 55.046875 
Q 24.21875 56 28.609375 56 
Q 40.484375 56 46.34375 49.84375 
Q 52.203125 43.703125 52.203125 31.203125 
z
" id="DejaVuSans-97"/>
       <path d="M 9.421875 54.6875 
L 18.40625 54.6875 
L 18.40625 0 
L 9.421875 0 
z
M 9.421875 75.984375 
L 18.40625 75.984375 
L 18.40625 64.59375 
L 9.421875 64.59375 
z
" id="DejaVuSans-105"/>
       <path d="M 9.421875 75.984375 
L 18.40625 75.984375 
L 18.40625 0 
L 9.421875 0 
z
" id="DejaVuSans-108"/>
       <path d="M 32.171875 -5.078125 
Q 28.375 -14.84375 24.75 -17.8125 
Q 21.140625 -20.796875 15.09375 -20.796875 
L 7.90625 -20.796875 
L 7.90625 -13.28125 
L 13.1875 -13.28125 
Q 16.890625 -13.28125 18.9375 -11.515625 
Q 21 -9.765625 23.484375 -3.21875 
L 25.09375 0.875 
L 2.984375 54.6875 
L 12.5 54.6875 
L 29.59375 11.921875 
L 46.6875 54.6875 
L 56.203125 54.6875 
z
" id="DejaVuSans-121"/>
       <path d="M 50.984375 -16.609375 
L 50.984375 -23.578125 
L -0.984375 -23.578125 
L -0.984375 -16.609375 
z
" id="DejaVuSans-95"/>
       <path d="M 48.78125 52.59375 
L 48.78125 44.1875 
Q 44.96875 46.296875 41.140625 47.34375 
Q 37.3125 48.390625 33.40625 48.390625 
Q 24.65625 48.390625 19.8125 42.84375 
Q 14.984375 37.3125 14.984375 27.296875 
Q 14.984375 17.28125 19.8125 11.734375 
Q 24.65625 6.203125 33.40625 6.203125 
Q 37.3125 6.203125 41.140625 7.25 
Q 44.96875 8.296875 48.78125 10.40625 
L 48.78125 2.09375 
Q 45.015625 0.34375 40.984375 -0.53125 
Q 36.96875 -1.421875 32.421875 -1.421875 
Q 20.0625 -1.421875 12.78125 6.34375 
Q 5.515625 14.109375 5.515625 27.296875 
Q 5.515625 40.671875 12.859375 48.328125 
Q 20.21875 56 33.015625 56 
Q 37.15625 56 41.109375 55.140625 
Q 45.0625 54.296875 48.78125 52.59375 
z
" id="DejaVuSans-99"/>
       <path d="M 44.28125 53.078125 
L 44.28125 44.578125 
Q 40.484375 46.53125 36.375 47.5 
Q 32.28125 48.484375 27.875 48.484375 
Q 21.1875 48.484375 17.84375 46.4375 
Q 14.5 44.390625 14.5 40.28125 
Q 14.5 37.15625 16.890625 35.375 
Q 19.28125 33.59375 26.515625 31.984375 
L 29.59375 31.296875 
Q 39.15625 29.25 43.1875 25.515625 
Q 47.21875 21.78125 47.21875 15.09375 
Q 47.21875 7.46875 41.1875 3.015625 
Q 35.15625 -1.421875 24.609375 -1.421875 
Q 20.21875 -1.421875 15.453125 -0.5625 
Q 10.6875 0.296875 5.421875 2 
L 5.421875 11.28125 
Q 10.40625 8.6875 15.234375 7.390625 
Q 20.0625 6.109375 24.8125 6.109375 
Q 31.15625 6.109375 34.5625 8.28125 
Q 37.984375 10.453125 37.984375 14.40625 
Q 37.984375 18.0625 35.515625 20.015625 
Q 33.0625 21.96875 24.703125 23.78125 
L 21.578125 24.515625 
Q 13.234375 26.265625 9.515625 29.90625 
Q 5.8125 33.546875 5.8125 39.890625 
Q 5.8125 47.609375 11.28125 51.796875 
Q 16.75 56 26.8125 56 
Q 31.78125 56 36.171875 55.265625 
Q 40.578125 54.546875 44.28125 53.078125 
z
" id="DejaVuSans-115"/>
       <path d="M 56.203125 29.59375 
L 56.203125 25.203125 
L 14.890625 25.203125 
Q 15.484375 15.921875 20.484375 11.0625 
Q 25.484375 6.203125 34.421875 6.203125 
Q 39.59375 6.203125 44.453125 7.46875 
Q 49.3125 8.734375 54.109375 11.28125 
L 54.109375 2.78125 
Q 49.265625 0.734375 44.1875 -0.34375 
Q 39.109375 -1.421875 33.890625 -1.421875 
Q 20.796875 -1.421875 13.15625 6.1875 
Q 5.515625 13.8125 5.515625 26.8125 
Q 5.515625 40.234375 12.765625 48.109375 
Q 20.015625 56 32.328125 56 
Q 43.359375 56 49.78125 48.890625 
Q 56.203125 41.796875 56.203125 29.59375 
z
M 47.21875 32.234375 
Q 47.125 39.59375 43.09375 43.984375 
Q 39.0625 48.390625 32.421875 48.390625 
Q 24.90625 48.390625 20.390625 44.140625 
Q 15.875 39.890625 15.1875 32.171875 
z
" id="DejaVuSans-101"/>
      </defs>
      <use xlink:href="#DejaVuSans-100"/>
      <use x="63.476562" xlink:href="#DejaVuSans-97"/>
      <use x="124.755859" xlink:href="#DejaVuSans-105"/>
      <use x="152.539062" xlink:href="#DejaVuSans-108"/>
      <use x="180.322266" xlink:href="#DejaVuSans-121"/>
      <use x="239.501953" xlink:href="#DejaVuSans-95"/>
      <use x="289.501953" xlink:href="#DejaVuSans-99"/>
      <use x="344.482422" xlink:href="#DejaVuSans-97"/>
      <use x="405.761719" xlink:href="#DejaVuSans-115"/>
      <use x="457.861328" xlink:href="#DejaVuSans-101"/>
      <use x="519.384766" xlink:href="#DejaVuSans-115"/>
     </g>
    </g>
   </g>
  </g>
  <g id="axes_2">
   <g id="patch_8">
    <path d="M 126 288.50087 
L 907.2 288.50087 
L 907.2 192.709565 
L 126 192.709565 
z
" style="fill:#ffffff;"/>
   </g>
   <g id="matplotlib.axis_3">
    <g id="xtick_7">
     <g id="line2d_13">
      <g>
       <use style="stroke:#000000;stroke-width:0.8;" x="161.509091" xlink:href="#mb9c2b4fff1" y="288.50087"/>
      </g>
     </g>
    </g>
    <g id="xtick_8">
     <g id="line2d_14">
      <g>
       <use style="stroke:#000000;stroke-width:0.8;" x="296.781818" xlink:href="#mb9c2b4fff1" y="288.50087"/>
      </g>
     </g>
    </g>
    <g id="xtick_9">
     <g id="line2d_15">
      <g>
       <use style="stroke:#000000;stroke-width:0.8;" x="432.054545" xlink:href="#mb9c2b4fff1" y="288.50087"/>
      </g>
     </g>
    </g>
    <g id="xtick_10">
     <g id="line2d_16">
      <g>
       <use style="stroke:#000000;stroke-width:0.8;" x="567.327273" xlink:href="#mb9c2b4fff1" y="288.50087"/>
      </g>
     </g>
    </g>
    <g id="xtick_11">
     <g id="line2d_17">
      <g>
       <use style="stroke:#000000;stroke-width:0.8;" x="702.6" xlink:href="#mb9c2b4fff1" y="288.50087"/>
      </g>
     </g>
    </g>
    <g id="xtick_12">
     <g id="line2d_18">
      <g>
       <use style="stroke:#000000;stroke-width:0.8;" x="837.872727" xlink:href="#mb9c2b4fff1" y="288.50087"/>
      </g>
     </g>
    </g>
   </g>
   <g id="matplotlib.axis_4">
    <g id="ytick_4">
     <g id="line2d_19">
      <g>
       <use style="stroke:#000000;stroke-width:0.8;" x="126" xlink:href="#m084c7b15b8" y="284.146719"/>
      </g>
     </g>
     <g id="text_5">
      <!-- 0 -->
      <g transform="translate(112.6375 287.945938)scale(0.1 -0.1)">
       <use xlink:href="#DejaVuSans-48"/>
      </g>
     </g>
    </g>
    <g id="ytick_5">
     <g id="line2d_20">
      <g>
       <use style="stroke:#000000;stroke-width:0.8;" x="126" xlink:href="#m084c7b15b8" y="256.933281"/>
      </g>
     </g>
     <g id="text_6">
      <!-- 5 -->
      <g transform="translate(112.6375 260.732499)scale(0.1 -0.1)">
       <defs>
        <path d="M 10.796875 72.90625 
L 49.515625 72.90625 
L 49.515625 64.59375 
L 19.828125 64.59375 
L 19.828125 46.734375 
Q 21.96875 47.46875 24.109375 47.828125 
Q 26.265625 48.1875 28.421875 48.1875 
Q 40.625 48.1875 47.75 41.5 
Q 54.890625 34.8125 54.890625 23.390625 
Q 54.890625 11.625 47.5625 5.09375 
Q 40.234375 -1.421875 26.90625 -1.421875 
Q 22.3125 -1.421875 17.546875 -0.640625 
Q 12.796875 0.140625 7.71875 1.703125 
L 7.71875 11.625 
Q 12.109375 9.234375 16.796875 8.0625 
Q 21.484375 6.890625 26.703125 6.890625 
Q 35.15625 6.890625 40.078125 11.328125 
Q 45.015625 15.765625 45.015625 23.390625 
Q 45.015625 31 40.078125 35.4375 
Q 35.15625 39.890625 26.703125 39.890625 
Q 22.75 39.890625 18.8125 39.015625 
Q 14.890625 38.140625 10.796875 36.28125 
z
" id="DejaVuSans-53"/>
       </defs>
       <use xlink:href="#DejaVuSans-53"/>
      </g>
     </g>
    </g>
    <g id="ytick_6">
     <g id="line2d_21">
      <g>
       <use style="stroke:#000000;stroke-width:0.8;" x="126" xlink:href="#m084c7b15b8" y="229.719842"/>
      </g>
     </g>
     <g id="text_7">
      <!-- 10 -->
      <g transform="translate(106.275 233.519061)scale(0.1 -0.1)">
       <defs>
        <path d="M 12.40625 8.296875 
L 28.515625 8.296875 
L 28.515625 63.921875 
L 10.984375 60.40625 
L 10.984375 69.390625 
L 28.421875 72.90625 
L 38.28125 72.90625 
L 38.28125 8.296875 
L 54.390625 8.296875 
L 54.390625 0 
L 12.40625 0 
z
" id="DejaVuSans-49"/>
       </defs>
       <use xlink:href="#DejaVuSans-49"/>
       <use x="63.623047" xlink:href="#DejaVuSans-48"/>
      </g>
     </g>
    </g>
    <g id="ytick_7">
     <g id="line2d_22">
      <g>
       <use style="stroke:#000000;stroke-width:0.8;" x="126" xlink:href="#m084c7b15b8" y="202.506403"/>
      </g>
     </g>
     <g id="text_8">
      <!-- 15 -->
      <g transform="translate(106.275 206.305622)scale(0.1 -0.1)">
       <use xlink:href="#DejaVuSans-49"/>
       <use x="63.623047" xlink:href="#DejaVuSans-53"/>
      </g>
     </g>
    </g>
   </g>
   <g id="line2d_23">
    <path clip-path="url(#pf5c1dfc367)" d="M 161.509091 284.146719 
L 183.152727 284.146719 
L 184.505455 278.704032 
L 185.858182 284.146719 
L 187.210909 284.146719 
L 188.563636 273.261344 
L 189.916364 267.818656 
L 191.269091 273.261344 
L 192.621818 262.375968 
L 193.974545 256.933281 
L 195.327273 273.261344 
L 196.68 251.490593 
L 198.032727 267.818656 
L 200.738182 267.818656 
L 202.090909 202.506403 
L 203.443636 224.277154 
L 204.796364 262.375968 
L 206.149091 240.605217 
L 207.501818 273.261344 
L 210.207273 240.605217 
L 211.56 240.605217 
L 212.912727 262.375968 
L 214.265455 256.933281 
L 215.618182 262.375968 
L 216.970909 235.16253 
L 218.323636 262.375968 
L 219.676364 240.605217 
L 221.029091 251.490593 
L 223.734545 251.490593 
L 225.087273 267.818656 
L 226.44 251.490593 
L 227.792727 262.375968 
L 229.145455 262.375968 
L 230.498182 256.933281 
L 231.850909 262.375968 
L 233.203636 262.375968 
L 234.556364 267.818656 
L 235.909091 267.818656 
L 237.261818 262.375968 
L 238.614545 262.375968 
L 239.967273 278.704032 
L 241.32 273.261344 
L 242.672727 284.146719 
L 244.025455 273.261344 
L 246.730909 273.261344 
L 248.083636 278.704032 
L 249.436364 278.704032 
L 250.789091 284.146719 
L 252.141818 278.704032 
L 253.494545 284.146719 
L 254.847273 278.704032 
L 256.2 284.146719 
L 257.552727 284.146719 
L 258.905455 278.704032 
L 260.258182 284.146719 
L 261.610909 284.146719 
L 262.963636 278.704032 
L 264.316364 284.146719 
L 265.669091 273.261344 
L 267.021818 284.146719 
L 268.374545 284.146719 
L 269.727273 278.704032 
L 271.08 284.146719 
L 325.189091 284.146719 
L 326.541818 273.261344 
L 327.894545 284.146719 
L 346.832727 284.146719 
L 348.185455 278.704032 
L 349.538182 284.146719 
L 376.592727 284.146719 
L 377.945455 278.704032 
L 379.298182 284.146719 
L 380.650909 284.146719 
L 382.003636 278.704032 
L 383.356364 278.704032 
L 384.709091 284.146719 
L 392.825455 284.146719 
L 394.178182 278.704032 
L 395.530909 284.146719 
L 406.352727 284.146719 
L 407.705455 273.261344 
L 409.058182 284.146719 
L 410.410909 278.704032 
L 411.763636 284.146719 
L 413.116364 278.704032 
L 414.469091 284.146719 
L 415.821818 278.704032 
L 417.174545 284.146719 
L 418.527273 284.146719 
L 419.88 278.704032 
L 421.232727 284.146719 
L 422.585455 278.704032 
L 423.938182 284.146719 
L 429.349091 284.146719 
L 430.701818 278.704032 
L 432.054545 284.146719 
L 433.407273 278.704032 
L 434.76 267.818656 
L 436.112727 278.704032 
L 437.465455 284.146719 
L 441.523636 284.146719 
L 442.876364 278.704032 
L 444.229091 284.146719 
L 445.581818 278.704032 
L 446.934545 284.146719 
L 448.287273 278.704032 
L 449.64 284.146719 
L 452.345455 284.146719 
L 453.698182 278.704032 
L 455.050909 284.146719 
L 456.403636 278.704032 
L 457.756364 284.146719 
L 461.814545 284.146719 
L 463.167273 278.704032 
L 464.52 278.704032 
L 465.872727 284.146719 
L 467.225455 284.146719 
L 468.578182 278.704032 
L 469.930909 284.146719 
L 471.283636 273.261344 
L 472.636364 273.261344 
L 473.989091 267.818656 
L 475.341818 284.146719 
L 478.047273 284.146719 
L 479.4 278.704032 
L 480.752727 284.146719 
L 484.810909 284.146719 
L 486.163636 273.261344 
L 487.516364 278.704032 
L 488.869091 278.704032 
L 490.221818 284.146719 
L 492.927273 273.261344 
L 494.28 284.146719 
L 495.632727 284.146719 
L 496.985455 262.375968 
L 498.338182 262.375968 
L 499.690909 278.704032 
L 501.043636 273.261344 
L 505.101818 273.261344 
L 506.454545 267.818656 
L 507.807273 278.704032 
L 509.16 256.933281 
L 510.512727 267.818656 
L 511.865455 284.146719 
L 513.218182 278.704032 
L 514.570909 267.818656 
L 515.923636 251.490593 
L 517.276364 278.704032 
L 518.629091 278.704032 
L 519.981818 273.261344 
L 521.334545 278.704032 
L 522.687273 278.704032 
L 524.04 284.146719 
L 526.745455 273.261344 
L 528.098182 262.375968 
L 529.450909 278.704032 
L 530.803636 251.490593 
L 532.156364 278.704032 
L 533.509091 262.375968 
L 534.861818 262.375968 
L 536.214545 278.704032 
L 537.567273 267.818656 
L 538.92 284.146719 
L 540.272727 262.375968 
L 541.625455 267.818656 
L 542.978182 224.277154 
L 544.330909 273.261344 
L 545.683636 267.818656 
L 547.036364 278.704032 
L 548.389091 273.261344 
L 549.741818 273.261344 
L 551.094545 278.704032 
L 552.447273 251.490593 
L 553.8 262.375968 
L 555.152727 262.375968 
L 557.858182 273.261344 
L 559.210909 267.818656 
L 560.563636 278.704032 
L 561.916364 284.146719 
L 563.269091 278.704032 
L 564.621818 278.704032 
L 565.974545 273.261344 
L 567.327273 273.261344 
L 568.68 284.146719 
L 570.032727 278.704032 
L 571.385455 251.490593 
L 572.738182 278.704032 
L 574.090909 256.933281 
L 575.443636 278.704032 
L 576.796364 267.818656 
L 578.149091 273.261344 
L 579.501818 284.146719 
L 580.854545 273.261344 
L 582.207273 284.146719 
L 583.56 278.704032 
L 584.912727 284.146719 
L 586.265455 284.146719 
L 587.618182 273.261344 
L 588.970909 278.704032 
L 591.676364 278.704032 
L 593.029091 267.818656 
L 594.381818 273.261344 
L 595.734545 284.146719 
L 597.087273 284.146719 
L 598.44 267.818656 
L 599.792727 267.818656 
L 601.145455 284.146719 
L 602.498182 262.375968 
L 603.850909 197.063715 
L 605.203636 273.261344 
L 606.556364 267.818656 
L 607.909091 256.933281 
L 609.261818 278.704032 
L 610.614545 246.047905 
L 611.967273 262.375968 
L 613.32 273.261344 
L 614.672727 267.818656 
L 616.025455 273.261344 
L 617.378182 267.818656 
L 618.730909 278.704032 
L 620.083636 273.261344 
L 621.436364 278.704032 
L 624.141818 278.704032 
L 625.494545 256.933281 
L 626.847273 273.261344 
L 628.2 246.047905 
L 629.552727 284.146719 
L 630.905455 267.818656 
L 632.258182 284.146719 
L 633.610909 284.146719 
L 634.963636 278.704032 
L 636.316364 267.818656 
L 640.374545 284.146719 
L 641.727273 229.719842 
L 643.08 284.146719 
L 644.432727 284.146719 
L 645.785455 278.704032 
L 647.138182 284.146719 
L 648.490909 273.261344 
L 651.196364 273.261344 
L 652.549091 284.146719 
L 653.901818 278.704032 
L 655.254545 284.146719 
L 656.607273 278.704032 
L 657.96 262.375968 
L 659.312727 273.261344 
L 660.665455 278.704032 
L 662.018182 267.818656 
L 663.370909 278.704032 
L 664.723636 278.704032 
L 666.076364 267.818656 
L 667.429091 278.704032 
L 670.134545 278.704032 
L 671.487273 284.146719 
L 672.84 278.704032 
L 674.192727 284.146719 
L 678.250909 284.146719 
L 679.603636 278.704032 
L 680.956364 278.704032 
L 682.309091 284.146719 
L 685.014545 284.146719 
L 686.367273 273.261344 
L 687.72 278.704032 
L 690.425455 278.704032 
L 691.778182 284.146719 
L 695.836364 284.146719 
L 697.189091 278.704032 
L 698.541818 284.146719 
L 699.894545 278.704032 
L 701.247273 284.146719 
L 702.6 284.146719 
L 703.952727 278.704032 
L 705.305455 284.146719 
L 706.658182 278.704032 
L 708.010909 284.146719 
L 709.363636 278.704032 
L 710.716364 284.146719 
L 713.421818 273.261344 
L 714.774545 284.146719 
L 716.127273 284.146719 
L 717.48 278.704032 
L 720.185455 278.704032 
L 721.538182 284.146719 
L 724.243636 284.146719 
L 725.596364 278.704032 
L 726.949091 284.146719 
L 731.007273 284.146719 
L 732.36 278.704032 
L 733.712727 278.704032 
L 735.065455 284.146719 
L 736.418182 278.704032 
L 737.770909 278.704032 
L 739.123636 284.146719 
L 741.829091 284.146719 
L 743.181818 278.704032 
L 744.534545 284.146719 
L 745.887273 284.146719 
L 747.24 273.261344 
L 748.592727 284.146719 
L 755.356364 284.146719 
L 756.709091 278.704032 
L 758.061818 284.146719 
L 763.472727 284.146719 
L 764.825455 278.704032 
L 766.178182 278.704032 
L 767.530909 284.146719 
L 771.589091 284.146719 
L 772.941818 278.704032 
L 774.294545 284.146719 
L 777 284.146719 
L 778.352727 278.704032 
L 779.705455 284.146719 
L 787.821818 284.146719 
L 789.174545 278.704032 
L 790.527273 284.146719 
L 791.88 284.146719 
L 793.232727 262.375968 
L 794.585455 284.146719 
L 799.996364 284.146719 
L 801.349091 278.704032 
L 802.701818 284.146719 
L 804.054545 278.704032 
L 805.407273 284.146719 
L 816.229091 284.146719 
L 817.581818 278.704032 
L 818.934545 284.146719 
L 825.698182 284.146719 
L 827.050909 278.704032 
L 828.403636 284.146719 
L 844.636364 284.146719 
L 845.989091 278.704032 
L 847.341818 284.146719 
L 848.694545 284.146719 
L 850.047273 278.704032 
L 851.4 284.146719 
L 856.810909 284.146719 
L 858.163636 273.261344 
L 859.516364 278.704032 
L 860.869091 273.261344 
L 862.221818 284.146719 
L 863.574545 284.146719 
L 866.28 273.261344 
L 867.632727 284.146719 
L 868.985455 278.704032 
L 870.338182 284.146719 
L 871.690909 284.146719 
L 871.690909 284.146719 
" style="fill:none;stroke:#ff7f0e;stroke-linecap:square;stroke-width:1.5;"/>
   </g>
   <g id="patch_9">
    <path d="M 126 288.50087 
L 126 192.709565 
" style="fill:none;stroke:#000000;stroke-linecap:square;stroke-linejoin:miter;stroke-width:0.8;"/>
   </g>
   <g id="patch_10">
    <path d="M 907.2 288.50087 
L 907.2 192.709565 
" style="fill:none;stroke:#000000;stroke-linecap:square;stroke-linejoin:miter;stroke-width:0.8;"/>
   </g>
   <g id="patch_11">
    <path d="M 126 288.50087 
L 907.2 288.50087 
" style="fill:none;stroke:#000000;stroke-linecap:square;stroke-linejoin:miter;stroke-width:0.8;"/>
   </g>
   <g id="patch_12">
    <path d="M 126 192.709565 
L 907.2 192.709565 
" style="fill:none;stroke:#000000;stroke-linecap:square;stroke-linejoin:miter;stroke-width:0.8;"/>
   </g>
   <g id="legend_2">
    <g id="patch_13">
     <path d="M 805.151563 215.665815 
L 900.2 215.665815 
Q 902.2 215.665815 902.2 213.665815 
L 902.2 199.709565 
Q 902.2 197.709565 900.2 197.709565 
L 805.151563 197.709565 
Q 803.151563 197.709565 803.151563 199.709565 
L 803.151563 213.665815 
Q 803.151563 215.665815 805.151563 215.665815 
z
" style="fill:#ffffff;opacity:0.8;stroke:#cccccc;stroke-linejoin:miter;"/>
    </g>
    <g id="line2d_24">
     <path d="M 807.151563 205.808003 
L 827.151563 205.808003 
" style="fill:none;stroke:#ff7f0e;stroke-linecap:square;stroke-width:1.5;"/>
    </g>
    <g id="line2d_25"/>
    <g id="text_9">
     <!-- daily_deaths -->
     <g transform="translate(835.151563 209.308003)scale(0.1 -0.1)">
      <defs>
       <path d="M 18.3125 70.21875 
L 18.3125 54.6875 
L 36.8125 54.6875 
L 36.8125 47.703125 
L 18.3125 47.703125 
L 18.3125 18.015625 
Q 18.3125 11.328125 20.140625 9.421875 
Q 21.96875 7.515625 27.59375 7.515625 
L 36.8125 7.515625 
L 36.8125 0 
L 27.59375 0 
Q 17.1875 0 13.234375 3.875 
Q 9.28125 7.765625 9.28125 18.015625 
L 9.28125 47.703125 
L 2.6875 47.703125 
L 2.6875 54.6875 
L 9.28125 54.6875 
L 9.28125 70.21875 
z
" id="DejaVuSans-116"/>
       <path d="M 54.890625 33.015625 
L 54.890625 0 
L 45.90625 0 
L 45.90625 32.71875 
Q 45.90625 40.484375 42.875 44.328125 
Q 39.84375 48.1875 33.796875 48.1875 
Q 26.515625 48.1875 22.3125 43.546875 
Q 18.109375 38.921875 18.109375 30.90625 
L 18.109375 0 
L 9.078125 0 
L 9.078125 75.984375 
L 18.109375 75.984375 
L 18.109375 46.1875 
Q 21.34375 51.125 25.703125 53.5625 
Q 30.078125 56 35.796875 56 
Q 45.21875 56 50.046875 50.171875 
Q 54.890625 44.34375 54.890625 33.015625 
z
" id="DejaVuSans-104"/>
      </defs>
      <use xlink:href="#DejaVuSans-100"/>
      <use x="63.476562" xlink:href="#DejaVuSans-97"/>
      <use x="124.755859" xlink:href="#DejaVuSans-105"/>
      <use x="152.539062" xlink:href="#DejaVuSans-108"/>
      <use x="180.322266" xlink:href="#DejaVuSans-121"/>
      <use x="239.501953" xlink:href="#DejaVuSans-95"/>
      <use x="289.501953" xlink:href="#DejaVuSans-100"/>
      <use x="352.978516" xlink:href="#DejaVuSans-101"/>
      <use x="414.501953" xlink:href="#DejaVuSans-97"/>
      <use x="475.78125" xlink:href="#DejaVuSans-116"/>
      <use x="514.990234" xlink:href="#DejaVuSans-104"/>
      <use x="578.369141" xlink:href="#DejaVuSans-115"/>
     </g>
    </g>
   </g>
  </g>
  <g id="axes_3">
   <g id="patch_14">
    <path d="M 126 403.450435 
L 907.2 403.450435 
L 907.2 307.65913 
L 126 307.65913 
z
" style="fill:#ffffff;"/>
   </g>
   <g id="matplotlib.axis_5">
    <g id="xtick_13">
     <g id="line2d_26">
      <g>
       <use style="stroke:#000000;stroke-width:0.8;" x="161.509091" xlink:href="#mb9c2b4fff1" y="403.450435"/>
      </g>
     </g>
    </g>
    <g id="xtick_14">
     <g id="line2d_27">
      <g>
       <use style="stroke:#000000;stroke-width:0.8;" x="296.781818" xlink:href="#mb9c2b4fff1" y="403.450435"/>
      </g>
     </g>
    </g>
    <g id="xtick_15">
     <g id="line2d_28">
      <g>
       <use style="stroke:#000000;stroke-width:0.8;" x="432.054545" xlink:href="#mb9c2b4fff1" y="403.450435"/>
      </g>
     </g>
    </g>
    <g id="xtick_16">
     <g id="line2d_29">
      <g>
       <use style="stroke:#000000;stroke-width:0.8;" x="567.327273" xlink:href="#mb9c2b4fff1" y="403.450435"/>
      </g>
     </g>
    </g>
    <g id="xtick_17">
     <g id="line2d_30">
      <g>
       <use style="stroke:#000000;stroke-width:0.8;" x="702.6" xlink:href="#mb9c2b4fff1" y="403.450435"/>
      </g>
     </g>
    </g>
    <g id="xtick_18">
     <g id="line2d_31">
      <g>
       <use style="stroke:#000000;stroke-width:0.8;" x="837.872727" xlink:href="#mb9c2b4fff1" y="403.450435"/>
      </g>
     </g>
    </g>
   </g>
   <g id="matplotlib.axis_6">
    <g id="ytick_8">
     <g id="line2d_32">
      <g>
       <use style="stroke:#000000;stroke-width:0.8;" x="126" xlink:href="#m084c7b15b8" y="399.312909"/>
      </g>
     </g>
     <g id="text_10">
      <!-- 0 -->
      <g transform="translate(112.6375 403.112128)scale(0.1 -0.1)">
       <use xlink:href="#DejaVuSans-48"/>
      </g>
     </g>
    </g>
    <g id="ytick_9">
     <g id="line2d_33">
      <g>
       <use style="stroke:#000000;stroke-width:0.8;" x="126" xlink:href="#m084c7b15b8" y="355.988031"/>
      </g>
     </g>
     <g id="text_11">
      <!-- 200 -->
      <g transform="translate(99.9125 359.78725)scale(0.1 -0.1)">
       <use xlink:href="#DejaVuSans-50"/>
       <use x="63.623047" xlink:href="#DejaVuSans-48"/>
       <use x="127.246094" xlink:href="#DejaVuSans-48"/>
      </g>
     </g>
    </g>
    <g id="ytick_10">
     <g id="line2d_34">
      <g>
       <use style="stroke:#000000;stroke-width:0.8;" x="126" xlink:href="#m084c7b15b8" y="312.663154"/>
      </g>
     </g>
     <g id="text_12">
      <!-- 400 -->
      <g transform="translate(99.9125 316.462373)scale(0.1 -0.1)">
       <use xlink:href="#DejaVuSans-52"/>
       <use x="63.623047" xlink:href="#DejaVuSans-48"/>
       <use x="127.246094" xlink:href="#DejaVuSans-48"/>
      </g>
     </g>
    </g>
   </g>
   <g id="line2d_35">
    <path clip-path="url(#p7ab2614a1a)" d="M 161.509091 399.096285 
L 175.036364 399.096285 
L 176.389091 398.446411 
L 179.094545 398.013163 
L 180.447273 397.363289 
L 181.8 397.146665 
L 183.152727 396.280168 
L 184.505455 393.46405 
L 185.858182 389.348187 
L 187.210909 383.282704 
L 188.563636 378.950217 
L 191.269091 367.469124 
L 192.621818 358.804148 
L 193.974545 347.972929 
L 195.327273 334.758841 
L 196.68 324.577495 
L 198.032727 319.811759 
L 199.385455 314.612773 
L 200.738182 315.695895 
L 202.090909 312.013281 
L 203.443636 315.695895 
L 204.796364 321.328129 
L 206.149091 322.411251 
L 207.501818 321.761378 
L 208.854545 323.710998 
L 210.207273 321.111505 
L 211.56 328.043485 
L 212.912727 329.993105 
L 214.265455 331.7261 
L 215.618182 330.859602 
L 216.970909 331.942724 
L 218.323636 331.942724 
L 219.676364 331.292851 
L 221.029091 336.275212 
L 222.381818 343.640441 
L 223.734545 344.940188 
L 225.087273 349.056051 
L 226.44 353.605163 
L 227.792727 354.038412 
L 229.145455 352.305417 
L 230.498182 355.771407 
L 231.850909 357.721026 
L 233.203636 358.804148 
L 234.556364 366.169378 
L 235.909091 369.202119 
L 237.261818 367.685748 
L 238.614545 369.202119 
L 239.967273 372.884734 
L 242.672727 378.516968 
L 244.025455 382.199582 
L 245.378182 382.416207 
L 246.730909 383.715953 
L 248.083636 383.932577 
L 249.436364 388.48169 
L 250.789091 389.99806 
L 252.141818 391.081182 
L 253.494545 391.731055 
L 254.847273 392.164304 
L 256.2 392.164304 
L 257.552727 391.94768 
L 258.905455 393.897299 
L 260.258182 394.113924 
L 261.610909 394.763797 
L 262.963636 394.980421 
L 264.316364 395.630294 
L 265.669091 395.846919 
L 267.021818 395.630294 
L 268.374545 396.280168 
L 269.727273 396.280168 
L 271.08 397.363289 
L 272.432727 397.146665 
L 273.785455 396.713416 
L 276.490909 397.146665 
L 277.843636 396.713416 
L 279.196364 398.013163 
L 280.549091 398.013163 
L 281.901818 397.579914 
L 284.607273 397.579914 
L 287.312727 397.146665 
L 288.665455 397.579914 
L 290.018182 397.363289 
L 291.370909 398.229787 
L 292.723636 398.013163 
L 294.076364 398.013163 
L 296.781818 397.579914 
L 298.134545 397.579914 
L 299.487273 398.013163 
L 300.84 398.229787 
L 302.192727 398.229787 
L 303.545455 398.013163 
L 307.603636 398.013163 
L 308.956364 398.446411 
L 310.309091 398.663036 
L 311.661818 398.663036 
L 313.014545 398.446411 
L 315.72 398.446411 
L 317.072727 398.013163 
L 318.425455 398.229787 
L 319.778182 398.87966 
L 323.836364 398.87966 
L 325.189091 398.663036 
L 326.541818 398.87966 
L 327.894545 398.87966 
L 329.247273 399.096285 
L 342.774545 399.096285 
L 344.127273 398.663036 
L 345.48 398.87966 
L 346.832727 398.663036 
L 349.538182 399.096285 
L 350.890909 398.87966 
L 352.243636 398.87966 
L 353.596364 399.096285 
L 354.949091 398.87966 
L 356.301818 399.096285 
L 357.654545 398.87966 
L 359.007273 399.096285 
L 361.712727 399.096285 
L 363.065455 398.87966 
L 365.770909 398.87966 
L 367.123636 397.796538 
L 368.476364 397.796538 
L 371.181818 396.496792 
L 373.887273 396.063543 
L 375.24 396.063543 
L 376.592727 395.846919 
L 382.003636 395.846919 
L 383.356364 396.280168 
L 386.061818 395.846919 
L 387.414545 394.547172 
L 388.767273 393.680675 
L 391.472727 394.547172 
L 392.825455 394.330548 
L 394.178182 393.680675 
L 395.530909 393.247426 
L 396.883636 391.514431 
L 398.236364 392.597553 
L 402.294545 393.247426 
L 403.647273 393.030802 
L 405 393.46405 
L 407.705455 392.597553 
L 410.410909 391.297807 
L 411.763636 389.131563 
L 413.116364 389.99806 
L 414.469091 389.564812 
L 415.821818 390.214685 
L 417.174545 388.48169 
L 418.527273 387.615192 
L 419.88 388.698314 
L 421.232727 389.99806 
L 422.585455 387.181943 
L 423.938182 386.748694 
L 425.290909 387.831816 
L 426.643636 385.232324 
L 427.996364 383.499329 
L 429.349091 384.799075 
L 430.701818 384.365826 
L 433.407273 385.232324 
L 434.76 385.015699 
L 436.112727 383.715953 
L 437.465455 382.849455 
L 438.818182 383.06608 
L 440.170909 384.365826 
L 441.523636 386.748694 
L 442.876364 386.098821 
L 444.229091 386.965319 
L 445.581818 386.53207 
L 446.934545 387.181943 
L 448.287273 387.398568 
L 449.64 387.398568 
L 450.992727 388.048441 
L 452.345455 387.831816 
L 453.698182 389.781436 
L 455.050909 389.99806 
L 457.756364 389.99806 
L 459.109091 390.214685 
L 460.461818 391.081182 
L 461.814545 390.864558 
L 463.167273 391.731055 
L 464.52 392.164304 
L 465.872727 391.297807 
L 467.225455 390.214685 
L 468.578182 390.431309 
L 469.930909 391.081182 
L 472.636364 391.94768 
L 473.989091 390.647933 
L 475.341818 388.265065 
L 476.694545 386.748694 
L 478.047273 386.748694 
L 479.4 387.181943 
L 480.752727 386.748694 
L 482.105455 384.799075 
L 483.458182 383.715953 
L 484.810909 382.416207 
L 486.163636 380.899836 
L 487.516364 377.65047 
L 488.869091 375.484226 
L 490.221818 374.834353 
L 491.574545 372.884734 
L 494.28 367.469124 
L 495.632727 365.30288 
L 496.985455 367.035875 
L 498.338182 367.2525 
L 499.690909 367.2525 
L 501.043636 365.086256 
L 502.396364 365.30288 
L 503.749091 360.970392 
L 505.101818 360.537144 
L 506.454545 357.721026 
L 507.807273 356.637905 
L 509.16 356.854529 
L 510.512727 360.753768 
L 511.865455 357.937651 
L 513.218182 356.637905 
L 514.570909 358.3709 
L 515.923636 356.204656 
L 517.276364 357.504402 
L 519.981818 360.537144 
L 521.334545 359.88727 
L 522.687273 359.88727 
L 524.04 364.003134 
L 525.392727 360.753768 
L 526.745455 359.670646 
L 528.098182 363.569885 
L 529.450909 365.086256 
L 530.803636 363.353261 
L 532.156364 362.703387 
L 533.509091 363.353261 
L 534.861818 362.703387 
L 536.214545 360.970392 
L 537.567273 361.403641 
L 538.92 362.703387 
L 540.272727 362.703387 
L 541.625455 362.270139 
L 542.978182 365.952753 
L 544.330909 365.086256 
L 545.683636 365.736129 
L 547.036364 366.819251 
L 548.389091 369.851992 
L 549.741818 369.202119 
L 551.094545 367.2525 
L 552.447273 369.202119 
L 553.8 370.501865 
L 555.152727 371.368363 
L 556.505455 373.101358 
L 557.858182 375.050978 
L 559.210909 375.267602 
L 560.563636 375.050978 
L 561.916364 375.267602 
L 564.621818 382.416207 
L 565.974545 382.416207 
L 567.327273 380.899836 
L 568.68 379.60009 
L 571.385455 380.899836 
L 572.738182 381.11646 
L 574.090909 379.60009 
L 575.443636 379.166841 
L 578.149091 379.166841 
L 579.501818 378.300343 
L 580.854545 379.816714 
L 583.56 377.65047 
L 584.912727 376.350724 
L 586.265455 373.967856 
L 587.618182 370.285241 
L 588.970909 369.418743 
L 591.676364 367.2525 
L 593.029091 364.219758 
L 594.381818 363.136636 
L 595.734545 365.519504 
L 597.087273 360.320519 
L 598.44 358.3709 
L 599.792727 358.587524 
L 601.145455 359.454022 
L 602.498182 359.88727 
L 603.850909 357.504402 
L 605.203636 356.42128 
L 607.909091 355.121534 
L 609.261818 354.255036 
L 610.614545 354.688285 
L 611.967273 355.554783 
L 613.32 352.522041 
L 614.672727 355.121534 
L 616.025455 354.038412 
L 617.378182 353.171914 
L 618.730909 355.988031 
L 620.083636 360.537144 
L 621.436364 361.620265 
L 622.789091 364.003134 
L 624.141818 367.685748 
L 625.494545 367.469124 
L 626.847273 365.519504 
L 628.2 366.169378 
L 629.552727 367.2525 
L 630.905455 367.902373 
L 632.258182 368.76887 
L 633.610909 370.501865 
L 634.963636 368.552246 
L 636.316364 367.902373 
L 637.669091 368.552246 
L 639.021818 371.368363 
L 640.374545 372.451485 
L 641.727273 371.801612 
L 643.08 373.534607 
L 644.432727 372.23486 
L 645.785455 370.71849 
L 647.138182 370.285241 
L 648.490909 371.368363 
L 649.843636 372.018236 
L 651.196364 373.751231 
L 652.549091 376.350724 
L 653.901818 375.267602 
L 655.254545 374.834353 
L 656.607273 378.516968 
L 657.96 378.733592 
L 659.312727 380.899836 
L 660.665455 382.199582 
L 663.370909 383.932577 
L 667.429091 382.632831 
L 668.781818 382.849455 
L 670.134545 383.282704 
L 671.487273 385.448948 
L 672.84 383.932577 
L 674.192727 382.632831 
L 675.545455 384.799075 
L 676.898182 386.098821 
L 678.250909 385.232324 
L 679.603636 385.015699 
L 680.956364 385.882197 
L 682.309091 384.799075 
L 683.661818 384.365826 
L 685.014545 385.448948 
L 686.367273 386.748694 
L 687.72 386.53207 
L 689.072727 386.965319 
L 690.425455 386.53207 
L 691.778182 384.799075 
L 694.483636 382.199582 
L 695.836364 382.199582 
L 697.189091 383.499329 
L 698.541818 382.849455 
L 699.894545 381.549709 
L 701.247273 381.11646 
L 702.6 381.333085 
L 705.305455 384.799075 
L 709.363636 383.499329 
L 710.716364 381.982958 
L 712.069091 380.683212 
L 713.421818 380.683212 
L 714.774545 381.333085 
L 716.127273 380.466587 
L 717.48 379.816714 
L 718.832727 380.899836 
L 720.185455 380.466587 
L 721.538182 379.60009 
L 722.890909 378.950217 
L 724.243636 379.383465 
L 725.596364 380.033338 
L 726.949091 378.516968 
L 728.301818 379.383465 
L 729.654545 377.433846 
L 731.007273 376.134099 
L 732.36 375.267602 
L 733.712727 375.700851 
L 735.065455 377.65047 
L 736.418182 377.433846 
L 737.770909 378.950217 
L 739.123636 376.134099 
L 740.476364 373.967856 
L 741.829091 373.317982 
L 743.181818 374.617729 
L 744.534545 376.134099 
L 745.887273 376.350724 
L 747.24 376.350724 
L 748.592727 374.617729 
L 749.945455 374.617729 
L 751.298182 377.000597 
L 752.650909 377.65047 
L 754.003636 378.083719 
L 755.356364 378.733592 
L 756.709091 380.683212 
L 758.061818 381.11646 
L 759.414545 380.683212 
L 760.767273 383.282704 
L 762.12 383.282704 
L 763.472727 383.715953 
L 764.825455 385.232324 
L 766.178182 390.214685 
L 767.530909 389.348187 
L 768.883636 389.131563 
L 770.236364 389.564812 
L 771.589091 390.864558 
L 772.941818 391.514431 
L 774.294545 393.030802 
L 775.647273 393.030802 
L 778.352727 392.597553 
L 781.058182 392.597553 
L 782.410909 393.030802 
L 783.763636 393.247426 
L 787.821818 391.94768 
L 789.174545 391.081182 
L 790.527273 392.597553 
L 791.88 394.330548 
L 793.232727 394.113924 
L 794.585455 395.197046 
L 795.938182 394.547172 
L 797.290909 393.46405 
L 798.643636 393.247426 
L 799.996364 392.814177 
L 801.349091 393.46405 
L 802.701818 393.46405 
L 804.054545 394.763797 
L 806.76 393.897299 
L 808.112727 394.330548 
L 809.465455 394.980421 
L 810.818182 395.197046 
L 812.170909 394.980421 
L 813.523636 395.630294 
L 814.876364 395.41367 
L 816.229091 394.547172 
L 817.581818 395.197046 
L 818.934545 395.197046 
L 820.287273 394.980421 
L 821.64 394.547172 
L 822.992727 395.197046 
L 824.345455 394.113924 
L 825.698182 392.380929 
L 827.050909 391.731055 
L 829.756364 389.131563 
L 831.109091 388.048441 
L 832.461818 389.564812 
L 835.167273 387.398568 
L 836.52 387.831816 
L 837.872727 387.831816 
L 839.225455 386.748694 
L 840.578182 385.232324 
L 841.930909 386.53207 
L 843.283636 384.365826 
L 844.636364 382.632831 
L 845.989091 381.766334 
L 847.341818 382.199582 
L 848.694545 380.249963 
L 850.047273 379.383465 
L 851.4 379.60009 
L 852.752727 377.65047 
L 854.105455 375.050978 
L 855.458182 373.967856 
L 856.810909 375.267602 
L 858.163636 375.050978 
L 859.516364 375.917475 
L 860.869091 378.083719 
L 862.221818 377.65047 
L 863.574545 376.134099 
L 864.927273 378.733592 
L 866.28 378.516968 
L 867.632727 378.950217 
L 868.985455 378.300343 
L 870.338182 377.433846 
L 871.690909 377.217221 
L 871.690909 377.217221 
" style="fill:none;stroke:#2ca02c;stroke-linecap:square;stroke-width:1.5;"/>
   </g>
   <g id="patch_15">
    <path d="M 126 403.450435 
L 126 307.65913 
" style="fill:none;stroke:#000000;stroke-linecap:square;stroke-linejoin:miter;stroke-width:0.8;"/>
   </g>
   <g id="patch_16">
    <path d="M 907.2 403.450435 
L 907.2 307.65913 
" style="fill:none;stroke:#000000;stroke-linecap:square;stroke-linejoin:miter;stroke-width:0.8;"/>
   </g>
   <g id="patch_17">
    <path d="M 126 403.450435 
L 907.2 403.450435 
" style="fill:none;stroke:#000000;stroke-linecap:square;stroke-linejoin:miter;stroke-width:0.8;"/>
   </g>
   <g id="patch_18">
    <path d="M 126 307.65913 
L 907.2 307.65913 
" style="fill:none;stroke:#000000;stroke-linecap:square;stroke-linejoin:miter;stroke-width:0.8;"/>
   </g>
   <g id="legend_3">
    <g id="patch_19">
     <path d="M 806.465625 330.61538 
L 900.2 330.61538 
Q 902.2 330.61538 902.2 328.61538 
L 902.2 314.65913 
Q 902.2 312.65913 900.2 312.65913 
L 806.465625 312.65913 
Q 804.465625 312.65913 804.465625 314.65913 
L 804.465625 328.61538 
Q 804.465625 330.61538 806.465625 330.61538 
z
" style="fill:#ffffff;opacity:0.8;stroke:#cccccc;stroke-linejoin:miter;"/>
    </g>
    <g id="line2d_36">
     <path d="M 808.465625 320.757568 
L 828.465625 320.757568 
" style="fill:none;stroke:#2ca02c;stroke-linecap:square;stroke-width:1.5;"/>
    </g>
    <g id="line2d_37"/>
    <g id="text_13">
     <!-- hospital_occ -->
     <g transform="translate(836.465625 324.257568)scale(0.1 -0.1)">
      <defs>
       <path d="M 30.609375 48.390625 
Q 23.390625 48.390625 19.1875 42.75 
Q 14.984375 37.109375 14.984375 27.296875 
Q 14.984375 17.484375 19.15625 11.84375 
Q 23.34375 6.203125 30.609375 6.203125 
Q 37.796875 6.203125 41.984375 11.859375 
Q 46.1875 17.53125 46.1875 27.296875 
Q 46.1875 37.015625 41.984375 42.703125 
Q 37.796875 48.390625 30.609375 48.390625 
z
M 30.609375 56 
Q 42.328125 56 49.015625 48.375 
Q 55.71875 40.765625 55.71875 27.296875 
Q 55.71875 13.875 49.015625 6.21875 
Q 42.328125 -1.421875 30.609375 -1.421875 
Q 18.84375 -1.421875 12.171875 6.21875 
Q 5.515625 13.875 5.515625 27.296875 
Q 5.515625 40.765625 12.171875 48.375 
Q 18.84375 56 30.609375 56 
z
" id="DejaVuSans-111"/>
       <path d="M 18.109375 8.203125 
L 18.109375 -20.796875 
L 9.078125 -20.796875 
L 9.078125 54.6875 
L 18.109375 54.6875 
L 18.109375 46.390625 
Q 20.953125 51.265625 25.265625 53.625 
Q 29.59375 56 35.59375 56 
Q 45.5625 56 51.78125 48.09375 
Q 58.015625 40.1875 58.015625 27.296875 
Q 58.015625 14.40625 51.78125 6.484375 
Q 45.5625 -1.421875 35.59375 -1.421875 
Q 29.59375 -1.421875 25.265625 0.953125 
Q 20.953125 3.328125 18.109375 8.203125 
z
M 48.6875 27.296875 
Q 48.6875 37.203125 44.609375 42.84375 
Q 40.53125 48.484375 33.40625 48.484375 
Q 26.265625 48.484375 22.1875 42.84375 
Q 18.109375 37.203125 18.109375 27.296875 
Q 18.109375 17.390625 22.1875 11.75 
Q 26.265625 6.109375 33.40625 6.109375 
Q 40.53125 6.109375 44.609375 11.75 
Q 48.6875 17.390625 48.6875 27.296875 
z
" id="DejaVuSans-112"/>
      </defs>
      <use xlink:href="#DejaVuSans-104"/>
      <use x="63.378906" xlink:href="#DejaVuSans-111"/>
      <use x="124.560547" xlink:href="#DejaVuSans-115"/>
      <use x="176.660156" xlink:href="#DejaVuSans-112"/>
      <use x="240.136719" xlink:href="#DejaVuSans-105"/>
      <use x="267.919922" xlink:href="#DejaVuSans-116"/>
      <use x="307.128906" xlink:href="#DejaVuSans-97"/>
      <use x="368.408203" xlink:href="#DejaVuSans-108"/>
      <use x="396.191406" xlink:href="#DejaVuSans-95"/>
      <use x="446.191406" xlink:href="#DejaVuSans-111"/>
      <use x="507.373047" xlink:href="#DejaVuSans-99"/>
      <use x="562.353516" xlink:href="#DejaVuSans-99"/>
     </g>
    </g>
   </g>
  </g>
  <g id="axes_4">
   <g id="patch_20">
    <path d="M 126 518.4 
L 907.2 518.4 
L 907.2 422.608696 
L 126 422.608696 
z
" style="fill:#ffffff;"/>
   </g>
   <g id="matplotlib.axis_7">
    <g id="xtick_19">
     <g id="line2d_38">
      <g>
       <use style="stroke:#000000;stroke-width:0.8;" x="161.509091" xlink:href="#mb9c2b4fff1" y="518.4"/>
      </g>
     </g>
     <g id="text_14">
      <!-- 2020/02/29 -->
      <g transform="translate(110.553708 560.79919)rotate(-30)scale(0.1 -0.1)">
       <defs>
        <path d="M 25.390625 72.90625 
L 33.6875 72.90625 
L 8.296875 -9.28125 
L 0 -9.28125 
z
" id="DejaVuSans-47"/>
        <path d="M 10.984375 1.515625 
L 10.984375 10.5 
Q 14.703125 8.734375 18.5 7.8125 
Q 22.3125 6.890625 25.984375 6.890625 
Q 35.75 6.890625 40.890625 13.453125 
Q 46.046875 20.015625 46.78125 33.40625 
Q 43.953125 29.203125 39.59375 26.953125 
Q 35.25 24.703125 29.984375 24.703125 
Q 19.046875 24.703125 12.671875 31.3125 
Q 6.296875 37.9375 6.296875 49.421875 
Q 6.296875 60.640625 12.9375 67.421875 
Q 19.578125 74.21875 30.609375 74.21875 
Q 43.265625 74.21875 49.921875 64.515625 
Q 56.59375 54.828125 56.59375 36.375 
Q 56.59375 19.140625 48.40625 8.859375 
Q 40.234375 -1.421875 26.421875 -1.421875 
Q 22.703125 -1.421875 18.890625 -0.6875 
Q 15.09375 0.046875 10.984375 1.515625 
z
M 30.609375 32.421875 
Q 37.25 32.421875 41.125 36.953125 
Q 45.015625 41.5 45.015625 49.421875 
Q 45.015625 57.28125 41.125 61.84375 
Q 37.25 66.40625 30.609375 66.40625 
Q 23.96875 66.40625 20.09375 61.84375 
Q 16.21875 57.28125 16.21875 49.421875 
Q 16.21875 41.5 20.09375 36.953125 
Q 23.96875 32.421875 30.609375 32.421875 
z
" id="DejaVuSans-57"/>
       </defs>
       <use xlink:href="#DejaVuSans-50"/>
       <use x="63.623047" xlink:href="#DejaVuSans-48"/>
       <use x="127.246094" xlink:href="#DejaVuSans-50"/>
       <use x="190.869141" xlink:href="#DejaVuSans-48"/>
       <use x="254.492188" xlink:href="#DejaVuSans-47"/>
       <use x="288.183594" xlink:href="#DejaVuSans-48"/>
       <use x="351.806641" xlink:href="#DejaVuSans-50"/>
       <use x="415.429688" xlink:href="#DejaVuSans-47"/>
       <use x="449.121094" xlink:href="#DejaVuSans-50"/>
       <use x="512.744141" xlink:href="#DejaVuSans-57"/>
      </g>
     </g>
    </g>
    <g id="xtick_20">
     <g id="line2d_39">
      <g>
       <use style="stroke:#000000;stroke-width:0.8;" x="296.781818" xlink:href="#mb9c2b4fff1" y="518.4"/>
      </g>
     </g>
     <g id="text_15">
      <!-- 2020/06/08 -->
      <g transform="translate(245.826435 560.79919)rotate(-30)scale(0.1 -0.1)">
       <defs>
        <path d="M 33.015625 40.375 
Q 26.375 40.375 22.484375 35.828125 
Q 18.609375 31.296875 18.609375 23.390625 
Q 18.609375 15.53125 22.484375 10.953125 
Q 26.375 6.390625 33.015625 6.390625 
Q 39.65625 6.390625 43.53125 10.953125 
Q 47.40625 15.53125 47.40625 23.390625 
Q 47.40625 31.296875 43.53125 35.828125 
Q 39.65625 40.375 33.015625 40.375 
z
M 52.59375 71.296875 
L 52.59375 62.3125 
Q 48.875 64.0625 45.09375 64.984375 
Q 41.3125 65.921875 37.59375 65.921875 
Q 27.828125 65.921875 22.671875 59.328125 
Q 17.53125 52.734375 16.796875 39.40625 
Q 19.671875 43.65625 24.015625 45.921875 
Q 28.375 48.1875 33.59375 48.1875 
Q 44.578125 48.1875 50.953125 41.515625 
Q 57.328125 34.859375 57.328125 23.390625 
Q 57.328125 12.15625 50.6875 5.359375 
Q 44.046875 -1.421875 33.015625 -1.421875 
Q 20.359375 -1.421875 13.671875 8.265625 
Q 6.984375 17.96875 6.984375 36.375 
Q 6.984375 53.65625 15.1875 63.9375 
Q 23.390625 74.21875 37.203125 74.21875 
Q 40.921875 74.21875 44.703125 73.484375 
Q 48.484375 72.75 52.59375 71.296875 
z
" id="DejaVuSans-54"/>
        <path d="M 31.78125 34.625 
Q 24.75 34.625 20.71875 30.859375 
Q 16.703125 27.09375 16.703125 20.515625 
Q 16.703125 13.921875 20.71875 10.15625 
Q 24.75 6.390625 31.78125 6.390625 
Q 38.8125 6.390625 42.859375 10.171875 
Q 46.921875 13.96875 46.921875 20.515625 
Q 46.921875 27.09375 42.890625 30.859375 
Q 38.875 34.625 31.78125 34.625 
z
M 21.921875 38.8125 
Q 15.578125 40.375 12.03125 44.71875 
Q 8.5 49.078125 8.5 55.328125 
Q 8.5 64.0625 14.71875 69.140625 
Q 20.953125 74.21875 31.78125 74.21875 
Q 42.671875 74.21875 48.875 69.140625 
Q 55.078125 64.0625 55.078125 55.328125 
Q 55.078125 49.078125 51.53125 44.71875 
Q 48 40.375 41.703125 38.8125 
Q 48.828125 37.15625 52.796875 32.3125 
Q 56.78125 27.484375 56.78125 20.515625 
Q 56.78125 9.90625 50.3125 4.234375 
Q 43.84375 -1.421875 31.78125 -1.421875 
Q 19.734375 -1.421875 13.25 4.234375 
Q 6.78125 9.90625 6.78125 20.515625 
Q 6.78125 27.484375 10.78125 32.3125 
Q 14.796875 37.15625 21.921875 38.8125 
z
M 18.3125 54.390625 
Q 18.3125 48.734375 21.84375 45.5625 
Q 25.390625 42.390625 31.78125 42.390625 
Q 38.140625 42.390625 41.71875 45.5625 
Q 45.3125 48.734375 45.3125 54.390625 
Q 45.3125 60.0625 41.71875 63.234375 
Q 38.140625 66.40625 31.78125 66.40625 
Q 25.390625 66.40625 21.84375 63.234375 
Q 18.3125 60.0625 18.3125 54.390625 
z
" id="DejaVuSans-56"/>
       </defs>
       <use xlink:href="#DejaVuSans-50"/>
       <use x="63.623047" xlink:href="#DejaVuSans-48"/>
       <use x="127.246094" xlink:href="#DejaVuSans-50"/>
       <use x="190.869141" xlink:href="#DejaVuSans-48"/>
       <use x="254.492188" xlink:href="#DejaVuSans-47"/>
       <use x="288.183594" xlink:href="#DejaVuSans-48"/>
       <use x="351.806641" xlink:href="#DejaVuSans-54"/>
       <use x="415.429688" xlink:href="#DejaVuSans-47"/>
       <use x="449.121094" xlink:href="#DejaVuSans-48"/>
       <use x="512.744141" xlink:href="#DejaVuSans-56"/>
      </g>
     </g>
    </g>
    <g id="xtick_21">
     <g id="line2d_40">
      <g>
       <use style="stroke:#000000;stroke-width:0.8;" x="432.054545" xlink:href="#mb9c2b4fff1" y="518.4"/>
      </g>
     </g>
     <g id="text_16">
      <!-- 2020/09/16 -->
      <g transform="translate(381.099162 560.79919)rotate(-30)scale(0.1 -0.1)">
       <use xlink:href="#DejaVuSans-50"/>
       <use x="63.623047" xlink:href="#DejaVuSans-48"/>
       <use x="127.246094" xlink:href="#DejaVuSans-50"/>
       <use x="190.869141" xlink:href="#DejaVuSans-48"/>
       <use x="254.492188" xlink:href="#DejaVuSans-47"/>
       <use x="288.183594" xlink:href="#DejaVuSans-48"/>
       <use x="351.806641" xlink:href="#DejaVuSans-57"/>
       <use x="415.429688" xlink:href="#DejaVuSans-47"/>
       <use x="449.121094" xlink:href="#DejaVuSans-49"/>
       <use x="512.744141" xlink:href="#DejaVuSans-54"/>
      </g>
     </g>
    </g>
    <g id="xtick_22">
     <g id="line2d_41">
      <g>
       <use style="stroke:#000000;stroke-width:0.8;" x="567.327273" xlink:href="#mb9c2b4fff1" y="518.4"/>
      </g>
     </g>
     <g id="text_17">
      <!-- 2020/12/25 -->
      <g transform="translate(516.37189 560.79919)rotate(-30)scale(0.1 -0.1)">
       <use xlink:href="#DejaVuSans-50"/>
       <use x="63.623047" xlink:href="#DejaVuSans-48"/>
       <use x="127.246094" xlink:href="#DejaVuSans-50"/>
       <use x="190.869141" xlink:href="#DejaVuSans-48"/>
       <use x="254.492188" xlink:href="#DejaVuSans-47"/>
       <use x="288.183594" xlink:href="#DejaVuSans-49"/>
       <use x="351.806641" xlink:href="#DejaVuSans-50"/>
       <use x="415.429688" xlink:href="#DejaVuSans-47"/>
       <use x="449.121094" xlink:href="#DejaVuSans-50"/>
       <use x="512.744141" xlink:href="#DejaVuSans-53"/>
      </g>
     </g>
    </g>
    <g id="xtick_23">
     <g id="line2d_42">
      <g>
       <use style="stroke:#000000;stroke-width:0.8;" x="702.6" xlink:href="#mb9c2b4fff1" y="518.4"/>
      </g>
     </g>
     <g id="text_18">
      <!-- 2021/04/04 -->
      <g transform="translate(651.644617 560.79919)rotate(-30)scale(0.1 -0.1)">
       <use xlink:href="#DejaVuSans-50"/>
       <use x="63.623047" xlink:href="#DejaVuSans-48"/>
       <use x="127.246094" xlink:href="#DejaVuSans-50"/>
       <use x="190.869141" xlink:href="#DejaVuSans-49"/>
       <use x="254.492188" xlink:href="#DejaVuSans-47"/>
       <use x="288.183594" xlink:href="#DejaVuSans-48"/>
       <use x="351.806641" xlink:href="#DejaVuSans-52"/>
       <use x="415.429688" xlink:href="#DejaVuSans-47"/>
       <use x="449.121094" xlink:href="#DejaVuSans-48"/>
       <use x="512.744141" xlink:href="#DejaVuSans-52"/>
      </g>
     </g>
    </g>
    <g id="xtick_24">
     <g id="line2d_43">
      <g>
       <use style="stroke:#000000;stroke-width:0.8;" x="837.872727" xlink:href="#mb9c2b4fff1" y="518.4"/>
      </g>
     </g>
     <g id="text_19">
      <!-- 2021/07/13 -->
      <g transform="translate(786.917344 560.79919)rotate(-30)scale(0.1 -0.1)">
       <defs>
        <path d="M 8.203125 72.90625 
L 55.078125 72.90625 
L 55.078125 68.703125 
L 28.609375 0 
L 18.3125 0 
L 43.21875 64.59375 
L 8.203125 64.59375 
z
" id="DejaVuSans-55"/>
        <path d="M 40.578125 39.3125 
Q 47.65625 37.796875 51.625 33 
Q 55.609375 28.21875 55.609375 21.1875 
Q 55.609375 10.40625 48.1875 4.484375 
Q 40.765625 -1.421875 27.09375 -1.421875 
Q 22.515625 -1.421875 17.65625 -0.515625 
Q 12.796875 0.390625 7.625 2.203125 
L 7.625 11.71875 
Q 11.71875 9.328125 16.59375 8.109375 
Q 21.484375 6.890625 26.8125 6.890625 
Q 36.078125 6.890625 40.9375 10.546875 
Q 45.796875 14.203125 45.796875 21.1875 
Q 45.796875 27.640625 41.28125 31.265625 
Q 36.765625 34.90625 28.71875 34.90625 
L 20.21875 34.90625 
L 20.21875 43.015625 
L 29.109375 43.015625 
Q 36.375 43.015625 40.234375 45.921875 
Q 44.09375 48.828125 44.09375 54.296875 
Q 44.09375 59.90625 40.109375 62.90625 
Q 36.140625 65.921875 28.71875 65.921875 
Q 24.65625 65.921875 20.015625 65.03125 
Q 15.375 64.15625 9.8125 62.3125 
L 9.8125 71.09375 
Q 15.4375 72.65625 20.34375 73.4375 
Q 25.25 74.21875 29.59375 74.21875 
Q 40.828125 74.21875 47.359375 69.109375 
Q 53.90625 64.015625 53.90625 55.328125 
Q 53.90625 49.265625 50.4375 45.09375 
Q 46.96875 40.921875 40.578125 39.3125 
z
" id="DejaVuSans-51"/>
       </defs>
       <use xlink:href="#DejaVuSans-50"/>
       <use x="63.623047" xlink:href="#DejaVuSans-48"/>
       <use x="127.246094" xlink:href="#DejaVuSans-50"/>
       <use x="190.869141" xlink:href="#DejaVuSans-49"/>
       <use x="254.492188" xlink:href="#DejaVuSans-47"/>
       <use x="288.183594" xlink:href="#DejaVuSans-48"/>
       <use x="351.806641" xlink:href="#DejaVuSans-55"/>
       <use x="415.429688" xlink:href="#DejaVuSans-47"/>
       <use x="449.121094" xlink:href="#DejaVuSans-49"/>
       <use x="512.744141" xlink:href="#DejaVuSans-51"/>
      </g>
     </g>
    </g>
    <g id="text_20">
     <!-- date -->
     <g transform="translate(505.325 574.19869)scale(0.1 -0.1)">
      <use xlink:href="#DejaVuSans-100"/>
      <use x="63.476562" xlink:href="#DejaVuSans-97"/>
      <use x="124.755859" xlink:href="#DejaVuSans-116"/>
      <use x="163.964844" xlink:href="#DejaVuSans-101"/>
     </g>
    </g>
   </g>
   <g id="matplotlib.axis_8">
    <g id="ytick_11">
     <g id="line2d_44">
      <g>
       <use style="stroke:#000000;stroke-width:0.8;" x="126" xlink:href="#m084c7b15b8" y="514.04585"/>
      </g>
     </g>
     <g id="text_21">
      <!-- 0 -->
      <g transform="translate(112.6375 517.845069)scale(0.1 -0.1)">
       <use xlink:href="#DejaVuSans-48"/>
      </g>
     </g>
    </g>
    <g id="ytick_12">
     <g id="line2d_45">
      <g>
       <use style="stroke:#000000;stroke-width:0.8;" x="126" xlink:href="#m084c7b15b8" y="476.989252"/>
      </g>
     </g>
     <g id="text_22">
      <!-- 20 -->
      <g transform="translate(106.275 480.788471)scale(0.1 -0.1)">
       <use xlink:href="#DejaVuSans-50"/>
       <use x="63.623047" xlink:href="#DejaVuSans-48"/>
      </g>
     </g>
    </g>
    <g id="ytick_13">
     <g id="line2d_46">
      <g>
       <use style="stroke:#000000;stroke-width:0.8;" x="126" xlink:href="#m084c7b15b8" y="439.932655"/>
      </g>
     </g>
     <g id="text_23">
      <!-- 40 -->
      <g transform="translate(106.275 443.731874)scale(0.1 -0.1)">
       <use xlink:href="#DejaVuSans-52"/>
       <use x="63.623047" xlink:href="#DejaVuSans-48"/>
      </g>
     </g>
    </g>
   </g>
   <g id="line2d_47">
    <path clip-path="url(#pfd9d96cdef)" d="M 161.509091 514.04585 
L 175.036364 514.04585 
L 176.389091 512.19302 
L 179.094545 512.19302 
L 180.447273 508.48736 
L 183.152727 508.48736 
L 185.858182 504.7817 
L 187.210909 501.076041 
L 188.563636 501.076041 
L 191.269091 486.253402 
L 192.621818 476.989252 
L 195.327273 469.577933 
L 196.68 460.313784 
L 198.032727 447.343974 
L 199.385455 443.638315 
L 200.738182 438.079825 
L 202.090909 430.668506 
L 203.443636 426.962846 
L 207.501818 426.962846 
L 208.854545 434.374165 
L 210.207273 434.374165 
L 211.56 439.932655 
L 212.912727 438.079825 
L 214.265455 443.638315 
L 215.618182 441.785485 
L 216.970909 447.343974 
L 218.323636 449.196804 
L 219.676364 452.902464 
L 221.029091 458.460954 
L 222.381818 460.313784 
L 223.734545 465.872273 
L 225.087273 473.283593 
L 226.44 476.989252 
L 227.792727 476.989252 
L 229.145455 482.547742 
L 230.498182 480.694912 
L 231.850909 480.694912 
L 233.203636 482.547742 
L 234.556364 493.664721 
L 235.909091 497.370381 
L 238.614545 497.370381 
L 239.967273 499.223211 
L 241.32 497.370381 
L 242.672727 502.928871 
L 245.378182 502.928871 
L 246.730909 504.7817 
L 248.083636 504.7817 
L 249.436364 508.48736 
L 253.494545 508.48736 
L 254.847273 506.63453 
L 260.258182 506.63453 
L 261.610909 510.34019 
L 262.963636 512.19302 
L 267.021818 512.19302 
L 268.374545 510.34019 
L 269.727273 510.34019 
L 271.08 512.19302 
L 294.076364 512.19302 
L 295.429091 510.34019 
L 299.487273 510.34019 
L 302.192727 514.04585 
L 353.596364 514.04585 
L 354.949091 512.19302 
L 367.123636 512.19302 
L 368.476364 514.04585 
L 369.829091 512.19302 
L 371.181818 514.04585 
L 372.534545 512.19302 
L 375.24 512.19302 
L 376.592727 514.04585 
L 388.767273 514.04585 
L 390.12 512.19302 
L 391.472727 512.19302 
L 392.825455 510.34019 
L 394.178182 510.34019 
L 395.530909 508.48736 
L 398.236364 508.48736 
L 402.294545 514.04585 
L 405 510.34019 
L 406.352727 512.19302 
L 409.058182 512.19302 
L 410.410909 506.63453 
L 411.763636 504.7817 
L 413.116364 506.63453 
L 414.469091 506.63453 
L 417.174545 499.223211 
L 418.527273 499.223211 
L 419.88 497.370381 
L 422.585455 497.370381 
L 425.290909 504.7817 
L 426.643636 501.076041 
L 427.996364 499.223211 
L 429.349091 499.223211 
L 430.701818 501.076041 
L 432.054545 495.517551 
L 433.407273 495.517551 
L 434.76 493.664721 
L 436.112727 495.517551 
L 437.465455 495.517551 
L 438.818182 497.370381 
L 440.170909 497.370381 
L 441.523636 499.223211 
L 442.876364 502.928871 
L 445.581818 499.223211 
L 446.934545 499.223211 
L 448.287273 497.370381 
L 449.64 493.664721 
L 452.345455 497.370381 
L 453.698182 493.664721 
L 456.403636 493.664721 
L 457.756364 502.928871 
L 459.109091 499.223211 
L 461.814545 502.928871 
L 464.52 502.928871 
L 467.225455 495.517551 
L 468.578182 497.370381 
L 469.930909 495.517551 
L 472.636364 499.223211 
L 473.989091 499.223211 
L 476.694545 495.517551 
L 478.047273 491.811891 
L 479.4 493.664721 
L 482.105455 493.664721 
L 486.163636 488.106232 
L 487.516364 484.400572 
L 488.869091 491.811891 
L 491.574545 491.811891 
L 492.927273 486.253402 
L 495.632727 482.547742 
L 496.985455 482.547742 
L 501.043636 471.430763 
L 502.396364 469.577933 
L 505.101818 451.049634 
L 506.454545 449.196804 
L 507.807273 451.049634 
L 509.16 449.196804 
L 510.512727 451.049634 
L 511.865455 451.049634 
L 514.570909 458.460954 
L 515.923636 449.196804 
L 517.276364 452.902464 
L 518.629091 447.343974 
L 519.981818 443.638315 
L 521.334545 447.343974 
L 522.687273 443.638315 
L 524.04 458.460954 
L 525.392727 452.902464 
L 526.745455 454.755294 
L 528.098182 462.166613 
L 529.450909 462.166613 
L 530.803636 454.755294 
L 532.156364 458.460954 
L 533.509091 460.313784 
L 536.214545 452.902464 
L 537.567273 452.902464 
L 538.92 460.313784 
L 540.272727 462.166613 
L 542.978182 462.166613 
L 544.330909 465.872273 
L 547.036364 462.166613 
L 548.389091 467.725103 
L 549.741818 467.725103 
L 551.094545 465.872273 
L 552.447273 465.872273 
L 553.8 475.136423 
L 560.563636 475.136423 
L 561.916364 469.577933 
L 563.269091 473.283593 
L 565.974545 473.283593 
L 567.327273 471.430763 
L 568.68 471.430763 
L 570.032727 467.725103 
L 571.385455 475.136423 
L 572.738182 475.136423 
L 574.090909 476.989252 
L 575.443636 473.283593 
L 576.796364 475.136423 
L 578.149091 473.283593 
L 579.501818 473.283593 
L 580.854545 467.725103 
L 582.207273 469.577933 
L 583.56 465.872273 
L 584.912727 471.430763 
L 586.265455 475.136423 
L 587.618182 471.430763 
L 588.970909 469.577933 
L 590.323636 464.019443 
L 591.676364 464.019443 
L 593.029091 469.577933 
L 594.381818 469.577933 
L 595.734545 467.725103 
L 597.087273 460.313784 
L 598.44 456.608124 
L 599.792727 460.313784 
L 601.145455 467.725103 
L 602.498182 469.577933 
L 603.850909 464.019443 
L 605.203636 464.019443 
L 606.556364 452.902464 
L 607.909091 452.902464 
L 609.261818 449.196804 
L 610.614545 452.902464 
L 611.967273 451.049634 
L 613.32 443.638315 
L 614.672727 449.196804 
L 616.025455 445.491145 
L 617.378182 443.638315 
L 618.730909 451.049634 
L 620.083636 451.049634 
L 621.436364 452.902464 
L 622.789091 456.608124 
L 624.141818 456.608124 
L 625.494545 462.166613 
L 626.847273 454.755294 
L 628.2 456.608124 
L 629.552727 454.755294 
L 630.905455 465.872273 
L 632.258182 471.430763 
L 633.610909 469.577933 
L 634.963636 469.577933 
L 636.316364 464.019443 
L 637.669091 460.313784 
L 639.021818 471.430763 
L 641.727273 471.430763 
L 643.08 465.872273 
L 645.785455 462.166613 
L 648.490909 465.872273 
L 651.196364 462.166613 
L 652.549091 458.460954 
L 653.901818 464.019443 
L 655.254545 467.725103 
L 656.607273 469.577933 
L 657.96 473.283593 
L 659.312727 469.577933 
L 662.018182 465.872273 
L 663.370909 465.872273 
L 664.723636 469.577933 
L 666.076364 471.430763 
L 667.429091 478.842082 
L 668.781818 478.842082 
L 670.134545 486.253402 
L 674.192727 491.811891 
L 675.545455 491.811891 
L 678.250909 484.400572 
L 679.603636 491.811891 
L 680.956364 488.106232 
L 682.309091 486.253402 
L 685.014545 486.253402 
L 686.367273 482.547742 
L 687.72 486.253402 
L 689.072727 486.253402 
L 690.425455 484.400572 
L 691.778182 478.842082 
L 693.130909 471.430763 
L 695.836364 475.136423 
L 697.189091 484.400572 
L 698.541818 484.400572 
L 699.894545 476.989252 
L 701.247273 480.694912 
L 702.6 478.842082 
L 703.952727 475.136423 
L 705.305455 482.547742 
L 706.658182 480.694912 
L 709.363636 488.106232 
L 710.716364 486.253402 
L 713.421818 478.842082 
L 714.774545 473.283593 
L 716.127273 476.989252 
L 717.48 475.136423 
L 718.832727 475.136423 
L 720.185455 469.577933 
L 721.538182 469.577933 
L 722.890909 473.283593 
L 724.243636 475.136423 
L 725.596364 480.694912 
L 726.949091 478.842082 
L 728.301818 478.842082 
L 731.007273 471.430763 
L 732.36 475.136423 
L 733.712727 471.430763 
L 736.418182 471.430763 
L 737.770909 473.283593 
L 739.123636 473.283593 
L 740.476364 469.577933 
L 741.829091 462.166613 
L 743.181818 464.019443 
L 744.534545 462.166613 
L 745.887273 465.872273 
L 747.24 465.872273 
L 748.592727 458.460954 
L 749.945455 458.460954 
L 754.003636 475.136423 
L 755.356364 476.989252 
L 756.709091 475.136423 
L 758.061818 471.430763 
L 759.414545 475.136423 
L 760.767273 475.136423 
L 763.472727 482.547742 
L 764.825455 482.547742 
L 766.178182 486.253402 
L 767.530909 486.253402 
L 768.883636 484.400572 
L 771.589091 484.400572 
L 772.941818 491.811891 
L 775.647273 495.517551 
L 777 499.223211 
L 779.705455 502.928871 
L 782.410909 502.928871 
L 783.763636 499.223211 
L 785.116364 501.076041 
L 787.821818 497.370381 
L 790.527273 497.370381 
L 791.88 501.076041 
L 793.232727 502.928871 
L 798.643636 502.928871 
L 801.349091 506.63453 
L 802.701818 506.63453 
L 804.054545 508.48736 
L 806.76 508.48736 
L 808.112727 512.19302 
L 810.818182 512.19302 
L 812.170909 514.04585 
L 818.934545 514.04585 
L 820.287273 512.19302 
L 822.992727 512.19302 
L 824.345455 508.48736 
L 825.698182 506.63453 
L 827.050909 506.63453 
L 828.403636 508.48736 
L 829.756364 504.7817 
L 831.109091 502.928871 
L 832.461818 499.223211 
L 833.814545 497.370381 
L 835.167273 499.223211 
L 836.52 504.7817 
L 839.225455 504.7817 
L 840.578182 502.928871 
L 841.930909 499.223211 
L 843.283636 493.664721 
L 844.636364 489.959061 
L 845.989091 493.664721 
L 848.694545 482.547742 
L 850.047273 478.842082 
L 852.752727 482.547742 
L 854.105455 478.842082 
L 855.458182 478.842082 
L 856.810909 475.136423 
L 859.516364 475.136423 
L 860.869091 469.577933 
L 862.221818 469.577933 
L 863.574545 464.019443 
L 864.927273 471.430763 
L 866.28 480.694912 
L 867.632727 482.547742 
L 868.985455 475.136423 
L 870.338182 478.842082 
L 871.690909 480.694912 
L 871.690909 480.694912 
" style="fill:none;stroke:#d62728;stroke-linecap:square;stroke-width:1.5;"/>
   </g>
   <g id="patch_21">
    <path d="M 126 518.4 
L 126 422.608696 
" style="fill:none;stroke:#000000;stroke-linecap:square;stroke-linejoin:miter;stroke-width:0.8;"/>
   </g>
   <g id="patch_22">
    <path d="M 907.2 518.4 
L 907.2 422.608696 
" style="fill:none;stroke:#000000;stroke-linecap:square;stroke-linejoin:miter;stroke-width:0.8;"/>
   </g>
   <g id="patch_23">
    <path d="M 126 518.4 
L 907.2 518.4 
" style="fill:none;stroke:#000000;stroke-linecap:square;stroke-linejoin:miter;stroke-width:0.8;"/>
   </g>
   <g id="patch_24">
    <path d="M 126 422.608696 
L 907.2 422.608696 
" style="fill:none;stroke:#000000;stroke-linecap:square;stroke-linejoin:miter;stroke-width:0.8;"/>
   </g>
   <g id="legend_4">
    <g id="patch_25">
     <path d="M 831.470313 445.564946 
L 900.2 445.564946 
Q 902.2 445.564946 902.2 443.564946 
L 902.2 429.608696 
Q 902.2 427.608696 900.2 427.608696 
L 831.470313 427.608696 
Q 829.470313 427.608696 829.470313 429.608696 
L 829.470313 443.564946 
Q 829.470313 445.564946 831.470313 445.564946 
z
" style="fill:#ffffff;opacity:0.8;stroke:#cccccc;stroke-linejoin:miter;"/>
    </g>
    <g id="line2d_48">
     <path d="M 833.470313 435.707133 
L 853.470313 435.707133 
" style="fill:none;stroke:#d62728;stroke-linecap:square;stroke-width:1.5;"/>
    </g>
    <g id="line2d_49"/>
    <g id="text_24">
     <!-- icu_occ -->
     <g transform="translate(861.470313 439.207133)scale(0.1 -0.1)">
      <defs>
       <path d="M 8.5 21.578125 
L 8.5 54.6875 
L 17.484375 54.6875 
L 17.484375 21.921875 
Q 17.484375 14.15625 20.5 10.265625 
Q 23.53125 6.390625 29.59375 6.390625 
Q 36.859375 6.390625 41.078125 11.03125 
Q 45.3125 15.671875 45.3125 23.6875 
L 45.3125 54.6875 
L 54.296875 54.6875 
L 54.296875 0 
L 45.3125 0 
L 45.3125 8.40625 
Q 42.046875 3.421875 37.71875 1 
Q 33.40625 -1.421875 27.6875 -1.421875 
Q 18.265625 -1.421875 13.375 4.4375 
Q 8.5 10.296875 8.5 21.578125 
z
M 31.109375 56 
z
" id="DejaVuSans-117"/>
      </defs>
      <use xlink:href="#DejaVuSans-105"/>
      <use x="27.783203" xlink:href="#DejaVuSans-99"/>
      <use x="82.763672" xlink:href="#DejaVuSans-117"/>
      <use x="146.142578" xlink:href="#DejaVuSans-95"/>
      <use x="196.142578" xlink:href="#DejaVuSans-111"/>
      <use x="257.324219" xlink:href="#DejaVuSans-99"/>
      <use x="312.304688" xlink:href="#DejaVuSans-99"/>
     </g>
    </g>
   </g>
  </g>
 </g>
 <defs>
  <clipPath id="pc1ace90f5c">
   <rect height="95.791304" width="781.2" x="126" y="77.76"/>
  </clipPath>
  <clipPath id="pf5c1dfc367">
   <rect height="95.791304" width="781.2" x="126" y="192.709565"/>
  </clipPath>
  <clipPath id="p7ab2614a1a">
   <rect height="95.791304" width="781.2" x="126" y="307.65913"/>
  </clipPath>
  <clipPath id="pfd9d96cdef">
   <rect height="95.791304" width="781.2" x="126" y="422.608696"/>
  </clipPath>
 </defs>
</svg>
