<?xml version="1.0" encoding="utf-8" standalone="no"?>
<!DOCTYPE svg PUBLIC "-//W3C//DTD SVG 1.1//EN"
  "http://www.w3.org/Graphics/SVG/1.1/DTD/svg11.dtd">
<!-- Created with matplotlib (https://matplotlib.org/) -->
<svg height="648pt" version="1.1" viewBox="0 0 1008 648" width="1008pt" xmlns="http://www.w3.org/2000/svg" xmlns:xlink="http://www.w3.org/1999/xlink">
 <metadata>
  <rdf:RDF xmlns:cc="http://creativecommons.org/ns#" xmlns:dc="http://purl.org/dc/elements/1.1/" xmlns:rdf="http://www.w3.org/1999/02/22-rdf-syntax-ns#">
   <cc:Work>
    <dc:type rdf:resource="http://purl.org/dc/dcmitype/StillImage"/>
    <dc:date>2021-08-26T16:34:24.519742</dc:date>
    <dc:format>image/svg+xml</dc:format>
    <dc:creator>
     <cc:Agent>
      <dc:title>Matplotlib v3.3.4, https://matplotlib.org/</dc:title>
     </cc:Agent>
    </dc:creator>
   </cc:Work>
  </rdf:RDF>
 </metadata>
 <defs>
  <style type="text/css">*{stroke-linecap:butt;stroke-linejoin:round;}</style>
 </defs>
 <g id="figure_1">
  <g id="patch_1">
   <path d="M 0 648 
L 1008 648 
L 1008 0 
L 0 0 
z
" style="fill:#ffffff;"/>
  </g>
  <g id="axes_1">
   <g id="patch_2">
    <path d="M 57.02125 282.84 
L 988 282.84 
L 988 36.08 
L 57.02125 36.08 
z
" style="fill:#ffffff;"/>
   </g>
   <g id="matplotlib.axis_1">
    <g id="xtick_1">
     <g id="line2d_1">
      <defs>
       <path d="M 0 0 
L 0 3.5 
" id="mda3ccbe0f7" style="stroke:#000000;stroke-width:0.8;"/>
      </defs>
      <g>
       <use style="stroke:#000000;stroke-width:0.8;" x="99.338466" xlink:href="#mda3ccbe0f7" y="282.84"/>
      </g>
     </g>
     <g id="text_1">
      <!-- 0 -->
      <g transform="translate(96.157216 297.438437)scale(0.1 -0.1)">
       <defs>
        <path d="M 31.78125 66.40625 
Q 24.171875 66.40625 20.328125 58.90625 
Q 16.5 51.421875 16.5 36.375 
Q 16.5 21.390625 20.328125 13.890625 
Q 24.171875 6.390625 31.78125 6.390625 
Q 39.453125 6.390625 43.28125 13.890625 
Q 47.125 21.390625 47.125 36.375 
Q 47.125 51.421875 43.28125 58.90625 
Q 39.453125 66.40625 31.78125 66.40625 
z
M 31.78125 74.21875 
Q 44.046875 74.21875 50.515625 64.515625 
Q 56.984375 54.828125 56.984375 36.375 
Q 56.984375 17.96875 50.515625 8.265625 
Q 44.046875 -1.421875 31.78125 -1.421875 
Q 19.53125 -1.421875 13.0625 8.265625 
Q 6.59375 17.96875 6.59375 36.375 
Q 6.59375 54.828125 13.0625 64.515625 
Q 19.53125 74.21875 31.78125 74.21875 
z
" id="DejaVuSans-48"/>
       </defs>
       <use xlink:href="#DejaVuSans-48"/>
      </g>
     </g>
    </g>
    <g id="xtick_2">
     <g id="line2d_2">
      <g>
       <use style="stroke:#000000;stroke-width:0.8;" x="270.317116" xlink:href="#mda3ccbe0f7" y="282.84"/>
      </g>
     </g>
     <g id="text_2">
      <!-- 20 -->
      <g transform="translate(263.954616 297.438437)scale(0.1 -0.1)">
       <defs>
        <path d="M 19.1875 8.296875 
L 53.609375 8.296875 
L 53.609375 0 
L 7.328125 0 
L 7.328125 8.296875 
Q 12.9375 14.109375 22.625 23.890625 
Q 32.328125 33.6875 34.8125 36.53125 
Q 39.546875 41.84375 41.421875 45.53125 
Q 43.3125 49.21875 43.3125 52.78125 
Q 43.3125 58.59375 39.234375 62.25 
Q 35.15625 65.921875 28.609375 65.921875 
Q 23.96875 65.921875 18.8125 64.3125 
Q 13.671875 62.703125 7.8125 59.421875 
L 7.8125 69.390625 
Q 13.765625 71.78125 18.9375 73 
Q 24.125 74.21875 28.421875 74.21875 
Q 39.75 74.21875 46.484375 68.546875 
Q 53.21875 62.890625 53.21875 53.421875 
Q 53.21875 48.921875 51.53125 44.890625 
Q 49.859375 40.875 45.40625 35.40625 
Q 44.1875 33.984375 37.640625 27.21875 
Q 31.109375 20.453125 19.1875 8.296875 
z
" id="DejaVuSans-50"/>
       </defs>
       <use xlink:href="#DejaVuSans-50"/>
       <use x="63.623047" xlink:href="#DejaVuSans-48"/>
      </g>
     </g>
    </g>
    <g id="xtick_3">
     <g id="line2d_3">
      <g>
       <use style="stroke:#000000;stroke-width:0.8;" x="441.295766" xlink:href="#mda3ccbe0f7" y="282.84"/>
      </g>
     </g>
     <g id="text_3">
      <!-- 40 -->
      <g transform="translate(434.933266 297.438437)scale(0.1 -0.1)">
       <defs>
        <path d="M 37.796875 64.3125 
L 12.890625 25.390625 
L 37.796875 25.390625 
z
M 35.203125 72.90625 
L 47.609375 72.90625 
L 47.609375 25.390625 
L 58.015625 25.390625 
L 58.015625 17.1875 
L 47.609375 17.1875 
L 47.609375 0 
L 37.796875 0 
L 37.796875 17.1875 
L 4.890625 17.1875 
L 4.890625 26.703125 
z
" id="DejaVuSans-52"/>
       </defs>
       <use xlink:href="#DejaVuSans-52"/>
       <use x="63.623047" xlink:href="#DejaVuSans-48"/>
      </g>
     </g>
    </g>
    <g id="xtick_4">
     <g id="line2d_4">
      <g>
       <use style="stroke:#000000;stroke-width:0.8;" x="612.274416" xlink:href="#mda3ccbe0f7" y="282.84"/>
      </g>
     </g>
     <g id="text_4">
      <!-- 60 -->
      <g transform="translate(605.911916 297.438437)scale(0.1 -0.1)">
       <defs>
        <path d="M 33.015625 40.375 
Q 26.375 40.375 22.484375 35.828125 
Q 18.609375 31.296875 18.609375 23.390625 
Q 18.609375 15.53125 22.484375 10.953125 
Q 26.375 6.390625 33.015625 6.390625 
Q 39.65625 6.390625 43.53125 10.953125 
Q 47.40625 15.53125 47.40625 23.390625 
Q 47.40625 31.296875 43.53125 35.828125 
Q 39.65625 40.375 33.015625 40.375 
z
M 52.59375 71.296875 
L 52.59375 62.3125 
Q 48.875 64.0625 45.09375 64.984375 
Q 41.3125 65.921875 37.59375 65.921875 
Q 27.828125 65.921875 22.671875 59.328125 
Q 17.53125 52.734375 16.796875 39.40625 
Q 19.671875 43.65625 24.015625 45.921875 
Q 28.375 48.1875 33.59375 48.1875 
Q 44.578125 48.1875 50.953125 41.515625 
Q 57.328125 34.859375 57.328125 23.390625 
Q 57.328125 12.15625 50.6875 5.359375 
Q 44.046875 -1.421875 33.015625 -1.421875 
Q 20.359375 -1.421875 13.671875 8.265625 
Q 6.984375 17.96875 6.984375 36.375 
Q 6.984375 53.65625 15.1875 63.9375 
Q 23.390625 74.21875 37.203125 74.21875 
Q 40.921875 74.21875 44.703125 73.484375 
Q 48.484375 72.75 52.59375 71.296875 
z
" id="DejaVuSans-54"/>
       </defs>
       <use xlink:href="#DejaVuSans-54"/>
       <use x="63.623047" xlink:href="#DejaVuSans-48"/>
      </g>
     </g>
    </g>
    <g id="xtick_5">
     <g id="line2d_5">
      <g>
       <use style="stroke:#000000;stroke-width:0.8;" x="783.253066" xlink:href="#mda3ccbe0f7" y="282.84"/>
      </g>
     </g>
     <g id="text_5">
      <!-- 80 -->
      <g transform="translate(776.890566 297.438437)scale(0.1 -0.1)">
       <defs>
        <path d="M 31.78125 34.625 
Q 24.75 34.625 20.71875 30.859375 
Q 16.703125 27.09375 16.703125 20.515625 
Q 16.703125 13.921875 20.71875 10.15625 
Q 24.75 6.390625 31.78125 6.390625 
Q 38.8125 6.390625 42.859375 10.171875 
Q 46.921875 13.96875 46.921875 20.515625 
Q 46.921875 27.09375 42.890625 30.859375 
Q 38.875 34.625 31.78125 34.625 
z
M 21.921875 38.8125 
Q 15.578125 40.375 12.03125 44.71875 
Q 8.5 49.078125 8.5 55.328125 
Q 8.5 64.0625 14.71875 69.140625 
Q 20.953125 74.21875 31.78125 74.21875 
Q 42.671875 74.21875 48.875 69.140625 
Q 55.078125 64.0625 55.078125 55.328125 
Q 55.078125 49.078125 51.53125 44.71875 
Q 48 40.375 41.703125 38.8125 
Q 48.828125 37.15625 52.796875 32.3125 
Q 56.78125 27.484375 56.78125 20.515625 
Q 56.78125 9.90625 50.3125 4.234375 
Q 43.84375 -1.421875 31.78125 -1.421875 
Q 19.734375 -1.421875 13.25 4.234375 
Q 6.78125 9.90625 6.78125 20.515625 
Q 6.78125 27.484375 10.78125 32.3125 
Q 14.796875 37.15625 21.921875 38.8125 
z
M 18.3125 54.390625 
Q 18.3125 48.734375 21.84375 45.5625 
Q 25.390625 42.390625 31.78125 42.390625 
Q 38.140625 42.390625 41.71875 45.5625 
Q 45.3125 48.734375 45.3125 54.390625 
Q 45.3125 60.0625 41.71875 63.234375 
Q 38.140625 66.40625 31.78125 66.40625 
Q 25.390625 66.40625 21.84375 63.234375 
Q 18.3125 60.0625 18.3125 54.390625 
z
" id="DejaVuSans-56"/>
       </defs>
       <use xlink:href="#DejaVuSans-56"/>
       <use x="63.623047" xlink:href="#DejaVuSans-48"/>
      </g>
     </g>
    </g>
    <g id="xtick_6">
     <g id="line2d_6">
      <g>
       <use style="stroke:#000000;stroke-width:0.8;" x="954.231717" xlink:href="#mda3ccbe0f7" y="282.84"/>
      </g>
     </g>
     <g id="text_6">
      <!-- 100 -->
      <g transform="translate(944.687967 297.438437)scale(0.1 -0.1)">
       <defs>
        <path d="M 12.40625 8.296875 
L 28.515625 8.296875 
L 28.515625 63.921875 
L 10.984375 60.40625 
L 10.984375 69.390625 
L 28.421875 72.90625 
L 38.28125 72.90625 
L 38.28125 8.296875 
L 54.390625 8.296875 
L 54.390625 0 
L 12.40625 0 
z
" id="DejaVuSans-49"/>
       </defs>
       <use xlink:href="#DejaVuSans-49"/>
       <use x="63.623047" xlink:href="#DejaVuSans-48"/>
       <use x="127.246094" xlink:href="#DejaVuSans-48"/>
      </g>
     </g>
    </g>
    <g id="text_7">
     <!-- epoch -->
     <g transform="translate(507.2825 311.116562)scale(0.1 -0.1)">
      <defs>
       <path d="M 56.203125 29.59375 
L 56.203125 25.203125 
L 14.890625 25.203125 
Q 15.484375 15.921875 20.484375 11.0625 
Q 25.484375 6.203125 34.421875 6.203125 
Q 39.59375 6.203125 44.453125 7.46875 
Q 49.3125 8.734375 54.109375 11.28125 
L 54.109375 2.78125 
Q 49.265625 0.734375 44.1875 -0.34375 
Q 39.109375 -1.421875 33.890625 -1.421875 
Q 20.796875 -1.421875 13.15625 6.1875 
Q 5.515625 13.8125 5.515625 26.8125 
Q 5.515625 40.234375 12.765625 48.109375 
Q 20.015625 56 32.328125 56 
Q 43.359375 56 49.78125 48.890625 
Q 56.203125 41.796875 56.203125 29.59375 
z
M 47.21875 32.234375 
Q 47.125 39.59375 43.09375 43.984375 
Q 39.0625 48.390625 32.421875 48.390625 
Q 24.90625 48.390625 20.390625 44.140625 
Q 15.875 39.890625 15.1875 32.171875 
z
" id="DejaVuSans-101"/>
       <path d="M 18.109375 8.203125 
L 18.109375 -20.796875 
L 9.078125 -20.796875 
L 9.078125 54.6875 
L 18.109375 54.6875 
L 18.109375 46.390625 
Q 20.953125 51.265625 25.265625 53.625 
Q 29.59375 56 35.59375 56 
Q 45.5625 56 51.78125 48.09375 
Q 58.015625 40.1875 58.015625 27.296875 
Q 58.015625 14.40625 51.78125 6.484375 
Q 45.5625 -1.421875 35.59375 -1.421875 
Q 29.59375 -1.421875 25.265625 0.953125 
Q 20.953125 3.328125 18.109375 8.203125 
z
M 48.6875 27.296875 
Q 48.6875 37.203125 44.609375 42.84375 
Q 40.53125 48.484375 33.40625 48.484375 
Q 26.265625 48.484375 22.1875 42.84375 
Q 18.109375 37.203125 18.109375 27.296875 
Q 18.109375 17.390625 22.1875 11.75 
Q 26.265625 6.109375 33.40625 6.109375 
Q 40.53125 6.109375 44.609375 11.75 
Q 48.6875 17.390625 48.6875 27.296875 
z
" id="DejaVuSans-112"/>
       <path d="M 30.609375 48.390625 
Q 23.390625 48.390625 19.1875 42.75 
Q 14.984375 37.109375 14.984375 27.296875 
Q 14.984375 17.484375 19.15625 11.84375 
Q 23.34375 6.203125 30.609375 6.203125 
Q 37.796875 6.203125 41.984375 11.859375 
Q 46.1875 17.53125 46.1875 27.296875 
Q 46.1875 37.015625 41.984375 42.703125 
Q 37.796875 48.390625 30.609375 48.390625 
z
M 30.609375 56 
Q 42.328125 56 49.015625 48.375 
Q 55.71875 40.765625 55.71875 27.296875 
Q 55.71875 13.875 49.015625 6.21875 
Q 42.328125 -1.421875 30.609375 -1.421875 
Q 18.84375 -1.421875 12.171875 6.21875 
Q 5.515625 13.875 5.515625 27.296875 
Q 5.515625 40.765625 12.171875 48.375 
Q 18.84375 56 30.609375 56 
z
" id="DejaVuSans-111"/>
       <path d="M 48.78125 52.59375 
L 48.78125 44.1875 
Q 44.96875 46.296875 41.140625 47.34375 
Q 37.3125 48.390625 33.40625 48.390625 
Q 24.65625 48.390625 19.8125 42.84375 
Q 14.984375 37.3125 14.984375 27.296875 
Q 14.984375 17.28125 19.8125 11.734375 
Q 24.65625 6.203125 33.40625 6.203125 
Q 37.3125 6.203125 41.140625 7.25 
Q 44.96875 8.296875 48.78125 10.40625 
L 48.78125 2.09375 
Q 45.015625 0.34375 40.984375 -0.53125 
Q 36.96875 -1.421875 32.421875 -1.421875 
Q 20.0625 -1.421875 12.78125 6.34375 
Q 5.515625 14.109375 5.515625 27.296875 
Q 5.515625 40.671875 12.859375 48.328125 
Q 20.21875 56 33.015625 56 
Q 37.15625 56 41.109375 55.140625 
Q 45.0625 54.296875 48.78125 52.59375 
z
" id="DejaVuSans-99"/>
       <path d="M 54.890625 33.015625 
L 54.890625 0 
L 45.90625 0 
L 45.90625 32.71875 
Q 45.90625 40.484375 42.875 44.328125 
Q 39.84375 48.1875 33.796875 48.1875 
Q 26.515625 48.1875 22.3125 43.546875 
Q 18.109375 38.921875 18.109375 30.90625 
L 18.109375 0 
L 9.078125 0 
L 9.078125 75.984375 
L 18.109375 75.984375 
L 18.109375 46.1875 
Q 21.34375 51.125 25.703125 53.5625 
Q 30.078125 56 35.796875 56 
Q 45.21875 56 50.046875 50.171875 
Q 54.890625 44.34375 54.890625 33.015625 
z
" id="DejaVuSans-104"/>
      </defs>
      <use xlink:href="#DejaVuSans-101"/>
      <use x="61.523438" xlink:href="#DejaVuSans-112"/>
      <use x="125" xlink:href="#DejaVuSans-111"/>
      <use x="186.181641" xlink:href="#DejaVuSans-99"/>
      <use x="241.162109" xlink:href="#DejaVuSans-104"/>
     </g>
    </g>
   </g>
   <g id="matplotlib.axis_2">
    <g id="ytick_1">
     <g id="line2d_7">
      <defs>
       <path d="M 0 0 
L -3.5 0 
" id="m956284f39a" style="stroke:#000000;stroke-width:0.8;"/>
      </defs>
      <g>
       <use style="stroke:#000000;stroke-width:0.8;" x="57.02125" xlink:href="#m956284f39a" y="277.08067"/>
      </g>
     </g>
     <g id="text_8">
      <!-- 0 -->
      <g transform="translate(43.65875 280.879889)scale(0.1 -0.1)">
       <use xlink:href="#DejaVuSans-48"/>
      </g>
     </g>
    </g>
    <g id="ytick_2">
     <g id="line2d_8">
      <g>
       <use style="stroke:#000000;stroke-width:0.8;" x="57.02125" xlink:href="#m956284f39a" y="230.95547"/>
      </g>
     </g>
     <g id="text_9">
      <!-- 2 -->
      <g transform="translate(43.65875 234.754688)scale(0.1 -0.1)">
       <use xlink:href="#DejaVuSans-50"/>
      </g>
     </g>
    </g>
    <g id="ytick_3">
     <g id="line2d_9">
      <g>
       <use style="stroke:#000000;stroke-width:0.8;" x="57.02125" xlink:href="#m956284f39a" y="184.830269"/>
      </g>
     </g>
     <g id="text_10">
      <!-- 4 -->
      <g transform="translate(43.65875 188.629488)scale(0.1 -0.1)">
       <use xlink:href="#DejaVuSans-52"/>
      </g>
     </g>
    </g>
    <g id="ytick_4">
     <g id="line2d_10">
      <g>
       <use style="stroke:#000000;stroke-width:0.8;" x="57.02125" xlink:href="#m956284f39a" y="138.705068"/>
      </g>
     </g>
     <g id="text_11">
      <!-- 6 -->
      <g transform="translate(43.65875 142.504287)scale(0.1 -0.1)">
       <use xlink:href="#DejaVuSans-54"/>
      </g>
     </g>
    </g>
    <g id="ytick_5">
     <g id="line2d_11">
      <g>
       <use style="stroke:#000000;stroke-width:0.8;" x="57.02125" xlink:href="#m956284f39a" y="92.579868"/>
      </g>
     </g>
     <g id="text_12">
      <!-- 8 -->
      <g transform="translate(43.65875 96.379087)scale(0.1 -0.1)">
       <use xlink:href="#DejaVuSans-56"/>
      </g>
     </g>
    </g>
    <g id="ytick_6">
     <g id="line2d_12">
      <g>
       <use style="stroke:#000000;stroke-width:0.8;" x="57.02125" xlink:href="#m956284f39a" y="46.454667"/>
      </g>
     </g>
     <g id="text_13">
      <!-- 10 -->
      <g transform="translate(37.29625 50.253886)scale(0.1 -0.1)">
       <use xlink:href="#DejaVuSans-49"/>
       <use x="63.623047" xlink:href="#DejaVuSans-48"/>
      </g>
     </g>
    </g>
    <g id="text_14">
     <!-- loss -->
     <g transform="translate(31.216562 169.117812)rotate(-90)scale(0.1 -0.1)">
      <defs>
       <path d="M 9.421875 75.984375 
L 18.40625 75.984375 
L 18.40625 0 
L 9.421875 0 
z
" id="DejaVuSans-108"/>
       <path d="M 44.28125 53.078125 
L 44.28125 44.578125 
Q 40.484375 46.53125 36.375 47.5 
Q 32.28125 48.484375 27.875 48.484375 
Q 21.1875 48.484375 17.84375 46.4375 
Q 14.5 44.390625 14.5 40.28125 
Q 14.5 37.15625 16.890625 35.375 
Q 19.28125 33.59375 26.515625 31.984375 
L 29.59375 31.296875 
Q 39.15625 29.25 43.1875 25.515625 
Q 47.21875 21.78125 47.21875 15.09375 
Q 47.21875 7.46875 41.1875 3.015625 
Q 35.15625 -1.421875 24.609375 -1.421875 
Q 20.21875 -1.421875 15.453125 -0.5625 
Q 10.6875 0.296875 5.421875 2 
L 5.421875 11.28125 
Q 10.40625 8.6875 15.234375 7.390625 
Q 20.0625 6.109375 24.8125 6.109375 
Q 31.15625 6.109375 34.5625 8.28125 
Q 37.984375 10.453125 37.984375 14.40625 
Q 37.984375 18.0625 35.515625 20.015625 
Q 33.0625 21.96875 24.703125 23.78125 
L 21.578125 24.515625 
Q 13.234375 26.265625 9.515625 29.90625 
Q 5.8125 33.546875 5.8125 39.890625 
Q 5.8125 47.609375 11.28125 51.796875 
Q 16.75 56 26.8125 56 
Q 31.78125 56 36.171875 55.265625 
Q 40.578125 54.546875 44.28125 53.078125 
z
" id="DejaVuSans-115"/>
      </defs>
      <use xlink:href="#DejaVuSans-108"/>
      <use x="27.783203" xlink:href="#DejaVuSans-111"/>
      <use x="88.964844" xlink:href="#DejaVuSans-115"/>
      <use x="141.064453" xlink:href="#DejaVuSans-115"/>
     </g>
    </g>
   </g>
   <g id="line2d_13">
    <path clip-path="url(#p405703a4e5)" d="M 99.338466 258.68655 
L 107.887398 261.31419 
L 116.436331 263.325549 
L 124.985263 264.807283 
L 133.534196 265.895824 
L 142.083128 266.737712 
L 150.632061 267.371032 
L 159.180993 267.876757 
L 167.729926 268.283774 
L 176.278858 268.62657 
L 184.827791 268.912485 
L 193.376723 269.168604 
L 201.925656 269.375683 
L 210.474588 269.562976 
L 219.023521 269.718737 
L 227.572454 269.864605 
L 236.121386 269.989147 
L 244.670319 270.099101 
L 253.219251 270.195612 
L 261.768184 270.279282 
L 270.317116 270.354981 
L 278.866049 270.425383 
L 287.414981 270.488507 
L 295.963914 270.544702 
L 304.512846 270.595618 
L 313.061779 270.642175 
L 321.610711 270.687659 
L 330.159644 270.726994 
L 338.708576 270.764158 
L 347.257509 270.798762 
L 355.806441 270.832366 
L 364.355374 270.864243 
L 372.904306 270.892494 
L 381.453239 270.920171 
L 390.002171 270.946867 
L 398.551104 270.968521 
L 407.100036 270.994826 
L 415.648969 271.018685 
L 424.197901 271.040115 
L 432.746834 271.061023 
L 441.295766 271.080978 
L 449.844699 271.100097 
L 458.393631 271.119573 
L 466.942564 271.136939 
L 475.491496 271.155561 
L 484.040429 271.1722 
L 492.589361 271.188973 
L 501.138294 271.204426 
L 509.687226 271.219695 
L 518.236159 271.233213 
L 526.785091 271.248309 
L 535.334024 271.262684 
L 543.882956 271.272186 
L 552.431889 271.290352 
L 560.980821 271.302601 
L 569.529754 271.313871 
L 578.078686 271.326667 
L 586.627619 271.338452 
L 595.176551 271.347556 
L 603.725484 271.359966 
L 612.274416 271.371097 
L 620.823349 271.377162 
L 629.372281 271.389006 
L 637.921214 271.401353 
L 646.470146 271.411484 
L 655.019079 271.419813 
L 663.568011 271.42807 
L 672.116944 271.438422 
L 680.665876 271.446152 
L 689.214809 271.45385 
L 697.763741 271.460629 
L 706.312674 271.469024 
L 714.861606 271.477214 
L 723.410539 271.485595 
L 731.959471 271.491929 
L 740.508404 271.500027 
L 749.057336 271.504791 
L 757.606269 271.512785 
L 766.155201 271.519165 
L 774.704134 271.525251 
L 783.253066 271.530887 
L 791.801999 271.537461 
L 800.350931 271.54382 
L 808.899864 271.548747 
L 817.448796 271.555118 
L 825.997729 271.560711 
L 834.546662 271.563731 
L 843.095594 271.571667 
L 851.644527 271.576815 
L 860.193459 271.581006 
L 868.742392 271.584827 
L 877.291324 271.590574 
L 885.840257 271.594271 
L 894.389189 271.600164 
L 902.938122 271.60372 
L 911.487054 271.607906 
L 920.035987 271.61237 
L 928.584919 271.616027 
L 937.133852 271.617054 
L 945.682784 271.623636 
" style="fill:none;stroke:#1f77b4;stroke-linecap:square;stroke-width:1.5;"/>
   </g>
   <g id="line2d_14">
    <path clip-path="url(#p405703a4e5)" d="M 99.338466 47.296364 
L 107.887398 52.821771 
L 116.436331 58.159722 
L 124.985263 62.987913 
L 133.534196 67.504335 
L 142.083128 70.909457 
L 150.632061 73.972151 
L 159.180993 76.456749 
L 167.729926 78.957204 
L 176.278858 81.039726 
L 184.827791 82.766535 
L 193.376723 84.499679 
L 201.925656 85.990029 
L 210.474588 87.082921 
L 219.023521 88.775485 
L 227.572454 90.548857 
L 236.121386 91.832571 
L 244.670319 93.069492 
L 253.219251 94.165716 
L 261.768184 95.567715 
L 270.317116 97.124729 
L 278.866049 98.380412 
L 287.414981 99.960465 
L 295.963914 101.259762 
L 304.512846 102.434384 
L 313.061779 103.773744 
L 321.610711 104.982568 
L 330.159644 106.023839 
L 338.708576 107.346758 
L 347.257509 108.342348 
L 355.806441 109.250819 
L 364.355374 110.390295 
L 372.904306 111.649859 
L 381.453239 112.640368 
L 390.002171 113.438604 
L 398.551104 114.279201 
L 407.100036 115.262364 
L 415.648969 115.956963 
L 424.197901 117.149159 
L 432.746834 118.113089 
L 441.295766 118.739825 
L 449.844699 119.510029 
L 458.393631 120.247847 
L 466.942564 120.873351 
L 475.491496 121.698849 
L 484.040429 122.316908 
L 492.589361 123.066856 
L 501.138294 123.692349 
L 509.687226 124.525489 
L 518.236159 125.036118 
L 526.785091 125.507311 
L 535.334024 126.16287 
L 543.882956 126.850662 
L 552.431889 127.187438 
L 560.980821 127.819727 
L 569.529754 128.374575 
L 578.078686 129.005809 
L 586.627619 129.344806 
L 595.176551 129.797513 
L 603.725484 130.144064 
L 612.274416 130.700276 
L 620.823349 131.115483 
L 629.372281 131.70926 
L 637.921214 132.119606 
L 646.470146 132.366293 
L 655.019079 132.579142 
L 663.568011 133.190174 
L 672.116944 133.464629 
L 680.665876 133.953307 
L 689.214809 134.22255 
L 697.763741 134.485402 
L 706.312674 134.81713 
L 714.861606 135.261589 
L 723.410539 135.570707 
L 731.959471 135.825576 
L 740.508404 136.140148 
L 749.057336 136.559588 
L 757.606269 136.746814 
L 766.155201 136.994128 
L 774.704134 137.28587 
L 783.253066 137.522231 
L 791.801999 137.850099 
L 800.350931 138.151617 
L 808.899864 138.162834 
L 817.448796 138.406343 
L 825.997729 138.690904 
L 834.546662 138.876744 
L 843.095594 139.148428 
L 851.644527 139.366247 
L 860.193459 139.584925 
L 868.742392 139.8006 
L 877.291324 139.932191 
L 885.840257 140.069028 
L 894.389189 140.282757 
L 902.938122 140.413414 
L 911.487054 140.620115 
L 920.035987 140.881242 
L 928.584919 141.025183 
L 937.133852 141.186818 
L 945.682784 141.373813 
" style="fill:none;stroke:#ff7f0e;stroke-linecap:square;stroke-width:1.5;"/>
   </g>
   <g id="patch_3">
    <path d="M 57.02125 282.84 
L 57.02125 36.08 
" style="fill:none;stroke:#000000;stroke-linecap:square;stroke-linejoin:miter;stroke-width:0.8;"/>
   </g>
   <g id="patch_4">
    <path d="M 988 282.84 
L 988 36.08 
" style="fill:none;stroke:#000000;stroke-linecap:square;stroke-linejoin:miter;stroke-width:0.8;"/>
   </g>
   <g id="patch_5">
    <path d="M 57.02125 282.84 
L 988 282.84 
" style="fill:none;stroke:#000000;stroke-linecap:square;stroke-linejoin:miter;stroke-width:0.8;"/>
   </g>
   <g id="patch_6">
    <path d="M 57.02125 36.08 
L 988 36.08 
" style="fill:none;stroke:#000000;stroke-linecap:square;stroke-linejoin:miter;stroke-width:0.8;"/>
   </g>
   <g id="text_15">
    <!-- Linear NN model -->
    <g transform="translate(472.388125 30.08)scale(0.12 -0.12)">
     <defs>
      <path d="M 9.8125 72.90625 
L 19.671875 72.90625 
L 19.671875 8.296875 
L 55.171875 8.296875 
L 55.171875 0 
L 9.8125 0 
z
" id="DejaVuSans-76"/>
      <path d="M 9.421875 54.6875 
L 18.40625 54.6875 
L 18.40625 0 
L 9.421875 0 
z
M 9.421875 75.984375 
L 18.40625 75.984375 
L 18.40625 64.59375 
L 9.421875 64.59375 
z
" id="DejaVuSans-105"/>
      <path d="M 54.890625 33.015625 
L 54.890625 0 
L 45.90625 0 
L 45.90625 32.71875 
Q 45.90625 40.484375 42.875 44.328125 
Q 39.84375 48.1875 33.796875 48.1875 
Q 26.515625 48.1875 22.3125 43.546875 
Q 18.109375 38.921875 18.109375 30.90625 
L 18.109375 0 
L 9.078125 0 
L 9.078125 54.6875 
L 18.109375 54.6875 
L 18.109375 46.1875 
Q 21.34375 51.125 25.703125 53.5625 
Q 30.078125 56 35.796875 56 
Q 45.21875 56 50.046875 50.171875 
Q 54.890625 44.34375 54.890625 33.015625 
z
" id="DejaVuSans-110"/>
      <path d="M 34.28125 27.484375 
Q 23.390625 27.484375 19.1875 25 
Q 14.984375 22.515625 14.984375 16.5 
Q 14.984375 11.71875 18.140625 8.90625 
Q 21.296875 6.109375 26.703125 6.109375 
Q 34.1875 6.109375 38.703125 11.40625 
Q 43.21875 16.703125 43.21875 25.484375 
L 43.21875 27.484375 
z
M 52.203125 31.203125 
L 52.203125 0 
L 43.21875 0 
L 43.21875 8.296875 
Q 40.140625 3.328125 35.546875 0.953125 
Q 30.953125 -1.421875 24.3125 -1.421875 
Q 15.921875 -1.421875 10.953125 3.296875 
Q 6 8.015625 6 15.921875 
Q 6 25.140625 12.171875 29.828125 
Q 18.359375 34.515625 30.609375 34.515625 
L 43.21875 34.515625 
L 43.21875 35.40625 
Q 43.21875 41.609375 39.140625 45 
Q 35.0625 48.390625 27.6875 48.390625 
Q 23 48.390625 18.546875 47.265625 
Q 14.109375 46.140625 10.015625 43.890625 
L 10.015625 52.203125 
Q 14.9375 54.109375 19.578125 55.046875 
Q 24.21875 56 28.609375 56 
Q 40.484375 56 46.34375 49.84375 
Q 52.203125 43.703125 52.203125 31.203125 
z
" id="DejaVuSans-97"/>
      <path d="M 41.109375 46.296875 
Q 39.59375 47.171875 37.8125 47.578125 
Q 36.03125 48 33.890625 48 
Q 26.265625 48 22.1875 43.046875 
Q 18.109375 38.09375 18.109375 28.8125 
L 18.109375 0 
L 9.078125 0 
L 9.078125 54.6875 
L 18.109375 54.6875 
L 18.109375 46.1875 
Q 20.953125 51.171875 25.484375 53.578125 
Q 30.03125 56 36.53125 56 
Q 37.453125 56 38.578125 55.875 
Q 39.703125 55.765625 41.0625 55.515625 
z
" id="DejaVuSans-114"/>
      <path id="DejaVuSans-32"/>
      <path d="M 9.8125 72.90625 
L 23.09375 72.90625 
L 55.421875 11.921875 
L 55.421875 72.90625 
L 64.984375 72.90625 
L 64.984375 0 
L 51.703125 0 
L 19.390625 60.984375 
L 19.390625 0 
L 9.8125 0 
z
" id="DejaVuSans-78"/>
      <path d="M 52 44.1875 
Q 55.375 50.25 60.0625 53.125 
Q 64.75 56 71.09375 56 
Q 79.640625 56 84.28125 50.015625 
Q 88.921875 44.046875 88.921875 33.015625 
L 88.921875 0 
L 79.890625 0 
L 79.890625 32.71875 
Q 79.890625 40.578125 77.09375 44.375 
Q 74.3125 48.1875 68.609375 48.1875 
Q 61.625 48.1875 57.5625 43.546875 
Q 53.515625 38.921875 53.515625 30.90625 
L 53.515625 0 
L 44.484375 0 
L 44.484375 32.71875 
Q 44.484375 40.625 41.703125 44.40625 
Q 38.921875 48.1875 33.109375 48.1875 
Q 26.21875 48.1875 22.15625 43.53125 
Q 18.109375 38.875 18.109375 30.90625 
L 18.109375 0 
L 9.078125 0 
L 9.078125 54.6875 
L 18.109375 54.6875 
L 18.109375 46.1875 
Q 21.1875 51.21875 25.484375 53.609375 
Q 29.78125 56 35.6875 56 
Q 41.65625 56 45.828125 52.96875 
Q 50 49.953125 52 44.1875 
z
" id="DejaVuSans-109"/>
      <path d="M 45.40625 46.390625 
L 45.40625 75.984375 
L 54.390625 75.984375 
L 54.390625 0 
L 45.40625 0 
L 45.40625 8.203125 
Q 42.578125 3.328125 38.25 0.953125 
Q 33.9375 -1.421875 27.875 -1.421875 
Q 17.96875 -1.421875 11.734375 6.484375 
Q 5.515625 14.40625 5.515625 27.296875 
Q 5.515625 40.1875 11.734375 48.09375 
Q 17.96875 56 27.875 56 
Q 33.9375 56 38.25 53.625 
Q 42.578125 51.265625 45.40625 46.390625 
z
M 14.796875 27.296875 
Q 14.796875 17.390625 18.875 11.75 
Q 22.953125 6.109375 30.078125 6.109375 
Q 37.203125 6.109375 41.296875 11.75 
Q 45.40625 17.390625 45.40625 27.296875 
Q 45.40625 37.203125 41.296875 42.84375 
Q 37.203125 48.484375 30.078125 48.484375 
Q 22.953125 48.484375 18.875 42.84375 
Q 14.796875 37.203125 14.796875 27.296875 
z
" id="DejaVuSans-100"/>
     </defs>
     <use xlink:href="#DejaVuSans-76"/>
     <use x="55.712891" xlink:href="#DejaVuSans-105"/>
     <use x="83.496094" xlink:href="#DejaVuSans-110"/>
     <use x="146.875" xlink:href="#DejaVuSans-101"/>
     <use x="208.398438" xlink:href="#DejaVuSans-97"/>
     <use x="269.677734" xlink:href="#DejaVuSans-114"/>
     <use x="310.791016" xlink:href="#DejaVuSans-32"/>
     <use x="342.578125" xlink:href="#DejaVuSans-78"/>
     <use x="417.382812" xlink:href="#DejaVuSans-78"/>
     <use x="492.1875" xlink:href="#DejaVuSans-32"/>
     <use x="523.974609" xlink:href="#DejaVuSans-109"/>
     <use x="621.386719" xlink:href="#DejaVuSans-111"/>
     <use x="682.568359" xlink:href="#DejaVuSans-100"/>
     <use x="746.044922" xlink:href="#DejaVuSans-101"/>
     <use x="807.568359" xlink:href="#DejaVuSans-108"/>
    </g>
   </g>
   <g id="legend_1">
    <g id="patch_7">
     <path d="M 64.02125 73.43625 
L 119.29625 73.43625 
Q 121.29625 73.43625 121.29625 71.43625 
L 121.29625 43.08 
Q 121.29625 41.08 119.29625 41.08 
L 64.02125 41.08 
Q 62.02125 41.08 62.02125 43.08 
L 62.02125 71.43625 
Q 62.02125 73.43625 64.02125 73.43625 
z
" style="fill:#ffffff;opacity:0.8;stroke:#cccccc;stroke-linejoin:miter;"/>
    </g>
    <g id="line2d_15">
     <path d="M 66.02125 49.178437 
L 86.02125 49.178437 
" style="fill:none;stroke:#1f77b4;stroke-linecap:square;stroke-width:1.5;"/>
    </g>
    <g id="line2d_16"/>
    <g id="text_16">
     <!-- train -->
     <g transform="translate(94.02125 52.678437)scale(0.1 -0.1)">
      <defs>
       <path d="M 18.3125 70.21875 
L 18.3125 54.6875 
L 36.8125 54.6875 
L 36.8125 47.703125 
L 18.3125 47.703125 
L 18.3125 18.015625 
Q 18.3125 11.328125 20.140625 9.421875 
Q 21.96875 7.515625 27.59375 7.515625 
L 36.8125 7.515625 
L 36.8125 0 
L 27.59375 0 
Q 17.1875 0 13.234375 3.875 
Q 9.28125 7.765625 9.28125 18.015625 
L 9.28125 47.703125 
L 2.6875 47.703125 
L 2.6875 54.6875 
L 9.28125 54.6875 
L 9.28125 70.21875 
z
" id="DejaVuSans-116"/>
      </defs>
      <use xlink:href="#DejaVuSans-116"/>
      <use x="39.208984" xlink:href="#DejaVuSans-114"/>
      <use x="80.322266" xlink:href="#DejaVuSans-97"/>
      <use x="141.601562" xlink:href="#DejaVuSans-105"/>
      <use x="169.384766" xlink:href="#DejaVuSans-110"/>
     </g>
    </g>
    <g id="line2d_17">
     <path d="M 66.02125 63.856562 
L 86.02125 63.856562 
" style="fill:none;stroke:#ff7f0e;stroke-linecap:square;stroke-width:1.5;"/>
    </g>
    <g id="line2d_18"/>
    <g id="text_17">
     <!-- val -->
     <g transform="translate(94.02125 67.356562)scale(0.1 -0.1)">
      <defs>
       <path d="M 2.984375 54.6875 
L 12.5 54.6875 
L 29.59375 8.796875 
L 46.6875 54.6875 
L 56.203125 54.6875 
L 35.6875 0 
L 23.484375 0 
z
" id="DejaVuSans-118"/>
      </defs>
      <use xlink:href="#DejaVuSans-118"/>
      <use x="59.179688" xlink:href="#DejaVuSans-97"/>
      <use x="120.458984" xlink:href="#DejaVuSans-108"/>
     </g>
    </g>
   </g>
  </g>
  <g id="axes_2">
   <g id="patch_8">
    <path d="M 57.02125 596.84 
L 988 596.84 
L 988 350.08 
L 57.02125 350.08 
z
" style="fill:#ffffff;"/>
   </g>
   <g id="matplotlib.axis_3">
    <g id="xtick_7">
     <g id="line2d_19">
      <g>
       <use style="stroke:#000000;stroke-width:0.8;" x="99.338466" xlink:href="#mda3ccbe0f7" y="596.84"/>
      </g>
     </g>
     <g id="text_18">
      <!-- 0 -->
      <g transform="translate(96.157216 611.438437)scale(0.1 -0.1)">
       <use xlink:href="#DejaVuSans-48"/>
      </g>
     </g>
    </g>
    <g id="xtick_8">
     <g id="line2d_20">
      <g>
       <use style="stroke:#000000;stroke-width:0.8;" x="270.317116" xlink:href="#mda3ccbe0f7" y="596.84"/>
      </g>
     </g>
     <g id="text_19">
      <!-- 20 -->
      <g transform="translate(263.954616 611.438437)scale(0.1 -0.1)">
       <use xlink:href="#DejaVuSans-50"/>
       <use x="63.623047" xlink:href="#DejaVuSans-48"/>
      </g>
     </g>
    </g>
    <g id="xtick_9">
     <g id="line2d_21">
      <g>
       <use style="stroke:#000000;stroke-width:0.8;" x="441.295766" xlink:href="#mda3ccbe0f7" y="596.84"/>
      </g>
     </g>
     <g id="text_20">
      <!-- 40 -->
      <g transform="translate(434.933266 611.438437)scale(0.1 -0.1)">
       <use xlink:href="#DejaVuSans-52"/>
       <use x="63.623047" xlink:href="#DejaVuSans-48"/>
      </g>
     </g>
    </g>
    <g id="xtick_10">
     <g id="line2d_22">
      <g>
       <use style="stroke:#000000;stroke-width:0.8;" x="612.274416" xlink:href="#mda3ccbe0f7" y="596.84"/>
      </g>
     </g>
     <g id="text_21">
      <!-- 60 -->
      <g transform="translate(605.911916 611.438437)scale(0.1 -0.1)">
       <use xlink:href="#DejaVuSans-54"/>
       <use x="63.623047" xlink:href="#DejaVuSans-48"/>
      </g>
     </g>
    </g>
    <g id="xtick_11">
     <g id="line2d_23">
      <g>
       <use style="stroke:#000000;stroke-width:0.8;" x="783.253066" xlink:href="#mda3ccbe0f7" y="596.84"/>
      </g>
     </g>
     <g id="text_22">
      <!-- 80 -->
      <g transform="translate(776.890566 611.438437)scale(0.1 -0.1)">
       <use xlink:href="#DejaVuSans-56"/>
       <use x="63.623047" xlink:href="#DejaVuSans-48"/>
      </g>
     </g>
    </g>
    <g id="xtick_12">
     <g id="line2d_24">
      <g>
       <use style="stroke:#000000;stroke-width:0.8;" x="954.231717" xlink:href="#mda3ccbe0f7" y="596.84"/>
      </g>
     </g>
     <g id="text_23">
      <!-- 100 -->
      <g transform="translate(944.687967 611.438437)scale(0.1 -0.1)">
       <use xlink:href="#DejaVuSans-49"/>
       <use x="63.623047" xlink:href="#DejaVuSans-48"/>
       <use x="127.246094" xlink:href="#DejaVuSans-48"/>
      </g>
     </g>
    </g>
    <g id="text_24">
     <!-- epoch -->
     <g transform="translate(507.2825 625.116562)scale(0.1 -0.1)">
      <use xlink:href="#DejaVuSans-101"/>
      <use x="61.523438" xlink:href="#DejaVuSans-112"/>
      <use x="125" xlink:href="#DejaVuSans-111"/>
      <use x="186.181641" xlink:href="#DejaVuSans-99"/>
      <use x="241.162109" xlink:href="#DejaVuSans-104"/>
     </g>
    </g>
   </g>
   <g id="matplotlib.axis_4">
    <g id="ytick_7">
     <g id="line2d_25">
      <g>
       <use style="stroke:#000000;stroke-width:0.8;" x="57.02125" xlink:href="#m956284f39a" y="563.212051"/>
      </g>
     </g>
     <g id="text_25">
      <!-- 0.4 -->
      <g transform="translate(34.118125 567.01127)scale(0.1 -0.1)">
       <defs>
        <path d="M 10.6875 12.40625 
L 21 12.40625 
L 21 0 
L 10.6875 0 
z
" id="DejaVuSans-46"/>
       </defs>
       <use xlink:href="#DejaVuSans-48"/>
       <use x="63.623047" xlink:href="#DejaVuSans-46"/>
       <use x="95.410156" xlink:href="#DejaVuSans-52"/>
      </g>
     </g>
    </g>
    <g id="ytick_8">
     <g id="line2d_26">
      <g>
       <use style="stroke:#000000;stroke-width:0.8;" x="57.02125" xlink:href="#m956284f39a" y="521.525512"/>
      </g>
     </g>
     <g id="text_26">
      <!-- 0.6 -->
      <g transform="translate(34.118125 525.324731)scale(0.1 -0.1)">
       <use xlink:href="#DejaVuSans-48"/>
       <use x="63.623047" xlink:href="#DejaVuSans-46"/>
       <use x="95.410156" xlink:href="#DejaVuSans-54"/>
      </g>
     </g>
    </g>
    <g id="ytick_9">
     <g id="line2d_27">
      <g>
       <use style="stroke:#000000;stroke-width:0.8;" x="57.02125" xlink:href="#m956284f39a" y="479.838974"/>
      </g>
     </g>
     <g id="text_27">
      <!-- 0.8 -->
      <g transform="translate(34.118125 483.638193)scale(0.1 -0.1)">
       <use xlink:href="#DejaVuSans-48"/>
       <use x="63.623047" xlink:href="#DejaVuSans-46"/>
       <use x="95.410156" xlink:href="#DejaVuSans-56"/>
      </g>
     </g>
    </g>
    <g id="ytick_10">
     <g id="line2d_28">
      <g>
       <use style="stroke:#000000;stroke-width:0.8;" x="57.02125" xlink:href="#m956284f39a" y="438.152435"/>
      </g>
     </g>
     <g id="text_28">
      <!-- 1.0 -->
      <g transform="translate(34.118125 441.951654)scale(0.1 -0.1)">
       <use xlink:href="#DejaVuSans-49"/>
       <use x="63.623047" xlink:href="#DejaVuSans-46"/>
       <use x="95.410156" xlink:href="#DejaVuSans-48"/>
      </g>
     </g>
    </g>
    <g id="ytick_11">
     <g id="line2d_29">
      <g>
       <use style="stroke:#000000;stroke-width:0.8;" x="57.02125" xlink:href="#m956284f39a" y="396.465897"/>
      </g>
     </g>
     <g id="text_29">
      <!-- 1.2 -->
      <g transform="translate(34.118125 400.265116)scale(0.1 -0.1)">
       <use xlink:href="#DejaVuSans-49"/>
       <use x="63.623047" xlink:href="#DejaVuSans-46"/>
       <use x="95.410156" xlink:href="#DejaVuSans-50"/>
      </g>
     </g>
    </g>
    <g id="ytick_12">
     <g id="line2d_30">
      <g>
       <use style="stroke:#000000;stroke-width:0.8;" x="57.02125" xlink:href="#m956284f39a" y="354.779358"/>
      </g>
     </g>
     <g id="text_30">
      <!-- 1.4 -->
      <g transform="translate(34.118125 358.578577)scale(0.1 -0.1)">
       <use xlink:href="#DejaVuSans-49"/>
       <use x="63.623047" xlink:href="#DejaVuSans-46"/>
       <use x="95.410156" xlink:href="#DejaVuSans-52"/>
      </g>
     </g>
    </g>
    <g id="text_31">
     <!-- mean_absolute_error -->
     <g transform="translate(27.760312 526.238906)rotate(-90)scale(0.1 -0.1)">
      <defs>
       <path d="M 50.984375 -16.609375 
L 50.984375 -23.578125 
L -0.984375 -23.578125 
L -0.984375 -16.609375 
z
" id="DejaVuSans-95"/>
       <path d="M 48.6875 27.296875 
Q 48.6875 37.203125 44.609375 42.84375 
Q 40.53125 48.484375 33.40625 48.484375 
Q 26.265625 48.484375 22.1875 42.84375 
Q 18.109375 37.203125 18.109375 27.296875 
Q 18.109375 17.390625 22.1875 11.75 
Q 26.265625 6.109375 33.40625 6.109375 
Q 40.53125 6.109375 44.609375 11.75 
Q 48.6875 17.390625 48.6875 27.296875 
z
M 18.109375 46.390625 
Q 20.953125 51.265625 25.265625 53.625 
Q 29.59375 56 35.59375 56 
Q 45.5625 56 51.78125 48.09375 
Q 58.015625 40.1875 58.015625 27.296875 
Q 58.015625 14.40625 51.78125 6.484375 
Q 45.5625 -1.421875 35.59375 -1.421875 
Q 29.59375 -1.421875 25.265625 0.953125 
Q 20.953125 3.328125 18.109375 8.203125 
L 18.109375 0 
L 9.078125 0 
L 9.078125 75.984375 
L 18.109375 75.984375 
z
" id="DejaVuSans-98"/>
       <path d="M 8.5 21.578125 
L 8.5 54.6875 
L 17.484375 54.6875 
L 17.484375 21.921875 
Q 17.484375 14.15625 20.5 10.265625 
Q 23.53125 6.390625 29.59375 6.390625 
Q 36.859375 6.390625 41.078125 11.03125 
Q 45.3125 15.671875 45.3125 23.6875 
L 45.3125 54.6875 
L 54.296875 54.6875 
L 54.296875 0 
L 45.3125 0 
L 45.3125 8.40625 
Q 42.046875 3.421875 37.71875 1 
Q 33.40625 -1.421875 27.6875 -1.421875 
Q 18.265625 -1.421875 13.375 4.4375 
Q 8.5 10.296875 8.5 21.578125 
z
M 31.109375 56 
z
" id="DejaVuSans-117"/>
      </defs>
      <use xlink:href="#DejaVuSans-109"/>
      <use x="97.412109" xlink:href="#DejaVuSans-101"/>
      <use x="158.935547" xlink:href="#DejaVuSans-97"/>
      <use x="220.214844" xlink:href="#DejaVuSans-110"/>
      <use x="283.59375" xlink:href="#DejaVuSans-95"/>
      <use x="333.59375" xlink:href="#DejaVuSans-97"/>
      <use x="394.873047" xlink:href="#DejaVuSans-98"/>
      <use x="458.349609" xlink:href="#DejaVuSans-115"/>
      <use x="510.449219" xlink:href="#DejaVuSans-111"/>
      <use x="571.630859" xlink:href="#DejaVuSans-108"/>
      <use x="599.414062" xlink:href="#DejaVuSans-117"/>
      <use x="662.792969" xlink:href="#DejaVuSans-116"/>
      <use x="702.001953" xlink:href="#DejaVuSans-101"/>
      <use x="763.525391" xlink:href="#DejaVuSans-95"/>
      <use x="813.525391" xlink:href="#DejaVuSans-101"/>
      <use x="875.048828" xlink:href="#DejaVuSans-114"/>
      <use x="914.412109" xlink:href="#DejaVuSans-114"/>
      <use x="953.275391" xlink:href="#DejaVuSans-111"/>
      <use x="1014.457031" xlink:href="#DejaVuSans-114"/>
     </g>
    </g>
   </g>
   <g id="line2d_31">
    <path clip-path="url(#pa08edf548f)" d="M 99.338466 502.32341 
L 107.887398 514.464293 
L 116.436331 524.790865 
L 124.985263 533.312208 
L 133.534196 540.2998 
L 142.083128 545.966644 
L 150.632061 550.424992 
L 159.180993 554.085581 
L 167.729926 557.060613 
L 176.278858 559.6833 
L 184.827791 561.721161 
L 193.376723 563.640495 
L 201.925656 565.267918 
L 210.474588 566.699354 
L 219.023521 567.923547 
L 227.572454 569.12688 
L 236.121386 570.178975 
L 244.670319 571.125725 
L 253.219251 572.007772 
L 261.768184 572.769858 
L 270.317116 573.38903 
L 278.866049 573.999647 
L 287.414981 574.560149 
L 295.963914 575.092076 
L 304.512846 575.587894 
L 313.061779 576.007108 
L 321.610711 576.402693 
L 330.159644 576.730053 
L 338.708576 577.067862 
L 347.257509 577.398913 
L 355.806441 577.761494 
L 364.355374 578.046621 
L 372.904306 578.266766 
L 381.453239 578.520853 
L 390.002171 578.79419 
L 398.551104 579.037313 
L 407.100036 579.243966 
L 415.648969 579.459297 
L 424.197901 579.684418 
L 432.746834 579.850956 
L 441.295766 580.047155 
L 449.844699 580.265058 
L 458.393631 580.429465 
L 466.942564 580.576796 
L 475.491496 580.750291 
L 484.040429 580.892249 
L 492.589361 581.074515 
L 501.138294 581.239227 
L 509.687226 581.383526 
L 518.236159 581.516278 
L 526.785091 581.678076 
L 535.334024 581.790683 
L 543.882956 581.908297 
L 552.431889 582.101844 
L 560.980821 582.231372 
L 569.529754 582.299701 
L 578.078686 582.411346 
L 586.627619 582.534407 
L 595.176551 582.677893 
L 603.725484 582.780698 
L 612.274416 582.884689 
L 620.823349 582.977997 
L 629.372281 583.084982 
L 637.921214 583.175146 
L 646.470146 583.266409 
L 655.019079 583.377737 
L 663.568011 583.490586 
L 672.116944 583.633942 
L 680.665876 583.700308 
L 689.214809 583.729243 
L 697.763741 583.750164 
L 706.312674 583.86138 
L 714.861606 583.978875 
L 723.410539 584.067058 
L 731.959471 584.16913 
L 740.508404 584.235969 
L 749.057336 584.303012 
L 757.606269 584.374485 
L 766.155201 584.417999 
L 774.704134 584.49062 
L 783.253066 584.530997 
L 791.801999 584.641293 
L 800.350931 584.730532 
L 808.899864 584.747341 
L 817.448796 584.876173 
L 825.997729 584.899163 
L 834.546662 584.895635 
L 843.095594 584.96248 
L 851.644527 585.072322 
L 860.193459 585.121513 
L 868.742392 585.164791 
L 877.291324 585.27446 
L 885.840257 585.284834 
L 894.389189 585.320762 
L 902.938122 585.358431 
L 911.487054 585.441569 
L 920.035987 585.479144 
L 928.584919 585.486089 
L 937.133852 585.555692 
L 945.682784 585.623636 
" style="fill:none;stroke:#1f77b4;stroke-linecap:square;stroke-width:1.5;"/>
   </g>
   <g id="line2d_32">
    <path clip-path="url(#pa08edf548f)" d="M 99.338466 361.296364 
L 107.887398 369.061981 
L 116.436331 376.685125 
L 124.985263 383.729008 
L 133.534196 390.106765 
L 142.083128 393.001106 
L 150.632061 394.243313 
L 159.180993 394.089459 
L 167.729926 394.076961 
L 176.278858 393.794748 
L 184.827791 392.831574 
L 193.376723 392.091776 
L 201.925656 390.637301 
L 210.474588 388.165709 
L 219.023521 387.185863 
L 227.572454 386.05527 
L 236.121386 384.183437 
L 244.670319 382.815231 
L 253.219251 381.400859 
L 261.768184 380.932093 
L 270.317116 381.12103 
L 278.866049 381.420687 
L 287.414981 381.904857 
L 295.963914 382.58142 
L 304.512846 383.415363 
L 313.061779 384.451885 
L 321.610711 385.427557 
L 330.159644 386.254046 
L 338.708576 387.800108 
L 347.257509 388.6669 
L 355.806441 389.861649 
L 364.355374 391.0518 
L 372.904306 392.782278 
L 381.453239 394.063618 
L 390.002171 395.060236 
L 398.551104 395.854151 
L 407.100036 397.441608 
L 415.648969 398.291429 
L 424.197901 399.957776 
L 432.746834 401.046229 
L 441.295766 401.799543 
L 449.844699 402.92795 
L 458.393631 403.975902 
L 466.942564 404.622275 
L 475.491496 405.799705 
L 484.040429 406.343882 
L 492.589361 407.508714 
L 501.138294 408.404999 
L 509.687226 409.218668 
L 518.236159 409.821583 
L 526.785091 410.199532 
L 535.334024 410.881412 
L 543.882956 412.075514 
L 552.431889 412.359368 
L 560.980821 413.107912 
L 569.529754 413.773591 
L 578.078686 414.315109 
L 586.627619 414.599683 
L 595.176551 415.053814 
L 603.725484 415.35752 
L 612.274416 416.089913 
L 620.823349 416.424852 
L 629.372281 417.286451 
L 637.921214 417.806576 
L 646.470146 417.93101 
L 655.019079 418.219236 
L 663.568011 418.998715 
L 672.116944 419.60978 
L 680.665876 419.936942 
L 689.214809 419.992823 
L 697.763741 420.154851 
L 706.312674 420.467329 
L 714.861606 421.067014 
L 723.410539 421.393803 
L 731.959471 421.762832 
L 740.508404 422.157777 
L 749.057336 422.689381 
L 757.606269 422.906446 
L 766.155201 423.27796 
L 774.704134 423.702 
L 783.253066 423.855481 
L 791.801999 424.207639 
L 800.350931 424.662664 
L 808.899864 424.888003 
L 817.448796 425.241354 
L 825.997729 425.315572 
L 834.546662 425.720903 
L 843.095594 425.910064 
L 851.644527 426.357088 
L 860.193459 426.636966 
L 868.742392 426.974639 
L 877.291324 427.362502 
L 885.840257 427.549104 
L 894.389189 427.64233 
L 902.938122 427.987581 
L 911.487054 428.346323 
L 920.035987 428.752251 
L 928.584919 428.899097 
L 937.133852 429.113652 
L 945.682784 429.25046 
" style="fill:none;stroke:#ff7f0e;stroke-linecap:square;stroke-width:1.5;"/>
   </g>
   <g id="patch_9">
    <path d="M 57.02125 596.84 
L 57.02125 350.08 
" style="fill:none;stroke:#000000;stroke-linecap:square;stroke-linejoin:miter;stroke-width:0.8;"/>
   </g>
   <g id="patch_10">
    <path d="M 988 596.84 
L 988 350.08 
" style="fill:none;stroke:#000000;stroke-linecap:square;stroke-linejoin:miter;stroke-width:0.8;"/>
   </g>
   <g id="patch_11">
    <path d="M 57.02125 596.84 
L 988 596.84 
" style="fill:none;stroke:#000000;stroke-linecap:square;stroke-linejoin:miter;stroke-width:0.8;"/>
   </g>
   <g id="patch_12">
    <path d="M 57.02125 350.08 
L 988 350.08 
" style="fill:none;stroke:#000000;stroke-linecap:square;stroke-linejoin:miter;stroke-width:0.8;"/>
   </g>
   <g id="text_32">
    <!-- Linear NN model -->
    <g transform="translate(472.388125 344.08)scale(0.12 -0.12)">
     <use xlink:href="#DejaVuSans-76"/>
     <use x="55.712891" xlink:href="#DejaVuSans-105"/>
     <use x="83.496094" xlink:href="#DejaVuSans-110"/>
     <use x="146.875" xlink:href="#DejaVuSans-101"/>
     <use x="208.398438" xlink:href="#DejaVuSans-97"/>
     <use x="269.677734" xlink:href="#DejaVuSans-114"/>
     <use x="310.791016" xlink:href="#DejaVuSans-32"/>
     <use x="342.578125" xlink:href="#DejaVuSans-78"/>
     <use x="417.382812" xlink:href="#DejaVuSans-78"/>
     <use x="492.1875" xlink:href="#DejaVuSans-32"/>
     <use x="523.974609" xlink:href="#DejaVuSans-109"/>
     <use x="621.386719" xlink:href="#DejaVuSans-111"/>
     <use x="682.568359" xlink:href="#DejaVuSans-100"/>
     <use x="746.044922" xlink:href="#DejaVuSans-101"/>
     <use x="807.568359" xlink:href="#DejaVuSans-108"/>
    </g>
   </g>
   <g id="legend_2">
    <g id="patch_13">
     <path d="M 64.02125 387.43625 
L 119.29625 387.43625 
Q 121.29625 387.43625 121.29625 385.43625 
L 121.29625 357.08 
Q 121.29625 355.08 119.29625 355.08 
L 64.02125 355.08 
Q 62.02125 355.08 62.02125 357.08 
L 62.02125 385.43625 
Q 62.02125 387.43625 64.02125 387.43625 
z
" style="fill:#ffffff;opacity:0.8;stroke:#cccccc;stroke-linejoin:miter;"/>
    </g>
    <g id="line2d_33">
     <path d="M 66.02125 363.178437 
L 86.02125 363.178437 
" style="fill:none;stroke:#1f77b4;stroke-linecap:square;stroke-width:1.5;"/>
    </g>
    <g id="line2d_34"/>
    <g id="text_33">
     <!-- train -->
     <g transform="translate(94.02125 366.678437)scale(0.1 -0.1)">
      <use xlink:href="#DejaVuSans-116"/>
      <use x="39.208984" xlink:href="#DejaVuSans-114"/>
      <use x="80.322266" xlink:href="#DejaVuSans-97"/>
      <use x="141.601562" xlink:href="#DejaVuSans-105"/>
      <use x="169.384766" xlink:href="#DejaVuSans-110"/>
     </g>
    </g>
    <g id="line2d_35">
     <path d="M 66.02125 377.856562 
L 86.02125 377.856562 
" style="fill:none;stroke:#ff7f0e;stroke-linecap:square;stroke-width:1.5;"/>
    </g>
    <g id="line2d_36"/>
    <g id="text_34">
     <!-- val -->
     <g transform="translate(94.02125 381.356562)scale(0.1 -0.1)">
      <use xlink:href="#DejaVuSans-118"/>
      <use x="59.179688" xlink:href="#DejaVuSans-97"/>
      <use x="120.458984" xlink:href="#DejaVuSans-108"/>
     </g>
    </g>
   </g>
  </g>
 </g>
 <defs>
  <clipPath id="p405703a4e5">
   <rect height="246.76" width="930.97875" x="57.02125" y="36.08"/>
  </clipPath>
  <clipPath id="pa08edf548f">
   <rect height="246.76" width="930.97875" x="57.02125" y="350.08"/>
  </clipPath>
 </defs>
</svg>
